<?xml version="1.0" encoding="iso-8859-1"?>
<!-- Generator: Adobe Illustrator 19.0.0, SVG Export Plug-In . SVG Version: 6.00 Build 0)  -->
<svg version="1.1" id="Capa_1" xmlns="http://www.w3.org/2000/svg" xmlns:xlink="http://www.w3.org/1999/xlink" x="0px" y="0px"
	 viewBox="0 0 512 512" style="enable-background:new 0 0 512 512;" xml:space="preserve">
<path style="fill:#C3EA21;" d="M431.555,193.469c-4.438-58.675-53.451-104.902-113.261-104.902S209.47,134.794,205.033,193.469
	c-43.929,15.695-75.369,57.668-75.369,106.991c0,62.734,50.856,113.589,113.589,113.589c28.765,0,55.028-10.698,75.041-28.325
	c20.013,17.627,46.276,28.325,75.041,28.325c62.734,0,113.589-50.856,113.589-113.589
	C506.924,251.137,475.484,209.164,431.555,193.469z"/>
<path style="fill:#8ADB53;" d="M431.555,193.469c-4.438-58.675-53.451-104.902-113.261-104.902c0,56.623,0,223.196,0,297.157
	c20.013,17.627,46.276,28.325,75.041,28.325c62.734,0,113.589-50.856,113.589-113.589
	C506.924,251.137,475.484,209.164,431.555,193.469z"/>
<polygon style="fill:#BA7400;" points="386.911,264.585 372.949,238.032 333.294,258.883 333.294,215.051 303.294,215.051 
	303.294,313.312 263.638,292.461 249.676,319.014 303.294,347.206 303.294,512 333.294,512 333.294,292.777 "/>
<path style="fill:#4FC16E;" d="M118.096,372.669L118.096,372.669c-67.843,0-120.395-59.36-112.171-126.703l20.082-164.44
	C31.691,34.985,71.208,0,118.096,0l0,0c46.888,0,86.404,34.985,92.088,81.526l20.082,164.44
	C238.491,313.309,185.939,372.669,118.096,372.669z"/>
<path style="fill:#369151;" d="M118.096,372.669L118.096,372.669c0-75.676,0-313.417,0-372.669l0,0
	c46.888,0,86.404,34.985,92.088,81.526l20.082,164.44C238.491,313.309,185.939,372.669,118.096,372.669z"/>
<polygon style="fill:#804D00;" points="172.752,244.604 133.096,265.455 133.096,189.253 186.713,161.062 172.752,134.509 
	133.096,155.36 133.096,111.527 103.096,111.527 103.096,210.407 63.441,189.557 49.479,216.109 103.096,244.301 103.096,512 
	133.096,512 133.096,299.349 186.713,271.157 "/>
<g>
</g>
<g>
</g>
<g>
</g>
<g>
</g>
<g>
</g>
<g>
</g>
<g>
</g>
<g>
</g>
<g>
</g>
<g>
</g>
<g>
</g>
<g>
</g>
<g>
</g>
<g>
</g>
<g>
</g>
</svg>
