<?xml version="1.0" encoding="iso-8859-1"?>
<!-- Generator: Adobe Illustrator 19.0.0, SVG Export Plug-In . SVG Version: 6.00 Build 0)  -->
<svg version="1.1" id="Layer_1" xmlns="http://www.w3.org/2000/svg" xmlns:xlink="http://www.w3.org/1999/xlink" x="0px" y="0px"
	 viewBox="0 0 511.998 511.998" style="enable-background:new 0 0 511.998 511.998;" xml:space="preserve">
<path style="fill:#43A838;" d="M10.367,345.111h472.834c2.927,0,5.267-2.39,5.206-5.316c-0.432-20.84-0.317-97.235,23.352-126.091
	c0.662-0.807-0.154-1.968-1.139-1.622c-11.274,3.959-44.881,17.583-53.245,41.786c-0.333,0.964-1.709,0.915-1.973-0.07
	l-13.043-48.617c-0.248-0.926-1.513-1.048-1.933-0.186l-14.574,29.865c-0.346,0.71-1.328,0.787-1.781,0.14l-27.796-39.706
	c-0.523-0.748-1.688-0.503-1.866,0.392l-12.897,64.809c-0.216,1.085-1.754,1.123-2.022,0.05l-23.274-92.874
	c-0.259-1.033-1.72-1.051-2.005-0.025l-19.578,70.479c-0.26,0.936-1.55,1.032-1.946,0.145l-22.624-50.716
	c-0.392-0.878-1.665-0.796-1.94,0.125l-18.144,60.68c-0.303,1.015-1.754,0.975-2.001-0.055l-10.692-44.558
	c-0.234-0.974-1.577-1.083-1.964-0.159l-29.619,70.63c-0.355,0.846-1.553,0.848-1.911,0.003l-39.636-93.613
	c-0.459-1.085-2.085-0.692-1.988,0.482c1.484,18.054,3.633,67.693-14.796,90.436c-0.514,0.634-1.517,0.48-1.794-0.287
	l-19.482-53.925c-0.342-0.946-1.695-0.9-1.972,0.067l-16.229,56.768c-0.253,0.884-1.442,1.032-1.896,0.233
	c-5.839-10.302-30.02-56.655-17.957-98.3c0,0-31.616,41.527-32.692,72.12c-0.04,1.127-1.604,1.373-2.002,0.318l-13.089-34.705
	c-0.353-0.937-1.698-0.878-1.968,0.086l-15.933,56.826c-0.307,1.095-1.904,0.971-2.028-0.16
	c-1.748-15.918-10.893-60.624-58.72-92.83c-0.812-0.547-1.857,0.249-1.557,1.181c4.632,14.418,23.834,81.942,5.26,159.774
	C4.53,341.965,7.001,345.111,10.367,345.111z"/>
<g>
	<path style="fill:#338727;" d="M488.402,339.8c0.063,2.916-2.281,5.312-5.197,5.312H10.365c-3.364,0-5.832-3.145-5.051-6.416
		c2.104-8.811,3.718-17.497,4.926-25.985c0.042,0.01,0.083,0.01,0.125,0.01h472.84c2.916,0,4.921-0.156,4.921-0.156
		C488.127,319.81,488.206,330.176,488.402,339.8z"/>
	<circle style="fill:#338727;" cx="96.578" cy="288.518" r="8.9"/>
	<circle style="fill:#338727;" cx="121.458" cy="313.398" r="8.9"/>
	<circle style="fill:#338727;" cx="418.478" cy="275.578" r="8.9"/>
</g>
<g>
</g>
<g>
</g>
<g>
</g>
<g>
</g>
<g>
</g>
<g>
</g>
<g>
</g>
<g>
</g>
<g>
</g>
<g>
</g>
<g>
</g>
<g>
</g>
<g>
</g>
<g>
</g>
<g>
</g>
</svg>
