<svg id="svg" xmlns="http://www.w3.org/2000/svg" xmlns:xlink="http://www.w3.org/1999/xlink" width="100" height="110" viewBox="0, 0, 400,436.55913978494624"><g id="svgg"><path id="path0" d="M219.566 0.896 C 219.191 1.389,218.305 3.405,217.596 5.376 C 212.027 20.860,203.577 39.202,192.663 59.498 C 174.900 92.529,164.696 117.340,164.656 127.599 C 164.613 138.450,170.675 153.236,181.676 169.113 C 196.335 190.266,196.791 198.775,183.260 198.646 C 172.738 198.546,164.145 200.986,154.711 206.752 C 144.748 212.841,140.471 216.006,140.199 217.492 C 138.898 224.581,138.815 224.742,136.556 224.514 C 128.634 223.711,127.524 223.965,119.713 228.371 L 112.186 232.616 97.167 232.837 C 80.195 233.087,78.462 232.894,79.543 230.875 C 80.191 229.663,79.922 229.488,76.870 229.139 C 65.340 227.821,64.609 227.810,61.182 228.912 C 59.270 229.526,56.900 230.127,55.914 230.248 C 54.373 230.435,54.092 230.876,53.907 233.399 C 53.706 236.147,52.924 237.097,41.541 248.444 C 29.721 260.226,28.108 262.096,30.584 261.146 C 31.240 260.894,31.610 260.985,31.406 261.348 C 31.203 261.710,29.227 265.233,27.016 269.176 C 24.805 273.118,21.563 279.731,19.811 283.871 C 18.060 288.011,15.006 294.800,13.026 298.957 C 5.520 314.716,2.309 327.463,4.290 333.641 C 4.678 334.852,5.827 338.695,6.842 342.181 C 7.858 345.667,9.961 351.411,11.517 354.946 C 13.072 358.481,15.464 364.589,16.832 368.519 C 18.201 372.450,20.340 377.989,21.586 380.829 L 23.852 385.992 22.979 393.892 C 21.536 406.948,21.644 409.680,23.688 411.901 C 26.126 414.551,32.458 417.234,37.613 417.803 L 41.935 418.280 44.618 426.133 C 48.123 436.398,51.219 438.844,55.240 434.528 C 57.025 432.612,57.517 432.608,62.791 434.469 C 71.760 437.635,78.050 436.622,89.606 430.154 C 91.563 429.058,95.030 428.503,105.376 427.628 C 168.869 422.254,187.874 413.084,204.769 379.668 C 217.428 354.631,217.382 353.283,202.003 297.849 C 200.194 291.327,200.600 284.011,203.160 276.974 C 205.525 270.475,205.508 270.154,202.549 265.713 C 197.972 258.843,193.435 255.040,189.106 254.445 C 187.015 254.157,183.450 253.380,181.183 252.717 L 177.061 251.511 177.072 247.799 C 177.100 238.387,182.000 239.955,197.379 254.295 C 205.089 261.484,209.737 263.830,220.430 265.928 C 224.767 266.779,231.703 268.305,235.842 269.319 C 256.744 274.439,273.535 271.855,297.566 259.819 C 312.048 252.566,312.446 250.599,299.674 249.397 C 286.155 248.125,264.456 242.658,247.229 236.183 C 239.610 233.319,237.848 232.904,234.803 233.252 C 231.445 233.636,231.131 233.524,228.971 231.166 L 226.688 228.674 219.975 228.686 C 207.064 228.710,193.687 230.714,191.543 232.944 C 186.885 237.791,179.198 236.765,181.344 231.584 C 183.879 225.465,187.781 223.509,200.717 221.869 C 225.641 218.711,244.667 210.895,252.779 200.482 C 256.323 195.934,257.122 196.153,262.827 203.230 C 272.708 215.487,282.201 219.104,306.467 219.854 C 320.417 220.286,320.742 220.212,321.257 216.487 C 321.597 214.030,324.236 213.829,330.642 215.775 C 339.925 218.595,342.535 218.741,362.366 217.552 C 372.616 216.938,385.036 216.205,389.964 215.924 L 398.925 215.412 399.513 210.525 C 400.304 203.949,399.534 202.845,392.706 200.766 C 377.174 196.038,370.909 193.852,355.556 187.806 C 346.290 184.158,336.129 180.029,332.975 178.630 C 322.215 173.860,304.909 176.098,275.516 186.063 C 262.494 190.477,259.822 189.574,264.134 182.216 C 267.884 175.819,271.320 166.761,276.017 150.896 L 280.262 136.559 278.748 135.294 C 276.442 133.367,275.715 134.494,271.993 145.752 C 261.700 176.893,252.548 187.291,227.599 196.190 C 217.380 199.834,201.434 200.400,201.434 197.119 C 201.434 194.613,207.300 178.936,215.821 158.673 C 237.516 107.080,237.012 110.365,229.063 72.401 C 228.113 67.867,226.978 60.871,226.540 56.853 C 226.102 52.835,225.114 46.384,224.343 42.516 C 222.492 33.221,221.776 16.563,222.877 8.360 C 223.861 1.019,222.244 -2.626,219.566 0.896 M216.738 39.606 C 217.294 49.177,219.165 62.037,222.290 77.778 C 227.379 103.402,224.311 121.134,208.499 157.504 C 198.417 180.694,197.765 172.410,207.653 146.749 C 213.348 131.968,213.164 130.025,207.196 141.935 C 202.006 152.293,201.699 152.745,200.236 152.184 C 198.443 151.496,199.697 145.059,204.035 132.678 C 208.374 120.297,208.851 116.524,205.016 124.922 C 201.887 131.774,201.031 131.613,201.228 124.213 C 201.396 117.886,202.551 114.266,209.530 98.208 C 218.266 78.105,218.425 74.587,209.756 93.220 C 201.923 110.053,200.742 109.517,203.640 90.447 C 204.459 85.056,205.584 78.710,206.139 76.344 C 209.048 63.939,204.180 67.394,200.393 80.422 C 198.435 87.157,197.174 95.964,196.288 109.104 C 195.253 124.462,195.171 124.654,191.441 120.430 C 187.496 115.964,187.570 118.502,191.536 123.756 C 194.105 127.158,194.587 128.353,194.848 131.969 C 195.247 137.477,194.148 137.538,189.637 132.258 C 186.408 128.479,184.946 127.477,184.946 129.046 C 184.946 129.447,187.203 132.915,189.962 136.752 C 197.522 147.268,197.071 151.447,189.304 142.841 C 183.180 136.055,183.783 138.806,190.445 148.036 L 195.943 155.655 196.469 162.595 C 197.231 172.663,196.306 173.113,190.389 165.551 C 165.724 134.028,167.464 119.982,204.659 50.337 C 210.179 40.002,215.049 31.545,215.482 31.544 C 215.979 31.542,216.442 34.511,216.738 39.606 M320.793 187.085 C 328.279 187.874,352.089 193.415,359.677 196.133 C 364.589 197.893,365.672 198.706,364.265 199.575 C 363.616 199.976,339.956 197.081,329.749 195.352 C 321.691 193.987,308.091 192.849,299.642 192.834 C 291.280 192.819,283.154 192.094,283.154 191.364 C 283.154 190.016,296.483 187.663,308.602 186.872 C 310.573 186.744,312.670 186.586,313.262 186.522 C 313.853 186.457,317.242 186.711,320.793 187.085 M288.147 198.214 C 293.994 201.110,302.077 203.792,303.752 203.391 C 304.565 203.196,303.031 202.157,299.462 200.487 C 293.122 197.518,292.653 196.689,296.953 196.052 C 301.306 195.408,305.462 196.576,313.464 200.693 C 320.016 204.065,323.980 205.269,322.929 203.568 C 322.680 203.165,320.564 201.870,318.227 200.690 C 309.154 196.110,313.661 196.119,345.520 200.740 C 374.980 205.014,385.316 207.038,384.066 208.287 C 382.004 210.350,341.749 211.379,328.219 209.715 C 319.282 208.616,318.214 208.610,315.736 209.646 C 313.948 210.393,308.710 211.040,300.339 211.549 C 282.163 212.653,277.121 211.173,268.592 202.230 C 261.477 194.769,265.344 194.309,278.307 201.075 C 287.914 206.090,288.176 206.190,288.164 204.839 C 288.160 204.346,285.906 202.491,283.154 200.717 C 277.764 197.241,277.479 196.866,279.391 195.762 C 280.910 194.884,282.096 195.216,288.147 198.214 M220.768 205.707 C 223.442 207.398,218.966 208.260,200.236 209.661 C 179.304 211.227,172.650 213.498,165.346 221.569 C 156.332 231.530,154.839 237.506,154.839 263.620 C 154.839 288.258,153.996 291.039,146.529 291.039 C 141.544 291.039,140.720 288.118,143.056 278.720 C 144.572 272.620,145.002 268.629,145.513 255.914 C 146.366 234.640,149.349 225.561,158.486 216.424 C 166.488 208.423,172.853 206.743,198.566 205.850 C 208.226 205.515,216.935 205.195,217.921 205.140 C 218.907 205.085,220.188 205.340,220.768 205.707 M185.305 218.725 C 185.305 219.937,181.437 220.385,179.928 219.348 C 179.009 218.716,179.102 218.400,180.569 217.171 C 182.433 215.608,185.305 216.551,185.305 218.725 M178.127 223.641 C 178.929 224.939,177.125 227.059,174.236 228.215 C 170.265 229.804,168.031 228.716,169.741 226.028 C 171.173 223.775,177.157 222.072,178.127 223.641 M169.719 233.871 C 169.300 235.154,164.695 236.598,163.799 235.726 C 162.768 234.723,165.398 232.975,167.939 232.975 C 169.276 232.975,169.908 233.293,169.719 233.871 M132.235 235.563 C 139.619 242.948,139.593 255.857,132.132 286.710 C 127.071 307.639,116.542 327.578,96.914 353.405 C 82.934 371.800,49.056 406.452,45.051 406.452 C 39.268 406.452,34.772 401.446,36.598 397.040 C 37.674 394.442,38.279 394.457,40.257 397.133 C 41.131 398.315,42.270 399.283,42.787 399.283 C 44.211 399.283,43.913 396.128,42.294 394.070 C 41.505 393.067,40.860 391.223,40.860 389.972 C 40.860 388.434,40.049 386.707,38.358 384.642 C 29.750 374.138,18.963 330.149,21.455 315.718 C 22.603 309.069,22.829 308.798,33.311 301.520 C 45.602 292.985,43.087 290.900,30.433 299.134 C 25.818 302.137,24.426 302.404,25.303 300.119 C 25.696 299.095,41.453 287.569,44.855 285.817 C 47.553 284.427,49.023 282.749,48.410 281.758 C 47.759 280.704,43.972 282.420,36.396 287.200 C 29.169 291.760,28.743 291.775,31.055 287.393 C 32.897 283.899,37.017 281.176,50.717 274.396 C 64.223 267.711,57.443 267.769,42.718 274.464 C 37.106 277.015,36.566 276.917,38.135 273.626 C 40.038 269.638,42.814 266.936,46.389 265.594 C 48.276 264.886,51.756 263.329,54.122 262.134 C 56.487 260.940,60.332 259.453,62.665 258.831 C 68.090 257.385,68.800 255.914,64.072 255.914 L 60.641 255.914 63.183 253.226 C 65.114 251.184,70.207 244.714,72.811 240.996 C 73.460 240.069,83.170 239.551,89.247 240.120 C 114.006 242.435,132.685 241.707,125.448 238.710 C 122.637 237.545,122.714 236.052,125.627 235.211 C 129.152 234.193,130.961 234.289,132.235 235.563 M239.068 244.349 C 250.896 248.042,261.031 251.198,261.589 251.362 C 262.345 251.583,262.398 251.868,261.795 252.470 C 260.085 254.181,202.867 240.893,202.867 238.786 C 202.867 234.948,214.858 236.791,239.068 244.349 M168.521 241.084 C 168.093 241.513,167.742 242.783,167.742 243.906 C 167.742 245.886,163.697 248.678,160.753 248.730 C 157.709 248.783,160.202 244.097,164.577 241.542 C 167.827 239.644,170.242 239.364,168.521 241.084 M202.120 246.680 C 206.203 250.814,207.210 252.330,205.874 252.330 C 204.143 252.330,196.416 244.786,196.416 243.095 C 196.416 241.471,197.892 242.398,202.120 246.680 M213.262 248.204 C 216.049 251.392,221.488 255.292,222.379 254.742 C 222.761 254.506,221.723 252.937,220.072 251.254 C 218.292 249.441,217.379 248.005,217.828 247.728 C 219.657 246.597,232.258 251.225,232.258 253.027 C 232.258 253.843,237.943 256.029,238.757 255.526 C 239.125 255.299,239.427 254.648,239.427 254.080 C 239.427 252.686,239.822 252.719,256.507 255.504 C 275.500 258.675,276.142 259.313,262.366 261.330 C 242.878 264.182,213.764 260.670,212.418 255.305 C 212.158 254.270,210.349 251.735,208.397 249.671 C 206.290 247.443,205.009 245.502,205.243 244.891 C 205.867 243.266,210.684 245.256,213.262 248.204 M119.473 249.283 C 119.294 249.579,118.552 252.482,117.824 255.735 C 116.468 261.794,115.074 263.361,114.318 259.677 C 113.260 254.523,112.400 252.260,111.606 252.541 C 110.573 252.906,110.630 253.613,112.131 259.140 C 113.818 265.347,113.772 272.802,112.024 276.741 L 110.609 279.928 109.964 275.327 C 109.568 272.498,108.935 270.598,108.323 270.395 C 107.307 270.058,107.379 273.010,108.669 284.590 C 109.058 288.082,105.917 299.704,104.868 298.655 C 104.748 298.535,103.924 294.821,103.037 290.402 C 101.401 282.248,99.818 279.703,100.220 285.874 C 100.341 287.729,100.905 291.283,101.474 293.772 C 102.926 300.122,102.791 304.882,101.061 308.272 C 99.027 312.259,98.483 311.852,97.932 305.930 C 97.473 300.990,96.641 298.819,95.605 299.855 C 95.343 300.117,95.474 303.747,95.897 307.922 C 96.641 315.281,96.158 319.713,94.611 319.713 C 94.286 319.713,93.796 317.616,93.522 315.054 C 93.153 311.607,92.742 310.394,91.946 310.394 C 91.024 310.394,90.941 311.466,91.374 317.813 L 91.879 325.231 88.667 331.612 C 80.198 348.435,59.935 373.632,49.290 380.578 C 42.879 384.761,42.868 384.773,43.767 386.454 C 44.339 387.522,45.126 387.836,46.821 387.674 C 48.966 387.468,49.092 387.585,48.898 389.606 L 48.692 391.756 50.690 389.554 C 81.622 355.458,91.914 340.743,102.547 315.412 C 112.430 291.867,124.316 248.746,120.923 248.746 C 120.304 248.746,119.652 248.987,119.473 249.283 M168.741 251.313 C 170.193 255.098,168.423 258.674,163.239 262.430 C 159.648 265.031,159.140 264.680,159.140 259.593 C 159.140 254.884,159.797 253.773,163.799 251.716 C 167.297 249.919,168.178 249.847,168.741 251.313 M169.176 267.034 C 169.176 268.832,168.696 269.803,167.339 270.755 C 166.328 271.463,164.588 272.769,163.472 273.656 C 158.067 277.950,158.350 272.601,163.800 267.446 C 168.092 263.387,169.176 263.304,169.176 267.034 M186.917 266.539 C 190.802 269.305,191.609 272.179,190.943 280.890 C 190.231 290.196,190.310 290.976,192.511 296.532 C 194.522 301.610,199.286 333.802,199.278 342.263 C 199.269 352.256,196.136 366.937,192.469 374.171 C 181.345 396.115,167.519 406.374,142.181 411.487 C 121.843 415.591,114.415 416.560,98.559 417.179 C 84.981 417.708,83.853 417.863,77.413 420.075 C 70.864 422.324,70.443 422.379,66.172 421.531 C 61.507 420.605,60.022 420.884,60.667 422.566 C 61.549 424.865,70.725 425.520,80.287 423.966 L 82.796 423.558 81.008 424.996 C 72.391 431.930,53.047 426.667,53.047 417.389 C 53.047 411.035,54.816 408.829,72.043 393.699 C 80.717 386.081,94.047 373.818,101.664 366.448 C 109.282 359.077,117.589 351.666,120.123 349.979 C 122.658 348.292,124.732 346.518,124.734 346.036 C 124.735 345.555,126.127 344.590,127.827 343.891 C 132.387 342.016,136.087 338.720,134.946 337.550 C 133.530 336.097,133.703 335.915,140.323 331.910 C 148.268 327.102,149.316 326.209,148.365 325.062 C 147.823 324.410,148.575 323.499,151.234 321.588 C 154.328 319.365,154.839 318.659,154.839 316.600 C 154.839 315.111,155.383 313.708,156.272 312.903 C 157.976 311.361,158.114 310.394,156.631 310.394 C 154.766 310.394,155.452 308.516,158.630 304.916 C 160.321 303.001,162.803 299.982,164.145 298.208 C 165.488 296.434,168.096 293.350,169.942 291.356 C 174.110 286.852,175.507 284.192,176.644 278.589 C 177.492 274.412,177.648 274.182,179.783 273.971 C 182.272 273.724,182.435 274.052,183.028 280.501 C 183.659 287.359,185.676 285.593,185.746 278.122 C 185.802 272.155,185.001 270.968,180.918 270.968 C 177.212 270.968,175.570 268.735,177.131 265.818 C 178.164 263.888,183.774 264.301,186.917 266.539 M76.364 270.370 C 76.177 270.896,75.220 273.907,74.238 277.061 C 72.673 282.085,61.744 302.957,54.472 314.809 C 50.923 320.594,48.308 328.902,49.623 330.217 C 51.013 331.607,50.870 331.772,58.159 320.430 C 65.208 309.460,66.861 306.285,70.285 297.133 C 71.760 293.190,74.198 287.222,75.702 283.871 C 78.587 277.441,79.533 270.386,77.599 269.722 C 77.106 269.553,76.550 269.845,76.364 270.370 M162.435 283.692 C 159.222 289.953,157.289 291.588,158.532 286.992 C 159.091 284.928,162.695 280.287,163.741 280.287 C 163.983 280.287,163.396 281.819,162.435 283.692 M146.254 296.425 C 151.996 299.316,151.866 299.059,149.300 302.441 C 142.949 310.812,139.489 312.791,135.853 310.132 C 134.644 309.248,134.608 308.916,135.477 306.727 C 137.041 302.790,137.414 302.550,141.273 303.007 C 145.675 303.529,146.026 302.270,141.935 300.633 C 139.420 299.627,139.068 299.202,139.068 297.174 C 139.068 293.130,139.602 293.075,146.254 296.425 M176.941 295.878 C 176.358 296.568,173.665 301.165,170.956 306.093 C 156.250 332.848,139.814 355.237,130.192 361.624 C 128.010 363.072,118.206 372.219,108.406 381.950 C 98.606 391.680,87.596 402.351,83.939 405.664 C 76.683 412.236,75.220 414.342,76.685 416.108 C 78.311 418.067,80.173 417.286,85.211 412.534 C 88.799 409.149,91.249 407.489,94.115 406.503 C 100.371 404.351,101.267 403.711,100.877 401.672 C 100.643 400.446,100.901 399.767,101.702 399.504 C 109.067 397.086,113.482 395.033,112.302 394.575 C 111.578 394.294,109.820 394.421,108.396 394.858 C 100.707 397.218,106.272 393.476,115.233 390.260 C 119.274 388.810,122.581 387.363,122.581 387.044 C 122.581 385.756,121.205 385.807,117.318 387.239 C 113.495 388.647,111.428 388.605,112.951 387.151 C 113.319 386.799,117.410 384.977,122.043 383.103 C 126.894 381.139,130.466 379.288,130.466 378.736 C 130.466 377.408,129.807 377.514,125.082 379.604 C 118.248 382.626,118.442 381.557,126.258 373.118 C 135.843 362.770,143.700 353.569,151.964 343.017 C 155.666 338.290,163.593 329.071,169.579 322.532 C 182.296 308.639,184.025 306.093,180.747 306.093 C 179.969 306.093,177.210 308.626,174.116 312.181 C 167.095 320.246,167.117 318.914,174.204 306.792 C 179.489 297.752,180.627 294.624,178.628 294.624 C 178.283 294.624,177.523 295.188,176.941 295.878 M138.118 314.404 C 138.659 315.814,132.448 322.287,131.259 321.552 C 130.363 320.999,130.844 318.275,132.377 315.233 C 133.527 312.951,137.348 312.399,138.118 314.404 M188.111 323.556 C 187.880 324.159,188.041 326.909,188.469 329.667 C 190.319 341.590,189.013 358.303,185.289 370.374 C 183.556 375.991,183.557 377.061,185.295 377.061 C 191.112 377.061,196.212 338.915,191.903 327.627 C 190.105 322.916,188.867 321.587,188.111 323.556 M63.882 344.265 C 63.553 345.152,62.883 347.574,62.394 349.647 C 61.805 352.138,60.879 353.906,59.661 354.864 C 57.332 356.696,56.442 355.847,57.355 352.664 C 57.745 351.303,58.065 349.603,58.065 348.887 C 58.065 346.159,56.586 348.685,54.848 354.382 C 52.113 363.349,48.318 366.793,50.595 358.242 C 53.169 348.572,51.372 350.369,47.670 361.167 C 44.551 370.265,43.533 371.306,40.520 368.476 C 38.549 366.624,33.487 366.633,33.136 368.489 C 32.852 369.992,40.648 378.495,42.310 378.495 C 44.208 378.495,54.563 370.500,57.875 366.479 C 62.326 361.072,69.534 350.846,69.534 349.936 C 69.534 348.745,67.721 348.909,66.652 350.197 C 65.308 351.817,64.952 350.959,65.155 346.584 C 65.347 342.436,64.878 341.582,63.882 344.265 M160.784 363.418 C 157.291 369.809,152.132 377.015,148.321 380.826 C 141.899 387.248,143.739 388.219,151.503 382.505 C 154.172 380.541,161.713 369.248,162.818 365.561 C 164.025 361.531,162.623 360.053,160.784 363.418 M164.875 392.564 C 157.934 398.429,153.986 400.386,142.591 403.611 C 124.521 408.726,121.147 409.976,121.147 411.561 C 121.147 413.224,123.253 413.035,131.541 410.627 C 134.301 409.825,138.868 408.578,141.690 407.856 C 153.508 404.834,160.894 401.017,166.319 395.129 C 170.647 390.433,171.794 388.407,170.029 388.579 C 169.757 388.605,167.437 390.399,164.875 392.564 " stroke="none" fill="#000000" fill-rule="evenodd"></path></g></svg>