<?xml version="1.0" encoding="iso-8859-1"?>
<!-- Generator: Adobe Illustrator 19.0.0, SVG Export Plug-In . SVG Version: 6.00 Build 0)  -->
<svg version="1.1" id="Layer_1" xmlns="http://www.w3.org/2000/svg" xmlns:xlink="http://www.w3.org/1999/xlink" x="0px" y="0px"
	 viewBox="0 0 512 512" style="enable-background:new 0 0 512 512;" xml:space="preserve"  >
<g>
	<g>
		<polygon points="311.197,299.49 311.197,356.057 368.235,356.057 374.749,299.49 		"/>
	</g>
</g>
<g>
	<g>
		<polygon points="217.23,299.49 223.742,356.057 280.781,356.057 280.781,299.49 		"/>
	</g>
</g>
<g>
	<g>
		<polygon points="207.215,212.514 213.728,269.074 280.781,269.074 280.781,212.514 		"/>
	</g>
</g>
<g>
	<g>
		<polygon points="415.188,212.514 408.676,269.074 475.625,269.074 488.48,212.514 		"/>
	</g>
</g>
<g>
	<g>
		<path  d="M512,384.078H119.165c-7.726,0-14.011-6.285-14.011-14.011c0-7.726,6.285-14.011,14.011-14.011h16.884h12.139h45.128
			l-6.512-56.567h-63.612l5.943,26.15h-9.971c-24.497,0-44.427,19.93-44.427,44.427s19.93,44.427,44.427,44.427h12.365
			c-1.551,4.187-2.402,8.712-2.402,13.433c0,21.384,17.396,38.78,38.78,38.78c21.384,0,38.78-17.396,38.78-38.78
			c0-4.721-0.851-9.246-2.402-13.433h174.279c-1.551,4.187-2.402,8.712-2.402,13.433c0,21.384,17.396,38.78,38.78,38.78
			c21.383,0,38.78-17.396,38.78-38.78c0-4.721-0.851-9.246-2.402-13.433H512V384.078z"/>
	</g>
</g>
<g>
	<g>
		<polygon points="311.197,212.514 311.197,269.074 378.25,269.074 384.762,212.514 		"/>
	</g>
</g>
<g>
	<g>
		<polygon points="405.174,299.49 398.662,356.057 455.854,356.057 468.711,299.49 		"/>
	</g>
</g>
<g>
	<g>
		<polygon points="311.197,125.538 311.197,182.098 388.264,182.098 394.776,125.538 		"/>
	</g>
</g>
<g>
	<g>
		<polygon points="425.201,125.538 418.69,182.098 495.394,182.098 508.249,125.538 		"/>
	</g>
</g>
<g>
	<g>
		<polygon points="197.201,125.538 203.714,182.098 280.781,182.098 280.781,125.538 		"/>
	</g>
</g>
<g>
	<g>
		<polygon points="166.776,125.538 114.847,125.538 96.607,45.292 0,45.292 0,75.709 72.328,75.709 96.51,182.098 173.287,182.098 
					"/>
	</g>
</g>
<g>
	<g>
		<polygon points="176.789,212.514 103.422,212.514 116.278,269.074 183.301,269.074 		"/>
	</g>
</g>
<g>
</g>
<g>
</g>
<g>
</g>
<g>
</g>
<g>
</g>
<g>
</g>
<g>
</g>
<g>
</g>
<g>
</g>
<g>
</g>
<g>
</g>
<g>
</g>
<g>
</g>
<g>
</g>
<g>
</g>
</svg>
