<?xml version="1.0" encoding="iso-8859-1"?>
<!-- Generator: Adobe Illustrator 19.0.0, SVG Export Plug-In . SVG Version: 6.00 Build 0)  -->
<svg version="1.1" id="Layer_1" xmlns="http://www.w3.org/2000/svg" xmlns:xlink="http://www.w3.org/1999/xlink" x="0px" y="0px"
	 viewBox="0 0 512 512" style="enable-background:new 0 0 512 512;" xml:space="preserve">
<g>
	<g>
		<path d="M488.542,174.916H293.737V27.028c0-10.686-8.693-19.378-19.378-19.378h-36.717c-10.686,0-19.378,8.693-19.378,19.378
			v147.888H23.458C10.524,174.916,0,185.439,0,198.375v50.57c0,12.936,10.524,23.458,23.458,23.458h3.375L53.27,460.293
			c3.534,25.117,25.327,44.057,50.691,44.057h304.076c25.365,0,47.157-18.941,50.691-44.057l26.438-187.891h3.375
			c12.936,0,23.458-10.523,23.458-23.458v-50.57C512,185.439,501.478,174.916,488.542,174.916z M238.661,28.048h34.677v194.805
			h-34.677V28.048z M438.53,457.451c-2.125,15.108-15.235,26.502-30.492,26.502H103.961c-15.257,0-28.366-11.393-30.492-26.502
			L47.432,272.402h417.135L438.53,457.451z M491.602,248.944c0,1.687-1.373,3.06-3.06,3.06H23.458c-1.687,0-3.06-1.373-3.06-3.06
			v-50.57c0-1.687,1.373-3.06,3.06-3.06h194.805v28.558c0,10.686,8.693,19.378,19.378,19.378h36.717
			c10.686,0,19.378-8.693,19.378-19.378v-28.558h194.805c1.687,0,3.06,1.373,3.06,3.06V248.944z"/>
	</g>
</g>
<g>
	<g>
		<path d="M110.151,296.287c-5.633,0-10.199,4.567-10.199,10.199v142.789c0,5.632,4.566,10.199,10.199,10.199
			c5.633,0,10.199-4.567,10.199-10.199V306.486C120.351,300.854,115.784,296.287,110.151,296.287z"/>
	</g>
</g>
<g>
	<g>
		<path d="M168.491,296.287c-5.633,0-10.199,4.567-10.199,10.199v142.789c0,5.632,4.566,10.199,10.199,10.199
			s10.199-4.567,10.199-10.199V306.486C178.69,300.854,174.124,296.287,168.491,296.287z"/>
	</g>
</g>
<g>
	<g>
		<path d="M226.83,296.287c-5.633,0-10.199,4.567-10.199,10.199v142.789c0,5.632,4.566,10.199,10.199,10.199
			c5.633,0,10.199-4.567,10.199-10.199V306.486C237.029,300.854,232.463,296.287,226.83,296.287z"/>
	</g>
</g>
<g>
	<g>
		<path d="M285.17,296.287c-5.632,0-10.199,4.567-10.199,10.199v142.789c0,5.632,4.566,10.199,10.199,10.199
			c5.632,0,10.199-4.567,10.199-10.199V306.486C295.369,300.854,290.802,296.287,285.17,296.287z"/>
	</g>
</g>
<g>
	<g>
		<path d="M343.509,296.287c-5.632,0-10.199,4.567-10.199,10.199v142.789c0,5.632,4.566,10.199,10.199,10.199
			c5.632,0,10.199-4.567,10.199-10.199V306.486C353.708,300.854,349.141,296.287,343.509,296.287z"/>
	</g>
</g>
<g>
	<g>
		<path d="M401.849,296.287c-5.632,0-10.199,4.567-10.199,10.199v8.164c0,5.632,4.567,10.199,10.199,10.199
			c5.632,0,10.199-4.567,10.199-10.199v-8.164C412.048,300.854,407.481,296.287,401.849,296.287z"/>
	</g>
</g>
<g>
	<g>
		<path d="M401.849,343.204c-5.632,0-10.199,4.567-10.199,10.199v95.871c0,5.632,4.567,10.199,10.199,10.199
			c5.632,0,10.199-4.567,10.199-10.199v-95.871C412.048,347.771,407.481,343.204,401.849,343.204z"/>
	</g>
</g>
<g>
</g>
<g>
</g>
<g>
</g>
<g>
</g>
<g>
</g>
<g>
</g>
<g>
</g>
<g>
</g>
<g>
</g>
<g>
</g>
<g>
</g>
<g>
</g>
<g>
</g>
<g>
</g>
<g>
</g>
</svg>
