<?xml version="1.0" standalone="no"?>
<!DOCTYPE svg PUBLIC "-//W3C//DTD SVG 20010904//EN"
 "http://www.w3.org/TR/2001/REC-SVG-20010904/DTD/svg10.dtd">
<svg version="1.0" xmlns="http://www.w3.org/2000/svg"
 width="1280.000000pt" height="640.000000pt" viewBox="0 0 1280.000000 640.000000"
 preserveAspectRatio="xMidYMid meet">
<metadata>
Created by potrace 1.15, written by Peter Selinger 2001-2017
</metadata>
<g transform="translate(0.000000,640.000000) scale(0.100000,-0.100000)"
fill="#508c70" stroke="none">
<path d="M11707 4793 c-10 -9 -8 -68 2 -96 23 -60 84 -92 236 -127 55 -12 123
-31 151 -41 52 -20 119 -77 129 -111 4 -10 -24 -113 -64 -236 -39 -119 -84
-266 -99 -327 l-29 -110 -14 40 c-9 27 -13 81 -11 165 1 132 -6 130 -28 -7
l-12 -72 -62 52 c-69 60 -156 121 -156 112 0 -4 34 -46 76 -93 42 -48 88 -104
102 -125 l25 -38 -17 -72 c-10 -40 -46 -153 -80 -252 -56 -166 -63 -180 -86
-183 -43 -4 -53 10 -41 54 10 34 9 41 -8 52 -17 12 -17 16 -5 50 7 20 13 60
14 87 0 28 9 82 19 120 29 104 64 275 58 281 -3 3 -8 -5 -12 -18 -31 -108 -88
-278 -94 -278 -3 0 -21 26 -39 58 -18 31 -78 111 -132 177 -55 66 -116 149
-135 185 -23 43 -33 55 -29 35 12 -52 48 -125 148 -294 96 -165 136 -251 136
-295 0 -64 -83 -246 -112 -246 -14 0 -9 153 7 174 28 37 38 120 21 186 -20 77
-41 117 -137 266 -42 66 -87 147 -98 180 -12 34 -20 49 -21 35 0 -38 28 -134
65 -221 27 -62 31 -81 19 -76 -9 3 -28 9 -42 12 l-27 7 32 -34 c51 -55 83
-110 83 -142 0 -30 -44 -117 -59 -117 -4 0 -13 11 -19 24 -8 19 -6 36 11 81
21 57 21 58 1 94 -14 27 -35 44 -84 68 -35 17 -66 30 -68 28 -3 -2 12 -23 32
-46 38 -45 59 -96 54 -131 -2 -19 -11 -24 -48 -28 -40 -5 -45 -8 -57 -40 -6
-19 -22 -91 -34 -159 l-22 -123 -30 48 c-74 120 -99 173 -92 202 3 16 -1 43
-10 65 -23 56 -21 73 29 201 25 66 44 121 41 124 -2 2 -25 -40 -50 -94 l-47
-99 -32 125 c-44 173 -81 248 -174 355 -39 44 -134 126 -140 121 -2 -3 19 -35
46 -73 127 -175 195 -335 227 -535 l18 -106 -32 -54 c-21 -34 -31 -44 -27 -28
16 80 17 98 7 104 -7 5 -11 -3 -11 -22 0 -33 -29 -91 -93 -187 l-45 -66 -30
53 c-99 177 -103 187 -93 206 11 21 -2 42 -26 42 -7 0 -13 4 -13 9 0 5 -8 7
-18 4 -20 -5 -220 61 -249 82 -16 12 -15 15 10 48 15 20 59 62 97 93 38 32 68
60 65 62 -7 7 -154 -81 -182 -110 -34 -36 -42 -129 -13 -158 18 -18 18 -19 -1
-36 -12 -11 -33 -17 -56 -16 -50 2 -98 -31 -158 -107 -55 -69 -95 -102 -95
-76 0 9 -4 13 -10 10 -5 -3 -10 -13 -10 -21 0 -17 -38 -53 -56 -54 -25 0 -23
38 12 162 39 144 86 359 79 366 -5 5 -3 11 -45 -127 -44 -147 -90 -271 -100
-271 -5 0 -18 30 -30 68 -12 37 -24 73 -26 81 -2 8 -7 12 -9 9 -3 -2 2 -45 10
-94 8 -49 15 -96 14 -104 0 -18 -37 -65 -45 -57 -9 9 16 345 32 431 19 100 23
107 41 65 31 -75 71 -89 103 -36 26 42 25 49 -5 35 -22 -10 -29 -8 -55 17 -16
15 -45 59 -65 96 -20 38 -40 69 -44 69 -5 0 -8 -37 -7 -82 1 -50 -6 -115 -18
-163 -13 -56 -20 -143 -25 -291 -7 -195 -9 -213 -31 -252 -13 -23 -30 -42 -38
-42 -13 0 -14 34 -8 253 4 138 12 295 17 347 11 97 105 673 114 699 22 59 45
-116 45 -346 0 -166 9 -215 29 -161 28 76 49 438 28 510 -9 34 -40 52 -65 39
-11 -6 -24 -6 -32 -1 -18 11 -60 -25 -60 -52 0 -10 -21 -98 -46 -195 -99 -383
-115 -493 -113 -812 0 -117 -3 -217 -8 -221 -9 -8 -119 -50 -132 -50 -4 0 -7
120 -6 268 3 311 21 515 81 929 14 96 15 127 6 147 -20 44 -63 35 -178 -34
-72 -44 -107 -60 -129 -58 -28 3 -30 6 -35 53 l-6 50 -8 -38 c-10 -48 5 -87
34 -87 11 0 52 16 91 36 91 45 127 44 151 -6 17 -35 17 -38 -28 -215 -55 -218
-103 -456 -105 -510 -1 -31 -4 -23 -15 38 -8 43 -42 149 -76 235 -42 108 -63
178 -68 222 -6 63 -6 64 -14 27 -11 -49 -2 -124 35 -305 52 -259 49 -367 -12
-437 -17 -20 -33 -52 -38 -79 -5 -26 -24 -70 -43 -99 -19 -28 -43 -65 -52 -82
-17 -28 -16 -28 13 5 l31 35 -28 -57 c-15 -32 -30 -58 -34 -58 -9 0 -2 129 17
290 8 69 16 139 18 155 1 17 12 44 23 60 37 52 64 113 64 144 0 37 -40 85 -92
112 -22 11 -42 19 -44 16 -2 -2 7 -24 21 -49 24 -43 25 -49 15 -118 -10 -71
-21 -96 -48 -113 -7 -5 -30 -31 -52 -59 -28 -34 -40 -60 -40 -82 0 -29 -6 -35
-102 -91 -57 -33 -107 -60 -112 -60 -4 0 -23 43 -41 95 -17 52 -35 102 -38
110 -8 16 -1 -74 9 -131 5 -30 -1 -24 -49 47 -74 109 -95 124 -167 124 -89 0
-87 5 -93 -275 -3 -156 -11 -272 -21 -330 -21 -115 -25 -126 -37 -100 -7 15
-8 8 -5 -22 9 -92 -11 -45 -37 85 -32 165 -33 184 -12 241 10 29 14 58 10 82
-8 45 -53 141 -89 188 -14 19 -26 47 -26 61 0 29 -40 73 -81 88 -28 11 -93 99
-115 158 l-15 39 5 -39 c3 -21 19 -67 35 -102 l30 -64 -24 0 c-36 0 -135 36
-254 91 -57 27 -106 47 -108 45 -3 -3 95 -85 168 -139 20 -15 60 -41 90 -58
41 -23 47 -29 24 -24 l-30 7 25 -27 c23 -25 24 -27 8 -53 -37 -61 -154 -193
-176 -199 -12 -3 -25 -3 -28 0 -3 2 11 42 30 88 40 98 78 220 71 227 -2 3 -9
-8 -15 -24 -6 -16 -36 -75 -66 -132 l-56 -103 -28 36 c-26 33 -31 65 -10 65 5
0 22 13 38 30 33 33 52 104 33 123 -8 8 -11 1 -11 -24 0 -44 -21 -64 -75 -74
-22 -4 -46 -11 -52 -17 -26 -22 -12 -73 45 -169 l22 -36 -23 -34 c-33 -49 -52
-48 -78 3 -12 24 -39 68 -60 99 -36 53 -37 59 -27 93 9 27 9 39 0 48 -9 9 -12
5 -12 -20 0 -45 -18 -40 -41 13 -18 40 -21 71 -23 248 -3 187 -2 207 19 272
45 139 41 173 -5 47 -13 -35 -26 -60 -30 -55 -4 4 -12 28 -19 53 -35 121 -136
252 -240 309 l-43 24 62 -79 c82 -102 136 -215 160 -335 l19 -94 -25 -40 c-14
-22 -113 -125 -219 -230 -196 -193 -217 -221 -200 -273 4 -15 -2 -22 -26 -32
-40 -17 -62 -51 -53 -84 5 -23 3 -26 -18 -26 -17 0 -27 8 -35 29 -12 32 -6 82
11 93 6 4 12 31 13 60 6 150 5 180 -4 189 -7 7 -9 3 -6 -15 5 -27 -24 -126
-37 -126 -7 0 -40 44 -40 53 0 2 14 21 30 42 24 30 30 48 30 85 0 62 29 103
184 254 122 120 120 128 -10 39 -157 -106 -208 -171 -228 -293 -3 -19 -15 -50
-26 -67 l-19 -33 -70 42 -70 42 22 25 c12 13 18 22 12 20 -5 -3 -22 -11 -38
-19 -24 -12 -32 -11 -65 4 l-37 18 22 -24 23 -24 -65 -37 c-35 -20 -67 -37
-71 -37 -3 0 -4 13 -2 29 2 17 1 28 -4 25 -4 -3 -8 -15 -8 -27 -1 -41 -26 8
-40 75 -6 35 -20 79 -31 100 -10 20 -20 52 -20 70 -1 24 -3 27 -6 11 -2 -13
-8 -23 -12 -23 -4 0 -27 43 -51 97 -59 128 -79 152 -132 151 -34 0 -43 -5 -57
-29 -10 -18 -22 -27 -30 -24 -10 4 -9 -1 4 -15 17 -19 18 -37 11 -312 -8 -346
-12 -382 -43 -386 -25 -4 -42 26 -44 76 -1 17 -5 10 -10 -21 -7 -35 -19 -56
-47 -82 -20 -19 -40 -35 -43 -35 -9 0 -28 48 -35 88 -3 24 2 57 15 96 23 66
28 198 10 275 -8 34 -5 62 10 135 25 115 28 174 11 206 -7 14 -17 74 -22 134
-10 140 -33 191 -140 302 -43 44 -78 90 -78 100 0 10 -5 26 -11 34 -8 12 -9 9
-5 -12 7 -33 -4 -36 -29 -8 -33 37 -28 12 8 -34 25 -33 36 -60 41 -98 4 -29
36 -199 72 -378 l66 -324 -16 -111 c-9 -60 -17 -139 -19 -175 l-2 -65 -48 59
c-36 45 -47 65 -42 80 20 63 18 71 -29 109 -55 46 -69 87 -55 161 11 59 45
168 66 209 21 41 -1 32 -48 -20 -52 -60 -89 -136 -89 -187 0 -21 12 -65 26
-97 15 -33 25 -61 23 -62 -2 -2 -20 -15 -40 -29 l-36 -27 -12 38 c-6 21 -11
60 -11 87 0 27 -9 153 -20 279 -11 127 -20 281 -20 344 0 63 -2 112 -5 110
-14 -15 -27 -180 -35 -462 -5 -175 -12 -327 -15 -337 -7 -23 -52 -41 -104 -43
-23 -1 -41 -5 -41 -9 0 -4 -13 -14 -28 -22 -28 -15 -29 -14 -46 21 l-17 36 46
91 c25 50 48 109 50 131 4 31 3 34 -3 15 -18 -52 -44 -92 -133 -202 -51 -62
-107 -137 -126 -165 -35 -55 -55 -64 -87 -40 -14 10 -17 22 -14 47 4 30 4 31
-9 15 -21 -29 -16 -73 12 -100 13 -14 29 -25 35 -25 19 0 10 -41 -14 -63 -49
-45 -86 -68 -96 -62 -7 5 -5 12 7 21 17 14 17 15 -3 9 -12 -3 -49 -7 -83 -9
l-62 -4 51 54 c49 52 70 89 70 122 -1 9 -7 2 -15 -15 -8 -18 -35 -47 -61 -65
-84 -58 -102 -78 -120 -126 -9 -26 -20 -51 -24 -55 -15 -18 -44 10 -70 68
l-28 62 24 98 c13 53 26 125 29 159 l5 61 -40 -114 c-42 -121 -66 -164 -56
-101 6 39 32 249 42 350 13 125 50 146 274 153 173 6 245 22 327 75 60 38 137
117 108 109 -11 -3 -63 -17 -115 -31 -52 -14 -171 -40 -263 -57 -196 -35 -276
-58 -332 -94 -64 -42 -72 -61 -89 -191 -9 -66 -20 -139 -26 -164 -5 -25 -14
-98 -21 -162 -9 -93 -15 -118 -26 -118 -12 0 -13 -3 -4 -14 7 -8 11 -37 9 -68
l-3 -53 -49 -3 c-50 -3 -66 6 -66 38 0 8 15 22 33 30 28 13 32 20 34 55 0 22
-1 29 -4 15 -6 -29 -31 -60 -49 -60 -33 0 -30 244 5 411 32 155 34 190 11 224
-33 50 -27 63 43 95 34 15 75 38 91 51 31 24 56 75 55 111 0 18 -3 16 -12 -11
-19 -54 -50 -70 -150 -77 -55 -5 -94 -12 -103 -21 -18 -18 -17 -66 1 -118 15
-42 15 -52 -12 -199 -19 -108 -27 -97 -45 64 -7 61 -16 110 -21 110 -8 0 -6
-44 10 -265 10 -132 10 -355 1 -355 -5 0 -8 5 -8 11 0 5 -32 59 -70 119 -75
117 -90 147 -90 186 0 16 -4 23 -11 18 -10 -6 -9 -26 8 -104 8 -41 -60 80 -73
130 -7 25 -16 44 -22 43 -5 -1 -33 48 -61 108 -29 61 -54 109 -57 107 -4 -5
68 -199 105 -283 12 -26 26 -87 31 -136 6 -48 13 -95 16 -103 4 -11 1 -16 -10
-16 -9 0 -18 12 -22 28 -30 132 -104 387 -148 512 -9 25 -16 58 -16 73 0 84
-72 128 -275 167 -182 35 -286 86 -324 157 -11 21 -20 32 -21 25 0 -21 26 -65
57 -94 40 -39 121 -72 257 -108 196 -52 225 -72 240 -166 3 -23 32 -135 65
-250 78 -277 127 -481 117 -491 -2 -2 -33 11 -70 29 l-66 32 0 51 c0 89 -30
226 -91 412 -32 100 -59 190 -59 198 0 19 -53 75 -70 75 -7 0 -30 -18 -52 -40
-39 -39 -41 -39 -69 -25 -16 9 -29 13 -29 9 0 -32 -34 -212 -42 -221 -16 -20
-25 -16 -36 15 -8 21 -11 23 -11 7 -1 -33 24 -118 36 -122 12 -4 23 28 23 67
0 14 21 69 47 122 l46 97 29 -17 c43 -25 132 -121 156 -168 42 -83 55 -152 55
-292 0 -73 -3 -135 -5 -138 -3 -2 -18 0 -33 6 -39 15 -43 5 -6 -15 19 -9 31
-23 31 -36 0 -17 -5 -20 -37 -17 l-37 3 -12 75 c-7 41 -19 93 -27 115 -9 25
-12 62 -9 98 2 31 2 57 -1 57 -4 0 -24 -26 -45 -57 -48 -70 -77 -97 -95 -90
-12 4 -12 15 -2 69 33 165 27 191 -14 61 -12 -40 -26 -73 -31 -73 -10 0 -55
123 -100 271 -42 139 -40 133 -46 127 -7 -7 39 -216 81 -369 34 -121 36 -159
11 -159 -18 1 -56 37 -56 54 0 8 -5 18 -10 21 -5 3 -10 -1 -10 -10 0 -26 -40
7 -95 76 -61 77 -108 109 -159 107 -34 -1 -44 4 -78 41 -49 52 -59 49 -19 -6
21 -29 26 -44 20 -56 -6 -10 -6 -41 1 -79 13 -82 13 -81 -10 -75 -28 7 -25 -7
4 -21 20 -9 25 -21 33 -89 6 -43 9 -79 8 -81 -1 -1 -26 -5 -55 -9 l-52 -6 26
26 c16 16 26 37 26 54 l-1 28 -14 -32 c-18 -42 -54 -59 -142 -68 l-73 -7 0 33
c0 19 7 69 15 112 22 114 20 189 -5 212 -11 10 -20 29 -20 42 0 13 -4 22 -9
19 -5 -4 -12 13 -16 36 -15 99 -53 154 -155 224 -67 45 -82 65 -60 79 6 3 10
11 10 17 0 6 -11 2 -24 -11 l-23 -22 -77 42 c-42 23 -79 39 -82 37 -2 -3 23
-26 56 -52 33 -26 60 -48 60 -49 0 -2 -24 -28 -54 -59 -29 -31 -59 -70 -66
-87 -7 -17 -16 -31 -20 -31 -4 0 -19 28 -33 62 -41 94 -41 64 -1 -43 29 -76
36 -108 36 -164 -1 -165 -4 -174 -105 -339 l-24 -39 -22 124 c-12 68 -28 140
-34 159 -12 32 -17 35 -57 40 -37 4 -46 9 -48 28 -5 35 16 86 54 131 20 23 35
44 32 46 -2 2 -33 -11 -68 -28 -49 -24 -70 -41 -84 -68 -20 -36 -20 -37 1 -94
17 -45 19 -62 11 -81 -15 -32 -21 -31 -52 16 -45 68 -30 125 57 219 l32 34
-27 -7 c-14 -3 -33 -9 -42 -12 -12 -5 -8 14 19 76 37 87 65 183 65 221 -1 14
-9 -1 -21 -35 -11 -33 -56 -114 -98 -180 -96 -149 -117 -189 -137 -266 -17
-66 -7 -149 21 -186 16 -21 21 -174 7 -174 -29 0 -112 182 -112 246 0 44 40
130 136 295 100 169 136 242 148 294 4 20 -6 8 -29 -35 -19 -36 -80 -119 -135
-185 -54 -66 -114 -146 -132 -177 -18 -32 -36 -58 -39 -58 -6 0 -58 149 -85
243 -9 32 -18 56 -21 53 -6 -6 29 -177 58 -281 10 -38 19 -92 19 -120 1 -27 7
-67 14 -87 12 -34 12 -38 -5 -50 -17 -11 -18 -18 -8 -52 12 -44 2 -58 -41 -54
-23 3 -30 17 -86 183 -34 99 -70 212 -80 252 l-17 72 25 38 c14 21 60 77 102
125 42 47 76 89 76 92 0 9 -97 -61 -161 -115 l-57 -48 -20 102 -21 102 2 -125
c1 -83 -3 -138 -12 -165 l-14 -40 -29 110 c-15 61 -60 208 -99 329 -65 199
-70 220 -58 244 30 55 57 62 249 60 231 -3 270 14 270 113 0 42 -15 36 -17 -7
-2 -41 -15 -59 -57 -81 -25 -13 -52 -14 -161 -9 -195 11 -325 -11 -365 -59
-23 -28 -14 -79 59 -337 133 -466 151 -553 151 -730 l0 -120 -67 7 c-38 4 -71
9 -75 12 -5 2 -8 71 -8 152 0 131 -2 150 -19 165 -14 13 -19 37 -24 114 -8
110 -41 257 -88 382 -33 90 -71 207 -89 277 -6 24 -18 47 -28 51 -9 5 -48 9
-86 8 -69 -1 -70 -2 -90 -36 -17 -28 -22 -56 -24 -140 -5 -149 29 -360 57
-360 12 0 16 36 30 240 10 138 29 251 46 268 16 16 32 -35 72 -230 61 -294 81
-410 89 -516 6 -81 5 -93 -13 -119 -11 -15 -33 -53 -49 -83 l-29 -55 -2 60
c-5 115 -23 241 -43 304 -18 53 -20 73 -12 122 5 33 5 62 1 65 -4 2 -33 -27
-63 -65 -69 -87 -113 -116 -162 -106 -28 5 -34 3 -28 -7 18 -33 50 -58 72 -58
24 0 75 44 98 85 10 18 13 14 28 -35 27 -90 37 -192 46 -460 4 -140 15 -311
25 -379 16 -112 16 -128 2 -180 -23 -81 -41 -281 -33 -365 4 -52 1 -99 -14
-174 -24 -126 -26 -189 -4 -213 15 -17 14 -26 -11 -126 -29 -118 -30 -190 -1
-222 15 -16 42 -19 294 -25 198 -5 4750 -9 5607 -5 33 1 1374 0 2980 -1 1606
0 3045 2 3197 6 258 6 279 8 295 27 25 27 23 130 -6 240 -22 81 -22 89 -7 106
22 24 20 83 -4 211 -15 77 -18 125 -14 180 7 85 -9 263 -33 360 -15 62 -15 75
5 220 13 99 23 239 26 385 6 239 14 323 41 413 l16 53 29 -40 c47 -65 91 -78
127 -38 38 42 38 48 -4 42 -51 -8 -86 15 -158 104 -31 39 -60 69 -64 67 -5 -3
-4 -31 1 -63 8 -48 6 -70 -11 -123 -28 -94 -33 -121 -40 -249 l-6 -115 -47 84
c-54 95 -56 106 -33 270 14 103 21 144 88 468 35 168 52 207 80 183 24 -19 53
-98 87 -231 33 -132 43 -152 66 -143 31 12 11 271 -26 349 -25 51 -48 62 -126
59 -80 -3 -101 -16 -114 -68 -18 -68 -29 -104 -81 -252 -62 -179 -87 -286 -95
-407 -6 -77 -11 -101 -25 -114 -17 -15 -19 -34 -19 -165 0 -81 -3 -150 -7
-152 -5 -3 -38 -8 -75 -12 l-66 -7 -4 58 c-9 167 16 309 124 689 110 389 111
391 91 432 -27 58 -94 88 -298 133 -130 29 -199 55 -240 92 -37 32 -60 86 -50
118 6 20 4 25 -8 13z m-6185 -498 c26 -54 28 -66 22 -127 -5 -59 -3 -73 15
-104 20 -33 21 -42 11 -91 -7 -30 -13 -53 -15 -51 -8 8 -145 529 -145 549 0
18 75 -100 112 -176z m414 -328 l26 -49 -56 38 c-57 37 -66 56 -49 100 5 15 9
13 29 -12 13 -15 35 -50 50 -77z m3404 -72 c-6 -44 -20 -99 -31 -120 -12 -26
-17 -31 -14 -15 12 57 45 254 47 278 1 15 3 7 5 -18 3 -25 -1 -81 -7 -125z
m-7269 -52 c81 -83 88 -96 81 -145 -4 -33 0 -44 23 -68 l27 -29 -37 -68 c-21
-37 -51 -92 -67 -121 l-30 -53 -45 66 c-64 96 -93 154 -93 187 0 19 -4 27 -11
22 -10 -6 -6 -70 8 -113 3 -9 -9 7 -26 34 -26 41 -31 58 -27 90 4 35 3 38 -9
22 -13 -18 -14 -18 -24 2 -24 45 -3 108 76 227 l36 54 26 -19 c14 -11 56 -50
92 -88z m3900 -5 c87 -100 99 -120 99 -173 0 -38 6 -55 31 -86 l31 -39 -21
-25 c-11 -14 -23 -39 -26 -55 -4 -20 -13 -30 -25 -30 -10 0 -20 -7 -24 -15 -3
-8 -13 -15 -21 -15 -9 0 -14 -4 -11 -9 3 -5 3 -36 0 -69 -6 -58 -7 -59 -33
-53 -23 7 -27 14 -34 67 -8 54 -3 226 9 364 7 89 -11 30 -36 -112 -16 -92 -21
-153 -18 -218 2 -49 2 -90 -1 -90 -3 0 -14 7 -24 15 -17 12 -18 18 -6 72 14
64 15 373 1 504 l-8 77 31 -24 c17 -12 55 -51 86 -86z m1217 -140 c-2 -101 1
-193 5 -205 7 -20 5 -23 -17 -23 -25 0 -56 -23 -56 -42 0 -21 32 -76 60 -103
39 -38 38 -66 -6 -115 -20 -22 -38 -39 -40 -38 -1 2 -11 59 -20 128 -16 110
-19 120 -26 85 -4 -22 -7 -61 -7 -87 -1 -27 -4 -48 -7 -48 -3 0 -15 11 -26 25
-27 34 -73 57 -101 49 -20 -4 -30 2 -56 34 -59 75 -42 121 109 292 56 63 120
141 143 173 22 31 43 57 45 57 1 0 2 -82 0 -182z m2041 -87 c-24 -46 -45 -79
-47 -73 -2 6 15 48 37 93 23 45 42 94 43 108 1 19 2 17 5 -9 4 -26 -6 -54 -38
-119z m-1294 70 c3 -10 -2 -35 -11 -54 -16 -34 -17 -34 -47 -19 -30 15 -30 15
-8 24 13 4 28 21 34 38 13 35 23 38 32 11z m530 -96 c54 -58 104 -105 111
-105 8 0 14 -4 14 -9 0 -5 2 -16 5 -23 4 -10 -14 -28 -49 -51 -72 -48 -86 -48
-87 1 -1 21 -3 28 -6 17 -8 -33 -19 -37 -54 -20 -19 10 -35 18 -36 19 -6 5
-33 258 -28 266 14 22 37 5 130 -95z m1992 75 c79 0 98 -13 75 -51 -16 -26
-15 -112 3 -206 8 -43 15 -93 15 -112 l0 -33 -72 7 c-89 9 -125 26 -143 68
l-14 32 -1 -28 c0 -17 10 -38 26 -54 l26 -26 -52 6 c-29 4 -54 8 -55 9 -1 2 2
38 8 81 8 68 13 80 33 89 29 14 32 28 4 21 -23 -6 -23 -7 -10 75 7 40 7 69 1
80 -15 27 16 55 53 48 15 -3 62 -6 103 -6z m-5622 -145 c-24 -42 -35 -76 -35
-103 0 -23 -5 -53 -11 -69 l-11 -28 -13 25 c-8 14 -14 19 -15 12 0 -7 5 -22
10 -32 7 -13 7 -21 -1 -26 -7 -4 -9 -22 -4 -49 3 -26 2 -46 -5 -50 -6 -4 -10
6 -10 27 0 18 -7 42 -15 52 -20 26 -19 80 1 97 28 23 47 69 34 84 -9 11 -2 33
35 101 l48 87 13 -32 c13 -30 11 -36 -21 -96z m3135 105 c0 -24 -22 -62 -30
-54 -12 12 10 75 22 68 4 -3 8 -9 8 -14z m-7117 -48 c29 -95 77 -276 73 -279
-5 -5 -56 49 -56 60 0 6 -3 8 -6 5 -9 -10 15 -51 44 -75 l27 -23 -37 0 c-33 0
-38 4 -44 28 -3 15 -19 73 -35 128 -16 56 -29 110 -29 120 0 19 32 93 40 94 3
0 13 -26 23 -58z m5506 44 c8 -10 9 -16 1 -21 -5 -3 -10 -21 -10 -39 0 -18 -6
-41 -14 -51 -12 -16 -13 -13 -9 32 4 32 1 53 -6 58 -9 5 -9 10 0 21 6 8 15 14
19 14 4 0 13 -6 19 -14z m5634 -25 c22 -49 22 -55 -12 -175 -16 -55 -32 -113
-35 -128 -6 -24 -11 -28 -44 -28 l-37 0 27 23 c29 24 53 65 44 75 -3 3 -6 1
-6 -5 0 -11 -51 -65 -56 -60 -7 7 87 337 96 337 3 0 13 -18 23 -39z m-6915 6
c8 -9 8 -25 1 -53 -18 -68 -18 -68 -34 -54 -17 14 -19 57 -5 94 11 29 22 33
38 13z m230 -8 c-2 -6 -7 -10 -11 -10 -4 1 -15 1 -24 1 -15 0 -16 2 -3 10 20
13 43 13 38 -1z m-2594 -140 c60 -52 122 -105 138 -119 l29 -25 -16 -40 c-10
-22 -28 -63 -41 -91 l-24 -51 -41 41 c-41 41 -42 41 -30 84 19 71 14 101 -19
132 -17 16 -50 35 -73 42 -40 13 -43 18 -64 79 -29 88 -29 98 5 67 15 -14 76
-67 136 -119z m7514 57 c-23 -68 -24 -69 -75 -88 -86 -32 -107 -75 -82 -170
12 -43 11 -43 -30 -84 l-41 -41 -24 51 c-13 28 -31 69 -40 91 l-17 39 58 52
c149 131 268 231 271 225 1 -4 -8 -37 -20 -75z m-8674 51 c15 -24 -2 -34 -19
-11 -8 10 -15 23 -15 27 0 13 22 3 34 -16z m4716 -61 c-11 -38 -22 -71 -24
-73 -3 -3 -14 14 -26 37 l-22 42 38 39 c21 22 41 36 45 31 4 -4 -1 -38 -11
-76z m230 -59 c0 -41 -2 -45 -27 -50 -16 -3 -29 -4 -31 -3 -10 10 -51 179 -46
188 4 7 25 -8 56 -40 43 -45 48 -55 48 -95z m4780 136 c-1 -11 -26 -43 -34
-43 -10 0 -7 25 6 38 13 13 28 16 28 5z m-3440 -24 c-7 -11 -14 -19 -16 -16
-7 7 7 37 17 37 6 0 5 -9 -1 -21z m-5953 -66 c41 -91 74 -176 70 -180 -14 -13
-125 211 -119 240 2 9 6 17 8 17 3 0 21 -35 41 -77z m3358 55 c47 -31 49 -41
15 -83 l-29 -36 -26 50 c-20 41 -23 56 -15 71 13 25 13 25 55 -2z m4030 -74
c-6 -65 -17 -95 -30 -82 -3 2 3 43 13 91 20 101 27 97 17 -9z m1652 -24 c-39
-82 -77 -144 -84 -136 -5 4 26 81 72 181 30 64 39 76 44 60 5 -13 -5 -46 -32
-105z m-9587 2 c0 -26 -4 -41 -10 -37 -16 10 -31 82 -24 112 l7 28 13 -30 c7
-16 13 -49 14 -73z m855 22 c-8 -38 -18 -97 -21 -131 -7 -61 -8 -63 -35 -63
-15 0 -31 5 -34 10 -5 9 96 263 102 256 2 -1 -4 -34 -12 -72z m2785 31 c0 -25
-2 -45 -5 -45 -2 0 -12 14 -20 31 -13 24 -14 34 -4 45 20 25 29 15 29 -31z
m2840 -59 c-28 -53 -56 -96 -62 -96 -5 0 1 19 15 43 13 23 39 68 57 100 18 32
34 56 37 53 3 -2 -19 -47 -47 -100z m1040 99 c0 -2 -5 -26 -11 -54 -9 -43 -14
-51 -40 -56 -16 -4 -52 -22 -78 -40 l-49 -33 -7 27 c-5 20 -2 29 16 41 13 8
53 38 89 67 60 48 80 60 80 48z m1789 -122 c29 -68 50 -127 46 -133 -3 -5 -19
-10 -36 -10 -25 0 -29 4 -29 28 0 27 -22 160 -36 217 -11 48 0 28 55 -102z
m841 38 c-6 -22 -15 -43 -20 -46 -14 -9 -13 65 2 106 l12 33 8 -26 c6 -16 5
-42 -2 -67z m-3402 -102 c3 -37 0 -56 -18 -83 -12 -20 -19 -44 -16 -53 5 -16
0 -18 -49 -15 -53 4 -55 5 -55 32 0 21 7 30 30 40 35 14 70 55 70 79 -1 10 -6
6 -16 -11 -13 -24 -60 -58 -80 -58 -11 0 6 68 39 159 l31 86 29 -64 c17 -35
32 -86 35 -112z m-6591 124 c11 -36 1 -487 -10 -455 -5 12 -25 33 -45 46 -63
39 -68 58 -48 188 12 78 27 134 48 181 17 37 35 67 39 67 4 0 11 -12 16 -27z
m9861 -40 c22 -48 36 -102 48 -184 l17 -116 -23 -31 c-13 -18 -32 -34 -42 -38
-11 -3 -28 -19 -38 -36 -18 -30 -18 -28 -22 193 -3 206 2 279 21 279 4 0 22
-30 39 -67z m-8232 -59 c8 -43 13 -79 11 -80 -2 -2 -22 23 -45 56 l-42 59 22
36 c26 46 33 37 54 -71z m-2714 -171 c3 -220 -9 -467 -26 -518 -8 -24 -30 149
-30 241 -1 87 -4 105 -21 124 -18 20 -20 39 -23 176 -3 135 -1 154 12 154 9 0
29 18 44 40 15 21 30 39 34 40 4 0 8 -116 10 -257z m12020 217 c15 -22 35 -40
44 -40 13 0 15 -19 12 -153 -3 -142 -5 -155 -26 -182 -21 -26 -23 -38 -20
-125 2 -83 -19 -263 -28 -235 -2 6 -9 66 -16 135 -14 129 -13 640 0 640 4 -1
19 -19 34 -40z m-7402 6 c0 -8 -7 -19 -15 -26 -16 -13 -18 -8 -9 27 6 23 24
22 24 -1z m403 -25 c32 -40 34 -46 24 -80 -13 -45 -11 -43 -31 -35 -13 5 -15
15 -11 43 4 24 3 30 -3 16 -7 -16 -10 -12 -15 20 -8 45 -9 90 -3 84 2 -2 20
-24 39 -48z m941 -5 c4 -34 2 -65 -5 -80 -10 -21 -8 -32 11 -68 27 -52 40
-200 21 -237 -7 -12 -21 -54 -31 -94 l-19 -72 0 70 c-1 80 -13 132 -35 149 -8
6 -22 24 -29 39 -13 24 -12 33 0 70 8 23 13 58 10 77 -4 34 49 200 64 200 3 0
9 -25 13 -54z m-4554 7 c0 -8 -7 -10 -17 -6 -12 4 -7 -6 14 -29 51 -59 51 -74
4 -115 -48 -41 -53 -58 -13 -48 17 4 23 3 17 -3 -78 -72 -94 -83 -113 -73 -35
19 -33 41 9 135 23 50 51 111 61 135 15 32 22 40 29 30 5 -8 9 -19 9 -26z
m3519 -40 c1 -24 -1 -43 -4 -43 -4 0 -19 7 -36 15 -32 17 -31 21 10 84 14 22
15 22 22 5 4 -11 8 -38 8 -61z m3849 27 c-11 -44 -27 -75 -35 -67 -2 3 6 30
18 61 25 67 33 69 17 6z m1875 -91 c58 -129 62 -150 25 -170 -19 -10 -35 1
-113 73 -6 6 0 7 18 3 39 -10 34 7 -14 48 -47 41 -47 56 4 115 21 23 26 33 15
29 -19 -7 -22 1 -12 28 9 23 13 16 77 -126z m-6163 36 c15 -47 -2 -70 -43 -59
-32 7 -33 15 -7 39 21 19 26 51 11 75 -6 8 -7 18 -4 23 6 10 26 -25 43 -78z
m274 45 c26 -64 19 -79 -14 -33 -18 25 -28 47 -24 57 10 26 21 19 38 -24z
m2056 9 c0 -6 -4 -7 -10 -4 -5 3 -10 11 -10 16 0 6 5 7 10 4 6 -3 10 -11 10
-16z m-1140 -9 c0 -5 -5 -10 -11 -10 -5 0 -7 5 -4 10 3 6 8 10 11 10 2 0 4 -4
4 -10z m104 -48 c3 -26 3 -69 -2 -97 -7 -47 -9 -49 -21 -27 -9 17 -10 46 -5
102 7 87 19 96 28 22z m311 -59 c-8 -97 -20 -98 -37 -5 -11 59 -11 63 13 88
30 32 33 23 24 -83z m1898 74 l29 -22 -31 -39 -31 -39 0 39 c0 22 -3 49 -6 62
-8 28 3 28 39 -1z m415 -24 c-5 -27 -11 -59 -14 -73 l-6 -25 -19 24 c-10 13
-19 30 -19 38 0 16 48 83 60 83 4 0 3 -21 -2 -47z m-6188 12 c0 -14 -2 -25 -4
-25 -2 0 -6 11 -8 25 -3 14 -1 25 3 25 5 0 9 -11 9 -25z m6010 -42 c0 -24 -41
-26 -64 -3 l-21 21 30 26 29 26 13 -29 c7 -16 12 -34 13 -41z m1542 41 c-3
-17 -7 -22 -12 -13 -9 13 -2 39 10 39 4 0 5 -12 2 -26z m-4132 -40 c0 -19 -4
-34 -10 -34 -5 0 -10 18 -10 41 0 24 4 38 10 34 6 -3 10 -22 10 -41z m738 21
c10 -21 9 -26 -8 -35 -27 -15 -30 -13 -30 18 0 47 20 56 38 17z m2477 -54 l-7
-46 -14 27 c-13 24 -12 32 2 65 21 47 30 25 19 -46z m-4160 33 c14 -29 15 -38
4 -45 -31 -19 -73 38 -49 66 18 22 26 19 45 -21z m-2449 -9 c-4 -14 -11 -25
-16 -25 -13 0 -13 16 1 42 14 26 23 16 15 -17z m2665 25 c10 -6 19 -15 19 -20
0 -17 -25 -11 -38 10 -14 22 -9 25 19 10z m4849 -37 c0 -7 -4 -13 -9 -13 -10
0 -21 25 -21 48 1 15 3 14 15 -2 8 -11 15 -26 15 -33z m-6610 -21 c-7 -13 -9
-8 -9 23 0 35 1 37 10 17 6 -15 5 -30 -1 -40z m3464 -30 c28 -33 45 -60 42
-70 -2 -9 -8 -41 -11 -69 -5 -40 -11 -53 -24 -53 -13 0 -19 15 -27 69 -6 38
-25 100 -43 136 -17 37 -31 69 -31 72 0 10 48 -34 94 -85z m2536 63 c0 -19 -5
-25 -23 -25 -38 0 -70 -29 -64 -58 6 -29 -29 -149 -49 -173 -8 -8 -14 -31 -15
-50 0 -19 -5 -43 -10 -54 -5 -13 -7 16 -3 80 4 55 13 112 20 127 8 15 14 35
14 45 -1 12 -6 8 -15 -12 l-14 -30 2 45 c2 44 3 45 72 87 38 24 73 43 77 43 4
0 8 -11 8 -25z m-4904 -7 c10 -31 7 -62 -23 -208 -19 -95 -24 -142 -20 -194
l6 -69 -27 24 c-63 55 -69 84 -22 111 24 14 30 23 29 50 -1 29 -2 30 -8 9 -6
-23 -38 -43 -53 -34 -5 2 -8 50 -8 105 l0 101 44 -6 c30 -4 49 -2 62 8 17 13
14 14 -38 15 -32 0 -58 3 -58 7 0 10 92 103 101 103 4 0 11 -10 15 -22z m-191
-25 c-4 -21 -13 -45 -20 -53 -7 -8 -27 -41 -45 -72 -30 -54 -49 -77 -36 -43 3
8 -2 37 -11 65 -9 28 -14 52 -12 54 11 9 124 86 128 86 2 0 0 -17 -4 -37z
m1390 27 c3 -5 1 -10 -4 -10 -6 0 -11 5 -11 10 0 6 2 10 4 10 3 0 8 -4 11 -10z
m-2790 -40 c17 -34 18 -40 6 -40 -7 0 -31 51 -31 66 0 12 12 0 25 -26z m1805
10 c0 -4 -6 -13 -14 -19 -12 -10 -17 -8 -25 8 -15 27 -14 29 14 23 14 -2 25
-8 25 -12z m3653 -28 c-40 -30 -53 -34 -59 -17 -4 10 3 26 16 40 22 24 24 24
42 8 19 -17 19 -18 1 -31z m1233 22 c-4 -9 -9 -15 -11 -12 -3 3 -3 13 1 22 4
9 9 15 11 12 3 -3 3 -13 -1 -22z m-9068 0 c21 -6 22 -11 22 -103 l-1 -96 -24
30 c-14 17 -35 49 -47 73 -13 24 -32 45 -44 48 -13 3 -24 16 -27 30 -4 23 -2
24 47 24 28 0 61 -3 74 -6z m572 -66 c0 -50 -16 -49 -24 1 -3 22 -9 48 -13 58
-6 17 -5 17 15 -1 16 -13 22 -31 22 -58z m720 46 c0 -8 -4 -12 -10 -9 -5 3
-10 13 -10 21 0 8 5 12 10 9 6 -3 10 -13 10 -21z m374 11 c-3 -8 1 -24 10 -37
16 -23 23 -108 8 -108 -4 0 -27 32 -51 70 -44 69 -56 84 -45 55 8 -19 0 -19
-16 0 -10 12 -8 16 11 24 13 5 38 10 56 10 24 1 31 -3 27 -14z m189 -12 c3
-16 5 -28 4 -29 -12 -6 -111 14 -115 24 -5 15 32 31 74 31 27 1 32 -3 37 -26z
m705 -24 c1 -19 9 -70 18 -114 9 -44 14 -91 12 -105 -3 -21 -9 -15 -40 43 -32
60 -37 79 -38 140 -1 40 -1 75 -1 79 1 4 11 4 24 -1 16 -6 23 -17 25 -42z
m2182 25 c0 -14 -4 -23 -10 -19 -5 3 -10 15 -10 26 0 10 5 19 10 19 6 0 10
-12 10 -26z m1242 0 c-2 -14 1 -36 8 -49 10 -18 10 -31 0 -59 -6 -20 -15 -38
-19 -40 -4 -3 -14 31 -22 76 -15 78 -15 80 5 88 32 13 34 12 28 -16z m2312
-42 c4 -41 2 -61 -4 -57 -6 3 -10 34 -10 67 0 76 5 72 14 -10z m653 36 c-3 -7
-5 -2 -5 12 0 14 2 19 5 13 2 -7 2 -19 0 -25z m708 22 c41 -16 24 -34 -36 -41
-30 -3 -55 -5 -56 -5 -1 1 1 13 4 29 4 22 11 27 34 27 15 0 40 -5 54 -10z
m196 -7 c6 -6 4 -15 -7 -24 -16 -12 -17 -12 -11 4 12 31 1 18 -44 -53 -24 -38
-47 -70 -51 -70 -15 0 -8 85 8 108 9 13 13 30 10 39 -5 13 1 15 40 10 25 -2
50 -9 55 -14z m290 -16 c-8 -8 -11 -7 -11 4 0 20 13 34 18 19 3 -7 -1 -17 -7
-23z m736 -24 c-6 -29 -15 -53 -19 -53 -15 0 -8 73 9 92 9 10 17 17 19 16 1
-2 -3 -27 -9 -55z m666 33 c-3 -14 -14 -27 -27 -30 -12 -3 -31 -24 -44 -48
-12 -24 -33 -56 -47 -73 l-24 -30 -1 97 c0 110 -4 105 91 107 54 1 56 0 52
-23z m-11283 -6 c0 -21 -24 -28 -35 -10 -8 14 3 30 21 30 8 0 14 -9 14 -20z
m2479 -16 l53 -36 -24 -24 c-30 -30 -55 -23 -74 20 -8 20 -13 24 -14 13 0 -23
16 -55 43 -84 23 -25 24 -61 6 -137 -10 -40 -14 -47 -20 -31 -4 11 -8 35 -8
54 -1 19 -9 43 -18 54 -15 15 -18 38 -18 113 0 57 4 94 10 94 6 0 34 -16 64
-36z m2243 -8 c-4 -39 -5 -39 -18 -15 -10 20 -10 27 3 42 20 22 21 20 15 -27z
m2997 -10 c9 -33 8 -43 -6 -58 -19 -21 -36 -14 -28 13 4 10 2 19 -3 19 -18 0
-22 54 -4 68 20 15 27 8 41 -42z m3219 31 c2 -12 -3 -17 -17 -17 -15 0 -21 6
-21 21 0 25 33 22 38 -4z m-2331 -84 c-7 -112 -22 -173 -41 -173 -11 0 -9 20
10 93 13 50 24 111 24 135 0 23 3 42 7 42 3 0 3 -44 0 -97z m-8504 81 c8 -8
-3 -34 -14 -34 -5 0 -9 9 -9 20 0 19 11 26 23 14z m4216 -35 c13 -22 20 -43
17 -46 -3 -4 -7 -4 -9 -2 -1 2 -12 18 -25 36 -12 18 -22 37 -22 43 0 22 17 8
39 -31z m1999 -53 c-4 -60 -13 -101 -36 -159 -18 -43 -32 -92 -32 -108 0 -27
-3 -30 -22 -23 -21 6 -22 5 -8 -11 12 -15 12 -18 -3 -26 -21 -12 -37 -70 -37
-136 0 -40 -4 -53 -15 -53 -19 0 -19 6 6 115 11 50 20 99 20 110 1 11 5 58 11
105 5 47 11 104 13 128 2 32 13 56 45 97 23 30 47 52 52 49 6 -4 9 -39 6 -88z
m4502 74 c0 -11 -4 -20 -9 -20 -11 0 -22 26 -14 34 12 12 23 5 23 -14z m-9851
-67 c2 -49 -33 -120 -68 -137 -41 -22 -44 -20 -25 16 11 21 14 43 10 68 -5 32
-1 44 31 86 36 47 37 48 44 24 4 -14 7 -39 8 -57z m232 67 c16 -9 19 -22 19
-85 0 -40 -4 -77 -10 -80 -6 -4 -10 17 -10 57 -1 39 -6 70 -15 82 -26 34 -19
44 16 26z m809 4 c0 -14 -45 -104 -52 -104 -13 0 -9 22 13 67 18 37 39 57 39
37z m750 -74 c0 -39 -3 -51 -10 -40 -5 8 -10 40 -10 70 0 39 3 51 10 40 5 -8
10 -40 10 -70z m3836 36 c-22 -46 -36 -50 -36 -12 0 20 31 54 51 55 3 1 -3
-19 -15 -43z m2333 1 c22 -45 26 -67 13 -67 -7 0 -52 90 -52 104 0 20 21 0 39
-37z m801 35 c0 -5 -7 -17 -15 -28 -9 -12 -14 -43 -15 -82 0 -40 -4 -61 -10
-57 -5 3 -10 39 -10 80 0 60 3 76 18 84 21 13 32 14 32 3z m254 -38 c31 -40
35 -52 30 -84 -4 -25 -1 -47 10 -68 19 -36 16 -38 -25 -16 -32 16 -69 86 -69
129 0 26 11 85 16 85 2 0 19 -21 38 -46z m-6784 -27 c-1 -51 -1 -52 -15 -25
-9 16 -12 38 -9 57 10 46 24 27 24 -32z m1600 49 c0 -8 -4 -18 -10 -21 -5 -3
-10 3 -10 14 0 12 5 21 10 21 6 0 10 -6 10 -14z m2697 -23 c-3 -10 -5 -4 -5
12 0 17 2 24 5 18 2 -7 2 -21 0 -30z m773 -7 c-19 -24 -27 -19 -22 15 4 28 6
29 20 15 13 -12 13 -18 2 -30z m-5624 14 c0 -21 -11 -26 -21 -10 -7 11 2 30
13 30 4 0 8 -9 8 -20z m1430 -134 c8 -101 0 -106 -40 -28 -19 39 -22 56 -17
99 4 28 14 59 21 69 13 15 15 14 22 -17 4 -19 10 -74 14 -123z m1724 107 c0
-45 -26 -212 -34 -220 -2 -2 -7 16 -10 39 -5 32 -1 63 14 112 12 38 19 79 16
92 -4 14 -2 24 4 24 5 0 10 -21 10 -47z m1080 -35 c6 -45 4 -61 -16 -100 -39
-78 -48 -73 -41 23 4 46 10 101 13 122 6 35 8 37 22 23 9 -8 19 -39 22 -68z
m-6867 65 c2 -5 8 -26 11 -48 6 -32 5 -38 -5 -27 -7 6 -21 12 -31 12 -21 0
-22 8 -8 44 9 25 24 34 33 19z m1556 -82 c40 -76 42 -137 6 -164 -37 -26 -48
-13 -40 47 4 32 3 46 -3 38 -6 -9 -12 10 -16 60 -4 40 -10 82 -13 93 -11 38
32 -11 66 -74z m548 57 c-3 -7 -5 -2 -5 12 0 14 2 19 5 13 2 -7 2 -19 0 -25z
m935 15 c21 -19 22 -33 6 -88 l-11 -40 -13 55 c-22 90 -18 106 18 73z m1865
-15 c-3 -7 -5 -2 -5 12 0 14 2 19 5 13 2 -7 2 -19 0 -25z m2118 -1 c8 -19 16
-58 19 -88 l6 -54 -24 50 c-30 61 -43 125 -27 125 7 0 18 -15 26 -33z m2351
-62 c-7 -50 -15 -83 -19 -75 -4 8 -4 -8 -1 -36 7 -60 -5 -73 -41 -47 -46 34
-28 127 42 221 14 18 26 32 28 30 1 -2 -3 -43 -9 -93z m1534 69 c14 -36 13
-44 -8 -44 -10 0 -24 -6 -31 -12 -10 -11 -11 -5 -5 27 11 64 27 74 44 29z
m-9545 -54 c36 -71 45 -123 23 -136 -8 -5 -9 -2 -5 10 5 12 -2 28 -18 48 -16
19 -25 42 -25 63 0 19 -4 45 -10 59 -18 49 0 26 35 -44z m8185 44 c-6 -14 -10
-40 -10 -59 0 -21 -9 -44 -25 -63 -16 -20 -23 -36 -18 -48 4 -12 3 -15 -5 -10
-22 13 -13 65 23 136 35 70 53 93 35 44z m-9815 -243 c18 -41 31 -81 28 -88
-3 -8 -15 10 -29 43 -12 31 -44 89 -70 128 -39 59 -48 80 -51 126 l-4 55 47
-95 c25 -52 61 -128 79 -169z m454 147 c-23 -43 -37 10 -22 83 l7 34 12 -49
c9 -34 10 -55 3 -68z m7742 69 c-8 -8 -11 -5 -11 9 0 27 14 41 18 19 2 -9 -1
-22 -7 -28z m2788 -39 c1 -42 -13 -58 -28 -31 -6 12 -5 35 2 68 10 43 12 46
18 25 4 -14 7 -42 8 -62z m549 30 c-3 -42 -14 -68 -52 -124 -26 -39 -58 -97
-70 -128 -14 -35 -26 -51 -29 -43 -3 8 14 57 38 108 87 191 110 239 114 239 2
0 1 -24 -1 -52z m-7934 -93 c4 -89 2 -126 -7 -143 -13 -23 -13 -22 -30 13 -15
31 -15 47 -6 138 13 118 16 134 28 121 5 -5 11 -63 15 -129z m4829 103 c-6
-32 -23 -63 -23 -41 0 13 21 73 26 73 2 0 1 -15 -3 -32z m-3098 -46 c-9 -9
-26 41 -19 56 5 13 9 8 15 -18 4 -19 6 -36 4 -38z m-769 -26 c-11 -43 -26 -20
-25 37 l0 52 16 -31 c10 -20 13 -42 9 -58z m-3546 36 c0 -15 -2 -15 -10 -2
-13 20 -13 33 0 25 6 -3 10 -14 10 -23z m3870 -83 c0 -5 -5 -9 -10 -9 -13 0
-27 35 -35 86 -5 38 -5 38 20 -15 14 -29 25 -57 25 -62z m2950 27 c-1 -22 -9
-56 -19 -75 l-18 -35 -17 32 c-18 34 -16 43 18 80 17 19 18 26 8 42 -19 31
-13 47 8 21 13 -15 20 -38 20 -65z m2571 57 c-8 -15 -10 -15 -11 -2 0 17 10
32 18 25 2 -3 -1 -13 -7 -23z m-7185 -19 c-4 -14 -9 -24 -12 -21 -3 2 -2 17 2
31 3 15 9 25 11 22 3 -3 2 -17 -1 -32z m5729 -3 c-3 -16 -13 -35 -20 -41 -12
-10 -12 -3 1 35 18 50 30 55 19 6z m-1045 19 c0 -5 -2 -10 -4 -10 -3 0 -8 5
-11 10 -3 6 -1 10 4 10 6 0 11 -4 11 -10z m-7142 -130 c13 -26 16 -50 12 -95
-7 -69 -11 -63 -40 55 -12 47 -24 87 -27 90 -3 3 -3 -32 0 -78 3 -46 3 -82 1
-79 -10 10 -44 144 -44 174 0 64 10 68 47 16 19 -26 42 -64 51 -83z m274 72
c-4 -21 -6 -22 -14 -8 -6 10 -7 29 -3 44 7 24 8 25 14 8 4 -11 5 -31 3 -44z
m1176 -14 l-1 -73 -6 60 c-6 56 -4 85 5 85 2 0 3 -33 2 -72z m6994 60 c2 -7 1
-40 -2 -73 l-6 -60 -4 73 c-4 64 1 94 12 60z m1182 -46 l-7 -27 -7 25 c-3 14
-4 33 -2 44 5 17 6 17 14 1 6 -9 7 -28 2 -43z m356 -2 c0 -32 -33 -167 -44
-177 -2 -3 -2 32 1 76 3 45 3 81 1 81 -3 0 -16 -42 -28 -92 -28 -115 -40 -130
-41 -53 -2 83 -3 79 48 157 49 73 63 75 63 8z m-3962 -90 l-4 -35 -13 30 c-8
20 -10 45 -5 75 l7 45 9 -40 c5 -22 7 -56 6 -75z m-6516 64 c-3 -17 -8 -22
-15 -15 -7 7 -6 15 3 26 17 20 18 19 12 -11z m3178 -31 c0 -7 -4 -13 -10 -13
-12 0 -30 34 -30 57 0 15 4 14 20 -7 11 -14 20 -31 20 -37z m2890 -7 c-7 -26
-15 -46 -19 -46 -13 0 -12 93 1 101 24 15 31 -8 18 -55z m1362 34 c-4 -28 -20
-39 -35 -24 -6 7 23 53 34 54 3 0 4 -13 1 -30z m3461 -11 c-7 -7 -12 -3 -15
16 -5 25 -4 25 10 11 12 -11 13 -19 5 -27z m-7111 -46 c14 -55 14 -64 1 -75
-23 -19 -33 7 -33 87 0 80 11 76 32 -12z m3339 -71 c-17 -31 -33 31 -21 81 19
73 25 74 28 4 2 -37 -1 -75 -7 -85z m-4495 101 c-11 -11 -19 6 -11 24 8 17 8
17 12 0 3 -10 2 -21 -1 -24z m5114 28 c0 -12 -41 -63 -47 -57 -5 5 35 66 43
66 2 0 4 -4 4 -9z m-7027 -46 c9 -20 17 -48 17 -62 l0 -27 -29 28 c-32 30 -44
69 -28 85 17 17 22 14 40 -24z m3940 -32 c10 -32 12 -55 6 -58 -5 -4 -12 2
-15 12 -3 10 -12 35 -19 57 -14 38 -11 66 5 49 5 -4 15 -32 23 -60z m5554 56
c16 -16 4 -55 -28 -85 l-29 -28 0 27 c0 27 29 97 40 97 3 0 11 -5 17 -11z
m-9282 -41 c12 -57 7 -132 -11 -145 -10 -7 -21 -10 -25 -7 -13 8 -11 42 4 47
7 3 6 6 -5 6 -33 2 -34 57 -2 109 20 30 30 28 39 -10z m1159 -2 c20 -43 21
-103 1 -122 -13 -14 -15 -13 -15 10 0 16 -5 25 -12 24 -9 -2 -12 7 -10 27 2
17 3 45 3 63 0 41 13 41 33 -2z m6745 2 c0 -18 1 -46 3 -63 2 -20 -1 -29 -9
-27 -8 1 -13 -8 -13 -24 0 -23 -2 -24 -15 -10 -20 19 -19 79 1 122 20 43 33
43 33 2z m1174 -11 c22 -43 16 -87 -11 -88 -10 0 -12 -3 -4 -6 14 -5 16 -39 3
-47 -4 -3 -15 0 -25 7 -27 20 -20 183 8 174 6 -2 19 -20 29 -40z m-9743 -115
c10 -87 -3 -147 -25 -115 -15 22 -29 189 -19 229 l7 29 14 -34 c8 -19 18 -68
23 -109z m10404 -2 c-3 -52 -12 -103 -19 -113 -12 -17 -13 -16 -23 11 -11 33
0 156 19 211 12 34 12 34 21 10 5 -13 6 -67 2 -119z m-8894 84 c10 -29 10 -38
-1 -45 -7 -4 -17 -5 -21 -3 -15 10 -8 84 8 84 1 0 8 -16 14 -36z m6759 -8 c-9
-8 -10 -7 -5 7 3 10 7 24 7 30 1 7 3 4 6 -7 3 -10 -1 -23 -8 -30z m611 -1 c0
-37 -9 -48 -29 -36 -11 7 -11 16 -1 45 14 43 30 38 30 -9z m-3098 13 c-11 -11
-32 -3 -32 12 0 4 9 6 21 3 13 -4 17 -9 11 -15z m-6462 2 c0 -5 -2 -10 -4 -10
-3 0 -8 5 -11 10 -3 6 -1 10 4 10 6 0 11 -4 11 -10z m11740 6 c0 -3 -4 -8 -10
-11 -5 -3 -10 -1 -10 4 0 6 5 11 10 11 6 0 10 -2 10 -4z m-8644 -111 c-18 -49
-20 -21 -4 43 10 37 14 41 16 22 1 -14 -4 -43 -12 -65z m-131 65 c3 -5 1 -10
-4 -10 -6 0 -11 5 -11 10 0 6 2 10 4 10 3 0 8 -4 11 -10z m-266 -50 c0 -23 -1
-23 -9 -5 -5 11 -9 29 -9 40 -1 17 1 17 9 5 5 -8 9 -26 9 -40z m828 8 c-3 -7
-5 -2 -5 12 0 14 2 19 5 13 2 -7 2 -19 0 -25z m1428 -10 c4 -16 3 -28 -2 -28
-18 0 -30 22 -25 46 5 29 18 21 27 -18z m2915 -1 c0 -24 -7 -52 -15 -63 -15
-18 -15 -18 -11 6 3 14 8 42 11 63 8 50 15 47 15 -6z m-6070 -37 c0 -3 -9 -16
-19 -29 l-18 -24 -16 47 c-9 26 -13 54 -10 63 5 13 12 10 35 -17 15 -19 28
-37 28 -40z m1497 33 c-3 -10 -5 -4 -5 12 0 17 2 24 5 18 2 -7 2 -21 0 -30z
m929 -18 c-9 -48 -24 -52 -32 -10 -5 29 -3 39 12 50 23 17 28 6 20 -40z m5748
-19 c-9 -25 -17 -46 -19 -46 -1 0 -10 12 -20 26 -16 24 -15 27 11 61 36 47 50
26 28 -41z m-9585 10 c14 -55 15 -164 2 -150 -11 10 -31 122 -31 172 0 44 15
33 29 -22z m10961 -69 c-6 -40 -16 -76 -22 -82 -15 -14 -4 142 13 180 l13 30
4 -28 c2 -15 -2 -60 -8 -100z m-3180 109 c0 -2 -8 -10 -17 -17 -16 -13 -17
-12 -4 4 13 16 21 21 21 13z m-7277 -47 c3 -13 1 -19 -6 -16 -15 5 -22 37 -9
37 5 0 12 -9 15 -21z m4254 -11 c-3 -7 -5 -2 -5 12 0 14 2 19 5 13 2 -7 2 -19
0 -25z m5701 15 c-2 -9 -8 -18 -15 -20 -7 -3 -9 3 -6 16 6 25 26 28 21 4z
m-3372 -68 c5 -43 3 -57 -4 -50 -6 6 -14 37 -18 70 -5 43 -3 57 4 50 6 -6 14
-37 18 -70z m-6509 28 c-3 -10 -5 -4 -5 12 0 17 2 24 5 18 2 -7 2 -21 0 -30z
m7183 -41 l-13 -27 -8 25 c-4 14 -7 38 -8 54 l-1 29 21 -27 c19 -24 20 -31 9
-54z m2607 41 c-3 -10 -5 -4 -5 12 0 17 2 24 5 18 2 -7 2 -21 0 -30z m-10810
-50 c25 -71 30 -137 12 -149 -6 -4 -7 -9 -2 -13 8 -6 29 -128 40 -236 3 -27 9
-55 14 -60 4 -6 2 -35 -5 -65 -8 -33 -16 -49 -19 -40 -10 23 -37 268 -37 335
0 34 -4 65 -9 70 -19 21 -44 251 -24 232 3 -4 17 -37 30 -74z m11853 -70 c-7
-46 -16 -86 -21 -89 -5 -3 -9 -33 -9 -67 0 -69 -27 -314 -37 -337 -3 -9 -11 7
-19 40 -7 30 -9 59 -5 65 5 5 11 33 14 60 11 108 32 230 40 236 5 4 4 9 -2 13
-24 15 -8 107 37 216 12 30 13 -55 2 -137z m-10450 100 c0 -41 -14 -36 -25 10
-6 21 -4 27 9 27 12 0 16 -10 16 -37z m2265 16 c4 -13 0 -28 -11 -40 -17 -19
-19 -19 -31 -3 -10 13 -9 21 4 40 19 29 30 30 38 3z m6780 -6 c-11 -46 -25
-51 -25 -10 0 27 4 37 16 37 13 0 15 -6 9 -27z m-9505 -110 c-10 -16 -11 -15
-6 7 3 14 7 36 7 50 2 19 3 18 6 -7 2 -18 -1 -41 -7 -50z m2735 -1 c-5 -14 -9
-12 -22 11 -13 26 -13 31 4 49 18 20 18 20 21 -12 2 -17 0 -39 -3 -48z m7209
28 c4 -31 3 -40 -4 -30 -5 8 -10 30 -10 49 0 45 6 37 14 -19z m-8959 9 c16
-29 15 -31 -2 -27 -11 2 -19 14 -21 31 -4 35 4 34 23 -4z m7991 -15 c-3 -8
-12 -14 -21 -14 -14 0 -13 4 2 33 13 25 18 28 21 14 2 -10 1 -25 -2 -33z
m-3425 -48 c15 -16 10 -69 -10 -100 l-19 -28 -7 23 c-9 27 -7 158 3 173 3 6
10 -5 15 -24 5 -19 13 -39 18 -44z m-6200 -3 c-1 -50 -19 -127 -20 -87 -2 34
12 145 16 140 3 -3 5 -26 4 -53z m11256 -93 c-2 -8 -8 11 -14 43 -5 32 -8 70
-4 85 4 19 7 7 13 -43 5 -38 7 -77 5 -85z m-11676 0 c30 -99 32 -113 30 -240
-2 -108 2 -152 18 -220 23 -95 26 -199 8 -304 l-12 -70 -18 28 c-24 36 -31
110 -20 217 8 83 8 88 -14 114 -25 29 -28 85 -14 255 6 73 4 87 -11 102 -15
15 -18 36 -17 141 0 135 1 134 50 -23z m4606 103 c-3 -10 -5 -4 -5 12 0 17 2
24 5 18 2 -7 2 -21 0 -30z m7521 -121 c-2 -70 -7 -97 -19 -105 -12 -10 -14
-26 -8 -97 15 -169 11 -226 -14 -255 -22 -26 -22 -31 -14 -114 11 -107 4 -181
-20 -217 l-18 -28 -12 70 c-18 104 -15 204 8 307 16 72 20 120 18 222 -2 117
0 138 24 210 14 44 32 100 39 125 l12 45 4 -35 c2 -19 2 -77 0 -128z m-5350
111 c-4 -22 -22 -20 -26 1 -2 10 3 16 13 16 10 0 15 -7 13 -17z m269 -40 c-17
-18 -22 -8 -11 22 5 12 10 13 17 6 8 -8 6 -16 -6 -28z m-5950 -25 c-3 -8 -6
-5 -6 6 -1 11 2 17 5 13 3 -3 4 -12 1 -19z m9890 0 c-3 -8 -6 -5 -6 6 -1 11 2
17 5 13 3 -3 4 -12 1 -19z m-9517 -42 c0 -14 -4 -28 -10 -31 -6 -4 -10 7 -10
24 0 17 5 31 10 31 6 0 10 -11 10 -24z m9160 -7 c0 -17 -4 -28 -10 -24 -5 3
-10 17 -10 31 0 13 5 24 10 24 6 0 10 -14 10 -31z m-1706 -35 c3 -8 2 -12 -4
-9 -6 3 -10 10 -10 16 0 14 7 11 14 -7z m-7811 -104 l6 -55 -19 54 c-11 29
-17 58 -14 63 11 18 21 -6 27 -62z m9866 -9 c-12 -34 -22 -61 -24 -59 -3 3 14
99 22 127 2 9 7 11 13 5 7 -7 3 -32 -11 -73z m-5169 -27 c0 -24 -4 -44 -10
-44 -5 0 -10 23 -10 51 0 31 4 48 10 44 6 -3 10 -26 10 -51z m-5074 22 c3 -15
-2 -38 -15 -62 l-20 -39 -1 31 c-1 75 23 122 36 70z m10638 -7 c3 -17 6 -46 6
-63 l-1 -31 -20 39 c-13 24 -18 47 -15 62 9 33 22 30 30 -7z m-8499 -55 c-24
-37 -31 -20 -9 22 13 24 20 30 22 19 2 -9 -4 -27 -13 -41z m3535 -33 c0 -24
-17 1 -24 34 l-6 30 15 -25 c8 -14 14 -32 15 -39z m-5880 -36 c0 -36 -2 -65
-4 -65 -3 0 -16 19 -30 42 l-25 43 21 22 c12 13 25 23 30 23 4 0 8 -29 8 -65z
m11058 42 l21 -22 -25 -43 c-14 -23 -27 -42 -30 -42 -2 0 -4 29 -4 65 0 36 4
65 8 65 5 0 18 -10 30 -23z m-11081 -179 c17 -22 35 -103 31 -139 -3 -31 -6
-26 -31 49 -15 46 -27 87 -27 93 0 13 16 11 27 -3z m11088 -20 c-4 -18 -18
-60 -31 -93 l-23 -60 0 40 c-1 44 15 113 31 133 19 22 30 13 23 -20z"/>
<path d="M9020 3709 c0 -5 5 -7 10 -4 6 3 10 8 10 11 0 2 -4 4 -10 4 -5 0 -10
-5 -10 -11z"/>
</g>
</svg>
