<?xml version="1.0" standalone="no"?>
<!DOCTYPE svg PUBLIC "-//W3C//DTD SVG 20010904//EN"
 "http://www.w3.org/TR/2001/REC-SVG-20010904/DTD/svg10.dtd">
<svg version="1.0" xmlns="http://www.w3.org/2000/svg"
 width="1280.000000pt" height="731.000000pt" viewBox="0 0 1280.000000 731.000000"
 preserveAspectRatio="xMidYMid meet">
<metadata>
Created by potrace 1.15, written by Peter Selinger 2001-2017
</metadata>
<g transform="translate(0.000000,731.000000) scale(0.100000,-0.100000)"
fill="#508c70" stroke="none">
<path d="M3389 5758 c40 -58 130 -152 138 -145 7 8 -28 54 -97 130 -61 67 -83
75 -41 15z"/>
<path d="M4209 5758 c40 -58 130 -152 138 -145 7 8 -33 61 -100 132 -61 66
-79 71 -38 13z"/>
<path d="M8553 5745 c-67 -71 -107 -124 -100 -132 8 -7 98 87 138 145 41 58
23 53 -38 -13z"/>
<path d="M9370 5743 c-69 -76 -104 -122 -97 -130 8 -7 98 87 138 145 42 60 20
52 -41 -15z"/>
<path d="M4412 5550 c0 -19 2 -27 5 -17 2 9 2 25 0 35 -3 9 -5 1 -5 -18z"/>
<path d="M4960 5482 c0 -23 4 -42 9 -42 6 0 7 17 4 38 -8 51 -13 53 -13 4z"/>
<path d="M4430 5463 c0 -21 5 -45 10 -53 7 -11 10 -2 10 32 0 26 -4 50 -10 53
-6 4 -10 -9 -10 -32z"/>
<path d="M7147 5461 c-4 -19 -5 -36 -2 -39 10 -11 16 7 13 40 l-3 33 -8 -34z"/>
<path d="M6623 5425 c0 -22 2 -30 4 -17 2 12 2 30 0 40 -3 9 -5 -1 -4 -23z"/>
<path d="M3678 5413 c9 -16 83 -127 163 -248 80 -121 188 -296 240 -390 102
-184 108 -196 169 -330 73 -158 78 -169 95 -210 9 -22 20 -48 25 -57 6 -10 10
-29 10 -43 0 -14 7 -28 15 -31 10 -4 15 -20 16 -48 0 -31 2 -36 9 -21 13 32
23 -5 10 -39 -7 -19 -7 -33 1 -48 6 -11 8 -22 6 -25 -5 -5 -118 98 -214 194
-57 57 -194 216 -190 220 2 1 22 -3 45 -9 32 -8 46 -8 54 0 8 8 5 14 -13 21
-23 9 -23 10 -2 10 41 2 34 21 -11 33 l-46 12 33 11 c18 6 33 18 35 29 3 16
-1 18 -24 13 l-29 -5 23 18 c25 21 31 55 7 46 -12 -4 -14 0 -10 17 5 18 0 25
-25 36 -28 12 -33 11 -53 -7 l-22 -21 0 34 c0 44 -16 48 -35 10 l-14 -30 -6
30 c-3 20 -13 31 -30 36 -47 13 -50 11 -50 -36 l0 -46 -40 42 c-22 23 -49 57
-60 76 -11 18 -24 39 -30 46 -19 21 -80 118 -80 127 0 4 -7 10 -15 14 -8 3
-15 2 -15 -3 0 -5 28 -66 63 -137 54 -109 62 -131 53 -151 -6 -12 -17 -23 -25
-23 -8 0 -11 -7 -8 -20 3 -13 0 -20 -9 -20 -20 0 -17 -26 4 -35 15 -6 14 -8
-5 -16 -13 -4 -23 -13 -23 -18 0 -5 10 -13 23 -17 22 -7 21 -7 -5 -16 -27 -9
-39 -28 -18 -28 6 0 10 -9 10 -21 0 -19 4 -20 43 -14 l42 7 -20 -21 c-16 -18
-17 -24 -5 -31 7 -4 24 -4 37 1 23 9 24 8 17 -28 -6 -34 -6 -36 18 -31 22 4
30 -3 59 -51 18 -31 36 -58 39 -61 10 -9 48 -95 59 -130 25 -85 39 -137 45
-165 7 -29 7 -29 -8 -10 -8 11 -16 28 -16 37 0 9 -4 19 -9 22 -7 4 -17 46 -25
98 -1 3 -4 10 -8 14 -5 4 -8 19 -9 33 0 14 -3 20 -6 13 -3 -7 3 -47 12 -88 9
-42 14 -78 11 -82 -3 -3 -46 32 -94 79 -88 85 -108 103 -217 194 -33 27 -71
60 -85 73 -14 13 -68 56 -120 95 -52 40 -100 77 -107 84 -7 6 -29 21 -50 34
-21 13 -41 28 -45 33 -4 6 -10 7 -14 4 -8 -9 -2 -15 111 -108 49 -41 103 -87
120 -102 40 -35 61 -53 136 -117 126 -108 375 -365 397 -411 23 -48 76 -244
87 -320 3 -25 10 -54 14 -65 39 -97 81 -290 57 -264 -22 24 -76 124 -86 161
-8 27 -17 42 -21 36 -8 -13 -142 187 -142 212 0 8 -10 22 -21 32 -17 13 -19
19 -8 29 22 24 15 42 -15 35 l-28 -6 27 20 c27 21 29 54 3 44 -8 -4 -11 2 -8
18 3 18 -2 26 -27 37 -27 12 -33 11 -51 -4 -18 -18 -19 -17 -19 13 0 24 -4 32
-18 32 -12 0 -58 49 -125 133 -108 136 -143 174 -152 165 -5 -5 50 -90 136
-208 37 -51 44 -67 33 -73 -8 -5 -14 -24 -14 -49 l0 -41 -33 38 c-36 41 -63
41 -53 0 5 -19 2 -22 -19 -17 -18 3 -25 0 -25 -11 0 -8 -7 -18 -16 -21 -9 -3
-14 -12 -11 -19 3 -8 -3 -18 -13 -24 -15 -10 -26 -1 -75 60 -31 40 -63 86 -70
102 -23 52 -48 139 -47 167 0 15 -4 30 -9 34 -5 3 -7 10 -4 15 4 5 1 9 -4 9
-6 0 -11 7 -11 15 0 9 9 15 25 15 29 0 33 15 8 25 -16 6 -15 8 7 26 14 12 18
17 10 13 -8 -4 -22 -13 -32 -21 -29 -25 -32 5 -4 48 15 21 23 39 19 39 -5 0
-17 -13 -28 -30 -19 -28 -20 -29 -28 -8 -5 13 -2 29 8 44 9 14 11 24 5 24 -6
0 -14 -10 -19 -22 l-9 -23 -10 25 c-6 14 -22 54 -36 90 -27 71 -36 53 -10 -20
18 -50 22 -116 8 -130 -6 -6 -17 18 -28 58 -21 77 -49 152 -43 112 3 -14 12
-50 20 -81 9 -32 13 -75 10 -97 -5 -36 -7 -39 -24 -29 -24 15 -36 1 -21 -24
10 -16 10 -20 -3 -25 -25 -10 -47 4 -41 24 4 11 -1 25 -13 36 -18 16 -19 16
-24 -6 -4 -15 2 -33 19 -55 20 -27 23 -36 14 -54 -10 -17 -8 -21 10 -26 30 -8
5 -23 -39 -23 -25 0 -32 -4 -28 -15 4 -8 1 -18 -6 -22 -8 -5 -4 -9 11 -13 21
-5 21 -6 7 -34 -24 -45 -13 -52 27 -17 48 42 53 39 22 -10 -21 -33 -23 -43
-12 -50 20 -13 25 -11 38 21 7 17 17 33 22 36 6 4 5 -3 -1 -14 -15 -27 -14
-45 2 -39 6 2 18 -3 24 -12 11 -14 14 -14 23 -1 5 8 10 32 10 52 0 20 3 39 8
42 4 2 24 -20 45 -49 31 -44 43 -78 72 -202 59 -245 57 -223 29 -256 -13 -16
-24 -34 -25 -40 0 -7 -5 -1 -10 12 -7 17 -5 30 6 47 17 27 19 53 4 74 -8 12
-9 11 -4 -6 3 -12 -2 -38 -11 -57 l-17 -36 -90 137 c-183 279 -447 622 -479
622 -14 0 7 -33 162 -249 138 -193 200 -292 200 -321 0 -14 26 -41 33 -34 3 3
23 -21 44 -53 76 -112 84 -129 75 -154 -8 -21 -9 -21 -15 10 -4 18 -11 30 -15
27 -5 -3 -22 20 -38 51 -35 71 -43 55 -11 -24 22 -54 23 -61 8 -70 -13 -9 -14
-14 -3 -32 13 -22 7 -26 -27 -21 -9 1 -12 -5 -8 -19 9 -37 -15 -35 -49 5 -26
31 -33 35 -34 20 0 -18 -1 -18 -20 -1 -11 10 -40 54 -64 99 -24 45 -58 108
-76 141 -45 83 -123 206 -127 201 -2 -2 6 -21 18 -42 43 -78 128 -244 124
-244 -2 0 -30 35 -61 78 -75 101 -193 249 -271 340 -70 81 -88 111 -98 164 -4
21 -14 54 -21 75 l-15 38 5 -45 c3 -25 8 -54 12 -63 10 -28 -17 -20 -53 15
-46 44 -51 30 -8 -26 19 -25 51 -67 70 -92 19 -25 35 -56 35 -70 0 -29 -7 -30
-34 -6 l-20 17 18 -30 c11 -16 30 -46 43 -65 12 -19 23 -43 23 -53 0 -15 -6
-14 -46 13 -36 25 -43 34 -34 45 15 18 4 36 -16 28 -14 -5 -15 -3 -4 16 10 20
9 23 -9 28 -12 3 -21 9 -21 14 0 14 -27 10 -44 -6 -21 -21 -24 -19 -22 16 1
41 -20 49 -36 14 -12 -26 -12 -26 -20 -6 -8 23 -53 45 -75 37 -8 -3 -13 -22
-13 -48 l0 -43 -20 32 c-10 17 -28 37 -40 43 -25 14 -21 36 6 31 18 -3 18 -2
0 18 -11 12 -36 31 -55 43 -20 12 -52 34 -72 50 -29 22 -42 26 -60 20 -21 -8
-20 -10 25 -45 44 -33 106 -105 132 -153 11 -19 10 -20 -19 -16 -24 4 -29 2
-24 -11 4 -10 -2 -17 -15 -21 -17 -4 -19 -8 -9 -19 9 -12 7 -16 -11 -21 l-23
-6 24 -20 c22 -19 22 -20 3 -20 -32 0 -35 -18 -6 -33 l27 -14 -32 -6 c-31 -6
-44 -27 -17 -27 9 0 12 -7 9 -21 -5 -19 -3 -20 43 -13 46 7 48 6 31 -11 -10
-9 -16 -22 -14 -29 6 -17 39 -7 71 22 l29 27 -27 -40 c-14 -22 -26 -45 -26
-53 0 -20 29 -26 48 -9 22 20 69 11 75 -14 6 -24 37 -25 38 -1 0 10 3 12 6 5
2 -7 12 -13 20 -13 44 0 121 -95 233 -290 5 -8 24 -40 41 -70 18 -30 46 -80
62 -110 16 -30 36 -66 45 -80 14 -23 24 -140 12 -140 -3 0 -14 13 -23 29 -10
17 -26 32 -36 36 -23 7 -32 25 -115 232 -48 119 -125 276 -126 256 0 -6 27
-82 60 -168 33 -86 60 -163 60 -171 0 -8 -39 30 -86 83 -77 88 -191 203 -200
203 -2 0 -21 16 -41 36 -21 20 -48 43 -60 51 -13 8 -78 85 -145 171 -135 172
-267 326 -330 385 -79 74 -57 36 70 -123 47 -58 92 -116 100 -130 9 -14 26
-38 39 -53 13 -16 23 -34 23 -40 0 -8 -3 -8 -8 -2 -25 35 -363 269 -420 291
l-37 15 45 -42 c25 -23 81 -66 125 -97 73 -52 239 -182 325 -255 75 -63 155
-144 190 -192 62 -86 193 -298 194 -316 1 -9 21 -41 45 -72 24 -30 57 -79 74
-108 95 -173 96 -176 85 -187 -8 -8 -7 -13 5 -17 9 -4 13 -13 10 -21 -3 -8 1
-14 11 -14 15 0 42 -37 33 -46 -2 -2 -16 5 -30 17 -40 30 -33 4 11 -42 41 -44
112 -146 112 -160 0 -5 -18 2 -41 16 -73 46 -64 21 19 -55 76 -69 113 -122 98
-137 -3 -3 -1 -12 4 -18 7 -9 6 -16 -4 -24 -10 -9 -16 -8 -25 3 -8 10 -9 16
-1 21 5 3 10 14 10 23 0 13 -2 13 -14 -4 -14 -18 -18 -15 -91 56 -43 43 -91
102 -110 138 -40 71 -41 76 -19 68 23 -9 12 17 -13 29 -12 6 -29 17 -39 25
-22 18 -95 133 -88 139 2 2 22 -6 45 -18 42 -24 66 -21 33 4 -10 8 -42 26 -71
39 -41 20 -68 45 -130 123 -43 54 -98 120 -123 147 -25 26 -44 53 -42 58 1 6
-3 16 -9 24 -17 21 20 18 43 -3 16 -14 21 -15 28 -3 5 8 3 19 -6 27 -23 24
-16 31 39 42 l52 10 -50 -3 c-45 -4 -47 -3 -26 9 22 11 23 13 6 22 -16 10 -16
10 1 17 15 6 16 9 5 15 -8 5 -27 3 -47 -5 -45 -19 -50 -18 -29 6 14 16 15 20
4 20 -8 0 -20 -5 -27 -12 -9 -9 -12 -8 -12 5 0 19 -21 22 -37 6 -9 -9 -21 -4
-49 20 -20 18 -39 29 -42 26 -4 -4 4 -15 18 -25 27 -20 21 -35 -15 -42 -14 -3
-19 -11 -17 -28 l3 -24 -30 28 c-24 23 -33 27 -44 18 -8 -7 -17 -9 -20 -5 -4
3 -7 2 -7 -3 0 -6 5 -15 12 -22 8 -8 1 -13 -30 -18 -55 -9 -53 -20 6 -29 l47
-8 -45 -11 c-56 -15 -63 -42 -10 -39 19 0 28 -1 19 -3 -17 -5 -23 -64 -7 -64
5 0 29 12 54 26 39 23 44 24 44 8 0 -9 3 -15 6 -11 4 3 13 0 21 -8 16 -17 43
-20 43 -5 0 5 7 7 15 4 8 -4 15 -2 15 2 0 5 4 15 9 23 8 12 19 4 57 -37 58
-63 236 -300 287 -382 36 -58 37 -61 15 -55 -20 5 -19 2 10 -25 43 -40 35 -51
-9 -13 -91 77 -365 250 -378 238 -3 -4 1 -10 9 -15 51 -28 339 -241 410 -302
87 -76 159 -169 164 -213 1 -13 10 -33 19 -43 10 -10 17 -32 17 -48 0 -21 -3
-25 -9 -15 -5 8 -16 11 -25 8 -13 -5 -15 -11 -6 -26 14 -28 13 -31 -15 -31
-16 0 -25 -6 -25 -16 0 -11 -6 -14 -22 -9 -21 6 -22 5 -5 -8 9 -8 17 -22 17
-31 0 -9 7 -16 16 -16 8 0 12 -4 9 -10 -3 -5 -22 -10 -40 -10 -30 0 -39 6 -60
40 -14 22 -25 42 -25 44 0 24 -245 408 -357 559 -41 56 -77 114 -80 129 -3 14
-13 28 -22 31 -10 2 -51 44 -91 93 -234 283 -512 551 -804 773 -124 95 -330
231 -349 231 -15 -1 26 -36 128 -107 44 -31 105 -77 136 -102 30 -25 71 -57
89 -71 150 -111 439 -386 625 -593 89 -100 96 -111 62 -105 -37 7 -24 -8 37
-42 68 -39 158 -149 327 -401 86 -129 169 -257 169 -263 0 -3 23 -45 51 -93
28 -48 66 -122 86 -163 19 -41 39 -82 44 -90 5 -8 25 -48 44 -89 51 -106 36
-109 -35 -6 -71 103 -176 224 -300 345 -113 111 -139 146 -141 187 0 5 24 14
53 20 l53 12 -50 -4 c-45 -5 -47 -4 -30 10 17 13 18 16 5 25 -11 7 -7 8 16 4
20 -4 34 -2 39 6 6 10 1 11 -18 6 -16 -4 -27 -2 -30 7 -3 9 -14 8 -50 -4 l-45
-16 15 24 c17 25 12 29 -18 13 -15 -8 -19 -7 -19 5 0 22 -28 18 -35 -5 -7 -22
-20 -26 -30 -10 -7 11 -53 3 -72 -12 -6 -5 -9 -17 -6 -26 4 -11 -7 -5 -27 13
-22 20 -34 26 -37 18 -3 -7 -12 -13 -20 -13 -12 0 -13 -3 -3 -15 10 -12 7 -15
-17 -20 -68 -16 -68 -25 0 -35 l42 -6 -42 -14 c-55 -19 -54 -36 0 -33 38 2 38
0 -2 -13 -10 -3 -11 -7 -2 -18 8 -10 9 -16 1 -21 -6 -3 -8 -11 -4 -16 3 -6 24
1 50 16 37 22 47 24 59 13 45 -41 45 -41 66 -22 15 13 19 14 19 3 1 -8 8 -1
16 14 15 27 16 28 30 10 13 -17 15 -17 28 0 7 9 17 17 22 17 14 0 244 -234
319 -325 76 -91 173 -224 201 -275 10 -19 29 -49 41 -68 41 -63 118 -229 157
-342 45 -129 75 -264 92 -407 23 -200 19 -186 60 -180 30 5 36 3 44 -18 8 -21
15 -24 67 -24 61 0 83 11 83 39 0 16 4 17 34 8 57 -18 66 -8 67 69 0 37 4 86
8 108 l7 40 12 -70 c6 -38 14 -95 18 -125 3 -30 12 -65 20 -77 12 -19 18 -21
44 -12 29 11 30 12 30 78 0 61 -12 288 -25 449 -5 71 9 82 43 35 40 -59 55
-131 59 -298 4 -177 8 -205 25 -205 7 0 21 -12 33 -26 16 -21 26 -24 48 -19
19 5 27 14 27 29 0 13 3 26 7 29 9 10 32 -25 33 -49 0 -30 23 -46 62 -42 29 3
33 7 36 36 4 36 22 44 22 9 0 -33 32 -50 59 -30 12 8 29 12 37 9 9 -3 33 -3
54 0 30 5 41 12 48 33 5 14 19 37 30 51 l20 25 7 -40 c9 -55 18 -70 46 -70 19
0 25 7 29 30 3 19 12 31 25 34 25 4 35 19 35 53 0 15 4 30 10 33 5 3 10 20 10
36 0 20 4 28 11 23 7 -4 9 -23 5 -53 -12 -82 -12 -85 8 -89 10 -2 21 0 25 5 3
4 17 14 29 21 20 11 27 11 41 -2 18 -16 65 -17 89 -2 7 4 16 -2 23 -17 21 -46
82 -42 103 7 3 7 9 4 16 -7 10 -16 22 -17 93 -12 69 5 85 9 99 28 l17 22 44
-24 c28 -15 51 -22 63 -17 13 5 23 0 35 -16 15 -19 22 -21 45 -13 17 6 31 20
34 35 8 31 38 31 101 1 64 -31 96 -28 113 12 14 31 14 31 16 7 1 -14 1 -35 0
-48 -2 -28 16 -52 40 -52 28 0 80 33 80 51 0 27 13 30 24 7 14 -29 39 -34 60
-13 11 11 21 13 33 6 24 -12 75 -3 91 17 6 9 12 33 12 54 0 21 4 38 9 38 28 0
41 -15 41 -45 0 -45 32 -84 57 -69 10 6 19 23 21 37 2 14 14 32 27 41 13 8 26
29 30 46 14 62 45 42 55 -35 4 -32 9 -41 28 -43 14 -2 22 2 22 12 0 24 14 26
71 12 60 -16 66 -14 80 21 9 25 10 25 35 8 23 -15 30 -15 51 -4 19 10 28 10
43 1 11 -7 26 -12 35 -12 8 0 19 -9 25 -21 15 -28 70 -23 85 8 8 16 15 19 26
12 21 -13 34 -11 59 11 25 22 53 21 113 -2 22 -9 31 -7 47 7 11 10 20 14 20 9
0 -5 22 -33 49 -63 37 -40 54 -52 72 -49 19 2 25 10 27 36 3 26 10 35 39 47
41 17 73 6 73 -27 0 -23 26 -47 53 -48 14 0 17 9 17 45 0 25 4 45 9 45 5 0 17
3 25 6 12 5 19 -2 27 -25 6 -17 17 -31 24 -31 7 0 18 -7 25 -15 7 -8 21 -15
32 -15 10 0 21 7 24 15 4 8 14 15 24 15 10 0 23 7 30 15 10 12 16 13 26 4 8
-6 23 -9 33 -6 14 3 25 -3 36 -19 10 -16 25 -24 43 -24 15 0 34 -4 41 -9 25
-16 51 6 51 43 0 46 10 51 37 19 l22 -28 25 30 25 30 1 -27 c0 -21 5 -28 20
-28 10 0 23 7 28 17 21 37 107 16 114 -29 2 -12 11 -26 20 -32 25 -15 58 18
58 59 0 29 15 55 32 55 4 0 8 -9 8 -20 0 -11 6 -36 14 -54 11 -26 21 -35 47
-39 19 -2 42 0 52 5 12 6 22 4 33 -7 21 -21 41 -19 56 5 16 25 28 26 28 3 0
-20 51 -53 80 -53 24 0 42 24 40 52 -1 13 -1 34 0 48 2 24 2 24 16 -7 11 -27
20 -33 44 -33 30 0 59 12 92 38 26 22 71 11 78 -18 4 -15 17 -29 34 -35 23 -8
30 -6 44 13 12 15 23 20 40 16 14 -4 29 -1 40 9 32 28 64 31 81 9 13 -17 31
-22 98 -27 71 -5 83 -4 93 12 7 11 13 14 16 7 21 -49 82 -53 103 -7 7 15 16
21 23 17 24 -15 71 -14 89 2 14 13 21 13 41 2 12 -7 26 -17 29 -21 4 -5 15 -7
25 -5 20 4 20 7 8 89 -4 30 -2 49 5 53 7 5 11 -3 11 -23 0 -16 5 -33 10 -36 6
-3 10 -18 10 -33 0 -34 10 -49 35 -53 13 -3 22 -15 25 -34 4 -23 10 -30 29
-30 28 0 37 15 46 70 l7 40 20 -25 c11 -14 25 -37 30 -51 7 -21 18 -28 48 -33
21 -3 45 -3 54 0 8 3 25 -1 37 -9 27 -20 59 -3 59 30 0 35 18 27 22 -9 3 -29
7 -33 36 -36 39 -4 62 12 62 42 1 24 24 59 33 49 4 -3 7 -16 7 -29 0 -15 8
-24 27 -29 22 -5 32 -2 48 19 12 14 26 26 33 26 17 0 21 28 25 205 4 167 19
239 59 298 34 47 48 36 43 -35 -13 -161 -25 -388 -25 -449 0 -66 1 -67 30 -78
26 -9 32 -7 44 12 8 12 17 47 20 77 4 30 12 87 18 125 l12 70 7 -40 c4 -22 8
-71 8 -108 1 -77 10 -87 67 -69 30 9 34 8 34 -8 0 -28 22 -39 83 -39 52 0 59
3 67 24 8 21 14 23 44 18 41 -6 37 -20 60 180 17 143 47 278 92 407 39 113
116 279 157 342 12 19 31 49 41 68 73 133 249 343 456 545 59 58 70 66 65 44
-6 -24 -4 -27 19 -25 17 0 26 7 26 18 0 9 5 20 10 23 11 7 14 -13 11 -57 -3
-36 3 -35 27 3 l20 32 31 -43 c35 -48 42 -43 11 8 -11 17 -15 32 -9 32 5 0 7
5 3 12 -4 7 -3 8 5 4 6 -4 9 -12 6 -17 -3 -5 1 -6 9 -3 9 3 19 -3 26 -16 6
-12 14 -19 18 -16 3 4 -10 23 -29 42 -24 26 -28 33 -12 25 28 -14 33 -14 33 2
0 8 -17 26 -37 40 l-38 27 35 0 35 0 -24 19 c-16 12 -20 21 -12 25 21 13 13
37 -11 34 -19 -2 -23 1 -21 20 2 12 -2 22 -9 22 -6 0 -17 8 -24 17 -13 17 -15
17 -30 -2 -15 -19 -16 -18 -9 15 3 19 9 43 11 53 4 11 0 17 -9 17 -9 0 -18 6
-20 13 -3 6 -6 2 -6 -10 -1 -30 -17 -29 -37 3 -25 37 -37 15 -19 -35 21 -59
20 -60 -18 -18 -18 21 -36 34 -40 31 -13 -13 -7 -41 13 -59 11 -10 20 -23 20
-28 0 -6 -8 -3 -18 6 -23 21 -32 21 -32 2 0 -8 -7 -15 -15 -15 -29 0 -14 -27
25 -45 36 -16 53 -35 32 -35 -4 0 -8 -8 -8 -17 0 -10 -4 -28 -8 -40 -6 -19 -4
-23 15 -23 18 0 -7 -29 -118 -137 -135 -132 -239 -251 -313 -358 -41 -60 -59
-79 -66 -72 -7 7 138 304 205 420 28 48 51 90 51 93 0 6 83 134 169 263 169
252 259 362 327 401 61 34 74 49 37 42 -34 -6 -27 5 62 105 186 207 475 482
625 593 18 14 59 46 89 71 31 25 92 71 136 102 178 125 179 148 1 33 -351
-228 -729 -570 -1026 -930 -40 -49 -81 -91 -91 -93 -9 -3 -19 -17 -22 -31 -3
-15 -39 -73 -80 -129 -246 -333 -484 -761 -652 -1173 -81 -199 -178 -480 -216
-630 -28 -107 -29 -109 -41 -80 -5 14 -7 50 -4 80 34 321 48 420 83 560 9 36
21 71 27 78 7 7 39 26 71 42 65 32 64 38 0 15 -51 -18 -65 -18 -65 -1 0 40
132 418 157 447 7 8 37 23 67 33 65 20 149 56 144 61 -7 8 -91 -16 -140 -40
-29 -14 -53 -25 -55 -25 -16 0 68 178 96 204 12 11 21 30 21 43 0 32 28 73 49
73 25 0 33 11 19 28 -11 12 -2 25 52 75 51 47 172 141 275 215 6 4 18 13 28
21 14 11 20 11 35 0 15 -12 16 -12 5 2 -15 18 -8 29 19 29 11 0 17 4 14 9 -4
5 14 22 39 38 25 15 45 31 45 36 0 11 -6 9 -60 -23 -35 -20 -59 -28 -74 -24
-14 3 -27 0 -32 -7 -5 -9 -2 -10 12 -5 14 5 16 4 7 -5 -6 -6 -16 -8 -23 -4
-20 12 10 37 38 30 41 -10 20 16 -28 36 -31 12 -38 18 -23 18 32 1 39 21 7 21
-23 0 -25 2 -14 15 10 11 10 19 2 27 -7 7 4 28 39 73 45 58 75 79 107 76 7 -1
12 9 12 24 0 17 4 24 11 19 7 -4 9 -24 6 -52 l-5 -46 27 33 27 33 33 -38 c22
-27 28 -31 20 -14 -6 14 -18 33 -27 43 -10 12 -11 17 -3 17 7 0 9 5 5 12 -4 7
-3 8 5 4 6 -4 9 -11 6 -16 -3 -5 0 -12 6 -16 8 -4 9 -3 5 4 -13 22 13 12 28
-10 9 -12 18 -19 21 -16 4 3 -9 20 -27 38 -23 22 -26 29 -11 21 16 -8 24 -8
29 0 7 11 5 14 -40 47 l-29 22 33 0 c28 0 31 2 20 15 -7 8 -20 15 -29 15 -14
1 -14 2 2 11 25 15 21 36 -9 43 -19 5 -24 11 -19 26 5 15 2 20 -12 21 -16 0
-15 2 5 16 12 8 22 20 22 25 0 5 -10 3 -22 -4 -13 -7 -29 -12 -36 -13 -7 0
-17 -7 -23 -15 -8 -11 -9 -6 -6 20 3 19 7 42 9 50 1 8 -3 14 -9 12 -7 -1 -13
4 -13 10 -1 7 -7 2 -14 -11 l-13 -23 -22 27 c-27 36 -35 27 -22 -22 16 -56 14
-58 -19 -21 -26 27 -32 30 -40 18 -13 -21 -13 -25 10 -45 11 -10 20 -23 20
-29 0 -6 -7 -3 -15 8 -13 17 -41 14 -30 -4 3 -4 -4 -10 -15 -13 -32 -8 -23
-25 26 -46 32 -14 43 -24 38 -33 -5 -7 -9 -17 -10 -23 -1 -5 -5 -22 -9 -37 -6
-24 -4 -28 15 -28 11 0 19 -4 16 -9 -4 -5 -2 -11 4 -13 5 -1 -7 -21 -28 -43
-21 -22 -50 -56 -65 -76 -22 -29 -32 -35 -52 -31 -14 2 -28 8 -31 13 -9 16
-34 10 -35 -8 0 -10 -4 -5 -9 10 -5 16 -6 34 -4 42 3 7 -5 14 -20 17 -17 4
-26 1 -26 -8 0 -8 -6 -11 -15 -8 -23 9 -19 21 24 72 21 26 38 54 38 62 0 16
129 228 193 315 35 48 115 129 190 192 86 73 252 203 325 255 44 31 100 74
125 97 l45 42 -37 -15 c-57 -22 -395 -256 -420 -291 -5 -6 -8 -6 -8 2 0 6 10
24 23 40 13 15 30 39 39 53 8 14 53 72 100 130 127 159 149 197 70 123 -63
-59 -195 -213 -330 -385 -67 -86 -132 -163 -145 -171 -12 -8 -39 -31 -60 -51
-20 -20 -39 -36 -41 -36 -9 0 -123 -115 -200 -203 -47 -53 -86 -91 -86 -83 0
8 27 85 60 171 33 86 60 162 60 168 -1 20 -78 -137 -126 -256 -80 -199 -88
-215 -126 -261 -24 -29 -82 -66 -104 -66 -17 0 17 85 42 105 7 6 14 21 16 35
2 16 11 26 27 30 25 6 42 30 22 30 -6 0 -11 5 -11 11 0 5 4 8 9 4 5 -3 12 -1
15 4 4 5 2 12 -3 16 -6 3 -2 21 11 43 157 281 200 345 290 436 43 44 78 84 78
89 0 6 -9 2 -19 -7 -48 -43 -34 -3 31 94 123 183 221 307 272 346 47 35 48 38
27 46 -18 6 -31 2 -60 -20 -20 -16 -52 -38 -72 -50 -43 -26 -85 -69 -57 -59
36 13 27 -15 -25 -80 -81 -103 -207 -278 -267 -373 -30 -47 -65 -96 -77 -110
-21 -23 -23 -23 -24 -5 0 14 -2 16 -6 5 -4 -8 -23 -37 -45 -63 -21 -27 -38
-56 -38 -64 0 -20 -40 -86 -48 -78 -3 3 0 11 6 17 7 7 12 32 12 58 1 25 8 63
16 85 8 22 19 63 24 90 19 108 39 179 57 204 11 14 82 73 159 130 76 58 133
106 126 109 -7 2 -69 -32 -137 -77 -131 -84 -152 -86 -102 -11 13 19 32 49 43
65 l18 30 -20 -18 c-27 -23 -34 -22 -34 7 0 14 16 45 35 70 19 25 51 67 70 92
43 56 38 70 -8 26 -36 -35 -63 -43 -53 -15 4 9 9 38 12 63 l5 45 -15 -38 c-7
-21 -17 -54 -21 -75 -10 -53 -28 -83 -98 -164 -81 -94 -200 -243 -267 -335
-29 -40 -54 -73 -56 -73 -8 0 50 117 118 239 10 18 17 35 15 37 -4 5 -82 -118
-127 -201 -18 -33 -52 -96 -76 -141 -24 -45 -53 -89 -64 -99 -19 -17 -20 -17
-20 1 -1 15 -8 10 -35 -21 -19 -22 -35 -44 -35 -49 0 -5 -17 -30 -37 -57 l-36
-48 -29 20 c-33 24 -36 39 -8 39 24 0 26 9 5 24 -13 10 -8 28 35 140 28 71 49
134 47 140 -2 6 -29 -42 -60 -106 -31 -64 -61 -119 -66 -122 -6 -4 -9 10 -8
36 1 34 16 64 72 152 38 60 74 109 78 107 13 -3 31 22 46 64 29 84 125 212
145 195 7 -5 16 -7 19 -4 4 4 11 -5 16 -20 11 -28 41 -36 41 -10 0 13 3 14 15
4 23 -19 38 -2 30 37 l-6 34 30 -22 c28 -21 61 -21 61 0 0 5 -22 27 -50 48
-27 21 -49 41 -50 45 0 3 21 -2 48 -12 59 -22 104 -28 109 -14 2 6 -7 16 -19
22 -23 11 -23 11 5 11 42 1 32 20 -15 27 l-41 7 33 16 c38 19 41 34 8 42 l-23
5 23 12 c25 15 30 42 6 42 -10 0 -14 5 -10 15 3 9 -1 18 -10 22 -9 3 -14 13
-11 24 7 25 -3 24 -45 -5 l-36 -24 2 31 c1 39 -19 46 -37 11 l-14 -27 -6 25
c-5 18 -16 27 -38 32 -41 8 -49 2 -49 -40 l0 -36 -26 31 c-27 32 -64 42 -64
17 0 -8 5 -18 10 -21 6 -3 10 -11 10 -17 0 -6 -9 -3 -20 7 -11 10 -20 25 -20
33 0 12 -4 12 -20 -3 -11 -10 -19 -26 -18 -35 2 -10 -14 -36 -34 -59 -37 -40
-47 -61 -29 -61 5 0 14 7 21 15 10 12 16 12 34 3 l21 -12 -23 -5 c-30 -8 -30
-24 0 -31 21 -5 20 -7 -10 -19 -33 -14 -43 -31 -18 -31 8 0 13 -8 12 -17 -1
-19 12 -21 61 -8 26 6 27 6 10 -13 -42 -46 8 -60 56 -14 l30 27 -20 -30 c-11
-16 -36 -55 -57 -85 -43 -62 -251 -377 -285 -430 l-22 -35 7 49 c5 35 4 47 -5
42 -6 -4 -11 -2 -11 3 0 6 -5 11 -11 11 -5 0 -8 -4 -4 -9 3 -5 0 -13 -6 -17
-8 -5 -10 -1 -7 12 3 10 11 39 16 64 82 345 79 335 132 416 37 57 47 80 38 85
-10 7 -10 11 0 21 6 6 12 18 12 25 0 11 -4 11 -20 1 -10 -7 -21 -10 -24 -8 -2
3 13 73 35 155 21 83 41 164 44 180 5 28 5 28 -8 -5 -15 -36 -48 -144 -73
-235 -7 -27 -18 -70 -25 -95 -13 -50 -46 -103 -59 -95 -4 2 6 51 22 107 16 57
32 112 35 123 3 11 17 58 31 105 13 47 26 99 29 115 l4 30 -15 -32 c-17 -38
-75 -209 -106 -313 -12 -41 -28 -94 -36 -118 -8 -23 -14 -48 -14 -55 0 -19
-43 -81 -158 -226 -73 -93 -110 -131 -124 -131 -20 0 -20 1 -3 20 16 18 16 20
1 26 -9 3 -13 11 -9 17 3 5 -1 15 -9 21 -8 6 -17 19 -21 29 -5 13 -13 16 -26
12 -15 -5 -18 -2 -14 13 6 26 -13 37 -34 20 -14 -11 -16 -11 -11 3 4 9 0 25
-7 36 -12 17 -5 31 69 134 127 177 177 251 171 257 -2 3 -12 -1 -21 -9 -23
-19 -232 -280 -276 -346 -25 -36 -39 -48 -46 -41 -16 16 -32 0 -32 -30 l0 -27
-23 29 c-29 36 -63 31 -53 -8 7 -30 -14 -49 -47 -41 -25 7 -52 -15 -29 -23 6
-2 3 -11 -9 -23 -10 -10 -19 -30 -19 -43 0 -13 -2 -31 -5 -38 -4 -10 5 -15 32
-16 20 -2 39 -5 42 -7 4 -5 -49 -78 -61 -83 -4 -2 -8 -10 -8 -18 0 -9 -4 -13
-9 -10 -18 11 -42 -21 -46 -61 -4 -41 -70 -163 -88 -163 -16 0 5 65 34 109 17
24 28 46 25 49 -3 3 -6 1 -6 -5 0 -6 -6 -13 -14 -16 -11 -4 -12 2 -4 31 5 20
12 48 15 62 3 14 9 30 13 35 4 6 11 33 15 60 16 114 67 291 101 348 37 64 42
79 19 71 -10 -4 -15 0 -15 15 0 22 30 137 49 184 6 16 11 38 11 50 0 15 -8 7
-25 -27 -29 -58 -40 -71 -31 -36 19 68 83 169 93 144 2 -6 10 -20 18 -30 13
-17 16 -17 28 -4 6 8 22 14 35 12 22 -3 23 -1 16 33 l-6 36 33 -20 c18 -11 36
-18 41 -15 19 12 5 36 -42 71 -27 20 -48 39 -45 41 2 2 29 -5 60 -17 31 -12
64 -21 75 -21 29 0 34 19 8 29 -23 10 -22 10 5 10 48 1 25 31 -24 31 -26 0
-24 13 3 25 13 6 24 18 26 29 3 16 0 18 -24 12 l-29 -8 27 22 c27 21 29 54 3
44 -26 -11 -2 40 41 86 56 59 87 100 82 106 -6 5 -82 -76 -115 -121 -20 -27
-24 -29 -43 -17 -19 12 -25 11 -44 -7 -29 -28 -38 -26 -26 4 5 14 7 31 4 38
-5 14 18 70 95 226 55 112 59 123 36 115 -8 -4 -15 -10 -15 -14 0 -9 -58 -101
-88 -140 -21 -28 -78 -135 -87 -163 -4 -16 -11 -18 -45 -12 l-40 7 0 -43 0
-42 -33 38 c-36 41 -63 41 -53 0 5 -19 2 -22 -19 -17 -18 3 -25 0 -25 -11 0
-8 -7 -18 -16 -21 -9 -3 -14 -13 -11 -20 3 -8 -1 -17 -9 -20 -21 -8 -17 -24 9
-32 22 -7 21 -7 -5 -16 -16 -5 -28 -13 -28 -18 0 -5 12 -13 28 -18 22 -9 23
-11 7 -11 -34 -2 -63 -41 -30 -41 9 0 12 -6 8 -16 -5 -15 0 -16 43 -9 l49 7
-24 -26 c-20 -22 -22 -26 -8 -32 8 -3 25 0 37 6 20 11 21 10 15 -12 -4 -12
-11 -27 -15 -33 -4 -5 -19 -46 -34 -90 -14 -44 -54 -129 -87 -190 -34 -60 -86
-156 -116 -212 -30 -57 -57 -103 -59 -103 -3 0 -17 8 -32 18 l-26 17 34 6 c32
6 33 7 13 14 -23 7 -32 25 -13 25 6 0 10 9 10 20 0 15 -6 19 -22 17 -18 -1
-23 3 -21 18 1 11 -10 28 -24 39 -26 19 -26 19 -41 0 -15 -20 -15 -19 5 64 4
16 1 22 -11 22 -9 0 -16 6 -16 13 0 8 -3 7 -10 -3 -8 -13 -9 -13 -14 0 -2 8
-7 22 -9 30 -3 8 -6 2 -6 -14 -1 -28 -2 -28 -14 -11 -22 29 -29 2 -12 -45 20
-57 19 -60 -9 -25 -35 42 -19 98 50 179 33 39 39 61 9 36 -29 -24 -17 18 50
175 158 374 340 710 575 1063 87 130 156 239 154 241 -3 3 -12 -6 -21 -19 -9
-13 -24 -31 -32 -40 -105 -108 -374 -523 -520 -800 -56 -107 -57 -108 -81 -94
-14 7 -38 14 -55 14 -25 1 -27 2 -12 11 24 14 21 29 -5 29 -20 0 -20 1 -5 18
27 30 21 45 -13 39 -26 -6 -30 -3 -30 14 0 17 -5 20 -21 16 -18 -5 -20 -2 -16
19 4 25 -7 42 -18 25 -3 -6 -12 -8 -21 -4 -10 4 -19 -4 -27 -26 -12 -32 -27
-42 -27 -17 0 7 -7 19 -15 26 -21 17 -37 1 -37 -35 l-1 -27 -28 35 c-20 25
-36 34 -60 35 -28 1 -31 -2 -26 -24 2 -13 0 -24 -4 -24 -5 0 -9 -8 -9 -19 0
-12 -9 -20 -29 -24 -18 -4 -30 -14 -34 -28 -7 -28 -3 -36 37 -60 20 -12 25
-19 14 -19 -9 0 -24 -7 -32 -16 -24 -24 -4 -54 37 -54 l32 0 -32 -20 c-21 -12
-33 -28 -33 -41 0 -20 4 -21 40 -15 l41 6 -17 -25 c-13 -20 -14 -28 -5 -39 10
-12 7 -23 -13 -54 -13 -22 -38 -69 -55 -106 -24 -54 -34 -66 -53 -66 -21 1
-22 2 -5 14 21 16 22 36 1 36 -9 0 -12 5 -8 12 4 6 -1 17 -11 25 -11 7 -15 13
-10 13 4 0 1 8 -7 18 -13 14 -14 27 -7 67 13 75 29 206 29 240 0 28 -1 28 -14
10 -13 -20 -32 -92 -56 -212 -7 -35 -19 -64 -27 -67 -10 -4 -13 -1 -9 12 8 25
-4 37 -40 39 -28 2 -32 -2 -39 -30 -6 -28 -8 -29 -14 -12 -5 11 -4 34 1 50 24
81 72 255 80 295 33 145 131 330 349 659 86 130 155 238 153 240 -3 3 -12 -6
-21 -19 -9 -13 -24 -31 -32 -40 -31 -31 -160 -206 -226 -308 -38 -56 -70 -100
-72 -98 -2 2 17 63 42 136 48 142 54 167 29 132 -16 -23 -45 -94 -140 -334
-65 -168 -96 -230 -102 -205 -2 10 2 32 8 50 6 18 15 52 20 77 24 120 33 156
41 172 5 10 9 32 9 50 1 18 7 44 15 58 16 29 20 105 5 95 -5 -3 -10 -21 -10
-38 -1 -18 -7 -43 -15 -57 -8 -14 -14 -39 -15 -57 0 -17 -4 -35 -10 -38 -5 -3
-10 -21 -10 -38 -1 -18 -7 -43 -15 -57 -8 -14 -14 -41 -15 -61 0 -19 -4 -39
-9 -45 -5 -5 -15 -34 -21 -64 -6 -30 -15 -73 -19 -95 -12 -54 -51 -157 -91
-235 -18 -36 -50 -105 -71 -155 -21 -49 -42 -91 -47 -93 -5 -1 -16 21 -25 50
-9 29 -14 42 -12 28 19 -96 17 -136 -9 -205 -15 -38 -30 -72 -35 -75 -4 -3
-13 -23 -19 -45 l-10 -40 -1 56 c-1 32 5 69 13 85 9 17 12 34 7 43 -8 15 -6
169 4 291 3 30 7 109 9 175 6 144 9 161 92 431 35 116 64 220 63 230 -1 27
-48 -81 -94 -213 -41 -118 -56 -128 -51 -35 2 29 -1 49 -5 45 -4 -4 -9 -33
-10 -63 -3 -107 -21 -207 -64 -365 -24 -88 -55 -205 -68 -260 -14 -55 -32
-131 -42 -170 -9 -38 -23 -105 -31 -149 -15 -81 -38 -132 -49 -105 -3 8 -7 46
-9 84 -3 53 2 88 20 145 13 41 21 76 19 78 -2 2 -13 -10 -23 -27 -25 -41 -32
-25 -32 65 0 36 -4 73 -9 82 -13 24 -21 171 -11 177 5 3 2 21 -6 40 -21 51
-19 69 9 61 55 -16 77 -18 77 -8 0 17 -57 72 -75 72 -26 0 -17 19 13 26 15 4
35 11 45 16 26 13 3 38 -34 38 -29 0 -38 13 -19 25 15 9 -9 37 -24 28 -6 -3
-3 3 7 14 25 29 21 36 -18 31 -19 -2 -35 0 -35 4 0 4 5 8 11 8 8 0 8 4 0 14
-8 10 -9 16 -1 21 5 3 10 15 10 26 0 11 25 92 55 181 30 88 55 166 55 172 0
19 -35 -46 -64 -119 -15 -38 -33 -79 -41 -90 -7 -11 -21 -46 -31 -78 -10 -31
-21 -57 -25 -57 -4 0 -15 -3 -24 -7 -15 -5 -17 -1 -12 28 12 68 29 144 38 161
27 54 53 228 31 214 -5 -3 -16 -45 -26 -93 -10 -48 -22 -96 -27 -105 -5 -10
-9 -29 -9 -43 0 -14 -7 -42 -15 -62 -8 -19 -15 -48 -15 -64 0 -15 -4 -31 -10
-34 -5 -3 -10 -18 -10 -33 l-1 -27 -19 24 c-26 31 -50 21 -50 -20 l0 -32 -22
29 c-12 16 -23 31 -25 33 -1 2 -19 5 -39 8 -35 4 -36 3 -30 -22 4 -14 2 -25
-4 -25 -5 0 -10 -8 -10 -19 0 -10 -6 -19 -12 -18 -35 1 -46 -5 -51 -29 -5 -26
21 -64 43 -64 18 0 10 -18 -10 -23 -23 -6 -27 -39 -6 -56 8 -7 26 -9 43 -5 27
6 26 5 -9 -20 -57 -40 -46 -80 15 -57 30 12 32 9 15 -18 -6 -10 -8 -26 -5 -35
5 -14 11 -15 27 -6 18 10 20 8 20 -25 0 -19 5 -35 10 -35 13 0 13 -42 -1 -77
-6 -15 -15 -48 -19 -73 -5 -25 -16 -76 -25 -115 -9 -38 -20 -93 -25 -122 -6
-29 -15 -65 -21 -80 l-11 -28 -8 25 c-4 14 -18 72 -31 130 l-24 105 -5 -60 -5
-60 -13 60 c-7 33 -20 93 -29 133 -15 75 -17 152 -8 297 9 121 19 166 90 398
63 207 79 277 53 233 -6 -10 -36 -89 -68 -174 -58 -157 -71 -171 -66 -70 2 26
-1 45 -6 42 -4 -3 -8 -17 -7 -32 2 -34 -10 -177 -17 -217 -12 -64 -57 -204
-65 -200 -15 10 -50 135 -52 189 -1 31 -5 56 -9 56 -4 0 -4 10 1 23 5 12 14
63 21 112 6 50 16 106 21 125 24 89 32 129 35 175 3 36 1 44 -5 30 -5 -11 -10
-29 -10 -39 -1 -11 -10 -39 -21 -62 -21 -43 -23 -49 -35 -124 -7 -50 -19 -99
-43 -180 -17 -59 -17 -61 -27 -130 -4 -25 -10 -54 -15 -65 -5 -11 -14 -45 -20
-76 -10 -51 -13 -56 -33 -51 -12 2 -27 9 -33 14 -17 13 -16 124 1 188 14 54
12 77 -5 50 -6 -10 -12 -11 -22 -3 -10 9 -13 1 -15 -44 -2 -53 -37 -178 -52
-188 -8 -4 -53 136 -65 200 -7 40 -19 183 -17 217 1 15 -3 29 -7 32 -5 3 -8
-16 -6 -42 5 -101 -8 -87 -66 70 -32 85 -62 164 -68 174 -26 44 -10 -26 53
-232 75 -244 81 -272 90 -407 5 -71 3 -102 -6 -113 -6 -8 -9 -17 -6 -21 4 -3
-1 -12 -11 -19 -16 -11 -16 -13 2 -33 19 -21 19 -21 -2 -21 -13 0 -22 -6 -22
-15 0 -8 7 -15 15 -15 8 0 15 -4 15 -10 0 -5 -10 -10 -23 -10 -13 0 -26 -9
-32 -22 -6 -12 -15 -23 -21 -25 -14 -5 -34 48 -34 89 0 16 -7 45 -15 65 -25
59 -22 65 35 57 29 -4 50 -3 50 3 0 17 -54 60 -85 68 -29 8 -29 8 25 25 30 9
56 22 58 28 4 13 -64 36 -86 28 -12 -4 -11 -1 5 13 24 20 21 31 -10 31 -20 0
-20 1 2 24 19 21 20 24 6 30 -9 3 -25 1 -36 -4 -15 -9 -19 -7 -19 6 0 9 -6 22
-13 28 -7 6 -20 36 -29 66 -34 117 -47 166 -52 190 -2 14 -12 52 -21 85 -9 33
-20 79 -24 103 -4 24 -13 48 -19 54 -7 7 -12 29 -12 50 0 21 -5 38 -11 38 -12
0 -3 -87 11 -105 4 -5 10 -28 13 -50 3 -22 13 -69 22 -105 9 -36 20 -86 25
-112 5 -26 13 -55 18 -65 18 -32 18 -100 0 -120 -9 -10 -18 -27 -20 -38 -3
-17 -7 -15 -22 13 -12 24 -22 31 -35 27 -15 -5 -24 14 -61 122 -24 71 -49 137
-56 148 -7 11 -25 52 -40 90 -29 73 -64 138 -64 119 0 -6 25 -85 56 -175 31
-90 56 -183 57 -206 1 -24 4 -38 5 -33 6 18 20 11 26 -14 3 -13 8 -31 12 -39
3 -9 -3 -16 -15 -20 -14 -3 -21 0 -21 9 0 12 -4 12 -20 4 -14 -7 -20 -7 -20 0
0 5 -4 10 -9 10 -5 0 -5 -16 0 -37 13 -56 12 -60 -20 -66 -20 -4 -30 -13 -33
-31 -6 -28 -2 -36 30 -58 l23 -15 -25 -17 c-30 -19 -25 -43 12 -57 l25 -10
-22 -22 c-26 -28 -27 -44 -3 -51 16 -5 17 -13 12 -54 -3 -26 -10 -54 -15 -61
-4 -8 -8 -44 -7 -80 1 -36 -1 -73 -4 -84 -5 -17 -8 -15 -25 12 -19 32 -35 42
-25 16 5 -13 2 -14 -17 -4 -19 10 -19 8 5 -17 40 -43 54 -89 34 -109 -9 -9
-20 -13 -26 -10 -14 9 -40 61 -34 68 3 3 -2 19 -11 36 -14 28 -14 32 0 37 13
5 13 9 3 23 -12 14 -11 14 4 3 9 -8 22 -11 27 -8 13 8 3 36 -14 36 -6 0 -20 9
-29 19 -17 19 -17 20 11 23 l28 4 -28 14 c-24 11 -25 15 -12 23 23 13 -1 40
-28 31 -17 -5 -19 -3 -14 17 3 13 2 28 -2 33 -5 6 -29 83 -54 171 -45 157 -63
255 -66 365 -1 30 -6 59 -10 63 -4 4 -7 -16 -5 -45 5 -93 -10 -83 -51 35 -46
132 -93 240 -94 213 -1 -10 28 -114 63 -230 36 -116 70 -232 75 -257 14 -61
21 -229 10 -229 -4 0 -17 10 -29 22 -27 30 -34 18 -15 -27 8 -21 14 -39 13
-41 -2 -1 -21 14 -42 34 -32 28 -40 44 -42 74 -1 21 -7 44 -13 51 -14 17 -4
27 26 27 13 0 23 5 23 11 0 7 -11 8 -31 4 -29 -7 -30 -6 -20 14 7 13 22 21 37
21 14 0 23 4 19 10 -4 6 -15 6 -31 0 -33 -13 -34 -13 -28 5 4 9 0 15 -10 15
-8 0 -18 10 -20 23 -3 12 -7 33 -10 47 -16 80 -28 127 -36 142 -6 10 -10 29
-10 42 0 14 -5 37 -11 53 -7 15 -15 46 -20 68 -4 22 -15 67 -24 100 -9 33 -20
79 -24 103 -4 24 -13 48 -19 54 -7 7 -12 29 -12 50 0 21 -5 38 -11 38 -13 0
-3 -89 12 -104 5 -6 9 -29 9 -52 0 -24 4 -45 9 -49 6 -3 13 -27 16 -53 3 -26
10 -55 16 -64 5 -10 9 -31 9 -47 0 -16 7 -45 15 -64 8 -20 15 -52 15 -70 0
-19 3 -37 8 -41 4 -4 12 -33 18 -64 6 -31 14 -64 18 -72 4 -10 -4 -20 -23 -32
-28 -15 -29 -15 -35 5 l-6 22 -19 -24 c-17 -23 -19 -23 -44 -7 -25 17 -40 48
-116 241 -82 209 -110 275 -125 297 -25 35 -19 10 29 -132 25 -73 44 -134 42
-136 -2 -2 -34 42 -72 98 -66 102 -195 277 -226 308 -8 9 -23 27 -32 40 -9 13
-19 22 -21 19 -3 -3 23 -45 56 -94 225 -329 381 -593 393 -665 l6 -34 -24 22
c-30 28 -69 22 -86 -14 -6 -13 -17 -24 -26 -24 -34 0 -12 -18 33 -27 l47 -9
-48 -8 c-38 -6 -47 -11 -45 -24 2 -12 12 -16 28 -14 21 2 22 1 10 -8 -10 -8
-11 -13 -4 -16 7 -3 10 -14 7 -24 -7 -27 9 -25 53 5 42 29 59 32 50 9 -3 -8
-2 -12 4 -9 6 3 10 1 10 -5 0 -6 5 -8 10 -5 6 3 10 2 10 -3 0 -5 8 -12 18 -14
20 -6 25 -21 107 -347 39 -158 45 -201 26 -201 -3 0 -33 26 -66 58 -54 52 -63
65 -82 132 -12 41 -29 111 -38 155 -22 115 -36 167 -53 190 -12 18 -13 10 -7
-65 4 -47 9 -108 10 -136 1 -28 4 -55 7 -60 3 -5 8 -26 12 -47 7 -35 6 -37
-11 -28 -10 5 -31 21 -47 35 -24 22 -26 27 -12 32 25 10 19 33 -10 40 -22 6
-24 8 -10 16 20 11 21 28 2 28 -9 0 -12 7 -9 20 4 14 0 20 -11 20 -11 0 -16 7
-14 18 2 12 -4 17 -23 17 -21 0 -25 3 -21 22 3 16 0 23 -11 23 -8 0 -17 10
-20 23 -3 12 -13 51 -22 87 -9 36 -20 83 -25 105 -5 22 -16 69 -25 105 -9 36
-20 87 -25 114 -5 27 -14 54 -20 60 -5 5 -10 27 -10 47 0 21 -4 40 -9 43 -5 4
-12 29 -16 56 -4 27 -11 52 -16 56 -5 3 -9 19 -9 35 0 16 -7 46 -15 66 -8 19
-15 47 -15 62 0 15 -4 31 -9 37 -5 5 -14 29 -19 54 l-10 45 -1 -47 c-1 -26 4
-50 9 -53 6 -3 10 -22 10 -41 0 -19 7 -51 15 -71 8 -19 15 -50 15 -69 0 -18 4
-35 9 -39 5 -3 13 -30 16 -60 4 -31 11 -58 16 -61 5 -3 9 -20 9 -39 0 -19 5
-46 11 -62 7 -15 15 -48 20 -73 4 -25 15 -74 24 -110 9 -36 20 -85 24 -110 5
-25 14 -61 20 -80 14 -44 15 -42 -11 -38 -16 2 -24 -4 -32 -30 l-11 -32 -17
32 c-9 18 -24 57 -33 85 -9 29 -21 55 -26 58 -12 8 -12 -61 0 -103 13 -45 -6
-42 -58 9 -41 41 -54 42 -26 3 8 -12 20 -39 28 -61 12 -36 12 -41 -3 -51 -9
-5 -28 -8 -43 -5 -27 5 -37 -10 -15 -23 7 -5 3 -10 -12 -16 -12 -5 -23 -7 -24
-6 -1 2 -40 82 -88 178 -165 332 -425 741 -580 914 -16 17 -28 34 -28 38 0 5
-4 8 -10 8 -5 0 -2 -12 8 -27z m1451 -734 c-25 -16 -32 -9 -13 12 12 13 20 16
22 9 3 -7 -2 -16 -9 -21z m1348 -87 c-5 -83 -5 -85 9 -53 16 38 25 34 43 -18
13 -40 -2 -70 -20 -38 -14 24 -26 21 -54 -10 l-25 -28 12 34 c9 28 8 36 -5 46
-13 9 -14 18 -5 51 5 21 12 55 15 74 8 58 13 68 25 47 6 -11 8 -54 5 -105z
m-1331 -34 c16 -12 31 -23 34 -25 2 -2 7 -31 10 -63 5 -48 3 -61 -10 -66 -12
-4 -10 -10 11 -27 18 -15 32 -43 44 -88 21 -79 15 -112 -10 -54 -9 22 -41 91
-71 153 -53 111 -65 152 -42 152 6 0 3 9 -7 20 -26 29 3 27 41 -2z m1156 -56
c-4 -47 -5 -51 -18 -35 -16 22 -17 43 -4 79 16 40 27 17 22 -44z m305 -59 c-3
-10 -5 -2 -5 17 0 19 2 27 5 18 2 -10 2 -26 0 -35z m525 28 c4 -3 10 -51 13
-106 l6 -101 -39 -49 c-43 -54 -105 -155 -99 -161 2 -2 32 35 67 81 35 47 65
84 67 82 2 -2 5 -39 7 -83 3 -69 -1 -89 -28 -161 -28 -74 -33 -81 -53 -76 -22
5 -23 2 -23 -43 l0 -49 -31 38 c-17 20 -36 37 -44 37 -10 0 -12 21 -10 93 2
69 13 132 44 252 71 271 69 267 94 259 12 -3 25 -9 29 -13z m294 -68 c-12
-153 -19 -181 -71 -273 -21 -36 -19 -7 5 104 43 190 58 246 67 246 3 0 2 -35
-1 -77z m-406 40 c10 10 12 9 7 -5 -3 -9 -11 -35 -17 -58 -6 -23 -20 -58 -31
-79 -10 -20 -22 -59 -25 -86 -3 -28 -19 -104 -35 -170 -52 -210 -58 -239 -65
-280 -12 -81 -25 -119 -35 -104 -13 21 -11 132 5 175 7 22 16 64 20 94 10 75
40 207 88 383 38 136 42 146 58 132 13 -12 19 -12 30 -2z m1465 -13 c-17 -34
-17 -33 -65 -16 l-35 13 50 16 c68 21 68 21 50 -13z m-3381 -48 c18 -37 41
-90 49 -117 8 -28 23 -68 32 -89 17 -39 31 -254 14 -224 -4 7 -28 94 -53 193
-25 99 -54 208 -65 243 -10 34 -17 62 -15 62 2 0 19 -30 38 -68z m283 36 c-3
-7 -5 -2 -5 12 0 14 2 19 5 13 2 -7 2 -19 0 -25z m289 -3 c-24 -36 -20 -48 14
-43 27 4 30 2 30 -24 0 -22 4 -27 21 -25 19 2 25 -11 56 -128 l34 -129 -23
-18 c-22 -16 -23 -16 -26 2 -4 27 -28 25 -35 -2 -5 -18 -8 -19 -21 -8 -9 7
-16 20 -17 29 0 11 -3 10 -11 -6 -7 -15 -20 -23 -35 -23 -24 0 -25 1 -18 53 5
28 8 108 7 176 0 125 8 171 29 171 7 0 5 -9 -5 -25z m325 -104 c25 -90 10
-236 -22 -204 -4 4 -19 55 -33 113 -13 58 -28 113 -31 123 -5 12 -2 17 9 17 9
0 16 4 16 10 0 6 9 5 24 -1 17 -8 28 -26 37 -58z m2434 40 c3 -5 0 -21 -7 -35
l-11 -26 -29 27 -29 28 23 6 c34 10 46 10 53 0z m-2546 -114 c46 -177 54 -219
39 -228 -17 -11 -31 -11 -24 0 3 5 0 14 -8 20 -14 12 -40 110 -51 191 -3 25
-12 57 -19 71 -9 17 -10 32 -4 42 15 28 46 -15 67 -96z m689 64 c-15 -5 -21 7
-13 26 7 17 8 17 15 -2 4 -11 3 -22 -2 -24z m-2738 25 c0 -2 -8 -10 -17 -17
-16 -13 -17 -12 -4 4 13 16 21 21 21 13z m590 -78 c-16 -6 -26 -5 -32 4 -14
23 -8 27 24 16 31 -11 31 -11 8 -20z m2005 22 c3 -5 2 -10 -4 -10 -5 0 -13 5
-16 10 -3 6 -2 10 4 10 5 0 13 -4 16 -10z m-307 -53 c1 -28 -4 -72 -12 -97
l-14 -45 -2 65 c-1 50 -3 60 -10 43 -14 -34 -23 -28 -14 9 7 34 31 78 43 78 3
0 7 -24 9 -53z m459 47 c-3 -3 -12 -4 -19 -1 -8 3 -5 6 6 6 11 1 17 -2 13 -5z
m1527 -28 c-6 -27 12 -44 29 -27 20 20 30 12 23 -20 -3 -17 -33 -100 -66 -183
-33 -84 -73 -190 -88 -236 -19 -54 -35 -86 -45 -88 -14 -3 -12 8 9 75 13 43
29 98 34 123 13 61 23 99 53 205 14 50 30 109 37 133 6 23 13 42 16 42 2 0 2
-11 -2 -24z m240 -98 c-24 -56 -63 -151 -85 -212 -22 -61 -46 -124 -54 -141
-7 -16 -21 -58 -30 -92 -10 -35 -19 -63 -21 -63 -1 0 -9 3 -17 6 -14 5 -14 11
-2 49 7 24 11 46 8 48 -10 10 51 411 74 487 4 13 6 12 14 -2 14 -25 27 -22 41
7 8 18 17 24 29 20 9 -3 20 -1 23 4 4 6 16 6 35 0 l28 -10 -43 -101z m-4464
77 c0 -11 -5 -10 -20 5 -11 11 -20 22 -20 25 0 3 9 1 20 -5 11 -6 20 -17 20
-25z m176 -27 c63 -67 95 -111 196 -276 54 -87 63 -108 60 -139 l-4 -36 -25
31 c-14 18 -30 29 -38 26 -9 -4 -24 10 -42 36 -15 22 -48 69 -73 103 -73 102
-59 43 21 -87 51 -83 69 -120 61 -128 -17 -17 -58 33 -78 95 -10 31 -22 53
-28 51 -14 -5 -60 86 -88 171 -20 60 -42 115 -59 147 -12 24 -12 25 12 31 15
4 20 11 16 21 -12 30 10 15 69 -46z m2424 46 c0 -9 -5 -14 -12 -12 -18 6 -21
28 -4 28 9 0 16 -7 16 -16z m-1163 -28 c-1 -14 2 -25 7 -25 16 1 23 -25 22
-85 -1 -35 -6 -61 -13 -63 -13 -5 -33 67 -40 145 -4 42 -2 52 10 52 11 0 15
-8 14 -24z m1231 -1 c-11 -24 -28 -34 -28 -16 0 21 13 41 26 41 11 0 11 -5 2
-25z m-2033 5 c-3 -5 -11 -10 -17 -10 -5 0 -22 -9 -38 -20 -25 -17 -29 -18
-40 -5 -16 19 -13 22 36 34 54 12 66 13 59 1z m1715 -15 c-7 -8 -17 -15 -23
-15 -6 0 -2 7 9 15 25 19 30 19 14 0z m198 -20 c-3 -3 -9 2 -12 12 -6 14 -5
15 5 6 7 -7 10 -15 7 -18z m139 -81 c-3 -41 -12 -83 -19 -92 -11 -13 -11 -14
1 -7 23 13 9 -95 -15 -112 -41 -30 -51 16 -13 68 11 16 16 29 10 29 -6 0 -11
-3 -11 -7 0 -5 -11 -21 -25 -38 l-25 -30 6 30 c16 73 78 235 91 235 3 0 3 -34
0 -76z m-406 9 c-10 -17 -10 -16 -11 3 0 23 13 41 18 25 2 -6 -1 -18 -7 -28z
m105 -46 c-3 -45 -12 -100 -20 -122 l-14 -40 -6 35 c-9 58 -17 190 -12 198 2
4 16 8 31 9 l28 1 -7 -81z m143 63 c16 0 17 -7 6 -98 -7 -54 -17 -107 -22
-117 -9 -15 -11 -13 -16 16 -17 97 -19 171 -6 196 7 14 15 20 17 14 2 -6 12
-11 21 -11z m231 -70 c12 -81 4 -191 -14 -202 -16 -11 -28 -10 -21 1 3 5 1 12
-4 15 -4 3 -7 23 -5 43 2 21 6 82 10 136 3 56 10 95 15 90 5 -5 13 -42 19 -83z
m746 23 c-4 -38 -12 -120 -17 -183 -16 -200 -28 -257 -93 -458 -22 -70 -23
-72 -30 -42 -13 68 -7 112 21 149 15 20 20 30 10 22 -23 -18 -47 -8 -40 18 4
16 11 18 38 14 39 -6 57 13 23 26 -23 10 -23 10 -1 10 29 1 38 18 13 26 -24 8
-26 24 -3 40 23 17 7 38 -26 32 l-26 -5 24 19 c22 18 24 58 2 45 -13 -8 -4 89
15 152 8 30 26 77 38 103 13 26 26 59 30 73 3 14 11 26 18 26 7 0 9 -20 4 -67z
m-2874 22 c-4 -37 12 -47 36 -23 9 9 12 7 12 -9 0 -12 8 -28 18 -35 11 -7 24
-35 30 -63 14 -60 35 -226 29 -231 -9 -10 -34 9 -51 37 -10 17 -42 95 -72 173
l-54 141 28 22 c15 13 27 23 27 23 1 0 -1 -16 -3 -35z m367 -18 c21 -23 36
-51 42 -79 12 -61 11 -121 -1 -113 -14 9 -77 108 -108 172 -22 45 -24 55 -12
63 18 11 36 1 79 -43z m560 -20 c31 -54 55 -132 66 -217 6 -44 6 -45 -12 -25
-61 69 -84 117 -93 199 -12 100 -12 96 -1 96 5 0 23 -24 40 -53z m-672 -144
c32 -117 37 -150 24 -137 -22 21 -102 228 -105 273 l-4 44 32 -51 c18 -28 42
-86 53 -129z m1272 108 c0 -25 -6 -64 -13 -86 l-13 -40 -12 74 c-10 55 -10 79
-2 98 18 39 41 12 40 -46z m145 -158 c4 -108 3 -184 -3 -187 -14 -9 -17 8 -36
170 -17 144 -17 152 0 188 13 26 20 34 26 24 4 -7 10 -95 13 -195z m-364 156
c-7 -11 -14 -19 -16 -16 -7 7 7 37 17 37 6 0 5 -9 -1 -21z m-551 -41 c1 -5 -3
-8 -9 -8 -5 0 -10 12 -9 28 0 24 1 25 9 7 5 -11 9 -23 9 -27z m2717 -19 c-20
-76 -34 -109 -46 -109 -5 0 -10 2 -10 6 0 11 63 164 66 161 2 -2 -3 -28 -10
-58z m-2066 16 c0 -8 -5 -15 -11 -15 -5 0 -8 4 -5 9 4 5 0 12 -6 14 -8 3 -6 6
5 6 9 1 17 -6 17 -14z m1610 5 c0 -5 -4 -10 -10 -10 -5 0 -10 5 -10 10 0 6 5
10 10 10 6 0 10 -4 10 -10z m410 1 c0 -19 -20 -22 -42 -7 -22 16 -22 16 10 16
17 0 32 -4 32 -9z m-1621 -103 c9 -40 2 -48 -19 -23 -10 13 -15 13 -21 3 -13
-21 -19 -3 -9 28 5 16 12 43 16 59 l7 30 8 -30 c5 -16 13 -47 18 -67z m854 70
c4 -12 0 -33 -8 -48 -8 -14 -17 -33 -21 -42 -8 -21 -24 -24 -24 -4 0 23 32
116 40 116 4 0 10 -10 13 -22z m921 -94 c-9 -60 -19 -127 -21 -150 -3 -24 -12
-45 -23 -52 -15 -9 -17 -8 -13 9 4 13 0 19 -11 19 -9 0 -16 3 -16 6 0 13 94
284 97 280 2 -1 -4 -52 -13 -112z m-2734 81 c0 -14 -2 -25 -4 -25 -2 0 -6 11
-8 25 -3 14 -1 25 3 25 5 0 9 -11 9 -25z m-2150 -26 c0 -6 -4 -7 -10 -4 -5 3
-10 11 -10 16 0 6 5 7 10 4 6 -3 10 -11 10 -16z m2090 -30 c6 -10 10 -26 10
-36 -1 -17 -2 -16 -16 2 -8 11 -19 19 -23 18 -5 -1 -8 9 -8 22 0 27 21 24 37
-6z m2218 -1 c0 -19 -2 -27 -7 -20 -6 10 -13 6 -25 -13 -22 -33 -30 -27 -16
11 9 23 35 54 45 54 1 0 2 -14 3 -32z m373 22 c15 0 10 -28 -11 -70 -19 -38
-49 -58 -36 -24 3 9 6 22 6 30 0 8 7 14 15 14 20 0 19 19 -2 43 -17 20 -17 20
0 14 10 -4 23 -7 28 -7z m921 -33 c-5 -7 -13 -31 -17 -54 -4 -24 -11 -46 -17
-49 -15 -10 -1 77 20 118 13 26 17 29 20 15 2 -10 -1 -23 -6 -30z m-4398 -6
c16 -16 25 -34 22 -40 -10 -16 -23 -13 -29 7 -4 9 -14 27 -23 40 -24 32 -3 27
30 -7z m1544 -5 c18 -36 28 -168 14 -191 -9 -17 -11 -14 -20 19 -6 21 -8 44
-5 52 3 8 0 20 -6 27 -6 7 -13 40 -17 72 -6 47 -5 57 7 53 8 -2 20 -17 27 -32z
m-2735 -7 c3 -10 1 -21 -3 -24 -9 -6 -30 25 -30 44 0 17 28 1 33 -20z m4487
-29 c5 0 1 -21 -9 -47 -10 -27 -21 -65 -25 -85 -7 -40 -26 -62 -26 -30 0 10
-7 32 -15 49 -10 20 -13 45 -8 82 5 43 10 54 29 62 13 4 24 14 25 21 0 7 5 -2
10 -19 5 -18 14 -33 19 -33z m-1160 47 c0 -2 -10 -12 -21 -23 -22 -19 -22 -19
-8 4 12 19 29 30 29 19z m390 -15 c0 -10 -6 -19 -14 -19 -8 0 -11 8 -8 19 2
10 8 18 13 18 5 0 9 -8 9 -18z m-1120 -46 c0 -4 -7 -5 -16 -2 -14 6 -16 0 -11
-35 11 -79 -12 -92 -42 -23 -16 36 -18 49 -9 64 9 14 16 16 25 8 10 -8 13 -6
13 9 0 31 13 36 27 11 7 -13 12 -27 13 -32z m-1078 -46 c22 -52 70 -211 64
-217 -2 -2 -11 7 -19 21 -9 14 -28 36 -41 49 -14 14 -27 36 -30 49 -20 107
-26 147 -26 164 1 19 1 19 16 -1 9 -11 25 -40 36 -65z m709 24 c16 -32 19 -48
11 -53 -8 -4 -1 -21 19 -51 16 -25 36 -60 44 -79 15 -34 20 -91 8 -91 -18 0
-75 81 -88 125 -15 55 -31 195 -21 195 3 0 16 -21 27 -46z m1189 31 c0 -8 -9
-15 -20 -15 -13 0 -18 5 -14 15 4 8 12 15 20 15 8 0 14 -7 14 -15z m1285 -62
c-9 -32 -22 -69 -28 -83 -6 -14 -9 -29 -8 -35 1 -5 -3 -5 -10 2 -10 10 -9 25
5 73 16 61 44 115 53 106 3 -3 -2 -31 -12 -63z m-3065 42 c0 -8 -2 -15 -4 -15
-2 0 -6 7 -10 15 -3 8 -1 15 4 15 6 0 10 -7 10 -15z m2913 -27 c-5 -40 -45
-100 -58 -87 -3 3 2 28 11 55 9 27 17 55 20 62 2 6 10 12 18 12 11 0 13 -10 9
-42z m-3303 2 c-18 -11 -22 -7 -14 14 5 13 10 14 18 6 8 -8 7 -13 -4 -20z
m1155 -12 c11 -18 28 -47 38 -65 20 -38 39 -154 27 -166 -4 -5 -27 22 -51 60
-38 59 -44 77 -47 136 -2 37 0 67 4 67 5 0 18 -14 29 -32z m1005 12 c0 -11 -6
-20 -14 -20 -21 0 -31 21 -15 31 22 14 29 11 29 -11z m804 -67 c-10 -33 -19
-50 -21 -41 -3 10 3 44 13 75 10 33 19 50 21 41 3 -10 -3 -44 -13 -75z m-734
7 c0 -45 -6 -82 -16 -101 -8 -17 -18 -29 -20 -26 -8 7 19 197 28 197 4 0 8
-32 8 -70z m-810 -11 c0 -56 -25 -87 -36 -45 -6 25 2 91 13 109 10 17 23 -18
23 -64z m214 25 c9 -71 7 -91 -9 -98 -13 -4 -15 7 -15 69 0 84 14 100 24 29z
m-1229 26 c3 -5 1 -10 -4 -10 -6 0 -11 5 -11 10 0 6 2 10 4 10 3 0 8 -4 11
-10z m-732 -76 c-5 -15 -9 -12 -19 17 -19 52 -16 68 6 33 13 -20 18 -38 13
-50z m4502 -26 c-41 -145 -76 -202 -90 -146 -4 17 8 55 40 123 73 158 90 166
50 23z m125 92 c0 -5 -4 -10 -10 -10 -5 0 -10 5 -10 10 0 6 5 10 10 10 6 0 10
-4 10 -10z m-6208 -145 c59 -77 105 -141 103 -144 -22 -21 -235 238 -235 284
0 22 38 -18 132 -140z m3978 135 c0 -5 -4 -10 -10 -10 -5 0 -10 5 -10 10 0 6
5 10 10 10 6 0 10 -4 10 -10z m83 -56 c-4 -89 -13 -145 -24 -139 -10 7 -13
188 -2 199 18 18 28 -5 26 -60z m3727 61 c0 -39 -181 -268 -235 -297 -19 -11
-19 -11 -1 18 52 80 214 284 226 284 6 0 10 -2 10 -5z m-2086 -31 c3 -8 2 -12
-4 -9 -6 3 -10 10 -10 16 0 14 7 11 14 -7z m-1759 -180 c0 -132 -11 -184 -41
-184 -14 0 -26 74 -28 167 -1 34 -4 65 -8 69 -11 10 -10 74 0 74 5 0 14 12 21
26 l12 27 22 -24 c20 -22 22 -33 22 -155z m1255 131 c0 -16 -6 -25 -15 -25
-20 0 -19 -10 3 -26 16 -13 16 -15 -3 -30 -11 -8 -19 -20 -17 -26 4 -14 -26
-58 -40 -58 -7 0 -9 19 -5 60 7 63 16 88 43 114 22 23 34 20 34 -9z m-1404
-26 c2 -13 2 -44 -2 -69 -6 -44 -6 -44 -20 -20 -17 31 -17 61 -2 95 13 29 17
28 24 -6z m1270 -46 c9 -63 -1 -114 -28 -135 -23 -17 -23 -16 -31 13 -5 21 -1
54 13 105 11 42 18 81 14 87 -3 7 1 4 10 -7 8 -10 18 -39 22 -63z m-3440 40
c-8 -8 -36 5 -36 17 0 7 6 7 21 0 11 -7 18 -14 15 -17z m1008 12 c3 -8 2 -15
-3 -15 -5 0 -14 7 -21 15 -10 12 -10 15 3 15 8 0 17 -7 21 -15z m3063 -8 c7
-5 10 -14 6 -21 -8 -11 -12 -27 -16 -61 -1 -14 4 -20 16 -19 14 2 16 -3 11
-20 -9 -31 -40 -80 -70 -109 -14 -15 -44 -59 -65 -99 -21 -40 -39 -66 -39 -58
0 8 14 65 31 125 16 61 33 123 36 139 3 16 14 31 25 34 14 3 16 7 7 18 -6 8
-9 19 -6 26 2 7 5 18 7 23 9 42 24 48 57 22z m-2342 -44 c4 -32 9 -67 12 -78
5 -18 3 -18 -10 -5 -24 23 -45 94 -36 118 14 38 27 24 34 -35z m-3510 2 c58
-49 71 -73 83 -156 10 -63 -3 -85 -43 -75 -26 7 -45 -12 -25 -24 9 -6 6 -10
-9 -15 -13 -4 -24 -5 -25 -3 -58 87 -87 141 -83 151 7 18 0 28 -51 71 -51 42
-49 43 29 15 57 -21 89 -20 89 1 0 5 -8 10 -17 11 -14 0 -12 3 5 10 31 12 21
25 -25 34 -32 6 -35 9 -18 15 32 13 35 12 90 -35z m883 -9 c26 -54 92 -323 92
-373 0 -21 4 -43 9 -49 11 -10 26 -84 18 -84 -3 0 -15 15 -27 34 -14 24 -22
55 -24 103 -2 45 -11 84 -25 111 -19 37 -60 178 -80 274 -11 49 11 41 37 -16z
m6241 17 c-22 -108 -61 -239 -74 -249 -8 -6 -15 -23 -15 -38 0 -26 -15 -36
-22 -15 -4 12 52 237 70 280 9 23 38 59 46 59 2 0 0 -17 -5 -37z m-4869 -27
c-1 -19 -2 -19 -15 4 -20 35 -19 62 0 36 8 -11 15 -29 15 -40z m1457 32 c-3
-8 -6 -5 -6 6 -1 11 2 17 5 13 3 -3 4 -12 1 -19z m1314 -55 c-9 -16 -10 -15
-11 9 0 14 3 35 8 45 6 15 8 14 10 -9 2 -15 -1 -35 -7 -45z m-2072 2 l0 -20
-9 20 c-5 11 -9 29 -9 40 l0 20 9 -20 c5 -11 9 -29 9 -40z m1567 36 c-10 -11
-16 -23 -13 -28 3 -5 -7 -25 -23 -46 -33 -45 -42 -37 -33 28 6 48 22 63 67 64
18 1 18 0 2 -18z m1814 12 c0 -5 -8 -17 -17 -28 -14 -18 -15 -18 -9 -2 3 10 6
23 6 28 0 5 5 9 10 9 6 0 10 -3 10 -7z m-4460 -13 c-19 -13 -30 -13 -30 0 0 6
10 10 23 10 18 0 19 -2 7 -10z m1447 -12 c-3 -8 -6 -5 -6 6 -1 11 2 17 5 13 3
-3 4 -12 1 -19z m-527 -56 c0 -26 7 -68 15 -94 8 -27 11 -48 6 -48 -19 0 -55
97 -56 152 0 51 1 55 17 47 13 -7 18 -22 18 -57z m-1750 48 c13 -8 13 -10 -2
-10 -9 0 -20 5 -23 10 -8 13 5 13 25 0z m2871 -53 c5 -19 2 -34 -13 -52 -35
-44 -45 -14 -21 68 7 25 25 16 34 -16z m711 -52 c-23 -64 -47 -74 -39 -16 6
44 35 87 49 73 4 -4 0 -30 -10 -57z m-4483 17 c30 -24 32 -31 22 -49 -6 -12
-8 -30 -5 -40 4 -11 -1 -8 -11 7 -10 14 -23 30 -30 35 -15 13 -30 75 -18 75 5
0 24 -13 42 -28z m3217 -13 c-12 -18 -16 -20 -16 -7 0 29 12 50 22 40 7 -7 5
-18 -6 -33z m2708 16 c-4 -8 -11 -12 -17 -8 -8 5 -7 8 1 11 7 2 9 9 6 14 -4 7
-2 8 4 4 6 -4 9 -13 6 -21z m1806 17 c0 -22 -52 -205 -74 -257 -15 -37 -22
-71 -19 -88 5 -28 -5 -35 -23 -17 -7 7 -19 4 -36 -10 l-26 -20 2 32 c1 39 -19
47 -36 13 l-14 -25 -13 35 c-12 35 -12 36 65 153 88 134 174 225 174 184z
m-5708 -132 c41 -79 53 -113 50 -138 -2 -19 -8 -32 -15 -29 -19 6 -137 208
-137 235 0 5 11 7 25 4 28 -5 33 9 10 28 -8 7 -15 17 -15 23 0 24 31 -22 82
-123z m3152 108 c-8 -27 -12 -33 -19 -27 -7 8 7 49 17 49 5 0 6 -10 2 -22z
m126 11 c0 -21 -24 -94 -37 -113 -11 -17 -12 -12 -6 35 3 30 10 62 15 72 10
19 28 23 28 6z m532 -38 c-6 -17 -7 -31 -2 -31 5 0 11 9 15 19 3 11 13 25 21
32 12 10 18 9 31 -4 16 -15 14 -22 -17 -94 -46 -109 -78 -163 -96 -163 -12 0
-14 7 -10 28 3 15 15 80 27 145 14 74 26 114 32 108 6 -6 6 -21 -1 -40z
m-3592 -47 c0 -36 -3 -42 -17 -37 -13 5 -15 3 -9 -13 17 -40 18 -53 3 -74 -13
-19 -15 -15 -15 52 0 40 -4 85 -7 100 -4 15 -4 36 0 45 12 32 45 -21 45 -73z
m-1007 54 c56 -22 63 -28 115 -108 144 -222 184 -318 197 -476 l6 -69 -69 170
c-83 204 -153 354 -158 340 -4 -11 15 -70 85 -260 23 -60 39 -114 37 -120 -2
-5 -5 -2 -5 7 -1 9 -5 18 -9 20 -5 2 -27 49 -51 105 -44 106 -110 220 -111
191 0 -20 53 -134 73 -156 29 -32 37 -67 22 -96 -10 -18 -11 -34 -5 -50 5 -15
5 -27 -3 -35 -17 -17 -27 -13 -27 9 0 11 -6 23 -14 26 -11 4 -92 123 -151 223
-5 9 -36 53 -67 98 -32 44 -58 83 -58 86 0 15 50 -9 59 -30 10 -21 14 -23 27
-12 9 7 26 13 38 14 22 0 25 12 12 53 l-7 22 36 -25 c21 -13 41 -22 46 -19 20
12 7 34 -42 73 -59 47 -57 49 24 19z m1881 -49 c-10 -17 -34 18 -34 50 0 26 1
26 21 -6 11 -18 17 -38 13 -44z m1496 63 c0 -4 -8 -18 -17 -31 -9 -14 -11 -21
-5 -17 8 5 12 -2 12 -23 0 -45 -18 -76 -52 -89 l-31 -11 6 38 c6 51 87 174 87
133z m825 -24 c-10 -48 -33 -95 -50 -102 -18 -7 -19 12 -3 65 6 22 17 39 25
39 7 0 16 7 19 15 11 27 16 16 9 -17z m863 22 c23 0 3 -16 -30 -24 -23 -5 -25
-3 -21 15 4 12 11 18 20 15 8 -3 22 -6 31 -6z m-3778 -89 c-1 -25 -1 -25 -15
-7 -8 11 -15 38 -15 60 l1 41 14 -34 c8 -18 15 -45 15 -60z m1690 15 c0 -66
-7 -55 -14 19 -3 38 -2 54 4 45 6 -8 10 -37 10 -64z m976 39 c-3 -8 -10 -15
-15 -15 -5 0 -4 11 2 25 12 25 23 16 13 -10z m-4292 -68 c59 -90 64 -105 131
-332 32 -111 35 -128 26 -143 -11 -19 -83 66 -117 138 -22 47 -113 381 -114
418 0 27 18 8 74 -81z m4596 60 c0 -11 -10 -41 -22 -66 -17 -36 -23 -41 -28
-26 -5 14 -12 6 -30 -38 -26 -62 -35 -69 -43 -35 -7 25 25 83 54 98 14 8 19
22 19 49 0 44 4 51 31 44 11 -3 19 -14 19 -26z m472 -11 c-9 -19 -19 -32 -20
-31 -8 7 20 75 28 70 5 -3 2 -21 -8 -39z m898 31 c0 -15 -48 -204 -57 -227 -3
-8 -7 -29 -9 -47 -7 -75 -61 -179 -151 -290 -22 -27 -31 -5 -18 44 46 174 99
341 118 372 95 154 117 182 117 148z m-5830 -1 c0 -2 -8 -10 -17 -17 -16 -13
-17 -12 -4 4 13 16 21 21 21 13z m530 -22 c0 -8 -4 -14 -10 -14 -5 0 -10 9
-10 21 0 11 5 17 10 14 6 -3 10 -13 10 -21z m1416 12 c3 -8 4 -27 2 -43 -3
-26 -4 -25 -14 15 -7 24 -8 42 -3 42 5 0 12 -6 15 -14z m808 -13 c-19 -78 -38
-98 -48 -51 -5 24 -1 37 16 55 29 31 40 29 32 -4z m2356 5 c0 -16 -3 -19 -11
-11 -6 6 -8 16 -5 22 11 17 16 13 16 -11z m-3826 -90 c7 -47 1 -78 -16 -78 -6
0 -8 7 -4 15 3 8 1 15 -4 15 -16 0 -37 61 -38 110 l-1 45 28 -31 c18 -20 31
-48 35 -76z m922 66 c-3 -8 -10 -12 -16 -9 -7 4 -6 14 2 28 12 24 24 8 14 -19z
m2511 -46 c-8 -35 -20 -90 -27 -123 -7 -33 -14 -65 -15 -72 -6 -18 -113 -95
-124 -89 -21 14 -24 75 -5 104 10 15 23 35 29 44 38 66 146 210 153 204 2 -3
-3 -33 -11 -68z m-3895 46 c16 -6 28 -33 28 -64 0 -8 -15 3 -35 25 -36 41 -45
61 -22 51 6 -3 19 -9 29 -12z m-282 -31 c0 -20 -3 -24 -11 -16 -7 7 -9 19 -6
27 10 24 17 19 17 -11z m179 -3 c11 -24 11 -24 -3 -6 -9 11 -16 24 -16 30 0
12 5 7 19 -24z m3431 15 c0 -8 -4 -15 -10 -15 -5 0 -7 7 -4 15 4 8 8 15 10 15
2 0 4 -7 4 -15z m950 -10 c0 -8 -4 -17 -10 -20 -6 -4 -10 5 -10 20 0 15 4 24
10 20 6 -3 10 -12 10 -20z m535 15 c-3 -5 -12 -10 -20 -10 -8 0 -17 5 -20 10
-4 6 5 10 20 10 15 0 24 -4 20 -10z m-2314 -77 c-9 -15 -10 -13 -11 13 0 17 3
34 8 38 11 12 14 -32 3 -51z m406 15 c-3 -8 -6 -5 -6 6 -1 11 2 17 5 13 3 -3
4 -12 1 -19z m1239 -25 c-10 -26 -18 -8 -9 23 5 21 8 24 11 11 2 -10 1 -25 -2
-34z m-5252 11 c5 -19 2 -30 -11 -40 -17 -12 -17 -13 3 -8 18 5 23 0 28 -28 3
-18 9 -44 12 -58 14 -57 16 -80 7 -80 -15 0 -52 118 -39 124 6 2 4 5 -5 5 -9
1 -19 8 -23 16 -3 8 -9 15 -13 14 -21 -4 -22 4 -3 41 24 47 35 50 44 14z
m3017 -64 c-10 -25 -10 -25 -10 5 -1 17 3 41 7 55 7 25 7 24 10 -5 2 -17 -1
-42 -7 -55z m450 53 c-12 -20 -14 -14 -5 12 4 9 9 14 11 11 3 -2 0 -13 -6 -23z
m2165 11 c-8 -21 2 -54 16 -54 6 0 17 8 24 18 12 15 13 15 14 -10 0 -32 15
-44 34 -29 10 9 15 8 20 -4 6 -17 32 -21 38 -5 2 5 9 6 16 1 10 -6 -3 -25 -47
-72 -34 -35 -61 -65 -61 -66 0 -1 7 0 17 4 13 5 12 -1 -7 -35 -24 -43 -40 -54
-40 -28 0 11 -12 14 -50 12 -49 -3 -50 -3 -56 31 -4 23 0 48 14 81 11 26 27
72 37 102 20 61 24 70 32 70 3 0 2 -7 -1 -16z m-2898 -19 c-3 -3 -9 2 -12 12
-6 14 -5 15 5 6 7 -7 10 -15 7 -18z m461 -7 c-4 -46 -12 -57 -20 -28 -5 23 5
60 17 60 3 0 4 -15 3 -32z m-2921 -3 c-3 -3 -9 2 -12 12 -6 14 -5 15 5 6 7 -7
10 -15 7 -18z m1862 21 c0 -3 -4 -8 -10 -11 -5 -3 -10 -1 -10 4 0 6 5 11 10
11 6 0 10 -2 10 -4z m1710 -18 c0 -13 -4 -30 -10 -38 -7 -12 -12 -12 -29 4
l-21 19 22 18 c28 25 38 24 38 -3z m885 -45 c-10 -91 -24 -115 -25 -41 0 50
15 108 27 108 3 0 1 -30 -2 -67z m1095 18 c0 -21 -16 -2 -25 29 -7 24 -7 24 9
5 8 -11 16 -27 16 -34z m103 34 c-3 -9 -8 -14 -10 -11 -3 3 -2 9 2 15 9 16 15
13 8 -4z m-336 -5 c-21 -41 -77 -164 -77 -171 0 -5 -4 -9 -10 -9 -5 0 -10 -9
-10 -21 0 -15 -4 -19 -16 -15 -9 3 -20 6 -25 6 -19 0 -8 33 37 113 26 45 50
87 55 92 8 11 52 15 46 5z m1131 -22 c-83 -131 -81 -129 -96 -114 -13 13 -10
21 22 65 36 48 60 70 80 71 4 0 2 -10 -6 -22z m-4580 -7 c3 -8 -1 -12 -9 -9
-7 2 -15 10 -17 17 -3 8 1 12 9 9 7 -2 15 -10 17 -17z m1918 -32 l-14 -34 -1
36 c-1 39 7 55 21 41 5 -5 3 -24 -6 -43z m-3666 -117 c67 -106 79 -132 62
-132 -8 0 -75 105 -112 175 -5 11 -21 38 -35 60 -13 22 -24 44 -25 49 0 15 36
-35 110 -152z m575 102 c9 -27 10 -45 3 -58 -15 -27 -25 -8 -33 59 -8 68 6 67
30 -1z m1805 26 c0 -10 -4 -22 -10 -25 -6 -4 -10 7 -10 25 0 18 4 29 10 25 6
-3 10 -15 10 -25z m2475 -27 c-4 -32 -10 -62 -15 -66 -11 -12 -40 32 -33 52 8
21 43 71 50 71 3 0 2 -26 -2 -57z m635 11 c-12 -22 -30 -52 -41 -69 -10 -16
-22 -37 -26 -46 -20 -40 -78 -129 -85 -129 -17 0 -5 25 61 130 75 117 104 160
109 155 2 -1 -7 -20 -18 -41z m-4726 -33 c10 -18 15 -35 13 -38 -5 -5 -57 78
-57 91 0 13 27 -19 44 -53z m4964 34 c-3 -3 -9 2 -12 12 -6 14 -5 15 5 6 7 -7
10 -15 7 -18z m-6888 -5 c-19 -12 -30 -12 -30 -1 0 10 31 20 40 14 2 -2 -2 -8
-10 -13z m2910 -8 c0 -15 -2 -15 -10 -2 -13 20 -13 33 0 25 6 -3 10 -14 10
-23z m2188 1 c-2 -9 -8 -18 -15 -20 -7 -3 -9 3 -6 16 6 25 26 28 21 4z m-1928
-39 c0 -19 -28 -24 -34 -7 -4 9 -4 25 0 36 6 20 7 20 20 2 8 -10 14 -24 14
-31z m-2802 -48 c33 -52 54 -96 54 -115 1 -17 6 -31 12 -31 19 0 74 -100 121
-221 25 -63 44 -117 43 -121 -2 -4 -29 43 -61 105 -31 62 -87 164 -123 227
-37 63 -76 133 -88 155 -11 22 -24 42 -29 43 -4 2 -12 12 -17 23 -9 16 -7 19
12 19 18 0 35 -18 76 -84z m4928 34 c-5 -27 -14 -50 -19 -50 -5 0 -7 6 -4 14
3 8 9 31 13 50 3 20 9 36 13 36 4 0 3 -22 -3 -50z m-1896 25 c0 -8 -4 -15 -10
-15 -5 0 -7 7 -4 15 4 8 8 15 10 15 2 0 4 -7 4 -15z m927 -7 c-3 -8 -6 -5 -6
6 -1 11 2 17 5 13 3 -3 4 -12 1 -19z m-2700 -10 c-3 -8 -6 -5 -6 6 -1 11 2 17
5 13 3 -3 4 -12 1 -19z m3472 -36 c7 -23 6 -34 -5 -43 -11 -9 -15 -8 -20 5 -3
9 -10 14 -14 11 -11 -7 0 36 13 53 12 16 15 13 26 -26z m1769 -18 c-26 -44
-32 -43 -23 3 9 49 14 56 30 43 11 -9 10 -17 -7 -46z m-893 6 c8 -16 15 -37
15 -48 0 -24 -47 -95 -74 -112 -19 -12 -20 -12 -8 3 14 16 0 33 -18 22 -6 -3
-10 5 -10 19 0 30 17 43 23 19 3 -10 5 -1 6 20 1 43 25 107 40 107 6 0 17 -13
26 -30z m-4186 -20 c19 -34 22 -49 16 -93 -4 -29 -10 -56 -13 -61 -7 -12 -61
93 -62 121 0 24 19 73 30 73 3 0 17 -18 29 -40z m3571 14 c0 -22 -40 -107 -47
-100 -9 9 29 126 38 120 5 -3 9 -12 9 -20z m-5110 -11 c0 -13 -3 -13 -15 -3
-8 7 -15 16 -15 21 0 5 7 6 15 3 8 -4 15 -13 15 -21z m483 -15 c14 -24 32 -65
40 -93 17 -53 41 -214 34 -222 -8 -7 -44 50 -55 87 -5 19 -21 66 -36 104 -29
75 -33 112 -13 119 10 4 10 7 0 18 -15 16 -17 29 -3 29 5 0 20 -19 33 -42z
m-495 -14 c16 5 21 0 30 -34 11 -45 11 -45 -28 -25 -41 21 -38 2 6 -31 19 -15
42 -40 50 -55 15 -30 19 -69 7 -68 -9 1 -146 162 -151 177 -1 5 5 9 15 8 19
-1 20 4 8 44 l-7 25 25 -23 c17 -16 32 -22 45 -18z m848 -2 c-4 -3 -11 0 -16
8 -15 24 -11 33 6 15 9 -9 13 -19 10 -23z m5544 -63 c-16 -51 -30 -99 -30
-106 0 -15 -46 -18 -55 -3 -3 6 1 7 9 4 10 -4 16 -1 16 9 0 8 -5 17 -12 19 -8
3 2 28 30 72 23 37 42 69 42 72 0 7 24 33 28 29 1 -1 -11 -44 -28 -96z m-6832
-72 c17 -28 32 -61 32 -73 0 -13 5 -26 11 -30 17 -10 69 -96 69 -113 0 -24
-55 35 -82 88 -13 25 -30 55 -39 66 -32 39 -129 199 -129 213 0 18 98 -89 138
-151z m2601 104 c8 -26 8 -37 -3 -52 -12 -18 -14 -17 -25 25 -6 25 -11 55 -11
68 0 19 2 20 14 8 7 -8 18 -30 25 -49z m2035 47 c-4 -6 0 -16 8 -22 19 -14 34
-76 19 -76 -18 0 -41 43 -41 77 0 18 5 33 11 33 5 0 7 -5 3 -12z m3616 -29
c-7 -12 -37 -60 -68 -107 -32 -47 -70 -108 -85 -136 -28 -50 -87 -119 -95
-112 -6 6 35 81 63 114 14 16 25 38 25 49 0 26 55 110 115 175 49 53 68 61 45
17z m-2470 0 c0 -10 -4 -19 -10 -19 -5 0 -10 12 -10 26 0 14 4 23 10 19 6 -3
10 -15 10 -26z m656 -36 c-2 -2 -15 1 -29 6 -19 7 -25 15 -21 26 6 14 10 13
30 -6 13 -12 22 -24 20 -26z m-5873 -66 c15 -27 27 -51 25 -52 -2 -2 -16 8
-31 21 -29 25 -57 81 -56 111 0 15 3 14 17 -6 9 -13 30 -46 45 -74z m279 69
c7 6 38 -71 38 -94 0 -12 -12 -4 -40 26 -22 24 -40 45 -40 47 0 2 3 11 6 19 5
12 10 14 19 6 6 -5 14 -7 17 -4z m518 -69 c20 -36 21 -40 4 -26 -10 10 -28 19
-39 21 -13 2 -20 12 -21 28 -1 14 -5 34 -9 45 -14 35 38 -19 65 -68z m4472 55
c-17 -5 -15 -39 3 -46 18 -6 9 -36 -11 -36 -8 0 -14 -7 -14 -16 0 -9 -9 -27
-20 -41 -19 -24 -20 -24 -20 -5 0 11 -4 24 -10 27 -18 11 -11 63 14 89 13 15
28 26 34 26 5 0 13 8 17 18 6 14 8 14 13 3 3 -8 0 -17 -6 -19z m1378 -5 c0
-54 -81 -249 -97 -234 -2 3 1 45 7 93 13 95 31 137 55 128 11 -5 15 1 15 21 0
15 4 24 10 20 6 -3 10 -16 10 -28z m115 12 c0 -8 -8 -13 -18 -13 -14 2 -15 -1
-6 -12 7 -8 7 -14 1 -14 -5 0 -15 7 -22 15 -9 11 -9 15 -1 15 7 0 9 5 5 11 -4
7 2 6 17 -2 23 -12 23 -11 9 6 -13 16 -13 18 0 13 8 -2 15 -11 15 -19z m-6222
-24 c20 -42 33 -115 21 -115 -12 0 -40 66 -49 113 -9 47 6 48 28 2z m5942 -2
c-9 -47 -37 -113 -49 -113 -12 0 1 73 21 115 22 46 37 45 28 -2z m-6700 -20
c19 -25 33 -49 30 -51 -3 -3 -13 5 -23 18 -61 84 -67 112 -7 33z m1721 -55 c4
-27 10 -48 15 -48 5 0 9 -7 9 -15 0 -16 -18 -19 -36 -7 -7 4 -15 43 -18 87 -6
74 -6 78 8 55 8 -14 18 -46 22 -72z m2329 45 c-18 -43 -32 -60 -41 -50 -11 11
6 57 21 57 8 0 15 7 15 15 0 8 5 15 10 15 6 0 4 -16 -5 -37z m510 7 c-4 -12
-9 -19 -12 -17 -3 3 -2 15 2 27 4 12 9 19 12 17 3 -3 2 -15 -2 -27z m1500 12
c-3 -3 -11 0 -18 7 -9 10 -8 11 6 5 10 -3 15 -9 12 -12z m-3655 -13 c0 -5 -4
-9 -10 -9 -5 0 -10 7 -10 16 0 8 5 12 10 9 6 -3 10 -10 10 -16z m1987 -16 c-3
-10 -5 -4 -5 12 0 17 2 24 5 18 2 -7 2 -21 0 -30z m2542 24 c8 -10 7 -17 -1
-25 -19 -19 -28 -14 -28 13 0 27 12 32 29 12z m81 -54 c-34 -61 -72 -103 -78
-84 -7 21 93 160 106 147 2 -2 -11 -31 -28 -63z m-3323 25 c-3 -7 -5 -2 -5 12
0 14 2 19 5 13 2 -7 2 -19 0 -25z m571 -52 c-2 -11 -8 -21 -14 -23 -12 -4 -25
71 -16 96 7 18 34 -48 30 -73z m-2308 43 c0 -11 5 -17 10 -14 11 7 50 -68 50
-95 -1 -18 -59 49 -60 68 0 7 -6 15 -14 18 -8 3 -12 13 -9 25 7 25 23 24 23
-2z m-1522 -9 c10 0 27 -18 40 -40 28 -49 29 -64 3 -51 -19 10 -72 92 -70 108
0 4 3 2 6 -4 2 -7 12 -13 21 -13z m1823 -7 c-8 -15 -10 -15 -11 -2 0 17 10 32
18 25 2 -3 -1 -13 -7 -23z m2980 -10 c-9 -16 -10 -14 -11 12 0 21 3 26 11 18
8 -8 8 -16 0 -30z m-5197 -50 c21 -29 33 -53 28 -53 -6 0 -17 -2 -24 -5 -14
-5 -45 51 -63 115 -7 21 -6 22 6 10 8 -8 32 -39 53 -67z m1426 55 c0 -5 9 -21
20 -35 28 -36 43 -98 30 -123 -19 -35 -37 -11 -54 73 -19 95 -20 110 -6 102 6
-3 10 -11 10 -17z m4520 8 c0 -7 -9 -58 -19 -112 -11 -54 -26 -130 -33 -169
l-13 -70 -6 105 c-7 115 3 178 32 209 10 11 19 27 19 36 0 8 5 15 10 15 6 0
10 -6 10 -14z m-2230 -3 c0 -5 -5 -15 -10 -23 -8 -12 -10 -11 -10 8 0 12 5 22
10 22 6 0 10 -3 10 -7z m1440 5 c-1 -20 -29 -78 -34 -70 -7 12 13 72 25 72 5
0 9 -1 9 -2z m837 -63 c-16 -41 -23 -50 -25 -34 -7 42 8 89 28 89 17 0 17 -2
-3 -55z m1076 33 c-6 -28 -126 -268 -131 -263 -5 5 40 125 81 218 28 64 61 93
50 45z m-5474 -24 c15 -41 6 -58 -15 -30 -15 21 -19 66 -6 66 4 0 14 -16 21
-36z m2406 -50 c-9 -24 -21 -44 -26 -44 -17 0 -9 63 14 99 21 34 22 35 25 12
2 -13 -4 -43 -13 -67z m1785 70 c0 -8 -5 -12 -10 -9 -6 4 -8 11 -5 16 9 14 15
11 15 -7z m1620 6 c0 -5 -2 -10 -4 -10 -3 0 -8 5 -11 10 -3 6 -1 10 4 10 6 0
11 -4 11 -10z m-7201 -30 c33 -25 61 -71 119 -192 1 -4 -4 -5 -12 -2 -9 3 -16
11 -16 17 0 15 -49 77 -61 77 -6 0 -6 -7 1 -19 12 -24 13 -41 1 -41 -11 0 -51
79 -61 123 -4 18 -11 40 -15 50 -10 25 2 21 44 -13z m4411 -5 c0 -13 -3 -32
-7 -42 -6 -16 -8 -15 -13 7 -8 31 -1 72 11 64 5 -3 9 -16 9 -29z m2527 14
c-26 -15 -21 -39 8 -39 14 0 25 -5 25 -11 0 -18 -51 -119 -61 -119 -12 0 -11
17 1 41 7 12 7 19 1 19 -12 0 -61 -62 -61 -77 0 -6 -7 -14 -16 -17 -8 -3 -13
-2 -11 2 2 4 23 48 46 97 44 91 69 130 80 119 3 -3 -2 -10 -12 -15z m-6308
-105 c-9 -11 -8 -15 5 -20 22 -8 20 -24 -3 -24 -21 0 -27 16 -36 100 l-6 55
26 -48 c21 -38 24 -52 14 -63z m3351 84 c0 -13 -5 -30 -10 -38 -7 -11 -10 -5
-10 23 0 20 5 37 10 37 6 0 10 -10 10 -22z m2215 12 c12 -20 -5 -28 -35 -17
-26 10 -28 13 -13 19 26 10 41 9 48 -2z m151 -42 c-14 -102 -40 -180 -72 -215
-59 -63 -65 -41 -18 64 13 28 24 54 24 57 0 11 63 146 68 146 2 0 1 -24 -2
-52z m-304 10 c-9 -9 -12 -7 -12 12 0 19 3 21 12 12 9 -9 9 -15 0 -24z m-5564
-44 c11 -29 15 -59 11 -74 -7 -27 -10 -23 -27 40 -30 107 -19 131 16 34z
m1282 -15 c11 -21 16 -45 13 -58 -5 -18 -12 -8 -39 54 -19 42 -34 79 -34 83 1
11 39 -40 60 -79z m3449 2 c-30 -68 -49 -89 -49 -56 0 28 67 139 78 130 2 -2
-11 -35 -29 -74z m361 69 c0 -5 -4 -10 -10 -10 -5 0 -10 5 -10 10 0 6 5 10 10
10 6 0 10 -4 10 -10z m924 -22 c-6 -34 -21 -91 -31 -118 -13 -34 -18 37 -5 74
26 76 46 100 36 44z m-3509 -10 c-2 -18 -4 -51 -5 -73 l-1 -40 -15 39 c-11 31
-12 47 -3 73 14 42 27 43 24 1z m2937 5 c-6 -10 -20 -27 -32 -38 l-23 -20 8
25 c7 25 44 64 52 56 3 -2 0 -13 -5 -23z m216 15 c-6 -18 -28 -21 -28 -4 0 9
7 16 16 16 9 0 14 -5 12 -12z m42 -27 c0 -33 -18 -68 -56 -110 -41 -46 -54
-50 -72 -21 -9 15 -9 25 0 45 13 28 28 33 28 9 0 -24 25 -1 57 53 27 46 43 55
43 24z m-150 5 c0 -5 -122 -261 -128 -266 -2 -3 -7 1 -9 8 -7 20 -20 14 -27
-13 -6 -24 -26 -36 -26 -15 0 21 117 234 143 261 25 25 47 37 47 25z m-4529
-29 c-10 -9 -11 -8 -5 6 3 10 9 15 12 12 3 -3 0 -11 -7 -18z m3959 -9 c0 -21
-48 -128 -57 -128 -9 0 9 85 23 107 8 12 14 29 14 38 0 9 5 13 10 10 6 -3 10
-16 10 -27z m-5610 -2 c0 -8 -8 -20 -17 -27 -15 -12 -16 -12 -10 4 4 10 7 25
7 33 0 9 5 12 10 9 6 -3 10 -12 10 -19z m83 -23 c33 -47 52 -93 38 -93 -4 0
-15 19 -26 43 -10 23 -26 50 -36 60 -17 16 -25 37 -15 37 2 0 20 -21 39 -47z
m3424 10 c-3 -10 -5 -4 -5 12 0 17 2 24 5 18 2 -7 2 -21 0 -30z m3687 15 c-8
-27 -67 -118 -76 -118 -13 0 6 47 39 93 38 52 48 59 37 25z m-2383 -41 c-8 -8
-11 -4 -11 14 0 33 14 47 18 19 2 -12 -1 -27 -7 -33z m2919 21 c0 -6 -7 -5
-15 2 -8 7 -15 17 -15 22 0 6 7 5 15 -2 8 -7 15 -17 15 -22z m-5290 1 c0 -11
-4 -17 -10 -14 -5 3 -10 13 -10 21 0 8 5 14 10 14 6 0 10 -9 10 -21z m2702
-48 c-4 -25 -14 -47 -21 -49 -11 -4 -13 3 -7 29 9 44 30 93 34 77 1 -7 -1 -33
-6 -57z m1247 32 c-18 -56 -21 -63 -30 -63 -16 0 -9 37 12 64 26 33 30 33 18
-1z m888 13 c5 -4 -50 -111 -65 -128 -16 -19 -42 -24 -42 -8 0 5 14 41 31 80
28 61 35 70 53 64 12 -4 22 -7 23 -8z m248 -35 c-24 -48 -36 -37 -13 12 12 23
23 37 25 30 2 -6 -3 -25 -12 -42z m-4488 7 c-3 -7 -5 -2 -5 12 0 14 2 19 5 13
2 -7 2 -19 0 -25z m2643 -25 c0 -34 -52 -134 -67 -129 -7 3 -17 -3 -23 -12
-23 -36 -2 56 27 113 25 53 28 56 35 34 5 -16 6 -11 3 16 -4 37 -3 38 10 21 8
-11 15 -30 15 -43z m-2760 28 c0 -6 -4 -13 -10 -16 -5 -3 -10 1 -10 9 0 9 5
16 10 16 6 0 10 -4 10 -9z m4780 -1 c0 -5 -2 -10 -4 -10 -3 0 -8 5 -11 10 -3
6 -1 10 4 10 6 0 11 -4 11 -10z m-2860 -69 c0 -25 -7 -44 -20 -56 -20 -18 -20
-17 -20 24 0 46 16 85 31 76 5 -4 9 -23 9 -44z m580 25 c0 -24 -16 -43 -26
-33 -8 7 7 57 17 57 5 0 9 -11 9 -24z m375 -123 c-6 -16 -8 -16 -15 4 -10 25
-11 97 -2 128 4 12 10 -6 15 -47 5 -37 6 -76 2 -85z m-3945 104 c0 -5 -4 -5
-10 -2 -5 3 -10 14 -10 23 0 15 2 15 10 2 5 -8 10 -19 10 -23z m590 -16 c-1
-13 -4 -12 -15 3 -8 11 -15 27 -15 35 1 13 4 12 15 -3 8 -11 15 -27 15 -35z
m616 22 c-10 -10 -19 5 -10 18 6 11 8 11 12 0 2 -7 1 -15 -2 -18z m4664 -4
c11 -6 12 -8 1 -9 -8 0 -11 -6 -6 -17 17 -43 12 -63 -16 -80 -27 -16 -38 -33
-21 -33 4 0 22 9 41 21 18 11 37 19 42 17 10 -4 -60 -117 -85 -138 -10 -8 -27
-19 -39 -25 -25 -12 -36 -38 -13 -29 17 7 21 -3 8 -23 -4 -7 -27 -11 -55 -10
-45 2 -47 3 -28 16 27 17 27 31 -1 31 -19 0 -20 2 -7 18 8 9 21 29 29 45 7 15
17 27 22 27 4 0 8 7 8 16 0 13 -5 12 -27 -5 -14 -12 -28 -19 -31 -17 -4 5 71
156 101 204 8 12 47 8 77 -9z m-7289 -62 c11 -22 18 -42 15 -45 -11 -10 -29
16 -47 70 -15 43 -16 49 -3 33 9 -11 25 -37 35 -58z m757 46 c25 -37 62 -111
62 -125 0 -7 -5 -6 -15 2 -8 7 -15 18 -15 24 0 6 -10 16 -22 21 -12 6 -23 18
-24 29 -1 10 -12 28 -23 40 -26 28 -26 36 -2 36 11 0 28 -12 39 -27z m5654
-20 c-10 -27 -21 -54 -25 -60 -9 -14 -27 -18 -27 -5 0 9 59 112 64 112 3 0 -3
-21 -12 -47z m529 29 c-5 -9 -19 -26 -30 -36 -26 -24 -29 -2 -5 32 19 27 50
31 35 4z m-6531 -13 c0 -11 7 -27 15 -35 8 -9 15 -20 15 -25 0 -19 -24 -8 -57
28 -32 33 -34 38 -17 44 32 13 44 10 44 -12z m-570 -34 c7 -8 8 -15 2 -15 -5
0 -15 7 -22 15 -7 8 -8 15 -2 15 5 0 15 -7 22 -15z m2774 -31 c0 -22 -4 -49
-8 -59 -11 -31 -26 1 -26 58 0 41 3 48 18 45 13 -3 17 -13 16 -44z m1743 16
c0 -16 -4 -30 -9 -30 -10 0 -11 44 -1 53 9 10 10 10 10 -23z m2203 15 c-7 -8
-17 -15 -22 -15 -6 0 -5 7 2 15 7 8 17 15 22 15 6 0 5 -7 -2 -15z m426 -25
c-3 -22 -14 -58 -22 -81 l-17 -40 -23 22 -23 22 41 58 c22 33 43 59 46 59 2 0
2 -18 -2 -40z m-5951 20 c-3 -5 -11 -10 -16 -10 -6 0 -7 5 -4 10 3 6 11 10 16
10 6 0 7 -4 4 -10z m-48 -22 c-3 -8 -6 -5 -6 6 -1 11 2 17 5 13 3 -3 4 -12 1
-19z m1013 6 c0 -8 -4 -12 -10 -9 -5 3 -10 10 -10 16 0 5 5 9 10 9 6 0 10 -7
10 -16z m3844 -26 c-9 -56 -20 -77 -58 -110 -28 -24 -56 -36 -56 -23 0 12 109
173 118 175 1 0 -1 -19 -4 -42z m-6017 -67 c18 -30 20 -41 10 -41 -19 0 -43
28 -62 73 -33 79 -4 61 52 -32z m6783 45 c-14 -44 -47 -86 -66 -86 -12 0 -10
8 8 39 31 51 61 91 66 86 2 -2 -1 -19 -8 -39z m860 -14 c0 -28 17 -20 31 15 8
22 12 23 25 12 13 -11 13 -14 3 -17 -8 -2 -18 -10 -24 -16 -5 -7 -39 -32 -75
-56 -36 -24 -80 -56 -99 -72 -44 -39 -52 -28 -9 12 29 27 30 30 10 25 -23 -7
-22 -5 10 46 25 39 43 56 66 63 23 6 32 15 32 30 1 21 1 21 15 2 8 -11 15 -30
15 -44z m-6865 -22 c25 -39 45 -72 45 -75 0 -23 -75 30 -97 69 -15 26 -17 76
-3 76 6 0 30 -32 55 -70z m4075 44 c0 -8 -4 -14 -10 -14 -5 0 -10 9 -10 21 0
11 5 17 10 14 6 -3 10 -13 10 -21z m2413 19 c-7 -2 -13 -11 -13 -19 0 -8 -4
-14 -10 -14 -5 0 -10 4 -10 8 0 12 22 32 35 31 5 0 4 -3 -2 -6z m-6825 -70
c16 -27 33 -59 37 -71 6 -22 5 -23 -14 -13 -12 7 -21 16 -21 21 0 4 -11 21
-23 37 -29 34 -41 73 -22 73 7 0 26 -21 43 -47z m6472 26 c0 -15 -39 -69 -51
-69 -16 0 -10 26 12 54 21 27 39 34 39 15z m-2337 -19 c-3 -11 -7 -20 -9 -20
-2 0 -4 9 -4 20 0 11 4 20 9 20 5 0 7 -9 4 -20z m-4713 -9 c25 -47 2 -56 -30
-11 -21 30 -21 30 -1 30 11 0 25 -9 31 -19z m5656 -29 c-11 -10 -15 4 -8 28
l7 25 3 -23 c2 -13 1 -26 -2 -30z m-5293 20 c39 -43 95 -212 70 -212 -25 0
-45 33 -73 114 -16 50 -30 96 -30 103 0 18 14 16 33 -5z m5512 -64 c-20 -80
-56 -159 -69 -155 -12 4 -9 74 5 132 11 40 71 115 77 96 2 -6 -4 -38 -13 -73z
m-5103 55 c19 -22 78 -136 78 -152 0 -16 -14 -14 -36 7 -18 16 -74 131 -74
153 0 14 16 11 32 -8z m5460 -67 c-14 -34 -29 -63 -32 -66 -13 -12 -29 -50
-35 -84 -13 -66 -29 -54 -21 15 7 62 49 162 84 202 29 32 31 -3 4 -67z m-1551
57 c0 -10 2 -34 4 -54 2 -21 -2 -45 -9 -55 -12 -16 -14 -12 -21 33 -7 54 0 93
16 93 5 0 9 -8 10 -17z m-3496 -68 c19 -58 15 -85 -11 -85 -11 0 -15 6 -11 20
3 12 0 20 -7 20 -12 0 -36 61 -36 93 0 19 21 28 37 15 6 -5 19 -34 28 -63z
m6007 50 c3 -13 1 -22 -3 -19 -9 5 -13 44 -5 44 2 0 6 -11 8 -25z m-5587 -41
c9 -19 15 -45 13 -57 -3 -17 -9 -10 -31 34 -31 64 -32 70 -13 63 8 -3 22 -21
31 -40z m2449 -131 c-19 -76 -26 -86 -44 -54 -20 39 -4 117 40 191 15 25 15
25 18 -20 2 -25 -4 -78 -14 -117z m-4224 127 c18 0 30 -27 29 -65 0 -17 -5
-14 -29 15 -17 19 -30 43 -29 55 0 11 3 14 6 8 2 -7 13 -13 23 -13z m1121 -40
c4 0 9 -14 11 -31 l5 -31 -43 48 c-46 51 -51 80 -6 39 15 -14 30 -25 33 -25z
m1387 -3 l-3 -22 -13 22 c-6 12 -9 29 -5 38 5 16 7 16 15 1 5 -9 8 -27 6 -39z
m3082 49 c0 -13 -32 -77 -37 -73 -11 12 8 77 22 77 8 0 15 -2 15 -4z m686 -34
c-8 -15 -33 -47 -55 -71 -23 -24 -41 -46 -41 -48 0 -13 -94 -128 -103 -128
-18 0 -21 35 -6 64 22 43 69 111 78 111 6 0 62 47 116 98 18 18 25 1 11 -26z
m-6041 -47 c27 -60 41 -130 26 -120 -6 3 -11 10 -11 15 0 4 -16 42 -35 83 -19
41 -35 80 -35 87 0 25 33 -14 55 -65z m115 -36 c33 -61 59 -113 57 -115 -8 -8
-109 127 -118 158 -9 34 -12 68 -5 68 3 0 32 -50 66 -111z m3942 79 c-9 -9
-12 -7 -12 12 0 19 3 21 12 12 9 -9 9 -15 0 -24z m2763 -18 c-5 -28 -24 -62
-62 -110 -31 -39 -58 -68 -60 -66 -2 2 24 54 58 115 33 62 63 110 66 107 3 -2
2 -23 -2 -46z m71 -46 c-20 -41 -36 -80 -36 -84 0 -5 -5 -12 -11 -15 -27 -17
25 141 59 178 29 33 24 -1 -12 -79z m-2516 59 c0 -20 -3 -24 -11 -16 -7 7 -9
19 -6 27 10 24 17 19 17 -11z m-4149 -131 c13 -26 22 -54 21 -63 -2 -9 4 -22
13 -29 18 -15 43 -67 55 -115 4 -16 11 -38 15 -47 4 -10 3 -18 -2 -18 -5 0
-40 60 -78 133 -37 72 -81 155 -97 184 -15 29 -28 58 -28 64 0 23 76 -60 101
-109z m6444 -44 c-87 -171 -91 -176 -106 -161 -12 12 13 74 44 110 11 12 17
28 15 35 -10 27 104 190 120 173 3 -3 -30 -74 -73 -157z m-6809 100 c27 -53
35 -88 19 -88 -19 0 -33 28 -41 79 -8 49 0 52 22 9z m4173 -30 c0 -24 -6 -61
-13 -83 -11 -33 -15 -37 -21 -22 -4 10 -3 36 4 56 6 21 11 50 11 65 0 14 5 26
10 26 6 0 10 -19 9 -42z m-3239 12 c0 -5 -7 -10 -15 -10 -8 0 -15 5 -15 10 0
6 7 10 15 10 8 0 15 -4 15 -10z m4910 -18 c0 -30 -8 -45 -20 -37 -9 6 0 65 11
65 5 0 9 -13 9 -28z m1700 18 c0 -15 -27 -23 -47 -15 -17 7 -16 8 2 15 28 12
45 12 45 0z m-6210 -20 c0 -5 -7 -7 -15 -4 -8 4 -12 10 -9 15 6 11 24 2 24
-11z m5106 -31 c-9 -18 -16 -38 -16 -46 0 -7 -4 -13 -10 -13 -19 0 -3 65 25
97 17 19 17 -5 1 -38z m-3706 -11 c0 -34 -16 -45 -24 -15 -7 31 4 73 15 55 5
-7 9 -25 9 -40z m3410 26 c0 -9 -6 -28 -14 -42 -8 -15 -20 -48 -26 -73 -10
-39 -15 -46 -31 -42 -11 3 -29 -3 -41 -13 -20 -19 -21 -19 -13 6 9 32 72 130
84 130 5 0 12 11 15 25 7 28 26 34 26 9z m-5636 -10 c21 -20 22 -52 2 -35 -12
10 -29 51 -21 51 2 0 11 -7 19 -16z m221 -14 c17 -34 19 -50 5 -50 -5 0 -10 9
-10 19 0 11 -4 23 -10 26 -10 6 -14 35 -5 35 2 0 11 -13 20 -30z m5928 10 c-7
-25 -33 -49 -33 -30 0 11 28 50 36 50 1 0 0 -9 -3 -20z m-5312 -38 c3 -24 2
-45 -2 -47 -8 -6 -31 20 -24 27 3 2 0 19 -5 37 -8 28 -7 32 8 29 12 -2 19 -17
23 -46z m5809 43 c0 -2 -10 -10 -22 -16 -21 -11 -22 -11 -9 4 13 16 31 23 31
12z m-5620 -36 c0 -5 -4 -9 -10 -9 -5 0 -10 7 -10 16 0 8 5 12 10 9 6 -3 10
-10 10 -16z m4095 -23 c-4 -20 -11 -36 -16 -36 -12 0 -11 23 1 56 14 36 23 24
15 -20z m-5645 -47 c7 -28 10 -52 7 -55 -6 -7 -57 100 -57 121 0 36 38 -14 50
-66z m355 -54 c96 -145 143 -243 202 -415 15 -42 42 -146 43 -162 1 -22 -22
-3 -41 35 -12 23 -57 96 -100 162 -65 99 -86 144 -124 253 -25 73 -45 139 -45
147 0 9 -6 26 -14 38 -7 12 -17 35 -20 51 -7 27 -6 28 10 15 9 -8 50 -63 89
-124z m5493 114 c1 -8 -4 -23 -12 -34 -15 -19 -15 -18 -16 18 0 27 4 37 13 35
6 -3 13 -11 15 -19z m1076 -6 c-4 -16 -13 -38 -20 -50 -8 -12 -14 -30 -14 -40
0 -25 -49 -152 -49 -129 -1 13 -6 17 -19 14 -10 -3 -26 0 -35 6 -14 11 -8 23
42 99 54 82 89 127 98 127 2 0 1 -12 -3 -27z m-6294 -69 c0 -9 -6 -14 -12 -12
-19 7 -59 69 -51 81 8 13 63 -47 63 -69z m5979 43 c-15 -29 -40 -57 -51 -57
-16 0 -8 29 18 59 29 34 51 33 33 -2z m-5439 -7 c6 -11 8 -20 6 -20 -3 0 -10
9 -16 20 -6 11 -8 20 -6 20 3 0 10 -9 16 -20z m-50 -20 c0 -5 -2 -10 -4 -10
-3 0 -8 5 -11 10 -3 6 -1 10 4 10 6 0 11 -4 11 -10z m-11 -20 c38 -19 53 -39
47 -62 -1 -7 -1 -9 2 -5 2 4 10 3 17 -3 13 -11 9 -56 -6 -66 -5 -3 -9 -13 -9
-23 0 -10 -6 -24 -14 -30 -11 -9 -15 -6 -18 14 -3 14 -1 28 3 31 5 3 8 13 8
22 -1 15 -2 15 -6 0 -8 -32 -20 -19 -43 50 -13 37 -25 73 -27 80 -7 17 1 15
46 -8z m109 -8 c4 -25 -13 -30 -22 -6 -9 25 -7 36 7 32 6 -3 13 -14 15 -26z
m4772 7 c0 -5 -4 -9 -10 -9 -5 0 -10 7 -10 16 0 8 5 12 10 9 6 -3 10 -10 10
-16z m-803 -21 c-3 -8 -6 -5 -6 6 -1 11 2 17 5 13 3 -3 4 -12 1 -19z m-5317
-62 c-15 -15 -34 9 -26 31 7 17 8 17 22 -1 9 -13 11 -23 4 -30z m7480 36 c0
-13 -30 -52 -41 -52 -14 0 -11 22 8 42 17 19 33 24 33 10z m90 -2 c0 -14 -46
-60 -60 -60 -13 0 -5 16 23 48 22 24 37 29 37 12z m-4801 -77 c1 -17 -3 -35
-9 -38 -6 -4 -10 16 -9 52 0 42 3 52 9 38 5 -11 9 -34 9 -52z m1934 13 c4 -25
3 -56 -2 -68 l-8 -22 -12 21 c-12 24 -14 65 -5 100 9 33 20 20 27 -31z m-4394
-35 c-1 -14 -2 -13 -6 2 -2 9 -8 17 -13 17 -4 0 -10 10 -13 23 l-6 22 20 -24
c10 -13 18 -31 18 -40z m2878 27 c-3 -7 -5 -2 -5 12 0 14 2 19 5 13 2 -7 2
-19 0 -25z m3976 12 c-3 -11 -9 -20 -14 -20 -5 0 -9 -8 -10 -17 0 -11 -2 -13
-6 -5 -3 7 2 24 11 37 20 30 26 32 19 5z m-5809 -45 c10 -25 22 -45 27 -45 20
0 43 -67 44 -131 1 -64 0 -66 -15 -45 -10 11 -20 28 -23 36 -3 10 -6 7 -6 -9
-1 -32 -18 -17 -65 58 l-36 60 15 43 c9 24 19 51 22 61 9 28 19 20 37 -28z
m2988 30 c0 -5 -5 -11 -11 -13 -6 -2 -11 4 -11 13 0 9 5 15 11 13 6 -2 11 -8
11 -13z m-3568 -26 c25 -29 35 -69 17 -69 -12 0 -61 47 -61 59 0 5 -3 16 -6
25 -11 28 23 18 50 -15z m5938 19 c-7 -7 -12 -22 -12 -34 0 -12 -11 -29 -25
-38 -31 -20 -35 -20 -35 3 0 25 47 81 68 81 12 0 13 -3 4 -12z m-6757 -38 c3
-5 -1 -10 -10 -10 -9 0 -13 5 -10 10 3 6 8 10 10 10 2 0 7 -4 10 -10z m7555
-2 c0 -6 -13 -39 -28 -72 -16 -34 -34 -79 -41 -101 -8 -22 -19 -53 -27 -70 -7
-16 -25 -66 -39 -110 -32 -98 -54 -147 -55 -122 0 43 45 298 68 378 4 15 29
45 57 68 52 43 65 49 65 29z m-7494 -46 c20 -17 35 -43 42 -72 26 -109 62
-316 62 -357 -1 -25 -23 24 -55 122 -14 44 -32 94 -39 110 -8 17 -19 48 -26
70 -7 22 -19 53 -27 68 -14 26 -13 30 3 41 12 9 14 15 6 20 -13 8 -16 26 -4
26 4 -1 21 -13 38 -28z m251 -71 c12 -34 17 -61 12 -61 -11 0 -56 78 -65 114
-6 26 -5 27 13 18 11 -6 29 -37 40 -71z m3967 64 c-4 -8 -8 -15 -10 -15 -2 0
-4 7 -4 15 0 8 4 15 10 15 5 0 7 -7 4 -15z m2456 7 c0 -15 -33 -107 -41 -116
-5 -6 -9 -19 -9 -30 0 -13 -3 -16 -9 -10 -15 14 3 121 24 144 19 21 35 26 35
12z m514 -70 c-16 -30 -34 -57 -40 -59 -17 -5 24 110 44 125 28 22 27 -5 -4
-66z m-6407 26 c15 -19 24 -106 13 -113 -6 -3 -10 0 -10 8 0 8 -6 27 -14 43
-25 52 -29 74 -13 74 8 0 19 -6 24 -12z m6023 -64 c0 -12 7 -15 25 -12 14 3
25 1 25 -4 0 -6 7 -8 14 -5 8 3 -12 -35 -46 -86 -33 -51 -71 -113 -84 -139
-13 -27 -29 -48 -34 -48 -6 0 -10 2 -10 4 0 20 35 144 56 201 14 39 28 78 31
88 7 21 23 22 23 1z m-7070 -25 c-7 -11 -14 -18 -17 -15 -3 3 0 12 7 21 18 21
23 19 10 -6z m224 -73 c39 -104 96 -282 96 -302 0 -17 -14 -17 -65 1 -64 23
-65 17 0 -15 32 -16 64 -35 71 -42 6 -7 18 -42 27 -78 35 -140 49 -239 83
-560 3 -30 1 -66 -4 -80 -12 -29 -13 -27 -41 80 -65 253 -207 633 -348 927
-35 75 -36 100 -6 125 14 11 14 10 -1 -14 -17 -26 -8 -47 14 -33 6 3 10 -1 10
-9 0 -9 6 -16 14 -16 9 0 16 18 20 53 l7 53 44 0 45 1 34 -91z m386 26 c11
-25 23 -57 27 -71 l5 -26 -20 20 c-26 25 -65 135 -45 128 7 -3 22 -26 33 -51z
m1284 -54 c-3 -5 -10 -6 -15 -3 -11 7 -12 88 -1 99 8 9 24 -83 16 -96z m4176
47 c0 -39 -13 -65 -26 -52 -9 8 8 107 17 101 5 -3 9 -25 9 -49z m1297 41 c-3
-8 -11 -32 -16 -54 -6 -21 -21 -47 -32 -58 -22 -19 -22 -19 -16 7 11 44 48
119 59 119 5 0 8 -6 5 -14z m-5987 -8 c0 -7 3 -24 6 -38 6 -24 6 -25 -9 -5
-18 22 -22 55 -7 55 6 0 10 -6 10 -12z m4898 -8 c-14 -22 -24 -19 -15 5 4 8
11 15 17 15 6 0 6 -7 -2 -20z m302 3 c0 -10 -8 -27 -17 -38 -15 -20 -15 -19
-9 5 3 14 6 31 6 38 0 6 5 12 10 12 6 0 10 -8 10 -17z m-1985 -73 c-5 -16 -9
-19 -15 -10 -11 17 0 54 12 42 6 -6 7 -20 3 -32z m-2895 -22 c0 -18 -2 -20 -9
-8 -6 8 -7 18 -5 22 9 14 14 9 14 -14z m4553 -3 c-7 -21 -13 -19 -13 6 0 11 4
18 10 14 5 -3 7 -12 3 -20z m-213 -65 c0 -16 -4 -30 -10 -30 -11 0 -14 43 -3
53 11 12 13 8 13 -23z m-4700 -52 c0 -16 -3 -19 -11 -11 -6 6 -8 16 -5 22 11
17 16 13 16 -11z m5272 -10 c-9 -9 -12 -7 -12 12 0 19 3 21 12 12 9 -9 9 -15
0 -24z m-5965 -30 c-3 -8 -6 -5 -6 6 -1 11 2 17 5 13 3 -3 4 -12 1 -19z m6650
0 c-3 -8 -6 -5 -6 6 -1 11 2 17 5 13 3 -3 4 -12 1 -19z m-6696 -112 c6 -48 8
-90 5 -93 -3 -4 -6 3 -6 14 0 11 -3 23 -7 27 -4 4 -13 33 -19 64 -7 31 -15 71
-19 87 l-7 30 21 -20 c16 -16 24 -41 32 -109z m6773 43 c-9 -41 -20 -82 -25
-91 -5 -10 -9 -25 -9 -35 0 -9 -3 -14 -6 -10 -12 11 16 180 32 199 10 10 19
16 21 15 2 -2 -4 -37 -13 -78z m-6621 -116 c9 -29 12 -53 7 -53 -17 0 -40 58
-40 97 1 46 11 32 33 -44z m6452 -22 c-15 -30 -38 -44 -30 -18 2 6 12 37 22
67 l18 55 3 -37 c2 -20 -4 -51 -13 -67z m-5355 79 c0 -5 -4 -10 -10 -10 -5 0
-10 5 -10 10 0 6 5 10 10 10 6 0 10 -4 10 -10z m3577 -42 c-3 -8 -6 -5 -6 6
-1 11 2 17 5 13 3 -3 4 -12 1 -19z m-4960 -100 c-3 -7 -5 -2 -5 12 0 14 2 19
5 13 2 -7 2 -19 0 -25z m7010 0 c-3 -7 -5 -2 -5 12 0 14 2 19 5 13 2 -7 2 -19
0 -25z m-7000 -115 c-2 -16 -4 -3 -4 27 0 30 2 43 4 28 2 -16 2 -40 0 -55z
m6990 0 c-2 -16 -4 -3 -4 27 0 30 2 43 4 28 2 -16 2 -40 0 -55z m-5937 -30
c23 -20 37 -80 23 -94 -5 -5 -17 -7 -27 -3 -14 5 -16 14 -10 50 4 30 3 44 -5
44 -6 0 -11 5 -11 10 0 14 7 13 30 -7z m4910 7 c0 -5 -5 -10 -11 -10 -8 0 -9
-14 -5 -44 6 -35 4 -45 -9 -50 -27 -10 -38 4 -32 42 7 43 57 97 57 62z m-5931
-214 c7 -98 9 -181 6 -184 -3 -3 -5 14 -5 37 0 23 -4 50 -9 59 -5 9 -12 80
-15 157 -10 204 9 148 23 -69z m6942 24 c-12 -116 -27 -224 -30 -199 -2 31 20
334 26 359 13 45 15 -45 4 -160z m-5913 12 c2 -26 -2 -50 -10 -59 -11 -14 -14
-11 -20 23 -12 68 -10 86 10 82 12 -2 18 -15 20 -46z m4902 34 c0 -7 -3 -34
-6 -60 -6 -37 -9 -44 -20 -35 -14 12 -20 90 -7 102 11 12 33 8 33 -7z m-4850
-131 c0 -81 -11 -109 -25 -64 -9 28 4 149 16 149 5 0 9 -38 9 -85z m4785 21
c7 -65 1 -106 -16 -106 -5 0 -9 38 -9 85 0 47 4 85 9 85 5 0 12 -29 16 -64z
m-498 12 c-3 -7 -5 -2 -5 12 0 14 2 19 5 13 2 -7 2 -19 0 -25z"/>
<path d="M3790 3142 c0 -5 7 -15 15 -22 8 -7 15 -8 15 -2 0 5 -7 15 -15 22 -8
7 -15 8 -15 2z"/>
<path d="M8990 3135 c-7 -9 -11 -18 -8 -20 3 -3 11 1 18 10 7 9 11 18 8 20 -3
3 -11 -1 -18 -10z"/>
<path d="M4047 1861 c-8 -37 -3 -51 19 -51 9 0 12 5 8 12 -4 6 -10 25 -14 42
l-6 31 -7 -34z"/>
<path d="M5750 5392 c0 -23 4 -42 9 -42 6 0 7 17 4 38 -8 51 -13 53 -13 4z"/>
<path d="M7941 5390 c-1 -8 -4 -26 -7 -40 -5 -19 -4 -22 5 -14 7 6 11 24 8 40
-2 16 -5 22 -6 14z"/>
<path d="M7123 5350 c0 -25 2 -35 4 -22 2 12 2 32 0 45 -2 12 -4 2 -4 -23z"/>
<path d="M6598 5364 c-5 -4 -8 -26 -8 -48 1 -33 3 -38 11 -23 11 19 8 83 -3
71z"/>
<path d="M7908 5265 c-2 -25 0 -45 4 -45 5 0 8 20 8 45 0 25 -2 45 -4 45 -2 0
-6 -20 -8 -45z"/>
<path d="M3419 5158 c21 -55 117 -197 133 -198 21 -1 -33 107 -90 178 -38 46
-56 55 -43 20z"/>
<path d="M9338 5138 c-57 -71 -111 -179 -90 -178 9 1 71 83 101 134 52 92 47
115 -11 44z"/>
<path d="M5320 5055 c0 -5 5 -17 10 -25 5 -8 10 -10 10 -5 0 6 -5 17 -10 25
-5 8 -10 11 -10 5z"/>
<path d="M6140 5055 c0 -5 5 -17 10 -25 5 -8 10 -10 10 -5 0 6 -5 17 -10 25
-5 8 -10 11 -10 5z"/>
<path d="M6646 5045 c-9 -26 -7 -32 5 -12 6 10 9 21 6 23 -2 3 -7 -2 -11 -11z"/>
<path d="M7466 5045 c-9 -26 -7 -32 5 -12 6 10 9 21 6 23 -2 3 -7 -2 -11 -11z"/>
<path d="M6380 4990 c0 -8 5 -22 10 -30 9 -13 11 -13 20 0 5 8 10 22 10 30 0
13 -1 13 -10 0 -9 -13 -11 -13 -20 0 -9 13 -10 13 -10 0z"/>
<path d="M2746 4974 c-5 -14 -4 -15 9 -4 17 14 19 20 6 20 -5 0 -12 -7 -15
-16z"/>
<path d="M2203 4973 c-15 -5 -18 -109 -4 -117 4 -3 14 -27 21 -53 17 -62 45
-118 67 -135 14 -10 18 -28 19 -74 1 -50 6 -65 27 -88 14 -15 28 -40 32 -54 4
-22 20 -34 80 -62 44 -20 75 -41 75 -50 0 -8 7 -24 15 -34 8 -11 15 -32 15
-48 0 -15 5 -28 10 -28 6 0 10 7 10 15 0 8 6 15 14 15 19 0 27 34 27 110 0 55
1 61 11 43 6 -13 17 -23 25 -23 14 0 43 23 43 34 0 14 42 46 60 46 17 0 20 7
20 39 0 22 4 42 9 45 14 9 0 98 -21 134 -11 18 -40 46 -64 63 -41 28 -44 33
-44 74 0 25 -4 45 -10 45 -5 0 -10 -4 -10 -10 0 -5 -9 -10 -19 -10 -14 0 -18
-5 -14 -19 8 -31 -17 -35 -45 -8 -32 30 -189 110 -269 138 -59 20 -61 20 -80
12z"/>
<path d="M6280 4925 c0 -5 5 -17 10 -25 5 -8 10 -10 10 -5 0 6 -5 17 -10 25
-5 8 -10 11 -10 5z"/>
<path d="M6291 4850 c0 -8 4 -22 9 -30 12 -18 12 -2 0 25 -6 13 -9 15 -9 5z"/>
<path d="M4470 4735 c0 -11 5 -27 10 -35 8 -12 10 -12 10 5 0 11 -5 27 -10 35
-8 12 -10 12 -10 -5z"/>
<path d="M8317 4737 c-4 -10 -7 -26 -7 -35 1 -15 2 -15 11 1 6 10 9 25 7 35
-3 16 -4 15 -11 -1z"/>
<path d="M2950 4649 c0 -15 7 -32 15 -39 19 -16 19 0 0 36 l-15 29 0 -26z"/>
<path d="M9841 4663 c0 -6 -4 -20 -7 -30 -5 -14 -4 -15 5 -7 7 7 11 20 8 30
-3 11 -5 14 -6 7z"/>
<path d="M7957 4647 c-4 -10 -7 -26 -7 -35 1 -15 2 -15 11 1 6 10 9 25 7 35
-3 16 -4 15 -11 -1z"/>
<path d="M3542 4603 c4 -17 100 -130 116 -137 9 -4 10 -1 2 14 -14 26 -122
138 -118 123z"/>
<path d="M2300 4197 c11 -27 20 -58 21 -70 0 -19 1 -20 8 -4 6 16 11 12 38
-25 41 -56 83 -103 83 -94 0 13 -105 168 -139 206 l-31 35 20 -48z"/>
<path d="M8568 4213 c-29 -31 -118 -163 -118 -176 0 -13 22 12 74 83 45 61 81
120 73 120 -2 0 -15 -12 -29 -27z"/>
<path d="M10478 4198 c-39 -48 -128 -182 -128 -194 0 -9 42 39 83 94 27 37 32
41 38 25 7 -16 8 -15 8 4 1 12 10 42 21 67 10 25 18 46 16 46 -2 0 -19 -19
-38 -42z"/>
<path d="M2500 4227 c0 -4 14 -26 31 -50 32 -44 59 -66 59 -47 0 12 -89 109
-90 97z"/>
<path d="M10251 4185 c-41 -44 -54 -73 -27 -58 18 10 79 93 73 99 -2 2 -23
-16 -46 -41z"/>
<path d="M3340 4153 c0 -5 9 -18 20 -28 11 -10 20 -14 20 -8 0 5 -9 18 -20 28
-11 10 -20 14 -20 8z"/>
<path d="M9435 4140 c-10 -11 -16 -22 -13 -25 3 -3 13 4 23 15 10 11 16 22 13
25 -3 3 -13 -4 -23 -15z"/>
<path d="M1768 4111 c15 -21 35 -44 45 -50 17 -11 17 -10 6 11 -11 21 -66 78
-75 78 -2 0 9 -18 24 -39z"/>
<path d="M11023 4123 c-16 -16 -35 -38 -42 -51 -11 -21 -11 -22 6 -11 17 10
78 89 69 89 -2 0 -17 -12 -33 -27z"/>
<path d="M2162 4098 c38 -46 96 -91 69 -53 -27 36 -85 95 -94 95 -5 0 6 -19
25 -42z"/>
<path d="M10619 4103 c-19 -21 -42 -47 -50 -58 -27 -38 31 7 69 53 43 52 29
55 -19 5z"/>
<path d="M2335 4070 c3 -5 8 -10 11 -10 2 0 4 5 4 10 0 6 -5 10 -11 10 -5 0
-7 -4 -4 -10z"/>
<path d="M10450 4069 c0 -5 5 -7 10 -4 6 3 10 8 10 11 0 2 -4 4 -10 4 -5 0
-10 -5 -10 -11z"/>
<path d="M1400 4032 c0 -11 59 -67 64 -61 7 6 -43 69 -55 69 -5 0 -9 -4 -9 -8z"/>
<path d="M11356 4008 c-14 -18 -23 -34 -20 -37 5 -6 64 50 64 61 0 17 -20 7
-44 -24z"/>
<path d="M1010 4015 c0 -3 37 -29 83 -58 160 -103 254 -130 122 -35 -84 60
-205 115 -205 93z"/>
<path d="M11685 3982 c-93 -49 -172 -108 -161 -120 11 -10 266 137 266 153 0
14 -42 1 -105 -33z"/>
<path d="M2055 3926 c10 -14 19 -26 22 -26 7 0 -17 39 -28 46 -6 3 -3 -5 6
-20z"/>
<path d="M8956 3935 c-9 -9 -16 -22 -16 -28 0 -6 10 -2 22 11 12 12 19 24 16
27 -3 3 -13 -1 -22 -10z"/>
<path d="M10743 3938 c-15 -20 -25 -38 -20 -38 3 0 12 11 21 25 17 26 16 35
-1 13z"/>
<path d="M281 3922 c58 -44 227 -137 235 -129 8 8 -90 75 -162 112 -75 38
-111 46 -73 17z"/>
<path d="M12446 3905 c-72 -37 -170 -104 -162 -112 8 -8 177 85 235 129 38 29
2 21 -73 -17z"/>
<path d="M2261 3890 c31 -40 63 -58 38 -20 -8 13 -26 31 -40 39 l-24 16 26
-35z"/>
<path d="M10518 3890 c-17 -17 -28 -33 -25 -36 8 -9 24 3 47 36 28 39 17 38
-22 0z"/>
<path d="M9344 3791 c-65 -43 -198 -165 -149 -135 33 20 153 108 200 148 46
39 14 31 -51 -13z"/>
<path d="M1485 3790 c7 -12 180 -141 220 -164 49 -29 -83 91 -149 135 -57 38
-83 49 -71 29z"/>
<path d="M11244 3761 c-66 -44 -198 -164 -149 -135 40 23 213 152 220 164 12
20 -14 9 -71 -29z"/>
<path d="M3980 3512 c0 -23 22 -102 31 -107 11 -8 -1 65 -17 95 -7 14 -13 19
-14 12z"/>
<path d="M9556 3405 c-3 -9 -6 -26 -5 -38 1 -14 4 -9 9 13 9 37 7 52 -4 25z"/>
<path d="M2958 3283 c27 -37 72 -79 72 -67 0 14 -69 94 -81 94 -6 0 -1 -12 9
-27z"/>
<path d="M9806 3268 c-20 -23 -36 -46 -36 -52 0 -12 45 30 72 67 30 42 4 32
-36 -15z"/>
<path d="M1722 3133 c15 -15 30 -24 33 -21 8 7 -35 48 -49 48 -6 0 2 -12 16
-27z"/>
<path d="M11061 3139 c-12 -12 -20 -24 -16 -27 3 -3 18 6 33 21 31 32 16 37
-17 6z"/>
<path d="M2060 3050 c-12 -8 -12 -10 5 -10 11 0 27 5 35 10 12 8 12 10 -5 10
-11 0 -27 -5 -35 -10z"/>
<path d="M2050 2956 c0 -2 7 -7 16 -10 8 -3 12 -2 9 4 -6 10 -25 14 -25 6z"/>
<path d="M1620 2316 c0 -2 8 -10 18 -17 15 -13 16 -12 3 4 -13 16 -21 21 -21
13z"/>
<path d="M11159 2303 c-13 -16 -12 -17 4 -4 16 13 21 21 13 21 -2 0 -10 -8
-17 -17z"/>
<path d="M1950 2126 c0 -2 9 -6 20 -9 11 -3 18 -1 14 4 -5 9 -34 13 -34 5z"/>
</g>
</svg>
