<?xml version="1.0" standalone="no"?>
<!DOCTYPE svg PUBLIC "-//W3C//DTD SVG 20010904//EN"
 "http://www.w3.org/TR/2001/REC-SVG-20010904/DTD/svg10.dtd">
<svg version="1.0" xmlns="http://www.w3.org/2000/svg"
 width="1280.000000pt" height="857.000000pt" viewBox="0 0 1280.000000 857.000000"
 preserveAspectRatio="xMidYMid meet">
<metadata>
Created by potrace 1.15, written by Peter Selinger 2001-2017
</metadata>
<g transform="translate(0.000000,857.000000) scale(0.100000,-0.100000)"
fill="#9e9e9e" stroke="none">
<path d="M7060 7219 c-148 -30 -256 -76 -421 -180 -145 -91 -247 -185 -335
-311 -56 -79 -114 -203 -114 -244 0 -12 -6 -24 -12 -26 -12 -4 -15 -219 -6
-402 l3 -58 -120 -65 c-66 -35 -137 -76 -158 -90 -35 -25 -97 -97 -97 -115 0
-4 84 -8 188 -8 167 -1 184 -2 162 -15 -23 -13 -24 -14 -4 -15 18 0 21 -5 18
-32 -2 -18 -6 -38 -8 -44 -2 -6 -1 -26 3 -45 6 -27 4 -39 -13 -58 -12 -13 -15
-21 -8 -17 6 4 12 3 12 -3 0 -5 -6 -12 -12 -15 -7 -4 -3 -4 10 -2 26 5 28 -2
5 -20 -13 -10 -14 -13 -4 -14 11 0 11 -4 -1 -22 -53 -86 -144 -368 -154 -478
-6 -75 -24 -178 -39 -220 -6 -19 -13 -59 -14 -89 -1 -30 -4 -58 -7 -62 -2 -4
0 -10 5 -14 6 -3 7 -15 2 -28 -5 -13 -5 -30 0 -39 6 -11 5 -19 -1 -23 -6 -4
-7 -13 -1 -23 4 -9 11 -63 15 -119 4 -56 13 -115 21 -131 8 -15 17 -46 19 -68
8 -74 43 -194 128 -434 34 -94 132 -279 187 -352 20 -25 54 -72 76 -104 50
-74 451 -477 525 -529 127 -90 393 -265 402 -265 5 0 53 -21 106 -46 53 -25
120 -55 147 -66 28 -11 57 -26 67 -35 15 -13 14 -18 -15 -60 -18 -24 -39 -55
-47 -67 -8 -12 -64 -90 -125 -174 -60 -83 -122 -169 -138 -191 -15 -21 -41
-44 -57 -50 -17 -5 -30 -15 -30 -21 0 -7 -13 -24 -28 -38 -16 -15 -33 -36 -39
-46 -10 -18 -14 -18 -43 -6 -31 13 -34 12 -52 -10 -11 -13 -22 -37 -25 -52 -3
-16 -9 -30 -13 -33 -17 -11 -140 -9 -152 3 -6 6 -28 12 -48 12 -26 0 -43 7
-60 25 -17 18 -34 25 -61 25 -33 0 -42 -6 -79 -52 -23 -29 -49 -70 -59 -91
-10 -24 -25 -40 -41 -45 -43 -12 -640 -7 -685 6 -22 6 -56 14 -75 17 -19 3
-48 10 -65 14 -31 9 -141 24 -280 39 -44 5 -96 5 -115 0 -81 -19 -348 -32
-685 -33 l-360 -1 -85 -29 c-75 -25 -105 -30 -250 -36 -91 -4 -300 -13 -465
-20 -165 -8 -372 -14 -460 -14 -153 1 -162 2 -215 28 -30 15 -75 43 -100 63
l-44 36 -96 -5 c-159 -8 -281 -27 -370 -57 -136 -45 -197 -58 -330 -70 -131
-12 -228 -23 -345 -42 -112 -17 -118 -18 -150 -28 -95 -29 -743 -43 -879 -19
-39 6 -99 27 -135 45 -104 52 -213 85 -276 83 l-55 -2 0 -284 0 -283 38 0 c20
0 53 -5 72 -11 200 -60 293 -69 733 -69 336 0 407 4 615 36 51 8 108 14 125
14 18 0 64 7 102 16 87 20 148 30 296 49 64 8 150 26 192 39 43 14 115 27 164
30 49 4 106 11 128 16 61 15 98 12 149 -10 120 -54 369 -63 636 -25 19 3 112
8 205 10 227 7 584 36 850 70 61 8 162 19 225 25 63 6 149 18 190 26 41 9 102
20 135 25 106 16 359 102 397 136 13 12 31 13 110 4 66 -8 109 -7 148 0 99 20
453 23 571 4 57 -9 151 -20 209 -25 58 -5 141 -14 185 -20 44 -7 127 -14 185
-15 58 -2 119 -6 135 -10 17 -3 48 -10 70 -14 39 -6 40 -7 37 -44 l-4 -37 46
0 c39 0 46 3 46 19 0 38 12 51 44 51 17 0 47 4 66 10 19 5 51 11 70 14 19 3
66 10 103 16 73 13 160 10 247 -8 30 -6 127 -20 215 -32 88 -12 196 -28 240
-36 44 -8 114 -14 155 -14 136 0 404 -21 456 -36 27 -8 99 -16 160 -18 82 -3
118 -8 144 -22 31 -17 63 -19 263 -22 l227 -3 0 -23 c0 -44 32 -69 86 -70 l49
-1 5 50 c5 50 5 50 40 50 33 0 35 -2 38 -35 5 -50 18 -62 61 -54 44 8 53 20
47 62 l-5 32 142 0 c121 0 155 -4 232 -25 83 -23 107 -25 310 -26 211 -1 296
4 340 21 11 4 60 8 109 9 49 1 93 4 98 7 17 11 151 44 177 44 25 0 145 86 196
140 43 45 86 60 175 60 56 0 106 8 186 31 120 35 169 56 198 88 18 19 29 21
175 20 176 -1 253 13 328 61 25 16 59 32 77 36 17 3 44 13 60 21 51 26 135 43
216 43 l80 0 0 176 0 175 -22 -7 c-35 -10 -96 -43 -103 -54 -3 -5 -19 -10 -35
-10 -15 0 -54 -14 -86 -31 -94 -50 -180 -79 -309 -106 -120 -25 -186 -26 -323
-7 -32 5 -48 2 -61 -10 -9 -8 -73 -30 -142 -47 -120 -31 -127 -32 -217 -20
-98 12 -141 3 -184 -36 -9 -8 -38 -19 -64 -24 -31 -6 -62 -22 -95 -49 -53 -45
-117 -82 -194 -111 -54 -21 -162 -26 -211 -10 -55 18 -439 32 -520 19 -22 -3
-65 0 -95 6 l-54 13 3 69 c2 38 7 83 11 101 10 37 -1 43 -85 43 -47 0 -55 -3
-87 -39 -23 -25 -37 -53 -42 -81 -5 -30 -18 -53 -47 -82 l-40 -40 -62 7 c-33
4 -72 8 -86 9 -19 1 -26 7 -28 26 -2 14 -7 37 -13 51 -6 14 -12 64 -15 110 -7
136 -10 152 -27 186 -21 40 -21 97 -2 325 8 96 14 225 14 286 0 118 12 161 52
182 16 9 26 8 45 -5 22 -14 25 -14 29 0 3 8 7 22 10 31 3 11 12 14 25 11 17
-4 19 -1 14 18 -3 13 -3 33 1 44 5 18 10 19 27 10 26 -14 38 -1 15 16 -15 11
-11 13 34 19 38 5 49 10 45 21 -3 8 0 17 6 21 7 4 6 9 -3 15 -11 6 -9 9 7 9
28 0 36 10 23 27 -9 10 -8 13 5 13 9 0 16 5 16 10 0 6 5 10 10 10 12 0 40 29
56 56 6 10 22 25 35 31 13 7 23 17 22 23 -2 5 3 10 11 10 8 0 18 9 21 20 3 11
16 25 28 31 12 7 26 18 30 25 4 8 15 14 22 14 8 0 15 8 15 18 0 25 28 62 56
72 13 5 24 16 24 24 0 7 7 16 15 20 8 3 15 16 15 30 0 13 4 26 9 28 6 2 15 26
21 53 7 28 16 64 22 80 6 17 13 51 17 76 9 60 39 106 87 133 39 21 75 77 115
181 l16 40 11 -35 c10 -33 10 -33 11 -7 1 29 27 38 37 12 4 -8 11 -15 16 -15
7 0 9 19 5 51 -4 29 -4 49 0 45 14 -13 34 35 28 65 -4 17 -8 40 -10 52 -1 12
-4 29 -6 37 -3 10 2 14 16 12 16 -2 17 -1 5 7 -8 5 -18 7 -22 5 -4 -3 -8 6 -8
20 0 14 -5 26 -11 26 -6 0 -9 9 -6 20 3 11 1 18 -3 15 -5 -3 -12 9 -15 27 -4
18 -11 38 -15 43 -4 6 -10 18 -13 28 -6 16 -5 16 18 1 14 -9 22 -20 19 -25 -3
-5 -1 -8 5 -7 12 3 71 -34 71 -44 0 -4 -6 -5 -14 -2 -8 3 -17 1 -21 -5 -3 -6
0 -11 8 -11 10 0 13 -7 11 -18 -3 -9 -1 -28 5 -42 9 -22 10 -19 10 22 1 49 19
66 59 54 9 -3 104 -8 209 -11 l193 -6 20 33 c25 40 21 84 -12 131 -25 35 -72
117 -90 157 -47 106 -74 152 -120 202 -31 33 -52 64 -50 73 2 10 -4 34 -13 54
-12 28 -14 43 -6 64 9 24 15 27 59 27 27 0 62 4 78 9 16 5 51 15 78 23 27 7
51 19 53 26 9 23 -28 52 -66 52 -29 1 -33 3 -19 11 18 10 209 15 225 6 14 -9
295 -11 321 -3 13 4 21 13 19 19 -5 15 -65 35 -106 36 -19 1 -53 10 -75 20
-109 51 -138 59 -286 85 -112 19 -290 34 -474 40 -124 4 -151 8 -169 23 -11
10 -17 12 -12 4 5 -8 -3 -7 -21 5 -16 10 -30 19 -32 20 -2 1 -5 14 -8 30 -9
47 -65 96 -206 175 -29 17 -43 27 -30 24 36 -10 27 16 -20 61 -73 68 -120 99
-243 163 -66 34 -131 75 -145 90 -14 15 -40 38 -58 50 -43 30 -34 40 11 12 19
-11 39 -21 46 -21 19 0 12 30 -12 53 -41 40 -96 113 -111 148 -8 19 -34 55
-58 80 -24 26 -55 63 -70 84 -15 20 -75 73 -135 117 -59 44 -124 95 -143 113
-19 17 -69 58 -110 89 -41 31 -104 81 -140 111 -133 113 -317 200 -506 239
-40 8 -91 24 -115 35 -23 12 -48 21 -54 21 -6 0 -29 8 -51 19 -21 10 -56 26
-77 36 -21 10 -42 26 -48 36 -5 11 -16 19 -23 19 -8 0 -19 7 -26 15 -7 8 -23
15 -36 15 -14 0 -64 20 -112 44 -123 61 -411 146 -497 146 -23 0 -66 4 -96 9
-71 13 -295 19 -339 10z m2375 -4817 c5 -13 8 -14 15 -3 4 8 15 11 24 8 20 -8
20 -14 1 -297 -16 -234 -34 -323 -67 -341 -10 -5 -18 -14 -18 -18 0 -5 -16
-35 -35 -67 -21 -34 -35 -71 -35 -90 0 -28 -6 -35 -43 -53 -24 -12 -60 -21
-81 -21 -29 0 -48 -8 -78 -34 -34 -29 -44 -33 -65 -25 -13 5 -44 9 -69 9 -39
0 -47 -4 -62 -29 -16 -29 -19 -30 -117 -36 -71 -5 -141 -1 -240 11 -77 10
-151 17 -165 16 -14 -1 -142 -6 -285 -11 -143 -5 -274 -12 -292 -16 -18 -4
-46 -2 -64 4 -17 6 -67 14 -111 17 -86 8 -108 23 -108 74 0 14 -7 36 -16 49
-14 20 -23 22 -68 19 -44 -3 -54 0 -73 22 -12 14 -23 28 -23 32 0 4 31 54 68
110 73 110 272 408 310 464 27 40 42 42 113 10 77 -35 109 -42 109 -23 0 8
-13 20 -30 27 -16 7 -30 19 -30 26 0 12 5 11 25 -2 24 -16 27 -16 39 1 12 17
15 17 49 -9 19 -15 43 -38 51 -52 18 -26 36 -32 36 -11 0 6 12 20 26 30 22 16
30 17 54 7 16 -7 44 -14 62 -15 18 -2 57 -8 87 -14 29 -6 82 -11 117 -11 34 0
64 -4 66 -9 4 -10 88 -22 88 -12 0 4 8 7 18 8 9 1 29 5 45 9 17 4 27 2 27 -5
0 -6 7 -11 15 -11 8 0 15 5 15 10 0 6 11 3 25 -6 24 -16 25 -16 25 6 0 22 1
23 20 5 18 -17 20 -17 20 -1 0 13 4 15 19 6 27 -14 31 -13 24 6 -5 14 -3 15
15 5 29 -16 34 -14 27 10 -7 20 -5 21 28 15 20 -4 44 -2 54 3 10 5 39 15 65
22 26 7 45 16 42 20 -2 4 10 9 28 11 18 2 34 9 34 16 1 6 3 15 4 20 1 4 3 14
4 22 1 17 36 28 94 29 29 1 48 7 59 21 13 14 20 17 30 8 16 -13 43 6 43 32 0
32 43 34 55 2z"/>
</g>
</svg>
