<?xml version="1.0" standalone="no"?>
<!DOCTYPE svg PUBLIC "-//W3C//DTD SVG 20010904//EN"
 "http://www.w3.org/TR/2001/REC-SVG-20010904/DTD/svg10.dtd">
<svg version="1.0" xmlns="http://www.w3.org/2000/svg"
 width="1280.000000pt" height="640.000000pt" viewBox="0 0 1280.000000 640.000000"
 preserveAspectRatio="xMidYMid meet">
<metadata>
Created by potrace 1.15, written by Peter Selinger 2001-2017
</metadata>
<g transform="translate(0.000000,640.000000) scale(0.100000,-0.100000)"
fill="#9e9e9e" stroke="none">
<path d="M1295 4980 c-38 -5 -117 -14 -175 -20 -343 -38 -579 -129 -750 -286
-67 -63 -192 -239 -248 -349 -128 -257 -153 -554 -80 -960 24 -137 27 -302 10
-603 -19 -332 7 -468 139 -739 100 -205 303 -332 707 -443 142 -39 149 -40
309 -40 348 0 542 60 699 215 95 95 118 127 214 305 81 151 113 200 161 248
104 106 224 94 362 -35 84 -77 148 -123 326 -230 86 -53 163 -102 172 -109 20
-18 241 -102 391 -148 321 -100 503 -123 1188 -147 168 -5 420 -14 560 -19
140 -5 293 -14 339 -19 47 -6 202 -10 346 -10 144 0 289 -2 321 -5 101 -10
837 -35 1364 -46 278 -6 753 -17 1055 -25 303 -8 750 -19 995 -25 1068 -25
2115 -55 2454 -70 222 -10 274 -5 352 32 98 45 182 149 210 260 37 143 -20
260 -157 322 -105 48 -401 79 -869 91 -296 7 -542 22 -690 40 -63 7 -176 16
-250 20 -74 3 -308 19 -520 35 -212 16 -549 39 -750 50 -201 11 -455 29 -565
39 -239 23 -313 28 -825 46 -259 9 -422 20 -474 30 -120 23 -416 61 -666 85
-124 12 -328 33 -455 46 -126 14 -311 34 -410 44 -574 61 -947 119 -1570 246
-182 36 -285 62 -315 78 -25 13 -117 50 -205 81 -88 31 -193 73 -233 92 -91
43 -163 111 -187 176 -18 47 -18 50 0 83 27 50 110 131 185 179 125 82 244
122 552 190 112 24 244 53 293 64 140 31 294 50 542 65 125 8 320 21 433 28
275 17 543 16 845 -5 239 -16 1429 -41 2050 -42 138 -1 585 -6 995 -13 410 -7
1085 -17 1500 -23 415 -6 879 -13 1030 -16 291 -5 428 3 583 37 103 23 108 27
170 149 38 76 42 92 42 155 0 117 -53 187 -190 252 -173 83 -465 115 -675 74
-44 -9 -805 18 -1141 40 -85 5 -329 14 -544 20 -214 6 -552 17 -750 25 -384
16 -743 28 -1315 45 -195 6 -425 15 -510 21 -85 6 -265 12 -400 15 -135 2
-270 8 -300 14 -122 21 -283 31 -650 40 -212 5 -439 15 -505 21 -195 19 -780
-1 -1230 -41 -452 -41 -926 -119 -1324 -220 -66 -16 -135 -30 -153 -30 -55 0
-145 -28 -268 -82 -63 -28 -154 -68 -201 -89 -118 -52 -195 -67 -257 -50 -66
17 -86 40 -111 129 -28 95 -101 243 -158 319 -212 285 -515 430 -818 393z
m-310 -120 c3 -5 -1 -10 -9 -10 -9 0 -16 5 -16 10 0 6 4 10 9 10 6 0 13 -4 16
-10z m687 -56 c125 -39 228 -120 228 -179 0 -9 -13 -30 -29 -46 -56 -56 -109
-32 -207 94 -32 40 -78 94 -103 120 l-46 48 40 -7 c22 -3 74 -17 117 -30z
m-598 -32 c8 -26 20 -76 27 -112 16 -84 16 -306 1 -343 -11 -25 -16 -28 -49
-25 l-38 3 -1 175 c-1 169 9 330 21 350 11 17 23 2 39 -48z m-119 -15 c34
-110 31 -310 -7 -434 -17 -58 -40 -37 -63 58 -19 81 -19 208 -1 322 22 131 43
147 71 54z m355 33 c27 -27 46 -77 66 -168 19 -91 23 -400 6 -444 -12 -30 -58
-58 -94 -58 -83 0 -134 130 -145 371 -8 185 -2 216 51 273 48 52 83 59 116 26z
m-475 -123 c25 -89 26 -266 2 -329 -16 -42 -22 -48 -48 -48 -38 0 -39 7 -36
235 3 209 12 252 47 220 10 -9 26 -44 35 -78z m-158 14 c19 -65 35 -276 28
-357 -8 -80 -26 -108 -66 -102 -32 4 -40 41 -38 188 2 181 26 326 52 317 6 -2
17 -23 24 -46z m910 -3 c-3 -8 -6 -5 -6 6 -1 11 2 17 5 13 3 -3 4 -12 1 -19z
m-90 -78 c22 -101 35 -340 29 -525 -4 -99 -3 -202 2 -230 l8 -50 8 75 c7 63 8
248 3 582 -1 88 30 110 91 64 135 -99 223 -368 151 -460 -15 -19 -19 -40 -19
-98 0 -126 -19 -154 -44 -65 -30 103 -49 244 -50 374 0 73 -4 133 -9 133 -21
0 -29 -62 -22 -189 4 -73 7 -179 6 -235 -1 -181 -51 -285 -152 -315 -63 -19
-71 -6 -80 134 -4 63 -12 122 -19 129 -8 11 -7 49 6 163 9 81 18 218 19 303 3
137 14 235 31 262 13 20 30 -2 41 -52z m-975 3 c31 -36 43 -96 42 -218 -1
-205 -45 -329 -152 -424 -80 -71 -96 -97 -120 -197 -41 -161 -117 -306 -155
-291 -9 3 -24 32 -34 64 -25 81 -26 449 -1 503 l16 35 16 -37 c11 -25 16 -66
16 -127 0 -90 5 -121 20 -121 21 0 30 75 30 246 0 190 9 246 35 224 7 -6 17
-25 20 -41 4 -17 8 -29 10 -27 2 2 11 47 19 101 17 102 38 167 55 167 15 0 30
-57 50 -199 11 -73 22 -135 25 -138 9 -9 15 38 31 232 20 244 23 265 45 265 9
0 24 -8 32 -17z m4953 -13 c3 -5 1 -10 -4 -10 -6 0 -11 5 -11 10 0 6 2 10 4
10 3 0 8 -4 11 -10z m-3472 -56 c3 -3 1 -16 -5 -29 -10 -23 -64 -45 -108 -45
-23 0 -23 0 -4 21 20 22 81 58 100 59 6 0 13 -3 17 -6z m4577 -44 c203 -19
434 -30 927 -45 274 -8 640 -22 813 -30 173 -9 511 -18 750 -20 394 -5 734
-17 1200 -45 91 -6 329 -10 530 -11 201 0 417 -5 480 -10 63 -6 333 -14 600
-18 532 -8 556 -11 619 -70 41 -38 42 -93 4 -163 -30 -56 -25 -60 -56 47 -12
41 -16 46 -22 30 -35 -92 -55 -125 -80 -131 -14 -3 -28 -4 -32 -1 -3 3 -8 35
-10 71 -3 36 -8 66 -12 66 -3 0 -14 -20 -24 -45 -11 -25 -33 -57 -50 -71 l-32
-27 -9 44 c-16 83 -27 121 -34 114 -4 -3 -18 -34 -32 -67 -45 -109 -81 -107
-99 7 -7 43 -16 73 -21 69 -4 -5 -15 -33 -25 -63 -20 -63 -63 -113 -75 -90 -4
8 -11 39 -14 69 -10 81 -22 94 -41 45 -28 -74 -50 -110 -68 -113 -31 -6 -47
17 -48 72 0 28 -4 60 -9 71 -7 18 -9 18 -19 -10 -36 -93 -57 -139 -69 -143
-17 -5 -38 50 -47 121 -4 31 -11 57 -15 57 -4 0 -11 -20 -15 -45 -12 -85 -48
-144 -79 -132 -15 6 -21 27 -31 115 -4 28 -10 52 -14 52 -4 0 -15 -25 -25 -55
-9 -30 -28 -67 -40 -82 -21 -24 -27 -26 -48 -16 -18 8 -30 8 -48 -2 -40 -21
-60 -7 -97 71 -47 98 -53 97 -82 -9 -10 -37 -22 -62 -30 -62 -8 0 -26 32 -42
75 -16 41 -36 81 -44 89 -13 14 -15 10 -15 -36 0 -29 -5 -64 -10 -78 -13 -34
-24 -26 -77 56 -21 32 -41 59 -45 59 -5 0 -8 -20 -8 -44 0 -50 -14 -96 -30
-96 -6 0 -25 24 -44 53 -18 28 -43 61 -55 71 l-21 19 -1 -49 c-2 -64 -11 -106
-25 -111 -6 -2 -33 35 -59 82 -26 47 -52 85 -56 85 -5 0 -9 -24 -9 -53 0 -32
-6 -61 -15 -73 -15 -19 -15 -18 -37 7 -13 14 -39 49 -59 78 l-37 53 -7 -69
c-4 -38 -11 -76 -16 -84 -11 -17 -26 -1 -79 88 -32 54 -35 56 -41 33 -4 -14
-7 -44 -8 -66 -1 -23 -7 -47 -14 -53 -16 -13 -45 15 -101 98 l-36 53 -1 -53
c-1 -63 -10 -101 -25 -106 -7 -2 -33 30 -58 72 -26 41 -52 73 -57 70 -5 -4 -9
-27 -9 -53 0 -54 -9 -92 -20 -92 -5 0 -18 25 -29 56 -31 81 -50 114 -66 114
-14 0 -35 -57 -35 -97 0 -12 -5 -34 -11 -50 -10 -27 -11 -28 -26 -8 -8 11 -30
50 -49 88 -47 91 -55 89 -69 -18 -6 -52 -23 -88 -31 -70 -30 68 -82 160 -91
163 -9 2 -13 -8 -13 -32 0 -19 -5 -58 -11 -86 -16 -73 -36 -64 -74 32 -16 42
-33 80 -37 84 -5 4 -8 -28 -8 -72 0 -74 -11 -117 -25 -102 -3 3 -27 45 -53 94
-26 48 -52 89 -59 92 -13 4 -14 -1 -33 -101 -7 -33 -16 -57 -22 -55 -6 2 -23
38 -37 79 -21 59 -30 74 -46 74 -16 0 -21 -9 -28 -50 -15 -94 -22 -118 -35
-123 -15 -5 -59 87 -68 141 -4 20 -10 37 -13 37 -4 0 -17 -31 -29 -68 -12 -37
-29 -77 -37 -87 -15 -20 -15 -20 -30 -1 -8 10 -20 52 -27 92 -6 41 -14 74 -17
74 -4 0 -21 -37 -40 -81 -47 -111 -73 -117 -86 -19 -15 108 -15 109 -36 51
-53 -152 -91 -152 -122 1 l-13 63 -19 -100 c-14 -77 -16 -111 -8 -148 8 -38 7
-50 -5 -59 -17 -15 -42 -1 -59 33 -7 13 -19 23 -28 21 -17 -3 -21 14 -4 20 9
3 9 17 0 56 -6 29 -11 76 -12 105 -1 51 -1 51 -10 17 -20 -73 -41 -120 -55
-120 -8 0 -38 37 -67 82 l-52 83 -10 -79 c-5 -44 -15 -81 -21 -83 -5 -2 -30
38 -53 88 -46 96 -60 102 -61 24 0 -48 -17 -112 -31 -121 -15 -9 -34 22 -63
106 -30 83 -42 107 -51 98 -3 -3 -13 -48 -21 -99 -25 -152 -34 -152 -84 4 -17
53 -35 97 -40 97 -6 0 -10 -3 -10 -7 0 -25 -20 -178 -25 -194 -11 -33 -23 -12
-55 91 -38 123 -47 127 -65 30 -12 -66 -37 -130 -50 -130 -15 0 -26 26 -57
135 l-23 80 -8 -65 c-9 -70 -33 -123 -59 -128 -23 -4 -44 41 -53 113 l-7 60
-34 -71 c-18 -38 -42 -78 -53 -88 -19 -17 -20 -17 -31 4 -7 13 -14 58 -17 101
-3 43 -9 76 -14 73 -4 -2 -27 -38 -50 -80 -22 -41 -51 -87 -63 -101 l-22 -25
0 78 c1 84 -10 143 -23 128 -5 -5 -16 -41 -26 -81 -19 -82 -35 -109 -58 -100
-12 4 -17 28 -23 97 -3 50 -9 89 -11 86 -3 -3 -12 -40 -20 -82 -15 -79 -36
-134 -53 -134 -22 0 -50 54 -51 99 0 64 -12 126 -24 125 -6 0 -22 -41 -37 -91
-15 -51 -32 -102 -39 -114 -10 -20 -12 -21 -21 -5 -5 9 -16 62 -25 117 -9 55
-19 97 -23 92 -4 -4 -15 -41 -25 -81 -9 -40 -25 -82 -35 -94 -17 -21 -18 -21
-44 -5 -22 15 -26 25 -27 65 -2 62 -12 107 -24 105 -5 -1 -19 -30 -31 -65 -12
-35 -30 -79 -40 -98 l-19 -35 -5 55 c-6 70 -39 123 -96 156 -79 46 -133 55
-319 52 -93 -1 -287 2 -430 6 -353 11 -694 -6 -1170 -59 -192 -22 -346 -53
-720 -145 -176 -44 -372 -90 -435 -104 -154 -32 -224 -60 -271 -107 -52 -52
-65 -103 -50 -192 13 -81 14 -226 1 -247 -25 -40 -84 85 -96 207 l-7 62 -24
-50 c-33 -65 -57 -78 -79 -44 -9 14 -19 45 -22 70 -2 25 -6 45 -8 45 -2 0 -14
-11 -27 -24 -31 -31 -71 -42 -245 -66 -199 -28 -263 -50 -324 -111 -27 -27
-60 -52 -73 -55 -32 -8 -79 -62 -96 -111 -9 -25 -14 -85 -14 -173 0 -214 22
-667 34 -687 8 -13 10 10 11 92 0 107 13 258 26 297 8 26 32 19 58 -15 19 -25
21 -42 21 -150 1 -124 16 -202 38 -194 16 5 24 48 26 131 l1 70 30 -29 c17
-16 40 -48 51 -72 45 -92 -1 -155 -195 -267 -194 -114 -223 -139 -317 -277
-86 -127 -227 -284 -308 -343 -68 -50 -176 -102 -261 -125 -41 -11 -92 -26
-113 -32 -106 -35 -188 99 -188 307 0 140 30 224 80 224 16 0 19 -14 24 -152
6 -151 22 -268 38 -268 11 0 17 60 24 228 8 201 26 239 64 137 12 -31 22 -68
22 -83 1 -20 4 -15 11 18 22 95 40 150 58 172 l19 23 14 -35 c18 -42 37 -166
38 -253 2 -75 11 -122 24 -122 23 0 35 123 32 337 -2 196 0 219 16 235 13 13
21 15 34 7 30 -19 44 -83 43 -199 -1 -139 10 -289 21 -278 13 13 30 300 29
500 0 185 13 300 38 325 17 17 21 -15 37 -322 9 -157 19 -301 23 -320 l8 -35
8 30 c4 17 7 318 7 669 -2 639 -1 640 19 621 30 -27 59 -115 70 -213 6 -52 7
-223 3 -432 -6 -329 -1 -466 16 -455 12 7 38 112 45 181 4 34 -3 193 -15 355
-22 311 -21 443 6 557 22 95 59 164 97 186 463 261 931 455 1414 586 82 22
187 51 233 65 46 14 101 25 123 25 22 0 66 7 99 15 181 47 545 111 789 139
229 27 362 35 720 46 190 6 386 12 435 14 169 6 950 -4 1055 -14z m-2670 -62
c0 -10 -4 -18 -10 -18 -5 0 -10 15 -10 33 0 24 3 28 10 17 5 -8 10 -23 10 -32z
m1598 -149 c4 -69 -16 -166 -36 -174 -43 -16 -76 29 -65 87 12 64 65 152 87
145 6 -2 12 -28 14 -58z m460 21 c2 -19 -2 -65 -9 -102 l-12 -68 -37 0 c-20 0
-41 5 -48 12 -28 28 -7 107 43 166 35 42 59 39 63 -8z m-760 -30 c27 -41 28
-81 1 -139 l-20 -45 -20 33 c-27 44 -59 127 -59 151 0 10 7 25 15 34 21 21 54
7 83 -34z m603 23 c12 -31 5 -124 -12 -155 -9 -17 -13 -18 -32 -5 -36 23 -58
77 -47 116 20 70 71 94 91 44z m307 -13 c1 -19 -6 -66 -15 -105 -15 -60 -21
-70 -38 -67 -70 12 -73 119 -5 190 31 32 54 25 58 -18z m-1199 4 c15 -19 21
-41 21 -80 0 -54 -19 -154 -29 -154 -3 0 -21 23 -40 51 -27 39 -36 62 -39 108
-4 50 -1 62 17 80 28 28 45 27 70 -5z m152 -6 c47 -76 -9 -228 -70 -189 -20
13 -22 181 -2 204 21 26 49 20 72 -15z m1185 6 c8 -31 -3 -145 -14 -156 -13
-13 -59 8 -72 33 -15 26 -6 73 20 117 24 40 57 43 66 6z m-902 0 c16 -41 -1
-156 -28 -182 -13 -14 -18 -12 -45 17 -41 44 -43 105 -5 150 28 34 68 41 78
15z m309 -25 c10 -20 20 -66 24 -103 5 -57 4 -66 -12 -72 -60 -24 -123 131
-79 194 22 31 45 24 67 -19z m-887 10 c15 -17 19 -35 17 -88 -1 -36 -7 -83
-15 -105 l-14 -38 -28 36 c-36 48 -56 98 -56 142 0 67 56 97 96 53z m-315 -56
c18 -84 16 -162 -5 -202 -29 -55 -41 -26 -40 97 0 165 21 213 45 105z m143 27
c30 -36 41 -85 32 -143 -9 -55 -31 -87 -60 -87 -42 0 -48 20 -50 171 -1 88 32
113 78 59z m-298 -25 c34 -23 54 -77 54 -142 0 -63 -28 -139 -55 -149 -26 -10
-55 24 -54 65 0 20 -4 60 -9 89 -14 79 4 151 38 152 3 0 15 -7 26 -15z m-3601
-49 c8 -23 6 -30 -10 -42 -22 -16 -55 -19 -55 -4 0 6 7 27 15 46 17 41 35 41
50 0z m1249 -7 c-8 -13 -24 -1 -24 18 0 13 3 13 15 3 8 -7 12 -16 9 -21z
m2243 -27 c18 -44 19 -144 2 -201 -14 -48 -39 -67 -68 -52 -16 9 -20 27 -26
123 -7 113 1 163 28 180 18 11 48 -11 64 -50z m-174 10 c51 -57 64 -194 25
-272 -18 -35 -28 -45 -48 -45 -22 0 -26 5 -33 55 -12 79 -4 244 12 264 17 20
24 20 44 -2z m-2848 -2 c3 -5 1 -10 -4 -10 -6 0 -11 5 -11 10 0 6 2 10 4 10 3
0 8 -4 11 -10z m2715 -29 c32 -64 46 -168 31 -236 -14 -63 -58 -122 -83 -113
-29 12 -31 332 -3 379 13 20 36 7 55 -30z m2110 18 c0 -5 -4 -9 -10 -9 -5 0
-10 7 -10 16 0 8 5 12 10 9 6 -3 10 -10 10 -16z m-2262 -26 c34 -84 39 -269
12 -365 -13 -45 -45 -67 -66 -46 -10 10 -14 51 -15 163 0 83 2 164 6 180 22
99 43 120 63 68z m-1866 -65 c11 -66 6 -120 -12 -148 -19 -28 -30 11 -30 107
0 143 21 164 42 41z m1713 5 c30 -64 49 -207 38 -283 -14 -92 -38 -140 -69
-140 -42 0 -48 43 -45 320 1 126 40 179 76 103z m2555 27 c0 -5 -7 -10 -16
-10 -8 0 -12 5 -9 10 3 6 10 10 16 10 5 0 9 -4 9 -10z m1615 -30 c-4 -17 -9
-29 -12 -26 -3 2 -2 19 2 36 4 17 9 29 12 26 3 -2 2 -19 -2 -36z m-904 6 c-7
-8 -19 -12 -28 -9 -12 5 -11 9 8 19 28 15 37 10 20 -10z m-3434 -8 c33 -37 43
-63 53 -145 7 -53 7 -110 0 -178 -11 -97 -42 -240 -55 -253 -13 -13 -44 39
-51 86 -4 26 -2 124 4 217 7 94 12 198 12 233 0 34 4 62 8 62 5 0 18 -10 29
-22z m3120 -3 c-4 -8 -11 -15 -17 -15 -7 0 -7 6 0 21 13 23 26 19 17 -6z
m-692 -5 c-3 -5 -10 -10 -16 -10 -5 0 -9 5 -9 10 0 6 7 10 16 10 8 0 12 -4 9
-10z m6715 -11 c0 -5 -4 -9 -10 -9 -5 0 -10 7 -10 16 0 8 5 12 10 9 6 -3 10
-10 10 -16z m-4970 -19 c0 -11 -4 -20 -10 -20 -5 0 -10 9 -10 20 0 11 5 20 10
20 6 0 10 -9 10 -20z m-1790 0 c0 -5 -4 -10 -10 -10 -5 0 -10 5 -10 10 0 6 5
10 10 10 6 0 10 -4 10 -10z m1130 0 c0 -5 -4 -10 -10 -10 -5 0 -10 5 -10 10 0
6 5 10 10 10 6 0 10 -4 10 -10z m-5793 -21 c130 -63 215 -270 238 -579 16
-216 -47 -524 -151 -734 -32 -64 -43 -77 -75 -90 -96 -39 -188 -25 -271 38
-133 102 -244 363 -278 658 l-11 97 80 158 c147 290 230 406 324 452 53 26 89
26 144 0z m2151 -34 c44 -134 56 -454 19 -540 -20 -46 -47 -68 -68 -54 -24 15
-18 590 7 630 11 18 29 3 42 -36z m-138 -42 c0 -38 9 -160 20 -273 37 -381 21
-560 -67 -735 -25 -48 -112 -165 -124 -165 -18 0 -46 155 -55 306 -5 96 13
833 22 842 11 13 45 -16 61 -51 16 -38 18 -76 19 -432 0 -214 4 -408 8 -430 7
-35 9 -37 19 -20 17 31 36 144 37 220 0 38 -7 155 -16 260 -9 107 -14 239 -11
303 4 101 8 119 36 177 18 36 36 65 42 65 5 0 9 -30 9 -67z m8433 46 c-4 -13
-9 -17 -15 -11 -11 11 -3 32 12 32 4 0 6 -9 3 -21z m-2873 -9 c0 -5 -4 -10
-10 -10 -5 0 -10 5 -10 10 0 6 5 10 10 10 6 0 10 -4 10 -10z m-4120 -10 c0 -5
-4 -10 -10 -10 -5 0 -10 5 -10 10 0 6 5 10 10 10 6 0 10 -4 10 -10z m1315 1
c3 -5 1 -12 -5 -16 -5 -3 -10 1 -10 9 0 18 6 21 15 7z m492 -7 c11 -28 -22
-43 -67 -32 -41 11 -53 33 -22 41 41 11 83 7 89 -9z m1133 -2 c29 -24 20 -39
-31 -52 -69 -19 -93 9 -43 49 33 26 45 26 74 3z m869 -9 c10 -23 9 -29 -7 -46
-34 -33 -57 6 -32 54 14 26 25 24 39 -8z m-2189 9 c0 -10 -45 -32 -65 -32 -25
0 -27 20 -3 29 29 12 68 14 68 3z m2060 -5 c0 -13 -39 -41 -47 -34 -2 3 2 14
9 26 14 23 38 28 38 8z m-2423 -3 c-3 -3 -12 -4 -19 -1 -8 3 -5 6 6 6 11 1 17
-2 13 -5z m1353 -5 c28 -6 49 -13 47 -15 -9 -10 -182 -25 -213 -19 -46 8 -43
22 9 33 59 14 98 14 157 1z m4827 -8 c3 -12 11 -17 19 -14 21 8 104 -26 104
-42 0 -8 -16 -16 -37 -19 -21 -3 -355 -6 -743 -5 -648 1 -852 7 -873 28 -12
12 372 21 849 21 231 0 476 3 543 7 112 6 121 8 116 25 -4 10 -1 18 5 18 7 0
14 -9 17 -19z m-5137 0 c0 -12 -66 -24 -90 -16 -38 12 -20 25 35 25 30 0 55
-4 55 -9z m843 -5 c15 -4 25 -11 22 -16 -9 -15 -61 -12 -74 3 -12 15 -5 28 12
22 7 -2 25 -6 40 -9z m1587 -31 c-8 -10 -30 -15 -68 -15 -67 0 -60 16 15 35
52 14 74 6 53 -20z m3308 23 c7 -7 12 -15 12 -20 0 -7 -81 -58 -93 -58 -17 0
-4 34 22 61 33 32 41 35 59 17z m-7013 -17 c3 -5 1 -12 -5 -16 -5 -3 -10 1
-10 9 0 18 6 21 15 7z m3460 -9 c16 -9 -20 -11 -167 -12 -111 0 -188 4 -188 9
0 15 53 19 200 17 80 -1 143 -7 155 -14z m478 -2 c11 -10 -68 -24 -84 -14 -9
5 -7 11 7 21 19 14 60 10 77 -7z m612 2 l30 -9 -40 -6 c-54 -9 -389 -7 -445 2
l-45 8 35 6 c19 4 51 9 70 11 57 7 363 -2 395 -12z m202 7 l28 -12 -25 -7
c-36 -11 -120 -12 -120 -1 0 10 45 29 72 30 9 1 29 -4 45 -10z m-5627 -9 c0
-5 -4 -10 -10 -10 -5 0 -10 5 -10 10 0 6 5 10 10 10 6 0 10 -4 10 -10z m3880
6 c0 -3 -4 -8 -10 -11 -5 -3 -10 -1 -10 4 0 6 5 11 10 11 6 0 10 -2 10 -4z
m-4012 -34 c2 -7 -3 -12 -12 -12 -9 0 -16 7 -16 16 0 17 22 14 28 -4z m-3947
-35 c-13 -13 -15 1 -4 30 7 17 8 17 11 -1 2 -10 -1 -23 -7 -29z m-175 5 c-18
-16 -18 -16 -6 6 6 13 14 21 18 18 3 -4 -2 -14 -12 -24z m2013 -151 c187 -58
324 -286 309 -516 -4 -67 -3 -74 15 -79 25 -6 18 -26 -20 -52 -45 -30 -397
-184 -422 -184 -49 0 -214 51 -255 80 -160 109 -212 342 -121 538 27 58 112
150 164 176 47 25 168 55 223 55 25 1 73 -7 107 -18z m-1999 -50 c17 -33 12
-51 -15 -51 -21 0 -25 5 -25 28 0 45 21 57 40 23z m-325 -190 c3 -5 1 -12 -5
-16 -5 -3 -10 1 -10 9 0 18 6 21 15 7z m305 -46 c0 -13 -29 -29 -37 -21 -3 2
0 14 7 25 11 22 30 20 30 -4z m2952 -10 c-4 -25 -16 -32 -26 -16 -9 13 4 41
19 41 8 0 10 -9 7 -25z m-3054 -119 c90 -32 202 -133 248 -223 27 -54 29 -65
26 -161 -2 -85 1 -109 17 -140 27 -53 99 -116 231 -204 159 -104 173 -141 73
-189 -37 -18 -65 -23 -123 -24 -92 0 -151 24 -212 88 -63 66 -99 132 -187 345
-44 106 -92 214 -107 240 -87 149 -111 227 -79 262 21 24 57 25 113 6z m2988
-190 c-20 -115 -68 -234 -118 -291 -38 -43 -89 -75 -118 -75 -23 0 -7 44 46
120 72 105 104 167 104 199 0 29 43 127 68 154 15 17 16 17 24 -4 5 -13 3 -55
-6 -103z m-3136 -19 c19 -88 22 -232 12 -462 -10 -214 -15 -255 -32 -255 -33
0 -90 361 -76 480 4 30 16 102 27 160 31 156 48 175 69 77z m3390 -32 c30 -8
150 -62 265 -120 156 -78 225 -107 270 -114 33 -6 130 -26 215 -45 218 -50
562 -106 1010 -166 430 -57 675 -92 1048 -151 139 -22 317 -44 395 -49 166
-12 336 -26 462 -40 159 -17 464 -39 695 -50 124 -6 342 -22 485 -36 413 -39
475 -43 750 -54 143 -5 269 -12 280 -15 29 -7 399 -33 720 -50 154 -8 368 -22
475 -30 107 -8 323 -22 479 -30 156 -9 314 -20 350 -25 36 -5 108 -10 159 -10
52 0 193 -12 315 -26 122 -14 277 -31 344 -38 161 -17 187 -39 121 -104 -61
-58 -156 -83 -229 -58 -31 11 -140 20 -349 31 -167 9 -309 19 -314 23 -6 3
-135 9 -286 12 -255 5 -278 7 -315 26 -33 17 -45 19 -65 10 -15 -6 -102 -11
-215 -11 -104 -1 -210 -5 -236 -9 -34 -6 -63 -3 -120 13 -95 26 -129 26 -163
0 -15 -12 -28 -20 -29 -18 -1 2 -9 17 -17 34 -22 42 -44 42 -91 1 -47 -40 -64
-38 -79 10 l-12 34 -22 -32 c-29 -44 -49 -45 -95 -9 -47 38 -68 39 -83 6 -14
-31 -26 -31 -72 0 -48 32 -60 32 -87 -7 l-23 -31 -18 41 c-24 58 -40 61 -90
17 l-41 -38 -19 23 c-10 12 -18 31 -18 41 0 30 -15 22 -28 -15 -18 -49 -42
-53 -95 -15 -51 35 -62 33 -84 -19 l-15 -35 -22 39 c-28 51 -56 55 -103 13
l-37 -32 -23 27 c-13 15 -23 34 -23 42 0 24 -14 15 -30 -19 -23 -49 -50 -46
-98 8 -23 26 -46 44 -52 40 -5 -3 -13 -24 -16 -46 -4 -21 -8 -39 -11 -39 -16
0 -64 34 -81 57 -17 24 -22 26 -37 13 -9 -7 -24 -29 -34 -48 l-18 -35 -15 43
c-22 68 -42 73 -87 23 -20 -24 -42 -43 -49 -43 -13 0 -42 51 -42 75 0 21 -17
19 -25 -4 -10 -32 -45 -71 -64 -71 -10 0 -31 18 -46 40 -34 49 -54 48 -79 -4
l-20 -40 -11 39 c-14 53 -34 55 -102 8 l-55 -38 -19 24 c-10 13 -19 36 -19 52
0 16 -4 29 -10 29 -5 0 -10 -7 -10 -15 0 -21 -28 -75 -39 -75 -5 0 -29 21 -54
46 l-44 47 -22 -22 c-12 -12 -24 -35 -28 -51 -3 -17 -8 -30 -12 -30 -3 0 -19
23 -34 50 -16 28 -32 50 -36 50 -5 0 -14 -14 -21 -31 -13 -31 -38 -52 -77 -64
-22 -6 -23 -4 -23 54 0 33 -4 62 -9 66 -6 3 -28 -19 -50 -49 -22 -30 -45 -57
-50 -60 -15 -9 -28 16 -36 69 -7 45 -8 48 -17 25 -14 -37 -59 -80 -84 -80 -28
0 -39 14 -57 75 -9 28 -16 40 -16 28 -1 -35 -32 -103 -46 -103 -22 0 -46 30
-75 93 l-28 58 -7 -43 c-10 -67 -25 -108 -40 -108 -7 0 -30 25 -51 55 -46 68
-65 68 -81 1 -7 -27 -14 -51 -17 -54 -10 -9 -45 30 -58 64 -7 19 -15 34 -19
34 -5 0 -20 -22 -36 -50 -15 -27 -31 -50 -34 -50 -3 0 -16 23 -29 51 -13 28
-27 52 -32 55 -4 3 -14 -9 -23 -26 -14 -26 -67 -70 -86 -70 -3 0 -11 29 -18
65 -7 36 -17 67 -21 70 -4 2 -16 -14 -26 -37 -20 -45 -60 -98 -74 -98 -5 0
-12 25 -15 55 -4 30 -13 62 -20 72 -11 15 -15 12 -38 -33 -31 -60 -63 -101
-72 -92 -4 4 -16 31 -26 60 -10 30 -18 43 -18 31 -1 -32 -48 -83 -77 -83 -28
0 -60 46 -70 100 -11 60 -21 65 -27 14 -18 -153 -55 -134 -113 59 -10 31 -21
57 -26 57 -4 0 -8 -22 -8 -49 0 -58 -17 -152 -29 -164 -13 -13 -35 33 -66 146
-15 53 -32 97 -36 97 -5 0 -9 -3 -9 -7 -2 -37 -21 -211 -26 -225 -12 -37 -33
-15 -67 69 -19 48 -39 89 -44 90 -6 2 -15 -25 -21 -59 -28 -170 -60 -157 -102
40 -14 62 -27 74 -34 30 -21 -133 -27 -163 -36 -172 -16 -16 -31 9 -64 106
-43 125 -43 125 -66 -17 -20 -129 -41 -124 -79 20 -32 119 -37 119 -56 0 -10
-57 -33 -108 -45 -100 -16 10 -29 49 -47 135 -18 90 -33 112 -33 49 0 -50 -26
-159 -41 -174 -16 -16 -26 10 -56 138 -15 64 -30 117 -33 117 -4 0 -10 -29
-14 -64 -7 -69 -32 -165 -47 -181 -19 -19 -31 20 -69 218 -7 32 -14 56 -16 54
-3 -3 -11 -51 -19 -108 -14 -110 -28 -159 -44 -159 -17 0 -27 29 -56 152 -15
65 -30 116 -35 113 -4 -2 -10 -42 -13 -87 -6 -88 -22 -158 -36 -158 -13 0 -35
63 -61 170 -37 155 -45 153 -53 -10 -3 -47 -11 -101 -20 -120 l-15 -35 -15 35
c-8 20 -25 87 -37 150 -12 63 -25 119 -30 124 -4 4 -11 -27 -15 -70 -3 -44
-16 -108 -28 -143 -44 -130 -66 -86 -92 192 -4 38 -8 67 -10 65 -2 -2 -8 -41
-15 -88 -19 -143 -46 -227 -66 -207 -12 12 -33 108 -51 231 l-18 121 -7 -80
c-10 -109 -27 -200 -43 -221 -12 -16 -13 -16 -24 4 -6 11 -20 85 -31 164 -31
217 -38 221 -50 33 -7 -131 -17 -158 -48 -139 -24 14 -72 112 -72 146 0 40
-12 35 -33 -16 -10 -24 -29 -54 -43 -67 -25 -24 -26 -24 -40 -4 -11 15 -15 48
-14 130 1 96 -9 177 -23 191 -2 2 -7 -48 -11 -113 -9 -163 -41 -223 -93 -176
-17 16 -19 27 -14 93 6 78 -3 192 -16 213 -9 14 -21 -56 -22 -131 -2 -92 -34
-120 -71 -60 -11 18 -22 53 -25 78 -4 25 -10 54 -15 65 -8 19 -9 19 -9 -4 -1
-25 -49 -121 -61 -121 -23 0 -70 87 -70 128 0 33 30 69 64 78 32 8 66 -12 67
-39 1 -12 5 25 10 83 11 155 43 230 98 230 18 0 31 9 43 30 14 24 46 42 88 49
3 0 30 -6 60 -14z m-761 -120 c61 -52 60 -127 -3 -219 -69 -100 -177 -162
-311 -177 -44 -5 -97 -12 -118 -15 -28 -5 -43 -2 -57 11 -29 27 -43 87 -30
134 10 37 44 91 59 91 3 0 21 -29 39 -65 17 -36 36 -65 40 -65 5 0 16 26 26
58 10 31 27 75 38 97 l20 39 23 -78 c36 -125 49 -123 80 17 9 43 20 76 22 73
3 -3 20 -27 37 -53 17 -25 36 -48 42 -50 7 -2 18 38 29 112 9 63 21 115 25
115 5 0 22 -11 39 -25z m-2759 -74 c0 -6 -4 -13 -10 -16 -5 -3 -10 1 -10 9 0
9 5 16 10 16 6 0 10 -4 10 -9z m235 -41 c35 -67 75 -303 74 -440 0 -107 -23
-308 -37 -322 -28 -28 -77 162 -88 344 -9 147 13 448 32 448 2 0 10 -13 19
-30z m2155 -25 c0 -8 -4 -15 -10 -15 -5 0 -7 7 -4 15 4 8 8 15 10 15 2 0 4 -7
4 -15z m-227 -13 c48 -52 64 -175 28 -211 -22 -22 -92 -44 -103 -33 -4 4 -1
33 6 65 7 32 11 77 9 100 -5 48 10 97 30 97 8 0 21 -8 30 -18z m662 -131 c3
-5 1 -12 -5 -16 -5 -3 -10 1 -10 9 0 18 6 21 15 7z m205 -111 c0 -5 -5 -10
-11 -10 -5 0 -7 5 -4 10 3 6 8 10 11 10 2 0 4 -4 4 -10z m-1976 -16 c13 -5 14
-9 5 -20 -13 -16 -29 -9 -29 12 0 16 2 16 24 8z m2026 -26 c0 -30 0 -31 -20
-13 -11 10 -20 24 -20 32 0 7 9 13 20 13 16 0 20 -7 20 -32z m-144 -3 c9 -23
-12 -42 -81 -75 -49 -23 -77 -30 -124 -30 -34 0 -61 3 -61 8 0 14 50 62 83 78
69 36 173 47 183 19z m-311 -25 c3 -5 -1 -10 -9 -10 -9 0 -16 5 -16 10 0 6 4
10 9 10 6 0 13 -4 16 -10z m-2195 -118 c23 -81 41 -237 34 -300 -12 -111 -72
-194 -91 -125 -11 37 -10 462 0 488 8 20 9 19 27 -3 11 -13 24 -40 30 -60z
m1490 74 c0 -3 -4 -8 -10 -11 -5 -3 -10 -1 -10 4 0 6 5 11 10 11 6 0 10 -2 10
-4z m1404 -37 c-8 -13 -24 -1 -24 18 0 13 3 13 15 3 8 -7 12 -16 9 -21z
m-1614 -50 c0 -5 -4 -9 -10 -9 -5 0 -10 7 -10 16 0 8 5 12 10 9 6 -3 10 -10
10 -16z m211 -12 c-13 -13 -26 -3 -16 12 3 6 11 8 17 5 6 -4 6 -10 -1 -17z
m1225 -29 c-10 -6 -20 -7 -24 -3 -9 8 20 25 31 18 5 -3 2 -10 -7 -15z m184 2
c0 -5 -4 -10 -10 -10 -5 0 -10 5 -10 10 0 6 5 10 10 10 6 0 10 -4 10 -10z
m105 -10 c0 -22 -29 -18 -33 3 -3 14 1 18 15 15 10 -2 18 -10 18 -18z m-2849
-50 c40 -81 60 -272 40 -372 -8 -41 -35 -63 -66 -53 -36 11 -41 40 -40 222 1
247 19 301 66 203z m2357 -13 c87 -56 124 -117 71 -117 -41 0 -194 117 -194
148 0 24 62 8 123 -31z m499 21 c-7 -7 -12 -8 -12 -2 0 14 12 26 19 19 2 -3
-1 -11 -7 -17z m-144 -151 c16 -12 15 -48 -1 -71 -12 -17 -15 -17 -50 4 -45
26 -62 53 -44 68 27 21 67 21 95 -1z m397 -4 c-8 -34 -20 -47 -34 -39 -8 5 -6
16 4 37 20 37 40 39 30 2z m-119 -31 c-24 -24 -31 -6 -10 25 16 24 19 26 22 9
2 -10 -3 -25 -12 -34z m-1996 28 c0 -5 -2 -10 -4 -10 -3 0 -8 5 -11 10 -3 6
-1 10 4 10 6 0 11 -4 11 -10z m210 -4 c0 -10 -32 -36 -43 -36 -7 1 -1 10 12
20 23 20 31 24 31 16z m2025 -105 c-13 -14 -15 -12 -15 15 0 39 12 51 22 23 6
-16 4 -27 -7 -38z m-209 -50 c43 -18 96 -43 116 -57 34 -21 48 -24 141 -24 56
0 184 -7 282 -15 324 -27 349 -36 145 -51 -226 -16 -415 3 -645 65 -90 25
-226 89 -233 110 -8 24 104 7 194 -28z m3214 24 c0 -8 -6 -15 -14 -15 -17 0
-28 14 -19 24 12 12 33 6 33 -9z m-80 -35 c0 -5 -4 -10 -10 -10 -5 0 -10 5
-10 10 0 6 5 10 10 10 6 0 10 -4 10 -10z m1050 0 c8 -5 11 -12 8 -16 -10 -9
-38 3 -38 16 0 12 10 13 30 0z m-2057 -22 c6 -17 -3 -77 -13 -83 -16 -10 -60
15 -60 33 0 38 61 80 73 50z m952 -8 c3 -5 1 -10 -4 -10 -6 0 -11 5 -11 10 0
6 2 10 4 10 3 0 8 -4 11 -10z m70 0 c3 -5 -1 -10 -10 -10 -9 0 -13 5 -10 10 3
6 8 10 10 10 2 0 7 -4 10 -10z m-1805 -21 c18 -32 6 -45 -18 -21 -13 13 -20
27 -17 32 10 16 23 12 35 -11z m3360 -5 c0 -14 -4 -23 -10 -19 -5 3 -10 15
-10 26 0 10 5 19 10 19 6 0 10 -12 10 -26z m-4150 6 c0 -5 -4 -10 -10 -10 -5
0 -10 5 -10 10 0 6 5 10 10 10 6 0 10 -4 10 -10z m1715 -33 c-20 -11 -29 -3
-21 19 5 13 9 14 22 3 14 -11 14 -13 -1 -22z m889 11 c21 -30 20 -38 -4 -38
-21 0 -45 34 -35 50 10 16 23 12 39 -12z m1326 12 c0 -5 -4 -10 -10 -10 -5 0
-10 5 -10 10 0 6 5 10 10 10 6 0 10 -4 10 -10z m450 0 c0 -5 -4 -10 -10 -10
-5 0 -10 5 -10 10 0 6 5 10 10 10 6 0 10 -4 10 -10z m-4120 -10 c0 -5 -2 -10
-4 -10 -3 0 -8 5 -11 10 -3 6 -1 10 4 10 6 0 11 -4 11 -10z m255 0 c-3 -5 -10
-10 -16 -10 -5 0 -9 5 -9 10 0 6 7 10 16 10 8 0 12 -4 9 -10z m930 0 c-3 -5
-10 -10 -16 -10 -5 0 -9 5 -9 10 0 6 7 10 16 10 8 0 12 -4 9 -10z m515 0 c0
-5 -4 -10 -10 -10 -5 0 -10 5 -10 10 0 6 5 10 10 10 6 0 10 -4 10 -10z m2590
0 c0 -5 -4 -10 -10 -10 -5 0 -10 5 -10 10 0 6 5 10 10 10 6 0 10 -4 10 -10z
m-3261 -56 c-12 -27 -13 -27 -16 -7 -5 26 19 77 24 52 2 -8 -2 -29 -8 -45z
m3198 24 c-3 -8 -6 -5 -6 6 -1 11 2 17 5 13 3 -3 4 -12 1 -19z m-3627 3 c0
-12 -20 -25 -27 -18 -7 7 6 27 18 27 5 0 9 -4 9 -9z m1130 -1 c0 -5 -4 -10
-10 -10 -5 0 -10 5 -10 10 0 6 5 10 10 10 6 0 10 -4 10 -10z m1675 0 c3 -5 1
-10 -4 -10 -6 0 -11 5 -11 10 0 6 2 10 4 10 3 0 8 -4 11 -10z m-3135 -7 c0 -3
-7 -15 -17 -25 -18 -20 -110 -27 -97 -7 14 24 114 52 114 32z m4291 -36 c-13
-13 -15 1 -4 30 7 17 8 17 11 -1 2 -10 -1 -23 -7 -29z m-2584 11 c-3 -8 -6 -5
-6 6 -1 11 2 17 5 13 3 -3 4 -12 1 -19z m843 -17 c0 -11 -4 -23 -10 -26 -6 -4
-10 5 -10 19 0 14 5 26 10 26 6 0 10 -9 10 -19z m1060 15 c0 -11 -19 -15 -25
-6 -3 5 1 10 9 10 9 0 16 -2 16 -4z m2370 0 c0 -3 -4 -8 -10 -11 -5 -3 -10 -1
-10 4 0 6 5 11 10 11 6 0 10 -2 10 -4z m-5885 -15 c10 -17 -9 -19 -50 -6 l-40
13 42 1 c23 1 44 -3 48 -8z m125 -1 c0 -5 -13 -10 -30 -10 -16 0 -30 5 -30 10
0 6 14 10 30 10 17 0 30 -4 30 -10z m-3790 -20 c0 -5 -5 -10 -11 -10 -5 0 -7
5 -4 10 3 6 8 10 11 10 2 0 4 -4 4 -10z m5125 -40 c3 -5 -1 -10 -9 -10 -9 0
-16 5 -16 10 0 6 4 10 9 10 6 0 13 -4 16 -10z m1075 0 c0 -5 -4 -10 -10 -10
-5 0 -10 5 -10 10 0 6 5 10 10 10 6 0 10 -4 10 -10z m2115 -59 c3 -5 1 -12 -5
-16 -5 -3 -10 1 -10 9 0 18 6 21 15 7z"/>
<path d="M1251 4633 c-28 -146 -23 -307 11 -391 l11 -27 8 40 c9 48 12 360 3
404 -10 46 -20 38 -33 -26z"/>
<path d="M267 4130 c-10 -36 -9 -198 2 -204 13 -9 21 90 13 164 -6 50 -9 59
-15 40z"/>
<path d="M11243 4169 c6 -47 11 -54 32 -46 21 9 19 50 -3 70 -29 26 -35 21
-29 -24z"/>
<path d="M2764 3856 c-3 -21 -4 -39 -1 -42 2 -3 8 11 11 32 4 20 5 38 2 41 -2
3 -8 -11 -12 -31z"/>
<path d="M1716 3408 c-23 -90 -29 -238 -18 -470 7 -134 13 -283 13 -333 l1
-90 14 44 c32 102 38 282 19 582 -9 156 -18 285 -20 287 -1 1 -5 -8 -9 -20z"/>
<path d="M1006 1929 c-5 -60 -5 -103 2 -114 14 -26 23 75 14 150 l-8 60 -8
-96z"/>
<path d="M2330 3503 c-141 -24 -216 -100 -226 -229 l-5 -69 22 30 c70 93 206
185 274 185 54 0 81 -48 70 -123 -10 -67 -15 -71 -64 -56 -36 11 -44 10 -57
-3 -14 -13 -12 -23 10 -88 32 -90 25 -103 -39 -72 -50 24 -111 29 -118 10 -8
-25 23 -66 66 -87 57 -28 151 -44 206 -37 192 26 291 274 174 433 -56 76 -200
125 -313 106z m175 -403 c-3 -5 -10 -10 -16 -10 -5 0 -9 5 -9 10 0 6 7 10 16
10 8 0 12 -4 9 -10z"/>
<path d="M3743 2485 c0 -27 2 -38 4 -22 2 15 2 37 0 50 -2 12 -4 0 -4 -28z"/>
<path d="M6335 2211 c-3 -5 -1 -12 5 -16 5 -3 10 1 10 9 0 18 -6 21 -15 7z"/>
<path d="M6477 2213 c-11 -10 -8 -20 8 -27 10 -4 15 1 15 14 0 20 -11 26 -23
13z"/>
<path d="M6765 2170 c3 -5 10 -10 16 -10 5 0 9 5 9 10 0 6 -7 10 -16 10 -8 0
-12 -4 -9 -10z"/>
</g>
</svg>
