<?xml version="1.0" standalone="no"?>
<!DOCTYPE svg PUBLIC "-//W3C//DTD SVG 20010904//EN"
 "http://www.w3.org/TR/2001/REC-SVG-20010904/DTD/svg10.dtd">
<svg version="1.0" xmlns="http://www.w3.org/2000/svg"
 width="1280.000000pt" height="640.000000pt" viewBox="0 0 1280.000000 640.000000"
 preserveAspectRatio="xMidYMid meet">
<metadata>
Created by potrace 1.15, written by Peter Selinger 2001-2017
</metadata>
<g transform="translate(0.000000,640.000000) scale(0.100000,-0.100000)"
fill="#795548" stroke="none">
<path d="M1268 5680 c-94 -16 -151 -53 -273 -172 -204 -199 -229 -262 -315
-798 -19 -119 -44 -234 -64 -295 -22 -66 -35 -130 -40 -187 -11 -154 -72 -277
-191 -386 -35 -32 -124 -102 -198 -155 l-135 -98 -6 -112 c-22 -381 -29 -720
-31 -1412 -1 -429 -6 -812 -10 -851 -29 -269 185 -453 576 -494 389 -42 801
106 1090 391 37 36 88 77 114 89 59 29 112 81 135 134 35 80 43 159 35 383 -8
246 0 305 47 358 16 19 46 39 66 45 62 18 580 23 1172 11 311 -6 891 -15 1290
-21 399 -5 903 -15 1120 -21 296 -9 437 -9 560 0 115 8 206 8 300 1 74 -5 590
-15 1145 -22 952 -12 1155 -13 1470 -6 72 1 171 -2 220 -7 50 -6 137 -7 195
-3 58 4 269 4 470 1 220 -3 396 -1 442 5 52 7 102 7 155 0 48 -7 351 -10 782
-9 730 2 815 6 892 45 39 19 40 19 33 3 -18 -49 95 -47 202 2 65 30 74 38 106
94 126 218 173 389 173 627 0 159 -16 249 -65 378 -70 181 -158 260 -340 308
-81 21 -192 22 -780 6 -245 -7 -679 -17 -965 -22 -286 -5 -736 -16 -1000 -25
-264 -8 -941 -19 -1505 -25 -564 -5 -1522 -17 -2130 -26 -608 -9 -1355 -18
-1660 -20 -1989 -12 -1972 -11 -2035 -28 -256 -69 -369 70 -351 434 3 74 11
166 16 203 10 64 8 80 -29 230 -38 156 -82 312 -197 689 -84 278 -125 437
-135 516 -10 89 -42 150 -101 192 -63 46 -162 66 -250 50z m2 -125 c19 -23 0
-57 -59 -102 -125 -95 -120 -92 -152 -81 -17 6 -33 17 -36 24 -13 35 54 122
122 157 39 21 109 22 125 2z m-80 -250 c0 -3 -6 -21 -14 -39 -10 -25 -22 -36
-46 -41 -17 -4 -34 -5 -36 -2 -8 8 67 87 82 87 8 0 14 -2 14 -5z m-205 -49 c9
-13 20 -38 25 -55 8 -29 6 -33 -30 -57 -21 -14 -47 -24 -57 -22 -34 6 -29 97
8 136 25 28 35 28 54 -2z m413 2 c-3 -25 -25 -33 -47 -19 -12 8 -12 12 -2 25
21 25 53 21 49 -6z m-388 -215 c80 -72 156 -273 167 -440 l6 -92 -27 -11 c-15
-5 -97 -10 -183 -10 -152 0 -157 1 -190 26 -18 14 -33 29 -33 34 0 24 68 41
202 52 89 8 134 15 122 20 -10 4 -81 16 -158 27 -76 11 -141 22 -144 26 -12
12 18 25 128 55 63 17 119 35 124 41 19 18 -11 30 -101 39 -50 5 -98 12 -107
16 -27 11 0 33 92 76 50 23 82 43 79 51 -4 14 -44 24 -99 26 -21 0 -38 3 -38
6 0 16 33 66 52 79 35 25 65 19 108 -21z m259 -25 c26 -41 60 -159 115 -395
31 -131 60 -254 66 -273 13 -45 13 -110 0 -110 -16 0 -58 96 -71 160 -5 30
-14 71 -19 90 -5 19 -16 96 -25 170 -17 146 -43 250 -81 319 -13 24 -24 47
-24 52 0 17 25 9 39 -13z m201 -18 c0 -15 -7 -20 -25 -20 -27 0 -32 9 -13 28
18 18 38 14 38 -8z m30 -39 c0 -6 -4 -13 -10 -16 -5 -3 -10 1 -10 9 0 9 5 16
10 16 6 0 10 -4 10 -9z m19 -172 c14 -39 14 -36 -4 -43 -19 -7 -36 24 -28 52
8 31 19 27 32 -9z m-289 1 c0 -5 -4 -10 -10 -10 -5 0 -10 5 -10 10 0 6 5 10
10 10 6 0 10 -4 10 -10z m366 -54 c18 -14 18 -15 -8 -21 -35 -9 -53 2 -37 21
14 18 20 18 45 0z m-99 -22 c-3 -3 -12 -4 -19 -1 -8 3 -5 6 6 6 11 1 17 -2 13
-5z m254 -25 c13 -25 0 -43 -24 -33 -21 8 -23 54 -2 54 8 0 19 -9 26 -21z
m-156 -273 c50 -140 55 -169 28 -164 -13 2 -26 34 -50 128 -44 171 -48 187
-34 174 6 -5 31 -67 56 -138z m-464 24 c59 -17 142 -139 131 -195 -12 -66
-117 -102 -267 -91 -250 18 -282 24 -327 64 -25 21 -23 29 11 47 24 12 40 13
88 4 63 -12 195 -6 281 13 84 18 63 38 -41 39 -64 0 -189 13 -242 24 -138 29
31 101 245 104 47 0 101 -4 121 -9z m459 -200 c0 -5 -4 -10 -10 -10 -5 0 -10
5 -10 10 0 6 5 10 10 10 6 0 10 -4 10 -10z m166 -95 c10 -8 14 -15 7 -15 -19
0 -43 11 -43 21 0 13 14 11 36 -6z m-664 -25 c115 -11 146 -19 167 -44 20 -24
6 -45 -45 -68 -47 -20 -90 -21 -239 -3 -22 2 -99 8 -170 13 -72 4 -136 11
-143 16 -64 39 140 113 278 100 25 -3 93 -9 152 -14z m729 -27 c-23 -42 -251
-246 -354 -317 -89 -61 -120 -67 -337 -75 -299 -10 -590 10 -590 40 0 13 34
26 106 43 48 11 90 12 190 5 346 -25 604 40 812 204 142 112 197 144 173 100z
m-266 -54 c0 -18 -6 -25 -24 -27 -36 -6 -46 13 -21 38 26 26 45 22 45 -11z
m-329 -94 c25 -10 34 -20 34 -38 0 -14 -6 -29 -13 -35 -8 -7 -98 -14 -228 -18
-255 -8 -332 1 -385 48 -19 17 -34 33 -34 38 0 11 367 29 489 23 57 -2 119
-10 137 -18z m380 -201 c6 -24 -6 -43 -28 -44 -10 0 -10 32 -2 54 9 24 23 19
30 -10z m79 -23 c3 -5 1 -12 -5 -16 -5 -3 -10 1 -10 9 0 18 6 21 15 7z m-480
-94 c44 -20 85 -54 85 -72 0 -15 -859 -9 -907 7 -36 11 -39 17 -20 40 34 43
38 43 428 43 339 0 378 -2 414 -18z m745 -1 c0 -3 -4 -8 -10 -11 -5 -3 -10 -1
-10 4 0 6 5 11 10 11 6 0 10 -2 10 -4z m-530 -83 c0 -7 -5 -13 -10 -13 -13 0
-30 41 -22 54 6 11 32 -22 32 -41z m230 43 c0 -3 -4 -8 -10 -11 -5 -3 -10 -1
-10 4 0 6 5 11 10 11 6 0 10 -2 10 -4z m-1015 -66 c-3 -5 -10 -10 -16 -10 -5
0 -9 5 -9 10 0 6 7 10 16 10 8 0 12 -4 9 -10z m321 -29 c284 2 389 -31 286
-89 -37 -21 -42 -21 -282 -11 -135 5 -339 9 -455 8 -194 -3 -215 -1 -277 19
-75 25 -88 36 -58 52 41 22 141 29 370 24 129 -2 317 -4 416 -3z m11219 -88
c26 -9 28 -11 10 -16 -11 -3 -49 -11 -85 -16 -36 -6 -81 -13 -100 -16 -19 -3
-336 -10 -705 -15 -798 -10 -1598 -27 -1749 -36 -329 -20 228 -34 829 -21 969
20 1645 29 1696 23 31 -4 65 -14 75 -22 18 -14 18 -15 -4 -34 -36 -30 -97 -42
-192 -39 -47 1 -155 2 -240 1 -85 -1 -504 -6 -930 -12 -426 -5 -1331 -14
-2010 -20 -751 -6 -1269 -14 -1323 -21 -114 -14 -214 1 -248 37 -22 23 -22 25
-6 42 16 16 60 17 545 19 290 1 639 7 775 13 136 5 296 10 355 10 88 1 104 3
87 13 -35 21 -971 22 -1305 2 -287 -18 -451 -16 -568 9 -35 8 -65 16 -68 18
-17 17 474 38 701 31 94 -3 530 0 970 6 440 7 1048 14 1350 17 1161 10 1441
15 1580 29 153 15 510 14 560 -2z m-3537 -15 c-5 -15 -23 -11 -26 6 -2 11 2
14 13 10 9 -4 14 -11 13 -16z m3851 -19 c34 -12 72 -68 89 -132 9 -33 8 -38
-10 -48 -30 -16 -64 -102 -88 -219 -26 -132 -29 -140 -39 -120 -5 8 -11 33
-15 55 -8 47 -55 196 -66 208 -4 4 -10 -43 -13 -105 -3 -62 -8 -121 -12 -130
-6 -16 -9 -16 -29 -2 -31 20 -46 56 -46 112 0 32 -8 60 -24 86 l-24 40 -21
-35 c-12 -18 -37 -85 -57 -147 -24 -75 -45 -124 -64 -145 -33 -37 5 -35 -390
-18 -240 10 -440 6 -423 -9 4 -4 41 -15 82 -24 59 -14 101 -16 200 -11 119 7
438 -7 509 -21 41 -8 37 -23 -14 -43 -31 -12 -90 -16 -299 -16 -217 -1 -266
-4 -297 -18 -21 -9 -38 -21 -38 -26 0 -21 85 -72 159 -95 77 -24 216 -45 306
-47 57 0 197 -39 196 -54 0 -9 -201 -34 -297 -37 -31 -1 -72 13 -170 59 -71
34 -147 66 -170 72 -64 17 -1021 19 -1059 2 -16 -7 -52 -17 -80 -21 l-50 -8
50 -1 c73 -2 188 -20 199 -31 6 -6 208 -10 532 -10 569 0 644 -8 404 -40 -109
-15 -346 -16 -384 -1 -37 15 -155 16 -169 2 -8 -8 -8 -23 1 -56 17 -62 15
-105 -5 -127 -24 -26 -52 -22 -71 12 -9 16 -25 33 -35 37 -9 4 -80 4 -157 -1
-174 -10 -207 -1 -130 39 25 13 33 13 64 0 70 -29 152 -16 182 30 16 25 16 27
-4 48 -17 17 -33 21 -84 20 -35 0 -79 -5 -98 -10 -39 -10 -355 1 -405 15 -45
13 -39 42 15 71 l45 25 -84 19 c-46 11 -79 23 -74 28 18 18 314 39 563 39 140
1 289 1 330 2 41 1 128 -3 192 -8 126 -10 168 -3 168 26 0 66 -293 193 -480
209 l-85 6 50 20 c47 18 82 19 561 21 316 1 518 5 529 11 50 28 -236 45 -520
31 -126 -7 -349 -12 -495 -12 -271 0 -366 9 -496 49 -68 21 -80 20 -254 -24
l-155 -39 -390 2 c-348 2 -401 5 -495 23 -145 29 -184 40 -212 62 -23 20 -23
20 -3 35 11 8 40 18 65 21 92 13 71 19 -87 26 -228 10 -363 32 -363 59 0 21
72 42 125 37 27 -3 196 1 375 9 334 15 475 12 593 -12 72 -15 135 -42 156 -68
12 -14 6 -16 -55 -16 -38 0 -94 -3 -124 -7 -45 -5 -50 -8 -30 -14 32 -9 382
-11 445 -2 l47 6 -74 21 c-85 25 -142 55 -146 78 -2 8 6 18 16 20 10 3 203 4
428 2 225 -3 497 0 604 5 237 12 870 26 1035 23 122 -3 252 -21 323 -46 l39
-14 24 51 c47 100 126 182 193 197 17 5 31 8 32 9 1 1 15 -4 33 -10z m-11914
-37 c72 -2 254 -5 405 -6 203 -1 283 -5 305 -14 l30 -14 -28 -23 c-15 -14 -46
-30 -70 -37 -49 -15 -291 -15 -527 0 -156 10 -426 -1 -443 -18 -11 -10 63 -26
158 -35 39 -4 230 -8 425 -9 294 -2 364 -6 410 -19 111 -33 139 -86 78 -147
-79 -79 -210 -105 -455 -90 -82 5 -170 12 -198 15 -71 8 -295 8 -349 0 -57 -9
-60 -30 -8 -53 32 -15 94 -17 484 -22 445 -5 448 -5 470 -27 21 -22 21 -23 3
-43 -33 -37 -87 -44 -235 -30 -75 7 -259 13 -410 14 -250 1 -279 -1 -315 -18
l-40 -19 35 -8 c19 -5 195 -13 390 -18 345 -10 436 -17 550 -45 l55 -13 -38
-17 c-68 -30 -184 -38 -345 -24 -162 14 -614 14 -640 -1 -13 -7 -4 -13 38 -25
84 -24 209 -36 380 -37 85 -1 169 -1 185 -1 17 -1 98 0 180 1 123 2 160 -1
205 -16 30 -10 54 -22 53 -28 -1 -5 -19 -16 -40 -25 -32 -13 -81 -14 -303 -11
-445 7 -718 6 -727 -2 -4 -5 1 -15 12 -23 47 -35 87 -38 435 -40 365 -1 548
-14 587 -39 12 -9 23 -18 23 -21 0 -3 -21 -15 -47 -26 -40 -18 -68 -21 -168
-22 -66 0 -181 6 -255 13 -89 8 -205 11 -340 7 -271 -8 -303 -15 -217 -52 39
-18 69 -19 422 -16 321 3 392 1 449 -12 72 -17 186 -71 186 -89 0 -6 -45 -8
-127 -4 -71 4 -317 10 -548 13 -386 7 -419 6 -407 -9 8 -9 39 -26 70 -39 56
-22 66 -23 477 -24 409 -1 481 -6 509 -34 15 -15 -23 -46 -72 -59 -59 -16
-121 -15 -402 3 -304 20 -517 18 -570 -6 l-35 -15 40 -11 c77 -22 222 -32 445
-32 209 0 440 -17 514 -38 81 -22 7 -48 -170 -59 -57 -3 -249 0 -426 7 -247 9
-333 10 -366 1 -23 -7 -42 -16 -42 -21 0 -21 117 -29 445 -31 241 -1 359 2
378 10 58 23 141 9 201 -32 73 -51 127 -190 128 -332 2 -191 -62 -327 -176
-370 -40 -15 -56 -16 -138 -6 -51 7 -283 15 -514 18 l-422 6 -8 186 c-9 207
-7 845 4 1546 6 346 11 466 21 483 24 44 64 53 191 46 63 -4 173 -9 245 -12z
m1045 -14 c-12 -10 -25 -16 -28 -13 -9 8 30 45 41 38 6 -4 1 -14 -13 -25z
m1277 -24 c25 -4 148 -3 273 1 240 7 270 3 270 -35 0 -11 10 -22 23 -26 27 -8
77 -43 77 -53 0 -38 -181 -49 -985 -56 -346 -3 -664 -10 -706 -16 -103 -13
-153 2 -157 48 -4 41 41 93 110 127 63 32 111 33 443 10 285 -19 414 -10 504
36 33 17 35 17 68 -6 19 -13 55 -26 80 -30z m3962 32 c29 -8 56 -17 59 -20 3
-3 -27 -6 -67 -6 -96 0 -170 -31 -131 -55 6 -4 41 -6 78 -6 94 1 252 -24 252
-39 0 -30 -259 -40 -950 -39 -360 1 -662 1 -670 1 -8 0 -296 -3 -640 -7 -344
-3 -697 -10 -785 -15 -145 -9 -166 -8 -220 9 l-60 19 55 16 c110 31 203 37
630 35 269 -2 449 2 490 9 36 5 106 14 155 18 l90 8 -85 8 c-121 11 -629 8
-941 -4 -202 -8 -296 -8 -395 1 -122 12 -143 16 -133 25 19 19 1029 39 1804
36 154 -1 354 3 445 7 91 5 217 7 280 4 63 -4 189 -1 280 6 197 13 385 9 459
-11z m1303 -191 c43 -7 120 -27 172 -45 77 -25 94 -34 89 -48 -4 -13 -3 -14 5
-3 8 11 35 4 148 -37 77 -27 165 -56 197 -63 31 -6 57 -14 57 -17 0 -3 -7 -13
-16 -23 -31 -35 -8 -42 110 -35 155 9 200 0 272 -56 52 -41 71 -49 154 -66 52
-11 136 -31 185 -45 50 -14 133 -35 185 -47 52 -12 109 -29 125 -37 44 -22 85
-64 85 -86 0 -19 -5 -20 -137 -14 -76 3 -158 3 -183 -1 -25 -4 -108 -4 -185 0
-173 9 -325 1 -325 -18 0 -20 17 -26 39 -12 11 7 24 9 28 5 4 -5 1 -12 -6 -17
-10 -6 0 -10 30 -14 34 -4 563 -15 762 -16 95 0 -4 -46 -135 -62 -76 -10 -94
-9 -144 7 -50 16 -75 17 -198 9 -78 -4 -186 -8 -241 -8 -87 -1 -105 2 -137 22
-21 13 -45 37 -55 52 -17 29 -17 29 -35 10 -70 -75 -224 -95 -476 -64 -125 15
-141 19 -130 30 12 11 277 26 371 20 91 -6 97 -5 97 13 0 19 -21 29 -94 46
-16 3 -247 5 -515 4 -267 -1 -571 0 -676 2 -304 6 -777 4 -817 -4 -21 -5 -38
-12 -38 -18 0 -22 65 -32 255 -39 110 -5 211 -12 224 -18 l25 -9 -28 -7 c-15
-4 -140 -15 -277 -26 -295 -23 -296 -23 -319 62 -13 47 -52 78 -99 78 -35 1
-35 1 24 26 143 59 105 88 -133 100 -105 6 -135 10 -140 22 -8 22 24 40 87 48
31 4 178 2 326 -4 151 -7 330 -8 405 -4 119 6 135 9 138 25 5 24 -20 51 -75
81 -79 45 -168 75 -238 82 -140 13 -258 45 -239 64 16 15 162 30 302 31 75 1
182 4 237 8 l100 6 -60 8 c-83 10 -162 9 -285 -2 -162 -15 -495 10 -523 38
-16 16 26 29 139 45 321 44 576 24 902 -69 68 -19 144 -35 169 -35 69 0 232
-36 381 -85 153 -51 225 -88 220 -113 -3 -15 -41 -17 -424 -22 -380 -5 -422
-7 -447 -23 -15 -9 -27 -21 -27 -26 0 -17 63 -62 142 -102 76 -38 86 -40 216
-50 75 -5 306 -10 512 -10 206 -1 411 -2 454 -3 98 -1 105 10 44 67 -65 62
-161 114 -221 122 -80 10 -107 16 -107 25 0 12 78 35 200 60 58 12 107 24 110
27 3 3 -71 2 -165 -2 -142 -6 -184 -5 -255 10 -118 24 -244 71 -296 111 -44
34 -45 34 -157 34 -200 1 -318 26 -333 72 -3 11 -3 22 -1 25 3 3 84 5 179 5
95 -1 193 3 218 7 71 13 188 12 272 -4z m-2829 -40 c83 -14 213 -56 192 -61
-5 -1 -50 -6 -99 -9 -131 -10 -86 -26 82 -29 79 -1 146 -7 158 -14 54 -29 54
-70 1 -99 -27 -15 -55 -17 -167 -15 -74 2 -198 2 -275 2 -111 -1 -157 3 -219
20 -184 47 -166 94 43 110 53 4 80 8 61 9 -284 13 -438 33 -473 61 -21 17 -18
18 88 24 61 4 119 8 130 10 68 11 402 4 478 -9z m930 -8 c27 -12 38 -22 35
-34 -3 -15 -17 -19 -83 -23 l-80 -5 90 -8 c156 -14 361 -45 399 -61 21 -9 36
-21 34 -28 -8 -26 -72 -48 -138 -48 -36 0 -71 -4 -79 -9 -8 -5 57 -9 161 -10
181 -1 350 -14 405 -30 83 -24 65 -29 -163 -37 -430 -16 -649 -6 -789 35 -30
8 -30 8 15 15 160 22 167 24 125 25 -76 3 -250 29 -300 46 -50 17 -115 54
-115 66 0 4 33 10 73 15 l72 7 -96 13 c-98 13 -159 32 -192 62 -18 16 -14 17
84 23 57 3 194 5 304 5 163 -2 207 -5 238 -19z m-1744 -4 c56 -47 -89 -97
-213 -74 -37 7 -97 8 -160 4 l-101 -8 95 -7 c52 -4 200 -7 328 -7 224 1 235 0
279 -23 93 -46 88 -91 -10 -105 -30 -5 188 -11 528 -14 544 -6 635 -10 635
-29 0 -18 -160 -23 -732 -25 -334 0 -611 -5 -615 -9 -11 -10 14 -24 77 -42 45
-14 75 -15 180 -8 69 5 170 8 225 7 55 0 287 -3 515 -5 411 -3 415 -3 463 -26
26 -13 47 -28 47 -33 0 -5 -47 -9 -104 -9 -103 0 -129 -7 -103 -29 31 -25 144
-41 297 -41 85 0 165 -3 178 -6 36 -10 25 -34 -25 -57 -59 -26 -233 -37 -285
-17 -21 8 -143 16 -328 22 -162 5 -302 12 -310 15 -10 4 -4 10 20 21 22 9 89
18 184 23 195 10 207 19 61 43 -233 40 -430 45 -790 20 -202 -14 -260 -15
-370 -5 -71 7 -227 15 -345 18 -184 4 -218 3 -235 -10 -16 -13 -18 -18 -7 -29
10 -10 77 -13 300 -14 312 -1 367 -9 418 -59 47 -47 25 -58 -49 -25 -41 18
-55 19 -134 11 -126 -14 -935 -6 -995 9 -50 13 -60 25 -30 34 37 12 170 25
255 26 84 0 101 6 75 27 -27 21 -73 25 -388 33 -289 8 -394 16 -480 36 l-25 6
25 10 c41 16 682 28 880 17 229 -14 538 -14 570 -1 14 6 18 11 10 12 -8 0 -53
25 -99 55 -47 31 -108 62 -136 71 -68 19 -175 115 -175 156 0 15 4 30 10 33
27 16 116 23 331 24 212 1 239 -1 258 -16z m-866 -2 c115 -9 139 -23 82 -47
-45 -19 -213 -33 -283 -24 -57 7 -246 1 -237 -8 3 -4 144 -9 313 -13 300 -6
355 -12 397 -43 16 -11 17 -16 6 -29 -32 -40 -330 -71 -453 -47 -84 15 -112 8
-105 -29 3 -14 9 -34 12 -43 10 -27 -16 -23 -84 11 -32 17 -84 39 -116 50 -31
11 -103 45 -158 76 -56 30 -127 65 -159 77 -61 22 -82 22 -373 0 l-90 -7 135
-8 c261 -15 340 -26 405 -57 33 -16 76 -45 95 -65 l35 -36 -23 -19 c-34 -28
-200 -38 -477 -28 -130 5 -148 10 -197 54 -45 40 -128 83 -252 130 -152 59
-197 99 -118 107 72 7 1548 6 1645 -2z m-1723 -46 c41 -15 102 -43 134 -63 33
-19 95 -48 139 -63 44 -15 90 -37 101 -49 20 -21 21 -22 2 -35 -10 -8 -39 -18
-65 -22 -84 -14 -585 -4 -600 13 -16 18 -31 78 -31 128 0 95 48 129 170 122
47 -3 103 -14 150 -31z m10640 4 c0 -5 -4 -9 -10 -9 -5 0 -10 7 -10 16 0 8 5
12 10 9 6 -3 10 -10 10 -16z m6 -167 c-15 -15 -16 -14 -16 9 0 33 11 44 23 23
6 -11 4 -21 -7 -32z m-11116 24 c0 -7 -7 -19 -15 -26 -16 -13 -20 -3 -9 24 8
20 24 21 24 2z m8830 -50 c177 -3 267 -32 178 -57 -39 -11 -283 -19 -378 -11
-19 1 -167 0 -329 -2 -268 -4 -296 -6 -308 -22 -7 -10 -14 -16 -15 -13 -2 2
-13 18 -25 36 l-22 31 35 17 c65 31 118 34 429 28 171 -3 366 -6 435 -7z
m-6338 -7 c48 -7 88 -16 88 -20 0 -9 -223 -14 -425 -9 -108 2 -151 12 -140 31
9 13 369 11 477 -2z m6707 -46 c10 -21 9 -28 -1 -35 -31 -19 -58 10 -44 48 9
23 32 16 45 -13z m1554 -17 c-10 -14 -24 -28 -32 -31 -15 -6 -10 2 28 48 22
26 26 12 4 -17z m187 11 c0 -8 -9 -22 -20 -32 -22 -20 -27 -7 -10 26 12 22 30
25 30 6z m180 -2 c0 -8 -4 -15 -9 -15 -5 0 -11 7 -15 15 -3 9 0 15 9 15 8 0
15 -7 15 -15z m-3185 -25 c-5 -8 -11 -8 -17 -2 -6 6 -7 16 -3 22 5 8 11 8 17
2 6 -6 7 -16 3 -22z m-7594 1 c78 -8 168 -7 359 3 254 14 367 11 473 -13 54
-13 122 -39 116 -45 -5 -5 -705 -20 -875 -19 -130 0 -187 16 -199 54 -7 21 2
42 14 35 4 -3 54 -10 112 -15z m3086 13 c-3 -3 -12 -4 -19 -1 -8 3 -5 6 6 6
11 1 17 -2 13 -5z m7436 -41 c7 -42 4 -48 -18 -40 -15 6 -21 57 -8 70 13 14
21 6 26 -30z m-2513 7 c0 -5 -2 -10 -4 -10 -3 0 -8 5 -11 10 -3 6 -1 10 4 10
6 0 11 -4 11 -10z m-1690 -10 c152 -10 379 -36 427 -49 48 -13 -204 -21 -654
-21 -267 0 -423 4 -423 10 0 14 130 51 213 60 106 11 273 11 437 0z m4350 0
c8 -5 11 -12 8 -16 -10 -9 -38 3 -38 16 0 12 10 13 30 0z m-1472 -17 l83 -6
-23 -24 c-55 -59 -111 -66 -373 -52 -231 13 -316 8 -346 -22 -18 -18 -23 -18
-118 -4 -184 28 -491 97 -491 110 0 8 1174 6 1268 -2z m1590 -25 c18 -18 15
-28 -8 -28 -13 0 -20 7 -20 20 0 23 10 26 28 8z m-10043 -54 c410 19 409 19
465 3 40 -12 63 -26 82 -51 34 -42 103 -70 236 -93 83 -15 175 -17 647 -18
543 0 651 -6 705 -36 17 -10 -1504 -12 -1627 -2 -46 3 -83 9 -83 12 0 4 19 13
42 21 141 50 -31 80 -464 80 -376 1 -628 21 -628 50 0 12 70 28 170 39 144 17
179 17 260 3 49 -9 116 -11 195 -8z m-761 6 c18 -6 26 -17 26 -34 0 -22 -5
-24 -65 -31 -121 -13 -143 23 -38 61 47 16 46 16 77 4z m10791 -19 c3 -5 1
-12 -5 -16 -5 -3 -10 1 -10 9 0 18 6 21 15 7z m-7331 -30 c52 -1 22 -10 -74
-22 -125 -15 -142 -22 -134 -54 3 -14 3 -25 0 -25 -13 0 -231 92 -241 102 -7
6 6 7 36 3 74 -11 212 -10 232 1 11 6 43 7 85 3 37 -5 80 -8 96 -8z m7065 -28
c-15 -18 -18 -17 -28 10 -12 31 -2 41 20 21 14 -13 16 -20 8 -31z m-91 -5 c3
-38 3 -38 -35 -38 -22 0 -48 6 -58 14 -17 12 -18 16 -5 31 18 22 49 35 75 32
15 -2 21 -11 23 -39z m162 26 c0 -16 -23 -44 -35 -44 -19 0 -19 9 2 32 16 17
33 24 33 12z m-603 -30 c8 -23 -7 -32 -57 -36 -57 -4 -66 12 -20 34 43 22 69
23 77 2z m122 -3 c9 -6 10 -10 2 -16 -15 -8 -41 1 -41 15 0 12 20 13 39 1z
m157 -16 c-21 -16 -56 -20 -56 -7 0 16 13 22 44 22 29 -1 30 -1 12 -15z
m-9585 -28 c-13 -13 -26 -3 -16 12 3 6 11 8 17 5 6 -4 6 -10 -1 -17z m1534 14
c3 -5 1 -12 -5 -16 -5 -3 -10 1 -10 9 0 18 6 21 15 7z m8413 -13 c18 -18 15
-28 -8 -28 -11 0 -20 2 -20 4 0 2 -3 11 -6 20 -7 19 16 22 34 4z m-10178 -21
c23 -12 54 -37 68 -55 23 -30 24 -32 4 -32 -11 0 -33 7 -48 15 -16 8 -43 15
-61 15 -48 0 -128 19 -149 36 -18 14 -18 14 0 29 31 24 134 20 186 -8z m-290
-4 c33 -6 34 -7 10 -14 -34 -10 -210 -9 -235 1 -19 7 -18 8 5 13 14 4 34 8 45
11 22 5 120 -1 175 -11z m826 2 c20 -8 34 -20 32 -27 -6 -18 -101 -31 -171
-24 -70 7 -82 13 -66 32 27 33 146 44 205 19z m9704 6 c0 -6 -4 -13 -10 -16
-5 -3 -10 1 -10 9 0 9 5 16 10 16 6 0 10 -4 10 -9z m-4310 -5 c0 -3 -4 -8 -10
-11 -5 -3 -10 -1 -10 4 0 6 5 11 10 11 6 0 10 -2 10 -4z m3950 -6 c0 -5 -4
-10 -10 -10 -5 0 -10 5 -10 10 0 6 5 10 10 10 6 0 10 -4 10 -10z m132 -12 c-7
-7 -12 -8 -12 -2 0 14 12 26 19 19 2 -3 -1 -11 -7 -17z m-6352 -3 c272 -3 508
-8 524 -12 93 -18 -170 -46 -439 -46 -374 -1 -1125 15 -1125 24 0 33 104 45
345 42 110 -1 423 -5 695 -8z m1942 -5 c68 -6 190 -12 272 -13 100 -1 151 -6
153 -13 8 -24 -38 -29 -272 -30 -132 -2 -292 -5 -355 -8 -103 -5 -265 5 -314
20 -31 10 -1 27 72 40 85 15 286 17 444 4z m4683 0 c3 -5 1 -10 -4 -10 -6 0
-11 5 -11 10 0 6 2 10 4 10 3 0 8 -4 11 -10z m-259 -103 c-15 -49 -17 -52 -26
-37 -11 18 -13 103 -3 114 9 8 34 -59 29 -77z m-10439 -4 c4 -11 -28 -23 -64
-23 -14 0 -23 6 -23 15 0 31 77 38 87 8z m-342 -3 c-3 -5 -12 -10 -20 -10 -8
0 -17 5 -20 10 -4 6 5 10 20 10 15 0 24 -4 20 -10z m4985 6 c0 -3 -4 -8 -10
-11 -5 -3 -10 -1 -10 4 0 6 5 11 10 11 6 0 10 -2 10 -4z m1840 -6 c0 -5 -2
-10 -4 -10 -3 0 -8 5 -11 10 -3 6 -1 10 4 10 6 0 11 -4 11 -10z m1640 6 c0
-11 -19 -15 -25 -6 -3 5 1 10 9 10 9 0 16 -2 16 -4z m1370 -5 c0 -6 -4 -13
-10 -16 -5 -3 -10 1 -10 9 0 9 5 16 10 16 6 0 10 -4 10 -9z m-9750 -20 c0 -12
-29 -35 -36 -28 -11 10 5 37 21 37 8 0 15 -4 15 -9z m653 2 c-7 -2 -21 -2 -30
0 -10 3 -4 5 12 5 17 0 24 -2 18 -5z m367 -2 c0 -12 -56 -25 -70 -16 -6 3 -8
11 -5 16 8 12 75 12 75 0z m2915 -7 c583 -3 1339 -7 1680 -10 341 -3 656 -5
699 -5 44 1 76 -3 70 -7 -5 -5 -82 -19 -171 -31 -89 -12 -184 -28 -213 -36
-31 -8 -61 -10 -79 -5 -15 4 -79 11 -141 15 -62 4 -126 11 -141 15 -17 5 -31
4 -38 -3 -15 -15 -135 -13 -267 4 -55 6 -152 12 -216 13 -104 1 -119 -1 -131
-18 -16 -21 -38 -21 -252 9 -138 18 -187 19 -255 1 -42 -11 -71 -12 -120 -5
-60 9 -1660 33 -2060 32 -96 -1 -332 3 -525 8 -788 21 -531 39 455 32 355 -3
1122 -7 1705 -9z m2945 -4 c0 -11 -4 -20 -10 -20 -5 0 -10 9 -10 20 0 11 5 20
10 20 6 0 10 -9 10 -20z m2467 -2 c-3 -8 -6 -5 -6 6 -1 11 2 17 5 13 3 -3 4
-12 1 -19z m251 -26 l3 -43 -38 3 c-47 4 -55 29 -22 64 34 36 53 27 57 -24z
m-9728 28 c0 -5 -4 -10 -10 -10 -5 0 -10 5 -10 10 0 6 5 10 10 10 6 0 10 -4
10 -10z m9550 0 c0 -5 -2 -10 -4 -10 -3 0 -8 5 -11 10 -3 6 -1 10 4 10 6 0 11
-4 11 -10z m1390 -4 c0 -3 -4 -8 -10 -11 -5 -3 -10 -1 -10 4 0 6 5 11 10 11 6
0 10 -2 10 -4z m190 -13 c0 -5 -5 -15 -10 -23 -8 -12 -10 -11 -10 8 0 12 5 22
10 22 6 0 10 -3 10 -7z m-10705 -13 c3 -5 -1 -10 -9 -10 -9 0 -16 5 -16 10 0
6 4 10 9 10 6 0 13 -4 16 -10z m6395 0 c0 -6 -34 -10 -82 -9 -57 1 -75 4 -58
9 37 12 140 12 140 0z m305 0 c3 -5 -1 -10 -9 -10 -9 0 -16 5 -16 10 0 6 4 10
9 10 6 0 13 -4 16 -10z m2713 -18 c3 -19 -1 -22 -27 -22 -35 0 -39 11 -15 35
21 20 38 15 42 -13z m482 18 c0 -5 -5 -10 -11 -10 -5 0 -7 5 -4 10 3 6 8 10
11 10 2 0 4 -4 4 -10z m-1677 -7 c220 -6 266 -13 172 -28 -26 -3 -72 -15 -103
-25 -53 -18 -58 -18 -75 -2 -17 15 -50 17 -271 19 -138 1 -269 2 -291 3 -22 0
-98 0 -170 -1 -128 -2 -245 13 -245 32 0 11 643 12 983 2z m-1583 -48 c-22
-27 -31 -15 -13 18 13 25 18 28 21 14 2 -10 -2 -24 -8 -32z m3710 25 c0 -5 -5
-10 -11 -10 -5 0 -7 5 -4 10 3 6 8 10 11 10 2 0 4 -4 4 -10z m-8620 -10 c0 -5
-2 -10 -4 -10 -3 0 -8 5 -11 10 -3 6 -1 10 4 10 6 0 11 -4 11 -10z m8898 -1
c-2 -6 -8 -10 -13 -10 -5 0 -11 4 -13 10 -2 6 4 11 13 11 9 0 15 -5 13 -11z
m-648 -34 c0 -24 -5 -35 -15 -35 -15 0 -20 26 -9 54 11 28 24 17 24 -19z
m-5100 -1 c0 -8 -4 -12 -10 -9 -5 3 -10 10 -10 16 0 5 5 9 10 9 6 0 10 -7 10
-16z m259 -23 c-23 -31 -47 -46 -58 -35 -3 3 11 21 32 41 45 41 59 38 26 -6z
m3531 19 c9 -18 8 -20 -15 -20 -18 0 -25 5 -25 20 0 11 7 20 15 20 8 0 19 -9
25 -20z m-249 0 c34 -18 24 -48 -18 -56 -21 -4 -43 -11 -49 -15 -17 -14 -5 42
14 64 17 20 26 21 53 7z m1778 -3 c6 -8 18 -33 26 -57 17 -48 11 -60 -32 -60
-38 0 -54 51 -33 104 11 29 22 33 39 13z m-2282 -3 c-3 -3 -12 -4 -19 -1 -8 3
-5 6 6 6 11 1 17 -2 13 -5z m2563 -12 c0 -21 -18 -42 -37 -42 -11 0 -10 6 2
30 17 33 35 40 35 12z m-5490 -8 c0 -8 -4 -12 -10 -9 -5 3 -10 10 -10 16 0 5
5 9 10 9 6 0 10 -7 10 -16z m3578 0 c30 -21 28 -34 -7 -34 -33 0 -46 13 -37
35 7 19 16 19 44 -1z m-3693 -13 c3 -5 1 -12 -5 -16 -5 -3 -10 1 -10 9 0 18 6
21 15 7z m3783 -13 c14 -14 16 -38 4 -38 -5 0 -14 11 -20 25 -12 26 -4 33 16
13z m1682 -23 c-7 -8 -16 -15 -21 -15 -14 0 -10 17 8 36 20 20 32 1 13 -21z
m260 -16 c0 -18 -2 -19 -15 -9 -8 7 -15 16 -15 21 0 5 7 9 15 9 9 0 15 -9 15
-21z m-1340 1 c0 -5 -2 -10 -4 -10 -3 0 -8 5 -11 10 -3 6 -1 10 4 10 6 0 11
-4 11 -10z m-3215 -19 c3 -5 1 -12 -5 -16 -5 -3 -10 1 -10 9 0 18 6 21 15 7z
m2687 -13 c-7 -7 -12 -8 -12 -2 0 14 12 26 19 19 2 -3 -1 -11 -7 -17z m908 7
c0 -8 -4 -15 -10 -15 -5 0 -10 7 -10 15 0 8 5 15 10 15 6 0 10 -7 10 -15z
m-10020 -265 c0 -5 -4 -10 -10 -10 -5 0 -10 5 -10 10 0 6 5 10 10 10 6 0 10
-4 10 -10z m185 -190 c3 -5 -1 -10 -9 -10 -9 0 -16 5 -16 10 0 6 4 10 9 10 6
0 13 -4 16 -10z m-123 -135 c0 -5 -5 -11 -11 -13 -6 -2 -11 4 -11 13 0 9 5 15
11 13 6 -2 11 -8 11 -13z m-72 -95 c0 -5 -4 -10 -10 -10 -5 0 -10 5 -10 10 0
6 5 10 10 10 6 0 10 -4 10 -10z m-70 -64 c0 -3 -4 -8 -10 -11 -5 -3 -10 -1
-10 4 0 6 5 11 10 11 6 0 10 -2 10 -4z m39 -57 c13 -38 3 -60 -16 -34 -15 21
-18 65 -4 65 5 0 14 -14 20 -31z m-377 -284 c26 -3 57 -15 70 -25 l23 -19 -20
-20 c-26 -26 -113 -57 -196 -70 -231 -36 -477 -15 -601 51 -126 67 -91 78 260
79 152 0 295 4 317 8 40 8 56 7 147 -4z m-592 -175 c0 -5 -5 -10 -11 -10 -5 0
-7 5 -4 10 3 6 8 10 11 10 2 0 4 -4 4 -10z"/>
<path d="M1150 4301 c0 -6 5 -13 10 -16 6 -3 10 1 10 9 0 9 -4 16 -10 16 -5 0
-10 -4 -10 -9z"/>
<path d="M9135 3303 c-22 -2 -51 -6 -65 -9 -53 -13 15 -19 145 -14 73 3 119 8
105 12 -32 9 -133 14 -185 11z"/>
<path d="M11720 3068 c-22 -10 -14 -13 60 -19 47 -4 101 -5 120 -2 l35 6 -30
13 c-37 16 -151 17 -185 2z"/>
<path d="M10880 3054 c-91 -6 -190 -13 -220 -14 l-55 -3 70 -9 c78 -11 612 17
630 33 13 12 -224 9 -425 -7z"/>
<path d="M11412 3060 c-54 -23 12 -63 131 -81 43 -6 81 -9 84 -5 10 9 -28 46
-69 67 -46 24 -115 32 -146 19z"/>
<path d="M10032 3039 c3 -8 34 -27 71 -43 59 -26 69 -28 96 -16 17 7 31 17 31
22 0 16 -69 39 -137 45 -54 5 -65 4 -61 -8z"/>
<path d="M10310 3041 c-23 -7 -21 -8 15 -14 79 -13 152 -6 139 14 -6 10 -117
10 -154 0z"/>
<path d="M9165 3030 c3 -5 34 -10 68 -10 44 0 58 3 47 10 -20 13 -123 13 -115
0z"/>
<path d="M11800 2950 c0 -9 34 -20 145 -49 42 -11 62 -3 52 22 -10 28 -197 54
-197 27z"/>
<path d="M10295 2521 c-3 -5 -1 -12 5 -16 5 -3 10 1 10 9 0 18 -6 21 -15 7z"/>
<path d="M10835 2350 c-3 -5 -1 -10 4 -10 6 0 11 5 11 10 0 6 -2 10 -4 10 -3
0 -8 -4 -11 -10z"/>
<path d="M1215 3091 c-16 -10 -38 -27 -48 -39 -19 -20 -18 -21 25 -27 53 -8
121 13 126 38 9 45 -49 61 -103 28z"/>
<path d="M293 3081 c-58 -10 -62 -18 -16 -30 89 -25 232 -34 483 -28 319 7
384 21 215 48 -84 13 -622 21 -682 10z"/>
<path d="M243 1685 c6 -17 108 -46 197 -56 116 -12 810 -12 810 1 0 24 -46 49
-109 59 -86 14 -902 10 -898 -4z"/>
<path d="M253 1543 c-23 -9 -14 -31 20 -52 32 -19 49 -20 487 -21 250 -1 468
1 483 5 43 11 27 29 -39 43 -41 9 -105 11 -209 7 -93 -3 -224 0 -345 10 -191
14 -373 18 -397 8z"/>
<path d="M265 1391 c-16 -3 -30 -11 -30 -16 1 -16 66 -43 135 -55 57 -10 860
-21 860 -12 0 20 -30 44 -73 58 -44 14 -108 17 -419 20 -202 1 -384 4 -405 7
-21 3 -51 2 -68 -2z"/>
<path d="M481 1230 c-228 -5 -263 -12 -209 -41 28 -15 800 -33 900 -20 l63 8
-46 21 c-28 13 -84 26 -140 32 -95 10 -164 10 -568 0z"/>
<path d="M1974 3240 c-73 -10 -144 -28 -144 -37 0 -8 620 5 675 14 l40 6 -30
9 c-41 13 -465 19 -541 8z"/>
<path d="M2681 3231 c-26 -16 76 -26 254 -24 219 2 389 14 355 24 -36 10 -592
10 -609 0z"/>
<path d="M5335 3275 c-5 -2 -23 -6 -39 -10 -28 -6 -28 -6 -10 -26 14 -15 26
-19 49 -15 16 3 147 6 290 6 328 -1 917 18 947 29 41 15 -179 21 -712 20 -283
-1 -519 -3 -525 -4z"/>
<path d="M8105 3044 c-124 -17 -122 -17 -90 -25 66 -15 346 -4 320 13 -13 8
-190 18 -230 12z"/>
<path d="M7251 2871 c-10 -6 -2 -11 27 -16 45 -7 74 2 51 16 -18 11 -60 11
-78 0z"/>
<path d="M7445 2860 c68 -11 515 -11 540 0 12 5 -107 8 -285 8 -184 0 -285 -4
-255 -8z"/>
<path d="M8772 2781 c-53 -9 -69 -23 -47 -41 13 -11 59 -14 193 -14 176 1 252
8 235 24 -21 22 -303 44 -381 31z"/>
<path d="M6799 2657 c-30 -7 -70 -22 -88 -34 l-33 -21 289 -7 c317 -8 433 -1
433 26 0 5 -35 9 -78 9 -43 0 -127 6 -188 14 -173 23 -273 27 -335 13z"/>
<path d="M8860 2631 c0 -9 11 -28 25 -41 21 -20 28 -22 49 -12 52 23 119 24
228 3 87 -17 130 -19 240 -15 216 8 246 20 122 49 -86 19 -161 25 -426 30
-224 4 -238 3 -238 -14z"/>
<path d="M4370 2878 c-24 -10 -24 -10 -5 -18 49 -21 108 -3 66 19 -23 13 -28
13 -61 -1z"/>
<path d="M4595 2870 c19 -8 93 -14 84 -6 -2 2 -26 6 -54 9 -32 4 -43 3 -30 -3z"/>
<path d="M3040 2550 c0 -5 7 -10 15 -10 8 0 15 5 15 10 0 6 -7 10 -15 10 -8 0
-15 -4 -15 -10z"/>
<path d="M12195 2550 c-3 -5 -1 -10 4 -10 6 0 11 5 11 10 0 6 -2 10 -4 10 -3
0 -8 -4 -11 -10z"/>
</g>
</svg>
