<?xml version="1.0" standalone="no"?>
<!DOCTYPE svg PUBLIC "-//W3C//DTD SVG 20010904//EN"
 "http://www.w3.org/TR/2001/REC-SVG-20010904/DTD/svg10.dtd">
<svg version="1.0" xmlns="http://www.w3.org/2000/svg"
 width="1280.000000pt" height="971.000000pt" viewBox="0 0 1280.000000 971.000000"
 preserveAspectRatio="xMidYMid meet">
<metadata>
Created by potrace 1.15, written by Peter Selinger 2001-2017
</metadata>
<g transform="translate(0.000000,971.000000) scale(0.100000,-0.100000)"
fill="#ff9800" stroke="none">
<path d="M5935 9636 c-113 -36 -181 -85 -411 -295 -180 -164 -261 -229 -334
-266 -25 -13 -82 -52 -125 -87 -133 -107 -300 -228 -623 -450 -379 -261 -549
-384 -700 -508 -64 -53 -274 -208 -467 -345 -380 -270 -710 -509 -987 -717
-97 -73 -236 -172 -310 -220 -73 -48 -225 -159 -338 -248 -303 -238 -514 -397
-610 -459 -47 -30 -113 -83 -146 -117 -73 -74 -160 -138 -349 -259 -77 -50
-174 -117 -216 -151 -41 -34 -102 -74 -135 -90 -124 -59 -193 -155 -181 -253
13 -106 80 -206 321 -481 156 -177 226 -266 342 -435 161 -232 248 -329 380
-416 28 -19 67 -54 86 -79 55 -72 107 -103 182 -108 108 -7 196 48 426 262
149 140 203 183 295 234 39 21 158 106 266 189 368 282 910 680 1264 928 94
65 195 140 225 165 91 77 244 190 450 331 107 73 229 164 270 202 149 138 318
237 475 277 160 42 366 25 549 -44 196 -74 284 -8 401 299 41 109 76 165 103
165 26 -1 55 -29 100 -96 22 -33 63 -85 89 -115 70 -77 154 -183 358 -448 99
-129 227 -291 285 -360 58 -69 280 -351 494 -626 598 -771 858 -1098 1136
-1425 59 -69 139 -172 180 -230 113 -162 297 -401 610 -795 157 -198 317 -400
355 -450 38 -49 115 -146 170 -215 56 -69 178 -226 271 -350 184 -246 285
-370 379 -470 34 -36 106 -130 160 -210 187 -275 359 -501 564 -739 l115 -133
57 5 c108 10 182 57 395 251 60 55 132 114 159 132 28 17 61 44 75 59 33 37
158 133 310 240 293 207 393 303 462 441 29 59 38 87 31 96 -6 7 -91 112 -189
233 -249 306 -499 623 -854 1085 -167 217 -363 472 -435 565 -73 94 -204 267
-292 385 -239 323 -364 464 -474 537 -28 18 -56 56 -105 142 -190 328 -292
475 -424 611 -108 111 -192 216 -450 560 -117 157 -241 319 -275 360 -34 41
-100 127 -147 190 -48 63 -189 237 -314 385 -125 149 -260 313 -300 365 -41
52 -174 223 -296 380 -122 157 -402 517 -623 800 -1015 1303 -1362 1733 -1432
1778 -81 51 -165 64 -248 38z m45 -306 c-19 -13 -30 -13 -30 0 0 6 10 10 23
10 18 0 19 -2 7 -10z m-424 -102 c13 -25 14 -32 2 -39 -40 -25 -72 15 -48 60
13 26 25 20 46 -21z m588 -18 c58 -28 106 -55 106 -60 0 -5 10 -18 22 -30 12
-11 17 -20 10 -20 -6 0 16 -42 50 -92 66 -101 69 -105 268 -348 135 -165 224
-286 273 -370 14 -25 67 -94 118 -155 134 -161 207 -253 510 -646 439 -570
692 -878 732 -891 12 -4 47 -15 79 -24 86 -25 114 -60 145 -180 32 -128 59
-177 158 -282 109 -117 181 -204 247 -298 63 -90 123 -194 113 -194 -11 0 -75
40 -119 74 -57 45 -172 180 -309 361 -160 211 -259 336 -264 331 -9 -8 92
-196 155 -286 70 -103 124 -170 332 -415 74 -88 163 -196 197 -240 33 -44 75
-93 93 -110 47 -44 153 -181 260 -335 258 -371 386 -499 553 -554 17 -5 17 -7
3 -22 -38 -38 -29 -102 29 -199 51 -84 118 -159 202 -226 100 -80 173 -101
173 -49 0 25 5 25 46 -1 41 -25 42 -35 9 -79 -27 -37 -33 -87 -14 -123 7 -12
62 -85 123 -162 62 -77 195 -252 296 -390 101 -137 238 -317 304 -399 283
-348 322 -397 415 -521 54 -71 153 -209 220 -305 173 -249 155 -227 175 -211
39 33 8 115 -99 256 -61 82 -107 135 -348 409 -54 61 -114 138 -134 171 -51
87 -119 178 -270 363 -151 183 -233 293 -233 310 0 34 41 -2 152 -135 162
-194 319 -396 623 -798 137 -181 306 -402 375 -491 116 -147 126 -162 109
-173 -27 -16 -24 -75 7 -141 34 -73 135 -224 224 -333 39 -49 70 -90 68 -92
-2 -3 -20 1 -40 7 -89 27 -204 151 -383 413 -144 212 -205 294 -288 389 -92
107 -155 188 -396 511 -98 132 -223 290 -277 351 -131 146 -172 198 -367 468
-228 315 -334 450 -442 564 -51 54 -178 213 -283 354 -358 483 -1016 1317
-1157 1468 -101 107 -135 151 -289 373 -178 255 -260 355 -337 406 -58 39 -79
48 -79 35 0 -19 779 -1014 1472 -1880 62 -77 196 -248 298 -380 101 -131 227
-288 280 -349 52 -60 226 -283 385 -495 160 -212 379 -495 486 -630 108 -135
366 -470 574 -745 208 -275 430 -565 493 -645 156 -195 253 -360 212 -360 -57
0 -326 293 -396 432 -22 43 -314 436 -614 823 -68 88 -165 204 -215 257 -50
53 -143 169 -206 259 -63 89 -158 224 -212 301 -54 76 -127 170 -163 208 -64
67 -155 135 -172 128 -5 -1 148 -203 340 -448 393 -502 681 -877 787 -1026 39
-55 149 -199 243 -320 274 -352 377 -496 468 -658 l34 -60 -48 35 c-120 85
-241 226 -470 547 -76 107 -261 348 -410 535 -150 188 -452 574 -671 857 -731
944 -847 1093 -1095 1405 -135 171 -417 526 -625 790 -508 644 -842 1063
-1117 1402 -125 155 -238 299 -250 320 -54 93 -100 149 -336 403 -251 271
-304 365 -235 420 14 11 30 19 34 18 4 -2 61 -77 127 -167 224 -305 606 -782
979 -1225 75 -88 145 -170 155 -181 18 -20 19 -19 4 21 -43 124 -143 261 -362
499 -155 169 -238 273 -273 342 -31 63 -107 158 -269 340 -178 200 -234 275
-280 373 -43 92 -48 171 -14 236 37 72 46 73 94 18 71 -83 161 -169 165 -157
14 41 -202 359 -355 525 -32 35 -86 97 -120 139 -34 42 -117 137 -184 210
-176 191 -251 282 -313 376 -178 270 -199 306 -188 317 8 8 -4 12 117 -44z
m-784 -98 c0 -16 -30 -50 -50 -55 -28 -7 -25 9 6 38 27 25 44 32 44 17z m273
-66 c105 -25 176 -96 177 -178 0 -62 -41 -139 -118 -219 -41 -44 -71 -79 -67
-79 4 0 36 18 71 40 118 75 221 101 276 72 26 -15 58 -61 58 -85 0 -9 -26 -40
-57 -71 -75 -72 -68 -80 70 -84 56 -1 112 -5 125 -7 34 -8 29 -54 -12 -108
l-34 -45 46 -7 c104 -15 187 -82 180 -143 -2 -18 -2 -31 1 -29 76 44 148 56
180 30 20 -16 23 -27 22 -85 0 -37 -7 -82 -14 -100 -8 -18 -66 -83 -129 -144
-321 -310 -422 -339 -405 -114 4 43 11 99 18 124 27 106 -13 228 -101 310 -64
60 -122 88 -197 94 -61 5 -66 3 -145 -43 -118 -68 -188 -122 -188 -145 0 -11
13 -44 29 -73 38 -68 56 -152 55 -257 -1 -75 -7 -101 -53 -228 -68 -190 -66
-242 8 -305 l30 -25 -30 -60 c-56 -113 -109 -156 -481 -392 -107 -68 -233
-184 -256 -235 -53 -117 -61 -123 -221 -165 -144 -38 -211 -72 -291 -146 -36
-34 -132 -108 -215 -165 -178 -123 -453 -322 -813 -589 -144 -107 -360 -267
-480 -355 -120 -88 -250 -185 -288 -216 -98 -79 -100 -79 -39 6 64 90 72 118
23 84 -95 -66 -253 -192 -326 -261 -46 -43 -127 -108 -180 -145 -212 -146
-342 -259 -414 -359 -85 -119 -195 -72 -341 145 -39 58 -103 140 -143 182 -39
41 -81 94 -93 117 -29 57 -28 125 4 180 l24 42 -27 -7 c-99 -28 -226 20 -332
126 -134 135 -194 312 -142 423 19 42 5 30 661 516 233 173 510 380 615 461
105 81 236 176 291 213 139 92 293 218 413 337 67 67 108 101 123 101 28 0 65
22 321 190 186 123 403 248 413 238 4 -4 -435 -371 -682 -571 -151 -122 -438
-340 -588 -447 -49 -35 -153 -116 -230 -180 -77 -65 -315 -255 -530 -425 -473
-374 -615 -491 -615 -510 0 -42 75 8 355 235 116 94 243 193 283 220 40 27
190 145 335 263 391 319 1280 1021 1364 1078 102 69 190 146 383 334 177 172
278 260 319 278 14 6 76 52 136 102 255 210 412 328 640 482 168 113 237 170
481 391 93 85 188 165 211 179 24 13 73 55 110 92 58 57 79 71 143 94 114 40
186 46 283 23z m427 -276 c-1 -12 -4 -11 -15 4 -8 10 -12 23 -8 29 7 11 23
-12 23 -33z m391 -525 c-1 -15 -24 -12 -29 3 -3 9 2 13 12 10 10 -1 17 -7 17
-13z m209 -143 c0 -13 -12 -22 -22 -16 -10 6 -1 24 13 24 5 0 9 -4 9 -8z
m-2583 -18 c-3 -3 -12 -4 -19 -1 -8 3 -5 6 6 6 11 1 17 -2 13 -5z m1645 -123
c13 -11 39 -46 56 -78 30 -57 31 -61 21 -124 -5 -35 -14 -266 -19 -514 -11
-519 -20 -611 -84 -815 l-14 -45 -78 3 c-102 4 -180 26 -215 62 -49 48 -37 98
71 284 109 189 124 233 125 346 0 81 -4 102 -24 140 -30 58 -38 188 -22 360
20 199 52 327 96 374 29 31 54 33 87 7z m1166 -23 c-3 -7 -11 -13 -18 -13 -7
0 -15 6 -17 13 -3 7 4 12 17 12 13 0 20 -5 18 -12z m-377 -101 c-13 -13 -26
-3 -16 12 3 6 11 8 17 5 6 -4 6 -10 -1 -17z m-2828 7 c8 -8 -3 -34 -14 -34 -5
0 -9 9 -9 20 0 19 11 26 23 14z m3007 -182 c0 -13 -12 -22 -22 -16 -10 6 -1
24 13 24 5 0 9 -4 9 -8z m-855 -171 c3 -5 1 -12 -5 -16 -5 -3 -10 1 -10 9 0
18 6 21 15 7z m908 -51 c96 -61 215 -197 259 -297 11 -26 87 -126 167 -223
278 -332 378 -456 681 -845 167 -214 601 -763 965 -1220 923 -1158 1066 -1342
2011 -2570 220 -286 533 -691 695 -900 407 -525 439 -569 439 -605 0 -40 -120
41 -231 156 -36 38 -99 119 -139 179 -84 125 -225 313 -439 584 -81 102 -309
398 -506 656 -521 681 -945 1223 -1124 1435 -30 36 -147 189 -260 340 -112
151 -231 309 -265 350 -86 107 -258 282 -346 353 -70 56 -79 68 -132 173 -99
199 -206 350 -356 505 -80 83 -212 192 -212 175 0 -3 51 -70 113 -149 61 -79
182 -235 267 -348 188 -248 363 -467 505 -632 118 -139 199 -242 490 -622 109
-143 244 -316 300 -385 253 -312 946 -1200 1295 -1660 119 -157 299 -388 401
-515 102 -126 220 -276 262 -332 83 -110 257 -371 257 -385 0 -10 -59 14 -120
49 -79 46 -173 153 -286 325 -59 90 -141 215 -183 278 -57 88 -110 149 -220
260 -108 109 -145 141 -148 127 -9 -34 103 -208 214 -332 24 -27 71 -86 103
-130 32 -44 107 -136 166 -205 219 -256 299 -386 279 -451 -4 -11 -20 -26 -36
-34 l-29 -15 -37 52 c-89 126 -295 395 -479 625 -293 368 -428 541 -544 703
-217 302 -534 704 -791 1001 -65 75 -164 201 -220 280 -122 172 -157 219 -447
597 -144 188 -253 319 -304 367 -44 41 -84 75 -89 75 -22 0 -4 -45 52 -131 82
-125 134 -191 229 -294 108 -116 258 -306 560 -705 139 -184 294 -384 344
-445 180 -219 289 -357 616 -790 341 -451 374 -493 565 -725 182 -220 360
-472 426 -602 51 -100 38 -103 -60 -12 -39 36 -106 112 -149 168 -44 56 -148
185 -232 286 -159 192 -291 365 -350 460 -19 30 -80 109 -135 175 -99 119
-289 363 -500 645 -277 370 -436 558 -465 548 -8 -2 0 -26 23 -70 53 -102 117
-191 233 -328 223 -262 447 -550 720 -927 77 -105 232 -305 345 -445 279 -343
397 -504 493 -669 26 -45 26 -47 8 -69 -28 -35 -55 -18 -117 73 -142 209 -249
347 -485 622 -187 219 -310 379 -373 487 -25 41 -82 120 -128 175 -46 55 -184
234 -305 399 -122 164 -262 346 -310 404 -48 58 -135 168 -193 245 -58 77
-229 295 -381 485 -152 190 -298 376 -325 414 -66 94 -165 212 -329 391 -76
83 -163 184 -194 225 -31 41 -76 97 -100 124 -24 28 -106 144 -183 258 -148
220 -282 395 -331 431 -16 12 -59 62 -96 111 -63 86 -160 201 -340 406 -46 52
-110 138 -142 191 -75 121 -200 295 -304 424 -95 118 -288 319 -361 375 -38
29 -55 51 -64 80 -7 23 -64 110 -131 199 -162 217 -187 271 -127 271 16 0 37
-16 68 -54 24 -29 114 -136 200 -237 301 -356 681 -831 1085 -1355 196 -253
446 -570 672 -849 53 -66 147 -171 208 -235 60 -63 125 -140 144 -170 57 -93
190 -277 284 -394 154 -190 547 -646 557 -646 51 0 -227 393 -516 730 -45 52
-122 147 -171 210 -48 63 -296 374 -549 690 -253 316 -532 670 -620 785 -216
284 -355 457 -645 805 -293 352 -548 663 -578 707 -23 33 -29 63 -11 63 40 0
222 -161 298 -263 21 -29 49 -61 61 -72 81 -71 307 -345 605 -735 120 -157
235 -304 257 -328 35 -38 127 -161 352 -467 175 -239 292 -355 358 -355 28 0
24 6 -95 153 -68 83 -260 328 -427 542 -545 700 -730 928 -914 1130 -275 301
-405 493 -365 541 6 8 15 14 18 14 9 0 374 -388 489 -519 47 -53 137 -166 201
-251 141 -187 987 -1257 1264 -1600 227 -279 635 -790 747 -932 67 -87 102
-118 130 -118 19 0 10 37 -21 85 -49 77 -141 195 -324 415 -94 113 -216 264
-270 335 -247 324 -524 673 -715 900 -69 83 -191 236 -270 340 -295 388 -588
754 -864 1079 -89 103 -178 212 -198 241 -141 198 114 73 275 -135 28 -37 97
-121 152 -186 55 -66 197 -245 314 -399 458 -598 648 -828 659 -797 8 25 -144
265 -243 382 -218 258 -898 1115 -961 1210 -77 117 -67 151 29 90z m-1233
-110 c0 -5 -7 -10 -15 -10 -8 0 -15 5 -15 10 0 6 7 10 15 10 8 0 15 -4 15 -10z
m-2885 -230 c-3 -5 -10 -10 -16 -10 -5 0 -9 5 -9 10 0 6 7 10 16 10 8 0 12 -4
9 -10z m5586 -343 c-13 -13 -26 -3 -16 12 3 6 11 8 17 5 6 -4 6 -10 -1 -17z
m-6164 -79 c-3 -8 -6 -5 -6 6 -1 11 2 17 5 13 3 -3 4 -12 1 -19z m6277 0 c22
-32 20 -37 -19 -54 -58 -24 -75 -18 -36 15 23 18 30 30 22 35 -12 8 -6 26 9
26 5 0 16 -10 24 -22z m99 -64 c-8 -23 -33 3 -33 35 l1 26 19 -23 c10 -13 16
-30 13 -38z m-2083 -230 c0 -8 -4 -12 -10 -9 -5 3 -10 13 -10 21 0 8 5 12 10
9 6 -3 10 -13 10 -21z m-4950 -224 c0 -16 -40 -51 -50 -45 -14 8 -12 29 2 43
15 15 48 16 48 2z m-196 -104 c-3 -9 -10 -16 -15 -16 -11 0 -12 21 -3 45 6 15
8 15 16 2 4 -8 5 -22 2 -31z m3334 -47 c-2 -6 -8 -10 -13 -10 -5 0 -11 4 -13
10 -2 6 4 11 13 11 9 0 15 -5 13 -11z m-98 -18 c0 -5 -7 -14 -15 -21 -12 -10
-15 -10 -15 2 0 8 3 18 7 21 9 10 23 9 23 -2z m4404 -22 c-3 -5 -10 -7 -15 -3
-5 3 -7 10 -3 15 3 5 10 7 15 3 5 -3 7 -10 3 -15z m271 -268 c3 -5 1 -12 -5
-16 -5 -3 -10 1 -10 9 0 18 6 21 15 7z m-2081 -151 c-14 -14 -38 5 -30 26 6
16 8 16 23 1 11 -11 14 -20 7 -27z m2176 -201 c139 -170 300 -382 384 -504 83
-122 79 -114 61 -121 -22 -9 -75 43 -131 129 -24 37 -65 99 -91 138 -25 39
-96 127 -157 196 -197 223 -226 264 -204 291 6 6 13 12 17 12 3 -1 58 -64 121
-141z m34 126 c-4 -8 -13 -15 -21 -15 -13 0 -13 3 -3 15 7 8 16 15 21 15 5 0
6 -7 3 -15z m80 -56 c-8 -13 -24 -1 -24 18 0 13 3 13 15 3 8 -7 12 -16 9 -21z
m-2149 -9 c-3 -5 -13 -10 -21 -10 -8 0 -14 5 -14 10 0 6 9 10 21 10 11 0 17
-4 14 -10z m2103 -48 c2 -7 -3 -12 -12 -12 -9 0 -16 7 -16 16 0 17 22 14 28
-4z m32 -43 c0 -5 -4 -9 -10 -9 -5 0 -10 7 -10 16 0 8 5 12 10 9 6 -3 10 -10
10 -16z m-1932 -69 c-8 -25 -28 -51 -28 -37 0 15 24 67 30 67 5 0 4 -14 -2
-30z m2042 -24 c0 -8 -4 -18 -10 -21 -5 -3 -10 3 -10 14 0 12 5 21 10 21 6 0
10 -6 10 -14z m94 5 c3 -5 -1 -12 -10 -15 -22 -9 -24 -8 -24 9 0 16 25 21 34
6z m-9155 -252 c57 -57 138 -144 180 -194 41 -49 146 -171 231 -270 277 -320
410 -488 519 -658 38 -59 43 -71 35 -98 -9 -31 -9 -31 -217 214 -265 312 -479
573 -620 757 -61 80 -143 186 -182 235 -159 200 -139 206 54 14z m7163 -11 c7
-18 -2 -39 -13 -32 -12 7 -12 44 0 44 5 0 11 -6 13 -12z m2133 -38 c-5 -8 -11
-8 -17 -2 -6 6 -7 16 -3 22 5 8 11 8 17 2 6 -6 7 -16 3 -22z m-2028 -6 c-3 -3
-12 -4 -19 -1 -8 3 -5 6 6 6 11 1 17 -2 13 -5z m2063 -79 c0 -8 -4 -17 -10
-20 -6 -4 -10 5 -10 20 0 15 4 24 10 20 6 -3 10 -12 10 -20z m-1911 -102 c-15
-18 -34 -1 -25 22 5 14 9 15 21 5 12 -10 13 -16 4 -27z m1951 -98 c20 -24 6
-28 -15 -5 -10 11 -13 20 -8 20 6 0 16 -7 23 -15z m-7530 -15 c-11 -20 -30
-28 -30 -12 0 11 22 32 32 32 5 0 4 -9 -2 -20z m5635 0 c-3 -5 -10 -10 -16
-10 -5 0 -9 5 -9 10 0 6 7 10 16 10 8 0 12 -4 9 -10z m1989 -72 c51 -59 53
-63 30 -72 -33 -13 -104 61 -104 107 0 31 28 18 74 -35z m-2004 17 c0 -14 -4
-25 -10 -25 -5 0 -10 11 -10 25 0 14 5 25 10 25 6 0 10 -11 10 -25z m150 -56
c0 -6 -4 -7 -10 -4 -5 3 -10 11 -10 16 0 6 5 7 10 4 6 -3 10 -11 10 -16z m89
-91 c9 -24 8 -34 -1 -40 -19 -12 -33 -4 -36 21 -8 54 20 68 37 19z m1922 -86
c6 -16 5 -22 -6 -22 -16 0 -45 38 -45 58 0 21 41 -8 51 -36z m184 -78 c29 -19
32 -32 10 -41 -18 -6 -55 23 -55 44 0 17 15 17 45 -3z m154 -17 c12 -15 5 -27
-16 -27 -7 0 -13 9 -13 20 0 23 13 26 29 7z m-203 -53 c8 -18 14 -36 14 -39 0
-10 -46 -5 -58 7 -15 15 -15 51 0 66 15 15 27 6 44 -34z m78 -11 c4 -10 -1
-25 -14 -37 l-20 -20 0 21 c0 46 22 69 34 36z m114 -15 c-6 -18 -28 -21 -28
-4 0 9 7 16 16 16 9 0 14 -5 12 -12z m-63 -57 c7 -12 -31 -25 -45 -16 -6 4 -8
11 -5 16 8 12 42 12 50 0z m-8885 -195 c0 -8 -4 -18 -10 -21 -5 -3 -10 3 -10
14 0 12 5 21 10 21 6 0 10 -6 10 -14z m9122 -41 c0 -5 -5 -11 -11 -13 -6 -2
-11 4 -11 13 0 9 5 15 11 13 6 -2 11 -8 11 -13z m104 -39 c7 -40 -3 -66 -17
-45 -12 19 -11 79 1 79 5 0 12 -15 16 -34z m-2099 -3 c6 -18 -37 -39 -47 -22
-5 7 -6 18 -3 26 6 16 45 13 50 -4z m1960 -78 c8 -22 -6 -33 -17 -15 -13 20
-12 30 0 30 6 0 13 -7 17 -15z m303 -203 c-9 -21 -13 -23 -21 -11 -10 17 -12
73 -2 83 4 4 13 -5 21 -20 11 -21 12 -32 2 -52z m-96 -63 c26 -31 33 -49 18
-49 -11 0 -36 28 -51 58 -17 32 3 27 33 -9z m-1839 -39 c-5 -8 -11 -8 -17 -2
-6 6 -7 16 -3 22 5 8 11 8 17 2 6 -6 7 -16 3 -22z m2144 -6 c9 -25 10 -39 3
-46 -8 -8 -13 -2 -17 18 -4 16 -9 37 -12 47 -9 33 13 17 26 -19z m-2079 -32
c0 -13 -12 -22 -22 -16 -10 6 -1 24 13 24 5 0 9 -4 9 -8z m2284 -213 c-3 -5
-10 -7 -15 -3 -5 3 -7 10 -3 15 3 5 10 7 15 3 5 -3 7 -10 3 -15z m-2036 -95
c-3 -43 -43 -79 -54 -51 -8 21 25 87 43 87 10 0 13 -10 11 -36z m2120 -66 c-6
-18 -28 -21 -28 -4 0 9 7 16 16 16 9 0 14 -5 12 -12z m22 -164 c0 -8 -4 -12
-10 -9 -5 3 -10 10 -10 16 0 5 5 9 10 9 6 0 10 -7 10 -16z m-1990 -113 c0 -6
-4 -13 -10 -16 -5 -3 -10 1 -10 9 0 9 5 16 10 16 6 0 10 -4 10 -9z m2300 -163
c0 -7 -5 -20 -10 -28 -8 -12 -10 -9 -10 13 0 15 5 27 10 27 6 0 10 -6 10 -12z
m-136 -15 c8 -19 -8 -38 -23 -29 -16 10 -13 46 3 46 8 0 17 -8 20 -17z m-1844
-104 c0 -5 -9 -9 -20 -9 -24 0 -35 22 -25 48 6 15 8 15 26 -7 10 -13 19 -27
19 -32z m1910 -10 c0 -5 -4 -9 -10 -9 -5 0 -10 7 -10 16 0 8 5 12 10 9 6 -3
10 -10 10 -16z m-1850 -267 c0 -13 -12 -22 -22 -16 -10 6 -1 24 13 24 5 0 9
-4 9 -8z m2205 -82 c-5 -8 -11 -8 -17 -2 -6 6 -7 16 -3 22 5 8 11 8 17 2 6 -6
7 -16 3 -22z m-2105 -19 c0 -5 -7 -11 -15 -15 -9 -3 -15 0 -15 9 0 8 7 15 15
15 8 0 15 -4 15 -9z m2200 -12 c0 -5 -4 -9 -10 -9 -5 0 -10 7 -10 16 0 8 5 12
10 9 6 -3 10 -10 10 -16z m340 -455 c0 -8 -4 -14 -10 -14 -5 0 -10 9 -10 21 0
11 5 17 10 14 6 -3 10 -13 10 -21z m-27 -68 c10 -8 15 -20 11 -30 -10 -26 -39
-15 -42 17 -4 30 4 33 31 13z m-1998 -29 c17 -13 17 -15 -6 -30 -42 -30 -76
-12 -43 24 20 23 25 23 49 6z m1960 -74 c31 -32 81 -95 112 -141 53 -79 61
-112 29 -112 -17 0 -76 48 -76 62 0 5 -20 35 -44 66 -57 75 -106 153 -106 169
0 27 30 11 85 -44z m145 -4 c0 -12 -27 -11 -35 1 -11 17 5 32 21 19 8 -6 14
-15 14 -20z m135 11 c3 -6 -1 -13 -10 -16 -19 -8 -30 0 -20 15 8 14 22 14 30
1z m-2197 -58 c2 -7 -3 -12 -12 -12 -9 0 -16 7 -16 16 0 17 22 14 28 -4z
m2195 -137 c-4 -15 -36 -12 -41 3 -3 9 3 13 19 10 13 -1 23 -7 22 -13z m33
-119 c24 -18 16 -26 -35 -33 -36 -5 -41 -3 -41 15 0 32 42 42 76 18z m-286
-117 c0 -5 -7 -9 -15 -9 -15 0 -20 12 -9 23 8 8 24 -1 24 -14z m-1450 -84 c7
-9 10 -18 7 -21 -10 -10 -47 7 -47 22 0 19 24 18 40 -1z m1521 -8 c-1 -12 -15
-9 -19 4 -3 6 1 10 8 8 6 -3 11 -8 11 -12z m-1497 -68 c33 -26 33 -35 0 -43
-30 -8 -64 16 -64 46 0 24 31 23 64 -3z m46 -155 c0 -8 -4 -12 -10 -9 -5 3
-10 10 -10 16 0 5 5 9 10 9 6 0 10 -7 10 -16z m1360 -17 c0 -30 -10 -40 -27
-26 -20 18 -16 49 7 49 14 0 20 -7 20 -23z m-1400 -47 c0 -11 -4 -20 -10 -20
-5 0 -10 9 -10 20 0 11 5 20 10 20 6 0 10 -9 10 -20z m125 -48 c0 -18 -20 -15
-23 4 -3 10 1 15 10 12 7 -3 13 -10 13 -16z m575 -323 c0 -5 -4 -9 -10 -9 -5
0 -10 7 -10 16 0 8 5 12 10 9 6 -3 10 -10 10 -16z m-143 -100 c27 -53 28 -75
7 -83 -36 -14 -75 63 -59 115 10 29 27 19 52 -32z"/>
<path d="M6960 7783 c0 -10 5 -25 10 -33 7 -11 10 -7 10 18 0 17 -4 32 -10 32
-5 0 -10 -8 -10 -17z"/>
<path d="M7069 7589 c25 -64 23 -62 188 -266 368 -457 636 -773 654 -773 33 0
22 34 -37 116 -66 92 -256 326 -329 404 -28 30 -130 154 -227 275 -192 240
-240 295 -257 295 -7 0 -4 -18 8 -51z"/>
<path d="M7339 7468 c90 -133 200 -269 401 -498 173 -196 285 -333 363 -442
46 -65 129 -130 145 -114 14 15 -47 103 -144 207 -56 60 -182 216 -280 346
-212 284 -275 363 -372 465 -64 67 -154 138 -176 138 -4 0 24 -46 63 -102z"/>
<path d="M8377 6454 c-14 -14 -6 -24 19 -24 16 0 24 5 22 13 -5 14 -31 21 -41
11z"/>
<path d="M8206 5922 c-15 -25 143 -250 166 -236 14 9 3 67 -22 119 -38 78
-124 148 -144 117z"/>
<path d="M8460 5606 c0 -36 63 -142 129 -216 167 -189 350 -415 721 -893 206
-266 239 -300 248 -254 8 42 -61 140 -303 428 -67 79 -132 160 -145 179 -38
55 -291 370 -426 530 -149 176 -224 252 -224 226z"/>
<path d="M9620 4126 c0 -32 57 -105 465 -600 34 -42 82 -55 77 -21 -5 33 -82
140 -228 315 -75 91 -157 191 -183 224 -25 32 -63 67 -83 77 -44 23 -48 23
-48 5z"/>
<path d="M5453 8825 c-113 -48 -530 -387 -668 -544 -29 -33 -29 -34 -5 -21 78
41 258 175 453 338 122 101 230 193 241 202 28 27 17 41 -21 25z"/>
<path d="M4585 8137 c-61 -33 -185 -143 -185 -165 0 -22 26 -12 61 24 18 19
48 42 64 50 40 19 145 102 145 114 0 17 -23 11 -85 -23z"/>
<path d="M4789 7942 c-400 -307 -672 -522 -921 -729 -189 -156 -206 -173 -177
-173 51 0 94 27 198 125 94 88 290 239 650 501 201 146 351 273 454 385 67 71
106 120 95 119 -2 -1 -136 -103 -299 -228z"/>
<path d="M6277 8053 c-50 -37 -59 -60 -10 -25 27 19 70 62 62 62 -2 0 -26 -17
-52 -37z"/>
<path d="M4918 7662 c-112 -62 -288 -210 -288 -242 0 -31 70 3 125 60 22 23
56 50 75 60 45 24 190 159 170 159 -8 1 -45 -16 -82 -37z"/>
<path d="M3725 7467 c-99 -77 -362 -285 -585 -462 -459 -364 -678 -535 -830
-650 -58 -43 -161 -127 -230 -185 -69 -59 -208 -174 -310 -256 -102 -83 -306
-249 -455 -369 -227 -184 -382 -314 -569 -477 l-31 -27 26 -1 c28 0 87 39 134
90 17 18 47 43 67 56 44 28 374 291 808 644 657 534 897 724 1240 985 321 244
648 506 747 599 87 82 191 197 176 195 -4 0 -89 -64 -188 -142z"/>
<path d="M4315 7187 c-142 -77 -344 -231 -400 -305 -19 -24 -35 -49 -35 -54 0
-14 71 20 126 62 28 21 77 62 110 90 32 29 82 67 109 85 65 42 185 154 165
154 -8 0 -42 -14 -75 -32z"/>
<path d="M4675 7104 c-28 -15 -83 -49 -122 -76 -87 -60 -219 -196 -205 -210
12 -12 61 12 110 56 20 18 62 49 92 69 72 47 196 151 203 171 9 24 -21 20 -78
-10z"/>
<path d="M5049 7062 c-123 -86 -491 -383 -484 -391 13 -12 82 16 138 57 192
139 449 372 409 372 -5 0 -33 -17 -63 -38z"/>
<path d="M3093 6621 c-29 -18 -87 -90 -79 -98 2 -2 23 1 46 6 61 14 95 41 95
77 0 36 -20 41 -62 15z"/>
<path d="M4410 6567 c-439 -315 -996 -758 -1379 -1095 -125 -110 -124 -109
-66 -77 146 82 349 236 620 470 156 134 191 162 444 348 97 71 214 163 261
203 95 81 216 201 209 208 -2 2 -42 -23 -89 -57z"/>
<path d="M3661 6484 c0 -11 3 -14 6 -6 3 7 2 16 -1 19 -3 4 -6 -2 -5 -13z"/>
<path d="M3830 6474 c-59 -34 -143 -102 -325 -265 -188 -168 -248 -218 -305
-255 -25 -16 -151 -115 -280 -219 -129 -105 -350 -283 -490 -395 -535 -428
-1146 -927 -1215 -993 -6 -6 3 -7 25 -2 66 13 150 68 262 169 61 56 143 126
182 156 39 31 298 240 576 465 595 482 1223 984 1478 1180 138 106 181 145
179 160 -3 29 -35 29 -87 -1z"/>
<path d="M2885 6439 c-19 -21 -19 -21 0 -35 18 -13 22 -13 38 7 33 40 -3 67
-38 28z"/>
<path d="M2965 6139 c-609 -483 -915 -737 -1095 -909 -59 -56 -61 -59 -25 -39
72 41 208 137 307 216 278 225 398 324 461 381 38 35 178 145 311 245 254 191
386 308 424 376 13 23 20 41 15 40 -4 0 -183 -140 -398 -310z"/>
<path d="M2673 6284 c-56 -34 -138 -100 -490 -398 -70 -59 -153 -125 -183
-146 -31 -21 -106 -80 -167 -133 -62 -52 -261 -215 -443 -362 -182 -148 -337
-280 -345 -296 -14 -27 -14 -27 48 13 34 21 124 78 199 126 158 100 247 174
284 237 18 31 55 65 127 117 93 66 226 172 862 683 116 93 210 174 210 179 0
23 -43 15 -102 -20z"/>
<path d="M2825 5314 c-48 -53 -55 -71 -28 -81 20 -8 58 36 74 85 17 51 4 50
-46 -4z"/>
<path d="M2690 5193 c-35 -17 -216 -190 -208 -199 7 -7 124 61 186 108 83 62
99 127 22 91z"/>
<path d="M1612 5020 c-91 -53 -369 -268 -460 -356 -74 -73 -83 -84 -58 -79 45
10 107 42 167 88 106 79 428 377 408 377 -2 0 -28 -14 -57 -30z"/>
<path d="M968 4874 c-46 -39 -63 -63 -32 -46 21 11 91 82 82 82 -3 0 -26 -16
-50 -36z"/>
<path d="M8230 4789 c0 -36 200 -357 282 -452 34 -39 106 -72 122 -57 14 14
-38 92 -148 224 -56 66 -125 150 -153 186 -64 81 -103 119 -103 99z"/>
<path d="M9282 3731 c-10 -6 58 -100 264 -362 791 -1007 1203 -1541 1198
-1553 -6 -16 32 -46 57 -46 9 0 22 6 28 13 19 23 -128 226 -529 732 -113 143
-239 303 -279 355 -41 52 -99 122 -130 155 -55 58 -100 119 -306 408 -121 172
-180 241 -235 278 -47 32 -49 32 -68 20z"/>
<path d="M9346 3078 c46 -91 116 -186 149 -203 19 -11 37 -17 40 -14 14 15
-171 249 -196 249 -5 0 -2 -15 7 -32z"/>
</g>
</svg>
