<?xml version="1.0" standalone="no"?>
<!DOCTYPE svg PUBLIC "-//W3C//DTD SVG 20010904//EN"
 "http://www.w3.org/TR/2001/REC-SVG-20010904/DTD/svg10.dtd">
<svg version="1.0" xmlns="http://www.w3.org/2000/svg"
 width="1280.000000pt" height="640.000000pt" viewBox="0 0 1280.000000 640.000000"
 preserveAspectRatio="xMidYMid meet">
<metadata>
Created by potrace 1.15, written by Peter Selinger 2001-2017
</metadata>
<g transform="translate(0.000000,640.000000) scale(0.100000,-0.100000)"
fill="#795548" stroke="none">
<path d="M2200 5256 c-62 -13 -61 -13 -255 -120 -200 -111 -257 -174 -240
-264 8 -45 24 -77 69 -136 46 -59 62 -149 46 -249 -21 -133 -77 -235 -242
-445 -173 -219 -224 -306 -255 -439 l-16 -70 -161 -95 c-89 -53 -235 -138
-326 -188 -91 -51 -226 -127 -300 -170 -74 -42 -153 -83 -175 -90 -150 -48
-274 -148 -315 -255 -27 -71 -29 -132 -12 -480 6 -126 15 -318 21 -425 5 -110
5 -238 0 -295 -22 -263 -22 -268 -1 -305 12 -22 37 -44 68 -60 47 -24 55 -25
229 -23 1107 10 7298 14 9750 5 2125 -8 1917 -10 1999 17 124 40 179 88 251
221 51 92 97 155 215 295 152 180 215 288 225 388 3 28 7 187 10 352 2 165 7
383 11 485 7 199 -5 369 -34 488 l-17 67 -55 12 c-88 19 -278 25 -515 15 -136
-5 -268 -5 -345 0 -69 5 -129 10 -135 10 -5 0 -66 -7 -135 -16 -168 -21 -351
-23 -1025 -7 -313 7 -1362 16 -2330 19 l-1760 7 -56 28 c-84 41 -148 113 -276
306 -63 95 -136 197 -162 225 -27 28 -58 74 -70 101 -41 93 -103 134 -185 121
-22 -4 -79 -19 -125 -33 -93 -28 -164 -33 -198 -15 -13 7 -41 39 -63 72 -52
77 -164 188 -241 239 -87 58 -161 84 -244 85 -85 1 -126 -18 -207 -96 -30 -29
-76 -70 -101 -91 -30 -25 -57 -60 -78 -102 -28 -57 -32 -76 -32 -148 -1 -181
90 -356 284 -547 118 -117 132 -141 100 -174 -20 -19 -34 -21 -159 -24 -75 -1
-198 4 -272 11 l-134 12 -29 43 c-42 62 -128 240 -212 437 -134 314 -200 433
-316 572 -118 140 -159 160 -394 193 -81 12 -172 30 -202 42 -65 24 -126 76
-154 130 -29 57 -154 177 -249 239 -109 72 -193 108 -288 125 -92 16 -110 16
-182 0z m190 -85 c138 -35 271 -106 305 -163 22 -38 13 -71 -26 -99 -44 -31
-94 -21 -188 37 -138 86 -157 94 -235 94 -119 0 -188 29 -166 71 15 27 51 49
107 64 68 19 117 18 203 -4z m-472 -223 c36 -145 41 -325 23 -993 -6 -250 -7
-464 -1 -595 5 -113 10 -208 10 -212 0 -5 5 -8 10 -8 6 0 10 18 10 40 0 48 10
51 28 10 20 -43 60 -68 143 -85 40 -9 78 -20 86 -26 7 -7 13 -29 13 -50 l0
-38 -83 6 c-49 3 -112 1 -153 -6 -97 -18 -286 -15 -359 4 -133 35 -227 103
-268 194 -32 73 -33 165 -3 314 31 153 48 197 75 197 34 0 45 -57 39 -215 -3
-77 -3 -178 1 -225 5 -67 8 -24 15 195 4 154 11 309 14 345 7 61 9 65 34 68
20 2 31 -4 45 -24 15 -24 18 -50 18 -169 0 -77 -4 -224 -9 -326 -6 -124 -5
-192 1 -204 21 -36 28 67 25 351 -3 251 8 466 25 510 3 8 12 14 21 12 28 -6
54 -55 61 -115 l7 -58 7 85 c4 47 10 104 14 128 5 41 6 42 20 22 8 -11 19 -20
24 -20 17 0 37 63 48 150 6 47 18 110 26 140 22 72 14 205 -20 364 -32 152
-33 228 -3 256 32 30 44 25 56 -22z m122 -47 c12 -30 25 -89 29 -131 l7 -75 8
100 c14 184 32 227 65 154 17 -36 21 -67 22 -174 1 -71 4 -175 8 -230 l6 -100
9 95 c5 52 10 149 11 215 4 162 27 247 53 191 37 -81 44 -511 9 -589 -13 -31
-21 -38 -39 -35 -18 2 -25 13 -34 48 l-11 45 -6 -73 c-9 -114 -74 -231 -90
-164 -2 9 -5 116 -6 237 -1 121 -4 222 -7 224 -2 2 -4 -47 -4 -110 -1 -112
-41 -514 -54 -526 -14 -14 -39 78 -45 167 -3 52 -2 258 3 458 9 351 9 362 27
346 10 -9 28 -42 39 -73z m326 -16 c8 -19 20 -69 27 -112 l13 -76 23 86 c24
90 44 123 55 89 9 -27 25 -208 26 -279 0 -35 4 -63 9 -63 5 0 9 48 8 110 -2
87 1 112 14 125 14 14 17 13 36 -7 12 -13 27 -45 34 -73 16 -63 16 -63 34 -39
14 19 14 19 35 -2 36 -36 59 -149 44 -223 -6 -31 -7 -31 -73 -31 -116 0 -192
35 -228 103 l-17 32 -7 -42 c-12 -64 -36 -105 -61 -101 -30 4 -39 47 -32 143
3 44 6 145 7 225 1 80 6 151 10 158 14 21 27 14 43 -23z m464 20 c0 -12 -115
-55 -146 -55 -52 0 -40 18 24 35 31 9 62 18 67 20 16 6 55 5 55 0z m4 -99 c-5
-12 -74 -56 -88 -56 -13 0 -5 38 12 52 30 28 86 30 76 4z m626 -166 c9 -16 8
-22 -4 -26 -21 -8 -36 3 -36 27 0 25 26 25 40 -1z m-146 -1 c145 -40 276 -136
346 -254 29 -49 35 -69 35 -117 0 -32 2 -58 5 -57 3 0 14 4 25 8 52 21 74 -42
33 -94 l-22 -28 28 7 c61 15 87 -21 44 -61 -33 -30 -133 -84 -141 -76 -12 11
-8 78 5 91 10 10 6 11 -18 6 -41 -8 -82 28 -179 156 -134 176 -179 209 -350
259 -92 27 -135 54 -135 84 0 52 77 85 200 86 47 1 103 -4 124 -10z m-444 -49
c0 -5 -2 -10 -4 -10 -3 0 -8 5 -11 10 -3 6 -1 10 4 10 6 0 11 -4 11 -10z m-49
-82 c7 -13 15 -74 17 -135 4 -100 3 -113 -12 -113 -55 0 -102 82 -91 160 7 54
38 110 60 110 8 0 20 -10 26 -22z m112 -118 c8 -30 18 -93 23 -140 l9 -85 6
105 c4 58 9 114 12 125 3 11 6 23 6 28 1 4 5 7 10 7 11 0 37 -64 47 -116 l8
-39 10 49 c13 57 35 77 62 55 22 -18 44 -71 44 -104 0 -15 4 -24 10 -20 6 3
10 17 10 29 0 13 8 34 18 46 16 19 22 21 40 11 l23 -12 -3 -644 c-2 -354 -6
-647 -10 -651 -10 -10 -36 14 -56 50 -18 34 -20 146 -12 556 3 128 1 221 -5
230 -19 30 -23 -39 -24 -427 -1 -247 -5 -394 -11 -398 -16 -10 -57 39 -69 81
-6 22 -12 57 -12 79 -2 40 -2 40 -9 -10 -5 -27 -9 -78 -9 -112 -1 -34 -5 -65
-11 -68 -19 -12 -48 15 -66 60 -15 41 -16 67 -8 253 11 270 11 365 0 612 -15
330 -27 177 -24 -320 3 -391 1 -443 -15 -515 -33 -142 -52 -152 -62 -32 -3 45
-5 366 -3 712 2 487 6 637 16 659 11 25 15 28 27 15 8 -8 20 -39 28 -69z
m2042 53 c-8 -36 -20 -47 -40 -40 -14 6 -14 9 0 37 20 39 50 41 40 3z m-91
-17 c-10 -8 -21 -12 -24 -9 -3 2 4 11 14 19 11 7 22 12 25 9 2 -3 -4 -12 -15
-19z m-231 -26 c-5 -20 -21 -36 -27 -29 -2 2 0 14 5 27 10 27 29 29 22 2z
m331 -34 c-3 -9 -13 -16 -22 -16 -13 0 -12 3 3 20 20 23 29 21 19 -4z m-167
-28 c-3 -8 -6 -5 -6 6 -1 11 2 17 5 13 3 -3 4 -12 1 -19z m-253 -55 c14 -21
58 -108 97 -193 88 -188 124 -244 200 -314 59 -53 80 -65 302 -170 l118 -57
214 -205 c208 -199 290 -286 314 -331 15 -30 14 -33 -13 -33 -13 0 -55 25
-100 60 -42 33 -76 59 -76 58 0 -2 11 -30 25 -63 30 -73 33 -115 8 -115 -10 0
-74 60 -142 133 -147 155 -453 462 -632 632 -135 128 -176 183 -244 331 -24
49 -61 127 -84 173 -40 80 -48 110 -34 124 13 13 23 7 47 -30z m316 17 c0 -5
-5 -10 -11 -10 -5 0 -7 5 -4 10 3 6 8 10 11 10 2 0 4 -4 4 -10z m-2150 -36 c0
-16 -26 -19 -35 -4 -4 6 -4 18 -1 27 5 12 9 13 21 3 8 -7 15 -19 15 -26z
m-110 22 c0 -3 -4 -8 -10 -11 -5 -3 -10 -1 -10 4 0 6 5 11 10 11 6 0 10 -2 10
-4z m2504 -12 c28 -28 20 -44 -23 -44 -49 0 -62 17 -31 42 27 22 34 22 54 2z
m-1310 -46 c-9 -14 -24 2 -24 25 1 21 1 21 15 3 8 -10 12 -23 9 -28z m867 26
c11 -14 10 -15 -11 -12 -13 1 -25 9 -28 16 -5 17 23 15 39 -4z m60 -41 c-9
-15 -10 -12 -10 17 0 29 1 32 10 18 7 -12 7 -24 0 -35z m235 39 c-10 -16 -86
-65 -92 -59 -10 10 6 26 44 47 40 21 56 25 48 12z m258 -7 c3 -8 1 -15 -4 -15
-6 0 -10 7 -10 15 0 8 2 15 4 15 2 0 6 -7 10 -15z m-709 -94 c38 -77 75 -190
75 -232 0 -22 -5 -29 -19 -29 -14 0 -24 13 -35 43 -32 84 -76 228 -83 270 -6
39 -5 41 11 28 10 -8 33 -44 51 -80z m-1135 52 c52 -49 127 -190 205 -387 60
-154 75 -201 75 -245 0 -96 40 -160 215 -341 108 -112 155 -169 160 -191 9
-38 -9 -61 -27 -36 -7 9 -26 23 -42 31 -26 13 -33 13 -68 -1 -35 -14 -41 -14
-55 -1 -8 8 -17 34 -20 57 -8 55 -19 52 -26 -9 -3 -27 -11 -59 -18 -71 l-12
-23 -12 25 c-7 13 -22 80 -34 148 -11 68 -22 125 -24 127 -2 2 -4 -42 -3 -98
0 -105 -11 -148 -39 -148 -8 0 -22 15 -32 33 -16 28 -18 59 -18 229 0 108 -3
199 -6 202 -3 4 -9 -87 -12 -201 -8 -259 -25 -334 -60 -260 -13 27 -17 97 -23
385 -4 194 -10 350 -13 346 -3 -3 -8 -174 -11 -379 -3 -205 -9 -377 -13 -382
-10 -9 -24 12 -51 77 -28 66 -32 250 -11 524 15 208 15 295 -2 381 l-6 30 -10
-25 c-7 -16 -12 -192 -14 -490 -2 -256 -6 -475 -8 -487 -6 -27 -46 -31 -66 -7
-19 23 -22 1135 -3 1182 16 40 43 42 84 5z m-650 -68 c31 -61 35 -78 39 -163
5 -159 -46 -316 -183 -556 -94 -165 -102 -176 -116 -156 -6 10 -10 11 -10 3 0
-9 -17 -13 -50 -13 -48 0 -51 2 -76 42 -70 111 -91 257 -56 395 48 191 179
375 347 489 27 19 54 33 60 31 5 -2 26 -34 45 -72z m2340 51 c0 -3 -4 -8 -10
-11 -5 -3 -10 -1 -10 4 0 6 5 11 10 11 6 0 10 -2 10 -4z m694 -18 c14 -13 163
-200 331 -417 200 -258 302 -397 297 -405 -12 -15 -25 -99 -14 -92 5 3 16 -9
24 -27 9 -18 45 -66 80 -107 85 -100 98 -120 98 -151 0 -39 -22 -53 -71 -45
-96 15 -246 116 -340 229 -75 91 -130 149 -135 144 -15 -15 198 -247 228 -247
7 0 6 -5 -2 -15 -16 -19 -73 -19 -108 -1 -38 20 -132 121 -240 257 -50 64
-116 139 -146 166 -53 49 -96 72 -96 51 0 -6 69 -79 154 -162 158 -156 236
-257 236 -307 0 -32 -15 -39 -83 -41 -96 -2 -177 61 -346 266 -134 162 -216
241 -260 251 -48 10 -116 81 -131 135 -25 90 22 205 96 236 37 15 74 11 112
-13 23 -14 24 -14 16 9 -31 86 38 214 150 279 63 36 115 38 150 7z m-273 -45
c-13 -26 -210 -237 -288 -310 -72 -67 -93 -76 -93 -40 0 15 42 63 142 161 173
167 268 243 239 189z m-151 -7 c0 -3 -4 -8 -10 -11 -5 -3 -10 -1 -10 4 0 6 5
11 10 11 6 0 10 -2 10 -4z m-3119 -36 c23 -19 23 -19 3 -20 -11 0 -29 9 -39
20 -15 17 -16 20 -3 20 9 0 26 -9 39 -20z m164 0 c0 -18 -53 -26 -68 -11 -7 7
-3 13 14 20 32 13 54 9 54 -9z m2712 -11 c22 -41 16 -76 -12 -83 -59 -15 -88
46 -44 93 24 26 39 23 56 -10z m-2952 11 c3 -5 1 -10 -4 -10 -6 0 -11 5 -11
10 0 6 2 10 4 10 3 0 8 -4 11 -10z m2701 -15 c3 -14 3 -32 0 -41 -6 -15 -8
-15 -26 1 -20 18 -26 46 -13 58 14 15 33 6 39 -18z m-134 -27 c-7 -7 -12 -8
-12 -2 0 6 3 14 7 17 3 4 9 5 12 2 2 -3 -1 -11 -7 -17z m243 1 c4 -11 4 -23 0
-27 -7 -7 -25 17 -25 36 0 20 18 14 25 -9z m-2717 -47 c2 -7 -3 -12 -12 -12
-9 0 -16 7 -16 16 0 17 22 14 28 -4z m1319 -8 c-3 -3 -12 -4 -19 -1 -8 3 -5 6
6 6 11 1 17 -2 13 -5z m1413 -24 c0 -5 -15 -10 -32 -9 -28 0 -30 2 -13 9 28
12 45 12 45 0z m182 -36 c-6 -31 -20 -40 -28 -19 -9 22 15 74 25 56 4 -7 6
-23 3 -37z m-1316 25 c9 -16 -21 -42 -95 -84 -49 -27 -66 -33 -73 -23 -12 20
-10 33 12 60 36 47 137 77 156 47z m985 -46 c-8 -15 -10 -15 -11 -2 0 17 10
32 18 25 2 -3 -1 -13 -7 -23z m-891 3 c0 -20 -19 -31 -32 -18 -6 6 -7 15 -4
21 10 16 36 13 36 -3z m-1680 -15 c0 -13 -119 -71 -146 -71 -32 0 -54 10 -54
25 0 11 30 26 100 49 27 8 100 6 100 -3z m2760 3 c0 -10 -71 -34 -83 -27 -7 4
-1 11 18 19 31 14 65 18 65 8z m-320 -34 c0 -5 -2 -10 -4 -10 -3 0 -8 5 -11
10 -3 6 -1 10 4 10 6 0 11 -4 11 -10z m310 -19 c0 -6 -4 -13 -10 -16 -5 -3
-10 1 -10 9 0 9 5 16 10 16 6 0 10 -4 10 -9z m-1152 -56 c-36 -34 -55 -45 -79
-45 -32 0 -32 0 -13 21 22 24 101 68 124 68 8 0 -6 -19 -32 -44z m-1664 20 c3
-8 1 -15 -4 -15 -6 0 -10 7 -10 15 0 8 2 15 4 15 2 0 6 -7 10 -15z m1751 -35
c-3 -5 -10 -10 -16 -10 -5 0 -9 5 -9 10 0 6 7 10 16 10 8 0 12 -4 9 -10z
m-1724 -44 c-21 -25 -138 -76 -176 -76 -72 0 -14 45 98 75 70 19 93 19 78 1z
m2824 -16 c3 -5 2 -10 -4 -10 -5 0 -13 5 -16 10 -3 6 -2 10 4 10 5 0 13 -4 16
-10z m-2820 -40 c-3 -5 -11 -10 -16 -10 -6 0 -7 5 -4 10 3 6 11 10 16 10 6 0
7 -4 4 -10z m2654 -60 c0 -29 -2 -31 -9 -15 -5 11 -9 34 -9 50 -1 23 2 26 9
15 5 -8 9 -31 9 -50z m-2769 -1 c0 -6 -4 -7 -10 -4 -5 3 -10 11 -10 16 0 6 5
7 10 4 6 -3 10 -11 10 -16z m712 -40 c12 -52 21 -416 11 -483 -7 -54 -12 -62
-42 -80 -47 -27 -161 -32 -283 -12 -54 9 -118 16 -144 16 -25 0 -54 5 -65 11
-28 14 -11 32 65 71 34 17 73 39 87 49 l27 19 11 -45 c17 -66 28 -62 36 13 7
66 27 122 44 122 30 0 41 -15 42 -54 3 -100 15 -98 21 4 7 139 37 210 73 180
12 -10 15 -38 15 -118 0 -80 3 -103 12 -94 7 7 12 63 14 152 3 131 9 174 36
258 12 41 30 37 40 -9z m1008 21 c0 -5 -4 -10 -10 -10 -5 0 -10 5 -10 10 0 6
5 10 10 10 6 0 10 -4 10 -10z m-1640 -18 c0 -26 -86 -72 -134 -72 -75 0 -43
38 54 64 65 17 80 19 80 8z m1900 -2 c0 -5 -2 -10 -4 -10 -3 0 -8 5 -11 10 -3
6 -1 10 4 10 6 0 11 -4 11 -10z m80 -70 c0 -5 -5 -10 -11 -10 -5 0 -7 5 -4 10
3 6 8 10 11 10 2 0 4 -4 4 -10z m860 -30 c0 -11 -4 -21 -9 -25 -12 -7 -34 32
-26 45 9 15 35 0 35 -20z m-986 -18 c-4 -18 -10 -32 -15 -32 -12 0 -11 13 1
46 14 35 22 26 14 -14z m931 -3 c0 -7 -8 -15 -17 -17 -18 -3 -25 18 -11 32 10
10 28 1 28 -15z m-2803 -18 c70 -44 127 -140 128 -212 0 -45 -15 -52 -77 -39
-57 13 -75 23 -123 66 -31 28 -41 47 -50 90 -24 116 26 156 122 95z m6361 -5
c835 -1 1257 2 1257 9 0 5 5 3 10 -5 8 -13 172 -15 1362 -18 979 -2 1361 -6
1381 -14 52 -21 52 -67 -1 -153 -14 -22 -116 -132 -228 -245 l-204 -205 -1042
0 c-574 0 -1407 2 -1853 5 -675 4 -820 3 -870 -9 -76 -18 -103 -18 -195 2 -41
8 -129 17 -195 18 -141 3 -726 -9 -835 -18 -100 -7 -140 10 -140 63 0 61 29
111 194 339 66 91 78 125 56 165 -11 21 -60 40 -102 40 -45 0 -160 -26 -333
-75 -87 -25 -171 -45 -188 -45 -24 0 -42 12 -84 55 -91 94 -104 90 279 93 183
2 335 6 338 9 3 3 34 2 70 -3 36 -4 631 -8 1323 -8z m-3563 -20 c0 -3 -4 -8
-10 -11 -5 -3 -10 -1 -10 4 0 6 5 11 10 11 6 0 10 -2 10 -4z m-830 -21 c0 -25
-161 -127 -176 -112 -8 8 21 59 48 84 43 40 128 59 128 28z m730 -16 c36 -5
84 -19 107 -29 68 -30 54 -59 -39 -90 l-52 -17 99 -6 c106 -7 212 -30 233 -51
20 -19 5 -41 -47 -70 -45 -24 -55 -26 -142 -21 -103 5 -86 -9 24 -21 37 -4 54
-10 45 -15 -34 -21 49 -47 155 -48 51 -1 53 -2 35 -30 -14 -23 0 -44 42 -66
37 -19 170 -45 232 -45 29 0 75 -7 102 -15 61 -19 147 -19 206 -1 25 7 92 35
150 61 95 43 110 47 160 41 128 -13 227 -24 250 -30 14 -3 102 -21 195 -41
240 -50 227 -46 185 -58 -32 -9 -1116 -18 -2060 -18 -363 0 -442 -6 -482 -38
-21 -18 -8 -19 398 -25 230 -4 842 -3 1359 1 1334 12 3674 9 4035 -6 183 -7
610 -11 1125 -9 826 3 830 3 875 -18 69 -32 85 -56 85 -123 0 -36 -8 -74 -23
-106 l-23 -51 -97 3 c-79 2 -89 0 -54 -7 181 -38 261 -191 181 -346 -24 -47
-27 -49 -75 -54 -46 -6 -47 -7 -24 -17 39 -17 76 -63 95 -118 20 -58 24 -184
11 -397 l-8 -138 -749 0 c-412 0 -749 -4 -749 -9 0 -14 110 -21 315 -21 105 0
395 -3 644 -7 479 -7 522 -11 452 -47 -31 -16 -174 -17 -2082 -17 -1127 0
-2053 2 -2058 5 -5 3 -173 2 -373 -4 -243 -7 -398 -7 -468 0 -58 6 -109 10
-115 10 -5 0 -775 -2 -1710 -5 -1731 -5 -1886 -8 -1899 -42 -3 -8 -10 -12 -15
-8 -6 3 -8 12 -5 19 4 10 -141 14 -777 19 -430 4 -951 7 -1158 7 -215 0 -404
5 -441 11 -52 8 -111 6 -295 -11 -296 -28 -397 -20 -464 36 -38 32 -63 98 -59
155 l3 44 90 3 89 3 -50 23 c-61 28 -96 68 -124 143 -19 50 -21 72 -17 158 3
60 12 122 23 155 19 54 20 55 61 58 l42 3 -43 42 c-27 27 -52 64 -67 102 -21
53 -23 76 -23 195 0 114 3 145 23 199 24 70 72 146 99 159 9 4 289 5 622 1
499 -5 1731 -3 2410 4 85 1 290 -2 455 -7 390 -12 418 -11 462 11 115 57 50
60 -1057 55 -839 -3 -1945 6 -2135 19 -116 7 -192 6 -335 -6 -196 -16 -308
-19 -334 -9 -57 22 35 101 194 168 135 57 176 82 221 134 19 21 45 45 57 51
69 36 403 13 487 -33 15 -8 -20 -12 -155 -16 l-175 -5 125 -13 c194 -20 280
-36 280 -52 0 -19 -82 -31 -172 -26 -124 7 -80 -5 137 -40 166 -26 185 -26
870 -36 707 -9 1018 -6 1089 13 29 8 60 7 126 -5 73 -14 152 -16 516 -12 l430
4 80 31 c92 36 176 91 216 141 67 85 38 146 -84 175 -40 10 -90 27 -112 37
-33 17 -37 22 -25 34 8 7 39 18 69 23 78 12 303 13 380 0z m-610 -18 c0 -10
-11 -39 -25 -65 -29 -55 -31 -63 -8 -45 26 22 199 19 241 -4 107 -59 93 -133
-36 -188 -55 -24 -80 -24 -171 1 -91 26 -140 51 -191 97 -61 54 -48 104 34
138 18 8 52 30 75 49 47 40 81 47 81 17z m-3015 -31 c-12 -19 -124 -70 -155
-70 -47 0 -36 18 33 50 60 29 135 41 122 20z m5790 -39 c-8 -17 -22 -31 -30
-31 -22 0 -18 14 12 51 31 37 42 25 18 -20z m-5781 3 c21 -8 21 -30 0 -38 -49
-19 -88 9 -46 33 20 12 25 13 46 5z m5421 -44 c-3 -5 -11 -10 -16 -10 -6 0 -7
5 -4 10 3 6 11 10 16 10 6 0 7 -4 4 -10z m-5401 -39 c16 -9 31 -22 34 -30 4
-12 -12 -13 -96 -8 -142 9 -181 34 -87 56 50 11 111 4 149 -18z m-294 9 c0 -5
-4 -10 -10 -10 -5 0 -10 5 -10 10 0 6 5 10 10 10 6 0 10 -4 10 -10z m6021 -43
c-8 -8 -11 -4 -11 14 0 33 14 47 18 19 2 -12 -1 -27 -7 -33z m-121 23 c0 -5
-4 -10 -10 -10 -5 0 -10 5 -10 10 0 6 5 10 10 10 6 0 10 -4 10 -10z m5695 -30
c-3 -5 -13 -10 -21 -10 -8 0 -12 5 -9 10 3 6 13 10 21 10 8 0 12 -4 9 -10z
m-5621 -9 c3 -5 -1 -11 -9 -15 -15 -6 -29 7 -18 18 9 9 21 8 27 -3z m-2914
-11 c0 -5 -4 -10 -10 -10 -5 0 -10 5 -10 10 0 6 5 10 10 10 6 0 10 -4 10 -10z
m2820 -10 c0 -5 -5 -10 -11 -10 -5 0 -7 5 -4 10 3 6 8 10 11 10 2 0 4 -4 4
-10z m30 -10 c0 -5 -5 -10 -11 -10 -5 0 -7 5 -4 10 3 6 8 10 11 10 2 0 4 -4 4
-10z m-196 -8 c-6 -4 -11 -18 -10 -31 1 -28 -28 -51 -44 -35 -14 14 6 61 29
67 27 8 37 7 25 -1z m5809 -45 c3 -8 1 -20 -4 -28 -6 -10 -9 -7 -9 14 0 29 5
35 13 14z m102 -22 c8 -19 29 -50 45 -69 38 -43 24 -55 -30 -24 -39 22 -40 25
-40 76 0 28 2 52 6 52 3 0 12 -16 19 -35z m-5714 -48 c6 -22 4 -27 -11 -27
-24 0 -33 15 -25 41 9 27 27 20 36 -14z m5503 -74 c-22 -134 -67 -271 -93
-287 -20 -13 -12 39 23 140 19 54 42 127 51 162 10 34 21 62 25 62 4 0 1 -35
-6 -77z m86 53 c0 -24 -16 -43 -27 -32 -8 8 6 56 17 56 6 0 10 -11 10 -24z
m-8975 -5 c3 -5 1 -12 -5 -16 -5 -3 -10 1 -10 9 0 18 6 21 15 7z m775 5 c0 -3
-4 -8 -10 -11 -5 -3 -10 -1 -10 4 0 6 5 11 10 11 6 0 10 -2 10 -4z m1650 -36
c0 -5 -2 -10 -4 -10 -3 0 -8 5 -11 10 -3 6 -1 10 4 10 6 0 11 -4 11 -10z
m6791 -33 c-8 -8 -11 -5 -11 9 0 27 14 41 18 19 2 -9 -1 -22 -7 -28z m-7106
-6 c-9 -16 -25 -3 -18 15 4 10 9 12 15 6 6 -6 7 -15 3 -21z m140 -1 c4 -6 -5
-10 -20 -10 -15 0 -24 4 -20 10 3 6 12 10 20 10 8 0 17 -4 20 -10z m1010 0 c3
-5 -1 -10 -10 -10 -9 0 -13 5 -10 10 3 6 8 10 10 10 2 0 7 -4 10 -10z m5910
-17 c-7 -30 -28 -49 -34 -32 -4 14 20 59 32 59 5 0 6 -12 2 -27z m-7115 7 c0
-5 -2 -10 -4 -10 -3 0 -8 5 -11 10 -3 6 -1 10 4 10 6 0 11 -4 11 -10z m6735
-22 c-19 -66 -31 -88 -52 -99 -31 -17 -38 -6 -23 32 26 62 90 119 75 67z m267
-3 c9 -19 7 -39 -7 -90 -9 -36 -21 -63 -25 -60 -13 8 -23 108 -15 144 8 37 31
40 47 6z m-122 -71 c0 -20 -7 -62 -15 -93 -8 -31 -28 -135 -44 -231 -19 -109
-42 -209 -63 -265 -18 -50 -31 -94 -30 -99 5 -14 -20 -36 -40 -36 -15 0 -18 4
-13 18 13 34 55 200 100 397 53 233 84 345 96 345 5 0 9 -16 9 -36z m-230
-103 c0 -6 -4 -13 -10 -16 -5 -3 -10 1 -10 9 0 9 5 16 10 16 6 0 10 -4 10 -9z
m46 -35 c6 -16 -9 -50 -34 -79 -18 -21 -32 -7 -32 32 0 44 53 81 66 47z m224
-6 c0 -5 -2 -10 -4 -10 -3 0 -8 5 -11 10 -3 6 -1 10 4 10 6 0 11 -4 11 -10z
m140 -200 c-12 -93 -27 -150 -40 -150 -25 0 -27 100 -1 155 10 22 21 65 25 95
4 30 10 66 14 80 12 45 14 -88 2 -180z m-103 93 c-7 -87 -27 -206 -46 -272
-11 -35 -37 -71 -53 -71 -13 0 -9 81 8 140 9 30 25 89 35 130 11 41 25 94 31
118 19 73 32 50 25 -45z m-199 39 c2 -7 -6 -12 -17 -12 -21 0 -27 11 -14 24 9
9 26 2 31 -12z m-23 -99 c-3 -21 -20 -64 -36 -96 -16 -32 -29 -64 -29 -71 0
-26 -25 -37 -46 -21 -13 10 -16 17 -8 22 7 5 25 43 42 86 30 77 55 117 75 117
5 0 6 -15 2 -37z m380 -310 c-3 -13 -11 -23 -18 -20 -14 4 -10 53 6 82 11 19
12 18 15 -9 2 -15 1 -39 -3 -53z m-135 -113 c-11 -21 -60 -29 -60 -9 0 16 20
51 44 77 l21 24 3 -36 c2 -19 -2 -44 -8 -56z m-171 -94 c-9 -50 -57 -156 -88
-192 -21 -26 -61 -41 -61 -23 0 6 13 35 29 63 16 28 39 76 50 106 12 30 30 70
42 89 27 45 41 25 28 -43z m261 4 c0 -5 -5 -10 -11 -10 -5 0 -7 5 -4 10 3 6 8
10 11 10 2 0 4 -4 4 -10z m-144 -184 c-4 -39 -9 -72 -12 -75 -2 -3 -14 4 -25
16 -29 29 -31 113 -4 143 19 20 20 21 33 3 10 -13 12 -36 8 -87z m-142 30 c-6
-17 -34 -30 -34 -16 0 5 8 14 18 19 22 13 22 13 16 -3z m-94 -216 c0 -5 -4
-10 -10 -10 -5 0 -10 5 -10 10 0 6 5 10 10 10 6 0 10 -4 10 -10z m65 -51 c9
-28 -14 -44 -34 -24 -12 11 -12 17 -1 29 17 22 27 20 35 -5z m-135 -23 c0 -3
-4 -8 -10 -11 -5 -3 -10 -1 -10 4 0 6 5 11 10 11 6 0 10 -2 10 -4z m-8375
-315 c-3 -6 -11 -11 -17 -11 -6 0 -6 6 2 15 14 17 26 13 15 -4z m6102 -7 c-9
-9 -28 6 -21 18 4 6 10 6 17 -1 6 -6 8 -13 4 -17z m-6247 6 c0 -5 -4 -10 -10
-10 -5 0 -10 5 -10 10 0 6 5 10 10 10 6 0 10 -4 10 -10z m2300 6 c0 -11 -19
-15 -25 -6 -3 5 1 10 9 10 9 0 16 -2 16 -4z m2270 -25 c0 -6 -4 -13 -10 -16
-5 -3 -10 1 -10 9 0 9 5 16 10 16 6 0 10 -4 10 -9z"/>
<path d="M2606 4989 c-29 -23 -34 -39 -11 -39 17 0 55 35 55 50 0 16 -15 12
-44 -11z"/>
<path d="M1847 3850 c-10 -125 -7 -762 4 -725 15 49 20 324 12 575 -7 206 -9
224 -16 150z"/>
<path d="M1741 3675 c0 -33 -6 -148 -12 -255 -12 -200 -6 -327 13 -265 14 45
20 367 10 480 -8 84 -9 90 -11 40z"/>
<path d="M2403 4610 c0 -36 2 -50 4 -32 2 17 2 47 0 65 -2 17 -4 3 -4 -33z"/>
<path d="M2623 4550 c0 -25 2 -35 4 -22 2 12 2 32 0 45 -2 12 -4 2 -4 -23z"/>
<path d="M3081 4104 c4 -31 11 -59 15 -62 4 -4 4 8 0 27 -3 18 -6 46 -6 62 0
16 -4 29 -8 29 -5 0 -5 -25 -1 -56z"/>
<path d="M3166 4122 c-3 -5 -1 -22 4 -38 8 -29 8 -29 9 9 1 36 -3 45 -13 29z"/>
<path d="M3076 3683 c-3 -71 -9 -182 -12 -248 -4 -66 -4 -118 -1 -115 7 6 31
479 25 486 -3 2 -8 -53 -12 -123z"/>
<path d="M5250 3440 c12 -17 64 -78 117 -136 100 -111 195 -193 201 -175 6 17
-67 99 -201 226 -120 115 -158 142 -117 85z"/>
<path d="M5646 4066 c3 -9 11 -16 16 -16 13 0 5 23 -10 28 -7 2 -10 -2 -6 -12z"/>
<path d="M5750 3992 c0 -5 7 -13 16 -16 10 -4 14 -1 12 6 -5 15 -28 23 -28 10z"/>
<path d="M5560 3983 c0 -10 103 -113 113 -113 15 0 6 20 -22 52 -31 35 -91 75
-91 61z"/>
<path d="M5840 3925 c0 -16 61 -103 120 -170 124 -140 295 -316 298 -305 7 20
-45 84 -204 250 -88 91 -171 181 -186 200 -15 19 -27 30 -28 25z"/>
<path d="M5390 3803 c0 -17 106 -113 125 -113 15 0 11 8 -23 43 -43 44 -102
84 -102 70z"/>
<path d="M5780 3755 c0 -10 82 -95 91 -95 19 0 7 24 -30 61 -34 34 -61 49 -61
34z"/>
<path d="M5381 3638 c57 -74 176 -188 195 -188 13 0 -19 38 -96 115 -118 119
-156 146 -99 73z"/>
<path d="M5711 3645 c60 -86 249 -295 267 -295 29 0 3 32 -135 169 -80 80
-140 137 -132 126z"/>
<path d="M6060 3480 c22 -30 31 -35 43 -23 9 9 -33 53 -50 53 -11 0 -9 -8 7
-30z"/>
<path d="M5720 3299 c15 -28 144 -163 192 -201 69 -54 40 -12 -73 106 -106
111 -143 140 -119 95z"/>
<path d="M6240 3276 c0 -20 115 -159 192 -231 84 -79 115 -96 77 -43 -31 44
-268 285 -269 274z"/>
<path d="M5090 4028 c0 -9 5 -20 10 -23 13 -8 13 5 0 25 -8 13 -10 13 -10 -2z"/>
<path d="M2720 3071 c0 -23 5 -41 10 -41 6 0 10 15 10 34 0 19 -4 38 -10 41
-6 4 -10 -10 -10 -34z"/>
<path d="M2131 3381 c-16 -28 -14 -31 15 -31 20 0 25 4 22 22 -4 29 -24 34
-37 9z"/>
<path d="M7805 3361 l-40 -6 52 -7 c29 -4 164 -4 300 0 161 4 230 9 198 13
-62 9 -455 9 -510 0z"/>
<path d="M8548 3357 c26 -8 1132 -27 1141 -20 11 9 -19 12 -209 22 -228 13
-975 11 -932 -2z"/>
<path d="M10828 3351 c-443 -3 -809 -9 -813 -12 -11 -12 224 -22 344 -15 64 3
550 7 1081 8 531 0 950 4 931 8 -55 13 -680 17 -1543 11z"/>
<path d="M9790 3340 c36 -12 100 -12 100 0 0 6 -27 10 -62 9 -47 -1 -57 -3
-38 -9z"/>
<path d="M12460 3340 c0 -5 7 -10 15 -10 8 0 15 5 15 10 0 6 -7 10 -15 10 -8
0 -15 -4 -15 -10z"/>
<path d="M8441 3281 c-10 -6 -10 -10 -2 -16 7 -3 241 -5 522 -3 303 2 496 6
477 11 -43 12 -980 18 -997 8z"/>
<path d="M9565 3271 c-7 -12 12 -24 25 -16 11 7 4 25 -10 25 -5 0 -11 -4 -15
-9z"/>
<path d="M9635 3270 c-3 -5 -1 -10 4 -10 6 0 11 5 11 10 0 6 -2 10 -4 10 -3 0
-8 -4 -11 -10z"/>
<path d="M9745 3260 c-26 -5 2349 -25 2490 -21 64 2 86 21 24 22 -252 4 -2491
3 -2514 -1z"/>
<path d="M9620 3209 c0 -14 50 -19 182 -19 75 0 149 -5 165 -10 15 -6 42 -27
60 -45 32 -35 56 -44 68 -25 3 5 -3 18 -13 28 -19 19 -18 20 77 28 53 4 497 8
988 9 490 0 894 3 898 6 3 4 -265 10 -597 13 -332 4 -879 10 -1216 14 -336 4
-612 4 -612 1z"/>
<path d="M10465 3120 c-16 -3 96 -7 250 -7 154 0 267 3 250 7 -39 10 -461 10
-500 0z"/>
<path d="M11165 3120 c-12 -5 164 -8 415 -8 256 0 419 4 395 9 -53 11 -784 10
-810 -1z"/>
<path d="M11695 3063 c-11 -3 -23 -8 -27 -11 -10 -10 330 -14 372 -5 32 6 30
8 -30 14 -75 8 -285 9 -315 2z"/>
<path d="M4730 3300 c14 -9 169 -15 159 -6 -2 2 -42 6 -89 9 -56 4 -80 3 -70
-3z"/>
<path d="M4850 3162 l-45 -17 42 -3 c43 -3 83 11 83 28 0 14 -28 11 -80 -8z"/>
<path d="M5036 3161 c5 -5 23 -12 39 -16 29 -6 29 -6 11 9 -21 17 -67 23 -50
7z"/>
<path d="M805 3090 c-4 -6 7 -10 25 -10 18 0 29 4 25 10 -3 6 -15 10 -25 10
-10 0 -22 -4 -25 -10z"/>
<path d="M862 3018 c5 -15 68 -24 68 -10 0 12 -24 22 -52 22 -11 0 -18 -5 -16
-12z"/>
<path d="M5166 2941 c-10 -16 21 -20 41 -6 17 13 16 14 -9 15 -15 0 -29 -4
-32 -9z"/>
<path d="M280 2611 c43 -24 170 -30 833 -36 655 -6 762 -3 685 19 -55 15
-1544 31 -1518 17z"/>
<path d="M9036 2613 c-3 -4 -892 -8 -1974 -9 -1082 -2 -1980 -4 -1997 -5 -16
-1 -116 1 -221 6 -212 9 -268 0 -315 -52 l-24 -26 25 6 c65 16 235 28 503 37
245 8 3771 18 4157 11 150 -2 146 14 -7 29 -119 12 -138 12 -147 3z"/>
<path d="M2070 2604 c-14 -2 -40 -7 -59 -10 -78 -13 1 -24 172 -24 167 0 224
10 140 24 -53 8 -223 16 -253 10z"/>
<path d="M3168 2604 c-4 -4 -157 -7 -340 -8 -243 -1 -338 -4 -353 -13 -16 -10
62 -12 385 -11 223 0 500 4 615 7 190 5 201 7 120 13 -153 13 -420 20 -427 12z"/>
<path d="M3815 2591 l-30 -7 34 -7 c44 -9 255 -9 401 0 l115 8 -85 6 c-110 9
-396 9 -435 0z"/>
<path d="M9459 2589 c-6 -3 107 -10 252 -14 330 -8 2250 -23 2267 -17 40 14
-13 20 -220 26 -351 9 -2286 14 -2299 5z"/>
<path d="M7510 2550 c0 -21 16 -44 23 -33 4 6 0 19 -8 29 -11 15 -14 16 -15 4z"/>
<path d="M4380 2523 c-19 -3 -39 -9 -45 -15 -7 -8 -4 -9 8 -4 10 3 41 6 68 6
27 0 49 5 49 10 0 10 -14 10 -80 3z"/>
<path d="M4750 2500 c0 -5 5 -10 10 -10 6 0 10 5 10 10 0 6 -4 10 -10 10 -5 0
-10 -4 -10 -10z"/>
<path d="M4000 2467 c-55 -6 -653 -11 -1430 -12 -1483 -2 -1494 -2 -1464 -15
12 -4 480 -11 1040 -14 561 -3 1103 -8 1206 -12 151 -5 209 -3 298 10 60 10
114 15 119 12 12 -8 2212 -8 2220 -1 3 3 -1 10 -8 14 -7 5 -369 7 -805 6 -644
-3 -806 -1 -871 11 -89 15 -164 16 -305 1z"/>
<path d="M302 2460 c-29 -4 -56 -11 -59 -14 -4 -3 101 -6 232 -6 170 0 236 3
228 11 -13 13 -329 21 -401 9z"/>
<path d="M860 2463 c-84 -8 -68 -23 23 -23 48 0 87 4 87 9 0 9 -37 22 -55 19
-5 -1 -30 -3 -55 -5z"/>
<path d="M6158 2452 c-10 -2 -18 -8 -18 -13 0 -7 652 -13 1300 -12 455 1 646
12 445 27 -91 6 -1695 5 -1727 -2z"/>
<path d="M8085 2454 c-11 -3 -27 -8 -35 -12 -22 -10 252 -18 410 -12 l135 5
-105 7 c-158 11 -382 18 -405 12z"/>
<path d="M9140 2450 c0 -5 18 -10 40 -10 22 0 40 5 40 10 0 6 -18 10 -40 10
-22 0 -40 -4 -40 -10z"/>
<path d="M9280 2452 c0 -6 33 -18 72 -27 59 -13 116 -16 293 -13 121 1 657 3
1190 3 670 0 979 3 1000 11 22 8 -268 12 -1090 17 -616 4 -1198 10 -1292 14
-120 4 -173 3 -173 -5z"/>
<path d="M8770 2420 c100 -12 288 -11 295 0 4 7 -57 9 -177 8 -136 -1 -166 -3
-118 -8z"/>
<path d="M2870 2380 c0 -5 5 -10 10 -10 6 0 10 5 10 10 0 6 -4 10 -10 10 -5 0
-10 -4 -10 -10z"/>
<path d="M3200 2380 c0 -5 5 -10 10 -10 6 0 10 5 10 10 0 6 -4 10 -10 10 -5 0
-10 -4 -10 -10z"/>
<path d="M2645 2339 c-121 -32 -208 -42 -257 -28 -49 13 -1744 15 -1993 1
l-140 -7 145 -6 c80 -4 350 -7 600 -8 250 -1 543 -7 650 -13 210 -14 313 -15
741 -8 246 4 279 7 296 23 11 9 31 17 46 17 14 0 29 5 32 10 4 6 -9 10 -31 10
-35 0 -37 1 -18 15 24 18 15 18 -71 -6z"/>
<path d="M3323 2334 c-41 -25 -43 -25 -140 -14 -54 6 -120 10 -148 8 l-50 -3
45 -7 c25 -3 86 -12 135 -20 73 -10 486 -13 2140 -13 1358 0 2051 -3 2054 -10
2 -5 -28 -21 -65 -33 -148 -51 -412 -87 -519 -71 -71 11 -3357 10 -3555 0
-169 -10 768 -16 2270 -16 608 0 1114 -4 1150 -9 l65 -9 -110 -29 c-60 -15
-162 -38 -225 -49 -114 -21 -132 -21 -1960 -25 -1043 -2 -1873 -8 -1910 -13
-41 -6 563 -9 1635 -9 1055 0 1711 -4 1730 -10 l30 -9 -25 -7 c-36 -9 -281
-46 -375 -57 -145 -17 -753 -28 -1170 -22 -454 7 -1028 -5 -935 -19 30 -4 348
-7 705 -7 645 1 707 -1 726 -32 5 -8 22 -7 62 5 118 34 151 11 53 -37 -62 -31
-124 -46 -183 -47 -44 0 -52 7 -31 28 23 23 -3 24 -86 3 -92 -23 -157 -27
-186 -11 -12 6 -68 4 -171 -8 -167 -18 -586 -20 -2864 -8 -644 3 -968 2 -945
-5 53 -15 1041 -28 2153 -29 647 -1 1009 -5 1028 -12 16 -5 29 -16 29 -24 0
-18 7 -18 130 11 124 29 185 33 176 10 -7 -18 35 -20 139 -4 96 14 750 20
2240 20 845 1 1247 4 1220 11 -24 6 -451 12 -1080 14 -1466 7 -1519 8 -1524
19 -6 16 49 43 135 67 l79 22 2238 2 c1232 2 2241 4 2243 7 10 9 -753 17
-2254 24 -882 3 -1598 10 -1590 13 30 17 138 50 208 64 88 19 398 40 453 32
21 -4 357 -5 745 -4 389 2 856 2 1037 0 182 -1 364 1 405 6 44 4 -376 11
-1025 15 -604 4 -1101 10 -1104 13 -12 12 24 27 130 53 224 57 202 56 1179 56
1309 0 1549 3 1525 17 -15 9 -277 11 -1025 10 -553 -1 -1014 2 -1025 7 -19 8
-19 9 6 19 50 20 111 33 242 53 106 17 210 22 525 29 216 4 395 10 398 13 3 3
-14 9 -39 12 -33 5 -47 12 -50 26 -7 25 -55 25 -217 -2 -122 -20 -168 -21
-1690 -26 -861 -3 -1587 -5 -1615 -4 -199 4 -1362 0 -1412 -5 -62 -7 -62 -7
-80 25 -22 37 -26 37 -80 5z m2435 -400 l37 -16 -33 -10 c-41 -11 -117 -7
-117 7 0 8 45 29 73 34 1 1 19 -6 40 -15z"/>
<path d="M8695 2311 l-50 -7 55 -6 c134 -16 2680 -44 2925 -33 321 16 107 24
-635 25 -399 0 -966 7 -1260 15 -544 15 -945 17 -1035 6z"/>
<path d="M2135 2204 c-85 -25 -271 -29 -467 -9 -109 11 -225 16 -300 13 -107
-3 -131 -8 -180 -30 -32 -15 -58 -33 -58 -41 0 -31 57 -29 195 7 65 18 190 21
200 6 16 -25 -156 -84 -300 -102 -74 -9 -106 -9 -163 2 -54 10 -109 11 -219 5
-82 -4 -201 -9 -266 -10 -178 -4 -167 -20 23 -35 122 -10 179 -11 233 -2 50 7
271 9 712 5 516 -4 638 -3 628 7 -9 10 -97 14 -365 17 -354 3 -418 7 -418 22
0 11 130 46 245 66 157 27 358 35 760 29 215 -3 424 -2 465 3 65 8 40 10 -185
17 -300 9 -453 20 -468 35 -13 13 -8 13 -72 -5z"/>
<path d="M12060 2175 c0 -8 5 -15 10 -15 6 0 10 7 10 15 0 8 -4 15 -10 15 -5
0 -10 -7 -10 -15z"/>
<path d="M9575 2160 c105 -14 633 -23 612 -10 -12 8 -122 13 -345 15 -199 2
-304 0 -267 -5z"/>
<path d="M10996 2159 c-27 -4 -54 -13 -59 -18 -8 -8 55 -11 213 -11 242 0 278
11 96 29 -123 12 -179 12 -250 0z"/>
<path d="M10353 2153 c-32 -12 -6 -18 80 -17 50 1 103 2 117 3 23 2 24 3 5 11
-21 9 -182 12 -202 3z"/>
<path d="M483 2129 c-23 -11 -47 -27 -54 -35 -11 -13 -8 -14 17 -9 48 11 105
38 101 49 -6 18 -21 16 -64 -5z"/>
<path d="M11805 2140 c11 -5 58 -8 105 -8 78 1 81 1 35 8 -70 11 -166 11 -140
0z"/>
<path d="M298 2018 c29 -6 57 -6 80 0 33 9 27 10 -43 10 -75 0 -77 -1 -37 -10z"/>
<path d="M2300 2020 c0 -5 4 -10 9 -10 6 0 13 5 16 10 3 6 -1 10 -9 10 -9 0
-16 -4 -16 -10z"/>
<path d="M8975 2019 c49 -15 521 -17 536 -1 10 10 -45 12 -276 11 -195 0 -280
-4 -260 -10z"/>
<path d="M9675 2021 l-40 -7 45 -7 c70 -10 466 -21 486 -13 44 17 -19 24 -210
23 -110 0 -210 2 -221 5 -11 3 -38 2 -60 -1z"/>
<path d="M10315 2007 c-16 -12 -12 -15 40 -20 61 -6 115 0 115 13 0 22 -126
27 -155 7z"/>
<path d="M11131 2011 c-7 -5 -9 -11 -4 -14 6 -4 163 -7 349 -7 270 0 348 3
384 14 41 13 12 15 -335 15 -209 0 -386 -3 -394 -8z"/>
<path d="M425 1956 c-67 -18 -113 -37 -98 -43 7 -2 22 1 35 8 13 7 64 13 113
14 94 2 145 11 145 26 0 13 -137 9 -195 -5z"/>
<path d="M10388 1953 c-28 -7 -21 -21 12 -28 19 -4 36 -2 45 5 29 24 -5 37
-57 23z"/>
<path d="M1672 1900 c-29 -4 -56 -11 -59 -14 -4 -3 354 -6 795 -6 523 0 803 3
807 10 3 6 0 10 -7 11 -101 5 -1498 5 -1536 -1z"/>
<path d="M9835 1881 c-62 -15 133 -21 659 -20 292 0 519 4 505 9 -34 10 -1125
21 -1164 11z"/>
<path d="M11350 1871 l-35 -7 49 -7 c63 -9 399 -8 451 2 l40 7 -49 7 c-59 9
-407 7 -456 -2z"/>
<path d="M6190 1809 c0 -5 5 -7 10 -4 6 3 10 8 10 11 0 2 -4 4 -10 4 -5 0 -10
-5 -10 -11z"/>
<path d="M9070 1783 c-71 -13 -183 -15 -687 -15 -340 1 -603 -2 -603 -7 0 -19
122 -25 528 -26 400 0 424 -1 437 -18 10 -14 21 -17 42 -13 15 3 107 10 203
16 227 15 275 27 237 59 -23 19 -69 20 -157 4z"/>
<path d="M10053 1743 c-29 -2 -53 -8 -53 -14 0 -5 349 -9 928 -8 568 1 910 5
882 10 -58 12 -306 15 -819 11 -227 -2 -520 -1 -650 1 -130 3 -260 3 -288 0z"/>
<path d="M620 1651 c-172 -4 -276 -9 -262 -14 40 -15 423 -17 4837 -27 2360
-5 4517 -14 4795 -19 395 -8 889 -13 1040 -10 8 0 220 -2 470 -4 418 -4 541 0
470 16 -14 3 -596 11 -1295 17 -698 6 -1403 15 -1565 21 -162 5 -565 8 -895 7
-1383 -7 -4044 2 -4245 13 -159 9 -266 9 -480 -1 -201 -9 -580 -11 -1405 -7
-621 3 -1141 7 -1155 9 -14 2 -153 2 -310 -1z"/>
<path d="M3265 1570 c-10 -11 -15 -20 -11 -20 14 0 46 21 46 30 0 16 -16 11
-35 -10z"/>
<path d="M2847 1545 c-165 -45 -187 -45 -1296 -40 -623 3 -1062 2 -1070 -4 -8
-5 178 -11 475 -15 269 -3 804 -11 1189 -16 399 -6 745 -7 805 -2 58 5 1056 8
2217 7 1454 0 2109 3 2102 10 -7 7 -709 10 -2210 10 l-2200 0 23 20 c13 11 35
28 48 37 32 22 23 21 -83 -7z"/>
<path d="M7423 1493 c-24 -2 -43 -8 -43 -14 0 -5 59 -9 140 -9 138 0 183 11
94 24 -47 6 -113 6 -191 -1z"/>
<path d="M7810 1491 c-142 -12 -54 -19 240 -19 178 0 289 3 279 8 -20 12 -418
20 -519 11z"/>
<path d="M8510 1481 c8 -5 267 -11 575 -15 308 -3 704 -8 880 -10 376 -5 323
7 -100 23 -333 13 -1377 14 -1355 2z"/>
<path d="M10487 1460 c-48 -4 -89 -9 -92 -11 -4 -5 1388 -4 1540 1 l90 3 -70
7 c-90 10 -1352 9 -1468 0z"/>
<path d="M400 1382 c-97 -12 299 -22 1160 -31 448 -4 853 -5 900 -1 l85 5
-105 7 c-58 4 -404 10 -770 13 -366 3 -789 7 -940 9 -151 2 -300 1 -330 -2z"/>
<path d="M6348 1371 c-36 -3 -69 -9 -73 -13 -9 -9 175 -15 240 -7 106 11 -48
30 -167 20z"/>
<path d="M2700 1360 c-45 -10 3155 -10 3280 0 52 3 -656 7 -1575 7 -918 0
-1686 -3 -1705 -7z"/>
<path d="M6655 1360 c-4 -7 82 -10 252 -9 165 1 244 4 218 10 -58 12 -462 11
-470 -1z"/>
<path d="M7290 1360 c-16 -5 19 -9 95 -11 137 -5 230 2 202 14 -24 9 -264 7
-297 -3z"/>
<path d="M7830 1362 c0 -10 823 -22 1480 -22 245 0 562 -5 705 -10 153 -6 314
-7 390 -2 l130 8 -125 7 c-415 21 -2580 37 -2580 19z"/>
<path d="M4169 3203 c-13 -16 -12 -17 4 -4 16 13 21 21 13 21 -2 0 -10 -8 -17
-17z"/>
<path d="M9900 3610 c19 -13 30 -13 30 0 0 6 -10 10 -22 10 -19 0 -20 -2 -8
-10z"/>
</g>
</svg>
