<?xml version="1.0" standalone="no"?>
<!DOCTYPE svg PUBLIC "-//W3C//DTD SVG 20010904//EN"
 "http://www.w3.org/TR/2001/REC-SVG-20010904/DTD/svg10.dtd">
<svg version="1.0" xmlns="http://www.w3.org/2000/svg"
 width="1280.000000pt" height="640.000000pt" viewBox="0 0 1280.000000 640.000000"
 preserveAspectRatio="xMidYMid meet">
<metadata>
Created by potrace 1.15, written by Peter Selinger 2001-2017
</metadata>
<g transform="translate(0.000000,640.000000) scale(0.100000,-0.100000)"
fill="#ff9800" stroke="none">
<path d="M9293 6260 c-753 -7 -794 -8 -820 -26 -28 -19 -20 -19 557 -27 322
-4 1224 -4 2005 0 781 4 1479 6 1550 3 l130 -5 -85 -90 c-47 -49 -101 -102
-120 -116 -42 -31 -493 -457 -532 -502 -15 -18 -28 -38 -28 -45 0 -25 60 21
213 165 83 78 153 140 156 137 6 -5 -250 -255 -327 -318 -37 -31 -48 -36 -50
-23 -9 45 -35 24 -446 -354 -176 -162 -343 -315 -371 -341 l-51 -46 -2200 -11
c-2835 -14 -8762 -17 -8774 -5 -6 6 30 45 93 101 56 51 163 149 237 218 74 69
157 144 183 168 26 23 67 62 90 86 23 24 229 215 457 424 228 210 451 416 495
458 l80 77 495 7 c380 5 501 10 522 20 23 11 29 11 39 -1 9 -11 53 -14 220
-14 204 0 208 0 224 -22 l15 -23 6 23 6 22 1912 2 c3082 2 3244 3 3252 11 32
32 19 32 -3347 35 l-3331 2 -96 -91 c-164 -154 -701 -650 -817 -754 -60 -54
-273 -249 -472 -434 l-363 -335 0 -298 0 -298 208 -2 207 -3 -4 -190 c-2 -104
-7 -235 -11 -290 -9 -129 -9 -129 118 -133 l97 -4 77 80 78 80 0 193 c0 211 6
269 26 269 21 0 26 -88 22 -452 l-3 -348 -76 -72 c-85 -82 -109 -131 -109
-228 0 -103 74 -206 162 -225 l30 -7 -3 -1039 c-3 -845 -2 -1040 9 -1051 10
-10 60 -13 203 -12 l189 0 0 -232 0 -232 228 -7 c125 -4 283 -5 352 -1 116 6
127 8 150 32 14 14 51 45 82 70 31 24 67 59 79 76 12 18 24 35 25 36 9 12 109
23 314 33 171 9 994 11 3040 10 2676 -2 3349 -8 3432 -31 30 -9 42 -8 61 5 20
13 26 13 42 1 15 -11 26 -11 59 -1 23 7 65 15 94 19 l53 7 -5 -33 c-27 -172
-28 -180 -17 -191 9 -9 120 -13 382 -15 l371 -4 82 79 c45 43 108 100 140 127
53 44 57 52 52 80 -3 17 -10 56 -15 86 -5 30 -10 118 -10 196 -1 145 8 184 40
172 12 -5 13 -21 8 -84 -12 -129 -11 -292 3 -300 17 -11 40 27 33 56 -10 42
-18 266 -11 322 9 68 19 86 39 70 12 -10 16 -9 21 4 3 8 6 24 6 35 0 10 5 19
10 19 6 0 10 -26 10 -58 0 -93 -12 -212 -21 -212 -5 0 -9 37 -9 82 0 135 -18
76 -22 -71 -2 -105 0 -135 10 -139 10 -3 13 6 10 34 -3 37 -1 39 27 39 38 0
43 17 44 182 1 76 5 134 11 138 6 4 10 -13 10 -44 0 -53 7 -81 21 -81 18 0 31
44 44 153 13 105 16 114 45 139 16 16 39 28 51 28 18 0 19 -2 6 -20 -12 -18
-12 -32 4 -113 10 -50 21 -109 24 -130 7 -45 28 -57 55 -32 15 14 18 26 14 54
-3 20 1 106 10 190 17 161 29 199 73 228 21 14 22 13 31 -19 7 -27 15 -35 45
-42 49 -13 68 6 75 73 l5 51 176 0 c134 0 183 4 204 15 15 8 67 51 116 95 l88
82 0 404 c0 300 3 408 12 417 7 7 50 13 104 15 l92 4 58 56 c32 31 64 68 71
82 10 19 15 177 20 680 12 1046 22 1535 32 1550 6 10 11 -13 14 -72 3 -48 11
-93 17 -99 7 -7 47 -12 95 -13 99 -1 106 3 232 117 l86 79 0 211 0 212 225
210 225 209 -1 251 c-1 137 -4 261 -8 274 -4 15 -17 27 -33 32 -31 8 -687 16
-903 10 -82 -2 -514 -1 -960 2 -445 3 -1166 2 -1602 -3z m3428 -127 c-20 -36
-239 -245 -250 -239 -16 10 -14 47 3 40 8 -3 62 40 132 105 66 61 120 111 122
111 1 0 -2 -8 -7 -17z m29 -47 c0 -14 -155 -163 -645 -620 -176 -165 -245
-225 -245 -213 0 6 881 847 886 847 2 0 4 -7 4 -14z m-10 -83 c0 -19 -95 -113
-335 -331 -88 -81 -202 -186 -253 -235 -51 -48 -97 -85 -103 -82 -14 9 -6 18
129 137 64 57 166 154 227 217 100 104 321 311 331 311 2 0 4 -8 4 -17z m-10
-93 c-6 -10 -66 -74 -135 -142 -69 -67 -125 -126 -125 -131 0 -10 30 15 164
136 54 48 102 87 107 87 19 0 7 -23 -38 -72 -58 -62 -670 -631 -843 -783 -68
-61 -161 -144 -205 -185 -44 -41 -159 -145 -255 -231 -96 -85 -181 -163 -189
-173 -8 -9 -28 -27 -44 -38 l-30 -22 24 33 c13 18 103 106 200 194 478 439
687 642 674 655 -2 2 -37 -23 -77 -56 -40 -33 -74 -59 -77 -57 -6 7 212 231
269 276 30 24 137 122 239 218 248 237 329 311 342 311 6 0 6 -7 -1 -20z
m-305 -70 c-10 -11 -23 -20 -28 -20 -6 0 0 11 13 25 27 29 42 25 15 -5z m315
-77 c0 -5 -14 -28 -30 -52 -17 -24 -30 -52 -30 -63 0 -12 -7 -18 -23 -18 -28
0 -67 -26 -67 -45 0 -7 -15 -22 -32 -32 -47 -28 -136 -111 -143 -132 -3 -11
-16 -22 -28 -25 -12 -3 -53 -37 -92 -76 -60 -60 -66 -70 -46 -70 19 0 21 -3
11 -15 -9 -11 -16 -12 -30 -2 -16 9 -24 7 -45 -13 -28 -27 -27 -37 4 -20 15 7
21 7 21 0 0 -6 -19 -19 -42 -29 -43 -18 -207 -155 -362 -300 -87 -82 -549
-501 -622 -565 -24 -21 -44 -33 -44 -27 0 14 -4 10 610 582 261 243 549 512
640 598 323 307 350 331 350 304z m-840 -413 c0 -5 -7 -10 -16 -10 -8 0 -12 5
-9 10 3 6 10 10 16 10 5 0 9 -4 9 -10z m80 -65 c-24 -25 -49 -45 -55 -45 -11
0 80 90 91 90 5 0 -12 -20 -36 -45z m365 35 c-3 -5 -11 -10 -16 -10 -6 0 -7 5
-4 10 3 6 11 10 16 10 6 0 7 -4 4 -10z m-520 -40 c-16 -17 -36 -30 -44 -30
-10 1 -1 14 24 35 47 40 60 37 20 -5z m-75 -53 c0 -2 -10 -12 -22 -23 l-23
-19 19 23 c18 21 26 27 26 19z m53 -31 c-37 -44 -63 -60 -75 -48 -7 7 8 22 43
45 30 20 56 36 57 36 2 1 -9 -14 -25 -33z m83 6 c-8 -9 -19 -13 -22 -9 -10 9
16 38 28 31 6 -4 4 -13 -6 -22z m-261 -102 c-10 -11 -20 -18 -23 -15 -3 3 3
14 13 25 10 11 20 18 23 15 3 -3 -3 -14 -13 -25z m160 -1 c-22 -42 -11 -48 25
-14 16 16 33 25 37 22 3 -4 -41 -54 -100 -112 -58 -58 -109 -114 -112 -125 -6
-19 -45 -29 -45 -12 0 4 38 45 85 92 81 81 107 121 68 105 -45 -18 -45 -14 -1
29 26 25 49 46 53 46 3 0 -2 -14 -10 -31z m315 -4 c-19 -19 -38 -35 -44 -35
-5 0 5 16 24 35 19 19 38 35 44 35 5 0 -5 -16 -24 -35z m-390 16 c0 -6 -4 -13
-10 -16 -5 -3 -10 1 -10 9 0 9 5 16 10 16 6 0 10 -4 10 -9z m497 -33 c-3 -7
-5 -2 -5 12 0 14 2 19 5 13 2 -7 2 -19 0 -25z m62 -20 c0 -13 -4 -43 -8 -68
-8 -44 -9 -44 -10 23 0 39 3 67 9 67 6 0 10 -10 9 -22z m-724 -28 c-3 -5 -11
-10 -16 -10 -6 0 -7 5 -4 10 3 6 11 10 16 10 6 0 7 -4 4 -10z m564 -130 c1
-30 -2 -85 -6 -122 l-6 -68 -68 0 c-43 0 -71 5 -75 12 -11 18 -5 137 8 162 5
12 38 49 72 84 l61 63 7 -38 c4 -21 7 -63 7 -93z m-114 90 c-16 -16 -31 -28
-33 -25 -7 7 39 55 52 55 5 0 -3 -13 -19 -30z m-438 -29 c-77 -72 -105 -85
-33 -17 38 37 71 65 73 62 3 -2 -15 -23 -40 -45z m93 24 c-13 -14 -28 -25 -33
-25 -6 0 0 11 13 25 13 14 28 25 33 25 6 0 0 -11 -13 -25z m-215 -56 c-47 -47
-49 -51 -32 -64 13 -9 15 -15 7 -20 -7 -4 -17 -2 -22 3 -8 8 -17 8 -32 0 -19
-10 -19 -8 3 18 28 32 113 113 121 114 2 0 -18 -23 -45 -51z m115 -44 c-7 -8
-17 -15 -22 -15 -6 0 -5 7 2 15 7 8 17 15 22 15 6 0 5 -7 -2 -15z m657 -27
c-3 -8 -6 -5 -6 6 -1 11 2 17 5 13 3 -3 4 -12 1 -19z m-672 -58 c-16 -16 -31
-28 -34 -25 -2 3 8 19 24 35 16 16 31 28 34 25 2 -3 -8 -19 -24 -35z m219 -35
c-4 -8 -11 -15 -16 -15 -6 0 -5 6 2 15 7 8 14 15 16 15 2 0 1 -7 -2 -15z
m-444 -30 c-7 -9 -32 -30 -54 -47 -41 -31 -41 -31 8 20 28 28 52 50 54 47 3
-2 -1 -12 -8 -20z m100 -44 c-30 -27 -57 -47 -60 -44 -6 7 91 93 105 93 5 0
-15 -23 -45 -49z m-40 29 c0 -5 -2 -10 -4 -10 -3 0 -8 5 -11 10 -3 6 -1 10 4
10 6 0 11 -4 11 -10z m427 -37 c-3 -10 -5 -4 -5 12 0 17 2 24 5 18 2 -7 2 -21
0 -30z m-157 -28 c-7 -8 -17 -15 -22 -15 -6 0 -5 7 2 15 7 8 17 15 22 15 6 0
5 -7 -2 -15z m-600 -30 c10 -12 13 -77 13 -261 0 -135 -4 -248 -8 -252 -4 -4
-2141 -8 -4749 -10 l-4743 -2 1 209 c1 115 -2 212 -6 216 -4 4 -108 10 -231
13 l-224 5 -57 -38 c-94 -62 -172 -183 -202 -312 -9 -37 -20 -73 -26 -80 -8
-10 -96 -13 -384 -13 l-374 0 0 228 c0 181 3 232 14 248 14 18 38 19 793 25
428 4 2333 10 4233 14 3018 7 5810 18 5906 23 18 1 37 -5 44 -13z m222 -7 c-7
-7 -12 -8 -12 -2 0 14 12 26 19 19 2 -3 -1 -11 -7 -17z m-89 -10 c-13 -12 -25
-19 -29 -15 -10 10 16 37 34 37 13 0 12 -4 -5 -22z m417 3 c0 -5 -17 -21 -37
-36 l-38 -28 34 36 c37 39 41 42 41 28z m100 -353 c0 -200 -4 -417 -9 -483 -5
-66 -6 -154 -2 -195 7 -88 -6 -1040 -14 -1049 -3 -3 -37 -7 -76 -9 l-69 -4 0
277 0 277 33 45 32 45 3 148 3 148 -38 9 c-34 8 -38 12 -37 39 1 16 4 245 8
509 l7 480 67 62 c37 34 73 63 80 63 9 0 12 -79 12 -362z m-380 333 c0 -12
-28 -22 -34 -12 -3 5 -3 11 1 15 9 9 33 7 33 -3z m481 -801 c-7 -94 -8 -81
-10 135 0 132 2 339 7 460 l7 220 3 -355 c1 -195 -2 -402 -7 -460z m-590 782
c-5 -9 -19 -26 -32 -37 -26 -23 -17 -2 14 33 25 27 31 28 18 4z m59 -22 c0 -5
-9 -14 -20 -20 -22 -12 -27 -1 -8 18 14 14 28 16 28 2z m160 -96 c-25 -25 -63
-60 -85 -76 -25 -20 -12 -3 35 45 41 42 79 77 84 77 6 0 -10 -21 -34 -46z
m-9960 22 c0 -8 -16 -27 -36 -42 -38 -29 -70 -86 -98 -171 -16 -48 -17 -185
-19 -1813 -2 -1553 -4 -1762 -17 -1770 -8 -5 -111 -10 -229 -10 l-214 0 8 878
c9 984 14 1183 33 1140 13 -31 32 -339 32 -520 0 -94 -4 -127 -20 -169 -24
-60 -20 -79 21 -114 58 -48 148 -20 168 52 15 51 15 52 -14 105 -28 53 -32 86
-44 438 l-9 224 92 99 c50 54 97 110 105 124 17 34 19 180 2 212 -25 45 -95
113 -142 137 l-48 24 6 53 c4 41 2 56 -11 66 -16 14 -97 17 -148 6 l-30 -7 4
374 c4 348 6 377 26 438 30 91 105 198 160 226 55 29 67 31 260 33 135 1 162
-1 162 -13z m9728 2 c-3 -7 -13 -15 -24 -17 -16 -3 -17 -1 -5 13 16 19 34 21
29 4z m-9679 -281 c1 -88 -1 -98 -16 -95 -16 3 -18 -9 -21 -106 -2 -66 1 -113
8 -120 7 -7 10 13 10 63 0 45 4 70 10 66 6 -4 10 -80 10 -195 0 -103 3 -195 6
-204 3 -9 14 -16 25 -16 19 0 49 -35 49 -58 0 -22 -25 -8 -28 16 -4 29 -16 28
-36 -3 -20 -31 -20 -54 -1 -61 13 -5 13 -9 3 -22 -10 -12 -14 -156 -19 -646
-5 -568 -7 -634 -23 -664 -14 -27 -18 -77 -23 -305 -9 -343 -22 -293 -22 85
-1 267 -2 278 -21 288 -29 16 -25 27 10 26 16 -1 30 -4 30 -8 0 -5 5 -8 10 -8
7 0 9 194 8 568 -2 428 -4 503 -8 305 -3 -144 -8 -264 -11 -268 -10 -9 -22
412 -19 640 4 258 2 298 -10 290 -6 -4 -10 -97 -11 -243 0 -142 -4 -229 -9
-217 -12 29 -12 772 0 780 6 4 10 -41 10 -129 0 -74 3 -141 6 -150 18 -47 24
24 24 295 0 193 4 299 10 299 6 0 10 -4 10 -10 0 -18 20 -11 21 8 4 40 17
-111 18 -201z m9971 153 c0 -5 -5 -10 -11 -10 -5 0 -7 5 -4 10 3 6 8 10 11 10
2 0 4 -4 4 -10z m-40 -27 c0 -10 -5 -25 -10 -33 -7 -11 -10 -7 -10 18 0 17 5
32 10 32 6 0 10 -8 10 -17z m-205 -43 c-10 -11 -20 -18 -23 -15 -3 3 3 14 13
25 10 11 20 18 23 15 3 -3 -3 -14 -13 -25z m69 -1093 c-8 -941 -11 -1047 -25
-1063 -9 -11 -18 -26 -21 -34 -4 -12 -7 -11 -16 6 -11 22 -7 76 24 268 24 145
7 234 -51 272 -13 9 -33 13 -44 9 -39 -12 -45 -56 -50 -372 -3 -166 -10 -305
-14 -309 -4 -4 -16 1 -26 12 -18 18 -18 23 -4 104 25 145 -4 365 -47 365 -21
0 -56 -78 -70 -154 -9 -54 -8 -72 6 -119 l18 -55 -30 -24 c-16 -14 -64 -56
-106 -95 -75 -67 -78 -69 -87 -46 -4 13 -11 114 -14 224 l-6 201 77 74 c43 41
132 125 200 187 133 124 150 145 132 167 -11 13 -10 109 2 230 l3 30 -97 3
-97 3 -102 -91 c-56 -50 -103 -89 -103 -88 -1 2 2 136 5 298 4 162 7 406 8
541 0 136 4 260 7 276 l6 30 141 7 c90 5 149 12 162 20 11 8 63 56 115 109 82
82 96 92 104 76 5 -10 5 -462 0 -1062z m173 1051 c-3 -8 -6 -5 -6 6 -1 11 2
17 5 13 3 -3 4 -12 1 -19z m-10082 -77 c-18 -36 -38 -36 -43 -2 -5 31 28 64
46 46 12 -10 11 -18 -3 -44z m9765 45 c0 -3 -4 -8 -10 -11 -5 -3 -10 -1 -10 4
0 6 5 11 10 11 6 0 10 -2 10 -4z m676 -23 c-10 -10 -19 5 -10 18 6 11 8 11 12
0 2 -7 1 -15 -2 -18z m-356 -3 c0 -5 -7 -10 -16 -10 -8 0 -12 5 -9 10 3 6 10
10 16 10 5 0 9 -4 9 -10z m-54 -67 c-11 -11 -19 6 -11 24 8 17 8 17 12 0 3
-10 2 -21 -1 -24z m414 7 c0 -5 -5 -10 -11 -10 -5 0 -7 5 -4 10 3 6 8 10 11
10 2 0 4 -4 4 -10z m-382 -68 c3 -9 -3 -13 -19 -10 -12 1 -24 9 -27 16 -3 9 3
13 19 10 12 -1 24 -9 27 -16z m382 8 c0 -5 -5 -10 -11 -10 -5 0 -7 5 -4 10 3
6 8 10 11 10 2 0 4 -4 4 -10z m-11262 -284 c-1 -151 -6 -277 -10 -281 -15 -16
-78 -22 -94 -11 -31 23 -42 198 -28 438 l7 106 51 10 c28 5 57 10 64 11 11 1
13 -49 10 -273z m1461 -531 c1 -392 5 -595 11 -585 6 9 10 117 10 255 0 337
12 708 21 693 5 -7 9 -34 9 -60 0 -27 5 -48 10 -48 6 0 10 80 10 219 0 228 7
322 21 299 5 -7 9 -102 9 -211 0 -166 2 -199 15 -203 9 -4 15 -19 15 -36 0
-16 -4 -27 -10 -23 -5 3 -7 12 -4 19 3 8 1 17 -5 21 -8 4 -11 -28 -11 -104 0
-94 2 -110 15 -105 13 5 15 -11 15 -109 0 -63 -3 -130 -7 -148 l-8 -34 -6 40
c-4 25 -7 -5 -8 -77 -1 -79 3 -119 11 -124 7 -5 5 -11 -7 -21 -11 -7 -22 -13
-27 -13 -4 0 -8 81 -8 180 0 99 -4 180 -8 180 -14 0 -22 -277 -22 -708 0 -260
-3 -391 -10 -387 -6 4 -10 86 -11 208 -1 111 -4 216 -8 232 -12 51 -21 -107
-21 -357 0 -145 -4 -228 -10 -228 -17 0 -18 686 -3 1615 10 578 20 399 22
-380z m580 790 c2 -2 0 -483 -4 -1068 l-8 -1064 -186 -177 -186 -176 -7 42
c-3 24 -7 137 -7 252 l-1 210 112 113 111 113 -6 97 c-4 54 -7 121 -7 150 0
75 -12 83 -121 83 l-89 0 0 634 c0 349 4 645 9 658 5 13 30 36 55 52 26 16 47
37 47 47 1 17 5 35 8 42 2 3 275 -4 280 -8z m770 2 c18 -22 38 -130 71 -369
17 -126 35 -239 40 -253 8 -21 16 -25 53 -25 24 0 48 5 55 12 19 19 14 135
-13 333 -14 99 -25 209 -25 244 l0 64 758 -6 c416 -4 1181 -7 1700 -7 l942 0
0 -272 0 -271 1136 6 1136 5 -4 -679 c-2 -543 -6 -681 -16 -688 -19 -11 -781
-21 -1704 -21 l-808 0 0 43 c0 57 -26 82 -81 78 -8 0 -42 -28 -75 -61 l-59
-60 -1570 3 -1570 2 -9 944 c-8 932 -7 991 23 991 5 0 13 -6 20 -13z m5861
-55 c0 -38 -3 -150 -7 -249 l-6 -180 -1001 -6 c-551 -4 -1050 -3 -1111 1
l-110 7 0 240 0 240 1060 5 c583 3 1086 6 1118 8 l57 2 0 -68z m644 48 c5 -5
7 -647 5 -1472 -5 -1909 -5 -2156 4 -2165 5 -4 12 -1 17 6 6 11 13 6 29 -20
23 -38 26 -55 11 -64 -5 -3 -10 -15 -10 -26 0 -11 -5 -17 -10 -14 -6 4 -8 21
-5 39 5 23 2 36 -9 45 -28 23 -38 2 -34 -72 l3 -70 -30 -10 c-16 -6 -33 -15
-37 -21 -5 -8 -14 -7 -30 4 -19 12 -72 16 -275 18 l-253 3 0 1388 c0 763 3
1625 7 1914 l6 526 121 3 c182 4 480 -3 490 -12z m-8004 -5 c17 -21 0 -3789
-18 -3807 -14 -14 -584 -19 -599 -5 -11 12 -16 281 -6 342 8 48 10 50 50 58
52 10 182 118 208 173 21 44 35 260 34 509 l-1 140 111 105 111 105 0 167 c0
91 -3 173 -6 182 -5 13 -25 16 -110 16 l-104 0 0 680 0 680 53 52 c29 29 74
70 99 91 54 45 73 88 65 155 -4 35 -12 53 -36 74 -40 35 -57 35 -126 -2 l-55
-30 0 159 c0 118 3 161 13 164 6 3 78 6 158 6 117 1 149 -2 159 -14z m370 5
c0 -5 -4 -10 -10 -10 -5 0 -10 5 -10 10 0 6 5 10 10 10 6 0 10 -4 10 -10z
m820 -502 c0 -282 3 -813 7 -1180 l6 -668 -77 0 c-125 0 -119 -13 -110 221 l7
199 -31 0 c-50 0 -77 -16 -158 -90 -42 -39 -77 -70 -78 -68 0 2 0 474 2 1051
l3 1047 215 0 214 0 0 -512z m200 322 c6 0 10 -11 10 -25 0 -14 -4 -25 -10
-25 -5 0 -10 -14 -10 -31 0 -17 4 -28 10 -24 7 4 9 -40 8 -127 -1 -73 -3 -105
-5 -70 -4 64 -18 83 -26 35 -2 -16 -5 78 -6 208 0 130 2 239 7 243 4 4 8 -35
10 -88 1 -53 7 -96 12 -96z m6805 -208 c-6 -389 -13 -597 -21 -589 -7 7 -5
801 2 899 4 48 11 85 16 82 4 -3 6 -176 3 -392z m645 -190 l0 -588 -155 -143
-155 -142 0 -144 c0 -171 -1 -169 115 -163 69 3 76 6 124 46 l51 43 0 -120 0
-121 -250 0 -250 0 0 323 c0 177 3 609 7 960 l6 637 254 0 253 0 0 -588z
m-8750 568 c0 -5 -2 -10 -4 -10 -3 0 -8 5 -11 10 -3 6 -1 10 4 10 6 0 11 -4
11 -10z m1470 0 c0 -5 -2 -10 -4 -10 -3 0 -8 5 -11 10 -3 6 -1 10 4 10 6 0 11
-4 11 -10z m-1289 -103 c-13 -13 -14 10 -3 68 l7 40 3 -49 c2 -27 -2 -54 -7
-59z m1004 37 c2 -27 4 -52 5 -56 0 -5 9 -8 19 -8 10 0 22 -7 25 -16 8 -22 -3
-32 -14 -14 -14 23 -27 2 -38 -60 -9 -53 -10 -50 -11 52 0 59 -5 118 -10 131
-6 14 -7 28 -4 31 13 12 23 -11 28 -60z m6974 -86 c1 -27 6 -48 14 -51 9 -3 9
-9 -1 -27 -8 -12 -16 -65 -19 -116 -5 -81 -4 -94 11 -100 20 -8 21 -40 1 -48
-13 -5 -15 -67 -14 -483 1 -301 5 -454 10 -414 4 34 10 68 13 75 2 6 5 -288 5
-654 1 -366 4 -721 7 -790 3 -78 1 -131 -5 -140 -17 -24 -26 -2 -27 68 -3 114
-4 122 -12 122 -5 0 -12 -57 -16 -126 -8 -151 -25 -201 -26 -75 0 46 -3 81 -7
77 -4 -3 -13 -41 -20 -84 l-12 -77 4 78 c3 43 10 87 15 98 22 40 40 472 21
483 -5 4 -14 -6 -19 -21 -9 -24 -11 -18 -11 38 -1 88 -12 160 -22 153 -5 -3
-9 -63 -9 -133 0 -70 -3 -164 -7 -207 -6 -72 -8 -76 -16 -44 -10 41 -10 34 -1
176 6 106 6 113 -14 130 -19 16 -19 19 -5 29 14 11 17 55 18 386 2 345 6 409
24 409 3 0 5 -90 3 -200 -2 -120 1 -200 6 -200 15 0 22 142 22 435 0 149 4
297 9 330 6 40 9 -135 9 -535 0 -716 0 -720 12 -699 9 16 30 1247 30 1789 0
168 3 350 7 405 7 97 8 98 14 45 4 -30 7 -76 8 -102z m1351 128 c0 -8 -4 -18
-10 -21 -5 -3 -10 3 -10 14 0 12 5 21 10 21 6 0 10 -6 10 -14z m-9401 -153
c-1 -87 -5 -169 -9 -183 -5 -15 -8 50 -9 158 -1 115 3 182 9 182 6 0 10 -59 9
-157z m7938 125 c-3 -7 -5 -2 -5 12 0 14 2 19 5 13 2 -7 2 -19 0 -25z m-39 11
c-2 -6 -8 -10 -13 -10 -5 0 -11 4 -13 10 -2 6 4 11 13 11 9 0 15 -5 13 -11z
m-8008 -56 c0 -41 -3 -54 -10 -43 -11 17 -13 61 -4 84 11 28 14 18 14 -41z
m1535 17 c0 -13 -6 -25 -12 -27 -16 -6 -27 21 -19 43 9 23 31 11 31 -16z
m7875 -22 c0 -16 5 -28 10 -28 6 0 10 18 10 40 0 22 5 40 10 40 13 0 13 -100
0 -120 -8 -12 -10 -12 -10 5 0 16 -2 17 -10 5 -13 -21 -17 -12 -25 55 -5 43
-3 56 4 45 6 -8 11 -27 11 -42z m-10703 10 c-3 -7 -5 -2 -5 12 0 14 2 19 5 13
2 -7 2 -19 0 -25z m670 0 c-3 -7 -5 -2 -5 12 0 14 2 19 5 13 2 -7 2 -19 0 -25z
m8672 -100 c-1 -61 -2 -68 -10 -43 -9 27 -4 115 7 115 2 0 4 -33 3 -72z
m-9302 -35 c-2 -21 -4 -6 -4 32 0 39 2 55 4 38 2 -18 2 -50 0 -70z m9253 67
c0 -16 -4 -30 -10 -30 -11 0 -14 43 -3 53 11 12 13 8 13 -23z m-8623 -22 c-3
-7 -5 -2 -5 12 0 14 2 19 5 13 2 -7 2 -19 0 -25z m10383 17 c0 -8 -4 -15 -10
-15 -5 0 -10 7 -10 15 0 8 5 15 10 15 6 0 10 -7 10 -15z m-266 -42 c-8 -45 -9
-47 -23 -39 -7 5 -7 13 -2 24 5 9 12 25 15 35 10 32 17 18 10 -20z m-9497 5
c-3 -8 -6 -5 -6 6 -1 11 2 17 5 13 3 -3 4 -12 1 -19z m1533 -6 c0 -15 -2 -15
-10 -2 -13 20 -13 33 0 25 6 -3 10 -14 10 -23z m7920 -48 c0 -13 -4 -24 -10
-24 -5 0 -10 14 -10 31 0 17 4 28 10 24 6 -3 10 -17 10 -31z m-1450 -4 c0 -11
-4 -20 -10 -20 -5 0 -10 9 -10 20 0 11 5 20 10 20 6 0 10 -9 10 -20z m1830
-155 c-22 -36 -20 -55 6 -55 11 0 14 -16 14 -69 0 -39 -4 -73 -10 -76 -6 -4
-10 13 -10 44 0 59 -7 81 -26 81 -8 0 -14 6 -14 14 0 7 -6 19 -14 25 -12 10
-11 15 7 35 12 12 27 20 34 18 8 -2 14 23 20 80 l8 83 3 -73 c2 -60 -1 -79
-18 -107z m-9831 98 c0 -49 -2 -54 -10 -33 -9 23 -4 90 6 90 3 0 5 -26 4 -57z
m-243 16 c8 -6 14 -16 14 -22 0 -5 -8 -3 -17 6 -10 8 -29 17 -42 19 -14 1 -26
8 -28 15 -5 14 50 1 73 -18z m8241 -41 c-3 -7 -5 -2 -5 12 0 14 2 19 5 13 2
-7 2 -19 0 -25z m1502 -183 c-1 -112 2 -209 6 -215 7 -12 -11 -40 -26 -40 -10
0 -12 412 -3 447 16 58 23 -5 23 -192z m-9826 193 c15 -12 51 -97 44 -104 -3
-4 -87 102 -87 110 0 10 26 6 43 -6z m1874 -20 c-3 -8 -6 -5 -6 6 -1 11 2 17
5 13 3 -3 4 -12 1 -19z m6630 0 c-3 -8 -6 -5 -6 6 -1 11 2 17 5 13 3 -3 4 -12
1 -19z m1260 0 c-3 -8 -6 -5 -6 6 -1 11 2 17 5 13 3 -3 4 -12 1 -19z m-10743
-75 c-26 -19 -44 -16 -44 8 0 18 3 19 15 9 12 -10 16 -8 25 15 5 14 11 34 12
43 1 9 3 -1 5 -23 3 -29 0 -42 -13 -52z m1483 65 c-3 -8 -6 -5 -6 6 -1 11 2
17 5 13 3 -3 4 -12 1 -19z m9580 -15 c-3 -10 -5 -4 -5 12 0 17 2 24 5 18 2 -7
2 -21 0 -30z m-1708 -110 c0 -116 -3 -134 -13 -111 -17 39 -10 248 9 248 3 0
5 -62 4 -137z m-8412 95 c29 -27 31 -48 1 -22 -21 19 -21 19 -16 -3 8 -29 -6
-29 -26 -1 -34 48 -3 67 41 26z m8363 -59 c0 -27 -4 -49 -10 -49 -5 0 -10 25
-10 56 0 34 4 53 10 49 6 -3 10 -28 10 -56z m-8010 -9 c0 -5 -2 -10 -4 -10 -3
0 -8 5 -11 10 -3 6 -1 10 4 10 6 0 11 -4 11 -10z m-600 -20 c0 -5 -5 -10 -11
-10 -5 0 -7 5 -4 10 3 6 8 10 11 10 2 0 4 -4 4 -10z m10036 -18 c-17 -16 -18
-16 -5 5 7 12 15 20 18 17 3 -2 -3 -12 -13 -22z m-8146 2 c0 -8 -4 -12 -10 -9
-5 3 -10 10 -10 16 0 5 5 9 10 9 6 0 10 -7 10 -16z m-1091 -62 c0 -30 -2 -33
-9 -17 -12 28 -12 67 0 60 6 -3 10 -23 9 -43z m-199 28 c0 -5 -4 -10 -10 -10
-5 0 -10 5 -10 10 0 6 5 10 10 10 6 0 10 -4 10 -10z m1230 -10 c11 -7 7 -10
-17 -10 -18 0 -33 5 -33 10 0 13 30 13 50 0z m78 -52 c8 1 12 -12 11 -35 -1
-24 -3 -29 -6 -15 -5 23 -23 31 -24 10 0 -7 -4 -4 -9 8 -4 11 -5 33 -2 50 l6
29 6 -25 c4 -14 12 -24 18 -22z m-1918 -85 c-8 -48 -8 -48 -8 22 -1 49 2 64 8
48 5 -11 5 -43 0 -70z m10425 -55 c4 -72 11 -125 16 -122 5 3 9 14 9 25 0 10
5 19 10 19 6 0 10 -16 10 -36 0 -27 -5 -37 -20 -41 -13 -4 -21 -17 -26 -42 -3
-20 -7 -40 -9 -46 -2 -5 -3 80 -3 190 0 110 1 196 3 190 2 -5 7 -67 10 -137z
m-8622 13 c-4 -56 -10 -88 -15 -83 -6 6 -6 50 -2 107 4 58 10 91 15 83 4 -8 5
-56 2 -107z m8257 109 c0 -5 -5 -10 -11 -10 -5 0 -7 5 -4 10 3 6 8 10 11 10 2
0 4 -4 4 -10z m-10505 -16 c-19 -14 -19 -15 4 -21 l25 -6 -23 -9 c-13 -4 -25
-17 -28 -29 -7 -24 -36 -22 -41 4 -4 19 49 77 70 77 8 -1 6 -6 -7 -16z m10638
-6 c-13 -12 -25 -19 -29 -15 -10 10 16 37 34 37 13 0 12 -4 -5 -22z m-9576
-44 c-9 -9 -28 6 -21 18 4 6 10 6 17 -1 6 -6 8 -13 4 -17z m7993 -24 c0 -21
-4 -42 -10 -45 -6 -4 -10 13 -10 45 0 32 4 49 10 45 6 -3 10 -24 10 -45z
m1860 17 c0 -12 -5 -29 -10 -37 -7 -11 -10 -3 -10 28 0 26 4 41 10 37 6 -3 10
-16 10 -28z m-1800 9 c0 -3 -4 -8 -10 -11 -5 -3 -10 -1 -10 4 0 6 5 11 10 11
6 0 10 -2 10 -4z m127 -18 c-3 -8 -6 -5 -6 6 -1 11 2 17 5 13 3 -3 4 -12 1
-19z m1387 -2 c-6 -16 -24 -23 -24 -8 0 10 22 33 27 28 2 -2 1 -11 -3 -20z
m-9565 -23 c0 -10 -4 -27 -9 -38 -7 -16 -9 -13 -9 18 -1 20 4 37 9 37 6 0 10
-8 9 -17z m1310 -45 c-1 -35 -4 -51 -6 -35 -8 52 -24 28 -22 -33 3 -74 -6 -87
-16 -24 -9 65 2 142 23 147 10 3 18 5 20 6 1 0 1 -27 1 -61z m6728 -265 c-1
-59 -3 -13 -3 102 0 116 2 164 3 108 2 -56 2 -151 0 -210z m140 265 c-3 -7 -5
-2 -5 12 0 14 2 19 5 13 2 -7 2 -19 0 -25z m1393 1 c0 -6 -4 -7 -10 -4 -5 3
-10 11 -10 16 0 6 5 7 10 4 6 -3 10 -11 10 -16z m-10510 1 c12 -7 12 -12 -4
-29 -20 -22 -66 -29 -66 -10 0 39 37 60 70 39z m58 -32 c-6 -18 -57 -53 -65
-45 -9 9 37 57 55 57 7 0 12 -5 10 -12z m8859 -20 c-3 -8 -6 -5 -6 6 -1 11 2
17 5 13 3 -3 4 -12 1 -19z m1593 12 c0 -5 -8 -10 -17 -10 -15 0 -16 2 -3 10
19 12 20 12 20 0z m-10429 -28 c-14 -26 -38 -45 -45 -34 -3 5 4 19 15 30 25
27 44 29 30 4z m236 -19 c-3 -10 -5 -4 -5 12 0 17 2 24 5 18 2 -7 2 -21 0 -30z
m10112 -141 c-1 -92 -5 -212 -9 -267 -5 -76 -7 -35 -8 173 -1 180 1 271 8 267
6 -4 10 -71 9 -173z m-10506 144 c49 -18 71 -38 113 -104 39 -59 42 -94 18
-166 -35 -101 -131 -165 -230 -153 -103 11 -191 123 -182 232 5 60 48 142 85
160 11 6 27 16 34 22 31 24 106 29 162 9z m186 -13 c-18 -24 -43 -42 -48 -37
-6 6 40 54 52 54 5 0 3 -8 -4 -17z m9008 -50 c-3 -10 -5 -4 -5 12 0 17 2 24 5
18 2 -7 2 -21 0 -30z m-8987 14 c0 -2 -10 -12 -21 -23 -22 -19 -22 -19 -10 4
10 18 31 31 31 19z m1977 -229 c-1 -46 -3 -11 -3 77 0 88 2 125 3 83 2 -42 2
-114 0 -160z m-1740 200 c-3 -8 -6 -5 -6 6 -1 11 2 17 5 13 3 -3 4 -12 1 -19z
m8563 2 c0 -5 -4 -10 -10 -10 -5 0 -10 5 -10 10 0 6 5 10 10 10 6 0 10 -4 10
-10z m-6760 -21 c0 -6 -4 -7 -10 -4 -5 3 -10 11 -10 16 0 6 5 7 10 4 6 -3 10
-11 10 -16z m-1822 -54 c27 -12 29 -25 4 -25 -27 0 -42 20 -41 55 1 29 1 29 8
5 4 -14 17 -29 29 -35z m1871 -52 c-1 -88 -3 -98 -9 -58 -6 46 -2 165 6 165 2
0 3 -48 3 -107z m7816 55 c2 -2 -18 -22 -44 -43 -26 -22 -139 -122 -251 -222
-186 -167 -206 -183 -239 -182 -74 1 -77 11 -19 59 29 25 102 90 162 145 130
120 250 222 289 245 21 13 37 16 63 10 20 -5 37 -10 39 -12z m-1105 -29 c0
-11 -4 -17 -10 -14 -5 3 -10 15 -10 26 0 11 5 17 10 14 6 -3 10 -15 10 -26z
m-7813 -1 c-3 -8 -6 -5 -6 6 -1 11 2 17 5 13 3 -3 4 -12 1 -19z m8000 -55 c-2
-16 -4 -5 -4 22 0 28 2 40 4 28 2 -13 2 -35 0 -50z m1623 10 c0 -19 -3 -24
-10 -17 -6 6 -8 18 -4 27 9 24 14 21 14 -10z m-9810 -10 c0 -22 -2 -25 -10
-13 -13 20 -13 40 0 40 6 0 10 -12 10 -27z m-613 -15 c-3 -7 -5 -2 -5 12 0 14
2 19 5 13 2 -7 2 -19 0 -25z m1850 10 c-3 -8 -6 -5 -6 6 -1 11 2 17 5 13 3 -3
4 -12 1 -19z m7823 -48 c-36 -33 -69 -59 -75 -59 -5 0 19 27 54 59 35 33 69
60 75 60 6 -1 -18 -27 -54 -60z m-1060 -16 c0 -34 -4 -53 -10 -49 -5 3 -10 31
-10 61 0 34 4 53 10 49 6 -3 10 -31 10 -61z m-6674 -11 c-11 -11 -19 6 -11 24
8 17 8 17 12 0 3 -10 2 -21 -1 -24z m8481 15 c-3 -8 -6 -5 -6 6 -1 11 2 17 5
13 3 -3 4 -12 1 -19z m40 -70 c-2 -18 -4 -4 -4 32 0 36 2 50 4 33 2 -18 2 -48
0 -65z m-9647 31 c0 -16 -4 -29 -10 -29 -5 0 -10 16 -10 36 0 21 4 33 10 29 6
-3 10 -19 10 -36z m-760 -1 c-1 -26 -3 -30 -10 -16 -6 9 -7 23 -4 32 9 25 14
19 14 -16z m9680 27 c0 -2 -57 -50 -127 -106 -71 -56 -147 -120 -170 -142 -24
-23 -46 -37 -50 -33 -9 9 12 28 197 177 123 99 150 118 150 104z m-9720 -29
c0 -14 -4 -28 -10 -31 -6 -4 -10 7 -10 24 0 17 5 31 10 31 6 0 10 -11 10 -24z
m10410 -57 c0 -33 -4 -58 -9 -55 -13 8 -23 71 -15 100 11 43 24 18 24 -45z
m-9640 -213 c0 -210 2 -247 14 -237 11 9 15 8 20 -5 9 -23 -2 -54 -19 -54 -17
0 -31 -193 -16 -230 7 -19 10 -1 12 85 2 148 16 91 18 -74 1 -106 -1 -122 -14
-117 -13 5 -15 -25 -15 -227 0 -325 -12 -697 -22 -697 -9 0 -11 1751 -2 1800
16 75 24 -9 24 -244z m7871 181 c-13 -13 -15 50 -3 80 5 13 8 5 10 -26 2 -24
-2 -49 -7 -54z m1350 46 c-9 -16 -10 -14 -11 12 0 21 3 26 11 18 8 -8 8 -16 0
-30z m-1204 -10 c-3 -10 -5 -4 -5 12 0 17 2 24 5 18 2 -7 2 -21 0 -30z m763
17 c-8 -5 -17 -7 -19 -4 -3 3 1 9 9 14 8 5 17 7 19 4 3 -3 -1 -9 -9 -14z
m-8950 -22 c0 -25 -3 -29 -10 -18 -13 20 -13 50 0 50 6 0 10 -15 10 -32z
m9075 -15 c-88 -81 -297 -245 -304 -238 -3 4 6 17 22 28 15 12 55 46 90 76
107 92 221 181 232 181 5 -1 -12 -21 -40 -47z m-7780 -79 c3 -12 14 -24 25
-27 40 -10 11 -67 -35 -67 -14 0 -32 -11 -45 -27 -14 -18 -19 -21 -16 -10 3
10 6 27 6 38 0 10 6 19 14 19 16 0 26 43 26 110 0 70 14 98 18 35 1 -27 4 -60
7 -71z m-1845 71 c0 -8 -4 -15 -10 -15 -5 0 -10 7 -10 15 0 8 5 15 10 15 6 0
10 -7 10 -15z m9936 -83 c-12 -12 -18 8 -10 35 l8 28 4 -28 c2 -16 1 -31 -2
-35z m-8156 32 c0 -3 -11 -15 -25 -26 -14 -11 -25 -28 -25 -39 0 -10 -4 -19
-10 -19 -13 0 -13 31 0 64 7 19 17 26 35 26 14 0 25 -3 25 -6z m-1731 -121 c1
-45 -3 -85 -9 -88 -6 -4 -10 32 -9 102 0 70 3 101 9 88 5 -11 9 -57 9 -102z
m8541 76 c0 -16 -4 -29 -10 -29 -5 0 -10 16 -10 36 0 21 4 33 10 29 6 -3 10
-19 10 -36z m-8653 -6 c-3 -10 -5 -4 -5 12 0 17 2 24 5 18 2 -7 2 -21 0 -30z
m613 -30 c0 -50 -3 -64 -11 -56 -11 11 -4 123 7 123 2 0 4 -30 4 -67z m8800
52 c0 -8 -7 -15 -15 -15 -8 0 -15 -7 -15 -15 0 -8 -4 -15 -10 -15 -18 0 -10
29 12 44 28 20 28 20 28 1z m1007 -7 c-3 -8 -6 -5 -6 6 -1 11 2 17 5 13 3 -3
4 -12 1 -19z m-10840 -65 c-2 -16 -4 -3 -4 27 0 30 2 43 4 28 2 -16 2 -40 0
-55z m1243 50 c0 -5 -4 -15 -10 -23 -11 -18 -25 -7 -17 15 6 15 27 21 27 8z
m9240 -29 c0 -8 -4 -12 -10 -9 -5 3 -10 10 -10 16 0 5 5 9 10 9 6 0 10 -7 10
-16z m46 -176 c-4 -88 -11 -169 -16 -181 -7 -17 -9 -12 -9 26 -1 51 -17 63
-27 20 -11 -51 -12 -49 -13 16 -1 54 1 62 14 51 28 -23 35 0 35 121 0 88 3
118 11 113 9 -5 10 -51 5 -166z m264 162 c0 -5 -4 -10 -10 -10 -5 0 -10 5 -10
10 0 6 5 10 10 10 6 0 10 -4 10 -10z m-1056 -21 c-10 -11 -28 -25 -39 -31 -12
-5 -7 3 13 21 37 35 55 42 26 10z m176 -40 c-30 -27 -79 -68 -108 -91 -48 -38
-55 -40 -85 -30 l-32 10 28 1 c39 1 59 13 151 92 93 79 128 93 46 18z m330
-119 c0 -141 2 -160 18 -169 16 -9 15 -11 -6 -31 -16 -15 -23 -17 -27 -8 -8
23 -25 168 -25 210 0 61 21 169 31 162 5 -3 9 -77 9 -164z m-9014 32 c-13 -13
-16 9 -9 59 l8 54 3 -54 c2 -29 1 -56 -2 -59z m124 35 l-65 -61 -3 33 c-7 75
6 88 88 89 l45 1 -65 -62z m8240 53 c26 -14 40 -63 40 -140 0 -76 -6 -85 -64
-95 -28 -6 -41 -4 -47 6 -5 8 -9 65 -9 127 l0 112 31 0 c17 0 39 -4 49 -10z
m180 -3 c0 -8 -11 -19 -25 -25 -29 -13 -32 -6 -8 20 19 21 33 23 33 5z m660 3
c0 -5 -4 -10 -10 -10 -5 0 -10 5 -10 10 0 6 5 10 10 10 6 0 10 -4 10 -10z
m-10013 -52 c-3 -8 -6 -5 -6 6 -1 11 2 17 5 13 3 -3 4 -12 1 -19z m1853 7 c0
-8 -4 -15 -10 -15 -5 0 -10 7 -10 15 0 8 5 15 10 15 6 0 10 -7 10 -15z m-2263
-17 c-3 -8 -6 -5 -6 6 -1 11 2 17 5 13 3 -3 4 -12 1 -19z m10460 -30 c-3 -8
-6 -5 -6 6 -1 11 2 17 5 13 3 -3 4 -12 1 -19z m-8120 -95 c-2 -21 -4 -4 -4 37
0 41 2 58 4 38 2 -21 2 -55 0 -75z m-917 74 c0 -11 -87 -86 -128 -111 -28 -16
27 52 71 88 45 38 57 43 57 23z m-395 -16 c-3 -6 -11 -11 -17 -11 -6 0 -6 6 2
15 14 17 26 13 15 -4z m199 -12 c-3 -5 -10 -7 -15 -3 -5 3 -7 10 -3 15 3 5 10
7 15 3 5 -3 7 -10 3 -15z m-817 -46 c-3 -10 -5 -4 -5 12 0 17 2 24 5 18 2 -7
2 -21 0 -30z m-410 5 c-3 -8 -6 -5 -6 6 -1 11 2 17 5 13 3 -3 4 -12 1 -19z
m1359 -54 c-38 -36 -71 -62 -75 -59 -3 4 25 36 62 72 37 36 71 62 75 58 4 -4
-24 -36 -62 -71z m-836 57 c0 -12 -20 -25 -27 -18 -7 7 6 27 18 27 5 0 9 -4 9
-9z m1670 -11 c0 -5 -4 -10 -10 -10 -5 0 -10 5 -10 10 0 6 5 10 10 10 6 0 10
-4 10 -10z m70 1 c0 -6 -4 -13 -10 -16 -5 -3 -10 1 -10 9 0 9 5 16 10 16 6 0
10 -4 10 -9z m-1230 -26 c0 -14 -4 -25 -10 -25 -5 0 -10 11 -10 25 0 14 5 25
10 25 6 0 10 -11 10 -25z m359 -61 c-53 -55 -98 -88 -106 -80 -4 3 4 18 18 32
36 40 121 105 127 99 3 -3 -14 -26 -39 -51z m931 -24 c5 0 11 8 13 18 3 9 5 3
6 -15 1 -24 -3 -31 -13 -27 -10 4 -16 -10 -23 -53 l-10 -58 -2 92 c-1 98 12
162 17 86 2 -24 7 -43 12 -43z m-110 42 c0 -9 -5 -24 -10 -32 -7 -11 -10 -5
-10 23 0 23 4 36 10 32 6 -3 10 -14 10 -23z m41 -65 c-13 -13 -15 50 -3 80 5
13 8 5 10 -26 2 -24 -2 -49 -7 -54z m8156 41 c-2 -13 -4 -5 -4 17 -1 22 1 32
4 23 2 -10 2 -28 0 -40z m-1406 5 c-8 -15 -10 -15 -11 -2 0 17 10 32 18 25 2
-3 -1 -13 -7 -23z m1060 -15 c0 -24 4 -64 8 -90 14 -85 -13 -49 -33 44 -7 31
3 88 15 88 5 0 9 -19 10 -42z m-9641 18 c0 -8 -4 -18 -10 -21 -5 -3 -10 3 -10
14 0 12 5 21 10 21 6 0 10 -6 10 -14z m600 -111 c0 -43 -4 -75 -10 -75 -11 0
-14 108 -4 134 11 29 14 17 14 -59z m-600 8 c0 -13 -4 -23 -10 -23 -5 0 -10
17 -10 38 0 27 3 33 10 22 5 -8 10 -25 10 -37z m1777 -20 c-3 -10 -5 -4 -5 12
0 17 2 24 5 18 2 -7 2 -21 0 -30z m3515 19 c4 -15 1 -18 -18 -14 -13 2 -24 11
-24 18 0 21 37 17 42 -4z m-3362 1 c0 -19 -13 -53 -19 -53 -4 0 -6 14 -3 30 2
17 8 30 13 30 5 0 9 -3 9 -7z m8157 -19 c-7 -7 -37 7 -37 17 0 6 9 5 21 -1 11
-7 19 -14 16 -16z m-4857 -52 c0 -21 18 -44 80 -102 74 -70 95 -100 69 -100
-20 0 -50 21 -85 60 -62 68 -123 75 -138 14 -8 -32 16 -74 64 -109 43 -32 70
-32 104 0 31 29 62 32 95 8 22 -15 23 -17 6 -29 -16 -12 -16 -13 6 -18 13 -3
36 -7 51 -11 33 -6 68 23 68 57 0 21 2 21 122 14 68 -4 127 -12 133 -17 7 -7
-3 -22 -29 -45 l-40 -34 -430 2 c-281 2 -430 6 -429 13 1 6 48 14 103 19 57 4
100 13 100 18 0 7 -21 9 -59 5 l-58 -6 61 62 c34 34 76 90 94 124 33 62 86
118 103 107 5 -3 9 -17 9 -32z m-3403 -4 c-3 -7 -5 -2 -5 12 0 14 2 19 5 13 2
-7 2 -19 0 -25z m8228 23 c6 -10 -17 -36 -46 -51 -27 -15 -25 7 3 37 23 25 34
28 43 14z m-9346 -441 c0 -207 -4 -347 -9 -335 -5 11 -9 110 -10 220 -3 222
-11 299 -23 205 -4 -30 -7 -120 -8 -200 0 -80 -4 -165 -8 -190 -6 -28 -9 51
-10 217 -1 241 5 301 24 255 14 -31 23 25 25 153 2 96 4 111 11 75 4 -25 8
-205 8 -400z m-1126 292 c-17 -13 -17 -14 0 -27 18 -13 17 -13 -2 -20 -42 -13
-56 25 -22 64 10 11 22 45 27 74 l9 52 3 -65 c2 -53 0 -67 -15 -78z m417 79
c0 -33 -4 -63 -10 -66 -6 -4 -10 18 -10 59 0 37 4 66 10 66 6 0 10 -26 10 -59z
m134 -400 c-6 -194 -6 -194 -33 -217 -14 -12 -27 -21 -29 -19 -2 1 6 20 17 42
19 35 21 65 28 333 7 276 8 287 15 175 5 -66 5 -207 2 -314z m1643 407 c-3 -8
-6 -5 -6 6 -1 11 2 17 5 13 3 -3 4 -12 1 -19z m6000 6 c-3 -3 -12 -4 -19 -1
-8 3 -5 6 6 6 11 1 17 -2 13 -5z m1170 0 c-3 -3 -12 -4 -19 -1 -8 3 -5 6 6 6
11 1 17 -2 13 -5z m298 -4 c3 -5 2 -10 -4 -10 -5 0 -13 5 -16 10 -3 6 -2 10 4
10 5 0 13 -4 16 -10z m-5048 -6 c-3 -3 -12 -4 -19 -1 -8 3 -5 6 6 6 11 1 17
-2 13 -5z m473 -4 c0 -5 -13 -10 -29 -10 -20 0 -32 -6 -35 -18 -4 -10 -21 -32
-39 -50 l-32 -31 -991 -3 -992 -3 -53 -37 c-30 -20 -77 -59 -106 -86 l-52 -49
-215 -7 c-118 -3 -227 -4 -241 0 -24 6 -24 7 -8 20 17 12 16 13 -9 14 -23 0
-27 5 -33 41 -4 22 -4 76 0 119 l7 80 1371 2 c1085 2 1371 6 1375 16 4 14 82
17 82 2z m208 3 c-10 -2 -26 -2 -35 0 -10 3 -2 5 17 5 19 0 27 -2 18 -5z m145
0 c-13 -2 -33 -2 -45 0 -13 2 -3 4 22 4 25 0 35 -2 23 -4z m404 1 c-3 -3 -12
-4 -19 -1 -8 3 -5 6 6 6 11 1 17 -2 13 -5z m80 0 c-3 -3 -12 -4 -19 -1 -8 3
-5 6 6 6 11 1 17 -2 13 -5z m210 0 c-3 -3 -12 -4 -19 -1 -8 3 -5 6 6 6 11 1
17 -2 13 -5z m763 -25 c74 -8 202 -9 430 -3 411 11 936 12 947 1 14 -15 10
-244 -5 -259 -10 -10 -209 -14 -998 -17 l-985 -3 6 73 c4 44 2 80 -4 89 -8 12
-39 14 -180 12 l-170 -3 -45 48 c-25 26 -46 51 -46 56 0 4 138 8 308 8 169 1
366 5 437 9 72 4 146 6 165 4 19 -2 82 -9 140 -15z m-5079 -38 c-40 -48 -487
-467 -531 -498 -18 -12 -22 -13 -18 -2 5 17 569 549 581 549 5 0 -9 -22 -32
-49z m8219 41 c0 -5 -19 -23 -43 -40 -59 -42 -147 -122 -147 -133 0 -15 30 4
105 66 37 30 71 55 76 55 5 0 9 -18 9 -40 0 -23 -5 -40 -11 -40 -6 0 -8 -7 -5
-15 4 -11 -6 -23 -29 -37 -26 -15 -34 -25 -30 -39 4 -12 -1 -21 -14 -28 -30
-17 -36 4 -11 44 12 19 18 35 14 35 -12 0 -44 -32 -44 -44 0 -6 -13 -23 -30
-38 -35 -31 -39 -48 -8 -40 24 6 25 8 -36 -64 -39 -45 -47 -84 -18 -84 21 0
50 23 251 200 257 226 281 244 281 215 0 -8 -4 -15 -9 -15 -4 0 -32 -22 -62
-50 -90 -83 -722 -640 -757 -667 -18 -14 -35 -24 -37 -21 -10 9 33 54 94 98
34 25 61 49 61 54 0 5 -7 18 -17 28 -15 17 -14 18 22 18 25 0 49 8 72 26 33
25 45 48 19 38 -8 -3 -17 -1 -21 5 -3 6 -1 11 4 11 6 0 11 7 11 15 0 8 5 15
10 15 6 0 10 -5 10 -11 0 -6 10 -9 23 -7 24 3 24 8 8 75 -13 51 0 131 29 179
13 20 17 35 10 39 -21 13 -8 43 43 92 28 28 72 65 96 82 42 30 81 41 81 23z
m-4930 -21 c0 -11 -4 -23 -10 -26 -5 -3 -10 1 -10 9 0 9 -6 16 -12 16 -9 0 -8
4 2 10 22 14 30 12 30 -9z m377 11 c8 -5 0 -19 -23 -45 l-34 -37 -119 0 c-150
0 -156 2 -131 43 14 22 30 34 52 38 48 9 241 10 255 1z m303 -2 c12 -8 11 -10
-7 -10 -12 0 -25 5 -28 10 -8 13 15 13 35 0z m3882 -97 c4 -108 -2 -138 -31
-160 -32 -25 -60 -15 -77 25 -28 64 -30 67 -56 70 -20 3 -28 -5 -49 -50 -23
-51 -26 -53 -67 -56 -24 -2 -50 2 -58 9 -11 9 -18 9 -26 1 -7 -7 -20 -12 -30
-12 -16 0 -18 12 -18 140 l0 140 204 0 204 0 4 -107z m76 84 c2 -11 -1 -15
-10 -12 -8 3 -17 -7 -24 -30 -11 -34 -11 -35 17 -35 36 0 38 -17 3 -30 -45
-17 -47 -14 -40 51 3 33 9 65 12 70 9 15 38 6 42 -14z m771 -166 c-4 -101 -12
-178 -18 -184 -8 -8 -11 -2 -11 22 0 29 -2 32 -15 21 -10 -8 -15 -30 -15 -61
0 -28 -5 -49 -11 -49 -7 0 -8 31 -4 103 7 95 15 141 15 86 0 -13 4 -31 10 -39
14 -23 18 0 23 141 4 121 11 160 27 142 3 -4 3 -86 -1 -182z m-9761 134 c3 -3
-3 -14 -14 -26 -30 -33 -135 -112 -141 -106 -11 12 9 97 29 122 20 25 26 27
71 22 27 -4 52 -9 55 -12z m1439 -52 c-2 -16 -4 -5 -4 22 0 28 2 40 4 28 2
-13 2 -35 0 -50z m8183 51 c-8 -8 -23 -20 -34 -26 -19 -10 -18 -8 3 16 26 27
53 37 31 10z m-9300 -23 c0 -17 -4 -33 -10 -36 -6 -4 -10 8 -10 29 0 20 5 36
10 36 6 0 10 -13 10 -29z m840 10 c0 -5 -7 -11 -15 -15 -9 -3 -15 0 -15 9 0 8
7 15 15 15 8 0 15 -4 15 -9z m3776 -48 c-8 -9 -46 32 -46 50 0 7 12 -1 27 -15
15 -15 23 -31 19 -35z m-5601 27 c-3 -5 -10 -10 -16 -10 -5 0 -9 5 -9 10 0 6
7 10 16 10 8 0 12 -4 9 -10z m4982 -22 c-7 -46 14 -79 80 -134 32 -25 79 -72
104 -103 41 -50 49 -56 82 -55 48 2 70 19 56 45 -9 18 -5 19 86 19 52 0 95 -4
95 -8 0 -4 -20 -27 -44 -51 l-44 -43 -443 6 c-448 6 -612 13 -605 25 3 4 42
26 88 49 67 35 88 41 108 34 l24 -9 -30 -18 c-16 -11 -31 -21 -34 -23 -24 -18
193 -40 275 -28 74 12 51 25 -47 28 l-91 3 55 37 c68 45 152 152 145 185 -4
24 8 32 16 11 3 -9 14 -5 33 13 64 58 99 64 91 17z m5328 -7 c-9 -16 -25 -3
-18 15 4 10 9 12 15 6 6 -6 7 -15 3 -21z m65 19 c0 -5 -4 -10 -10 -10 -5 0
-10 5 -10 10 0 6 5 10 10 10 6 0 10 -4 10 -10z m-10050 -30 c0 -16 -4 -30 -10
-30 -5 0 -10 14 -10 30 0 17 5 30 10 30 6 0 10 -13 10 -30z m1390 -25 c-18
-19 -36 -32 -39 -29 -6 5 57 64 68 64 3 0 -10 -16 -29 -35z m100 26 c0 -9
-201 -194 -337 -311 -125 -107 -80 -50 69 85 151 139 259 235 265 235 2 0 3
-4 3 -9z m-680 -11 c0 -5 -7 -10 -15 -10 -8 0 -15 5 -15 10 0 6 7 10 15 10 8
0 15 -4 15 -10z m4014 4 c23 -9 20 -19 -10 -33 -20 -9 -30 -9 -40 0 -34 28 2
51 50 33z m4986 -50 c-30 -31 -125 -120 -210 -198 -141 -129 -203 -183 -400
-352 -229 -195 -303 -261 -311 -277 -6 -10 -29 -32 -53 -50 -24 -17 -69 -54
-100 -81 -31 -27 -59 -46 -63 -42 -8 8 20 39 93 100 141 119 578 500 697 609
70 64 172 155 226 201 54 46 112 98 129 115 17 17 34 31 38 31 5 0 -16 -25
-46 -56z m227 34 c-3 -8 -6 -5 -6 6 -1 11 2 17 5 13 3 -3 4 -12 1 -19z m-5907
-10 c0 -17 3 -19 12 -10 43 43 16 -22 -39 -93 -59 -77 -84 -84 -33 -10 42 60
37 78 -23 89 -45 9 -49 8 -80 -22 l-33 -32 -660 0 c-715 0 -851 4 -833 26 23
27 85 59 129 65 25 3 386 7 803 8 l757 1 0 -22z m337 5 c2 -6 -9 -26 -25 -44
-23 -25 -39 -34 -79 -39 -70 -9 -183 0 -183 14 1 18 43 64 70 75 35 14 212 9
217 -6z m823 3 c0 -3 -4 -8 -10 -11 -5 -3 -10 -1 -10 4 0 6 5 11 10 11 6 0 10
-2 10 -4z m210 -6 c0 -5 -5 -10 -11 -10 -5 0 -7 5 -4 10 3 6 8 10 11 10 2 0 4
-4 4 -10z m-5130 -10 c0 -5 -4 -10 -10 -10 -5 0 -10 5 -10 10 0 6 5 10 10 10
6 0 10 -4 10 -10z m9546 -346 c-4 -11 -30 -15 -185 -28 l-43 -4 7 67 c9 89 21
134 45 163 17 20 21 21 30 8 5 -8 10 -46 10 -85 0 -80 10 -106 33 -86 11 9 16
42 18 132 l4 121 40 36 40 37 3 -175 c1 -96 0 -180 -2 -186z m-8423 321 c-10
-17 -196 -190 -310 -288 -72 -61 -83 -75 -83 -103 0 -28 -13 -44 -92 -118 -50
-47 -94 -83 -97 -80 -3 3 37 45 89 94 122 113 110 141 -14 31 -23 -20 -52 -45
-66 -56 l-25 -20 25 29 c14 16 106 103 205 194 99 92 220 204 268 249 82 78
119 103 100 68z m3298 -5 c21 -12 26 -40 6 -40 -17 0 -37 20 -37 37 0 16 5 16
31 3z m-4791 -19 c0 -11 -4 -23 -10 -26 -6 -4 -10 5 -10 19 0 14 5 26 10 26 6
0 10 -9 10 -19z m600 -16 c0 -19 -4 -35 -10 -35 -11 0 -13 30 -4 54 10 25 14
19 14 -19z m730 25 c0 -5 -4 -10 -10 -10 -5 0 -10 5 -10 10 0 6 5 10 10 10 6
0 10 -4 10 -10z m-963 -27 c-9 -9 -20 -13 -24 -9 -4 4 1 14 11 22 25 18 35 8
13 -13z m433 -373 l-5 -125 -8 144 c-4 79 -4 198 0 265 l8 121 5 -140 c3 -77
3 -196 0 -265z m3241 390 c10 -6 19 -16 19 -23 0 -17 -88 -147 -100 -147 -27
0 -18 87 16 153 15 29 33 33 65 17z m-3806 -10 c-3 -5 -11 -10 -16 -10 -6 0
-7 5 -4 10 3 6 11 10 16 10 6 0 7 -4 4 -10z m1542 -12 c-3 -8 -6 -5 -6 6 -1
11 2 17 5 13 3 -3 4 -12 1 -19z m-532 -50 c-81 -74 -94 -72 -17 2 35 34 66 59
69 56 3 -3 -20 -29 -52 -58z m-985 39 c0 -2 -17 -19 -37 -38 l-38 -34 34 38
c33 34 41 42 41 34z m1230 -3 c0 -3 -36 -43 -80 -89 -114 -120 -106 -130 12
-16 59 57 94 65 42 10 -45 -48 -374 -343 -393 -352 -9 -5 43 48 114 117 137
132 153 171 25 61 -70 -60 -101 -77 -69 -38 15 17 341 313 346 313 2 0 3 -3 3
-6z m7592 -9 c0 -5 -5 -11 -11 -13 -6 -2 -11 4 -11 13 0 9 5 15 11 13 6 -2 11
-8 11 -13z m228 0 c-7 -8 -17 -15 -22 -15 -6 0 -5 7 2 15 7 8 17 15 22 15 6 0
5 -7 -2 -15z m-4970 -5 c22 -14 8 -21 -53 -27 -97 -10 -183 13 -112 30 36 9
150 7 165 -3z m90 0 c0 -12 -49 -45 -56 -37 -7 7 32 47 46 47 6 0 10 -4 10
-10z m-4134 -26 c-15 -14 -31 -22 -35 -19 -7 8 36 45 53 45 6 0 -2 -12 -18
-26z m3624 11 c0 -13 -80 -15 -662 -15 -659 0 -862 5 -852 21 3 5 345 9 760 9
664 0 754 -2 754 -15z m1790 5 c0 -5 -5 -10 -12 -10 -9 0 -9 -3 0 -12 8 -8 12
-47 12 -108 l0 -97 -215 -7 c-153 -5 -221 -3 -236 5 -20 10 -21 17 -17 99 l4
87 -142 6 c-133 5 -184 15 -184 37 0 6 148 10 395 10 257 0 395 -4 395 -10z
m-5340 -20 c-24 -15 -37 -11 -16 5 11 8 22 12 25 9 3 -3 -1 -9 -9 -14z m8882
-22 c-11 -17 -34 -39 -51 -50 -31 -20 -31 -20 -31 0 0 23 76 96 91 86 6 -3 2
-17 -9 -36z m-9252 -32 c0 -30 -4 -58 -10 -61 -6 -4 -10 17 -10 54 0 34 4 61
10 61 6 0 10 -24 10 -54z m8884 -6 c18 -20 31 -80 18 -80 -6 0 -12 8 -15 18
-2 9 -7 -5 -11 -33 -18 -131 -22 -149 -35 -153 -12 -4 -13 19 -9 140 5 149 14
192 30 147 5 -13 15 -30 22 -39z m-6830 37 c17 -12 14 -17 -38 -61 -71 -61
-80 -93 -73 -236 3 -58 8 -112 12 -121 10 -25 251 -29 1767 -29 l1368 0 44 41
c55 50 126 141 126 161 0 18 108 28 319 29 145 0 197 11 215 44 6 11 28 39 49
62 27 31 37 51 37 76 l0 34 92 7 c50 3 495 6 990 6 l898 0 0 -304 c0 -167 -3
-323 -6 -348 l-6 -45 -967 -6 c-1246 -9 -4668 -9 -5408 0 -315 3 -578 10 -585
15 -10 6 -1 18 32 45 63 53 163 146 402 375 l206 198 108 0 c100 0 111 2 146
26 21 15 52 30 70 34 56 13 182 11 202 -3z m7003 -32 l22 -39 -35 -39 c-39
-43 -38 -64 1 -27 19 18 28 21 36 13 18 -18 3 -43 -36 -59 -20 -8 -46 -31 -61
-54 -34 -50 -41 -45 -19 13 12 33 14 50 7 64 -14 26 -34 142 -28 160 4 10 18
13 48 11 38 -3 45 -7 65 -43z m29 8 c-11 -11 -19 6 -11 24 8 17 8 17 12 0 3
-10 2 -21 -1 -24z m-4981 17 c3 -5 -1 -10 -10 -10 -9 0 -13 5 -10 10 3 6 8 10
10 10 2 0 7 -4 10 -10z m-325 -8 l45 -7 -46 -38 -46 -37 -841 2 c-462 2 -844
6 -848 10 -11 11 13 34 59 57 41 21 52 21 837 20 437 0 815 -4 840 -7z m101
-16 c-28 -29 -20 -46 19 -46 36 0 47 -16 17 -24 -36 -9 -137 -7 -137 4 0 12
98 90 113 90 6 0 0 -11 -12 -24z m420 8 c-18 -8 -36 -13 -39 -10 -6 7 37 25
58 25 8 -1 0 -7 -19 -15z m-4264 -16 c-3 -8 -6 -5 -6 6 -1 11 2 17 5 13 3 -3
4 -12 1 -19z m338 3 c-3 -6 -11 -11 -17 -11 -6 0 -6 6 2 15 14 17 26 13 15 -4z
m8940 -1 c-3 -5 -11 -10 -16 -10 -6 0 -7 5 -4 10 3 6 11 10 16 10 6 0 7 -4 4
-10z m-8715 -27 c0 -22 -2 -25 -10 -13 -13 20 -13 40 0 40 6 0 10 -12 10 -27z
m491 -44 c-30 -27 -57 -46 -60 -43 -3 3 18 28 48 55 30 27 57 46 60 43 3 -3
-18 -28 -48 -55z m8164 -1 c-5 -45 -15 -73 -33 -98 l-27 -35 -7 40 c-12 69 -9
93 18 124 43 51 57 42 49 -31z m-9003 30 c-6 -6 -15 -8 -19 -4 -4 4 -1 11 7
16 19 12 27 3 12 -12z m9723 -7 c3 -5 1 -12 -5 -16 -5 -3 -10 1 -10 9 0 18 6
21 15 7z m-9705 -46 c-13 -14 -28 -25 -34 -25 -5 0 3 13 19 30 16 16 31 28 33
25 3 -3 -5 -16 -18 -30z m4939 1 c12 -15 18 -113 7 -123 -3 -4 -6 14 -6 40 0
25 -4 49 -10 52 -5 3 -15 15 -20 26 -8 15 -7 19 3 19 8 0 20 -6 26 -14z
m-5172 -18 c-3 -8 -6 -5 -6 6 -1 11 2 17 5 13 3 -3 4 -12 1 -19z m3780 6 c20
-3 37 -13 44 -26 11 -21 12 -21 22 -2 6 10 15 22 21 26 6 4 268 8 583 8 l571
0 8 -66 c9 -90 -1 -186 -23 -201 -13 -10 -324 -13 -1472 -13 -801 0 -1486 3
-1523 7 l-68 6 0 133 0 133 78 3 c118 5 1723 -2 1759 -8z m4871 -176 c-3 -134
-10 -155 -47 -143 -28 8 -27 23 2 27 21 3 22 8 28 138 4 74 8 144 9 155 7 46
12 -59 8 -177z m222 136 c0 -27 -4 -43 -10 -39 -17 11 -11 85 7 85 2 0 3 -21
3 -46z m730 27 c0 -61 -38 -90 -64 -48 -9 15 -6 23 17 43 34 29 47 30 47 5z
m-9043 -13 c-3 -8 -6 -5 -6 6 -1 11 2 17 5 13 3 -3 4 -12 1 -19z m772 5 c-22
-31 -189 -188 -189 -180 0 8 191 196 199 197 2 0 -2 -8 -10 -17z m7236 7 c-3
-5 -10 -10 -16 -10 -5 0 -9 5 -9 10 0 6 7 10 16 10 8 0 12 -4 9 -10z m-8605
-36 c0 -8 -4 -14 -10 -14 -5 0 -10 9 -10 21 0 11 5 17 10 14 6 -3 10 -13 10
-21z m957 -32 c-51 -51 -107 -90 -107 -73 0 6 4 11 9 11 6 0 38 25 73 55 34
30 65 55 68 55 2 0 -17 -22 -43 -48z m8161 1 c3 -26 8 -33 25 -33 19 0 14 -8
-30 -51 -53 -50 -73 -55 -73 -18 0 21 16 26 23 7 3 -7 6 3 6 23 1 19 -4 40
-11 47 -19 19 7 64 35 60 17 -2 23 -11 25 -35z m-8108 -18 c-18 -19 -36 -32
-39 -29 -5 5 57 63 68 64 3 0 -10 -16 -29 -35z m-960 -30 c0 -25 -4 -45 -10
-45 -11 0 -14 73 -3 83 11 12 13 8 13 -38z m5140 18 c-1 -24 -2 -26 -11 -10
-5 9 -7 22 -4 27 10 17 15 11 15 -17z m-4590 -95 c-6 -26 -8 -20 -8 32 0 52 2
58 8 33 4 -18 4 -48 0 -65z m4560 82 c0 -5 -2 -10 -4 -10 -3 0 -8 5 -11 10 -3
6 -1 10 4 10 6 0 11 -4 11 -10z m3860 -56 c0 -63 -2 -68 -36 -100 -58 -55 -66
-43 -38 58 14 50 51 108 69 108 3 0 5 -30 5 -66z m476 -18 c-3 -14 -11 -26
-16 -26 -12 0 -14 93 -2 104 11 12 25 -49 18 -78z m-587 37 c-13 -34 -48 -73
-66 -73 -19 0 -17 55 3 71 12 10 20 10 35 1 16 -11 19 -9 19 8 0 11 4 20 10
20 6 0 6 -10 -1 -27z m-7959 7 c0 -5 -5 -10 -11 -10 -5 0 -7 5 -4 10 3 6 8 10
11 10 2 0 4 -4 4 -10z m7699 -72 c1 -43 -17 -42 -24 2 -8 45 4 76 16 44 4 -10
8 -31 8 -46z m-7759 7 c-13 -14 -26 -23 -28 -20 -7 7 29 45 41 45 6 0 0 -11
-13 -25z m-837 -4 c6 -26 -8 -49 -17 -26 -9 24 -8 45 3 45 5 0 11 -9 14 -19z
m44 -28 c-3 -10 -5 -4 -5 12 0 17 2 24 5 18 2 -7 2 -21 0 -30z m8480 15 c-3
-8 -6 -5 -6 6 -1 11 2 17 5 13 3 -3 4 -12 1 -19z m-7581 -144 c-76 -74 -142
-132 -145 -128 -7 7 259 264 274 263 6 0 -53 -61 -129 -135z m-856 11 c0 -70
-4 -115 -10 -115 -6 0 -10 43 -10 108 0 95 4 122 17 122 2 0 3 -52 3 -115z
m8750 70 c0 -19 -4 -35 -9 -35 -5 0 -15 -15 -22 -32 l-13 -33 -4 54 c-4 65 1
81 28 81 16 0 20 -6 20 -35z m-8178 -142 c-2 -35 -8 -63 -13 -63 -11 0 -12
213 -1 224 10 10 18 -84 14 -161z m-712 147 c0 -5 -4 -10 -10 -10 -5 0 -10 5
-10 10 0 6 5 10 10 10 6 0 10 -4 10 -10z m946 -66 c-33 -30 -62 -52 -64 -49
-3 3 21 29 54 59 32 30 61 52 64 49 3 -3 -22 -29 -54 -59z m7649 56 c3 -5 2
-10 -4 -10 -5 0 -13 5 -16 10 -3 6 -2 10 4 10 5 0 13 -4 16 -10z m-7935 -160
c0 -100 -4 -160 -10 -160 -6 0 -10 50 -10 129 0 117 6 191 16 191 2 0 4 -72 4
-160z m8634 131 c4 -5 2 -20 -3 -33 -7 -17 -10 -19 -10 -5 -1 10 -8 20 -16 23
-8 4 -12 10 -9 15 7 12 31 12 38 0z m-9244 -11 c0 -5 -4 -10 -10 -10 -5 0 -10
5 -10 10 0 6 5 10 10 10 6 0 10 -4 10 -10z m759 -52 c-2 -92 -17 -113 -18 -25
-1 45 3 77 9 77 6 0 10 -24 9 -52z m8211 43 c0 -13 -163 -142 -170 -135 -6 7
64 72 124 115 43 32 46 33 46 20z m-380 -108 c0 -58 -4 -93 -9 -85 -12 20 -13
182 -1 182 6 0 10 -40 10 -97z m-8594 29 c-12 -11 -18 7 -10 30 l8 23 4 -23
c2 -13 1 -26 -2 -30z m51 -4 c-3 -7 -5 -2 -5 12 0 14 2 19 5 13 2 -7 2 -19 0
-25z m8480 -10 c-3 -8 -6 -5 -6 6 -1 11 2 17 5 13 3 -3 4 -12 1 -19z m493 -8
c0 -5 -10 -10 -22 -10 -19 0 -20 2 -8 10 19 13 30 13 30 0z m-9020 -87 c0 -12
-4 -25 -10 -28 -6 -4 -10 11 -10 37 0 31 3 39 10 28 5 -8 10 -25 10 -37z m49
-110 c1 -39 -3 -75 -9 -78 -6 -4 -10 37 -9 117 1 95 3 113 10 78 4 -25 8 -77
8 -117z m32 67 c-9 -24 -10 -24 -10 7 -1 17 2 40 7 50 6 15 7 14 10 -7 2 -14
-2 -37 -7 -50z m679 46 c0 -8 -4 -18 -10 -21 -5 -3 -10 3 -10 14 0 12 5 21 10
21 6 0 10 -6 10 -14z m7940 -45 c-40 -36 -66 -54 -68 -45 -4 18 16 54 31 54 7
0 28 11 47 25 62 43 57 26 -10 -34z m-8040 34 c0 -8 -4 -15 -10 -15 -5 0 -10
7 -10 15 0 8 5 15 10 15 6 0 10 -7 10 -15z m7903 -65 c13 0 17 -4 12 -9 -12
-12 -65 -25 -65 -17 0 14 25 46 28 36 2 -5 13 -10 25 -10z m-793 1 c47 -9 48
-10 15 -17 -11 -2 -956 -9 -2100 -15 -2443 -13 -4957 -8 -4995 9 -24 10 -23
11 15 13 264 14 6990 23 7065 10z m-7680 -68 c0 -13 -4 -23 -10 -23 -5 0 -10
17 -10 38 0 27 3 33 10 22 5 -8 10 -25 10 -37z m7716 -205 c-4 -123 -10 -225
-13 -228 -2 -3 -1610 -6 -3572 -8 -3186 -3 -3569 -2 -3580 12 -16 19 -12 399
4 415 9 8 3085 23 6314 29 l854 2 -7 -222z m763 175 c-1 -39 -2 -43 -9 -23
-12 36 -12 70 0 70 6 0 10 -21 9 -47z m-8019 -14 c0 -5 -4 -9 -10 -9 -5 0 -10
7 -10 16 0 8 5 12 10 9 6 -3 10 -10 10 -16z m8195 -207 c4 -98 3 -200 -1 -227
l-9 -50 -6 65 c-10 99 -10 390 0 390 5 0 12 -80 16 -178z m-54 -145 c-2 -66
-7 -104 -12 -95 -11 16 -12 238 -1 333 l7 70 5 -100 c3 -55 3 -149 1 -208z
m-117 241 c10 -22 16 -70 18 -142 2 -77 7 -111 16 -114 9 -3 12 29 12 139 0
108 3 140 12 131 7 -7 12 -60 14 -139 2 -70 5 -165 6 -210 2 -61 0 -79 -9 -72
-6 6 -14 29 -18 52 -10 65 -16 79 -30 73 -10 -4 -15 12 -20 62 -11 124 -16
150 -30 162 -18 15 -20 61 -3 78 16 16 15 17 32 -20z m-8024 2 c0 -5 -7 -10
-16 -10 -8 0 -12 5 -9 10 3 6 10 10 16 10 5 0 9 -4 9 -10z m7990 -131 c0 -31
-4 -48 -10 -44 -5 3 -10 26 -10 51 0 24 5 44 10 44 6 0 10 -23 10 -51z m-7990
-133 c0 -3 -4 -8 -10 -11 -5 -3 -10 -1 -10 4 0 6 5 11 10 11 6 0 10 -2 10 -4z
m118 -102 c-10 -10 -28 6 -28 24 0 15 1 15 17 -1 9 -9 14 -19 11 -23z m-50
-11 c-4 -24 -50 -48 -74 -39 -17 7 -15 9 12 21 18 7 35 18 38 24 11 17 28 13
24 -6z m7972 -24 c0 -24 -4 -38 -10 -34 -17 10 -11 75 7 75 2 0 3 -18 3 -41z"/>
<path d="M12364 5553 c-98 -83 -304 -283 -304 -295 0 -18 40 14 196 161 137
128 206 201 191 201 -2 0 -40 -30 -83 -67z"/>
<path d="M1476 4335 c-3 -8 -1 -15 4 -15 6 0 10 7 10 15 0 8 -2 15 -4 15 -2 0
-6 -7 -10 -15z"/>
<path d="M1470 4210 c0 -47 4 -80 10 -80 6 0 10 33 10 80 0 47 -4 80 -10 80
-6 0 -10 -33 -10 -80z"/>
<path d="M1470 3665 c0 -110 4 -175 10 -175 6 0 10 65 10 175 0 110 -4 175
-10 175 -6 0 -10 -65 -10 -175z"/>
<path d="M1470 3435 c0 -19 5 -35 10 -35 6 0 10 16 10 35 0 19 -4 35 -10 35
-5 0 -10 -16 -10 -35z"/>
<path d="M2090 3370 c0 -53 4 -90 10 -90 6 0 10 37 10 90 0 53 -4 90 -10 90
-6 0 -10 -37 -10 -90z"/>
<path d="M2135 3269 c-4 -18 -3 -35 4 -42 8 -8 11 0 11 31 0 50 -6 54 -15 11z"/>
<path d="M7795 3806 c-10 -15 -14 -30 -11 -34 4 -4 35 -9 68 -12 62 -5 63 -6
88 -59 4 -8 19 -24 34 -35 23 -18 45 -22 139 -24 61 -2 140 -1 176 3 60 7 68
10 115 56 33 32 66 54 100 65 95 31 85 54 -25 54 -70 0 -89 -10 -89 -46 0 -13
-11 -36 -24 -51 l-24 -28 -154 -3 c-175 -3 -198 3 -209 57 -11 52 -38 72 -107
78 -57 5 -61 4 -77 -21z"/>
<path d="M3266 3697 c-5 -9 -5 -29 0 -45 7 -25 8 -26 11 -4 3 12 3 32 0 45 -3
19 -4 20 -11 4z"/>
<path d="M10118 2490 c-3 -19 -2 -46 2 -60 l7 -25 4 30 c3 17 2 44 -1 60 l-6
30 -6 -35z"/>
<path d="M10110 2266 c0 -52 4 -98 10 -101 6 -4 10 28 10 89 0 52 -4 98 -10
101 -6 4 -10 -28 -10 -89z"/>
<path d="M10020 2110 c0 -33 4 -60 10 -60 6 0 10 27 10 60 0 33 -4 60 -10 60
-6 0 -10 -27 -10 -60z"/>
<path d="M10115 2109 c-4 -6 -3 -15 3 -21 6 -6 11 -4 15 6 7 18 -9 31 -18 15z"/>
<path d="M10117 2015 c-9 -54 -9 -117 2 -134 11 -17 18 65 11 129 l-5 45 -8
-40z"/>
<path d="M10020 1966 c0 -36 5 -68 10 -71 6 -4 10 20 10 64 0 41 -4 71 -10 71
-6 0 -10 -28 -10 -64z"/>
<path d="M10110 1806 c0 -37 16 -58 22 -29 5 25 -3 63 -13 63 -5 0 -9 -15 -9
-34z"/>
<path d="M10110 1661 c0 -22 5 -43 10 -46 6 -4 10 10 10 34 0 22 -4 43 -10 46
-6 4 -10 -10 -10 -34z"/>
<path d="M10110 1496 c0 -27 16 -44 23 -24 5 18 -3 48 -14 48 -5 0 -9 -11 -9
-24z"/>
<path d="M10110 1380 c0 -27 5 -50 10 -50 6 0 10 23 10 50 0 28 -4 50 -10 50
-5 0 -10 -22 -10 -50z"/>
<path d="M10905 1901 c-10 -17 12 -21 25 -6 10 12 10 15 -3 15 -9 0 -18 -4
-22 -9z"/>
<path d="M5910 1803 c-20 -7 -70 -54 -70 -65 0 -5 5 -6 10 -3 6 4 34 -11 63
-33 60 -46 170 -81 193 -61 54 45 -53 170 -143 168 -21 0 -45 -3 -53 -6z m115
-53 c10 -11 15 -20 11 -20 -14 0 -46 21 -46 30 0 16 16 11 35 -10z m73 -62
c-3 -7 -13 -15 -24 -17 -16 -3 -17 -1 -5 13 16 19 34 21 29 4z"/>
<path d="M6156 1631 c-7 -11 31 -22 50 -14 8 3 11 9 8 14 -7 12 -51 12 -58 0z"/>
<path d="M3235 6120 c-103 -15 -112 -38 -86 -221 11 -79 32 -234 46 -343 29
-235 34 -246 105 -246 61 0 80 17 80 73 0 52 -26 290 -41 374 -10 57 -9 64 11
93 33 47 74 63 136 56 55 -6 178 -47 277 -91 l59 -26 -69 -56 c-37 -31 -85
-67 -105 -81 -21 -13 -40 -32 -43 -41 -3 -9 -6 -73 -7 -142 -3 -103 0 -129 13
-150 17 -24 17 -24 -102 -139 -119 -115 -119 -115 -119 -162 0 -38 5 -50 26
-67 16 -12 42 -21 63 -21 34 0 47 10 191 160 l155 160 90 0 c120 0 208 15 273
46 61 30 271 226 337 315 l42 57 -13 93 c-15 109 -29 127 -117 155 -83 25
-280 30 -371 9 -41 -10 -88 -15 -105 -12 -17 4 -72 32 -123 64 -147 91 -249
124 -275 91 -6 -7 -14 -31 -18 -53 l-8 -40 -7 30 -6 30 -8 -39 c-7 -38 -20
-39 -29 -1 -4 18 -6 18 -13 -4 -7 -23 -8 -24 -15 -5 -12 31 -10 69 5 89 12 17
17 18 41 7 20 -9 31 -10 39 -2 23 23 -21 32 -214 43 -30 1 -73 0 -95 -3z m165
-19 c0 -5 9 -11 20 -14 14 -4 20 -13 19 -34 -2 -49 -13 -73 -44 -93 -34 -23
-49 -15 -60 33 -6 25 -9 27 -12 12 -2 -11 -6 -30 -9 -43 -9 -41 -24 -12 -24
47 0 31 -5 62 -11 68 -13 13 5 19 71 26 19 2 38 5 43 5 4 1 7 -2 7 -7z m-158
-54 c2 -20 8 -31 16 -29 10 2 13 -10 11 -48 -2 -36 1 -54 12 -61 11 -8 9 -13
-13 -30 -27 -20 -27 -22 -13 -49 21 -40 20 -111 0 -104 -16 7 -18 1 -9 -33 4
-13 13 -23 20 -23 8 0 14 -2 14 -4 0 -2 7 -40 15 -83 16 -82 20 -234 6 -198
-5 11 -11 46 -15 78 -4 31 -12 57 -17 57 -7 0 -7 -18 -2 -47 10 -66 10 -107
-2 -113 -15 -8 -31 80 -64 350 -38 301 -39 353 -9 374 28 20 46 6 50 -37z
m347 -53 l9 -39 1 37 c1 51 18 56 26 8 9 -50 23 -52 28 -2 3 36 4 35 5 -8 2
-43 0 -46 -30 -58 -29 -11 -35 -10 -45 5 -7 9 -13 37 -13 62 0 52 6 50 19 -5z
m111 -16 c0 -24 -5 -50 -10 -58 -7 -11 -10 2 -10 43 0 31 4 57 10 57 6 0 10
-19 10 -42z m76 -35 c3 -12 1 -35 -4 -50 -9 -25 -11 -26 -11 -5 -1 27 -9 28
-27 5 -12 -16 -13 -11 -14 39 l0 56 25 -11 c14 -7 28 -22 31 -34z m106 -56 c4
-7 8 -27 8 -46 l0 -33 -34 26 c-19 14 -39 26 -45 26 -6 0 -11 20 -11 45 l0 44
37 -25 c21 -14 41 -31 45 -37z m-542 12 c-7 -11 -14 -18 -17 -15 -8 8 5 36 17
36 7 0 7 -6 0 -21z m1043 -3 c96 -13 115 -23 99 -53 -15 -27 -118 -125 -182
-173 -83 -62 -125 -66 -149 -16 -11 24 -16 27 -25 15 -9 -12 -47 -13 -220 -9
l-209 5 64 50 c72 57 75 57 239 32 82 -13 119 -14 169 -6 90 14 123 33 119 67
-3 24 -7 27 -38 26 -56 -2 -175 14 -203 27 -29 13 -27 26 7 39 31 13 228 11
329 -4z m-457 -74 c-12 -12 -18 8 -10 35 l8 28 4 -28 c2 -16 1 -31 -2 -35z
m74 4 c6 -8 17 -13 25 -10 18 7 28 -13 16 -33 -6 -10 -11 -12 -11 -5 0 7 -13
12 -30 12 -26 0 -50 21 -50 44 0 12 38 5 50 -8z m120 -31 c0 -14 -4 -25 -10
-25 -11 0 -14 33 -3 43 11 11 13 8 13 -18z m120 10 c0 -8 -4 -15 -10 -15 -5 0
-7 7 -4 15 4 8 8 15 10 15 2 0 4 -7 4 -15z m-160 -11 c0 -8 -4 -12 -10 -9 -5
3 -10 10 -10 16 0 5 5 9 10 9 6 0 10 -7 10 -16z m80 1 c0 -8 -4 -15 -10 -15
-5 0 -10 7 -10 15 0 8 5 15 10 15 6 0 10 -7 10 -15z m354 -135 c-7 -43 -8 -44
-14 -15 -7 31 -4 72 8 135 6 32 7 31 10 -20 2 -30 0 -75 -4 -100z m-44 21 c-3
-44 -8 -83 -12 -87 -9 -9 -11 127 -2 150 14 35 19 12 14 -63z m-46 -14 c-3
-15 -10 -24 -15 -21 -11 6 -12 48 -2 57 13 13 24 -10 17 -36z m-1097 -9 c-3
-8 -6 -5 -6 6 -1 11 2 17 5 13 3 -3 4 -12 1 -19z m1041 -82 c2 -53 -1 -85 -7
-82 -5 3 -7 14 -4 24 5 20 -15 78 -24 68 -3 -3 -9 -23 -13 -43 l-8 -38 -1 42
c-1 54 7 73 30 73 20 0 26 15 9 25 -14 9 -12 27 3 23 8 -3 13 -33 15 -92z
m-313 53 c28 -5 62 -12 77 -15 45 -10 58 -34 69 -133 13 -116 3 -141 -61 -158
-52 -13 -250 -17 -250 -5 0 5 10 17 22 28 35 31 78 106 78 136 0 29 -30 68
-54 68 -18 0 -55 -29 -149 -117 -130 -120 -160 -113 -159 41 1 134 0 132 80
145 128 21 272 25 347 10z m365 -49 c0 -22 -4 -40 -10 -40 -5 0 -10 18 -10 40
0 22 5 40 10 40 6 0 10 -18 10 -40z m-1070 -40 c0 -5 -2 -10 -4 -10 -3 0 -8 5
-11 10 -3 6 -1 10 4 10 6 0 11 -4 11 -10z m917 -42 c-3 -8 -6 -5 -6 6 -1 11 2
17 5 13 3 -3 4 -12 1 -19z m-327 4 c0 -4 -29 -39 -63 -77 -35 -39 -69 -80 -76
-92 -7 -14 -21 -23 -35 -23 -16 0 -27 -9 -35 -27 -13 -32 -87 -97 -100 -89 -5
3 -25 -8 -45 -26 l-37 -32 23 -19 c20 -17 21 -18 3 -12 -11 4 -30 10 -42 12
-13 3 -23 11 -23 18 0 13 111 122 153 149 15 10 27 24 27 31 0 7 12 21 28 31
15 9 56 43 92 74 92 80 130 104 130 82z m335 -72 c3 -5 1 -10 -4 -10 -6 0 -11
5 -11 10 0 6 2 10 4 10 3 0 8 -4 11 -10z m-777 -367 c2 -12 -4 -33 -13 -46
-13 -20 -13 -26 -3 -30 7 -2 10 -8 5 -12 -12 -13 -57 17 -63 42 -9 33 21 75
49 71 14 -2 23 -11 25 -25z"/>
<path d="M3396 6015 c4 -8 8 -15 10 -15 2 0 4 7 4 15 0 8 -4 15 -10 15 -5 0
-7 -7 -4 -15z"/>
<path d="M3241 5964 c0 -11 3 -14 6 -6 3 7 2 16 -1 19 -3 4 -6 -2 -5 -13z"/>
<path d="M3262 5575 c0 -16 2 -22 5 -12 2 9 2 23 0 30 -3 6 -5 -1 -5 -18z"/>
<path d="M3855 5850 c3 -5 8 -10 11 -10 2 0 4 5 4 10 0 6 -5 10 -11 10 -5 0
-7 -4 -4 -10z"/>
<path d="M4086 5536 c-20 -31 -21 -57 -2 -50 14 6 33 61 23 70 -2 3 -12 -7
-21 -20z"/>
<path d="M3810 5395 c-8 -9 -8 -15 -2 -15 12 0 26 19 19 26 -2 2 -10 -2 -17
-11z"/>
<path d="M3669 5254 c-18 -20 -28 -35 -20 -32 13 4 69 68 59 68 -2 0 -20 -16
-39 -36z"/>
<path d="M3481 6044 c0 -11 3 -14 6 -6 3 7 2 16 -1 19 -3 4 -6 -2 -5 -13z"/>
<path d="M12153 6035 c-85 -16 -93 -20 -93 -46 0 -13 -16 -27 -52 -45 -42 -21
-58 -36 -76 -72 -15 -29 -19 -49 -13 -55 13 -13 86 -26 153 -27 l57 0 100 111
c56 61 101 119 101 130 0 16 -7 19 -52 18 -29 -1 -86 -7 -125 -14z m87 -13 c0
-11 -101 -108 -127 -121 -12 -6 -30 -11 -41 -11 -10 0 -33 -7 -50 -16 -18 -8
-39 -14 -48 -12 -17 3 128 125 183 153 30 16 83 20 83 7z m-213 -188 c-3 -3
-12 -4 -19 -1 -8 3 -5 6 6 6 11 1 17 -2 13 -5z"/>
<path d="M6163 5770 c-41 -25 -56 -54 -49 -95 8 -40 66 -95 100 -95 29 0 106
80 106 111 0 29 -71 99 -101 99 -13 0 -38 -9 -56 -20z m54 -49 c10 9 13 6 13
-16 0 -20 -4 -26 -15 -21 -11 4 -15 -1 -15 -19 0 -14 -4 -25 -10 -25 -5 0 -10
21 -10 47 0 36 3 44 12 35 8 -8 15 -9 25 -1z m43 -37 c0 -21 -4 -33 -10 -29
-5 3 -10 22 -10 41 0 21 4 33 10 29 6 -3 10 -22 10 -41z"/>
<path d="M567 5050 c-3 -8 -8 -31 -11 -51 -6 -34 -21 -53 -117 -141 -11 -10
-19 -31 -19 -48 0 -37 25 -45 118 -36 83 8 158 44 207 97 31 35 36 46 33 82
l-3 42 -91 8 c-86 8 -91 10 -101 35 -7 20 -12 23 -16 12z m129 -92 c5 -7 -10
-26 -37 -50 -48 -41 -64 -46 -73 -23 -8 22 -21 18 -34 -10 -11 -23 -52 -36
-52 -16 0 9 80 78 114 98 27 16 73 16 82 1z"/>
</g>
</svg>
