<?xml version="1.0" standalone="no"?>
<!DOCTYPE svg PUBLIC "-//W3C//DTD SVG 20010904//EN"
 "http://www.w3.org/TR/2001/REC-SVG-20010904/DTD/svg10.dtd">
<svg version="1.0" xmlns="http://www.w3.org/2000/svg"
 width="640.000000pt" height="1280.000000pt" viewBox="0 0 640.000000 1280.000000"
 preserveAspectRatio="xMidYMid meet">
<metadata>
Created by potrace 1.15, written by Peter Selinger 2001-2017
</metadata>
<g transform="translate(0.000000,1280.000000) scale(0.100000,-0.100000)"
fill="#9e9e9e" stroke="none">
<path d="M4075 12764 c-29 -61 -55 -146 -61 -200 l-7 -52 -58 -22 c-32 -11
-61 -25 -64 -30 -4 -6 -10 -10 -14 -10 -5 0 6 28 24 63 55 106 73 220 24 157
-27 -36 -80 -165 -83 -206 -2 -24 -12 -40 -32 -56 -16 -12 -44 -35 -63 -52
-26 -24 -32 -26 -26 -11 31 80 55 235 36 235 -16 0 -64 -152 -77 -244 -5 -36
-19 -65 -56 -115 -67 -89 -68 -89 -58 -45 8 37 14 143 11 209 -1 17 -5 25 -10
20 -16 -19 -32 -106 -38 -218 -6 -104 -9 -117 -43 -179 l-36 -67 4 119 c3 65
1 132 -3 147 -6 26 -7 27 -18 8 -7 -13 -13 -82 -14 -186 -2 -157 -4 -169 -30
-228 l-28 -62 -1 96 c-1 53 -5 112 -8 131 -21 110 -44 -67 -27 -209 10 -88 9
-98 -13 -163 l-23 -69 -6 100 c-7 109 -15 148 -28 139 -12 -7 -12 -218 0 -281
8 -38 6 -64 -9 -118 -19 -74 -22 -72 -35 25 -8 64 -36 160 -46 160 -21 0 5
-221 34 -293 11 -26 11 -42 -1 -91 -7 -33 -31 -163 -52 -289 -22 -127 -41
-231 -43 -234 -9 -8 -18 163 -20 347 l-1 195 -5 -145 -6 -145 -13 100 c-7 55
-17 127 -22 159 -11 74 0 103 23 60 l16 -29 1 37 c0 20 -4 40 -10 43 -5 3 -10
14 -10 23 0 13 2 14 9 3 12 -19 18 -5 36 79 18 84 17 80 6 80 -4 0 -13 -24
-18 -52 -9 -45 -10 -31 -7 82 2 101 0 124 -6 91 -6 -25 -12 -50 -15 -55 -6
-12 1 136 11 224 4 40 3 51 -5 40 -6 -8 -11 -34 -11 -57 0 -24 -5 -43 -11 -43
-8 0 -9 43 -6 143 l6 142 -13 -85 c-8 -47 -11 -101 -9 -120 l5 -35 -21 30 -21
30 0 -26 c0 -14 12 -44 26 -65 15 -21 28 -57 31 -79 4 -40 4 -40 -11 -15 -8
14 -15 35 -16 47 0 23 -19 43 -21 21 0 -7 -6 -51 -13 -98 l-12 -85 -16 66
c-12 48 -14 77 -7 105 4 21 9 84 9 139 1 91 2 97 14 70 7 -17 20 -36 29 -44
15 -12 17 -10 17 23 0 21 -3 35 -7 33 -5 -3 -6 50 -5 116 2 67 1 119 -2 116
-3 -3 -7 -54 -8 -112 -1 -82 -4 -104 -13 -97 -7 6 -19 8 -28 4 -15 -5 -23 -52
-30 -174 l-2 -45 -21 61 c-19 53 -21 76 -17 171 6 117 -3 211 -17 197 -5 -5
-11 -61 -12 -124 l-3 -115 -27 75 c-21 60 -27 99 -31 197 -5 124 -19 183 -32
133 -9 -37 2 -225 14 -248 6 -12 15 -32 21 -46 l9 -25 -39 20 c-22 12 -47 18
-55 15 -38 -14 51 -106 103 -106 16 0 25 -13 41 -55 26 -70 26 -73 -1 -48 -46
42 -88 54 -88 27 0 -24 93 -114 117 -114 16 0 23 -10 32 -47 7 -27 15 -57 18
-68 4 -13 -6 -7 -29 18 -39 41 -58 47 -58 19 0 -27 58 -109 89 -128 22 -13 30
-28 38 -70 l9 -53 -42 46 c-23 25 -47 42 -53 39 -19 -12 16 -78 68 -128 40
-40 50 -56 55 -95 4 -27 10 -57 13 -68 3 -12 -12 0 -37 28 -41 46 -70 60 -70
34 0 -22 57 -104 88 -127 26 -20 31 -31 41 -99 30 -215 50 -435 47 -506 -1
-44 -7 -207 -11 -363 -5 -156 -12 -279 -16 -275 -4 4 -89 167 -188 361 -256
503 -372 667 -526 743 -55 27 -77 32 -135 32 -61 0 -80 -5 -143 -36 -39 -20
-88 -51 -107 -68 -38 -34 -36 -33 60 8 52 22 80 27 140 28 100 0 152 -25 239
-112 110 -110 172 -213 511 -841 l153 -283 -12 -572 c-6 -315 -14 -641 -17
-725 l-7 -153 -40 63 c-232 360 -394 593 -522 750 -75 91 -205 222 -257 259
l-33 24 20 -26 c146 -188 232 -316 393 -585 125 -208 318 -549 394 -694 l44
-85 -8 -390 c-5 -214 -12 -475 -16 -579 l-7 -189 -117 154 c-357 472 -695 806
-949 939 -138 72 -141 69 -31 -39 125 -125 264 -291 485 -580 95 -123 258
-334 362 -469 105 -134 203 -261 219 -283 l29 -39 -12 -507 c-7 -280 -17 -562
-21 -628 -5 -66 -10 -205 -10 -308 l0 -188 -38 27 -37 26 38 -33 37 -34 0
-184 c0 -179 0 -183 -19 -170 -11 8 -70 55 -131 104 -62 50 -122 97 -133 106
l-21 16 22 59 c28 76 20 83 -13 11 l-26 -56 -112 76 c-62 42 -113 77 -115 78
-1 1 13 74 32 162 55 253 83 308 163 323 l38 8 -49 1 c-43 1 -52 -3 -82 -34
-41 -43 -72 -138 -104 -313 -12 -68 -24 -121 -26 -119 -3 2 -18 44 -34 93 -16
49 -28 76 -26 61 3 -25 -13 -12 -108 88 -92 96 -116 116 -136 113 -16 -2 -26
-10 -28 -23 -2 -18 -2 -18 8 -2 18 28 36 20 92 -36 115 -115 186 -202 197
-241 6 -22 9 -41 7 -43 -1 -2 -38 17 -82 42 -79 45 -242 113 -320 134 -63 17
-215 30 -238 21 -19 -8 -18 -9 6 -9 23 -1 166 -46 177 -57 2 -2 -17 -22 -42
-45 -26 -22 -47 -45 -47 -51 0 -5 19 6 41 26 69 59 85 57 197 -17 106 -71 259
-196 337 -276 l50 -51 57 -222 c31 -122 56 -224 54 -226 -2 -1 -36 18 -76 44
-128 83 -286 145 -365 143 -30 0 -30 0 10 -16 39 -16 155 -84 360 -212 l100
-63 71 -259 c38 -142 70 -259 69 -259 -1 0 -54 25 -117 55 -63 30 -154 65
-202 79 -102 30 -223 45 -212 28 4 -7 13 -12 19 -12 30 0 427 -215 442 -240 3
-4 -15 -43 -40 -84 -59 -101 -107 -197 -101 -203 5 -5 87 109 143 200 20 31
40 57 45 57 6 0 23 -8 38 -17 24 -14 33 -31 50 -97 12 -45 62 -221 111 -393
49 -172 89 -315 89 -318 0 -3 -376 -5 -836 -5 l-837 0 7 -122 c3 -68 9 -330
13 -583 5 -276 10 -418 14 -355 3 58 6 93 7 78 l2 -28 578 0 c317 0 587 3 599
6 15 4 29 24 44 60 13 30 24 52 27 50 2 -2 -10 -35 -26 -74 -37 -88 -110 -193
-231 -334 -231 -269 -286 -342 -297 -396 -8 -40 11 -49 32 -15 64 105 119 177
243 318 160 182 233 280 285 380 20 39 34 58 30 42 -6 -26 -5 -27 39 -27 l46
0 6 58 c10 94 14 102 10 19 -10 -165 -57 -277 -243 -579 -162 -264 -204 -351
-189 -392 8 -20 37 -10 37 13 0 32 78 178 196 367 182 292 235 416 254 599 l9
80 -4 -95 c-2 -52 -1 -89 2 -82 2 6 18 12 34 12 23 0 29 -5 31 -22 1 -13 4 4
8 37 l7 60 1 -70 c4 -151 -34 -282 -177 -607 -87 -200 -139 -354 -127 -384 11
-28 34 -14 40 24 13 71 49 168 141 377 135 307 175 440 175 590 0 94 17 101
25 10 16 -168 -7 -281 -125 -611 -79 -222 -110 -332 -110 -394 0 -33 3 -41 17
-38 12 2 20 22 29 78 13 73 38 152 144 450 63 179 89 283 99 409 7 81 8 87 10
35 2 -93 -17 -256 -60 -529 -22 -137 -43 -294 -46 -349 -6 -93 -5 -98 13 -94
16 3 20 16 26 90 4 47 25 196 47 329 58 355 62 389 62 554 1 244 16 210 21
-50 4 -176 14 -312 37 -510 17 -148 31 -297 31 -331 0 -67 21 -112 39 -84 12
18 8 78 -30 445 -16 154 -29 286 -28 295 0 8 11 -34 24 -95 13 -60 42 -184 64
-274 23 -90 46 -203 52 -250 14 -108 15 -111 34 -111 32 0 15 126 -59 437 -74
313 -80 353 -80 523 0 107 3 161 12 175 10 17 11 10 5 -40 -5 -33 -8 -109 -7
-170 1 -138 26 -237 133 -535 74 -203 107 -316 113 -385 4 -44 32 -40 36 6 4
52 -28 169 -112 407 -113 317 -121 350 -120 522 1 80 6 159 12 175 10 26 10
23 6 -25 -3 -30 -7 -66 -10 -80 -4 -21 -3 -22 6 -7 6 9 23 17 38 17 27 0 27 0
26 67 -1 38 0 55 2 38 2 -16 9 -70 15 -119 18 -145 69 -270 208 -519 99 -177
159 -301 175 -364 16 -61 42 -67 39 -8 -2 56 -48 160 -155 353 -206 374 -236
478 -218 762 l8 135 -2 -147 c0 -80 2 -142 5 -137 3 6 8 -16 11 -48 12 -128
86 -289 259 -559 93 -146 152 -255 169 -309 15 -47 29 -67 41 -59 34 21 -19
141 -176 394 -122 197 -207 366 -230 455 -8 33 -17 105 -19 160 -5 107 -1 96
9 -25 l6 -75 45 4 c35 2 44 6 40 18 -23 59 -11 54 16 -7 54 -120 115 -203 324
-441 117 -134 173 -209 217 -289 14 -26 20 -30 32 -20 34 28 -39 138 -254 380
-152 171 -263 335 -285 420 -3 14 5 1 18 -27 14 -29 27 -53 30 -53 3 0 3 7 0
15 -6 13 67 15 637 13 l644 -3 6 -65 c3 -36 6 156 7 426 1 328 5 493 13 501 5
5 9 37 7 69 l-3 59 -882 3 c-604 1 -883 5 -883 13 0 5 43 162 96 347 52 185
102 360 110 389 10 38 22 56 46 71 l32 21 82 -122 c99 -149 131 -181 80 -80
-19 40 -56 106 -80 148 l-45 75 37 23 c104 65 299 172 368 203 l79 36 -75 -5
c-94 -7 -213 -44 -358 -113 -63 -29 -112 -48 -109 -41 4 11 99 360 126 463 11
40 19 46 174 145 89 57 200 123 247 148 l85 44 -55 -6 c-77 -7 -197 -56 -312
-126 -54 -33 -98 -56 -98 -53 0 4 27 115 61 247 l61 240 97 93 c118 113 230
206 282 232 42 22 118 26 152 9 12 -6 37 -25 56 -43 22 -21 30 -24 23 -11 -15
30 -63 72 -95 84 -85 32 -177 -7 -326 -141 -135 -121 -161 -142 -161 -129 0 6
14 61 30 122 l31 112 96 104 c139 150 164 167 183 121 9 -23 9 -23 9 -2 1 12
-6 27 -14 34 -22 19 -71 -17 -161 -118 -114 -127 -108 -122 -100 -89 3 15 4
27 1 27 -2 0 -17 -40 -32 -90 -14 -49 -28 -88 -30 -86 -2 2 -15 60 -28 130
-50 260 -85 328 -178 343 -20 3 -37 1 -41 -6 -5 -7 3 -11 23 -11 39 0 85 -39
106 -92 9 -24 36 -131 60 -238 l43 -195 -65 -215 c-36 -118 -66 -217 -68 -218
-2 -2 -13 29 -25 70 -48 166 -124 367 -135 356 -3 -3 2 -21 10 -41 12 -29 70
-250 115 -442 8 -34 2 -63 -47 -227 l-57 -187 -36 97 c-75 197 -139 323 -200
392 l-40 45 34 -75 c19 -41 71 -174 116 -295 45 -121 86 -228 91 -237 6 -11
-3 -58 -28 -142 -31 -102 -41 -125 -53 -119 -8 4 -40 8 -70 10 l-55 3 53 -18
c29 -11 58 -24 63 -29 7 -7 -1 -48 -24 -124 -19 -63 -41 -138 -49 -167 l-14
-54 -57 86 c-56 85 -57 87 -57 158 0 65 3 75 28 102 l27 30 -29 -18 -29 -18 8
463 c4 288 11 466 17 470 7 4 6 9 -1 13 -8 5 -11 107 -11 337 l0 330 322 402
c569 709 870 1050 1065 1206 24 19 42 36 40 38 -6 5 -128 -47 -220 -94 -298
-154 -656 -465 -1129 -983 l-78 -85 0 640 c0 352 -3 723 -6 825 l-6 185 92
115 c51 63 210 268 353 455 398 520 530 679 672 814 85 81 78 83 -50 17 -258
-133 -591 -461 -956 -941 -111 -147 -114 -149 -116 -115 -2 19 -7 381 -13 804
l-9 769 186 341 c387 708 508 901 668 1062 111 112 184 155 290 175 101 19
256 -11 377 -72 33 -17 62 -28 65 -26 6 7 -156 113 -203 133 -186 79 -356 51
-530 -87 -158 -125 -304 -334 -569 -814 -75 -137 -170 -305 -209 -373 l-71
-124 -6 149 c-4 81 -7 264 -8 406 l-1 258 221 432 c294 574 373 716 449 805
18 22 20 22 50 7 28 -14 31 -14 36 0 4 9 -1 24 -10 34 -12 13 -13 20 -4 29 22
22 47 13 62 -20 15 -36 51 -78 66 -78 16 0 11 31 -11 67 l-21 33 27 -12 c14
-6 42 -38 62 -70 20 -32 37 -58 38 -58 2 0 1 9 -2 19 -3 14 0 19 13 18 9 -1
19 4 21 10 4 12 -14 31 -85 93 l-22 20 30 53 c16 30 30 59 30 65 0 25 -21 10
-52 -36 -32 -46 -34 -47 -65 -37 l-31 11 19 24 c39 52 15 69 -29 21 -84 -93
-94 -101 -117 -101 l-25 0 32 65 c18 35 28 68 24 72 -10 11 -32 -19 -67 -91
-21 -45 -38 -64 -69 -82 -23 -13 -43 -24 -44 -24 -1 0 8 32 21 71 29 85 27
123 -4 64 -11 -22 -26 -65 -33 -95 -12 -49 -60 -120 -81 -120 -4 0 1 26 11 58
22 74 31 132 20 132 -11 0 -46 -109 -55 -174 -5 -28 -18 -60 -32 -77 -14 -16
-27 -29 -28 -27 -2 2 3 32 11 68 16 76 18 113 5 105 -10 -5 -37 -120 -44 -187
-3 -20 -14 -50 -26 -67 -26 -37 -35 -40 -25 -9 11 37 21 139 13 144 -9 5 -39
-124 -39 -171 0 -38 -42 -131 -47 -105 -2 8 6 33 17 55 18 35 19 41 5 51 -8 6
-15 23 -15 38 0 14 -4 26 -10 26 -5 0 -10 -13 -10 -29 0 -21 -11 -40 -37 -65
-21 -19 -39 -33 -41 -31 -2 2 3 37 12 78 16 71 18 75 48 81 41 8 118 87 118
121 0 39 -37 28 -99 -29 -24 -22 -32 -26 -27 -12 3 10 11 38 17 63 10 37 18
46 48 59 43 18 87 58 108 98 28 54 -17 60 -77 9 -36 -30 -36 -26 -6 57 23 62
25 65 54 62 57 -6 132 47 132 94 0 14 -7 16 -42 11 -22 -3 -54 -15 -69 -26
l-28 -21 30 69 31 68 46 -4 c38 -4 54 0 82 19 72 49 34 98 -51 65 -21 -8 -39
-13 -39 -11 0 4 24 44 67 113 12 19 17 21 24 10 5 -9 27 -14 63 -14 45 0 60 5
78 23 l23 23 -25 21 c-19 15 -34 19 -68 15 -49 -5 -49 -4 26 74 l43 46 41 -20
c32 -16 47 -18 75 -11 51 13 65 40 34 65 -13 10 -37 19 -55 19 l-31 1 27 22
c15 12 43 31 63 42 35 18 37 18 46 2 23 -39 137 -74 154 -47 10 16 -21 57 -58
77 l-32 17 39 9 c31 8 45 6 68 -8 50 -29 148 -16 148 20 0 43 -102 60 -155 25
-16 -11 -38 -20 -47 -20 -15 0 -15 4 3 45 21 48 59 187 59 217 0 29 -16 21
-35 -18z m-1025 -1303 l-1 -26 -15 28 c-21 39 -28 28 -14 -24 13 -47 4 -171
-11 -148 -17 28 -21 100 -9 188 l13 92 18 -42 c11 -23 19 -53 19 -68z m700 54
c-21 -23 -24 -23 -47 -8 l-25 17 44 17 c49 19 61 9 28 -26z m-82 -45 c19 -25
20 -33 10 -50 -14 -21 -28 -27 -28 -10 0 6 -16 18 -35 27 l-35 17 27 23 c16
12 31 22 34 23 3 0 15 -13 27 -30z m-96 -70 c12 -11 32 -20 45 -20 13 0 23 -2
23 -4 0 -3 -24 -45 -54 -94 -49 -80 -123 -218 -397 -746 l-77 -150 -4 85 c-6
141 6 198 75 353 l62 141 36 -3 c23 -2 43 3 59 16 32 26 18 45 -31 40 -22 -2
-39 -3 -39 -3 0 1 9 20 20 42 19 39 21 41 57 36 28 -4 45 0 62 14 32 26 20 43
-29 43 l-39 0 17 30 c15 26 21 29 50 24 35 -7 86 18 79 39 -2 7 -20 14 -40 17
l-36 5 28 34 c27 33 30 34 46 18 18 -19 80 -23 90 -6 11 18 -26 49 -58 49
l-31 0 29 30 c16 17 30 30 32 30 2 0 13 -9 25 -20z m-345 -450 c-29 -63 -59
-131 -67 -150 -15 -40 -35 -67 -27 -35 3 11 13 63 22 115 31 192 32 193 78
216 l42 21 3 -26 c2 -16 -19 -73 -51 -141z m-687 -6514 c-7 -31 -15 -55 -16
-53 -2 2 -17 48 -33 102 l-29 98 46 -46 45 -46 -13 -55z m77 -20 c10 -13 51
-62 91 -109 l73 -86 -27 -63 c-15 -35 -42 -103 -60 -153 -18 -50 -35 -83 -38
-75 -2 8 -28 93 -56 188 l-51 173 17 75 c10 41 21 74 25 74 4 0 16 -11 26 -24z
m349 -637 l7 -211 -24 7 -24 7 23 -17 c20 -15 22 -24 22 -114 l0 -98 -47 -71
c-25 -40 -48 -70 -50 -68 -2 2 -17 53 -33 112 -16 60 -38 134 -48 165 l-20 56
38 22 c21 11 51 21 66 22 l29 1 -33 10 c-25 9 -41 7 -72 -5 -36 -14 -40 -14
-44 1 -3 10 -19 63 -36 120 l-31 103 57 152 c31 84 61 163 66 175 8 22 13 18
78 -67 l69 -90 7 -212z m239 -664 l22 -60 -40 -153 c-22 -83 -42 -150 -44
-148 -2 2 -1 113 3 247 8 269 4 261 59 114z m-226 -112 l-1 -208 -34 130 -34
130 20 50 c11 28 24 62 29 78 6 15 13 27 16 27 3 0 5 -93 4 -207z m158 -1095
c-3 -7 -5 -2 -5 12 0 14 2 19 5 13 2 -7 2 -19 0 -25z m-240 -40 c-3 -7 -5 -2
-5 12 0 14 2 19 5 13 2 -7 2 -19 0 -25z m10 -60 c-3 -7 -5 -2 -5 12 0 14 2 19
5 13 2 -7 2 -19 0 -25z m80 -10 c-3 -8 -6 -5 -6 6 -1 11 2 17 5 13 3 -3 4 -12
1 -19z m202 -53 c0 -5 -4 -3 -9 5 -5 8 -9 22 -9 30 0 16 17 -16 18 -35z m-268
-43 c-8 -13 -10 -5 -10 33 1 48 1 49 10 17 6 -21 6 -39 0 -50z m-64 -4 c-2
-13 -4 -5 -4 17 -1 22 1 32 4 23 2 -10 2 -28 0 -40z m640 30 c-3 -8 -6 -5 -6
6 -1 11 2 17 5 13 3 -3 4 -12 1 -19z m-497 -67 c0 -71 -6 -63 -14 19 -5 45 -4
60 4 50 5 -8 10 -39 10 -69z m-360 12 c-11 -17 -11 -17 -6 0 3 10 7 26 7 35 1
15 2 15 6 0 2 -10 -1 -25 -7 -35z m927 25 c-3 -8 -6 -5 -6 6 -1 11 2 17 5 13
3 -3 4 -12 1 -19z"/>
<path d="M2330 12746 c0 -31 25 -152 40 -190 15 -40 7 -42 -33 -6 -42 36 -83
51 -115 39 -28 -11 -28 -20 4 -50 20 -19 36 -24 82 -24 31 -1 68 -7 82 -15
l25 -14 -31 -8 c-72 -18 -65 -68 9 -68 24 0 48 7 59 17 18 16 21 15 69 -33
l51 -51 -31 5 c-35 5 -63 -12 -54 -34 13 -33 98 -56 131 -35 10 6 3 22 -32 64
-27 33 -46 67 -46 81 0 14 -11 60 -25 103 -24 78 -48 123 -59 112 -8 -8 29
-150 49 -189 l16 -31 -51 40 c-29 23 -55 41 -60 41 -4 0 -10 29 -14 65 -11
108 -66 259 -66 181z"/>
<path d="M2824 12453 c2 -51 2 -93 0 -93 -2 0 -10 15 -19 34 -16 33 -42 53
-54 41 -10 -10 23 -59 48 -72 32 -15 48 -43 26 -43 -11 0 -15 -7 -13 -22 2
-18 11 -24 37 -26 l34 -3 -22 36 c-14 23 -21 54 -22 88 0 29 -5 75 -9 102 -7
41 -8 34 -6 -42z"/>
<path d="M2610 12458 c0 -24 7 -72 14 -108 8 -36 12 -68 9 -72 -2 -4 9 -27 25
-50 16 -24 35 -53 41 -66 12 -23 12 -23 -18 -8 -35 18 -57 20 -66 6 -20 -32
39 -80 99 -80 20 0 36 3 36 7 0 3 -17 38 -39 77 -29 54 -40 88 -46 141 -7 65
-40 195 -50 195 -3 0 -5 -19 -5 -42z"/>
<path d="M2875 12360 c8 -90 11 -112 19 -137 6 -17 3 -23 -8 -23 -9 0 -16 -6
-16 -13 0 -16 37 -57 51 -57 5 0 14 -10 19 -22 6 -16 9 4 9 69 1 59 -3 94 -11
99 -8 5 -10 -12 -5 -67 l6 -74 -18 45 c-10 25 -21 80 -25 123 -4 43 -11 88
-17 100 -7 16 -8 4 -4 -43z"/>
<path d="M2955 12055 c5 -24 4 -28 -6 -17 -31 29 -40 -2 -13 -43 26 -40 46
-33 38 13 -4 20 -11 46 -16 57 -6 15 -7 12 -3 -10z"/>
<path d="M1830 9473 c-35 -17 -150 -129 -150 -145 0 -5 17 5 38 21 47 38 118
69 174 77 53 7 153 -16 218 -51 l45 -25 -54 50 c-30 28 -73 59 -96 70 -51 25
-127 26 -175 3z"/>
<path d="M1608 9242 c-72 -95 -132 -201 -192 -337 -14 -30 -23 -55 -21 -55 2
0 31 51 65 113 82 147 159 278 178 300 8 9 13 19 10 22 -2 2 -20 -17 -40 -43z"/>
<path d="M4524 8856 c-47 -15 -154 -77 -154 -89 0 -4 4 -6 8 -3 5 3 38 10 73
15 210 34 388 -92 501 -354 17 -41 33 -73 35 -71 7 7 -61 185 -103 271 -96
197 -218 275 -360 231z"/>
<path d="M1479 8046 c-110 -30 -191 -132 -277 -351 -38 -97 -67 -194 -40 -135
110 242 194 342 332 390 61 22 178 27 235 10 19 -5 36 -8 38 -6 8 7 -112 77
-147 85 -70 18 -96 20 -141 7z"/>
<path d="M4901 6985 c-65 -18 -165 -71 -241 -127 -38 -27 -47 -38 -31 -35 14
4 67 12 119 18 204 27 376 -37 533 -198 116 -119 213 -286 299 -513 22 -58 40
-100 40 -94 0 6 -18 71 -39 145 -135 460 -263 692 -433 784 -62 34 -168 42
-247 20z"/>
<path d="M1480 5077 c-231 -78 -400 -351 -539 -869 -62 -232 -191 -882 -171
-861 29 29 139 350 240 698 108 374 150 496 221 645 107 223 226 346 384 396
l40 13 -55 0 c-32 0 -83 -9 -120 -22z"/>
<path d="M2743 4908 c-36 -40 -38 -54 -4 -25 22 18 44 27 69 27 28 0 33 3 22
10 -26 17 -66 11 -87 -12z"/>
<path d="M3300 4920 c-11 -7 -4 -10 27 -10 30 0 50 -7 74 -27 34 -29 32 -15
-4 25 -22 23 -70 30 -97 12z"/>
<path d="M3213 4859 c-18 -16 -33 -33 -33 -36 0 -4 16 8 35 27 32 31 39 40 33
40 -2 0 -18 -14 -35 -31z"/>
<path d="M1969 4355 c-30 -16 -54 -68 -63 -135 l-6 -45 19 55 c22 60 77 120
111 120 12 0 18 5 15 10 -9 14 -45 12 -76 -5z"/>
<path d="M4116 4351 c46 -21 91 -70 100 -109 10 -47 24 -72 17 -32 -18 120
-48 160 -117 159 l-41 0 41 -18z"/>
<path d="M2014 3720 c-33 -13 -72 -67 -88 -120 -8 -27 -17 -93 -20 -147 l-6
-98 15 78 c29 152 86 233 185 267 l51 17 -32 7 c-41 8 -79 7 -105 -4z"/>
<path d="M4000 3720 c0 -5 7 -10 15 -10 29 0 92 -38 125 -76 41 -47 59 -88 81
-189 20 -92 23 -76 9 44 -13 116 -34 174 -76 211 -30 26 -42 30 -94 30 -33 0
-60 -4 -60 -10z"/>
<path d="M2933 1575 c0 -27 2 -38 4 -22 2 15 2 37 0 50 -2 12 -4 0 -4 -28z"/>
<path d="M2606 1583 c-6 -14 -5 -15 5 -6 7 7 10 15 7 18 -3 3 -9 -2 -12 -12z"/>
</g>
</svg>
