<?xml version="1.0" standalone="no"?>
<!DOCTYPE svg PUBLIC "-//W3C//DTD SVG 20010904//EN"
 "http://www.w3.org/TR/2001/REC-SVG-20010904/DTD/svg10.dtd">
<svg version="1.0" xmlns="http://www.w3.org/2000/svg"
 width="1280.000000pt" height="858.000000pt" viewBox="0 0 1280.000000 858.000000"
 preserveAspectRatio="xMidYMid meet">
<metadata>
Created by potrace 1.15, written by Peter Selinger 2001-2017
</metadata>
<g transform="translate(0.000000,858.000000) scale(0.100000,-0.100000)"
fill="#795548" stroke="none">
<path d="M4320 6564 c-4155 -1987 -4215 -2016 -4267 -2012 l-53 3 0 -1887 c0
-1135 4 -1888 9 -1888 5 0 357 -41 783 -90 425 -50 964 -113 1198 -140 234
-27 736 -86 1115 -130 380 -44 881 -103 1115 -130 234 -27 697 -81 1030 -120
333 -39 778 -91 990 -115 212 -25 404 -48 428 -51 38 -6 42 -4 42 15 0 12 20
38 47 63 26 24 238 221 472 438 235 218 1502 1394 2816 2615 1315 1221 2469
2293 2566 2383 l176 163 6 421 c4 232 7 768 7 1192 l0 772 -272 32 c-150 18
-552 67 -893 108 -341 41 -879 106 -1195 144 -316 38 -873 106 -1238 150 -365
44 -664 80 -665 80 -1 0 -1899 -907 -4217 -2016z m4475 1561 c105 -11 105 -11
-27 -94 -265 -166 -434 -258 -748 -406 -113 -54 -349 -168 -525 -255 -176 -87
-503 -239 -727 -339 -1036 -460 -1678 -787 -2188 -1114 -243 -156 -470 -344
-470 -391 0 -55 113 8 680 378 358 234 477 288 1045 476 365 121 674 241 1150
448 595 258 1117 502 1625 758 357 180 537 282 619 353 29 25 72 61 95 80 l41
33 85 -7 c46 -3 88 -9 94 -12 5 -3 -15 -18 -45 -33 -30 -16 -89 -60 -133 -98
-183 -164 -316 -241 -961 -562 -470 -233 -646 -316 -1010 -478 -296 -131 -449
-204 -880 -417 -451 -223 -598 -292 -1095 -510 -746 -328 -964 -443 -1495
-793 -403 -265 -653 -450 -1004 -741 -89 -75 -171 -142 -181 -149 -15 -11 -62
-8 -281 18 -145 16 -282 33 -304 36 l-40 7 95 89 c52 50 174 152 270 228 353
278 1068 959 1058 1008 -8 42 -11 40 -445 -289 -411 -313 -698 -554 -1063
-892 -71 -66 -134 -117 -145 -117 -39 -1 -325 34 -325 39 0 3 86 95 190 205
104 109 218 235 252 279 35 44 85 107 111 141 l48 60 1877 898 c1681 804 1910
910 2197 1024 414 164 594 241 960 412 645 300 1189 570 1390 689 70 41 97 52
120 49 17 -3 57 -8 90 -11z m1458 -244 c44 -17 77 -62 77 -105 0 -70 -37 -123
-197 -285 -154 -155 -178 -191 -127 -191 81 0 441 193 652 349 44 33 122 95
174 139 l95 80 83 -10 84 -11 -36 -31 c-320 -277 -380 -323 -569 -441 -184
-115 -456 -252 -709 -359 -486 -206 -740 -280 -804 -233 -17 12 -17 19 -7 67
26 121 5 104 451 360 332 190 465 275 509 325 36 41 38 51 13 64 -25 13 -83
-1 -189 -47 -108 -48 -215 -83 -353 -117 -282 -69 -445 -147 -970 -465 -331
-200 -491 -287 -840 -457 -146 -71 -329 -166 -406 -210 -200 -114 -307 -161
-609 -268 -455 -160 -746 -295 -1153 -534 -255 -149 -576 -327 -932 -516 -822
-437 -959 -519 -1222 -737 l-78 -64 -92 11 c-51 5 -92 14 -91 19 2 18 259 219
433 338 247 170 387 250 1002 579 547 292 836 453 1058 589 96 59 204 123 240
143 80 44 320 152 563 253 358 149 653 277 732 317 156 80 222 111 412 193
181 78 463 214 563 272 25 14 160 94 300 177 579 345 784 446 1077 530 194 56
280 87 476 169 258 109 332 129 390 107z m1291 -89 l58 -7 -343 -266 c-824
-637 -1102 -822 -1452 -968 -152 -63 -253 -92 -723 -210 -492 -123 -850 -220
-1036 -280 -69 -23 -139 -41 -155 -41 -31 0 -102 48 -147 99 -11 11 -23 21
-28 21 -13 0 -557 -232 -788 -336 -409 -184 -1239 -611 -1484 -762 -139 -86
-213 -162 -157 -162 51 0 349 131 616 270 840 438 1103 560 1341 625 191 53
295 50 421 -9 88 -42 128 -45 253 -16 119 26 243 66 475 150 298 108 556 191
885 286 385 111 699 220 924 323 84 38 104 40 51 4 -22 -15 -169 -118 -327
-229 -168 -119 -303 -207 -325 -213 -21 -6 -117 -26 -213 -45 -301 -61 -526
-130 -598 -183 -39 -30 -37 -44 9 -60 97 -34 260 -2 508 98 52 22 95 38 97 37
1 -2 -116 -86 -260 -187 l-262 -184 -76 2 c-184 5 -501 -82 -585 -161 -31 -29
-30 -73 1 -93 36 -24 140 -29 225 -11 41 9 76 14 77 13 2 -2 -83 -63 -189
-137 -120 -85 -210 -141 -242 -151 -59 -18 -130 -54 -223 -111 -233 -142 -556
-268 -689 -268 -155 0 -395 -91 -699 -265 -201 -116 -455 -294 -619 -434 l-60
-52 -55 7 c-30 3 -72 9 -92 13 l-38 6 158 126 c349 281 674 499 1020 688 203
110 256 126 472 140 218 15 380 87 537 239 151 146 119 161 -133 62 -210 -82
-213 -83 -494 -75 -234 6 -248 6 -315 -15 -149 -46 -475 -233 -629 -361 -181
-151 -527 -494 -711 -704 -38 -44 -70 -81 -70 -82 -2 -7 -295 32 -295 39 0 18
209 214 355 331 83 67 230 194 329 282 332 297 373 329 642 493 98 60 226 140
284 177 58 37 130 77 160 88 75 28 176 27 255 -2 127 -47 322 -36 510 29 101
34 162 68 222 123 73 67 55 83 -81 68 -104 -12 -208 -2 -344 34 -128 34 -183
32 -306 -9 -184 -62 -598 -255 -1416 -662 -669 -332 -908 -462 -1403 -761
l-148 -89 -107 13 c-59 7 -115 14 -125 15 -12 2 34 38 129 103 187 126 249
174 237 186 -22 22 -212 -60 -442 -190 -136 -78 -135 -78 -281 -58 l-85 12
130 81 c227 141 413 247 1115 634 1132 623 1336 733 1736 933 239 120 359 174
654 297 129 54 375 161 545 238 413 186 534 232 606 232 39 0 50 -20 56 -105
10 -128 26 -130 321 -39 97 30 348 102 557 160 209 57 436 124 505 147 287 96
522 242 1164 724 454 341 483 361 516 357 19 -3 61 -8 94 -12z m834 -534 l-3
-232 -180 -148 c-99 -82 -208 -174 -242 -206 -63 -57 -80 -92 -45 -92 26 0
168 76 325 174 76 47 139 86 140 86 1 0 1 -44 -1 -98 l-3 -97 -37 -25 c-284
-188 -732 -462 -982 -600 -113 -62 -329 -184 -480 -270 -750 -428 -1218 -646
-1825 -854 -154 -53 -374 -131 -490 -175 -115 -44 -211 -79 -212 -77 -1 1 138
101 310 223 298 210 316 222 412 253 204 67 394 143 540 215 201 99 257 158
147 157 -40 -1 -164 -28 -254 -55 -27 -8 -48 -13 -48 -11 0 2 102 76 228 165
190 136 245 170 341 211 129 55 213 103 254 146 30 31 24 49 -13 37 -11 -4
-20 -4 -20 -1 0 10 881 627 1010 706 367 228 715 476 1053 753 32 26 62 47 68
47 6 0 8 -85 7 -232z m-45 -1291 c-84 -88 -271 -238 -366 -295 -138 -81 -341
-175 -927 -427 -745 -321 -915 -399 -1140 -530 -63 -36 -241 -130 -395 -207
-324 -163 -403 -206 -540 -299 -145 -98 -289 -216 -544 -443 -348 -310 -414
-360 -556 -427 -175 -82 -355 -104 -485 -59 -185 65 -392 18 -564 -127 -119
-101 -106 -117 -106 128 l0 214 258 181 c279 196 459 301 826 480 324 157 598
271 743 308 32 8 114 22 183 30 221 28 230 31 1230 459 1344 575 1907 827
2055 918 44 27 143 96 220 153 l140 104 3 -61 c3 -58 2 -62 -35 -100z m-888
-868 c-224 -225 -297 -274 -825 -557 -592 -317 -741 -415 -979 -646 -229 -224
-581 -657 -581 -716 0 -26 28 -40 59 -29 36 14 143 94 363 272 252 203 321
271 438 436 55 78 114 148 140 168 66 51 323 175 447 217 58 20 108 35 109 33
5 -5 -1029 -992 -1373 -1312 -356 -330 -338 -316 -786 -607 -460 -299 -775
-479 -1088 -622 -101 -46 -287 -134 -414 -195 -126 -61 -233 -111 -237 -111
-5 0 -8 101 -8 225 l0 225 60 30 c124 62 763 322 1235 500 149 57 313 121 365
144 247 109 430 254 430 342 0 35 -22 56 -50 46 -8 -2 -35 -19 -60 -37 -132
-96 -668 -374 -881 -458 -64 -26 -256 -87 -425 -136 -318 -92 -501 -153 -611
-202 l-63 -28 0 238 0 238 73 60 c112 93 227 146 584 267 120 41 336 110 479
155 432 133 533 175 665 272 74 54 113 97 309 339 215 264 404 483 482 555
119 110 239 170 624 310 486 178 1041 420 1509 658 72 36 134 66 140 66 5 1
-53 -62 -130 -140z m-10056 -502 c-188 -194 -178 -188 -282 -169 l-37 7 102
102 c98 96 110 105 243 171 77 38 141 68 142 67 2 -1 -74 -81 -168 -178z
m5946 -146 c-12 -10 -848 -600 -887 -625 -26 -17 -34 -17 -183 0 -85 10 -155
21 -155 25 0 18 103 117 147 141 26 14 143 64 258 112 116 47 347 146 515 220
168 74 307 135 310 135 2 1 0 -3 -5 -8z m-6670 -396 c116 -14 212 -25 215 -26
3 0 -62 -18 -145 -39 -82 -21 -183 -50 -224 -64 -41 -14 -78 -26 -83 -26 -4 0
-8 41 -8 90 0 79 2 90 18 90 9 0 112 -11 227 -25z m4143 13 c15 -15 16 -55 1
-64 -13 -8 -232 16 -224 25 4 3 34 16 68 28 70 24 137 29 155 11z m-2512 -203
c401 -47 920 -108 1153 -135 233 -28 429 -50 435 -51 6 0 -64 -11 -156 -24
-92 -13 -188 -30 -215 -37 -43 -12 -48 -16 -48 -43 0 -22 7 -33 27 -42 65 -32
137 -36 598 -37 455 -1 469 -2 645 -29 726 -111 1156 -217 1488 -366 l67 -30
0 -251 0 -251 -57 32 c-182 104 -358 208 -508 301 -93 58 -206 123 -250 146
-146 73 -148 73 -570 83 -735 16 -1081 55 -1437 163 -127 38 -210 55 -413 86
-77 11 -239 36 -360 55 -294 46 -522 66 -745 66 -363 1 -508 -42 -1040 -305
-283 -141 -378 -202 -428 -276 -20 -31 -22 -42 -17 -100 10 -95 35 -139 128
-223 167 -149 314 -253 492 -347 137 -73 231 -139 339 -238 247 -227 473 -367
731 -452 163 -54 329 -126 520 -225 221 -114 283 -139 755 -300 573 -195 599
-202 850 -213 303 -13 583 8 770 59 158 43 375 172 875 519 83 58 338 200 359
200 3 0 6 -115 6 -255 l0 -254 -82 -40 c-93 -45 -756 -273 -948 -326 -147 -41
-340 -75 -425 -76 -33 -1 -332 31 -665 70 -333 39 -688 81 -790 93 -219 25
-198 16 -505 207 -325 202 -362 221 -665 336 -287 109 -419 175 -825 415 -104
61 -278 155 -385 207 -323 157 -431 211 -507 253 l-73 41 0 569 0 570 98 49
c181 90 286 121 535 156 95 13 215 32 267 41 81 14 141 16 395 11 457 -9 845
-48 1195 -118 188 -39 288 -42 345 -14 78 39 50 71 -85 99 -87 17 -929 150
-1093 172 -69 9 -193 14 -319 14 -457 0 -734 -52 -1212 -230 -60 -22 -113 -40
-117 -40 -5 0 -9 33 -9 73 l0 74 33 11 c17 6 104 36 192 67 308 109 601 169
851 174 39 0 399 -37 800 -84z m3684 -430 c165 -19 302 -35 305 -35 3 0 5 -45
5 -101 0 -77 -3 -100 -12 -96 -42 16 -614 260 -617 263 -7 7 10 5 319 -31z
m-3546 -279 c60 -14 263 -70 450 -125 338 -99 542 -156 811 -227 l140 -37 115
12 c705 73 753 76 876 56 133 -23 346 -94 593 -199 229 -98 395 -161 526 -201
128 -39 200 -70 278 -122 l67 -45 0 -157 0 -157 -84 -105 c-91 -113 -219 -241
-307 -306 -93 -69 -289 -160 -639 -298 -326 -129 -273 -120 -730 -119 -375 0
-635 12 -780 36 -97 15 -615 153 -775 206 -165 54 -285 114 -572 285 -358 213
-546 315 -846 456 -176 83 -259 137 -346 223 -179 177 -217 298 -141 448 111
220 377 332 960 404 89 11 297 -4 404 -28z m-1864 -1196 c184 -101 620 -325
765 -393 169 -79 270 -115 469 -167 83 -22 183 -56 222 -75 40 -19 175 -108
302 -198 126 -90 251 -176 277 -191 25 -15 44 -30 42 -33 -3 -3 -75 3 -159 12
-173 20 -162 15 -363 160 -150 108 -193 129 -436 210 -311 102 -367 125 -584
237 -104 53 -301 154 -437 224 l-248 126 0 84 c0 85 0 85 23 73 12 -6 69 -38
127 -69z m7455 -128 c-6 -5 -294 -272 -640 -593 -347 -321 -641 -593 -653
-603 l-22 -19 0 260 0 260 108 76 c148 104 261 169 517 299 222 113 672 326
690 327 6 1 6 -2 0 -7z m-7491 -318 c211 -119 479 -261 689 -365 120 -60 214
-109 209 -109 -6 0 -86 9 -179 20 l-168 20 -185 95 c-102 53 -251 133 -332
178 l-148 82 0 68 c0 37 3 67 8 67 4 0 52 -25 106 -56z m-68 -362 c-7 -7 -46
9 -46 18 0 5 11 4 25 -2 14 -6 23 -13 21 -16z m5822 -333 l-3 -141 -50 -20
c-27 -11 -119 -47 -203 -78 l-153 -58 -235 26 c-128 14 -230 29 -226 33 4 3
53 22 109 42 164 58 382 153 566 247 95 48 178 88 185 89 10 1 12 -30 10 -140z"/>
<path d="M4615 4561 c-32 -20 -114 -101 -102 -101 18 0 95 36 125 57 31 24 44
63 20 63 -7 0 -26 -9 -43 -19z"/>
<path d="M11204 6465 c-94 -28 -804 -424 -804 -447 0 -32 318 43 471 111 115
50 226 129 306 215 100 108 108 146 27 121z"/>
<path d="M2189 2989 c-122 -17 -323 -78 -444 -133 -81 -37 -141 -97 -150 -150
-9 -45 15 -127 56 -191 41 -66 155 -176 254 -247 260 -186 352 -254 514 -383
312 -248 439 -319 726 -405 308 -93 632 -170 714 -170 21 0 46 6 56 14 17 12
17 16 5 31 -22 27 -62 43 -279 115 -368 121 -536 195 -661 293 -353 275 -580
546 -580 692 0 59 117 177 230 233 80 39 212 37 405 -7 276 -64 477 -97 525
-86 39 9 50 43 22 66 -12 9 -74 31 -139 49 -65 18 -203 59 -307 92 -291 90
-619 167 -786 183 -36 3 -74 7 -85 9 -11 2 -45 -1 -76 -5z"/>
<path d="M4523 2593 c-21 -8 -15 -51 10 -67 27 -18 402 -163 512 -199 77 -25
212 -53 220 -46 2 2 -29 32 -68 67 -47 41 -107 80 -172 112 -191 94 -438 159
-502 133z"/>
<path d="M2673 2553 c-52 -18 -100 -61 -109 -97 -9 -36 18 -103 67 -169 51
-68 242 -261 327 -330 124 -101 296 -194 395 -212 32 -6 37 -5 37 12 0 24 -44
66 -140 135 -120 85 -159 119 -190 166 -73 111 -39 258 68 290 22 7 91 12 155
12 64 0 127 4 141 10 33 12 34 44 3 64 -46 31 -564 137 -660 135 -28 0 -71 -7
-94 -16z"/>
<path d="M3295 2193 c-39 -2 -73 -9 -77 -16 -35 -54 58 -134 312 -270 140 -75
232 -109 284 -105 61 4 58 27 -12 103 -66 70 -80 98 -62 120 22 26 81 34 346
45 223 9 267 8 311 -5 103 -31 133 -96 64 -142 -44 -29 -83 -40 -211 -58 -58
-9 -139 -20 -180 -26 -104 -15 -138 -35 -120 -70 18 -32 95 -44 285 -43 376 2
615 78 615 196 0 35 -48 104 -116 169 -94 89 -103 92 -304 100 -173 7 -999 8
-1135 2z"/>
<path d="M5688 2043 c-8 -10 -38 -61 -67 -113 -91 -162 -197 -275 -352 -373
-66 -42 -121 -95 -116 -111 2 -6 24 -12 50 -14 91 -6 294 73 378 147 53 46
158 191 201 276 17 33 31 77 32 98 1 33 -5 44 -36 73 -42 38 -68 43 -90 17z"/>
<path d="M5102 1944 c-12 -8 -43 -46 -67 -83 -67 -101 -150 -153 -370 -231
-134 -48 -179 -80 -150 -109 34 -35 284 -22 405 20 100 35 223 131 284 223 70
104 -10 245 -102 180z"/>
</g>
</svg>
