<?xml version="1.0" standalone="no"?>
<!DOCTYPE svg PUBLIC "-//W3C//DTD SVG 20010904//EN"
 "http://www.w3.org/TR/2001/REC-SVG-20010904/DTD/svg10.dtd">
<svg version="1.0" xmlns="http://www.w3.org/2000/svg"
 width="1280.000000pt" height="849.000000pt" viewBox="0 0 1280.000000 849.000000"
 preserveAspectRatio="xMidYMid meet">
<metadata>
Created by potrace 1.15, written by Peter Selinger 2001-2017
</metadata>
<g transform="translate(0.000000,849.000000) scale(0.100000,-0.100000)"
fill="#9e9e9e" stroke="none">
<path d="M4398 8475 c-34 -19 -60 -67 -60 -110 0 -54 45 -125 164 -259 62 -70
125 -146 140 -169 39 -57 64 -82 133 -132 33 -24 82 -66 108 -94 27 -28 79
-67 119 -88 39 -20 101 -65 139 -99 52 -48 103 -80 216 -138 207 -105 228
-125 459 -442 32 -45 88 -119 123 -164 35 -46 58 -80 50 -77 -78 32 -128 40
-232 34 -111 -6 -137 -15 -137 -48 0 -12 -7 -19 -18 -19 -18 0 -52 -29 -52
-44 0 -4 12 -26 28 -49 15 -23 32 -51 38 -62 14 -27 71 -54 134 -64 62 -10 68
-15 45 -41 -17 -19 -17 -22 -3 -36 9 -9 40 -24 69 -34 l54 -19 -146 0 c-112
-1 -196 6 -359 29 -353 50 -439 73 -665 177 -329 151 -396 168 -675 167 -162
0 -213 -4 -297 -22 -196 -42 -337 -107 -430 -197 -55 -54 -67 -90 -43 -136 11
-19 -10 -19 -1505 -19 l-1516 0 3 -27 3 -28 1550 -5 c1460 -5 1552 -6 1583
-23 17 -10 32 -20 32 -23 0 -3 -16 3 -36 15 -32 19 -49 21 -192 19 -86 -1
-127 -3 -91 -5 l66 -4 7 -61 c3 -33 6 -85 6 -115 0 -170 95 -619 170 -808 61
-154 69 -178 60 -195 -5 -9 -7 -20 -4 -22 3 -3 -8 -28 -24 -55 -98 -166 -96
-319 5 -402 20 -17 64 -37 100 -47 56 -15 75 -16 161 -5 167 22 194 22 102 1
-47 -10 -70 -18 -52 -16 27 2 37 -2 50 -23 9 -14 19 -28 22 -31 3 -3 17 -21
30 -40 13 -19 27 -37 30 -40 3 -3 25 -30 50 -60 128 -157 379 -401 494 -479
12 -8 23 -18 26 -21 3 -3 21 -17 40 -30 19 -13 40 -29 46 -35 6 -5 54 -39 107
-74 54 -35 94 -68 90 -74 -3 -5 28 9 70 32 121 67 90 40 -48 -41 -69 -40 -125
-78 -125 -84 0 -6 7 -17 16 -25 13 -11 27 -7 90 24 42 21 80 34 86 31 6 -4 8
-3 5 2 -5 9 221 129 229 121 2 -1 -45 -27 -105 -57 l-108 -53 116 -57 c64 -32
132 -64 151 -73 19 -8 56 -24 82 -36 26 -11 52 -21 58 -21 6 0 18 -4 28 -9 62
-33 289 -100 475 -140 136 -30 250 -46 424 -62 131 -11 132 -12 136 -38 2 -14
5 48 7 139 2 118 5 57 11 -215 4 -209 12 -472 18 -585 6 -113 14 -261 18 -329
l6 -124 -54 6 c-30 4 -105 10 -167 14 -91 5 -116 3 -122 -8 -22 -35 44 -54
228 -68 61 -4 114 -10 116 -12 2 -2 6 -25 8 -51 l6 -48 -43 0 c-55 0 -207 -26
-267 -46 -49 -16 -59 -32 -34 -54 16 -13 57 -10 234 17 57 8 106 12 110 8 4
-3 12 -43 17 -88 10 -78 11 -82 35 -82 23 0 26 5 32 55 3 30 6 88 7 129 l1 74
108 -9 c145 -12 265 -11 268 1 11 34 -48 50 -245 65 -68 5 -125 11 -127 13 -2
1 0 28 3 60 l6 57 138 1 c77 1 144 3 149 4 6 1 33 3 61 4 42 1 50 4 47 18 -4
23 -43 29 -242 38 l-159 7 6 117 c4 64 12 294 18 511 7 217 13 397 15 399 1 1
92 -18 201 -43 759 -175 1249 -259 1523 -259 186 -1 182 -3 448 196 124 93
155 127 115 127 -32 0 -199 -89 -292 -155 -51 -37 -107 -71 -124 -76 -35 -10
-194 11 -517 66 -113 20 -212 37 -220 38 -48 8 480 250 745 342 79 27 132 66
119 87 -10 16 -110 3 -194 -25 -189 -64 -544 -229 -700 -327 l-85 -52 -395 71
c-217 39 -444 79 -505 88 -60 8 -114 20 -120 25 -7 7 -3 8 10 5 11 -4 106 -20
211 -36 173 -27 194 -29 235 -16 24 8 69 19 99 25 169 34 417 106 482 141 10
5 22 9 28 9 6 0 32 10 58 21 26 12 63 28 82 36 44 19 234 114 280 140 111 64
287 176 300 193 3 3 21 17 40 30 19 13 37 27 40 30 3 3 14 13 26 21 115 78
366 322 494 479 25 30 47 57 50 60 3 3 17 21 30 40 13 19 27 37 30 40 31 28
167 248 253 411 l35 66 -47 -17 c-25 -10 -62 -20 -81 -24 -20 -3 -7 4 30 17
36 13 80 31 98 41 18 9 38 14 44 10 6 -4 8 -3 4 4 -3 6 21 27 56 50 99 64 107
71 128 112 27 52 25 96 -5 155 -13 27 -22 52 -20 55 3 4 -5 16 -18 26 -18 16
-19 16 -8 2 16 -21 -1 -24 -18 -4 -7 8 -37 24 -67 36 -30 13 -53 25 -50 27 3
3 30 -7 61 -21 62 -28 70 -28 77 6 3 13 17 68 31 123 29 114 43 181 52 243 4
23 13 49 22 57 13 13 5 14 -64 10 -73 -4 -74 -3 -18 4 136 18 272 67 305 109
46 58 14 118 -99 185 -44 26 -103 57 -131 69 -28 11 -48 23 -46 25 2 3 26 -5
51 -16 50 -22 72 -27 43 -10 -33 19 -18 28 50 32 40 2 19 4 -53 5 -66 0 -129
2 -140 4 -11 1 705 5 1590 8 l1610 5 3 28 3 27 -1735 0 c-1610 0 -1743 1
-1834 18 -131 23 -766 23 -1262 -1 -195 -9 -500 -17 -679 -17 -282 0 -322 2
-311 15 6 8 36 21 65 30 30 8 61 22 70 31 14 15 14 18 0 33 -25 28 -18 38 33
43 60 6 139 44 148 70 3 12 19 41 35 65 23 38 26 48 16 64 -6 10 -22 19 -34
19 -15 0 -23 6 -23 18 0 34 -17 41 -112 53 -93 11 -153 6 -213 -17 -29 -11
102 154 150 188 88 64 203 118 314 147 143 38 169 51 326 164 105 75 146 112
212 191 45 54 90 115 100 135 22 46 29 186 13 261 -17 76 -66 166 -104 189
-79 48 -236 66 -341 37 -105 -28 -235 -112 -353 -228 -79 -79 -111 -125 -228
-333 l-79 -140 5 -85 c2 -47 5 -128 5 -180 0 -115 -12 -143 -137 -335 -99
-152 -149 -206 -99 -107 18 35 18 40 2 92 -23 80 -19 171 14 278 31 102 29
138 -10 148 -32 8 -69 -1 -90 -22 -14 -15 -16 -11 -13 51 2 63 0 69 -25 91
-30 26 -84 32 -118 14 -32 -18 -49 -64 -50 -137 0 -45 -3 -61 -8 -48 -15 35
-48 57 -108 71 -81 19 -93 18 -93 -8 0 -12 18 -38 45 -63 53 -48 64 -91 55
-216 -4 -63 -9 -80 -32 -108 -35 -41 -35 -72 1 -179 15 -45 22 -77 16 -70 -29
32 -608 974 -625 1016 -10 26 -30 79 -45 118 -35 96 -66 143 -164 246 -82 86
-282 266 -417 373 -81 65 -242 147 -334 170 -97 25 -199 29 -232 10z m4980
-2642 c-32 -2 -86 -2 -120 0 -35 2 -9 3 57 3 66 0 94 -1 63 -3z m-103 -383
c13 -6 15 -9 5 -9 -8 0 -22 4 -30 9 -18 12 -2 12 25 0z m-5585 -164 c0 -2 -8
-10 -17 -17 -16 -13 -17 -12 -4 4 13 16 21 21 21 13z m-106 -94 c-39 -37 -87
-87 -108 -112 -21 -25 -32 -34 -25 -20 12 25 185 200 197 200 4 0 -25 -30 -64
-68z m5529 -309 c-7 -2 -21 -2 -30 0 -10 3 -4 5 12 5 17 0 24 -2 18 -5z m-65
-10 c-10 -2 -28 -2 -40 0 -13 2 -5 4 17 4 22 1 32 -1 23 -4z m-5001 -289 c-3
-3 -12 -4 -19 -1 -8 3 -5 6 6 6 11 1 17 -2 13 -5z m-40 -10 c-3 -3 -12 -4 -19
-1 -8 3 -5 6 6 6 11 1 17 -2 13 -5z m-44 -11 c-7 -2 -21 -2 -30 0 -10 3 -4 5
12 5 17 0 24 -2 18 -5z m-60 -10 c-7 -2 -19 -2 -25 0 -7 3 -2 5 12 5 14 0 19
-2 13 -5z m1007 -848 c0 -2 -10 -9 -22 -15 -22 -11 -22 -10 -4 4 21 17 26 19
26 11z"/>
<path d="M6548 3113 c7 -3 16 -2 19 1 4 3 -2 6 -13 5 -11 0 -14 -3 -6 -6z"/>
</g>
</svg>
