<?xml version="1.0" standalone="no"?>
<!DOCTYPE svg PUBLIC "-//W3C//DTD SVG 20010904//EN"
 "http://www.w3.org/TR/2001/REC-SVG-20010904/DTD/svg10.dtd">
<svg version="1.0" xmlns="http://www.w3.org/2000/svg"
 width="1280.000000pt" height="1280.000000pt" viewBox="0 0 1280.000000 1280.000000"
 preserveAspectRatio="xMidYMid meet">
<metadata>
Created by potrace 1.15, written by Peter Selinger 2001-2017
</metadata>
<g transform="translate(0.000000,1280.000000) scale(0.100000,-0.100000)"
fill="#000000" stroke="none">
<path d="M4830 9619 c-85 -21 -125 -24 -65 -4 l40 13 -47 1 c-32 1 -90 -14
-179 -44 -102 -35 -146 -45 -193 -44 l-61 0 50 20 c62 26 71 34 25 24 -58 -12
-213 -64 -219 -74 -10 -14 -169 -91 -190 -91 -11 0 -23 -5 -26 -11 -4 -6 -39
-31 -79 -56 -67 -43 -256 -222 -256 -242 0 -5 28 -7 63 -5 46 2 54 1 32 -5
-16 -5 -48 -9 -71 -10 -36 -1 -44 -6 -71 -43 -56 -80 -70 -74 122 -52 28 4 47
3 43 -1 -4 -4 -55 -13 -114 -19 l-107 -11 -30 -53 c-16 -29 -27 -55 -25 -58 3
-2 18 0 33 6 48 18 206 38 345 44 l135 5 -60 -19 c-62 -21 -251 -59 -390 -80
-44 -7 -87 -19 -95 -26 -12 -12 -12 -14 1 -14 46 0 391 68 554 109 170 43 306
69 293 55 -3 -3 -104 -32 -224 -64 -176 -48 -260 -66 -428 -88 l-209 -27 -18
-42 c-10 -23 -21 -58 -25 -78 -6 -34 -5 -36 17 -31 94 21 174 26 405 26 197 0
360 7 656 30 463 35 494 38 533 56 29 12 27 13 -25 8 -723 -61 -1349 -93
-1300 -65 29 16 156 41 310 61 149 20 249 28 615 50 639 38 645 39 820 75 311
65 383 75 705 95 268 16 383 29 770 84 250 36 534 82 631 101 97 19 191 35
210 35 64 0 109 12 109 28 0 13 -36 14 -302 9 -285 -5 -298 -4 -218 9 47 8
231 41 410 74 179 33 339 62 355 65 42 6 694 82 783 91 71 6 90 17 53 29 -21
6 -687 -65 -836 -90 -166 -28 -1339 -190 -1445 -200 -36 -3 -157 -18 -268 -31
-112 -14 -206 -24 -208 -22 -5 6 634 125 766 143 63 9 297 44 520 79 508 80
619 96 749 110 66 7 106 16 109 24 2 8 -10 12 -42 12 -24 0 -48 5 -51 10 -7
12 -283 12 -362 1 -43 -6 -53 -5 -53 7 0 18 -86 12 -263 -19 -65 -12 -121 -19
-123 -16 -6 6 275 73 366 87 36 5 106 10 156 10 111 0 280 16 354 34 50 12 52
14 20 15 -19 1 -89 -3 -155 -9 -66 -5 -190 -14 -275 -20 -140 -9 -180 -16
-420 -76 l-265 -67 -170 -5 c-93 -2 -167 -1 -163 3 10 10 141 35 240 45 47 4
97 15 110 23 26 16 90 29 255 52 62 9 130 22 152 30 22 7 75 19 117 25 43 5
80 13 83 16 8 8 -771 -3 -824 -11 -29 -5 -36 -3 -25 4 11 7 -22 10 -110 9
-101 -1 -147 -6 -242 -29 -102 -25 -135 -29 -255 -28 l-138 1 80 19 c44 10 94
23 110 29 49 16 -619 4 -750 -14 -60 -8 -111 -13 -113 -11 -2 2 18 10 45 18
l48 15 -74 1 c-60 1 -114 -9 -268 -49 -136 -35 -212 -50 -256 -49 l-62 0 125
47 c99 37 119 48 95 50 -18 2 -84 -17 -164 -48 -122 -46 -140 -50 -215 -49
l-81 0 170 47 c135 37 162 48 133 50 -21 2 -53 -1 -73 -7 -21 -5 -35 -6 -35 0
0 13 -24 10 -110 -12z m1305 -29 c-38 -9 -88 -20 -110 -23 l-40 -6 33 14 c34
16 118 33 162 33 14 0 -6 -8 -45 -18z m650 -9 c-14 -13 -164 -41 -211 -40
l-39 1 40 10 c22 5 78 15 125 23 47 7 87 13 90 14 2 1 0 -3 -5 -8z m-2095 -27
c-25 -7 -56 -13 -70 -13 -16 1 -6 6 25 14 68 17 101 17 45 -1z m1120 0 c-36
-7 -85 -13 -110 -12 -35 1 -25 4 40 13 113 16 151 16 70 -1z m-295 -4 c-16 -4
-50 -8 -75 -7 l-45 0 40 7 c22 4 56 7 75 7 l35 1 -30 -8z m855 0 c-8 -5 -62
-9 -120 -8 l-105 2 90 6 c154 11 151 11 135 0z m-2021 -45 c-16 -15 -226 -85
-248 -82 -22 3 -12 10 59 44 66 32 97 42 139 42 30 1 52 -1 50 -4z m461 1 c0
-3 -51 -22 -112 -42 -103 -34 -125 -38 -243 -41 -154 -4 -151 2 31 51 103 28
148 35 227 35 53 1 97 -1 97 -3z m159 0 c-7 -7 -262 -76 -266 -72 -8 8 196 75
231 75 22 1 37 -1 35 -3z m740 -6 c-38 -11 -507 -56 -514 -48 -3 2 95 15 218
27 122 13 227 24 232 26 6 2 28 3 50 3 35 0 37 -1 14 -8z m336 -21 c-104 -23
-316 -51 -370 -48 -35 2 94 42 160 50 44 5 96 13 115 18 19 5 78 9 130 9 l95
0 -130 -29z m338 24 c-7 -2 -19 -2 -25 0 -7 3 -2 5 12 5 14 0 19 -2 13 -5z
m-46 -9 c-3 -3 -12 -4 -19 -1 -8 3 -5 6 6 6 11 1 17 -2 13 -5z m578 -86 c-65
-7 -234 -31 -460 -64 -30 -4 -30 -4 -5 7 14 6 75 24 135 40 99 25 126 28 260
27 145 -1 147 -1 70 -10z m-1935 -7 c-57 -32 -183 -62 -339 -81 -96 -11 -176
-19 -178 -17 -8 8 334 89 407 97 111 11 128 11 110 1z m213 2 c-7 -2 -21 -2
-30 0 -10 3 -4 5 12 5 17 0 24 -2 18 -5z m-1157 -12 c-6 -9 -66 -33 -66 -26 0
6 52 34 63 35 5 0 6 -4 3 -9z m274 -1 c-8 -5 -35 -9 -60 -9 -37 1 -41 2 -20 9
38 12 99 12 80 0z m2120 -14 c0 -2 -37 -15 -82 -29 -79 -24 -198 -45 -198 -34
0 6 137 55 170 60 34 6 110 8 110 3z m-246 -16 c-5 -5 -40 -21 -78 -35 -54
-20 -110 -30 -274 -45 -113 -11 -207 -18 -209 -16 -4 4 129 29 397 75 91 16
167 29 170 30 2 1 0 -3 -6 -9z m-2004 -19 c-36 -11 -136 -23 -128 -16 7 7 92
23 128 23 l25 0 -25 -7z m135 -23 c-103 -33 -237 -65 -300 -72 l-60 -6 40 16
c78 29 307 82 360 82 11 0 -7 -9 -40 -20z m1393 15 c-10 -2 -26 -2 -35 0 -10
3 -2 5 17 5 19 0 27 -2 18 -5z m1370 1 c-8 -7 -280 -55 -286 -50 -7 8 205 50
272 55 11 0 17 -2 14 -5z m-2048 -19 c0 -18 -235 -64 -485 -94 -93 -12 -190
-24 -215 -27 -88 -11 -32 6 145 44 230 51 236 52 385 67 152 15 170 16 170 10z
m1578 -20 c-7 -8 -307 -47 -321 -42 -6 2 49 11 123 21 74 10 142 19 150 21 27
5 53 5 48 0z m-2639 -19 c-7 -7 -212 -66 -216 -62 -6 5 170 64 196 65 13 1 22
-1 20 -3z m1830 -30 c-4 -4 -202 -32 -289 -40 -88 -9 -26 10 75 23 50 6 101
13 115 15 37 5 104 7 99 2z m1518 -12 c-3 -3 -12 -4 -19 -1 -8 3 -5 6 6 6 11
1 17 -2 13 -5z m-2090 -10 c-3 -3 -12 -4 -19 -1 -8 3 -5 6 6 6 11 1 17 -2 13
-5z m2026 -1 c-7 -2 -21 -2 -30 0 -10 3 -4 5 12 5 17 0 24 -2 18 -5z m-2066
-9 c-3 -3 -12 -4 -19 -1 -8 3 -5 6 6 6 11 1 17 -2 13 -5z m1996 -1 c-7 -2 -19
-2 -25 0 -7 3 -2 5 12 5 14 0 19 -2 13 -5z m-65 -10 c-10 -2 -26 -2 -35 0 -10
3 -2 5 17 5 19 0 27 -2 18 -5z m-80 -10 c-10 -2 -26 -2 -35 0 -10 3 -2 5 17 5
19 0 27 -2 18 -5z m-869 -8 c-6 -5 -587 -85 -609 -84 -37 3 282 67 385 78 90
9 231 13 224 6z m798 -1 c-3 -3 -12 -4 -19 -1 -8 3 -5 6 6 6 11 1 17 -2 13 -5z
m608 -19 c-43 -17 -253 -53 -615 -105 -571 -82 -538 -78 -845 -95 -267 -15
-420 -33 -544 -61 -267 -62 -436 -82 -816 -98 l-130 -5 220 33 c437 66 573 86
745 106 96 11 312 45 480 75 540 97 833 137 1045 145 219 8 475 10 460 5z
m-2796 -35 c-20 -12 -205 -43 -221 -38 -18 6 155 44 212 46 20 1 22 -1 9 -8z
m-316 -27 c-7 -2 -19 -2 -25 0 -7 3 -2 5 12 5 14 0 19 -2 13 -5z m1250 -40
c-7 -2 -19 -2 -25 0 -7 3 -2 5 12 5 14 0 19 -2 13 -5z m-60 -10 c-7 -2 -21 -2
-30 0 -10 3 -4 5 12 5 17 0 24 -2 18 -5z m-65 -10 c-10 -2 -28 -2 -40 0 -13 2
-5 4 17 4 22 1 32 -1 23 -4z m-85 -10 c-7 -2 -19 -2 -25 0 -7 3 -2 5 12 5 14
0 19 -2 13 -5z m45 -40 c-10 -2 -26 -2 -35 0 -10 3 -2 5 17 5 19 0 27 -2 18
-5z m-373 -18 c-70 -19 -704 -127 -724 -123 -23 5 499 117 589 127 41 5 100 9
130 9 l55 0 -50 -13z m310 10 c-21 -9 -378 -66 -382 -61 -6 6 34 14 197 41
120 21 212 30 185 20z m258 -2 c-7 -2 -19 -2 -25 0 -7 3 -2 5 12 5 14 0 19 -2
13 -5z m-96 -9 c-3 -3 -12 -4 -19 -1 -8 3 -5 6 6 6 11 1 17 -2 13 -5z m-1007
-13 c-14 -4 -43 -11 -65 -14 l-40 -6 40 14 c22 7 51 13 65 13 l25 0 -25 -7z
m-505 -11 c-27 -5 -63 -8 -80 -8 -25 1 -23 2 10 8 22 4 58 7 80 7 38 0 37 0
-10 -7z m72 -76 c-3 -3 -12 -4 -19 -1 -8 3 -5 6 6 6 11 1 17 -2 13 -5z m-40
-10 c-3 -3 -12 -4 -19 -1 -8 3 -5 6 6 6 11 1 17 -2 13 -5z"/>
<path d="M8985 9198 c-88 -10 -214 -33 -280 -50 -66 -17 -149 -37 -185 -44
-85 -18 -738 -86 -750 -79 -5 3 -92 8 -193 11 l-184 5 -516 -80 c-394 -61
-588 -86 -819 -106 -342 -30 -450 -48 -238 -40 275 11 518 38 1023 116 456 70
534 79 654 79 75 0 134 -2 132 -4 -2 -2 -107 -16 -234 -30 -126 -14 -354 -47
-505 -72 -151 -25 -324 -54 -385 -64 l-110 -18 79 -1 c44 0 172 12 285 28 350
50 400 51 141 2 l-155 -30 158 2 c86 1 157 -1 157 -5 0 -16 78 -7 332 37 169
30 283 45 322 43 53 -3 28 -9 -179 -43 l-240 -40 90 -8 c120 -11 339 15 875
102 439 72 529 81 858 88 214 4 302 9 299 17 -4 12 -393 11 -552 0 -44 -4 -78
-4 -75 -1 12 12 306 48 438 54 129 6 167 14 128 29 -31 12 -324 -17 -613 -60
-248 -38 -326 -46 -430 -45 -108 1 -121 3 -83 11 25 5 92 20 150 34 151 36
563 85 772 91 98 3 175 10 172 14 -3 5 -31 9 -62 10 -51 1 -55 2 -32 12 47 22
52 28 39 43 -15 18 -80 17 -284 -8z m253 -3 c-15 -15 -513 -83 -525 -71 -8 8
106 28 292 51 190 24 241 28 233 20z m-1148 -191 c-36 -7 -90 -13 -120 -12
-50 1 -47 2 35 13 120 16 166 16 85 -1z m120 -42 c0 -14 -241 -40 -305 -33
l-60 7 85 12 c47 7 121 14 165 15 44 2 88 4 98 5 9 1 17 -2 17 -6z m-807 -19
c-13 -2 -35 -2 -50 0 -16 2 -5 4 22 4 28 0 40 -2 28 -4z m280 -10 c-13 -2 -33
-2 -45 0 -13 2 -3 4 22 4 25 0 35 -2 23 -4z m-218 -38 c-13 -6 -310 -55 -321
-54 -31 3 223 57 271 57 33 0 56 -1 50 -3z m-342 -62 c-7 -2 -21 -2 -30 0 -10
3 -4 5 12 5 17 0 24 -2 18 -5z"/>
<path d="M9235 8974 c-71 -8 -202 -16 -290 -18 -88 -3 -191 -12 -230 -19 -129
-27 -479 -86 -570 -97 -49 -6 -144 -17 -209 -25 -66 -8 -124 -11 -130 -6 -10
7 -192 -7 -184 -14 2 -2 55 -13 118 -24 63 -11 156 -33 205 -49 90 -27 91 -27
205 -15 63 7 122 11 130 10 21 -4 -83 -27 -128 -28 -20 0 -46 -4 -56 -8 -17
-6 -10 -12 37 -35 l57 -27 532 71 c454 60 553 70 680 70 92 0 148 4 148 10 0
6 -17 10 -37 11 -35 0 -36 1 -13 10 33 14 33 13 16 47 l-15 29 -68 -13 c-74
-15 -286 -18 -243 -4 14 4 80 16 147 26 67 9 128 21 135 25 32 20 -13 18 -171
-6 -94 -15 -176 -25 -182 -23 -6 2 69 17 167 32 99 16 180 30 182 32 2 1 -4
14 -13 28 -20 30 -24 30 -220 10z m-135 -180 c-87 -15 -298 -30 -289 -20 11
11 199 34 284 34 l80 -1 -75 -13z m-1057 -21 c-7 -2 -21 -2 -30 0 -10 3 -4 5
12 5 17 0 24 -2 18 -5z m-65 -10 c-10 -2 -28 -2 -40 0 -13 2 -5 4 17 4 22 1
32 -1 23 -4z m609 -19 c-3 -3 -12 -4 -19 -1 -8 3 -5 6 6 6 11 1 17 -2 13 -5z"/>
<path d="M9480 8740 c-19 -5 -156 -27 -305 -49 -711 -107 -876 -131 -883 -131
-4 0 9 -12 28 -27 19 -15 56 -47 82 -71 l48 -44 94 11 c112 13 497 13 426 0
-25 -4 -106 -15 -180 -24 -240 -28 -292 -37 -281 -48 7 -7 40 -7 108 2 451 56
524 63 747 69 178 5 240 10 244 20 3 9 -82 12 -400 13 -416 1 -420 2 -204 37
109 17 143 35 91 48 -14 3 -124 1 -244 -5 -120 -6 -274 -11 -342 -10 l-124 1
120 19 c387 60 894 143 1023 166 18 3 32 12 32 19 0 15 -26 17 -80 4z m-570
-230 c-19 -5 -55 -11 -80 -14 -45 -6 -45 -6 -15 8 17 8 53 14 80 14 48 0 48 0
15 -8z m-325 -20 c-33 -4 -80 -8 -105 -8 -44 1 -45 1 -10 8 19 4 67 7 105 7
l70 0 -60 -7z"/>
<path d="M4560 8563 c-52 -8 -204 -34 -336 -58 -133 -25 -299 -51 -370 -60
-134 -15 -207 -27 -406 -65 -118 -23 -118 -23 -118 -51 l0 -29 118 5 117 4
-108 -18 c-116 -21 -143 -28 -134 -37 9 -10 144 -19 240 -17 49 1 86 -2 82 -5
-3 -4 -79 -21 -168 -37 l-162 -30 -3 -39 -3 -38 143 7 c79 3 203 10 277 16
234 17 161 0 -174 -41 -88 -11 -179 -22 -202 -26 l-43 -5 0 -49 0 -49 53 4 52
4 -49 -12 c-58 -15 -80 -44 -25 -33 362 73 388 76 648 76 l248 0 27 61 c15 34
25 64 23 66 -3 2 -110 -12 -238 -31 -236 -35 -352 -50 -334 -42 17 8 435 74
513 82 68 6 74 9 88 36 9 17 14 32 12 34 -2 2 -31 -1 -64 -6 -123 -19 -864
-69 -864 -58 0 3 51 11 113 17 61 7 230 32 375 57 196 33 290 44 370 44 l107
0 48 60 c26 32 47 62 47 65 0 3 -24 6 -52 6 l-53 2 62 7 c47 5 70 14 97 36 19
16 35 31 35 35 1 3 -113 -12 -251 -33 -324 -48 -463 -64 -675 -77 -223 -14
-273 -13 -158 5 50 7 182 29 295 48 146 25 264 38 410 46 268 15 407 33 429
55 15 16 14 17 -14 11 -70 -14 -177 -25 -280 -30 l-110 -5 90 19 c50 10 155
28 235 40 80 12 156 28 170 36 l25 13 -30 -1 c-16 0 -73 -7 -125 -15z m-460
-243 c-58 -10 -149 -27 -202 -39 -118 -25 -343 -31 -276 -6 99 36 294 62 483
63 l100 0 -105 -18z m70 -295 c0 -12 -15 -15 -82 -14 -89 1 -88 4 7 18 33 5
63 9 68 10 4 0 7 -6 7 -14z"/>
<path d="M5655 8389 c-225 -10 -375 -29 -485 -61 -60 -18 -70 -23 -50 -28 19
-5 13 -8 -29 -14 -30 -4 -72 -16 -95 -28 -50 -25 -126 -79 -126 -88 0 -4 60 3
133 16 72 13 133 24 135 24 1 0 2 -6 2 -13 0 -10 -39 -18 -147 -31 -142 -16
-149 -19 -180 -48 -18 -18 -31 -33 -30 -35 2 -1 138 17 303 42 164 24 461 65
659 90 198 25 466 59 595 76 129 17 379 45 555 64 297 30 312 33 210 34 -117
1 -361 -21 -685 -63 -546 -71 -670 -86 -687 -85 -38 2 85 21 427 64 454 58
643 84 649 90 7 8 -939 3 -1154 -6z"/>
<path d="M7265 8364 c-55 -8 -302 -41 -550 -75 -247 -33 -571 -78 -720 -100
-511 -75 -894 -120 -1068 -126 l-168 -6 -25 -32 c-13 -17 -24 -35 -24 -38 0
-4 19 -8 43 -8 l42 -1 -50 -9 c-44 -7 -75 -28 -75 -51 0 -4 163 -9 363 -10
l362 -3 -215 -28 c-118 -15 -287 -34 -375 -42 -180 -17 -185 -18 -185 -39 0
-11 8 -14 28 -11 69 12 594 66 604 63 24 -8 -575 -118 -642 -118 -5 0 -11 -15
-15 -32 -4 -18 -9 -41 -11 -50 -4 -12 3 -18 23 -21 l28 -4 -26 -2 c-21 -1 -28
-7 -33 -32 -9 -45 -8 -47 17 -52 21 -4 21 -4 1 -6 -22 -1 -34 -33 -34 -87 0
-21 5 -23 53 -27 l52 -3 -52 -2 -53 -2 0 -40 c0 -37 2 -40 23 -35 115 25 508
74 496 61 -4 -5 -496 -76 -524 -76 -1 0 -3 -23 -4 -51 l-1 -52 132 6 133 5
-85 -13 c-47 -7 -106 -14 -132 -14 l-48 -1 0 -53 0 -54 118 19 c420 66 528 78
689 78 97 0 164 4 168 10 4 6 -26 10 -82 11 -97 1 -78 11 47 25 59 6 68 10
117 57 29 28 52 52 49 54 -2 2 -64 -6 -137 -17 -156 -25 -520 -62 -527 -55 -3
3 -1 5 4 5 8 0 109 16 547 85 159 25 171 28 215 62 26 19 49 37 52 40 3 3 -26
2 -65 -1 l-70 -5 90 17 c65 12 120 32 195 68 160 79 353 124 527 124 112 0
300 -34 410 -73 23 -9 52 -14 65 -11 18 3 19 3 5 -4 -15 -6 -11 -11 25 -26 24
-10 65 -32 92 -48 l49 -29 143 15 c177 20 268 20 154 2 -41 -7 -117 -19 -168
-26 -65 -9 -90 -16 -82 -24 7 -7 59 -3 174 13 202 28 214 30 195 45 -21 16
-64 86 -77 125 -14 41 -15 114 -3 158 l9 32 -121 -6 c-67 -3 -120 -3 -117 0 3
3 59 13 124 21 l118 16 54 56 54 56 -42 -6 c-24 -3 -113 -8 -198 -10 l-155 -5
105 18 c58 11 164 22 235 25 72 3 151 9 176 12 30 4 66 0 104 -11 37 -10 76
-15 109 -11 l51 5 -44 -10 -43 -11 33 -28 c26 -23 45 -30 84 -31 l50 -2 -42
-4 c-24 -2 -43 -6 -43 -8 0 -3 10 -25 22 -50 19 -40 26 -45 48 -41 14 3 57 7
95 10 59 4 63 4 25 -4 -25 -4 -66 -11 -92 -15 l-48 -6 0 -59 c0 -32 -4 -70
-10 -84 -5 -14 -6 -26 -2 -26 4 1 88 13 187 29 195 30 184 24 170 87 -4 19
-11 21 -57 18 l-53 -4 44 13 c25 7 46 17 48 23 2 6 -9 44 -25 85 l-28 74 -104
5 -105 5 81 8 c104 11 109 15 81 56 l-22 33 -147 -5 c-81 -2 -145 -1 -143 3 2
4 61 13 130 20 69 7 125 16 125 20 0 27 -33 27 -230 4 -256 -29 -303 -29 -100
1 217 33 220 34 220 52 0 14 -47 15 -455 12 -251 -3 -452 -3 -448 -2 4 1 177
28 383 58 206 31 380 57 385 59 6 2 -1 8 -15 14 -18 7 -52 6 -115 -4 -50 -7
-238 -36 -420 -63 -346 -53 -1032 -125 -1290 -136 -82 -4 -147 -4 -145 -1 5 4
441 74 755 120 55 8 255 31 445 51 307 31 630 72 638 80 1 1 -27 10 -62 19
-63 15 -71 15 -228 -9 -193 -29 -583 -75 -618 -74 -26 1 143 27 490 75 132 18
195 31 180 35 -41 11 -188 8 -295 -7z m-1172 -241 c-7 -2 -21 -2 -30 0 -10 3
-4 5 12 5 17 0 24 -2 18 -5z m1835 2 c-10 -10 -657 -94 -813 -105 -88 -6 -304
-10 -480 -8 l-320 3 275 44 c229 36 312 45 500 52 124 5 252 10 285 12 106 6
559 7 553 2z m-2283 -25 c-93 -17 -269 -35 -235 -24 26 8 273 42 305 42 17 0
-15 -8 -70 -18z m378 13 c-7 -2 -19 -2 -25 0 -7 3 -2 5 12 5 14 0 19 -2 13 -5z
m-188 -29 c-82 -13 -159 -23 -170 -21 -25 3 237 44 285 45 19 0 -32 -11 -115
-24z m612 -20 c-3 -3 -12 -4 -19 -1 -8 3 -5 6 6 6 11 1 17 -2 13 -5z m-177
-30 c-110 -18 -180 -23 -290 -22 -165 1 -160 2 120 27 294 26 349 25 170 -5z
m1418 19 c-10 -2 -28 -2 -40 0 -13 2 -5 4 17 4 22 1 32 -1 23 -4z m-91 -9 c-3
-3 -12 -4 -19 -1 -8 3 -5 6 6 6 11 1 17 -2 13 -5z m-1198 -68 c-4 -4 -262 -22
-439 -31 -76 -3 -87 -2 -55 6 56 13 506 36 494 25z m-624 -18 c-19 -7 -163
-12 -390 -13 -374 -2 -364 0 65 14 370 12 361 12 325 -1z m1242 -14 c-3 -3
-12 -4 -19 -1 -8 3 -5 6 6 6 11 1 17 -2 13 -5z m-1137 -64 c-63 -10 -232 -38
-375 -64 -229 -40 -608 -88 -676 -85 -13 1 28 9 91 19 63 10 201 37 305 60
105 23 213 46 240 51 87 18 296 36 415 37 l115 0 -115 -18z m829 16 c-2 -2
-53 -5 -114 -8 -60 -3 -92 -2 -70 2 42 7 191 13 184 6z m678 -2 c-3 -3 -12 -4
-19 -1 -8 3 -5 6 6 6 11 1 17 -2 13 -5z m-628 -28 c-7 -7 -229 -38 -242 -33
-7 2 29 9 78 16 50 7 95 14 100 16 14 5 69 6 64 1z m-666 -33 c-7 -2 -19 -2
-25 0 -7 3 -2 5 12 5 14 0 19 -2 13 -5z m-68 -8 c-20 -8 -587 -76 -603 -73
-17 3 106 21 398 57 135 17 228 24 205 16z m250 0 c-5 -2 -188 -32 -405 -66
-312 -48 -424 -62 -535 -65 -174 -4 -155 0 340 61 204 25 411 52 460 59 86 13
161 19 140 11z m190 -6 c-22 -4 -51 -8 -65 -7 -35 1 34 15 75 16 25 0 23 -2
-10 -9z m-107 -16 c-10 -2 -26 -2 -35 0 -10 3 -2 5 17 5 19 0 27 -2 18 -5z
m-65 -10 c-7 -2 -19 -2 -25 0 -7 3 -2 5 12 5 14 0 19 -2 13 -5z m-60 -10 c-7
-2 -21 -2 -30 0 -10 3 -4 5 12 5 17 0 24 -2 18 -5z m872 -8 c-48 -18 -1000
-124 -1011 -112 -9 9 641 97 816 110 64 5 207 6 195 2z m-1722 -32 c-7 -2 -19
-2 -25 0 -7 3 -2 5 12 5 14 0 19 -2 13 -5z m-608 -53 c-27 -5 -63 -8 -80 -8
-25 1 -23 2 10 8 22 4 58 7 80 7 38 0 37 0 -10 -7z m420 -29 c-11 -5 -78 -14
-150 -20 -71 -7 -161 -19 -200 -27 -66 -13 -251 -29 -230 -20 31 15 328 60
430 66 181 10 173 10 150 1z m1889 -11 c-28 -11 -171 -25 -163 -16 7 7 112 23
159 24 24 1 24 0 4 -8z m-2347 -6 c-3 -3 -12 -4 -19 -1 -8 3 -5 6 6 6 11 1 17
-2 13 -5z m2596 -11 c-7 -2 -19 -2 -25 0 -7 3 -2 5 12 5 14 0 19 -2 13 -5z
m-65 -10 c-10 -2 -26 -2 -35 0 -10 3 -2 5 17 5 19 0 27 -2 18 -5z m-75 -10
c-7 -2 -21 -2 -30 0 -10 3 -4 5 12 5 17 0 24 -2 18 -5z m-70 -10 c-7 -2 -21
-2 -30 0 -10 3 -4 5 12 5 17 0 24 -2 18 -5z m-70 -10 c-7 -2 -21 -2 -30 0 -10
3 -4 5 12 5 17 0 24 -2 18 -5z m-1254 -7 c-11 -11 -389 -52 -389 -42 0 7 106
27 185 36 80 8 210 12 204 6z m-156 -63 c-7 -2 -21 -2 -30 0 -10 3 -4 5 12 5
17 0 24 -2 18 -5z m-70 -10 c-7 -2 -19 -2 -25 0 -7 3 -2 5 12 5 14 0 19 -2 13
-5z m-60 -10 c-7 -2 -19 -2 -25 0 -7 3 -2 5 12 5 14 0 19 -2 13 -5z m-486 -11
c21 -14 -157 -42 -253 -41 l-89 2 60 9 c270 42 264 42 282 30z m206 1 c-7 -2
-19 -2 -25 0 -7 3 -2 5 12 5 14 0 19 -2 13 -5z m-86 -139 c-3 -3 -12 -4 -19
-1 -8 3 -5 6 6 6 11 1 17 -2 13 -5z m-50 -10 c-3 -3 -12 -4 -19 -1 -8 3 -5 6
6 6 11 1 17 -2 13 -5z m-240 -110 c-3 -3 -12 -4 -19 -1 -8 3 -5 6 6 6 11 1 17
-2 13 -5z m-200 -60 c-3 -3 -12 -4 -19 -1 -8 3 -5 6 6 6 11 1 17 -2 13 -5z"/>
<path d="M9580 8308 c-37 -11 -123 -23 -200 -27 -166 -11 -730 -110 -730 -128
0 -23 21 -24 151 -8 72 9 133 14 135 12 3 -2 -46 -14 -108 -26 -133 -26 -148
-30 -148 -39 1 -29 20 -29 250 -1 129 16 242 28 250 28 35 -2 -68 -19 -235
-38 -235 -28 -247 -30 -242 -44 2 -8 57 -14 183 -17 l179 -6 -172 -2 c-96 -1
-173 -6 -173 -11 0 -5 9 -33 19 -63 11 -29 22 -66 26 -81 4 -19 11 -27 20 -23
7 2 65 7 127 10 80 4 100 3 68 -4 -25 -5 -74 -9 -110 -9 -85 -2 -92 -7 -84
-61 l7 -42 53 6 c149 17 168 15 62 -7 -97 -20 -127 -34 -100 -50 4 -3 108 10
232 29 124 18 312 46 419 62 132 19 196 32 199 41 3 10 -7 12 -49 7 -37 -3
-46 -2 -29 3 14 5 37 9 53 10 l27 1 0 113 0 113 -192 -22 c-214 -25 -384 -31
-372 -13 11 19 -18 29 -91 30 l-70 1 109 14 c60 8 171 28 245 45 75 17 188 37
251 43 112 11 144 25 84 37 l-29 7 27 1 c25 1 46 17 35 27 -2 2 -60 -4 -128
-15 -181 -29 -450 -63 -455 -58 -10 9 161 39 363 62 119 14 218 26 219 28 7 7
-10 47 -20 47 -6 0 -5 4 3 9 7 5 12 13 10 18 -2 6 -30 2 -69 -9z m-32 -55
c-10 -2 -28 -2 -40 0 -13 2 -5 4 17 4 22 1 32 -1 23 -4z m-248 -19 c-71 -17
-329 -48 -337 -40 -4 3 0 6 8 6 8 1 75 12 149 25 74 13 158 23 185 23 l50 0
-55 -14z m-82 -291 c-27 -2 -69 -2 -95 0 -27 2 -5 3 47 3 52 0 74 -1 48 -3z
m407 -8 c-5 -2 -109 -17 -230 -33 -156 -21 -238 -28 -280 -23 l-60 7 85 11
c134 18 511 48 485 38z"/>
<path d="M4150 7848 c-184 -33 -554 -68 -735 -68 -75 0 -118 -11 -103 -25 8
-9 396 12 568 30 166 17 299 40 313 54 16 16 6 18 -43 9z"/>
<path d="M3985 7769 c-182 -23 -647 -90 -660 -95 -8 -4 -15 -12 -15 -20 0 -10
16 -14 58 -15 l57 -1 -49 -9 c-47 -7 -76 -23 -65 -34 3 -3 30 -1 60 4 123 22
337 36 544 37 256 1 245 0 245 19 0 12 -25 15 -142 17 l-143 3 145 29 c139 28
160 36 160 64 0 14 -85 15 -195 1z m90 -24 c-5 -3 -94 -23 -197 -45 -164 -35
-203 -40 -310 -39 -68 0 -117 3 -109 6 23 9 542 81 586 81 22 0 36 -1 30 -3z"/>
<path d="M9236 7599 c-226 -33 -412 -61 -414 -64 -21 -21 62 -13 405 36 219
32 406 58 416 58 9 1 17 8 17 16 0 8 -3 15 -7 14 -5 -1 -192 -28 -417 -60z"/>
<path d="M8275 7629 c-38 -10 -119 -26 -178 -35 -97 -15 -110 -20 -127 -45
l-20 -27 52 14 c29 7 121 23 205 34 191 25 192 26 177 64 -8 20 -21 19 -109
-5z"/>
<path d="M4025 7589 c-91 -13 -193 -18 -417 -18 -258 -1 -298 -3 -298 -16 0
-13 25 -15 158 -16 135 -1 148 -3 92 -10 -168 -23 -250 -41 -250 -56 0 -8 6
-13 13 -10 29 11 340 57 346 51 6 -6 -89 -45 -147 -60 -29 -8 -89 -14 -132
-14 -62 0 -80 -3 -80 -14 0 -11 24 -16 98 -20 353 -24 346 -22 115 -24 -182
-2 -213 -4 -213 -17 0 -11 13 -15 53 -16 29 -1 39 -4 22 -6 -68 -8 -75 -12
-75 -42 0 -34 -22 -35 290 11 127 19 267 33 369 37 l164 6 4 43 4 42 -278 0
c-236 1 -274 3 -254 14 16 9 46 12 90 9 36 -3 147 5 246 16 99 12 183 21 187
21 6 0 23 99 17 104 -2 1 -58 -6 -124 -15z m56 -60 c-122 -24 -393 -47 -378
-33 9 9 290 42 362 42 l60 0 -44 -9z"/>
<path d="M9215 7551 l-389 -56 2 -91 c5 -131 4 -130 38 -126 40 4 732 111 767
118 28 6 38 38 15 47 -10 4 -10 6 0 6 8 1 12 24 12 81 l0 80 -27 -1 c-16 -1
-203 -26 -418 -58z m365 0 c-16 -10 -581 -92 -615 -90 -25 2 9 8 265 47 208
32 323 49 350 50 13 1 13 0 0 -7z m-647 -98 c-7 -2 -19 -2 -25 0 -7 3 -2 5 12
5 14 0 19 -2 13 -5z m396 -57 c-7 -7 -239 -38 -252 -33 -7 2 35 11 93 19 110
16 166 21 159 14z m-276 -43 c-7 -2 -19 -2 -25 0 -7 3 -2 5 12 5 14 0 19 -2
13 -5z"/>
<path d="M8255 7485 c-145 -23 -922 -135 -936 -135 -9 0 -7 -6 6 -19 23 -22
-22 -26 683 70 387 52 392 53 392 76 0 27 -17 28 -145 8z"/>
<path d="M7405 7454 c-171 -31 -180 -33 -168 -45 6 -6 72 2 184 21 96 16 179
30 184 30 6 0 3 5 -5 10 -20 13 -44 11 -195 -16z"/>
<path d="M8270 7415 c-130 -23 -518 -84 -695 -111 -93 -14 -176 -27 -183 -30
-9 -3 1 -21 30 -56 25 -29 55 -68 67 -85 12 -18 30 -33 39 -33 13 0 14 -2 4
-9 -24 -15 6 -51 37 -45 77 13 355 54 411 60 133 14 48 -5 -155 -35 -115 -17
-224 -34 -241 -37 l-31 -6 39 -90 c21 -50 46 -121 55 -159 14 -57 21 -69 37
-70 16 -1 17 -2 4 -6 -11 -3 -15 -12 -13 -31 2 -15 4 -30 4 -33 1 -8 234 -2
524 13 171 8 217 14 217 24 0 8 -6 14 -12 14 -7 0 -103 -7 -213 -15 -109 -8
-201 -12 -203 -11 -4 5 24 9 228 36 218 29 200 22 200 79 0 43 -3 50 -22 54
l-23 4 23 2 c22 1 22 2 22 154 0 85 -2 156 -5 159 -3 3 -29 2 -58 -3 -108 -15
-161 -20 -155 -14 3 3 50 13 104 21 92 14 127 26 107 36 -4 3 -87 -7 -183 -22
-96 -15 -200 -30 -230 -33 -109 -12 3 11 204 43 200 31 220 35 212 49 -3 4 -6
51 -7 104 l-1 97 -32 -1 c-17 -1 -65 -7 -106 -14z m123 -182 c-7 -2 -19 -2
-25 0 -7 3 -2 5 12 5 14 0 19 -2 13 -5z m-70 -10 c-7 -2 -19 -2 -25 0 -7 3 -2
5 12 5 14 0 19 -2 13 -5z m-55 -10 c-10 -2 -28 -2 -40 0 -13 2 -5 4 17 4 22 1
32 -1 23 -4z m-288 -44 c-124 -21 -243 -38 -265 -37 -33 0 -27 3 33 15 113 22
383 61 422 61 19 0 -66 -18 -190 -39z m255 -245 c-82 -7 -154 -12 -160 -10 -5
2 22 6 60 10 39 4 77 9 85 10 8 2 49 4 90 3 57 0 39 -3 -75 -13z m-85 -144
c-44 -10 -243 -30 -284 -29 -62 3 161 37 239 37 63 0 73 -2 45 -8z"/>
<path d="M9580 7368 c-142 -17 -733 -108 -738 -113 -18 -18 33 -15 225 14 120
17 302 44 406 58 137 19 187 30 187 40 0 7 -1 12 -2 12 -2 -1 -37 -6 -78 -11z"/>
<path d="M9250 7274 c-206 -29 -383 -53 -392 -53 -16 -1 -18 -17 -18 -181 l0
-181 38 6 c20 4 50 9 66 12 18 3 26 1 22 -5 -3 -5 -33 -13 -66 -17 l-60 -7 0
-35 c0 -35 1 -35 33 -28 17 4 158 9 312 10 l280 4 -210 -30 c-115 -16 -256
-34 -312 -41 -72 -8 -103 -16 -103 -25 0 -17 -20 -18 277 21 142 19 322 43
401 52 103 13 142 21 142 31 0 10 -44 13 -222 13 -124 0 -216 4 -208 9 28 15
234 43 332 44 l98 2 0 73 0 72 -212 0 c-116 0 -209 2 -207 4 6 6 280 53 357
62 l62 7 0 92 c0 65 -4 95 -12 98 -10 4 -10 6 0 6 6 1 12 10 12 21 0 13 -6 20
-17 19 -10 -1 -187 -25 -393 -55z m367 0 c-3 -3 -12 -4 -19 -1 -8 3 -5 6 6 6
11 1 17 -2 13 -5z m6 -31 c-7 -2 -19 -2 -25 0 -7 3 -2 5 12 5 14 0 19 -2 13
-5z m-55 -10 c-10 -2 -26 -2 -35 0 -10 3 -2 5 17 5 19 0 27 -2 18 -5z m-409
-57 c-2 -2 -26 -6 -54 -9 -34 -4 -42 -3 -25 3 25 8 87 13 79 6z m397 -63 c-8
-8 -267 -54 -281 -50 -5 2 42 13 105 25 63 12 124 23 135 26 34 7 49 6 41 -1z
m-303 -60 c-7 -2 -19 -2 -25 0 -7 3 -2 5 12 5 14 0 19 -2 13 -5z m-93 -13
c-61 -15 -125 -22 -117 -14 9 9 78 21 122 22 29 0 29 0 -5 -8z m245 -104 c-77
-13 -171 -26 -210 -30 -113 -11 -62 9 70 28 66 10 127 19 135 21 8 1 44 3 80
3 57 0 48 -3 -75 -22z m78 -23 c-7 -2 -21 -2 -30 0 -10 3 -4 5 12 5 17 0 24
-2 18 -5z"/>
<path d="M4045 7310 c-22 -5 -196 -18 -387 -31 -267 -18 -348 -26 -348 -36 0
-10 24 -12 108 -8 l107 4 -107 -15 -108 -16 0 -105 0 -105 33 6 c17 3 115 8
217 11 201 5 200 2 -15 -39 -71 -14 -154 -33 -182 -42 -45 -13 -53 -19 -53
-40 0 -23 4 -24 58 -25 63 -1 61 -4 -10 -14 -29 -4 -48 -11 -48 -19 0 -10 12
-11 53 -5 140 22 323 39 421 39 60 0 107 -2 105 -4 -3 -3 -92 -17 -199 -31
-235 -32 -330 -52 -330 -70 0 -23 50 -27 295 -21 l240 5 -71 -18 c-39 -10
-171 -27 -293 -37 -199 -16 -221 -20 -221 -36 0 -15 9 -18 48 -19 51 -1 48 -4
-10 -14 -21 -3 -38 -12 -38 -19 0 -10 29 -8 133 10 72 13 152 23 177 23 28 -1
-9 -10 -98 -24 -79 -12 -148 -27 -154 -33 -22 -22 91 -13 312 23 279 47 313
41 49 -8 -148 -27 -236 -38 -313 -39 l-106 -1 0 -34 0 -34 183 6 c100 3 229 8
287 11 190 9 134 -2 -392 -78 -65 -9 -78 -14 -78 -30 0 -22 7 -22 130 -3 87
13 111 13 98 0 -7 -7 -124 -33 -180 -40 l-48 -6 0 -163 0 -163 98 3 c77 2 88
1 52 -6 -25 -5 -69 -9 -97 -9 l-53 -1 0 -45 0 -44 133 -4 132 -3 -132 -2 -133
-2 0 -26 c0 -25 2 -26 38 -20 49 8 558 20 552 13 -3 -3 -137 -22 -297 -43
l-293 -38 0 -53 0 -53 58 0 57 0 -25 -20 -25 -19 28 -10 c16 -6 81 -12 145
-13 l117 -1 -95 -9 c-52 -5 -131 -12 -175 -16 l-80 -7 -3 -92 -3 -93 273 -2
273 -3 -135 -23 c-95 -15 -176 -22 -272 -22 l-138 0 0 -40 0 -40 426 0 c336 0
425 3 422 13 -4 9 -85 13 -344 17 l-339 5 338 3 c330 2 337 2 337 22 0 19 -7
20 -192 21 l-193 1 130 23 c72 13 156 24 188 24 l58 1 -3 43 -3 42 -65 4 -65
4 65 11 c57 10 65 14 66 34 2 32 -8 35 -73 22 -73 -14 -411 -24 -398 -12 10 9
194 36 315 47 36 3 84 8 108 11 l42 6 0 49 0 49 -132 0 c-166 0 -161 16 10 32
119 11 122 12 122 36 0 20 -4 23 -22 18 -70 -18 -239 -36 -433 -45 -314 -16
-356 -12 -100 9 248 21 543 55 552 64 17 17 -26 16 -249 -8 -450 -48 -478 -45
-78 9 146 19 279 38 296 41 32 6 32 6 33 70 l1 64 -208 1 c-119 1 -196 4 -182
9 14 4 104 8 201 9 l177 1 5 33 c4 22 0 36 -11 45 -13 10 -13 12 -1 12 12 0
14 33 14 208 l0 207 -205 -2 c-220 -2 -215 0 68 31 68 8 126 17 129 20 17 16
-18 17 -153 2 -81 -9 -149 -14 -151 -12 -2 1 59 15 134 30 76 15 147 29 159
31 18 4 20 11 19 62 -4 123 -4 123 -22 124 -15 0 -15 2 3 11 17 8 21 18 19 51
-2 36 -5 43 -26 46 -13 2 -142 -7 -285 -19 -205 -18 -282 -21 -355 -14 l-94 9
383 70 c334 61 382 72 382 87 0 10 -2 18 -5 18 -2 0 -51 -6 -107 -14 -100 -14
-376 -31 -367 -22 11 12 298 46 383 46 l96 0 0 55 0 56 -32 -6 c-59 -10 -173
-25 -188 -24 -40 1 69 28 139 34 l79 7 4 54 c3 52 2 54 -22 53 -14 -1 -43 -5
-65 -9z m-265 -147 c-69 -22 -187 -43 -233 -42 -30 1 -4 9 93 29 149 31 214
37 140 13z m285 -310 c-51 -12 -36 -53 19 -53 28 -1 29 -2 12 -12 -13 -7 -126
-12 -330 -14 -171 -2 -306 -2 -300 1 14 7 561 83 594 83 20 0 21 -1 5 -5z
m-65 -165 c-24 -9 -212 -22 -195 -13 6 3 51 11 100 18 92 14 139 11 95 -5z
m-213 -424 c-3 -3 -12 -4 -19 -1 -8 3 -5 6 6 6 11 1 17 -2 13 -5z m290 0 c-3
-3 -12 -4 -19 -1 -8 3 -5 6 6 6 11 1 17 -2 13 -5z m-344 -11 c-7 -2 -19 -2
-25 0 -7 3 -2 5 12 5 14 0 19 -2 13 -5z m280 0 c-7 -2 -19 -2 -25 0 -7 3 -2 5
12 5 14 0 19 -2 13 -5z m-330 -10 c-7 -2 -21 -2 -30 0 -10 3 -4 5 12 5 17 0
24 -2 18 -5z m270 0 c-7 -2 -19 -2 -25 0 -7 3 -2 5 12 5 14 0 19 -2 13 -5z
m-330 -10 c-7 -2 -19 -2 -25 0 -7 3 -2 5 12 5 14 0 19 -2 13 -5z m270 0 c-7
-2 -21 -2 -30 0 -10 3 -4 5 12 5 17 0 24 -2 18 -5z m-110 -70 c-7 -2 -19 -2
-25 0 -7 3 -2 5 12 5 14 0 19 -2 13 -5z m120 -40 c-7 -2 -21 -2 -30 0 -10 3
-4 5 12 5 17 0 24 -2 18 -5z m-340 -10 c-7 -2 -19 -2 -25 0 -7 3 -2 5 12 5 14
0 19 -2 13 -5z m274 1 c-3 -3 -12 -4 -19 -1 -8 3 -5 6 6 6 11 1 17 -2 13 -5z
m178 -436 c-17 -6 -145 -12 -300 -14 -239 -3 -265 -1 -230 11 30 10 106 13
300 13 194 0 252 -2 230 -10z m-450 -104 c-38 -7 -88 -13 -110 -12 -29 0 -20
4 35 13 103 17 164 16 75 -1z m170 -54 c-47 -12 -327 -12 -320 0 4 6 73 10
178 9 101 -1 160 -5 142 -9z"/>
<path d="M6353 7235 c-79 -14 -185 -48 -223 -71 -24 -15 -24 -15 18 -9 23 3
140 19 260 35 119 17 224 30 232 30 13 1 13 2 0 9 -28 15 -212 19 -287 6z"/>
<path d="M6575 7160 c-104 -16 -269 -34 -365 -41 l-174 -12 -61 -48 c-78 -64
-175 -183 -152 -187 9 -2 74 6 144 17 71 11 232 32 358 46 127 14 262 32 300
40 69 14 255 25 255 15 0 -6 -566 -100 -875 -145 -93 -14 -184 -28 -201 -30
-26 -4 -34 -13 -51 -58 -37 -92 -52 -160 -55 -257 -3 -90 -2 -95 17 -92 11 1
150 22 310 47 159 25 319 45 355 44 98 -1 45 -13 -240 -54 -135 -19 -289 -42
-342 -51 -102 -18 -105 -20 -92 -70 5 -20 6 -20 147 12 224 52 905 159 971
152 35 -3 -834 -211 -991 -236 -67 -11 -103 -21 -103 -29 0 -10 37 -14 148
-15 l147 -2 -142 -3 c-139 -3 -172 -12 -120 -33 17 -7 18 -9 4 -9 -14 -1 -16
-5 -8 -19 8 -16 22 -18 103 -16 73 2 85 1 53 -6 -22 -5 -62 -9 -88 -9 -65 -1
-58 -24 9 -32 27 -3 37 -7 22 -7 -45 -3 -60 -12 -47 -28 9 -10 41 -14 128 -14
64 0 123 -5 131 -10 10 -7 -25 -10 -108 -10 -80 0 -121 -4 -117 -10 3 -5 43
-10 87 -10 96 0 97 -9 2 -18 l-69 -7 39 -42 38 -43 127 -1 126 -1 -90 -14
c-49 -8 -97 -15 -105 -16 -8 -2 18 -25 58 -52 l71 -49 383 21 c361 19 418 25
418 41 0 6 -187 -1 -350 -14 -138 -11 -86 4 111 30 254 35 311 45 336 61 22
14 118 133 112 138 -2 2 -38 -1 -79 -6 -84 -10 -183 -7 -140 4 14 4 74 12 134
19 l109 12 33 71 c18 39 36 83 39 97 l7 26 -74 -4 c-40 -2 -94 -5 -120 -7 -90
-6 -48 10 60 23 59 8 118 18 132 24 24 10 24 11 3 14 -12 2 -104 -8 -205 -23
-168 -24 -448 -46 -448 -34 0 3 127 27 283 53 155 27 308 53 340 59 51 9 57
12 57 34 0 22 -3 24 -32 19 -914 -152 -1003 -164 -1151 -166 -153 -1 -188 3
-116 15 37 6 354 80 884 205 150 36 184 41 293 41 74 0 122 4 122 10 0 6 -10
10 -22 11 l-23 0 24 10 c19 8 22 14 16 37 -4 15 -8 28 -9 30 -2 1 -117 -13
-257 -32 -139 -20 -254 -34 -256 -32 -6 6 256 56 380 72 111 15 127 19 127 35
0 22 -40 129 -70 188 -22 43 -22 43 -68 38 l-47 -5 38 11 c43 12 45 22 14 59
l-22 27 -165 -25 c-91 -13 -176 -23 -190 -23 -22 1 34 11 273 50 l69 11 -23
24 c-19 21 -32 24 -93 25 l-71 1 60 12 60 11 -55 41 c-53 40 -171 105 -187
103 -4 -1 -93 -14 -198 -29z m118 -257 c-7 -2 -19 -2 -25 0 -7 3 -2 5 12 5 14
0 19 -2 13 -5z m26 -177 c-2 -2 -20 -6 -39 -10 -25 -4 -31 -3 -20 4 14 9 69
15 59 6z m456 -1 c-26 -10 -280 -46 -457 -65 -205 -23 -290 -23 -133 -1 50 7
176 25 280 41 159 23 346 38 310 25z m-664 -26 c-31 -12 -228 -42 -244 -36 -7
2 44 13 113 24 144 24 164 25 131 12z m-274 -45 c-3 -3 -12 -4 -19 -1 -8 3 -5
6 6 6 11 1 17 -2 13 -5z m481 -59 c-6 -6 -257 -45 -283 -44 -22 2 226 47 264
48 13 1 22 -1 19 -4z m-363 -10 c-21 -9 -378 -66 -382 -61 -2 2 38 13 89 25
51 11 111 25 133 30 38 9 181 14 160 6z m-398 -31 c-3 -3 -12 -4 -19 -1 -8 3
-5 6 6 6 11 1 17 -2 13 -5z m-82 -19 c-52 -14 -123 -19 -113 -9 8 7 95 22 133
22 23 0 18 -3 -20 -13z m523 8 c-10 -2 -26 -2 -35 0 -10 3 -2 5 17 5 19 0 27
-2 18 -5z m-71 -9 c-3 -3 -12 -4 -19 -1 -8 3 -5 6 6 6 11 1 17 -2 13 -5z m280
0 c-3 -3 -12 -4 -19 -1 -8 3 -5 6 6 6 11 1 17 -2 13 -5z m-40 -10 c-3 -3 -12
-4 -19 -1 -8 3 -5 6 6 6 11 1 17 -2 13 -5z m-74 -321 c-23 -2 -64 -2 -90 0
-26 2 -7 3 42 3 50 0 71 -1 48 -3z m420 0 c-34 -2 -93 -2 -130 0 -37 2 -9 3
62 3 72 0 102 -1 68 -3z m-705 -40 c-21 -2 -57 -2 -80 0 -24 2 -7 4 37 4 44 0
63 -2 43 -4z m385 0 c-29 -2 -77 -2 -105 0 -29 2 -6 3 52 3 58 0 81 -1 53 -3z
m460 0 c-18 -2 -48 -2 -65 0 -18 2 -4 4 32 4 36 0 50 -2 33 -4z m-284 -87 c-7
-7 -429 -56 -482 -56 -78 0 -53 17 36 25 45 4 125 13 177 20 91 12 278 20 269
11z m99 -33 c-10 -2 -28 -2 -40 0 -13 2 -5 4 17 4 22 1 32 -1 23 -4z m-118
-14 c-25 -4 -65 -7 -90 -7 l-45 1 50 7 c28 4 68 7 90 7 l40 0 -45 -8z m105
-154 c-9 -4 -192 -29 -568 -80 -65 -9 -128 -15 -140 -13 -12 2 41 12 118 22
77 11 225 31 330 47 165 24 291 35 260 24z"/>
<path d="M5285 7074 c-82 -12 -267 -30 -410 -39 -295 -18 -325 -22 -325 -37 0
-7 32 -9 105 -4 58 4 105 5 105 3 0 -3 -37 -10 -82 -17 -128 -18 -128 -18
-128 -52 l0 -31 60 6 c33 3 60 2 60 -3 0 -4 -27 -10 -60 -14 l-60 -7 -1 -37
c-1 -20 -2 -55 -3 -76 l-1 -39 75 0 75 1 -75 -11 c-112 -18 -85 -32 55 -30 78
2 111 -1 95 -6 -14 -5 -68 -9 -121 -10 -73 -1 -98 -4 -102 -15 -9 -24 4 -27
93 -22 l85 5 -82 -13 c-45 -8 -85 -16 -90 -19 -5 -3 -9 -25 -8 -49 l1 -43 75
2 74 2 -75 -12 -75 -12 0 -50 0 -50 55 2 55 2 -48 -9 c-27 -5 -52 -11 -55 -14
-3 -3 -5 -23 -5 -43 0 -36 2 -38 34 -41 l34 -4 -35 -11 c-33 -12 -34 -14 -33
-59 2 -98 -20 -88 181 -89 103 -1 165 -5 147 -9 -16 -4 -96 -8 -177 -9 l-146
-1 -4 -77 c-2 -43 -1 -100 1 -126 2 -41 6 -47 20 -41 9 4 122 9 251 10 l235 3
-110 -19 c-60 -11 -172 -26 -249 -34 -76 -8 -141 -18 -144 -21 -4 -3 0 -10 8
-15 12 -7 12 -12 2 -22 -23 -23 -12 -28 51 -23 l62 4 -62 -10 c-53 -9 -63 -14
-63 -31 0 -19 5 -20 154 -17 85 2 149 1 143 -2 -18 -9 -185 -29 -245 -29 -50
0 -52 -1 -52 -27 0 -70 3 -72 98 -67 62 4 137 -2 257 -19 l170 -25 -211 -1
c-116 -1 -232 -4 -258 -7 l-47 -7 3 -46 3 -46 365 -5 365 -5 -155 -12 c-85 -7
-247 -18 -360 -24 -113 -6 -207 -13 -209 -15 -2 -2 -1 -10 2 -19 6 -13 88 -15
749 -14 604 1 736 3 703 13 -29 9 -163 12 -512 11 -260 0 -467 3 -460 7 6 4
46 8 87 8 128 1 571 29 653 43 l77 12 -79 53 -79 52 -208 0 c-176 0 -242 5
-433 31 -205 27 -267 39 -215 39 10 0 96 9 189 20 111 13 236 20 358 20 146 0
188 3 185 13 -3 6 -18 14 -34 16 -21 2 -25 5 -12 10 15 5 12 13 -23 59 l-40
52 -177 1 c-187 1 -186 3 21 34 118 18 144 33 81 46 -23 5 -24 7 -6 8 25 1 27
9 9 36 -7 11 -26 52 -41 90 -15 39 -32 81 -37 94 l-10 23 -159 -4 c-88 -2
-160 -1 -160 3 0 9 110 19 218 19 l94 0 -6 33 c-3 17 -7 41 -9 52 -2 18 -9 20
-75 19 -39 0 -72 3 -72 7 0 4 29 10 65 14 65 7 86 18 67 37 -7 7 -62 1 -168
-17 -97 -17 -206 -29 -279 -31 -66 -1 -106 0 -90 2 17 2 86 11 155 20 140 18
368 59 377 67 3 3 2 24 -2 47 l-7 40 -66 -5 c-74 -6 -73 -3 10 20 l57 16 5 67
c3 37 13 107 22 156 12 73 13 91 2 97 -10 7 -9 9 3 9 10 0 20 12 24 28 3 15
20 60 36 100 16 41 29 75 29 78 0 2 -15 1 -32 -1 -30 -5 -29 -4 6 7 44 15 64
43 24 33 -308 -71 -480 -96 -629 -93 l-124 3 90 17 c134 26 497 76 603 84 78
6 95 10 107 28 16 22 19 37 8 35 -5 -1 -75 -12 -158 -25z m-110 -349 c-24 -8
-194 -12 -189 -4 3 5 49 9 102 8 53 0 93 -2 87 -4z m-88 -41 c-3 -3 -12 -4
-19 -1 -8 3 -5 6 6 6 11 1 17 -2 13 -5z m143 -204 c-59 -14 -401 -62 -406 -57
-3 2 73 16 168 31 95 15 180 28 188 30 8 2 31 4 50 4 l35 0 -35 -8z m-210 -76
c-44 -14 -319 -48 -327 -40 -2 2 49 12 114 21 65 10 136 21 158 25 22 4 54 8
70 8 26 0 24 -2 -15 -14z m68 -201 c-38 -2 -98 -2 -135 0 -38 2 -7 3 67 3 74
0 105 -1 68 -3z m20 -40 c-42 -2 -114 -2 -160 0 -46 1 -11 3 77 3 88 0 125 -2
83 -3z m-158 -103 c-63 -4 -153 -7 -200 -7 l-85 1 70 6 c39 4 129 6 200 7
l130 0 -115 -7z m-50 -40 c-14 -4 -72 -8 -130 -7 -100 0 -101 1 -35 7 106 10
195 10 165 0z m330 -1 c-63 -11 -171 -10 -145 1 11 5 58 8 105 8 74 0 79 -2
40 -9z m139 -163 c-10 -10 -481 -77 -520 -74 -35 2 -17 8 91 27 190 34 445 62
429 47z m-234 -116 c-179 -12 -358 -19 -353 -14 15 14 113 22 278 21 174 0
179 0 75 -7z m100 -45 c-23 -9 -254 -35 -305 -34 -72 1 -56 6 66 23 90 12 263
20 239 11z m-555 -76 c-64 -11 -92 -11 -85 1 3 6 34 9 68 9 l62 -2 -45 -8z"/>
<path d="M9475 6709 c-77 -10 -250 -33 -385 -51 l-245 -33 -2 -28 c-1 -19 3
-27 14 -27 29 0 754 116 786 126 25 8 21 34 -5 33 -13 -1 -86 -10 -163 -20z"/>
<path d="M9585 6638 c-64 -8 -637 -90 -712 -103 -20 -4 -33 -12 -33 -20 0 -10
11 -15 33 -16 l32 -1 -30 -7 c-21 -4 -31 -13 -33 -29 -4 -29 5 -28 156 7 68
16 244 46 393 67 171 24 269 42 269 49 0 14 -9 13 -319 -31 -226 -31 -342 -42
-329 -29 5 5 320 54 528 81 63 8 116 17 118 19 15 14 -13 19 -73 13z"/>
<path d="M8295 6549 c-80 -13 -201 -21 -362 -25 -134 -4 -243 -10 -243 -15 0
-5 46 -9 103 -10 106 -1 96 -8 -36 -24 -57 -6 -75 -20 -64 -48 4 -10 56 -8
263 14 405 43 464 52 464 72 0 8 -15 12 -42 10 l-43 -2 43 11 c23 6 42 17 42
24 0 8 -1 13 -2 13 -2 -1 -57 -10 -123 -20z m-86 -53 c-7 -7 -330 -39 -335
-33 -3 2 41 10 98 17 57 6 108 13 113 15 14 5 129 6 124 1z m-362 -42 c-3 -3
-12 -4 -19 -1 -8 3 -5 6 6 6 11 1 17 -2 13 -5z"/>
<path d="M9420 6504 c-118 -23 -295 -55 -394 -70 -168 -26 -205 -39 -182 -61
4 -4 82 8 174 25 92 18 259 46 372 62 293 43 270 37 270 65 0 14 -6 24 -12 24
-7 -1 -110 -21 -228 -45z"/>
<path d="M8048 6417 c-262 -37 -358 -55 -358 -64 0 -10 11 -12 38 -8 238 35
316 45 335 44 33 -2 -26 -14 -211 -45 -110 -18 -166 -32 -169 -41 -3 -8 -4
-15 -2 -17 2 -2 48 4 101 14 122 24 412 67 498 75 124 11 140 15 140 35 0 13
-9 20 -27 23 l-28 4 28 2 c17 0 27 7 27 16 0 8 -3 14 -7 14 -5 -1 -169 -24
-365 -52z m69 -23 c-3 -3 -12 -4 -19 -1 -8 3 -5 6 6 6 11 1 17 -2 13 -5z"/>
<path d="M9248 6343 c-261 -2 -408 -7 -408 -13 0 -6 88 -10 238 -11 137 0 226
-4 212 -9 -14 -4 -101 -15 -195 -24 -229 -23 -255 -27 -255 -38 0 -7 35 -8 98
-5 88 5 91 5 32 -4 -36 -5 -80 -12 -98 -15 l-33 -5 3 -55 3 -55 353 1 c462 1
465 -10 12 -45 -102 -8 -225 -17 -273 -21 -76 -6 -108 -16 -95 -29 5 -5 598
42 688 55 132 18 130 17 130 56 l0 34 -332 3 -333 2 333 3 c287 2 332 4 332
17 0 13 -28 15 -187 16 l-188 1 158 23 c234 35 217 29 217 81 0 24 -1 43 -2
42 -2 -2 -186 -4 -410 -5z m347 -63 c-46 -14 -593 -80 -645 -79 -45 1 589 87
645 87 l30 0 -30 -8z m-497 -27 c-10 -2 -28 -2 -40 0 -13 2 -5 4 17 4 22 1 32
-1 23 -4z"/>
<path d="M8085 6299 c-148 -21 -301 -41 -338 -45 -75 -8 -72 -6 -82 -51 l-7
-33 134 -2 133 -2 -135 -6 -135 -5 -17 -54 c-10 -30 -16 -56 -14 -58 2 -3 30
1 62 6 116 21 380 51 444 50 47 -1 -16 -12 -228 -42 l-292 -42 -30 -63 c-17
-35 -30 -66 -30 -68 0 -2 95 -4 212 -4 116 0 209 -2 207 -5 -3 -2 -102 -9
-220 -16 -190 -9 -244 -17 -228 -33 9 -9 463 23 552 39 54 10 128 15 195 13
l107 -3 -435 -64 c-239 -35 -446 -65 -460 -68 -14 -3 -36 -19 -50 -36 l-24
-30 49 6 c55 7 588 42 813 53 127 6 165 14 149 30 -3 3 -88 0 -190 -6 -101 -7
-193 -10 -203 -8 -11 2 71 14 181 27 110 13 204 27 209 32 27 24 11 23 -559
-52 -126 -16 -236 -28 -245 -27 -8 2 91 19 220 37 129 19 314 46 410 60 l175
26 3 52 3 53 -178 3 -178 2 178 3 c148 2 177 4 177 17 0 12 -23 15 -122 17
l-123 3 118 19 c105 17 138 28 124 42 -2 2 -73 -7 -158 -20 -151 -25 -338 -42
-310 -30 8 4 116 21 240 38 l226 31 3 63 c3 57 1 62 -18 62 -12 0 -30 5 -41
10 -10 6 -87 13 -171 16 -84 2 -154 7 -157 9 -2 3 13 5 35 6 21 0 109 8 194
17 l155 17 3 28 c3 25 1 27 -30 26 -18 -1 -154 -19 -303 -40z m53 -96 c-76 -2
-200 -2 -275 0 -76 1 -14 3 137 3 151 0 213 -2 138 -3z m220 -40 c-10 -2 -28
-2 -40 0 -13 2 -5 4 17 4 22 1 32 -1 23 -4z m-561 -69 c-3 -3 -12 -4 -19 -1
-8 3 -5 6 6 6 11 1 17 -2 13 -5z m-54 -11 c-7 -2 -19 -2 -25 0 -7 3 -2 5 12 5
14 0 19 -2 13 -5z"/>
<path d="M9515 6035 c-129 -19 -374 -35 -536 -35 -134 0 -139 -1 -139 -21 0
-19 4 -20 88 -15 55 3 76 2 57 -3 -16 -5 -56 -9 -87 -10 l-58 -1 0 -45 c0 -52
2 -53 118 -35 38 6 190 9 347 8 l280 -3 -372 -35 c-279 -26 -373 -38 -373 -47
0 -7 2 -13 5 -13 3 0 144 13 313 29 169 16 343 33 387 36 110 9 115 11 115 46
l0 29 -247 1 c-169 1 -230 4 -193 9 100 15 348 40 394 40 l46 0 0 40 c0 47 3
46 -145 25z m118 -32 c-13 -2 -33 -2 -45 0 -13 2 -3 4 22 4 25 0 35 -2 23 -4z
m-360 -40 c-13 -2 -33 -2 -45 0 -13 2 -3 4 22 4 25 0 35 -2 23 -4z m-76 -9
c-3 -3 -12 -4 -19 -1 -8 3 -5 6 6 6 11 1 17 -2 13 -5z"/>
<path d="M9599 5775 c-3 -2 -147 -16 -320 -30 -441 -35 -439 -35 -439 -49 0
-8 11 -11 28 -9 15 1 149 12 297 23 411 31 495 42 495 61 0 9 -53 13 -61 4z"/>
<path d="M6235 5710 c11 -5 124 -9 250 -9 127 0 239 4 250 9 12 5 -91 9 -250
9 -159 0 -262 -4 -250 -9z"/>
<path d="M7863 5666 c-396 -9 -475 -13 -487 -26 -14 -13 43 -15 507 -12 287 2
522 4 523 5 1 1 4 11 6 22 4 25 37 25 -549 11z"/>
<path d="M8837 5656 c-3 -8 -3 -17 0 -20 4 -3 190 -6 415 -6 401 0 408 0 408
20 0 20 -7 20 -409 20 -342 0 -410 -2 -414 -14z"/>
<path d="M7195 5482 l-50 -37 40 -3 c22 -2 87 -7 145 -11 l105 -8 -163 -2
c-132 -1 -169 -4 -195 -18 l-32 -17 40 -7 c22 -4 100 -10 173 -14 73 -4 130
-10 127 -13 -3 -4 -104 -7 -223 -7 -119 -1 -226 -6 -237 -11 -13 -6 138 -11
425 -14 l445 -5 -465 -3 c-368 -2 -474 -5 -510 -16 -40 -13 25 -15 580 -16
480 -1 618 -4 595 -13 -22 -8 -485 -12 -1717 -14 -929 -2 -1688 -5 -1688 -8 0
-2 5 -27 11 -55 l11 -50 871 -1 c480 -1 926 -5 992 -9 66 -3 -324 -7 -867 -8
-544 -1 -988 -5 -987 -9 0 -5 8 -26 18 -47 l17 -40 239 -48 c132 -27 257 -57
280 -68 22 -10 87 -26 144 -35 58 -8 107 -18 110 -20 9 -9 -177 -5 -230 5 -57
11 -416 50 -459 50 -23 0 -23 -1 -7 -17 10 -10 34 -23 55 -29 35 -11 36 -12 8
-13 -24 -1 -27 -3 -16 -16 7 -8 22 -15 34 -15 17 0 18 -2 6 -10 -16 -10 -18
-8 53 -69 42 -35 55 -41 95 -41 50 0 302 -37 310 -45 15 -14 -181 -3 -248 15
-41 10 -76 17 -78 15 -8 -8 148 -75 229 -99 187 -54 285 -59 1134 -62 765 -3
1140 4 1300 26 84 12 226 47 235 59 3 4 25 13 50 21 l45 14 -95 13 c-52 7
-252 36 -445 65 -289 44 -339 54 -285 56 35 2 96 -4 135 -12 78 -17 142 -25
499 -62 205 -21 253 -24 273 -13 12 7 23 15 23 19 0 3 -120 19 -267 36 l-268
29 150 3 c83 2 202 -2 265 -9 149 -16 182 -17 187 -1 3 8 -6 12 -29 12 -18 0
-69 9 -113 19 l-80 19 144 3 c104 3 146 7 149 17 3 9 -48 12 -230 12 -128 0
-262 5 -298 10 -36 5 -193 18 -350 30 -157 11 -359 29 -450 39 l-165 19 246 1
c170 1 278 -4 353 -14 200 -28 410 -44 672 -51 l262 -7 12 22 c6 13 10 24 8
26 -2 2 -48 7 -103 13 l-100 9 110 2 c102 1 135 9 135 31 0 4 -80 10 -177 14
-98 4 -268 11 -378 16 -475 22 -1149 51 -1260 53 -66 1 324 4 866 5 l987 2 12
30 c7 17 11 33 8 35 -2 2 -152 8 -333 13 l-330 9 336 1 337 2 10 42 c6 23 10
44 8 45 -2 2 -29 8 -61 13 -81 13 -80 20 2 20 l71 0 4 36 c2 19 1 37 -3 40 -4
2 -54 12 -111 22 l-103 17 113 3 c63 1 112 7 112 12 0 6 -91 10 -237 10 -131
0 -269 3 -308 8 -49 5 23 9 240 12 l310 5 3 38 3 37 -583 -1 -583 0 -50 -37z
m929 -106 c60 -9 112 -18 114 -21 12 -12 -498 -4 -673 10 -379 31 -375 33 45
30 306 -2 432 -7 514 -19z m196 -56 c-18 -12 -347 -12 -375 0 -12 5 61 9 185
9 136 1 200 -3 190 -9z m-105 -69 c38 -8 37 -9 -20 -9 -33 0 -71 4 -85 8 -21
7 -17 8 20 8 25 1 63 -3 85 -7z m-745 -42 c0 -11 -242 -19 -580 -19 -398 0
-910 11 -910 19 0 3 335 6 745 6 410 0 745 -3 745 -6z m685 -8 c99 -6 51 -8
-195 -8 -179 0 -302 3 -275 7 67 9 309 9 470 1z m-1372 -48 c-46 -2 -120 -2
-165 0 -46 1 -9 3 82 3 91 0 128 -2 83 -3z m842 -23 c114 -6 80 -6 -120 -3
-154 3 -361 9 -460 13 -133 6 -102 7 120 3 165 -3 372 -9 460 -13z m-1005
-110 c80 -5 186 -15 235 -22 88 -13 85 -13 -185 -16 -225 -3 -310 1 -465 17
-104 12 -226 25 -270 29 -104 12 485 4 685 -8z m-935 -15 c234 -10 528 -34
673 -55 167 -25 510 -92 494 -98 -6 -2 -116 8 -244 22 -128 14 -298 30 -378
36 -285 22 -478 41 -655 66 -221 30 -270 45 -130 39 55 -3 163 -7 240 -10z
m-290 -50 c138 -15 405 -44 595 -65 l345 -38 -222 -1 c-214 -1 -226 0 -350 29
-83 20 -192 36 -313 46 -102 9 -234 27 -295 40 -123 27 -117 26 240 -11z
m1813 28 c-16 -2 -40 -2 -55 0 -16 2 -3 4 27 4 30 0 43 -2 28 -4z m465 0 c-13
-2 -33 -2 -45 0 -13 2 -3 4 22 4 25 0 35 -2 23 -4z m317 -58 l115 -14 -245 6
c-135 3 -292 11 -350 18 -103 13 -101 14 130 9 129 -2 287 -11 350 -19z
m-2304 -55 l79 -18 -53 -1 c-48 -1 -209 33 -222 46 -9 9 112 -8 196 -27z
m1314 1 c130 -18 132 -19 60 -19 -41 0 -106 8 -145 18 -90 23 -79 23 85 1z
m-1941 -17 c9 -8 -135 -2 -154 6 -12 6 13 7 65 3 47 -3 87 -7 89 -9z m2374 -1
c-13 -2 -35 -2 -50 0 -16 2 -5 4 22 4 28 0 40 -2 28 -4z m-2170 -40 c-34 -2
-93 -2 -130 0 -37 2 -9 3 62 3 72 0 102 -1 68 -3z m305 0 c-15 -2 -42 -2 -60
0 -18 2 -6 4 27 4 33 0 48 -2 33 -4z m910 0 c-75 -2 -201 -2 -280 0 -79 1 -17
3 137 3 154 0 218 -2 143 -3z m375 0 c-7 -2 -21 -2 -30 0 -10 3 -4 5 12 5 17
0 24 -2 18 -5z m570 0 c-40 -2 -107 -2 -150 0 -43 1 -10 3 72 3 83 0 118 -2
78 -3z m-1833 -42 c36 -7 22 -9 -68 -10 -64 0 -120 -6 -130 -12 -14 -9 -37 -8
-95 5 -43 10 -77 19 -77 22 0 7 323 3 370 -5z m754 -37 c193 -25 387 -50 431
-55 76 -10 110 -19 69 -19 -55 0 -332 23 -494 41 -206 22 -478 79 -379 79 12
0 179 -20 373 -46z m901 -14 c219 -33 400 -62 403 -65 9 -8 -91 -6 -170 5
-226 29 -698 84 -858 100 l-185 18 207 1 c204 1 211 0 603 -59z m-530 5 c206
-21 548 -64 553 -70 12 -12 -94 -2 -388 35 -173 22 -322 42 -330 44 -34 8 32
5 165 -9z m-815 -4 c39 -7 34 -9 -40 -9 -47 0 -123 3 -170 7 l-85 8 125 1 c69
0 145 -3 170 -7z m-444 -37 c36 -9 63 -18 62 -20 -2 -2 -55 5 -118 15 -97 16
-107 19 -62 20 29 1 82 -6 118 -15z m768 -24 c32 -13 -54 -11 -214 5 l-135 14
164 -5 c90 -3 173 -10 185 -14z m-531 -7 c-7 -2 -19 -2 -25 0 -7 3 -2 5 12 5
14 0 19 -2 13 -5z m-255 -37 c95 -21 87 -27 -23 -20 -95 6 -175 19 -175 29 0
10 138 4 198 -9z m459 3 c43 -6 82 -15 88 -20 12 -12 3 -12 -92 2 -76 11 -129
28 -91 29 9 0 52 -5 95 -11z m-202 -19 c93 -15 102 -18 58 -19 -48 -1 -191 23
-202 34 -8 8 30 4 144 -15z m518 13 c-24 -2 -62 -2 -85 0 -24 2 -5 4 42 4 47
0 66 -2 43 -4z m847 -9 c268 -25 214 -31 -130 -14 -107 5 -208 14 -225 19 -51
16 173 13 355 -5z m553 9 c-13 -2 -33 -2 -45 0 -13 2 -3 4 22 4 25 0 35 -2 23
-4z m-195 -20 c-10 -2 -26 -2 -35 0 -10 3 -2 5 17 5 19 0 27 -2 18 -5z m49 -9
c-3 -3 -12 -4 -19 -1 -8 3 -5 6 6 6 11 1 17 -2 13 -5z"/>
<path d="M8827 5488 c-2 -18 -3 -36 -1 -39 2 -4 86 -5 186 -3 139 3 177 2 158
-7 -14 -6 -98 -13 -187 -16 l-163 -6 0 -25 c0 -22 3 -24 33 -18 80 17 254 25
520 26 184 0 287 4 287 10 0 6 -79 10 -217 10 -174 0 -215 3 -205 13 9 8 71
13 217 15 l205 3 0 35 0 34 -414 0 -414 0 -5 -32z"/>
<path d="M8814 5311 c-2 -2 -4 -17 -4 -32 0 -36 -11 -33 280 -63 l235 -25
-265 2 c-232 2 -265 0 -268 -13 -2 -13 18 -18 111 -29 190 -22 197 -29 30 -30
-144 -1 -152 -2 -158 -22 -4 -11 -5 -22 -3 -23 1 -1 120 -19 263 -40 143 -21
262 -40 264 -42 2 -2 -122 -4 -277 -4 -275 0 -282 0 -282 -20 0 -20 7 -20 460
-20 441 0 460 1 460 19 0 16 -11 19 -92 24 -51 4 -196 21 -323 39 l-230 33
323 3 322 2 0 25 0 25 -172 0 c-95 0 -222 7 -282 15 -120 16 -159 31 -56 21
36 -3 137 -8 225 -11 88 -3 188 -8 223 -11 l62 -6 0 31 c0 37 -3 37 -150 46
-139 8 -682 63 -688 70 -15 15 91 6 633 -50 163 -17 205 -18 205 -6 0 11 -20
14 -250 37 -91 9 -167 18 -169 20 -2 2 55 4 128 4 102 0 132 3 129 13 -4 9
-85 13 -342 17 -186 3 -340 3 -342 1z"/>
<path d="M4580 5295 c0 -13 96 -15 808 -14 708 1 801 3 757 15 -41 11 -192 14
-807 14 -667 0 -758 -2 -758 -15z"/>
<path d="M3310 5231 c0 -11 8 -22 18 -24 16 -4 16 -5 0 -6 -16 -1 -18 -13 -18
-96 0 -90 1 -95 23 -100 12 -2 144 -29 292 -60 149 -30 286 -59 305 -64 35 -9
35 -9 5 -10 -16 0 -98 4 -181 9 -139 8 -161 13 -280 53 -71 24 -137 47 -146
51 -16 7 -18 2 -18 -47 l0 -55 98 -10 97 -10 -95 1 c-155 0 -118 -19 50 -26
83 -3 158 -11 168 -17 13 -8 -26 -10 -149 -7 l-165 5 3 -57 c3 -31 6 -61 8
-67 1 -5 47 -16 101 -23 136 -17 513 -86 523 -96 14 -15 -443 28 -534 50 -76
18 -103 19 -87 3 6 -6 55 -22 109 -34 l98 -23 -102 0 c-101 -1 -103 -1 -99
-23 3 -21 9 -23 72 -26 76 -3 973 -122 1153 -152 62 -11 118 -20 124 -20 5 0
-10 15 -34 34 -39 29 -61 36 -169 56 -69 12 -127 24 -130 27 -3 3 40 3 96 1
l101 -3 -66 74 c-36 41 -80 90 -97 108 -17 18 -29 34 -27 37 3 2 0 13 -6 24
-9 18 -24 20 -128 25 -81 3 -137 11 -178 25 l-60 20 158 1 c101 1 157 5 157
11 0 6 -9 28 -19 49 -18 35 -25 39 -98 59 -43 11 -152 35 -242 53 -91 18 -160
34 -154 36 16 6 398 -46 428 -57 28 -10 30 -5 16 34 -7 18 -23 29 -58 39 l-48
15 43 1 c47 1 47 0 28 61 -13 44 -14 45 -62 51 l-49 6 48 1 c26 1 47 4 47 7 0
2 -5 27 -11 55 l-11 50 -424 0 c-412 0 -424 -1 -424 -19z m655 -226 l40 -14
-56 6 c-31 3 -71 9 -90 13 -32 7 -31 8 16 8 28 0 68 -6 90 -13z m-95 -65 c276
-57 292 -61 287 -66 -8 -8 -524 99 -536 112 -7 7 -1 6 249 -46z m235 -123 c28
-2 -19 -4 -102 -5 -84 -1 -153 1 -153 6 0 6 134 6 255 -1z m-387 -44 c-10 -2
-28 -2 -40 0 -13 2 -5 4 17 4 22 1 32 -1 23 -4z m177 -9 l40 -14 -54 6 c-30 3
-62 9 -70 14 -26 15 38 11 84 -6z m-285 -24 c26 -7 2 -9 -91 -6 -76 2 -133 8
-145 15 -15 10 2 11 91 6 61 -3 126 -10 145 -15z m385 -68 c74 -25 54 -26
-105 -7 -219 26 -243 34 -90 31 102 -3 150 -9 195 -24z m180 13 c52 -17 28
-17 -60 -1 -64 13 -66 14 -25 14 25 0 63 -5 85 -13z m-88 -101 c-3 -3 -12 -4
-19 -1 -8 3 -5 6 6 6 11 1 17 -2 13 -5z m238 -83 c23 -8 1 -10 -95 -5 -214 10
-279 23 -95 19 88 -2 174 -8 190 -14z"/>
<path d="M8696 4863 c-3 -10 -9 -24 -12 -30 -4 -10 24 -13 123 -13 101 0 207
-11 487 -50 197 -28 361 -48 364 -45 14 14 -33 24 -262 56 -237 34 -240 34
-153 37 68 2 87 6 87 17 0 13 -25 15 -147 15 -82 0 -211 7 -288 15 -182 19
-191 19 -199 -2z"/>
<path d="M8615 4709 c-4 -6 -5 -12 -4 -13 2 -2 96 -13 209 -26 113 -12 211
-25 218 -29 16 -9 -184 -4 -337 9 -81 7 -118 6 -128 -1 -24 -21 -13 -27 55
-34 122 -13 139 -22 29 -17 -108 5 -108 5 -137 -23 -17 -16 -30 -32 -30 -35 0
-4 201 -10 448 -13 315 -5 478 -11 552 -21 150 -22 147 -22 152 19 4 33 2 35
-32 41 -71 12 -87 23 -22 17 44 -4 62 -2 62 6 0 17 -10 19 -205 30 -99 6 -230
20 -292 31 -62 11 -190 29 -285 40 -95 11 -190 22 -210 25 -21 3 -40 0 -43 -6z
m637 -109 c138 -13 189 -32 63 -23 -49 3 -151 11 -225 18 l-135 13 95 1 c52 0
143 -4 202 -9z"/>
<path d="M8462 4507 c-16 -19 -17 -19 231 -52 152 -20 229 -25 407 -25 287 0
304 18 61 62 -157 28 -679 39 -699 15z m688 -41 c64 -15 62 -15 -130 -10 -107
2 -233 11 -280 18 -84 14 -83 15 130 11 147 -2 235 -8 280 -19z"/>
<path d="M8418 4469 c-17 -11 -11 -14 55 -28 78 -17 68 -23 -17 -10 -59 10
-70 9 -87 -7 -25 -23 -24 -28 9 -41 25 -11 23 -11 -23 -11 -44 1 -95 -16 -95
-33 0 -5 122 -26 320 -54 52 -8 190 -21 305 -30 238 -18 378 -35 548 -69 67
-13 120 -19 123 -14 3 5 4 11 3 13 -14 12 -355 67 -499 80 -411 36 -517 47
-550 55 -29 8 -22 9 37 7 43 -1 73 2 73 8 1 6 -34 17 -77 26 -43 9 -96 24
-118 32 -34 13 -36 16 -14 16 64 2 497 -64 719 -109 279 -57 439 -77 451 -58
4 7 7 13 6 14 -1 1 -43 7 -92 13 -50 6 -149 24 -220 41 -72 16 -191 38 -265
50 -74 11 -235 42 -357 68 -123 27 -228 45 -235 41z"/>
<path d="M3350 4451 c0 -13 14 -16 195 -42 88 -13 152 -25 141 -27 -18 -4
-216 13 -290 25 -30 5 -38 3 -34 -8 6 -19 55 -25 353 -43 357 -23 498 -45 807
-126 144 -39 386 -102 535 -142 150 -39 271 -73 269 -75 -8 -9 -579 18 -666
32 -123 18 -412 85 -615 142 -168 48 -667 164 -674 157 -11 -11 22 -27 85 -41
81 -19 71 -29 -12 -14 -61 12 -70 10 -61 -12 3 -8 27 -17 59 -21 29 -4 89 -13
133 -22 88 -17 587 -156 581 -161 -2 -2 -120 17 -262 42 -272 48 -466 77 -473
69 -10 -10 20 -54 41 -59 13 -3 97 -16 188 -30 212 -33 392 -66 387 -72 -3 -2
-133 17 -290 42 -156 25 -288 45 -292 45 -4 0 -5 -6 -3 -12 3 -7 48 -20 104
-30 l99 -17 -75 5 c-41 3 -83 8 -92 10 -23 7 -23 4 4 -51 13 -27 31 -47 43
-50 66 -14 460 -77 570 -90 72 -9 175 -25 230 -35 55 -11 138 -24 185 -30 47
-6 164 -24 260 -40 96 -16 261 -41 365 -55 191 -25 293 -42 265 -44 -8 0 -71
6 -140 14 -188 23 -261 31 -555 65 -594 68 -689 81 -920 124 -132 25 -240 44
-242 43 -14 -15 56 -34 292 -76 154 -28 287 -53 295 -55 28 -8 -113 5 -275 25
-88 11 -182 23 -209 26 -39 5 -48 3 -44 -8 3 -8 18 -18 34 -23 54 -16 72 -27
36 -21 -24 3 -32 1 -29 -8 2 -9 54 -14 183 -19 107 -3 229 -15 304 -27 68 -12
230 -33 360 -46 129 -13 312 -36 405 -51 423 -65 850 -138 964 -165 138 -33
232 -44 486 -59 94 -5 265 -23 380 -39 418 -60 728 -84 1090 -87 241 -2 322 0
300 7 -16 6 -64 24 -105 39 -55 21 -114 33 -220 44 -103 11 -196 29 -322 63
-97 26 -176 49 -174 50 2 2 69 -8 150 -22 165 -29 287 -37 293 -18 2 6 -5 14
-17 18 -56 18 2 13 156 -14 93 -16 223 -34 289 -40 167 -16 196 -19 315 -36
132 -18 194 -19 233 -1 18 7 52 19 76 26 24 6 40 15 35 19 -5 4 -69 16 -143
25 -111 15 -142 23 -184 48 -158 93 -291 148 -422 174 -148 29 -81 27 141 -5
164 -24 234 -39 324 -70 95 -33 138 -42 245 -51 72 -6 151 -16 177 -21 53 -12
80 -4 51 16 -27 18 -300 82 -453 105 -91 14 -174 34 -253 61 -65 23 -116 43
-115 45 2 1 200 -41 440 -95 241 -54 442 -94 449 -91 18 12 4 16 -170 54 -519
116 -1186 267 -1190 271 -7 8 -1 7 252 -35 405 -68 737 -128 827 -149 47 -11
133 -43 192 -70 59 -28 112 -51 118 -51 25 0 5 18 -52 47 -45 23 -56 32 -40
32 44 2 16 25 -49 43 l-64 18 155 -5 c85 -2 164 -6 174 -7 10 -2 21 2 23 7 2
7 -58 20 -154 33 -347 50 -470 70 -511 87 -24 10 -41 19 -40 21 2 1 89 -6 193
-16 301 -31 575 -51 585 -45 20 13 9 23 -37 34 l-48 10 56 -4 c43 -4 60 -1 69
10 8 10 9 19 4 24 -5 5 -79 30 -164 57 -85 26 -157 49 -160 52 -8 7 316 -22
366 -33 14 -3 25 4 38 26 10 17 14 34 10 38 -5 4 -76 18 -159 30 -134 19 -359
68 -260 56 157 -19 161 -19 146 -1 -13 16 -12 17 10 12 47 -10 299 -27 309
-21 12 7 13 35 2 35 -5 0 -44 4 -88 10 -43 5 -227 26 -409 45 -181 20 -450 52
-596 71 l-266 35 -95 -40 c-53 -23 -101 -41 -107 -41 -28 0 3 -20 32 -21 18 0
55 -7 82 -15 l50 -13 -50 5 c-27 3 -73 10 -102 16 -43 9 -67 8 -137 -8 -46
-10 -83 -21 -81 -25 3 -3 26 -9 52 -13 46 -6 257 -85 249 -93 -2 -2 -111 12
-242 32 -132 19 -261 39 -289 43 -27 4 -72 4 -100 1 -27 -3 -40 -7 -27 -7 33
-3 164 -33 160 -38 -2 -2 -60 5 -128 16 -69 11 -165 19 -215 19 l-90 -1 151
-23 c191 -30 641 -113 674 -125 21 -8 20 -9 -10 -5 -19 3 -127 14 -240 26
-270 27 -512 67 -649 109 -69 22 -147 28 -121 9 11 -7 3 -8 -30 -4 -76 10
-596 16 -580 6 18 -10 186 -51 358 -86 161 -32 797 -206 811 -221 3 -3 -7 -4
-24 0 -16 3 -156 20 -310 36 -578 63 -637 71 -765 105 -284 77 -973 216 -950
192 3 -3 194 -47 425 -97 231 -50 422 -94 425 -97 3 -3 -13 -3 -35 0 -164 25
-532 67 -635 71 -119 6 -149 13 -587 128 -255 67 -461 123 -459 125 2 2 106
-12 231 -32 124 -20 231 -35 237 -33 28 10 -135 43 -430 88 -178 28 -342 54
-365 60 -23 5 -98 16 -167 25 -130 17 -359 51 -566 85 -136 22 -164 24 -164
11z m3410 -398 c153 -26 753 -147 905 -183 196 -46 627 -178 585 -179 -58 -3
-426 75 -755 159 -214 55 -460 113 -545 130 -250 49 -511 121 -380 104 25 -3
110 -17 190 -31z m1345 22 c109 -20 506 -118 501 -123 -9 -8 -383 51 -438 69
-66 22 -167 67 -153 68 6 1 46 -6 90 -14z m605 -77 c124 -33 227 -62 230 -65
3 -3 -17 -3 -45 0 -50 6 -506 124 -515 134 -14 14 129 -15 330 -69z m-726 16
c104 -15 184 -30 178 -32 -17 -5 -378 47 -404 59 -27 11 -48 14 226 -27z m905
-19 c204 -55 435 -125 429 -130 -2 -1 -70 5 -153 14 -84 9 -142 19 -132 23 47
19 21 30 -263 107 -80 22 -131 40 -114 40 16 1 121 -24 233 -54z m-5224 25
c49 -7 49 -7 10 -8 -22 0 -60 3 -85 7 -41 8 -42 9 -10 9 19 0 58 -3 85 -8z
m1560 -30 l240 -11 195 -51 c196 -51 243 -67 160 -54 -123 19 -430 56 -550 66
-123 9 -379 47 -389 56 -7 6 90 5 344 -6z m-862 -27 c-7 -2 -19 -2 -25 0 -7 3
-2 5 12 5 14 0 19 -2 13 -5z m1657 -34 c463 -59 503 -66 789 -143 152 -42 292
-80 311 -86 35 -10 34 -10 -10 -5 -25 2 -153 21 -285 40 -132 20 -351 52 -486
70 -202 28 -288 45 -475 95 -126 34 -231 64 -234 67 -8 8 135 -6 390 -38z
m-1485 11 c64 -11 124 -24 133 -30 21 -11 -19 -6 -178 25 -144 28 -112 32 45
5z m3674 5 c54 -8 109 -19 122 -24 23 -9 23 -10 -6 -10 -35 1 -258 46 -232 48
9 0 61 -6 116 -14z m154 8 c-7 -2 -19 -2 -25 0 -7 3 -2 5 12 5 14 0 19 -2 13
-5z m-4278 -18 c93 -15 233 -49 242 -59 7 -7 -45 2 -232 39 -164 34 -171 47
-10 20z m915 -10 c208 -26 618 -101 564 -104 -36 -2 -512 68 -619 90 -55 11
-107 25 -115 30 -11 7 -6 8 15 5 17 -3 86 -12 155 -21z m3438 18 c-10 -2 -26
-2 -35 0 -10 3 -2 5 17 5 19 0 27 -2 18 -5z m237 -23 c66 -6 136 -15 155 -20
19 -5 80 -16 134 -25 134 -23 163 -36 61 -29 -74 5 -438 63 -530 84 -39 9 -39
9 10 5 28 -3 104 -9 170 -15z m-4010 -51 c329 -44 402 -56 495 -84 50 -15 68
-23 45 -20 -22 3 -168 21 -325 40 -166 21 -338 48 -412 66 -205 49 -186 49
197 -2z m3533 21 l27 -8 -25 -1 c-14 0 -59 6 -100 14 l-75 14 73 -6 c41 -3 86
-9 100 -13z m307 11 l40 -9 -40 0 c-22 0 -49 3 -60 8 l-20 9 20 0 c11 0 38 -4
60 -8z m-154 -76 c139 -21 278 -51 244 -54 -5 0 -107 17 -225 38 -248 45 -256
52 -19 16z m-2438 8 c-7 -2 -19 -2 -25 0 -7 3 -2 5 12 5 14 0 19 -2 13 -5z
m1193 -33 c455 -50 572 -66 637 -85 28 -8 120 -28 202 -45 225 -46 284 -64
415 -130 66 -33 120 -62 120 -64 0 -2 -10 -2 -22 0 -155 25 -887 147 -928 155
-159 31 -832 207 -799 208 9 1 178 -17 375 -39z m499 -5 c94 -25 149 -43 123
-40 -42 4 -296 71 -307 81 -9 8 20 2 184 -41z m-1545 21 c84 -18 47 -19 -50
-2 -41 8 -61 14 -45 14 17 1 59 -5 95 -12z m-250 -67 c151 -17 358 -46 460
-65 102 -19 230 -42 285 -51 161 -26 814 -185 785 -191 -9 -1 -101 13 -205 33
-290 54 -690 123 -785 135 -47 6 -175 28 -285 50 -110 21 -261 51 -335 65
-118 22 -235 53 -205 55 6 0 134 -14 285 -31z m707 7 c795 -116 1021 -152 987
-155 -21 -2 -1119 159 -1149 168 -49 15 -14 12 162 -13z m-1077 -16 c88 -10
274 -50 267 -57 -10 -10 -382 49 -396 63 -7 7 39 4 129 -6z m-653 -46 c-3 -3
-12 -4 -19 -1 -8 3 -5 6 6 6 11 1 17 -2 13 -5z m221 -24 c92 -11 349 -40 572
-65 223 -25 491 -59 595 -76 353 -57 769 -119 1006 -149 215 -27 361 -57 288
-59 -14 -1 -145 10 -290 24 -277 26 -530 61 -864 119 -110 19 -290 46 -400 61
-622 82 -1150 161 -1097 164 13 1 98 -8 190 -19z m1029 -75 c43 -8 115 -15
160 -15 45 0 104 -4 130 -10 26 -5 127 -21 223 -36 96 -15 170 -29 163 -31
-13 -5 -835 96 -842 103 -10 10 93 3 166 -11z m1189 -35 c183 -26 451 -86 439
-98 -14 -14 -644 105 -685 129 -10 6 -5 7 15 4 17 -3 121 -18 231 -35z m1489
25 l50 -13 -40 0 c-22 0 -58 5 -80 13 -38 12 -38 13 -10 13 17 0 53 -6 80 -13z
m-981 -40 c55 -8 102 -18 105 -21 8 -8 -123 6 -200 21 -92 18 -26 18 95 0z
m-977 -51 c-3 -3 -12 -4 -19 -1 -8 3 -5 6 6 6 11 1 17 -2 13 -5z m1744 -59
c69 -3 138 -10 155 -15 21 -6 8 -7 -46 -4 -196 10 -258 15 -290 24 -33 9 -33
9 10 5 25 -3 102 -7 171 -10z m-1514 -1 c-3 -3 -12 -4 -19 -1 -8 3 -5 6 6 6
11 1 17 -2 13 -5z m76 -11 c-7 -2 -19 -2 -25 0 -7 3 -2 5 12 5 14 0 19 -2 13
-5z m1645 -40 c-10 -2 -28 -2 -40 0 -13 2 -5 4 17 4 22 1 32 -1 23 -4z m-780
-49 c23 -4 45 -11 48 -16 4 -6 -1 -8 -12 -5 -11 3 -42 8 -69 12 -28 3 -57 11
-65 16 -11 8 -5 9 20 5 19 -3 54 -8 78 -12z m-240 -20 c45 -9 80 -19 78 -22
-7 -6 -152 17 -180 28 -21 9 -21 9 -1 9 11 1 57 -6 103 -15z"/>
<path d="M3700 3730 c0 -3 13 -17 28 -32 26 -25 44 -29 332 -72 328 -48 396
-57 680 -82 102 -9 358 -44 570 -79 212 -35 448 -69 525 -76 77 -7 132 -15
121 -17 -27 -6 -203 13 -551 59 -165 21 -453 55 -640 74 -211 21 -454 53 -640
85 -324 54 -346 57 -327 38 6 -6 69 -22 139 -34 120 -22 114 -23 -32 -8 l-60
6 34 -26 c21 -16 49 -26 70 -27 31 -1 33 -2 11 -8 -24 -7 -24 -7 10 -28 19
-11 69 -37 110 -56 65 -31 91 -37 200 -47 186 -17 231 -30 85 -25 -182 7 -120
-14 89 -31 94 -8 241 -25 326 -38 144 -23 181 -24 515 -24 198 0 342 4 320 8
-22 4 -85 16 -140 28 -55 11 -197 28 -315 37 -118 8 -249 20 -290 26 -69 10
-560 96 -675 118 l-50 10 60 -5 c33 -3 121 -14 195 -24 132 -18 197 -25 563
-55 114 -10 310 -38 549 -80 227 -40 397 -65 437 -64 55 1 22 9 -204 49 -294
52 -299 60 -20 30 243 -26 380 -46 440 -64 28 -9 68 -16 90 -15 l40 0 -55 19
-55 19 95 -5 c52 -3 163 -12 245 -20 90 -8 254 -13 410 -13 l260 1 -210 28
c-115 16 -307 36 -425 45 -460 34 -584 48 -840 91 -395 68 -578 97 -970 154
-385 57 -1050 139 -1050 130z m118 -37 c-10 -2 -28 -2 -40 0 -13 2 -5 4 17 4
22 1 32 -1 23 -4z m309 -33 c136 -17 323 -42 415 -55 92 -14 173 -25 179 -25
7 0 10 -2 7 -5 -12 -12 -827 89 -883 110 -27 10 57 2 282 -25z m-20 -96 c-3
-3 -12 -4 -19 -1 -8 3 -5 6 6 6 11 1 17 -2 13 -5z m-69 -41 c-10 -2 -26 -2
-35 0 -10 3 -2 5 17 5 19 0 27 -2 18 -5z m89 -9 c-3 -3 -12 -4 -19 -1 -8 3 -5
6 6 6 11 1 17 -2 13 -5z m1910 -150 c-3 -3 -12 -4 -19 -1 -8 3 -5 6 6 6 11 1
17 -2 13 -5z m753 -55 c42 -6 30 -7 -50 -3 -58 2 -118 9 -135 14 -35 10 95 3
185 -11z m-1707 -16 c-7 -2 -19 -2 -25 0 -7 3 -2 5 12 5 14 0 19 -2 13 -5z
m220 0 c-7 -2 -19 -2 -25 0 -7 3 -2 5 12 5 14 0 19 -2 13 -5z"/>
</g>
</svg>
