<?xml version="1.0" standalone="no"?>
<!DOCTYPE svg PUBLIC "-//W3C//DTD SVG 20010904//EN"
 "http://www.w3.org/TR/2001/REC-SVG-20010904/DTD/svg10.dtd">
<svg version="1.0" xmlns="http://www.w3.org/2000/svg"
 width="1280.000000pt" height="1280.000000pt" viewBox="0 0 1280.000000 1280.000000"
 preserveAspectRatio="xMidYMid meet">
<metadata>
Created by potrace 1.15, written by Peter Selinger 2001-2017
</metadata>
<g transform="translate(0.000000,1280.000000) scale(0.100000,-0.100000)"
fill="#000000" stroke="none">
<path d="M4920 9192 c-33 -5 -33 -5 -10 -12 22 -6 18 -8 -28 -18 -29 -7 -72
-12 -95 -12 -47 0 -136 -21 -189 -44 -30 -13 0 -14 300 -15 l333 -1 -21 30
c-21 30 -22 30 -123 31 l-102 1 85 17 c58 11 79 19 67 24 -20 7 -159 7 -217
-1z"/>
<path d="M4520 9063 c-42 -14 -43 -17 -5 -23 l40 -7 -51 -2 c-49 -1 -53 -4
-110 -63 -32 -35 -78 -90 -102 -123 l-43 -60 48 -6 48 -6 -51 -1 c-51 -2 -84
-22 -84 -51 0 -7 -9 -25 -21 -39 l-21 -27 224 -5 223 -5 -190 -29 c-104 -16
-214 -32 -243 -34 -51 -4 -55 -6 -68 -40 -8 -21 -24 -55 -34 -77 -15 -32 -50
-138 -50 -152 0 -2 33 -4 73 -5 l72 -2 -74 -5 c-46 -4 -76 -11 -79 -18 -2 -7
5 -13 15 -14 15 0 15 -2 -4 -11 -24 -11 -36 -34 -27 -49 3 -5 361 -9 870 -9
862 0 865 0 854 20 -10 19 -21 20 -413 21 -477 1 -479 13 -3 29 180 6 336 15
346 18 17 6 14 15 -27 87 -25 44 -66 116 -90 160 -24 44 -53 87 -63 96 -11 9
-17 19 -13 22 3 4 -20 52 -52 107 -50 90 -60 101 -79 95 -36 -11 -667 -18
-711 -7 -39 10 -39 10 25 11 36 1 157 8 270 17 113 9 253 19 312 23 l107 6
-29 43 c-16 23 -27 42 -24 42 2 0 0 9 -6 20 -8 15 -22 20 -58 22 l-47 1 43 4
c36 4 42 7 31 19 -10 12 -69 14 -363 13 -193 0 -358 -3 -366 -6z m73 -30 c-7
-2 -19 -2 -25 0 -7 3 -2 5 12 5 14 0 19 -2 13 -5z m195 0 c-32 -2 -86 -2 -120
0 -35 2 -9 3 57 3 66 0 94 -1 63 -3z m180 0 c-21 -2 -57 -2 -80 0 -24 2 -7 4
37 4 44 0 63 -2 43 -4z m165 0 c-24 -2 -62 -2 -85 0 -24 2 -5 4 42 4 47 0 66
-2 43 -4z m-118 -388 c-5 -2 -62 -13 -125 -24 -144 -25 -353 -43 -445 -39 -65
3 -55 5 140 34 138 21 249 32 325 32 63 0 111 -1 105 -3z m418 -12 c-13 -2
-35 -2 -50 0 -16 2 -5 4 22 4 28 0 40 -2 28 -4z m-405 -140 c-54 -2 -142 -2
-195 0 -54 1 -10 3 97 3 107 0 151 -2 98 -3z m-35 -190 c-122 -2 -324 -2 -450
0 -125 1 -25 2 222 2 248 0 350 -1 228 -2z m-308 -43 c-96 -10 -586 -10 -555
0 14 4 160 8 325 7 183 0 273 -3 230 -7z"/>
<path d="M4000 8181 c0 -8 176 -12 583 -14 l582 -2 -589 -3 -588 -2 5 -29 c3
-15 1 -33 -6 -40 -8 -8 -5 -11 14 -12 l24 0 -22 -11 c-17 -8 -23 -20 -23 -45
l0 -33 288 -1 c158 -1 278 -4 267 -6 -11 -2 -139 -7 -285 -11 l-265 -7 0 -30
0 -30 925 0 c875 0 925 1 924 18 -1 9 2 17 7 17 11 0 12 40 2 41 -5 0 -55 7
-113 14 -58 7 -87 13 -65 14 44 1 70 14 70 33 0 7 9 14 20 16 54 8 64 13 59
27 -5 13 -46 15 -263 17 l-256 3 253 2 c138 2 252 7 252 11 -1 4 -11 20 -24
35 l-23 28 -169 -1 c-93 -1 -487 1 -876 5 -502 5 -708 4 -708 -4z m1670 -114
c-42 -12 -1569 -22 -1556 -10 10 11 457 19 1086 20 368 1 496 -2 470 -10z
m-297 -84 c-83 -2 -223 -2 -310 0 -87 1 -18 3 152 3 171 0 242 -2 158 -3z
m-455 -50 c-125 -2 -332 -2 -460 0 -128 1 -26 2 227 2 253 0 358 -1 233 -2z"/>
<path d="M3985 7833 c3 -27 7 -57 9 -68 2 -11 4 -23 5 -27 0 -4 76 -9 169 -11
l167 -3 -167 -2 c-139 -2 -168 -5 -168 -16 0 -8 4 -17 8 -20 5 -3 374 -6 821
-7 l813 -1 21 21 21 21 -74 1 c-67 1 -71 2 -35 10 22 4 59 8 83 8 36 1 48 7
77 39 19 20 46 48 60 62 14 14 25 29 25 33 0 4 -414 7 -920 7 l-920 0 5 -47z
m1407 -95 c-13 -13 -523 -12 -602 2 -27 4 88 8 284 9 255 1 327 -2 318 -11z"/>
<path d="M4025 7613 c4 -21 9 -41 11 -45 3 -5 143 -9 312 -10 l307 -3 -303 -5
c-191 -3 -302 -9 -302 -15 0 -7 240 -11 696 -13 l695 -2 55 42 c30 24 54 46
54 50 0 4 -298 9 -662 11 l-663 2 682 3 c441 1 684 6 688 12 4 7 -260 10 -786
10 l-791 0 7 -37z"/>
<path d="M4678 7483 c-570 -3 -608 -4 -608 -21 0 -25 12 -38 45 -50 l30 -10
-28 -1 c-30 -1 -30 -4 -6 -68 8 -23 10 -23 203 -23 195 0 256 -5 256 -21 0 -5
-99 -9 -221 -9 -144 0 -218 -3 -214 -10 4 -6 110 -10 283 -11 284 0 384 -10
238 -22 -44 -4 -175 -7 -293 -7 -117 0 -213 -2 -213 -4 0 -2 7 -20 15 -40 14
-33 19 -36 58 -37 43 -1 42 -3 -6 -13 -19 -5 -27 -12 -25 -23 3 -15 31 -16
288 -15 l285 1 -110 -19 c-75 -13 -163 -19 -273 -19 -124 -1 -163 -4 -160 -13
3 -7 15 -15 29 -19 23 -7 23 -7 2 -8 -26 -1 -28 -12 -11 -44 6 -12 13 -29 14
-37 3 -24 48 -124 59 -132 6 -4 91 -8 190 -9 l180 -1 -110 -23 c-60 -13 -138
-27 -172 -30 -66 -8 -77 -19 -45 -48 15 -14 42 -17 138 -18 136 -2 113 -16
-28 -18 -49 0 -88 -4 -88 -7 0 -10 64 -139 82 -166 l19 -28 565 0 c310 0 564
4 564 8 0 5 -17 27 -37 50 -21 23 -39 47 -41 54 -10 38 -19 39 -241 33 -154
-5 -212 -3 -201 4 8 6 56 11 106 11 50 0 139 3 197 7 88 5 105 8 96 20 -9 10
-88 13 -403 14 -231 1 -373 5 -346 10 25 4 194 8 377 8 182 1 334 5 337 9 2 4
-4 19 -14 32 -17 23 -24 24 -107 22 -96 -2 -93 8 10 28 l57 11 -41 77 c-46 85
-64 105 -90 97 -10 -3 -20 -1 -24 5 -3 6 3 10 14 10 24 0 27 18 7 46 -13 17
-36 20 -218 31 -112 6 -228 12 -258 13 -52 2 -49 3 50 20 116 21 314 26 356
10 34 -13 36 -11 19 25 -23 53 -28 70 -26 93 2 22 0 22 -100 22 -56 0 -100 3
-96 6 3 4 52 11 108 18 184 20 127 31 -163 31 -190 0 -281 4 -298 12 -20 9 37
12 282 12 l307 1 21 30 21 30 -187 0 c-103 0 -185 2 -182 5 6 6 345 45 390 45
29 0 98 43 98 61 0 5 -24 8 -52 7 -29 -2 -326 -4 -660 -5z m582 -34 c-25 -4
-295 -7 -600 -6 l-555 2 470 5 c743 8 735 8 685 -1z m-355 -40 c-57 -11 -637
-11 -655 1 -10 6 108 9 340 9 216 -1 339 -5 315 -10z m-67 -156 c-10 -2 -26
-2 -35 0 -10 3 -2 5 17 5 19 0 27 -2 18 -5z m197 -113 c-4 -6 -111 -10 -293
-9 -158 1 -271 5 -252 9 56 12 552 12 545 0z m-227 -117 c-60 -2 -156 -2 -215
0 -60 1 -11 3 107 3 118 0 167 -2 108 -3z m312 -53 c-32 -8 -615 -16 -650 -9
-33 6 209 15 440 16 146 1 231 -2 210 -7z m-242 -97 c-16 -2 -40 -2 -55 0 -16
2 -3 4 27 4 30 0 43 -2 28 -4z m352 -100 c-100 -22 -149 -25 -380 -30 -146 -3
-262 -2 -258 2 4 4 54 18 110 30 94 21 128 23 373 23 l270 0 -115 -25z m-592
-150 c-27 -2 -69 -2 -95 0 -27 2 -5 3 47 3 52 0 74 -1 48 -3z m860 -70 c-10
-2 -26 -2 -35 0 -10 3 -2 5 17 5 19 0 27 -2 18 -5z"/>
<path d="M5575 6410 c-16 -4 -261 -8 -542 -9 -282 0 -513 -3 -513 -6 0 -7 62
-108 78 -127 14 -16 38 -18 235 -18 121 0 218 -2 216 -5 -7 -7 -306 -45 -355
-45 -24 0 -44 -2 -44 -4 0 -9 64 -101 104 -151 23 -27 42 -52 44 -55 2 -2 40
-7 85 -11 l82 -6 -72 -1 c-40 -1 -73 -5 -73 -10 0 -4 14 -23 31 -41 16 -18 55
-65 86 -104 l56 -70 241 7 c132 4 238 5 235 2 -10 -10 -249 -36 -334 -36 -95
0 -112 -5 -94 -26 7 -9 58 -11 207 -9 131 3 182 1 152 -5 -25 -5 -107 -9 -182
-9 -76 -1 -138 -4 -138 -8 0 -5 29 -38 63 -75 35 -38 63 -68 61 -68 -1 0 39
-40 89 -90 l91 -90 71 -2 70 -2 -65 -4 -65 -3 105 -100 104 -99 326 -1 c179
-1 314 -5 300 -9 -14 -4 -150 -8 -302 -9 -153 -1 -278 -5 -278 -9 0 -5 11 -19
25 -32 20 -19 40 -25 98 -30 l72 -6 -47 -7 c-54 -9 -59 -19 -23 -43 24 -16 42
-15 283 10 141 14 280 29 307 32 83 10 48 -2 -113 -40 -135 -32 -168 -36 -287
-36 -83 0 -135 -4 -135 -10 0 -5 3 -10 8 -10 4 0 20 -11 36 -25 25 -22 36 -24
90 -20 l61 4 -50 -12 -49 -13 39 -29 c30 -24 52 -31 104 -35 56 -5 62 -7 36
-14 -16 -4 -36 -10 -43 -12 -14 -4 25 -33 138 -104 l55 -34 210 1 c203 2 208
1 140 -12 -38 -7 -117 -19 -174 -26 -91 -11 -102 -14 -86 -26 11 -7 31 -13 47
-13 16 0 28 -6 28 -12 0 -7 55 -40 122 -73 l122 -60 99 1 c60 1 94 -2 86 -7
-8 -5 -38 -9 -66 -9 -29 0 -53 -3 -53 -8 0 -4 30 -18 68 -31 37 -13 84 -32
104 -42 21 -11 51 -19 67 -19 16 0 31 -6 33 -12 4 -10 21 -10 84 0 43 7 88 16
99 19 15 4 12 -3 -13 -26 -18 -17 -37 -31 -43 -31 -27 0 -1 -18 54 -37 34 -12
109 -37 167 -57 57 -20 134 -42 170 -50 36 -8 97 -22 136 -30 110 -24 348 -22
461 5 181 42 401 127 493 190 14 9 59 39 100 65 l75 49 -90 5 -90 5 120 20
120 19 58 55 c31 30 55 56 52 59 -2 3 3 11 13 18 14 11 -2 14 -108 15 -149 1
-127 16 37 26 l102 6 30 76 c17 42 31 80 31 85 0 5 -41 5 -92 1 -108 -8 -114
-1 -13 15 104 15 115 19 115 36 0 14 -14 15 -108 9 -104 -7 -152 -3 -152 14 0
4 57 18 128 30 70 13 134 27 142 31 12 7 25 70 14 70 -1 0 -34 -7 -72 -15 -66
-13 -147 -11 -137 5 2 4 52 10 111 13 59 4 109 9 111 11 8 8 15 175 9 200 -4
15 -14 26 -24 27 -10 0 -12 3 -4 6 20 8 14 21 -25 48 -37 25 -40 25 -245 25
-179 0 -207 2 -202 15 5 12 38 15 182 17 175 3 177 3 145 21 -26 14 -57 17
-169 17 l-137 0 39 27 c21 15 57 29 79 33 l40 6 -32 17 c-26 14 -65 17 -220
19 l-188 2 170 6 c223 7 202 23 -40 31 -99 3 -167 6 -152 7 70 5 237 35 230
42 -4 4 -44 27 -88 50 -44 24 -90 50 -103 58 -15 10 -44 14 -86 13 -58 -1 -65
1 -80 24 -17 26 -17 27 3 32 38 10 10 25 -34 18 -26 -3 -46 -2 -50 5 -4 6 6
10 24 10 44 0 38 15 -16 47 -27 15 -50 30 -53 33 -3 4 -26 19 -51 33 -39 23
-57 27 -128 27 -87 0 -104 -5 -163 -52 -47 -36 -48 -48 -5 -49 25 -1 22 -3
-17 -10 -35 -5 -59 -17 -80 -38 l-31 -31 34 0 c18 0 118 7 222 16 166 14 232
14 217 -1 -3 -4 -340 -58 -491 -80 -40 -5 -51 -12 -72 -43 -13 -20 -34 -50
-46 -66 l-23 -29 150 8 c82 4 147 5 144 2 -3 -3 -74 -11 -159 -18 -133 -11
-157 -16 -170 -33 -9 -11 -42 -47 -73 -80 -32 -33 -58 -63 -58 -67 0 -4 -9
-11 -20 -14 -11 -3 -20 -10 -20 -14 0 -4 -18 -16 -40 -26 -49 -22 -106 -17
-180 17 -30 14 -62 28 -70 32 -8 4 -24 12 -35 19 -59 37 -103 63 -120 74 -11
6 -51 30 -88 53 l-69 42 -451 1 -452 1 433 3 c241 2 432 7 432 12 0 18 -39 21
-318 23 l-287 3 285 5 c226 4 279 7 255 16 -17 6 -41 21 -55 32 -14 12 -43 36
-64 54 l-39 33 -196 5 c-203 5 -213 11 -51 30 52 6 111 13 130 16 33 6 34 6
15 21 -16 12 -44 14 -154 10 -155 -6 -159 7 -5 18 57 4 104 10 104 13 -1 4
-26 27 -57 52 -31 25 -96 82 -144 128 l-87 82 -118 2 -119 2 113 3 113 4 -48
54 -47 55 -110 2 -111 2 98 3 c53 2 97 7 97 10 0 11 -83 114 -102 128 -14 9
-48 12 -126 9 -70 -2 -98 -1 -82 5 14 5 62 9 108 10 l82 1 -16 25 c-17 26 -35
29 -89 15z m-360 -50 c-27 -5 -133 -8 -235 -8 -102 0 -207 3 -235 8 -30 4 63
7 235 7 172 0 265 -3 235 -7z m374 -120 c-15 -4 -130 -10 -255 -13 -215 -5
-223 -5 -139 7 98 15 437 20 394 6z m-466 -227 c-56 -2 -151 -2 -210 0 -59 1
-13 3 102 3 116 0 164 -2 108 -3z m710 0 c-7 -2 -19 -2 -25 0 -7 3 -2 5 12 5
14 0 19 -2 13 -5z m-540 -30 c-13 -2 -35 -2 -50 0 -16 2 -5 4 22 4 28 0 40 -2
28 -4z m262 -3 c-3 -5 -27 -9 -53 -9 -42 1 -44 2 -17 9 45 11 77 11 70 0z
m123 -177 c-43 -2 -113 -2 -155 0 -43 1 -8 3 77 3 85 0 120 -2 78 -3z m2405
-10 c-7 -2 -21 -2 -30 0 -10 3 -4 5 12 5 17 0 24 -2 18 -5z m-153 -13 c-8 -5
-26 -9 -40 -9 l-25 1 25 8 c14 4 32 8 40 9 13 1 13 0 0 -9z m-1921 -24 c-18
-17 -484 -47 -554 -35 -5 1 49 9 120 19 112 15 446 27 434 16z m2167 -58 l29
-23 -70 -6 c-90 -8 -350 -11 -343 -3 7 6 281 52 324 53 19 1 43 -8 60 -21z
m-1966 -18 c-14 -4 -153 -8 -310 -8 -157 1 -267 4 -245 8 55 10 586 10 555 0z
m1808 -77 c-15 -2 -42 -2 -60 0 -18 2 -6 4 27 4 33 0 48 -2 33 -4z m-105 -10
c-7 -2 -19 -2 -25 0 -7 3 -2 5 12 5 14 0 19 -2 13 -5z m545 -28 c-9 -10 -351
-55 -406 -54 -32 1 -48 3 -37 6 11 2 43 11 70 20 28 8 79 19 115 23 74 8 266
12 258 5z m-665 -22 c-7 -2 -19 -2 -25 0 -7 3 -2 5 12 5 14 0 19 -2 13 -5z
m674 -119 c-3 -3 -12 -4 -19 -1 -8 3 -5 6 6 6 11 1 17 -2 13 -5z m183 -15
c-60 -40 -77 -44 -212 -49 -75 -3 -134 -3 -132 0 8 8 284 58 324 59 27 0 31
-2 20 -10z m-1995 -39 c-47 -12 -555 -12 -555 0 0 6 103 10 293 9 160 -1 279
-5 262 -9z m1495 1 c-30 -17 -453 -42 -660 -39 l-205 3 130 14 c72 7 173 17
225 21 137 10 528 11 510 1z m-1987 -38 c-62 -2 -164 -2 -225 0 -62 1 -12 3
112 3 124 0 174 -2 113 -3z m2000 -70 c-51 -2 -136 -2 -190 0 -54 1 -12 3 92
3 105 0 149 -2 98 -3z m585 0 c-65 -2 -171 -2 -235 0 -65 1 -12 3 117 3 129 0
182 -2 118 -3z m-2205 -30 c-51 -2 -135 -2 -185 0 -51 1 -10 3 92 3 102 0 143
-2 93 -3z m330 0 c-18 -2 -48 -2 -65 0 -18 2 -4 4 32 4 36 0 50 -2 33 -4z
m345 0 c-10 -2 -26 -2 -35 0 -10 3 -2 5 17 5 19 0 27 -2 18 -5z m465 0 c-7 -2
-21 -2 -30 0 -10 3 -4 5 12 5 17 0 24 -2 18 -5z m1245 -40 c-38 -2 -98 -2
-135 0 -38 2 -7 3 67 3 74 0 105 -1 68 -3z m-2363 -73 c-16 -4 -73 -8 -125 -8
-63 0 -85 3 -65 8 17 4 73 8 125 8 63 0 85 -3 65 -8z m770 0 c-149 -14 -248
-20 -243 -14 10 10 133 21 228 21 l95 0 -80 -7z m540 0 c-83 -15 -241 -32
-265 -28 -33 5 179 36 250 36 53 0 54 0 15 -8z m1090 5 c-42 -14 -560 -36
-800 -33 l-280 3 120 16 c94 13 212 16 545 17 234 0 421 -1 415 -3z m-278 -51
c-3 -3 -12 -4 -19 -1 -8 3 -5 6 6 6 11 1 17 -2 13 -5z m-1702 -39 c-5 -2 -129
-22 -275 -45 -214 -33 -286 -40 -374 -38 l-109 3 174 41 174 42 210 0 c116 0
206 -1 200 -3z m95 -41 c-195 -33 -276 -43 -345 -41 l-90 2 260 41 c155 25
294 42 345 42 81 0 72 -3 -170 -44z m690 35 c53 -11 62 -22 31 -38 -17 -10
-526 -32 -676 -30 -63 1 -47 5 150 39 235 40 398 50 495 29z m615 0 c-27 -4
-140 -15 -250 -24 -110 -8 -221 -17 -246 -19 -45 -5 -46 -4 -45 25 l1 29 295
-1 c196 -1 278 -4 245 -10z m376 -15 c-63 -19 -375 -55 -361 -41 11 11 171 39
265 46 139 11 146 11 96 -5z m-453 -29 c-7 -7 -209 -36 -222 -32 -6 2 30 9 79
16 50 7 95 14 100 16 16 5 49 6 43 0z m-450 -32 c-10 -2 -26 -2 -35 0 -10 3
-2 5 17 5 19 0 27 -2 18 -5z m-536 -40 c-95 -2 -248 -2 -340 0 -92 1 -14 3
173 3 187 0 262 -2 167 -3z m1657 3 c-8 -8 -175 -36 -205 -35 -35 2 127 37
175 38 19 1 32 -1 30 -3z m-2034 -31 c-5 -3 -118 -13 -250 -25 -211 -18 -622
-27 -588 -14 34 14 454 42 638 42 116 0 206 -1 200 -3z m1764 -19 c-5 -5 -183
-36 -202 -36 -22 1 22 21 66 29 44 9 143 14 136 7z m-1136 -23 c-7 -2 -19 -2
-25 0 -7 3 -2 5 12 5 14 0 19 -2 13 -5z m1207 -9 c0 -2 -21 -3 -47 -3 -46 2
-47 2 -13 8 33 7 60 4 60 -5z m-370 -11 c-19 -9 -141 -31 -270 -49 -209 -30
-257 -34 -435 -33 -223 1 -214 8 50 34 94 10 269 27 390 40 121 12 238 22 260
23 l40 0 -35 -15z m-772 -10 c-10 -2 -26 -2 -35 0 -10 3 -2 5 17 5 19 0 27 -2
18 -5z m-59 -7 c-2 -2 -40 -6 -84 -9 -51 -3 -65 -2 -40 2 43 9 131 14 124 7z
m-427 -16 c-36 -8 -217 -22 -192 -14 20 6 158 21 195 22 l30 0 -33 -8z m1527
-10 c-126 -19 -368 -36 -358 -25 15 15 242 43 354 43 l120 0 -116 -18z m-1869
4 c-64 -15 -366 -44 -451 -43 l-104 1 135 14 c74 7 171 17 215 22 77 9 236 13
205 6z m560 -34 c-14 -4 -45 -8 -70 -8 l-45 1 45 7 c25 4 56 7 70 8 l25 0 -25
-8z m1278 -57 c-15 -2 -42 -2 -60 0 -18 2 -6 4 27 4 33 0 48 -2 33 -4z m-1798
-69 c-74 -7 -136 -12 -138 -10 -7 8 126 23 198 23 64 0 54 -2 -60 -13z m1373
9 c-29 -2 -78 -2 -110 0 -32 2 -8 3 52 3 61 0 87 -1 58 -3z m610 0 c-13 -2
-35 -2 -50 0 -16 2 -5 4 22 4 28 0 40 -2 28 -4z m-1750 -20 c-7 -2 -21 -2 -30
0 -10 3 -4 5 12 5 17 0 24 -2 18 -5z m-90 -10 c-13 -2 -35 -2 -50 0 -16 2 -5
4 22 4 28 0 40 -2 28 -4z m903 -2 c-9 -14 -114 -39 -234 -56 -107 -14 -523
-22 -510 -10 3 3 84 10 179 16 96 5 242 20 324 33 159 25 250 32 241 17z m139
-1 c-16 -4 -43 -8 -60 -8 -25 -1 -27 1 -10 8 11 5 38 8 60 8 38 0 39 -1 10 -8z
m525 -6 c-29 -9 -78 -13 -135 -12 -89 3 -90 3 -45 14 25 7 86 12 135 12 l90 0
-45 -14z m-1682 -1 c-10 -2 -26 -2 -35 0 -10 3 -2 5 17 5 19 0 27 -2 18 -5z
m-90 -10 c-10 -2 -28 -2 -40 0 -13 2 -5 4 17 4 22 1 32 -1 23 -4z m1402 -13
c-14 -4 -47 -8 -75 -8 l-50 1 45 7 c25 4 59 7 75 8 29 0 29 0 5 -8z m509 -14
c-2 -2 -49 -6 -104 -9 -59 -3 -90 -2 -75 3 24 8 188 14 179 6z m-1670 -16
c-15 -4 -91 -10 -170 -13 -152 -6 -153 -2 -4 12 122 11 209 12 174 1z m-336
-27 c-7 -2 -21 -2 -30 0 -10 3 -4 5 12 5 17 0 24 -2 18 -5z m330 -20 c-7 -2
-21 -2 -30 0 -10 3 -4 5 12 5 17 0 24 -2 18 -5z m1567 1 c-25 -7 -420 -61
-416 -57 2 2 21 17 42 33 l39 29 175 0 c96 -1 168 -3 160 -5z m-885 -24 c-66
-10 -121 -17 -123 -15 -11 11 103 34 168 33 l75 0 -120 -18z m470 4 c-52 -41
-98 -55 -203 -64 -177 -15 -275 -20 -270 -14 20 19 375 89 473 93 l20 0 -20
-15z m-675 -20 c-54 -20 -94 -26 -244 -35 -98 -5 -180 -8 -182 -6 -10 10 331
65 406 66 l85 0 -65 -25z m-480 5 c-25 -11 -334 -24 -314 -14 10 5 219 20 309
23 30 1 30 1 5 -9z m563 -66 c-7 -2 -19 -2 -25 0 -7 3 -2 5 12 5 14 0 19 -2
13 -5z m342 -103 c-132 -21 -269 -39 -305 -38 -51 0 -28 5 110 24 96 14 216
31 265 38 50 8 108 14 130 14 22 0 -68 -17 -200 -38z m-417 25 c-5 -5 -283
-55 -308 -55 -8 0 1 10 20 23 28 18 55 23 135 28 55 3 113 6 129 7 16 1 27 0
24 -3z m752 -15 c-29 -10 -320 -43 -326 -37 -7 6 249 41 331 45 15 0 14 -2 -5
-8z m230 -16 c-64 -15 -188 -29 -179 -20 7 7 172 34 209 34 14 0 0 -6 -30 -14z
m-492 -61 c-10 -2 -26 -2 -35 0 -10 3 -2 5 17 5 19 0 27 -2 18 -5z m-298 -44
c-25 -4 -90 -7 -145 -7 -80 1 -90 2 -50 8 28 4 93 7 145 7 78 0 87 -1 50 -8z
m369 -23 c-7 -7 -236 -44 -319 -52 -168 -15 -11 16 245 49 48 6 79 7 74 3z
m-399 -16 c-8 -5 -31 -9 -50 -8 l-35 1 40 7 c59 11 61 11 45 0z"/>
</g>
</svg>
