<?xml version="1.0" standalone="no"?>
<!DOCTYPE svg PUBLIC "-//W3C//DTD SVG 20010904//EN"
 "http://www.w3.org/TR/2001/REC-SVG-20010904/DTD/svg10.dtd">
<svg version="1.0" xmlns="http://www.w3.org/2000/svg"
 width="1280.000000pt" height="859.000000pt" viewBox="0 0 1280.000000 859.000000"
 preserveAspectRatio="xMidYMid meet">
<metadata>
Created by potrace 1.15, written by Peter Selinger 2001-2017
</metadata>
<g transform="translate(0.000000,859.000000) scale(0.100000,-0.100000)"
fill="#9e9e9e" stroke="none">
<path d="M0 4295 l0 -4295 6400 0 6400 0 0 4295 0 4295 -6400 0 -6400 0 0
-4295z m9267 2713 c-4 -479 -7 -1235 -7 -1680 l0 -808 -1124 0 -1125 0 -3 33
-3 32 -192 3 -193 2 0 1645 0 1645 1327 0 1326 0 -6 -872z m2855 -808 l-2
-1680 -1365 0 -1365 0 0 1680 0 1680 1368 0 1367 0 -3 -1680z m-8742 1147 c0
-283 -3 -1034 -7 -1670 l-6 -1157 -1324 0 -1323 0 0 1670 0 1670 1330 0 1330
0 0 -513z m2817 -1154 l-2 -1668 -1358 -3 -1358 -2 6 1367 c3 753 8 1504 11
1671 l6 302 1349 0 1349 0 -3 -1667z m-2834 -1800 c4 -9 -14 -3546 -18 -3551
-1 -2 -593 -6 -1314 -9 l-1311 -6 0 1786 0 1787 1319 0 c726 0 1322 -3 1324
-7z m2834 -1775 l3 -1778 -1371 0 -1371 0 6 1208 c4 664 9 1465 12 1780 l6
572 1357 -2 1356 -3 2 -1777z m3057 -5 c-4 -978 -8 -1780 -10 -1782 -2 -2
-593 0 -1313 4 l-1311 8 0 1773 0 1774 1320 0 1320 0 -6 -1777z m2866 -12 l0
-1789 -902 4 c-1171 6 -1849 14 -1843 24 3 4 5 805 5 1779 l1 1771 1369 0
1370 0 0 -1789z"/>
</g>
</svg>
