<?xml version="1.0" standalone="no"?>
<!DOCTYPE svg PUBLIC "-//W3C//DTD SVG 20010904//EN"
 "http://www.w3.org/TR/2001/REC-SVG-20010904/DTD/svg10.dtd">
<svg version="1.0" xmlns="http://www.w3.org/2000/svg"
 width="1280.000000pt" height="851.000000pt" viewBox="0 0 1280.000000 851.000000"
 preserveAspectRatio="xMidYMid meet">
<metadata>
Created by potrace 1.15, written by Peter Selinger 2001-2017
</metadata>
<g transform="translate(0.000000,851.000000) scale(0.100000,-0.100000)"
fill="#9e9e9e" stroke="none">
<path d="M4225 7419 c-14 -18 -36 -49 -48 -70 -12 -21 -29 -39 -37 -39 -9 0
-21 -5 -28 -12 -18 -18 -14 3 8 42 l21 35 -32 -35 c-17 -19 -29 -28 -26 -20
15 44 17 55 6 33 -12 -23 -29 -31 -29 -14 0 5 12 24 28 43 21 26 16 23 -28
-14 -58 -51 -73 -58 -63 -31 4 11 3 14 -5 9 -7 -4 -12 -13 -12 -20 0 -8 -12
-21 -26 -31 -15 -9 -23 -11 -19 -5 4 7 -5 3 -21 -8 -30 -21 -74 -38 -74 -28 0
3 12 27 26 53 l27 47 -30 -25 c-17 -13 -28 -29 -26 -35 2 -6 -3 -17 -12 -24
-8 -7 -15 -9 -15 -5 0 4 -7 1 -17 -6 -15 -13 -15 -12 -4 9 6 12 16 22 21 22 6
0 10 5 10 11 0 6 -5 7 -12 2 -7 -4 -24 -9 -37 -11 -13 -2 -33 -10 -46 -18 -38
-25 -65 -26 -65 -3 0 11 -4 17 -10 14 -6 -3 -7 1 -3 10 5 13 7 14 14 3 7 -10
10 -8 15 9 3 12 22 29 42 38 33 14 34 15 7 9 -16 -4 -37 -7 -47 -8 -9 -1 -31
-13 -50 -27 -18 -14 -40 -29 -48 -34 -13 -8 -13 -7 0 10 13 17 13 18 0 10 -8
-4 -34 -23 -57 -42 -45 -36 -64 -43 -42 -16 9 10 -4 6 -33 -11 -45 -26 -47
-26 -43 -7 2 12 7 26 10 31 16 26 -6 5 -40 -37 -38 -49 -41 -35 -8 31 14 26
12 25 -24 -10 -21 -21 -37 -42 -36 -46 2 -4 -4 -5 -12 -2 -12 5 -12 10 2 32 9
15 26 38 37 52 12 14 -3 1 -33 -30 -50 -52 -76 -57 -52 -11 18 33 13 32 -31
-9 -24 -22 -46 -40 -51 -40 -9 0 0 41 19 89 8 19 13 36 10 38 -5 5 -56 -123
-56 -142 0 -8 -7 -15 -15 -15 -8 0 -15 -6 -15 -14 0 -7 -7 -19 -15 -26 -12
-10 -15 -10 -15 4 0 9 5 16 10 16 6 0 10 7 10 17 0 14 -2 14 -17 1 -24 -19
-74 -40 -81 -33 -3 3 -16 -2 -30 -11 -27 -18 -24 -6 12 36 l21 25 -29 -25
c-26 -22 -28 -23 -22 -5 9 28 -28 -19 -49 -61 -8 -18 -22 -35 -31 -38 -14 -5
-15 -4 -5 8 7 8 10 20 6 26 -5 7 -13 3 -23 -12 -8 -13 -26 -35 -40 -50 -14
-16 -22 -28 -18 -28 5 0 -10 -20 -32 -44 -22 -24 -48 -58 -56 -75 -9 -17 -19
-31 -22 -31 -11 0 31 68 64 103 20 20 31 37 26 37 -16 0 -53 -43 -108 -127
-28 -42 -60 -82 -70 -87 -11 -6 -30 -23 -43 -37 -13 -15 -35 -30 -50 -34 -76
-18 -227 -136 -274 -211 -31 -50 -17 -52 17 -3 40 59 135 141 203 178 32 17
61 31 65 31 12 0 -71 -114 -156 -215 -6 -6 -12 -4 -18 5 -8 12 -10 11 -10 -6
0 -12 -11 -29 -25 -38 -30 -20 -105 -113 -104 -129 0 -7 8 -1 17 13 26 38 104
121 110 116 2 -3 -7 -19 -22 -36 -14 -18 -24 -36 -20 -41 3 -5 0 -8 -6 -7 -10
3 -45 -54 -87 -143 -6 -13 -25 -51 -42 -83 -17 -32 -31 -68 -30 -80 1 -15 5
-11 16 17 9 20 20 37 26 37 14 0 0 -87 -22 -135 -30 -63 -34 -85 -35 -167 -1
-47 -6 -82 -13 -89 -23 -23 -26 0 -10 63 8 35 13 65 12 66 -6 7 -35 -101 -35
-129 0 -18 -11 -36 -33 -55 -47 -41 -102 -113 -93 -121 4 -4 13 1 19 12 6 11
30 40 54 65 l43 45 0 -30 c0 -17 -6 -39 -14 -50 -19 -28 -29 -65 -17 -65 5 0
12 14 16 30 4 17 11 30 16 30 6 0 8 -4 5 -9 -3 -4 -1 -23 5 -42 8 -28 6 -42
-12 -81 -29 -63 -35 -55 -10 11 25 63 18 68 -9 6 -38 -89 -63 -266 -40 -280 6
-4 10 13 10 44 0 59 7 81 24 75 8 -3 16 11 22 38 5 25 14 42 22 40 6 -1 12 7
12 17 0 11 5 23 10 26 15 9 12 -30 -4 -70 -9 -21 -11 -37 -5 -40 5 -4 9 -16 8
-28 0 -21 -1 -21 -9 -2 -7 17 -9 16 -9 -10 -1 -20 -13 -42 -42 -71 -29 -30
-41 -51 -45 -80 l-4 -39 29 50 c16 28 36 57 44 63 13 11 16 7 22 -27 7 -42 4
-50 -49 -135 -16 -26 -26 -49 -23 -52 2 -3 17 17 33 43 15 26 29 43 31 37 4
-13 -42 -155 -67 -204 -24 -47 -33 -80 -23 -80 5 0 15 19 23 42 16 45 47 69
35 27 -5 -20 -2 -19 21 10 l28 34 12 -28 c10 -24 7 -35 -27 -94 -40 -70 -61
-129 -40 -117 6 4 11 11 11 16 0 17 21 63 26 57 3 -2 -1 -20 -9 -38 -21 -53
-29 -89 -17 -89 5 0 10 7 10 16 0 9 11 25 25 36 14 11 25 27 25 36 0 9 10 28
21 42 l20 25 -6 -24 c-4 -13 -15 -42 -25 -64 -18 -39 -17 -72 2 -61 5 3 2 -10
-6 -30 -20 -48 -5 -46 28 4 14 22 28 40 29 40 2 0 -4 -26 -14 -57 -9 -32 -22
-77 -28 -100 -6 -23 -27 -61 -47 -84 -42 -50 -67 -96 -61 -112 2 -7 13 6 25
29 25 48 116 160 143 174 17 10 17 9 -1 -32 -22 -47 -25 -73 -10 -63 6 3 10
15 10 25 0 10 5 22 11 26 8 5 9 -14 4 -66 -5 -52 -4 -71 4 -66 6 4 11 22 11
41 0 19 5 37 10 40 6 4 10 -8 10 -29 0 -19 5 -46 11 -59 9 -20 6 -30 -21 -69
-18 -25 -30 -52 -28 -59 3 -9 14 2 27 26 l21 40 -6 -55 c-3 -30 -1 -66 5 -80
8 -20 10 -11 10 48 1 66 20 142 36 142 4 0 4 -13 0 -30 -4 -17 -2 -30 3 -30
17 0 21 -80 6 -115 -8 -19 -14 -45 -13 -57 0 -15 6 -7 17 24 12 34 21 45 30
39 10 -6 10 -14 2 -35 -5 -15 -9 -42 -9 -59 l2 -32 5 30 c4 26 5 28 12 10 8
-18 9 -18 9 5 1 14 6 32 11 40 11 17 15 -20 10 -99 -1 -24 3 -47 9 -51 9 -5 9
-14 1 -34 -13 -34 -13 -74 -1 -61 5 6 11 21 13 35 3 20 7 13 22 -32 l19 -57
29 40 c16 23 33 37 37 33 11 -13 29 -107 36 -182 2 -35 9 -71 15 -80 7 -12 8
0 4 41 -5 38 -3 57 4 57 12 0 21 -39 24 -114 2 -27 8 -51 14 -53 6 -2 24 16
40 39 l29 43 5 -82 c3 -45 9 -86 14 -90 5 -4 5 11 1 34 -7 46 19 118 35 93 6
-9 10 -8 17 5 8 14 12 8 19 -31 4 -27 8 -53 9 -59 0 -10 20 -35 28 -35 9 0 2
35 -8 42 -5 4 -6 10 -2 15 10 9 27 -15 27 -38 0 -9 -14 -34 -31 -55 -36 -45
-63 -94 -52 -94 5 0 18 17 30 38 l21 37 -3 -80 -4 -80 23 85 c12 47 27 94 34
105 18 31 15 -1 -7 -70 -10 -33 -16 -64 -13 -69 3 -5 9 -1 13 10 4 10 8 13 8
7 1 -21 21 -15 21 6 0 10 7 21 15 24 11 5 12 1 5 -19 -18 -46 -10 -49 24 -11
l33 37 7 -69 c3 -38 11 -82 16 -96 6 -14 10 -40 10 -56 0 -16 5 -29 10 -29 6
0 10 28 10 64 0 65 13 95 23 54 4 -12 9 -20 11 -17 3 3 1 22 -5 44 -8 28 -8
45 2 64 12 26 13 25 27 -29 8 -30 15 -70 16 -87 1 -40 11 -42 24 -5 l10 27 1
-25 c1 -14 10 -31 21 -38 22 -14 25 -9 10 18 -7 13 -6 28 4 52 10 22 16 28 19
18 3 -8 11 -32 17 -53 7 -21 14 -36 17 -34 2 3 -3 29 -11 58 -19 62 -19 69 -6
69 6 0 10 -6 10 -14 0 -8 4 -17 10 -21 5 -3 5 7 -2 25 -14 42 -2 51 15 10 12
-26 15 -29 21 -15 14 36 15 7 2 -45 -21 -83 -28 -152 -15 -144 8 5 9 -6 4 -35
-4 -27 -3 -41 4 -41 6 0 11 15 12 33 2 79 15 80 22 2 6 -85 14 -115 27 -115 5
0 4 15 -1 32 -5 18 -8 62 -8 98 1 36 4 52 6 35 2 -16 6 -46 9 -65 6 -34 6 -34
18 -12 12 23 13 22 24 -17 7 -22 18 -43 24 -47 8 -5 9 -1 4 12 -27 69 -31 155
-6 114 6 -10 10 -4 13 21 2 23 4 16 5 -23 2 -57 16 -84 26 -51 3 10 4 -3 2
-29 -2 -27 0 -48 5 -48 5 0 9 5 9 10 0 23 20 7 31 -25 7 -19 17 -35 21 -35 10
0 9 8 -1 35 -6 13 -2 33 12 60 16 30 22 35 25 22 2 -10 -1 -31 -7 -47 -5 -17
-6 -30 -1 -30 4 0 13 12 18 28 8 22 9 15 6 -33 l-4 -60 15 45 c14 44 14 44 10
-55 l-4 -100 15 65 c35 155 34 150 56 128 13 -13 18 -29 15 -44 -2 -13 0 -24
5 -24 5 0 14 -13 19 -30 6 -16 15 -30 20 -30 6 0 5 8 -1 19 -5 11 -10 28 -9
38 0 10 6 2 12 -17 10 -28 10 -48 -1 -99 -7 -38 -9 -68 -4 -73 5 -5 11 14 15
47 6 60 34 145 48 145 9 0 13 -44 10 -82 -1 -10 3 -18 8 -18 6 0 11 -21 11
-50 0 -30 4 -50 11 -50 7 0 9 11 6 30 -4 18 -1 34 7 43 7 7 22 29 32 47 l19
35 3 -32 c2 -18 -2 -42 -8 -53 -6 -12 -9 -24 -6 -27 3 -3 8 2 12 11 10 25 21
19 28 -14 3 -16 10 -30 15 -30 5 0 5 15 0 38 -13 57 -12 67 6 52 8 -7 15 -21
15 -31 0 -27 31 -99 42 -99 6 0 7 7 4 15 -3 8 -8 21 -11 28 -4 8 2 13 15 13
15 0 19 -5 14 -19 -4 -13 -2 -17 5 -13 6 4 11 0 12 -11 0 -10 5 -3 10 15 6 19
14 30 20 26 8 -4 9 4 4 26 -5 23 -4 30 4 26 6 -4 11 -16 11 -27 0 -10 6 -18
13 -16 8 1 11 -11 9 -43 -2 -25 1 -56 7 -70 8 -20 10 -11 10 48 1 71 14 118
30 108 4 -3 6 9 5 27 -2 24 0 21 9 -13 7 -25 15 -50 19 -56 4 -7 -1 -47 -12
-89 -11 -43 -19 -97 -19 -119 1 -31 5 -19 17 49 l16 90 7 -68 c4 -38 11 -72
15 -75 4 -4 4 20 1 53 -4 34 -3 72 0 85 6 22 7 23 14 4 4 -10 8 -39 8 -64 1
-32 4 -41 11 -30 10 17 23 8 25 -18 1 -21 32 -68 40 -61 2 3 0 19 -7 35 -9 25
-7 37 16 83 27 52 39 56 49 16 3 -11 5 -4 6 18 0 20 6 37 12 37 7 0 9 9 6 21
-5 17 -3 19 6 10 8 -8 8 -19 -1 -44 -8 -20 -9 -33 -2 -35 5 -2 10 -12 10 -23
0 -10 5 -19 10 -19 6 0 10 -7 10 -15 0 -16 30 -55 43 -55 4 0 3 9 -3 19 -13
25 -13 54 0 46 6 -3 10 -17 10 -30 0 -13 5 -27 10 -30 6 -3 10 -16 11 -28 0
-21 1 -21 9 -2 4 11 6 34 4 50 -4 29 -4 30 6 5 7 -14 8 -45 5 -72 -4 -26 -2
-54 3 -64 7 -12 11 8 14 69 2 50 10 92 18 102 11 14 15 9 32 -37 10 -29 18
-65 18 -80 0 -15 4 -28 9 -28 6 0 7 16 4 37 -8 48 14 36 23 -12 9 -49 23 -44
17 5 -4 25 -2 40 5 40 6 0 13 14 17 30 13 58 25 18 25 -80 0 -106 15 -200 32
-200 6 0 7 7 3 18 -12 28 -18 124 -9 131 5 3 14 17 20 31 l11 25 7 -33 c11
-47 21 -39 19 16 -2 46 -2 46 13 -18 8 -35 19 -69 24 -74 12 -12 12 10 1 39
-9 22 17 68 49 85 17 9 17 8 -1 -30 -21 -44 -23 -50 -10 -50 5 0 12 11 15 25
8 30 26 34 26 6 0 -11 4 -22 9 -25 5 -4 7 11 4 33 -3 21 -1 46 4 56 9 15 11
14 17 -9 4 -15 11 -24 16 -21 16 10 28 -36 20 -72 -5 -18 -4 -36 1 -39 5 -3 9
4 9 15 0 27 17 27 25 1 10 -30 25 -24 25 11 0 16 4 28 9 24 6 -3 12 12 14 32
2 21 2 8 0 -29 -3 -44 0 -68 6 -68 6 0 11 -7 11 -15 0 -29 17 -15 30 26 18 55
26 56 36 6 l8 -42 3 40 c10 132 26 161 31 59 4 -73 12 -84 12 -17 0 28 7 64
15 79 15 28 15 26 9 -37 -4 -45 -3 -69 5 -73 7 -5 11 3 11 23 0 26 3 30 22 27
17 -2 25 -13 33 -44 10 -41 25 -66 25 -42 0 9 3 10 13 1 8 -6 17 -8 20 -4 4 3
9 -2 13 -11 11 -28 24 -18 24 19 0 19 5 35 10 35 6 0 10 -16 10 -36 0 -31 2
-35 15 -24 9 7 13 23 10 43 -3 22 0 17 11 -16 8 -26 19 -45 23 -42 5 2 16 -13
26 -35 10 -22 22 -40 27 -40 5 0 4 10 -3 21 -6 13 -7 24 -2 28 5 3 17 17 26
31 l17 24 0 -37 c0 -21 -7 -54 -15 -74 -22 -52 -12 -51 24 4 17 26 31 41 31
32 0 -9 -10 -29 -22 -45 -13 -15 -17 -25 -10 -20 7 4 12 2 12 -6 1 -7 7 1 15
17 7 17 14 23 14 14 1 -8 -6 -24 -14 -35 -8 -10 -15 -15 -15 -10 0 6 -7 1 -16
-10 -15 -19 -16 -19 -10 1 6 19 5 19 -8 2 -7 -9 -40 -35 -72 -56 -84 -54 -176
-151 -144 -151 5 0 10 4 10 8 0 20 147 152 169 152 14 0 -45 -157 -73 -193
-15 -20 -64 -73 -109 -117 -44 -44 -77 -83 -74 -86 3 -3 33 23 66 58 73 77 87
55 15 -25 -49 -54 -81 -107 -65 -107 5 0 12 8 15 18 3 9 26 40 51 67 37 40 45
45 39 25 -9 -32 -75 -146 -109 -187 -51 -62 -115 -165 -109 -175 4 -5 19 12
33 39 30 55 82 126 88 120 2 -2 -9 -25 -23 -51 -33 -58 -57 -136 -43 -136 6 0
1 -13 -10 -29 -12 -16 -21 -34 -21 -40 0 -6 -20 -33 -45 -61 -25 -28 -55 -70
-66 -93 -12 -23 -39 -62 -61 -86 -21 -24 -36 -46 -34 -48 7 -8 100 98 101 115
1 17 55 104 55 89 0 -4 -10 -27 -22 -50 -12 -23 -24 -55 -26 -71 -3 -26 -26
-54 -119 -152 -7 -7 -13 -22 -13 -33 0 -34 -58 -173 -84 -200 -25 -27 -106
-149 -106 -161 0 -4 -21 -29 -46 -56 -47 -51 -85 -108 -103 -156 -16 -42 4
-33 33 14 29 50 83 115 67 82 -6 -12 -33 -54 -60 -93 -27 -40 -61 -102 -76
-139 -15 -37 -41 -82 -58 -100 -32 -34 -28 -45 6 -15 19 17 20 17 14 1 -4 -10
-2 -18 3 -18 4 0 11 13 15 29 6 28 42 61 71 65 8 1 21 11 29 22 10 14 14 15
15 4 0 -8 -26 -38 -57 -67 -41 -38 -51 -53 -36 -50 11 1 33 16 48 32 27 30 27
30 11 3 -9 -15 -16 -29 -16 -32 0 -10 194 -5 207 6 9 7 13 7 13 -1 0 -6 11
-11 25 -11 17 0 25 5 25 18 0 17 58 82 72 82 4 0 14 -22 23 -50 9 -27 21 -50
26 -50 12 0 12 1 -7 45 -8 21 -17 51 -20 69 -8 50 -13 142 -7 128 3 -7 16 -24
30 -38 l26 -26 -7 39 c-6 37 -6 37 8 13 18 -30 20 -22 5 17 -15 38 -23 121
-11 108 10 -11 28 -77 37 -140 8 -53 25 -105 34 -105 4 0 -1 30 -10 67 -20 76
-24 117 -10 109 5 -4 11 0 14 6 2 7 12 -5 21 -26 24 -57 29 -39 6 22 -32 83
-39 126 -25 146 7 9 11 26 8 36 -3 12 0 20 6 20 7 0 11 -6 10 -12 -3 -14 41
-121 47 -115 2 2 -5 26 -16 54 -15 40 -16 52 -6 56 8 3 16 -13 25 -52 12 -58
38 -127 45 -120 3 2 -4 29 -14 59 -21 60 -26 105 -10 95 14 -9 12 12 -5 69 -8
27 -15 61 -14 75 0 14 7 -2 16 -36 8 -35 19 -63 24 -63 6 0 6 6 0 18 -7 13 -4
30 10 61 10 24 19 52 19 62 0 25 37 99 50 99 5 0 7 6 4 13 -6 16 74 107 94
107 8 0 12 3 9 7 -4 3 -1 13 6 22 6 8 -1 5 -17 -7 -46 -35 -59 -30 -51 20 4
24 12 49 18 56 7 9 6 11 -7 6 -10 -4 -16 -1 -16 7 0 23 17 42 30 34 7 -4 10
-1 8 10 -6 34 20 26 32 -9 6 -20 15 -36 20 -36 5 0 2 16 -6 35 -18 44 -17 55
3 30 14 -19 15 -16 9 42 -6 62 -1 93 14 93 5 0 11 -13 15 -30 4 -16 11 -33 17
-36 6 -4 8 1 4 15 -3 11 -9 30 -12 41 -3 13 -1 20 8 20 9 0 10 2 1 8 -6 4 -14
21 -18 37 -6 29 -6 29 10 10 16 -19 16 -19 10 10 -4 17 -8 36 -11 43 -7 23 7
12 17 -14 5 -15 12 -24 15 -21 3 3 1 14 -5 25 -17 31 -14 52 6 45 10 -4 14 -2
9 5 -3 6 -1 14 5 18 8 5 9 -8 4 -45 -5 -34 -3 -51 4 -51 6 0 11 17 11 38 0 20
5 44 10 52 7 11 10 6 10 -21 0 -50 16 -92 42 -108 19 -12 20 -11 13 6 -25 58
-44 122 -45 148 0 23 3 27 10 15 7 -11 8 -3 4 26 -11 70 11 57 40 -24 29 -83
42 -109 50 -101 3 3 -6 33 -19 66 -14 34 -27 83 -30 110 -3 26 -2 41 1 33 32
-76 45 -102 49 -98 3 3 -2 21 -10 41 -23 55 -19 84 13 102 l27 15 -27 -6 c-16
-3 -28 -2 -28 3 0 11 48 58 53 52 2 -2 8 -15 14 -29 11 -23 12 -22 10 15 -1
22 -6 44 -12 48 -7 6 -7 10 0 13 6 2 8 25 6 50 -2 29 0 44 7 40 5 -3 13 4 16
17 l7 22 9 -22 c8 -20 -2 -82 -18 -107 -8 -14 -2 -128 8 -146 6 -10 10 11 10
60 1 87 8 144 22 180 l11 25 8 -30 c5 -16 7 -38 5 -47 -3 -13 12 -28 29 -28 4
0 0 19 -8 40 -12 32 -17 70 -9 70 4 0 8 17 9 38 1 33 3 52 13 117 2 11 6 -23
10 -75 5 -52 13 -106 19 -120 11 -23 11 -22 6 10 -3 19 -8 62 -10 95 l-5 60
15 -68 c19 -93 34 -137 47 -137 6 0 7 7 3 18 -35 79 -60 302 -34 302 5 0 9 15
9 33 0 18 6 39 13 46 10 11 10 13 0 7 -8 -4 -13 -1 -13 8 0 30 27 16 43 -21
l16 -38 -5 45 c-3 25 -8 53 -10 62 -4 13 -1 16 10 12 12 -4 15 -2 10 9 -3 8
-1 17 3 20 5 3 15 -21 21 -53 7 -33 17 -62 22 -65 8 -5 4 126 -5 153 -2 6 -1
12 3 12 15 0 29 -16 41 -47 8 -18 18 -33 23 -33 5 0 4 9 -2 19 -5 11 -10 28
-10 38 1 14 4 13 15 -7 12 -22 14 -23 20 -7 4 9 4 28 1 42 -8 30 3 77 15 69 5
-3 9 -28 9 -55 0 -55 12 -84 44 -110 27 -22 31 -17 13 18 -12 23 -13 38 -4 83
10 51 12 53 18 25 4 -16 7 -61 8 -98 1 -43 5 -66 11 -62 6 4 8 24 4 48 l-6 42
21 -25 c12 -14 21 -40 21 -60 0 -19 5 -42 10 -50 7 -10 8 10 4 61 -4 48 -3 83
4 95 7 11 12 14 13 7 1 -7 3 -17 4 -23 1 -5 3 -44 4 -85 0 -41 5 -75 9 -75 5
0 6 38 4 84 -5 93 8 119 27 54 14 -45 41 -92 49 -84 3 3 0 12 -7 19 -9 12 -51
121 -51 135 0 2 7 2 15 -2 10 -3 16 1 17 12 0 9 2 22 3 27 2 6 3 16 4 24 0 8
4 11 8 7 4 -3 6 -30 6 -59 -1 -40 0 -45 6 -22 l7 30 7 -34 c4 -18 7 -49 7 -68
0 -19 7 -41 15 -50 21 -21 28 -11 15 19 -9 18 -9 36 0 66 15 58 21 52 14 -13
-9 -74 2 -70 17 6 12 59 13 60 26 38 9 -17 11 -44 7 -95 -4 -48 -2 -74 5 -78
7 -5 11 8 11 39 0 51 27 105 42 83 6 -11 10 -11 17 1 7 11 9 11 13 0 3 -8 8 0
12 18 4 17 14 34 22 37 20 8 18 -8 -11 -64 -14 -27 -25 -57 -24 -67 0 -10 10
5 23 32 21 47 23 48 29 25 3 -14 4 -36 0 -48 -4 -17 -2 -21 9 -17 20 8 30 -29
18 -61 -5 -13 -6 -24 -2 -24 4 0 15 21 24 47 9 27 24 57 32 68 15 19 15 18 16
-23 0 -29 -9 -59 -31 -97 -17 -30 -27 -55 -22 -55 4 0 19 20 32 45 31 59 54
62 32 3 -17 -46 -21 -78 -11 -78 5 0 10 12 11 28 l1 27 14 -30 c14 -30 14 -29
9 20 -3 28 -1 57 5 65 9 13 10 13 10 0 1 -9 6 -5 15 10 8 14 15 21 16 15 0 -5
5 1 9 15 7 23 8 23 9 3 1 -12 -8 -42 -19 -68 -11 -26 -20 -56 -19 -68 0 -21 1
-20 11 3 29 69 31 72 41 54 7 -11 6 -23 -2 -35 -13 -22 -14 -32 -2 -25 13 8
31 -41 31 -84 0 -23 5 -40 11 -40 7 0 9 12 5 34 -4 18 -3 44 2 56 7 20 10 16
15 -26 5 -49 24 -110 31 -103 2 2 -3 37 -11 78 -14 70 -14 77 2 108 10 18 21
33 24 33 4 0 5 -34 3 -75 -3 -54 -1 -75 8 -75 8 0 10 8 7 23 -3 12 -2 38 3 57
4 19 8 26 9 16 2 -35 46 -109 76 -128 24 -15 51 -18 143 -18 136 0 161 10 196
78 l25 47 1 -47 c0 -78 20 -55 21 25 l1 72 14 -70 c15 -77 44 -123 44 -70 0
27 1 28 14 9 9 -11 12 -31 9 -49 -8 -40 9 -23 23 23 l11 37 16 -39 c23 -53 30
-42 10 15 -11 29 -13 52 -8 65 7 17 8 17 12 2 3 -10 9 -18 14 -18 5 0 9 -13 9
-30 0 -16 4 -30 9 -30 5 0 14 -13 21 -30 7 -16 16 -30 20 -30 4 0 -3 26 -16
58 -26 62 -29 88 -14 97 6 3 10 -2 10 -12 0 -10 11 -38 25 -61 14 -24 29 -58
34 -75 8 -28 9 -25 10 30 1 34 5 65 11 68 5 3 17 -11 26 -32 13 -28 18 -33 21
-20 3 10 0 32 -6 49 -16 44 -12 69 4 33 8 -16 15 -66 15 -110 2 -86 5 -88 15
-12 5 40 9 46 21 36 8 -6 14 -21 14 -33 0 -11 5 -28 10 -36 7 -11 10 2 10 43
0 43 5 62 19 76 19 19 19 19 25 -15 4 -18 11 -36 16 -39 5 -3 5 9 -1 27 -12
43 -12 71 1 63 6 -4 8 -11 5 -16 -4 -5 -1 -9 4 -9 6 0 11 8 11 18 0 9 5 24 11
32 7 11 8 4 3 -25 -4 -22 -10 -44 -14 -50 -9 -12 -1 -75 10 -75 4 0 8 18 8 40
0 22 4 44 7 50 10 17 28 11 22 -7 -2 -10 -7 -25 -9 -33 -3 -8 -3 -12 -1 -7 11
19 21 4 13 -19 -9 -22 -8 -25 5 -20 8 3 15 1 15 -5 0 -6 8 -27 17 -46 14 -31
18 -33 24 -17 7 18 8 18 8 -2 1 -11 8 -29 17 -40 14 -18 15 -18 8 6 -24 86
-30 135 -15 125 6 -3 8 8 4 28 -3 19 1 46 11 67 16 34 16 34 10 5 -11 -51 -11
-128 0 -180 l11 -50 6 65 c5 60 6 58 7 -35 1 -55 7 -107 12 -115 7 -11 10 -3
11 30 1 57 4 79 13 108 7 22 8 22 22 5 13 -17 13 -16 14 6 0 24 0 24 15 5 13
-17 14 -16 8 20 -4 28 -3 37 5 32 7 -4 12 -2 12 4 0 7 5 7 13 -2 9 -8 13 -30
11 -63 l-4 -50 14 45 c8 25 14 37 15 27 1 -10 8 -26 17 -34 11 -11 15 -29 12
-55 -2 -21 -1 -38 2 -38 3 0 15 18 28 40 27 48 52 45 52 -6 0 -19 5 -34 10
-34 6 0 10 28 10 64 0 36 4 67 9 70 14 9 22 -24 11 -45 -14 -26 -3 -24 21 4
l20 22 -6 -41 c-8 -51 8 -66 26 -25 18 41 28 30 18 -21 -11 -59 -11 -98 1 -98
6 0 10 17 10 38 l0 37 21 -25 20 -25 -7 25 c-20 70 -22 90 -8 101 11 9 14 8
14 -2 0 -8 9 -3 20 11 l20 25 0 -35 c0 -26 3 -31 10 -20 14 22 24 -12 16 -55
-4 -22 -3 -35 4 -35 5 0 10 10 10 23 0 12 5 40 12 62 l11 40 9 -30 c6 -16 13
-59 17 -95 l8 -65 2 64 c0 35 4 61 8 57 4 -4 15 8 24 26 15 28 18 30 24 15 4
-10 3 -41 -3 -70 -9 -45 -8 -49 4 -32 8 10 14 28 15 39 0 15 4 10 13 -13 26
-74 13 -72 475 -71 260 0 420 4 432 10 37 20 49 63 49 175 l0 105 420 0 c453
0 463 1 487 52 28 57 19 102 -27 143 -21 19 -38 20 -451 23 l-429 3 0 404 0
405 429 0 c416 0 429 1 454 20 36 29 50 83 33 125 -28 67 -15 65 -488 65
l-428 0 0 113 c0 120 -8 148 -50 178 -23 18 -52 19 -419 19 -350 1 -392 2
-375 16 11 8 0 5 -24 -7 -23 -12 -59 -41 -79 -66 -26 -32 -38 -40 -44 -31 -7
10 -9 10 -9 -1 0 -8 -3 -12 -6 -8 -9 8 6 68 16 62 10 -6 35 23 27 31 -3 4 -20
-4 -36 -16 -19 -13 -31 -17 -31 -9 0 6 -11 0 -25 -15 -32 -35 -53 -34 -29 2
13 19 13 24 2 15 -8 -7 -18 -10 -21 -7 -3 4 -12 -5 -18 -20 -7 -14 -16 -26
-21 -26 -5 0 -1 14 7 31 9 17 15 33 12 35 -4 5 -57 -100 -57 -114 0 -5 -10
-17 -22 -28 l-21 -19 6 32 6 33 -27 -29 c-30 -33 -72 -50 -72 -30 0 7 7 21 17
31 35 39 -7 15 -48 -27 -48 -49 -129 -111 -129 -98 0 25 46 76 83 93 23 11 32
17 20 14 -36 -9 -27 4 18 26 23 12 38 24 35 27 -3 3 -26 -6 -52 -21 -58 -32
-60 -32 -39 2 10 16 0 8 -25 -18 -32 -35 -40 -40 -37 -22 3 12 1 22 -5 22 -5
0 -6 5 -3 10 4 6 11 8 16 5 5 -4 9 1 9 10 0 12 -14 4 -49 -25 -49 -41 -121
-83 -129 -75 -3 2 3 16 12 29 26 40 18 44 -14 7 -16 -19 -32 -32 -36 -28 -4 3
-15 -4 -26 -16 l-19 -22 11 23 c6 13 20 32 31 43 10 10 19 24 19 30 0 6 -12
-3 -26 -20 -31 -37 -44 -39 -44 -6 0 14 8 29 21 35 11 7 18 14 16 17 -3 2 -15
0 -26 -6 l-20 -11 19 45 c11 25 16 45 12 45 -4 0 -16 -21 -26 -48 -19 -47 -61
-102 -79 -102 -5 0 3 21 17 46 14 26 20 41 13 36 -7 -6 -24 -34 -37 -62 -13
-27 -27 -50 -32 -50 -5 0 -7 -4 -3 -9 3 -5 1 -12 -4 -15 -5 -4 -8 4 -6 16 4
32 22 75 34 83 6 3 11 11 11 17 0 6 -11 1 -25 -12 -28 -27 -33 -17 -9 20 l16
25 -19 -22 c-32 -39 -58 -78 -56 -85 1 -3 -5 -12 -15 -20 -15 -12 -16 -11 -3
5 17 22 3 22 -21 0 -20 -18 -35 -12 -22 9 4 7 9 21 9 30 1 14 -1 15 -12 6 -24
-20 -27 1 -4 26 21 22 21 24 4 20 -10 -3 -27 -18 -38 -35 -11 -16 -25 -29 -30
-29 -6 0 -16 -14 -24 -31 -10 -23 -16 -27 -22 -18 -6 11 -11 11 -21 1 -6 -6
-15 -12 -19 -12 -9 0 11 81 24 98 6 8 6 12 -2 12 -6 0 -11 -4 -11 -8 0 -12
-56 -52 -79 -55 -10 -2 -26 -9 -35 -16 -14 -12 -16 -10 -16 15 l-1 29 -15 -35
c-15 -35 -60 -79 -79 -79 -5 0 6 14 25 30 28 25 30 30 13 24 -16 -4 -23 -2
-23 7 0 8 -4 6 -11 -4 -10 -18 -29 -24 -29 -10 0 5 17 28 37 53 l37 44 -37
-34 c-20 -19 -37 -31 -37 -25 0 5 15 39 33 76 18 36 28 64 23 61 -4 -3 -25
-41 -45 -83 -33 -70 -39 -77 -56 -68 -24 14 -231 11 -257 -3 -26 -14 -32 -6
-18 20 6 12 8 21 5 21 -3 0 -23 -38 -44 -84 -31 -66 -46 -87 -72 -100 -42 -21
-45 -16 -11 20 43 46 59 72 25 40 -17 -15 -36 -25 -41 -22 -10 6 -23 -17 -27
-47 -1 -10 -9 -26 -18 -35 -16 -15 -17 -15 -17 0 0 9 7 24 16 32 9 9 11 16 4
16 -6 0 4 29 23 65 19 35 30 62 26 59 -5 -3 -25 -36 -44 -74 -19 -38 -54 -87
-77 -109 -24 -22 -44 -38 -45 -37 -4 4 37 116 53 148 8 15 12 28 9 28 -8 0
-78 -153 -99 -215 -14 -45 -21 -53 -63 -70 -26 -11 -75 -34 -110 -52 -68 -34
-76 -31 -40 14 42 52 49 63 44 63 -3 0 -30 -33 -60 -72 -59 -78 -97 -118 -97
-100 0 6 4 14 10 17 5 3 15 16 21 28 11 21 10 20 -15 -3 -23 -20 -26 -21 -20
-5 7 16 3 15 -27 -7 -19 -14 -42 -25 -51 -25 -24 0 -23 4 10 22 15 9 20 14 11
12 -9 -3 -22 -1 -29 3 -11 7 -6 15 18 38 18 17 32 34 32 38 0 4 -12 -4 -27
-18 -51 -47 -129 -73 -114 -38 13 34 40 62 67 70 27 9 28 9 4 9 -45 -2 -50 1
-50 27 0 14 4 23 10 19 6 -3 10 -2 10 4 0 5 -4 12 -9 16 -6 3 -10 13 -9 23 0
9 -3 29 -6 44 -5 20 -1 33 12 46 15 15 17 24 9 37 -8 15 -4 23 18 42 15 13 25
27 21 30 -3 3 -16 -2 -27 -13 -22 -19 -22 -19 -9 2 7 12 21 26 31 32 14 9 18
8 18 -6 -1 -26 32 -164 43 -185 18 -33 20 -10 3 38 -24 71 -31 165 -14 176 10
6 10 9 2 9 -21 0 -16 77 5 90 16 11 16 11 0 6 -29 -9 -21 10 20 44 28 24 30
28 9 15 -16 -9 -30 -15 -32 -13 -8 8 8 48 16 42 5 -3 6 8 3 24 -4 17 -1 32 5
36 6 4 11 12 11 17 0 6 -4 7 -10 4 -5 -3 -10 -2 -10 4 0 5 4 12 9 15 4 3 6 18
3 33 -3 16 -1 24 4 20 5 -5 9 -21 10 -35 1 -32 13 -62 24 -62 5 0 6 9 3 20 -3
11 1 28 8 37 10 12 10 14 2 9 -14 -8 -14 -8 -18 51 -1 23 2 40 7 37 4 -3 8
-11 8 -19 0 -8 5 -17 11 -21 8 -4 9 3 4 25 -4 20 -2 37 6 47 10 12 9 13 -5 8
-9 -4 -16 -1 -16 6 0 6 9 14 21 17 11 3 18 11 15 19 -3 7 20 36 52 65 31 29
46 47 34 40 -13 -7 -41 -28 -61 -47 -39 -34 -51 -35 -51 -2 0 12 4 16 12 12 8
-5 9 0 5 16 -3 13 -1 33 5 44 10 19 10 20 -5 7 -24 -20 -22 4 4 40 11 16 17
33 14 39 -4 6 13 20 37 31 39 18 20 21 -26 3 -27 -10 -19 22 11 46 l28 22 -28
-7 c-29 -8 -37 6 -14 25 46 39 62 50 79 56 11 3 17 8 14 11 -3 3 -26 -7 -51
-21 l-46 -27 7 28 c6 28 14 37 51 59 15 10 14 11 -11 7 -27 -5 -27 -4 -16 16
6 13 9 25 6 28 -3 4 -11 -8 -17 -25 -6 -18 -17 -32 -25 -32 -12 0 -13 4 -2 23
7 12 13 29 13 37 0 9 9 15 21 14 12 -1 30 13 48 37 l27 39 -26 -10 c-32 -12
-38 -13 -31 -1 4 5 1 11 -5 13 -6 2 5 27 26 57 19 30 29 48 20 41 -8 -7 -25
-29 -37 -48 l-22 -36 -10 33 c-6 20 -6 35 0 39 5 4 10 25 10 46 1 26 8 45 20
54 18 14 18 14 -3 9 -32 -7 -29 1 15 47 20 22 29 36 20 33 -19 -7 -23 2 -10
19 4 5 -6 -4 -21 -21 -16 -16 -26 -24 -22 -17 3 6 1 12 -6 12 -7 0 -1 12 13
28 l27 27 -19 53 c-18 50 -18 82 0 82 7 0 17 -36 22 -77 1 -7 5 -13 10 -13 9
0 7 20 -9 88 -3 12 0 22 6 22 6 0 11 -5 11 -10 0 -17 30 -84 35 -78 3 2 -3 24
-12 47 -14 37 -15 44 -2 52 11 7 11 9 -4 9 -14 0 -17 7 -15 39 1 22 4 38 7 36
3 -1 12 3 19 11 11 12 9 14 -12 14 -23 0 -24 2 -15 33 8 31 23 48 84 95 26 20
26 21 5 11 -14 -6 -40 -22 -57 -36 -26 -19 -33 -21 -33 -9 0 9 17 25 38 36 24
14 29 19 14 16 -19 -4 -21 -2 -11 10 10 12 9 13 -6 8 -15 -6 -16 -4 -6 14 15
29 14 37 -4 22 -18 -15 -20 0 -2 20 6 8 -5 -1 -25 -19 -27 -24 -38 -30 -38
-19 0 14 62 77 106 106 10 7 -7 -1 -39 -19 -32 -17 -61 -29 -64 -26 -2 3 9 13
25 21 17 9 34 21 38 27 4 8 0 7 -15 -1 -69 -36 -83 -2 -23 56 36 35 36 35 5
14 -22 -14 -33 -17 -33 -9 0 7 -6 4 -15 -7 -8 -10 -15 -14 -15 -8 0 5 11 25
25 44 26 35 28 40 20 40 -3 0 -17 -18 -31 -40 -15 -22 -28 -39 -30 -37 -2 2 1
19 6 39 8 26 20 40 45 52 19 10 35 19 35 21 0 6 -33 -6 -49 -19 -12 -9 -13 -7
-8 7 4 11 3 16 -3 12 -6 -3 -10 -12 -10 -19 0 -8 -11 -21 -25 -30 -31 -20 -31
-18 0 24 13 18 22 37 19 41 -3 5 2 6 10 3 8 -3 25 2 38 11 l23 17 -25 -6 c-24
-6 -23 -6 3 9 16 9 26 19 23 22 -3 3 -32 -10 -65 -30 -71 -44 -83 -46 -79 -9
2 20 9 28 27 30 13 2 26 12 28 23 3 10 12 19 21 19 8 0 12 3 9 7 -10 10 -57
-18 -50 -30 3 -6 1 -7 -5 -3 -19 11 -14 28 15 58 15 15 21 28 15 28 -7 0 -15
-7 -18 -15 -9 -22 -23 -18 -17 4 3 10 20 27 38 37 19 10 33 20 30 22 -2 2 -13
-1 -24 -8 -26 -14 -26 -6 0 31 11 16 18 29 15 29 -3 0 -19 -20 -36 -45 -17
-25 -39 -49 -50 -55 -31 -16 23 76 78 134 42 43 43 53 3 22 -8 -6 -26 -11 -40
-12 -14 0 -35 -4 -45 -9 -14 -6 -17 -5 -12 3 13 22 -6 12 -26 -13 -23 -30 -38
-32 -33 -5 6 31 13 38 45 45 16 4 32 11 35 16 4 5 -6 4 -21 -1 -15 -6 -28 -9
-30 -7 -6 5 25 65 37 72 5 4 9 12 9 18 0 14 -44 -37 -66 -76 -8 -16 -18 -27
-20 -24 -11 11 48 98 112 164 39 40 70 73 68 73 -2 0 -35 -27 -73 -60 -76 -65
-104 -80 -53 -27 29 30 30 33 11 33 -14 0 -30 -14 -45 -38 -25 -40 -40 -50
-30 -20 5 14 4 14 -9 -2 -8 -11 -15 -23 -15 -28 0 -4 -9 -17 -20 -28 -23 -23
-28 -15 -6 9 8 9 16 29 18 44 3 17 15 35 34 47 16 11 24 20 17 20 -6 0 -15 -4
-18 -10 -3 -5 -14 -10 -23 -10 -13 0 -12 5 8 20 14 11 20 20 14 20 -12 0 -42
-30 -44 -45 -1 -5 -4 -12 -7 -15 -4 -3 -3 1 1 8 4 6 3 12 -3 12 -22 0 3 32 45
56 44 26 57 38 29 28 -27 -11 -16 5 22 31 37 25 39 34 4 15 -35 -18 -81 -22
-81 -6 0 8 5 18 10 21 6 3 10 11 10 17 0 6 -9 3 -19 -6 -11 -10 -18 -23 -15
-30 2 -6 -2 -20 -10 -31 -13 -17 -15 -18 -16 -3 0 9 4 19 10 23 5 3 7 12 4 20
-3 8 -2 20 2 27 5 7 9 19 10 27 2 7 13 25 26 39 13 15 15 20 6 13 -22 -16 -23
-2 -3 25 17 22 20 38 5 29 -6 -4 -17 -23 -26 -43 -16 -39 -42 -72 -56 -72 -5
0 -6 6 -2 12 5 7 -5 3 -21 -10 -15 -12 -30 -20 -33 -18 -10 10 35 72 62 84 15
8 25 16 23 19 -3 2 -14 0 -25 -6 -29 -15 -37 -14 -21 5 16 20 21 44 8 44 -5 0
-2 12 8 28 l17 27 -32 -29 c-17 -16 -35 -27 -38 -23 -4 4 -14 1 -22 -6 -13
-10 -14 -9 -3 11 7 13 15 21 18 18 8 -7 33 13 33 26 0 6 -7 4 -17 -3 -9 -8
-18 -13 -20 -11 -1 1 -5 1 -8 1 -3 -1 -13 -2 -23 -3 -11 0 -27 -8 -37 -16 -17
-14 -17 -13 0 14 11 17 21 24 23 16 3 -7 9 -2 16 12 7 12 17 22 23 21 6 -1 23
12 39 29 l29 31 -40 -23 c-22 -12 -57 -36 -77 -52 -35 -26 -38 -27 -38 -9 0
10 12 29 28 40 l27 21 -30 -12 c-16 -7 -35 -20 -42 -28 -8 -9 -12 -10 -13 -3
0 6 16 28 35 47 42 44 44 52 8 29 l-28 -17 20 24 c11 14 27 30 35 37 8 6 24
19 35 28 19 16 19 16 -7 1 -32 -19 -48 -20 -48 -5 0 5 4 7 10 4 5 -3 7 0 4 9
-3 8 0 16 8 19 7 2 2 2 -11 0 -21 -4 -23 -2 -12 11 8 9 10 16 7 16 -10 0 -136
-67 -152 -81 -21 -17 -18 14 6 61 11 22 18 40 14 40 -3 0 6 17 22 38 30 40 16
33 -43 -22 -39 -35 -49 -31 -28 11 18 36 30 46 70 62 l30 11 -29 -6 c-27 -5
-28 -4 -15 13 13 17 13 17 -5 3 -10 -8 -26 -15 -35 -15 -9 0 -17 -6 -17 -12
-3 -26 -5 -28 -14 -13 -6 9 -5 20 3 30 9 13 9 13 -3 2 -8 -7 -16 -17 -16 -23
-1 -5 -2 -12 -3 -16 0 -4 -8 2 -16 13 -12 16 -14 16 -15 3 0 -15 -40 -60 -40
-45 0 13 41 61 53 61 5 0 12 6 15 13 2 6 -1 12 -8 12 -6 0 -8 5 -5 10 3 6 2
10 -2 10 -12 0 -10 41 1 60 5 8 -3 4 -17 -9 -15 -13 -29 -32 -32 -42 -6 -18
-72 -55 -82 -45 -3 3 -2 13 2 23 5 10 7 23 6 30 -1 7 5 29 14 49 20 49 19 61
-5 33 -13 -16 -19 -19 -20 -10 0 8 10 26 22 40 13 14 4 8 -20 -14 -23 -21 -42
-36 -42 -33 0 21 34 65 62 80 30 16 31 17 9 18 -20 0 -21 2 -11 15 8 10 9 15
2 15 -6 0 -17 -11 -24 -24 -14 -26 -111 -106 -128 -106 -5 0 -10 8 -10 18 0
16 61 61 104 76 10 3 17 9 14 12 -3 3 -29 -4 -59 -15 -29 -11 -54 -19 -57 -17
-7 8 75 89 123 122 60 41 52 45 -13 7 -26 -15 -48 -27 -49 -25 -8 7 -23 0 -23
-12 0 -7 -7 -19 -16 -26 -13 -12 -14 -10 -3 16 7 16 21 41 32 57 10 15 16 27
13 27 -3 0 -16 -16 -30 -36 -23 -34 -73 -70 -84 -60 -2 3 11 15 29 26 21 13
26 19 12 15 -28 -8 -35 5 -23 45 5 19 8 36 5 38 -3 3 -8 -9 -11 -26 -7 -35
-34 -66 -34 -39 0 9 5 19 10 22 6 3 10 16 10 28 0 19 -4 16 -21 -13 -11 -19
-32 -43 -46 -54 -25 -18 -25 -18 -14 2 6 12 15 23 20 26 5 4 8 14 6 24 -1 9 7
22 19 29 12 7 15 12 7 13 -7 0 -29 -10 -49 -22 l-35 -21 18 26 c9 15 21 25 25
22 5 -3 12 0 16 6 4 8 3 9 -4 5 -22 -14 -12 8 21 43 17 20 23 28 11 18 -11 -9
-25 -17 -31 -17 -5 0 -22 -13 -36 -30 -15 -16 -32 -30 -37 -30 -6 0 -10 -6
-10 -14 0 -16 -28 -42 -36 -33 -3 3 4 23 15 45 l21 41 -31 -9 c-26 -8 -29 -6
-25 8 3 9 8 31 12 47 4 17 13 42 21 57 l13 28 -36 -25 c-39 -26 -67 -34 -46
-13 17 17 15 29 -3 22 -8 -4 -15 -12 -15 -19 0 -15 -49 -65 -64 -65 -6 1 0 10
14 22 20 17 21 20 5 14 -11 -4 -29 -9 -40 -11 -19 -4 -19 -3 -1 8 10 7 30 22
44 35 21 19 47 27 74 24 3 -1 11 5 18 13 10 12 6 12 -22 5 -18 -4 -50 -11 -71
-15 -21 -3 -35 -10 -32 -15 3 -5 0 -12 -6 -16 -8 -4 -9 -3 -5 5 4 6 0 14 -8
17 -14 5 -14 10 -1 40 8 19 12 34 10 34 -6 0 -39 -64 -37 -71 0 -4 -8 -15 -18
-24 -11 -10 -20 -13 -20 -7 0 6 5 14 10 17 6 3 10 10 10 16 0 5 -9 4 -19 -3
-10 -6 -17 -17 -15 -23 3 -6 -4 -20 -16 -30 -18 -16 -20 -17 -20 -1 0 9 6 19
14 22 9 3 13 14 10 27 -3 16 6 30 28 50 24 21 27 25 10 17 -22 -11 -23 -10
-17 12 4 12 16 38 27 56 11 17 17 32 14 32 -2 0 -21 -26 -41 -59 -39 -64 -85
-96 -85 -61 0 22 33 60 52 60 6 0 9 3 5 6 -3 3 -26 -3 -51 -15 -51 -22 -53
-22 -30 17 15 25 14 24 -7 -3 -13 -16 -24 -32 -24 -35 0 -11 -17 -30 -26 -30
-10 0 6 33 31 63 14 17 13 18 -15 11 l-30 -7 34 32 c19 17 29 31 21 31 -9 0
-8 7 6 22 10 13 -8 -4 -41 -37 -43 -43 -68 -60 -86 -60 -22 0 -25 3 -19 20 11
30 40 32 33 3 -4 -20 -3 -20 10 4 26 47 29 54 15 37 -9 -11 -19 -14 -33 -8
-11 4 -15 8 -10 8 6 1 4 5 -2 9 -10 6 -9 17 6 45 10 20 15 37 11 37 -4 0 -13
-14 -21 -31 -18 -45 -58 -89 -80 -89 -20 0 -26 15 -9 25 6 3 10 14 10 23 -1
16 -1 16 -11 0 -12 -22 -29 -23 -29 -3 0 8 3 14 8 14 4 -1 10 0 15 1 4 1 10 3
15 4 4 0 21 12 37 25 28 22 29 23 5 16 -60 -20 -74 -9 -54 39 5 13 4 17 -3 13
-6 -4 -14 -19 -18 -34 -9 -36 -23 -53 -44 -53 -10 0 -12 3 -5 8 16 11 27 45
11 37 -6 -4 -1 2 13 14 24 20 24 20 2 14 -12 -3 -25 -9 -28 -14 -3 -5 -10 -9
-15 -9 -6 0 -7 6 -3 13 5 6 -8 0 -27 -15 -50 -37 -63 -24 -35 35 13 26 22 47
19 47 -2 0 -17 -22 -33 -48 -16 -27 -35 -49 -42 -49 -7 0 -24 -3 -36 -7 -22
-7 -23 -6 -17 16 4 12 16 39 27 58 18 33 17 33 -27 -12 -26 -27 -51 -48 -56
-48 -6 0 -8 -4 -4 -9 3 -5 1 -12 -4 -15 -24 -15 -20 19 5 47 l29 30 -32 -22
c-38 -26 -41 -19 -13 27 11 17 16 32 12 32 -5 0 -18 -18 -30 -39 -26 -46 -82
-82 -82 -52 0 21 18 44 45 60 19 11 19 12 -3 6 -22 -6 -23 -5 -12 17 10 21 9
21 -12 -3 -22 -25 -68 -48 -68 -34 0 11 53 99 73 123 11 12 18 22 15 22 -4 0
-18 -14 -33 -31z m-167 -126 c-15 -35 -26 -48 -34 -41 -7 8 27 68 38 68 4 0 2
-12 -4 -27z m-450 -33 c-19 -26 -24 -29 -27 -14 -2 10 7 26 19 36 32 26 36 15
8 -22z m142 6 c0 -2 -8 -10 -17 -17 -16 -13 -17 -12 -4 4 13 16 21 21 21 13z
m220 0 c0 -2 -8 -10 -17 -17 -16 -13 -17 -12 -4 4 13 16 21 21 21 13z m-210
-26 c-6 -11 -13 -20 -16 -20 -2 0 0 9 6 20 6 11 13 20 16 20 2 0 0 -9 -6 -20z
m815 10 c-3 -5 -11 -10 -16 -10 -6 0 -7 5 -4 10 3 6 11 10 16 10 6 0 7 -4 4
-10z m-773 -22 c-7 -7 -12 -8 -12 -2 0 14 12 26 19 19 2 -3 -1 -11 -7 -17z
m-102 9 c0 -2 -10 -12 -22 -23 l-23 -19 19 23 c18 21 26 27 26 19z m817 -22
c-15 -14 -33 -25 -40 -25 -7 0 2 11 18 25 39 32 58 32 22 0z m-1303 -26 c-28
-31 -37 -22 -13 13 13 18 25 26 27 19 2 -7 -4 -21 -14 -32z m747 18 c-10 -9
-11 -8 -5 6 3 10 9 15 12 12 3 -3 0 -11 -7 -18z m349 20 c0 -2 -10 -12 -21
-23 -22 -19 -22 -19 -8 4 12 19 29 30 29 19z m-970 -15 c0 -5 -7 -17 -15 -28
-15 -19 -16 -19 -13 1 3 23 28 47 28 27z m371 -15 c-10 -9 -11 -8 -5 6 3 10 9
15 12 12 3 -3 0 -11 -7 -18z m689 14 c0 -5 -7 -12 -16 -15 -14 -5 -15 -4 -4 9
14 17 20 19 20 6z m-480 -5 c0 -2 -8 -10 -17 -17 -16 -13 -17 -12 -4 4 13 16
21 21 21 13z m-337 -21 c-3 -9 -8 -14 -10 -11 -3 3 -2 9 2 15 9 16 15 13 8 -4z
m-293 -15 c-20 -13 -33 -13 -25 0 3 6 14 10 23 10 15 0 15 -2 2 -10z m1024
-15 c-4 -8 -11 -15 -16 -15 -6 0 -5 6 2 15 7 8 14 15 16 15 2 0 1 -7 -2 -15z
m-1124 -20 c-7 -8 -17 -15 -23 -15 -5 0 -2 9 8 20 21 23 35 19 15 -5z m80 11
c0 -3 -4 -8 -10 -11 -5 -3 -10 -1 -10 4 0 6 5 11 10 11 6 0 10 -2 10 -4z
m1330 -16 c0 -5 -4 -10 -10 -10 -5 0 -10 5 -10 10 0 6 5 10 10 10 6 0 10 -4
10 -10z m90 7 c0 -2 -10 -12 -22 -23 -12 -10 -18 -13 -14 -6 4 7 2 12 -6 12
-9 0 -9 3 2 10 15 9 40 14 40 7z m-1747 -22 c-3 -9 -8 -14 -10 -11 -3 3 -2 9
2 15 9 16 15 13 8 -4z m117 11 c0 -10 -32 -36 -43 -36 -7 0 -1 9 13 20 26 21
30 23 30 16z m1760 -51 c-6 -15 -13 -26 -16 -23 -2 3 0 18 6 33 6 15 13 26 16
23 2 -3 0 -18 -6 -33z m-1807 -7 c-2 -4 -10 -2 -17 5 -8 6 -12 15 -9 19 2 4
10 2 17 -5 8 -6 12 -15 9 -19z m1765 -22 c-12 -25 -26 -46 -30 -46 -12 0 -10
13 9 39 9 14 11 21 5 17 -7 -4 -12 -3 -12 3 0 11 41 43 47 37 2 -2 -6 -24 -19
-50z m135 24 c-6 -21 -28 -27 -38 -11 -3 6 3 14 12 20 26 15 32 13 26 -9z
m-1932 -17 c-16 -28 -52 -69 -50 -58 4 26 -3 28 -21 5 -19 -24 -19 -24 -13 -2
6 25 51 65 63 57 5 -3 11 -1 15 5 11 18 16 11 6 -7z m1671 -35 c-7 -7 -12 -8
-12 -2 0 14 12 26 19 19 2 -3 -1 -11 -7 -17z m248 17 c0 -2 -10 -10 -22 -16
-21 -11 -22 -11 -9 4 13 16 31 23 31 12z m44 -10 c-4 -8 -11 -15 -16 -15 -6 0
-5 6 2 15 7 8 14 15 16 15 2 0 1 -7 -2 -15z m-1450 -32 c-9 -39 -30 -78 -36
-67 -5 9 29 94 38 94 2 0 1 -12 -2 -27z m1219 -3 c-5 -19 -23 -39 -23 -25 0 9
20 45 24 45 2 0 2 -9 -1 -20z m156 -29 c-21 -42 -39 -61 -39 -42 0 5 4 12 10
16 5 3 7 12 4 20 -5 13 33 61 42 52 3 -3 -5 -23 -17 -46z m-1168 2 c-10 -17
-10 -16 -11 3 0 23 13 41 18 25 2 -6 -1 -18 -7 -28z m1231 15 c-7 -7 -12 -8
-12 -2 0 14 12 26 19 19 2 -3 -1 -11 -7 -17z m-755 -10 c-3 -8 -6 -5 -6 6 -1
11 2 17 5 13 3 -3 4 -12 1 -19z m1057 7 c-4 -8 -11 -15 -16 -15 -6 0 -5 6 2
15 7 8 14 15 16 15 2 0 1 -7 -2 -15z m-1134 -9 c0 -3 -4 -8 -10 -11 -5 -3 -10
-1 -10 4 0 6 5 11 10 11 6 0 10 -2 10 -4z m437 -18 c-3 -8 -6 -5 -6 6 -1 11 2
17 5 13 3 -3 4 -12 1 -19z m-1695 -10 c-7 -7 -12 -8 -12 -2 0 14 12 26 19 19
2 -3 -1 -11 -7 -17z m955 7 c11 -12 13 -27 8 -63 -3 -26 -2 -58 4 -72 8 -22
10 -19 11 25 0 58 19 45 21 -15 l1 -35 10 39 11 40 11 -34 c14 -41 36 -52 36
-17 0 14 7 28 16 31 13 5 15 1 12 -24 -7 -44 7 -37 22 13 l13 42 12 -65 c12
-63 30 -120 39 -120 2 0 4 16 4 36 0 38 22 75 22 39 1 -11 8 -31 16 -45 l15
-25 -5 32 c-5 29 17 77 61 132 2 3 9 -1 15 -7 9 -9 8 -20 -5 -47 -20 -41 -20
-45 -8 -45 5 0 14 14 21 31 10 22 15 27 21 17 6 -9 9 -8 9 7 0 16 4 14 23 -12
19 -29 48 -49 32 -23 -3 5 2 19 13 30 19 20 19 20 15 -25 -3 -25 -11 -58 -19
-73 -7 -15 -14 -34 -14 -42 1 -8 8 -1 17 15 22 41 21 41 38 19 14 -18 14 -18
15 8 0 33 20 48 21 16 1 -23 1 -23 9 2 4 14 11 37 14 52 4 19 11 26 21 22 9
-4 15 0 15 10 0 9 5 16 10 16 6 0 10 11 10 24 0 13 8 30 17 37 15 12 16 12 9
-6 -15 -40 -19 -114 -7 -129 8 -9 10 -28 5 -50 -5 -29 -3 -36 9 -36 8 0 18 -6
20 -12 3 -7 6 10 6 39 1 28 6 55 11 58 6 3 10 15 10 26 0 10 4 19 9 19 4 0 6
-31 4 -69 -2 -42 0 -72 6 -76 7 -4 11 8 11 32 0 60 10 86 26 72 8 -6 12 -15 9
-19 -3 -5 -1 -11 5 -15 5 -3 10 -1 10 5 0 6 5 8 10 5 6 -3 10 -1 10 5 0 6 5 8
11 4 10 -6 7 -60 -8 -121 -3 -14 -1 -23 6 -23 6 0 11 13 11 29 0 16 6 40 13
54 14 26 14 26 31 -28 9 -30 22 -57 28 -61 8 -5 9 -1 3 12 -12 29 -11 67 2 71
7 3 9 -4 5 -19 -5 -20 -3 -21 11 -10 14 12 16 8 22 -32 4 -25 13 -51 21 -57 8
-6 14 -17 14 -24 0 -7 9 -23 21 -36 18 -21 20 -21 13 -4 -39 104 -55 162 -51
188 l3 32 8 -32 c10 -40 29 -45 20 -5 -4 21 -3 23 5 12 8 -11 9 -5 4 23 -4 24
-2 37 6 37 6 0 11 -5 11 -10 0 -6 10 -24 21 -40 15 -20 20 -36 15 -54 -5 -22
-3 -26 14 -26 15 0 20 -7 20 -29 0 -16 5 -31 11 -33 6 -2 -1 -27 -17 -61 -14
-32 -24 -61 -21 -63 3 -3 16 19 30 48 14 29 32 62 41 73 14 19 15 15 16 -55 1
-63 3 -70 12 -47 5 15 14 27 19 27 5 0 9 10 10 23 1 17 3 15 10 -10 5 -18 14
-32 19 -30 14 3 51 -81 39 -88 -14 -9 -11 -25 5 -19 8 3 16 -4 20 -20 8 -31
22 -34 31 -6 11 34 24 22 19 -17 -4 -36 -4 -37 7 -10 17 42 32 33 25 -15 l-6
-43 25 53 c27 57 38 66 33 25 -2 -14 2 -28 9 -30 7 -3 11 4 10 14 0 11 9 36
22 57 33 53 48 33 26 -33 -9 -28 -15 -61 -13 -73 3 -16 8 -4 17 34 18 72 27
89 41 68 8 -12 10 -9 10 13 0 15 4 27 9 27 6 0 6 -13 0 -32 -5 -18 -7 -45 -4
-59 4 -19 -4 -45 -29 -91 -20 -36 -36 -73 -36 -84 0 -10 12 7 27 39 14 31 29
57 33 57 11 0 22 -49 15 -60 -4 -6 -2 -10 4 -10 5 0 13 9 16 20 13 42 20 16
20 -80 0 -69 4 -103 13 -112 11 -11 12 -8 5 17 -10 38 -9 191 1 230 8 29 9 29
17 8 4 -12 4 -36 -2 -55 -5 -18 -8 -49 -8 -68 l2 -35 7 35 c9 45 19 23 22 -50
l3 -55 17 30 16 30 11 -28 c7 -19 8 -42 1 -70 -12 -54 -12 -67 0 -67 6 0 10
15 11 33 0 17 9 57 19 87 20 55 20 55 15 13 -3 -23 -1 -45 5 -48 6 -4 10 10
10 34 0 22 5 43 11 47 8 4 9 -3 4 -26 -5 -23 -4 -30 4 -26 8 5 11 -12 11 -53
0 -50 -6 -71 -36 -126 -20 -35 -34 -70 -32 -77 3 -7 17 14 32 47 21 46 29 56
36 45 6 -8 7 -27 4 -42 -3 -17 -1 -28 5 -28 6 0 11 8 12 18 0 10 3 12 6 5 9
-25 22 -13 13 12 -10 27 -3 58 11 49 15 -9 10 -78 -7 -113 -8 -17 -14 -37 -11
-44 2 -6 12 7 22 31 24 60 28 48 6 -23 -22 -72 -34 -155 -22 -155 4 0 11 22
14 50 7 62 28 130 39 130 15 0 8 -75 -12 -129 -12 -29 -19 -59 -17 -65 3 -6 8
-2 12 9 20 60 60 135 72 135 9 0 12 10 8 35 -2 19 0 37 5 40 6 4 10 11 10 16
0 6 -4 7 -10 4 -12 -7 -13 35 -2 51 9 13 42 26 42 16 0 -4 -7 -18 -16 -30 -8
-12 -12 -27 -9 -32 3 -6 3 -16 -2 -22 -8 -14 -7 -148 1 -156 3 -2 -1 -17 -10
-33 -8 -16 -11 -29 -7 -29 5 0 19 20 32 45 13 25 26 43 28 41 2 -2 -3 -28 -11
-57 -18 -60 -21 -113 -6 -104 6 3 10 18 10 33 0 15 9 45 20 67 l20 40 -5 -48
c-2 -26 -16 -69 -30 -95 -14 -26 -25 -54 -25 -62 1 -8 10 3 21 25 54 108 48
22 -10 -130 -46 -123 -51 -150 -21 -112 11 14 20 31 20 39 0 7 8 21 18 30 9 9
31 35 47 59 27 39 30 41 33 22 2 -15 -12 -43 -41 -80 -48 -62 -83 -123 -70
-123 5 0 20 21 35 48 15 26 37 58 49 72 18 21 20 22 15 5 -5 -18 -4 -17 14 4
25 30 25 15 0 -44 -22 -52 -27 -98 -5 -50 15 34 20 11 6 -28 -6 -14 -6 -49 -1
-83 5 -43 4 -63 -5 -74 -21 -26 -28 -46 -7 -23 14 16 22 19 31 10 8 -8 11 -5
11 14 0 14 5 30 12 37 9 9 9 12 0 12 -16 0 -15 29 3 60 13 23 14 16 11 -75 -2
-83 -7 -111 -30 -163 -15 -34 -29 -86 -32 -115 -4 -49 -3 -47 19 31 13 45 34
105 47 133 32 67 46 44 30 -49 -6 -37 -15 -91 -20 -119 -10 -57 -4 -203 9
-216 4 -4 6 39 3 96 -3 71 -1 106 7 111 8 5 11 -15 11 -69 0 -46 4 -74 9 -70
6 3 13 -10 16 -28 8 -39 -21 -102 -80 -175 -19 -24 -35 -51 -35 -60 0 -9 13 5
30 31 29 46 45 61 34 32 -4 -8 -1 -15 4 -15 6 0 14 16 18 35 3 19 10 38 16 41
11 7 0 -44 -16 -71 -7 -11 -16 -29 -19 -40 -7 -19 -6 -19 7 -2 12 15 14 7 18
-70 3 -60 1 -101 -9 -127 -7 -21 -16 -64 -20 -95 -3 -31 -16 -76 -29 -101 -13
-25 -24 -52 -24 -60 1 -8 10 2 21 23 22 43 33 49 19 11 -6 -14 -22 -66 -35
-115 -20 -71 -23 -94 -14 -110 8 -15 8 -33 0 -64 -6 -24 -11 -55 -11 -69 0
-26 21 -48 28 -28 2 7 8 10 13 6 5 -3 9 10 9 28 0 21 10 47 26 69 17 22 25 27
21 14 -3 -11 -13 -51 -22 -90 -9 -38 -24 -91 -32 -118 -8 -26 -13 -54 -10 -61
4 -9 -7 -25 -26 -39 -36 -27 -93 -104 -85 -113 3 -3 15 10 26 28 26 42 90 104
98 95 4 -3 -5 -34 -19 -69 -13 -35 -28 -83 -32 -108 -4 -25 -11 -49 -15 -55
-9 -13 -20 -45 -15 -45 2 0 15 19 29 43 23 38 26 40 27 17 1 -20 3 -17 13 14
10 30 14 36 19 22 4 -10 -1 -33 -12 -54 -10 -20 -25 -57 -32 -81 -8 -27 -34
-67 -71 -107 -32 -36 -58 -62 -58 -59 0 3 7 22 15 42 18 41 18 46 6 38 -5 -3
-19 -33 -30 -68 -12 -34 -29 -72 -39 -83 -16 -21 -112 -77 -119 -70 -8 7 20
63 45 90 l27 29 -32 -22 c-17 -12 -48 -40 -68 -64 -23 -27 -35 -35 -31 -22 8
36 16 90 10 78 -3 -6 -11 -33 -17 -60 -10 -39 -16 -48 -34 -48 -13 0 -29 -9
-37 -20 -9 -11 -16 -16 -16 -12 0 10 29 57 54 85 34 39 5 24 -55 -28 -46 -40
-56 -45 -52 -27 3 12 22 40 42 62 20 22 29 34 22 27 -8 -6 -19 -12 -24 -12 -4
0 -5 6 -2 12 4 7 0 5 -9 -5 -8 -10 -22 -17 -31 -15 -14 2 -12 12 16 63 l31 60
-43 -49 c-24 -27 -50 -62 -58 -78 -8 -16 -16 -26 -19 -24 -3 3 1 14 9 23 7 10
2 8 -12 -4 -33 -30 -45 -29 -25 2 19 28 21 39 5 29 -8 -4 -9 1 -5 17 4 15 0
11 -11 -10 -10 -19 -24 -37 -32 -39 -9 -3 -11 0 -6 9 5 8 -3 5 -16 -7 -54 -48
-70 -31 -23 25 32 38 22 40 -24 5 -30 -23 -33 -24 -23 -6 6 12 21 28 33 36 12
9 19 19 15 22 -4 4 -2 13 5 21 8 11 7 12 -6 7 -10 -4 -15 -13 -12 -21 3 -8 2
-11 -4 -8 -5 3 -19 -5 -31 -17 -12 -13 -18 -17 -14 -9 6 10 2 12 -16 6 -34
-10 -51 -29 -19 -21 21 6 22 5 7 -4 -24 -15 -59 -21 -52 -9 4 5 11 6 17 3 7
-4 8 -2 4 5 -9 14 -46 5 -63 -16 -6 -8 -21 -13 -33 -11 -17 2 -10 9 35 33 31
16 52 31 46 33 -5 2 -31 -9 -56 -23 -52 -31 -63 -16 -20 28 19 18 22 27 13 31
-10 5 -10 7 0 12 6 3 12 10 12 15 0 6 -21 -6 -46 -26 -53 -40 -84 -47 -41 -10
42 37 14 30 -42 -10 -57 -41 -74 -45 -41 -10 23 25 15 36 -8 13 -9 -9 -8 0 2
30 l15 42 -25 -16 c-30 -20 -107 -28 -98 -11 5 8 2 8 -7 0 -7 -7 -22 -13 -33
-13 -19 0 -19 1 -1 20 18 20 18 21 -1 14 -10 -4 -32 -18 -48 -31 -28 -23 -51
-24 -28 -1 18 18 14 32 -5 17 -29 -24 16 42 51 74 17 16 24 25 16 21 -8 -4
-25 -16 -37 -27 -13 -11 -26 -18 -29 -14 -4 3 -27 -8 -51 -24 -24 -17 -47 -29
-49 -26 -3 3 19 28 48 56 29 28 49 51 45 51 -5 0 -36 -26 -69 -57 -33 -32 -63
-58 -67 -58 -3 0 -5 -3 -4 -7 2 -5 -2 -8 -9 -8 -6 0 -20 -7 -30 -17 -17 -15
-18 -15 -18 1 0 10 9 31 21 47 11 16 17 29 12 29 -4 0 -1 4 7 10 8 5 12 11 9
14 -8 8 -23 -6 -74 -73 -50 -65 -62 -67 -51 -7 4 22 13 36 27 39 11 3 18 9 17
15 -4 12 46 53 112 90 30 18 51 32 46 32 -5 0 -42 -18 -83 -40 -40 -22 -73
-38 -73 -34 0 4 -7 1 -15 -6 -8 -7 -15 -8 -15 -3 0 14 37 46 47 40 4 -3 22 6
38 20 l30 25 -32 -16 c-37 -19 -47 -20 -38 -6 14 22 -6 8 -44 -31 -22 -23 -37
-47 -35 -54 3 -7 0 -16 -7 -21 -9 -5 -10 -2 -6 9 11 28 -10 19 -37 -15 -14
-18 -26 -28 -26 -21 0 6 12 26 27 45 15 18 20 27 13 21 -24 -22 -32 -14 -13
11 10 13 21 22 26 19 4 -2 6 1 5 8 -2 7 20 25 47 41 28 15 47 28 44 28 -13 0
-84 -32 -99 -45 -8 -8 -27 -18 -43 -24 l-27 -11 14 35 c8 19 12 35 8 35 -4 0
7 11 23 25 l30 25 -46 -4 c-25 -2 -51 -6 -58 -10 -21 -14 -11 23 11 38 19 14
20 16 5 16 -10 0 -23 -5 -30 -10 -34 -29 -140 -90 -123 -71 22 24 13 27 -24 8
-36 -19 -60 -27 -60 -21 0 3 28 19 63 35 60 28 47 31 -20 3 -40 -16 -43 -3 -7
33 28 28 26 40 -5 23 -12 -6 -21 -8 -21 -5 0 4 -14 -3 -31 -15 -16 -12 -32
-21 -34 -19 -5 6 69 126 96 157 18 20 19 23 4 12 -25 -19 -38 -34 -77 -92 -31
-48 -108 -109 -108 -86 0 6 -7 3 -15 -8 -8 -10 -15 -14 -15 -8 0 12 24 36 31
31 2 -1 18 12 36 30 35 37 29 44 -11 12 -15 -12 -29 -19 -32 -16 -7 7 74 75
116 97 52 28 27 24 -30 -5 -27 -14 -70 -46 -95 -72 -39 -41 -45 -45 -42 -24 2
13 12 31 23 39 18 14 18 14 -4 9 -20 -5 -21 -3 -11 9 7 9 29 24 48 35 41 23
15 19 -42 -5 -22 -10 -36 -13 -33 -7 3 5 1 11 -6 13 -6 2 5 14 25 27 39 24 51
39 18 21 -26 -13 -34 -13 -25 3 4 6 -17 -12 -46 -40 -30 -29 -59 -53 -66 -53
-6 0 -17 -7 -24 -15 -7 -9 -15 -13 -18 -10 -3 2 14 23 37 46 24 22 40 43 37
46 -3 3 -28 -11 -56 -31 -27 -20 -50 -32 -50 -28 0 13 50 56 100 87 25 15 36
24 25 20 -11 -4 -27 -7 -37 -7 -9 0 -24 -8 -34 -19 -9 -10 -22 -19 -28 -19 -6
0 22 32 63 72 l74 71 -69 -37 c-38 -21 -79 -47 -91 -59 -13 -11 -23 -15 -23
-9 0 7 5 12 11 12 5 0 7 5 4 10 -4 7 -11 7 -18 2 -7 -5 -21 -12 -32 -15 -17
-6 -17 -5 3 11 65 50 69 54 25 33 -23 -12 -46 -27 -50 -34 -4 -8 -19 -20 -33
-26 l-25 -12 25 20 c14 11 21 21 16 21 -17 0 18 31 58 51 l41 20 -35 -7 c-19
-3 -39 -10 -44 -15 -17 -15 -29 -10 -16 6 11 13 10 14 -6 9 -13 -5 -8 5 16 33
19 21 2 5 -37 -36 -40 -41 -73 -70 -73 -65 0 6 12 21 26 35 14 13 30 32 36 42
8 16 7 17 -11 7 -24 -12 -28 2 -6 20 9 7 13 15 10 18 -3 3 -15 -3 -26 -14
l-22 -19 22 42 c11 23 31 45 43 49 l23 8 -25 6 c-24 6 -24 7 18 33 23 15 42
30 42 33 0 11 -61 -32 -123 -87 -38 -34 -58 -46 -54 -34 7 20 7 20 -8 1 -8
-11 -15 -23 -15 -28 0 -4 -4 -8 -9 -8 -6 0 -6 12 0 30 6 17 15 30 21 30 5 0 6
5 2 11 -4 7 -9 7 -13 1 -3 -5 -17 -13 -31 -17 l-25 -8 25 21 c23 18 23 20 5
19 -11 -1 -24 -8 -28 -14 -4 -7 -17 -18 -28 -24 -20 -10 -20 -10 -3 18 l18 28
-34 -30 c-19 -16 -42 -39 -51 -50 -10 -11 -21 -16 -25 -12 -5 4 -2 12 6 17 8
6 11 10 5 10 -5 0 8 16 30 35 36 31 55 40 78 36 5 -1 6 3 2 9 -3 5 -1 10 4 10
6 0 11 -5 11 -11 0 -5 5 -7 11 -3 8 5 8 9 -1 14 -8 5 -4 9 11 13 13 4 20 9 17
12 -3 4 -24 -3 -47 -14 -54 -28 -60 -26 -27 8 33 34 20 49 -24 26 -20 -10 -30
-12 -30 -4 0 8 -4 9 -13 0 -8 -6 -18 -7 -22 -3 -5 4 -5 2 -2 -4 4 -7 -1 -18
-10 -25 -14 -12 -15 -11 -8 11 4 14 17 36 29 50 11 14 4 9 -17 -9 -21 -20 -37
-29 -37 -21 0 7 19 31 42 52 l42 39 -77 -41 c-42 -22 -77 -36 -77 -31 0 5 16
30 35 55 43 56 44 64 5 36 -16 -12 -30 -18 -30 -14 0 4 -11 -3 -25 -16 -14
-13 -25 -19 -25 -13 0 6 7 16 15 23 19 16 19 30 1 30 -7 0 -19 -13 -26 -30 -7
-16 -19 -35 -28 -42 -13 -11 -14 -10 -9 7 3 11 9 32 13 48 3 15 11 27 18 27 6
0 5 4 -3 9 -19 12 -7 28 35 41 19 7 33 14 31 16 -2 3 -16 0 -31 -5 -22 -9 -26
-8 -27 7 -1 15 -2 15 -6 0 -5 -21 -63 -43 -63 -24 0 7 9 21 20 31 11 10 18 20
15 23 -3 3 1 12 8 20 6 9 -14 2 -46 -16 -83 -44 -114 -22 -48 36 25 22 25 23
3 17 -21 -6 -21 -5 -11 19 7 14 21 28 32 32 14 4 16 9 8 17 -8 8 -14 8 -23 -1
-15 -15 -32 -16 -22 -1 3 6 -5 3 -20 -6 -15 -10 -29 -15 -32 -12 -7 7 45 47
62 47 7 0 16 4 19 10 4 7 -3 7 -20 0 -38 -14 -40 -13 -20 13 11 12 -5 -2 -35
-31 -29 -29 -55 -51 -57 -49 -2 2 0 21 5 42 7 35 14 42 72 73 36 18 54 30 40
26 -33 -9 -100 -42 -125 -62 -11 -9 -6 -2 10 15 17 18 57 48 89 67 79 48 61
46 -23 -1 -36 -21 -74 -38 -84 -38 -10 0 -21 -4 -25 -10 -4 -5 -14 -11 -22
-13 -9 -2 -3 9 13 26 16 16 37 29 49 28 11 0 27 10 37 23 l16 25 -30 -20 c-30
-19 -30 -19 -15 1 14 19 14 19 -5 4 -20 -17 -79 -49 -89 -49 -3 0 -3 15 0 33
6 31 6 31 -9 12 -14 -18 -16 -18 -17 -3 0 10 12 24 28 32 15 8 23 15 19 16 -5
0 -5 6 0 13 11 18 13 38 2 31 -5 -3 -7 -9 -4 -13 2 -5 -5 -17 -17 -27 -21 -19
-21 -19 -8 6 l13 25 -22 -19 c-11 -11 -21 -14 -21 -8 0 6 5 14 10 17 15 9 12
27 -2 19 -7 -4 3 8 22 25 21 19 26 28 14 22 -12 -6 -24 -7 -28 -4 -3 3 -6 1
-6 -5 0 -7 -5 -12 -10 -12 -7 0 -7 7 0 20 6 11 16 17 22 14 7 -4 8 -3 4 4 -4
7 3 17 18 23 14 7 27 18 30 25 7 18 3 18 -38 -6 -27 -14 -34 -16 -29 -5 3 8
11 15 18 15 6 0 20 10 31 23 19 22 19 22 -2 5 -32 -28 -50 -23 -30 7 19 28 15
31 -17 12 -39 -24 -61 -16 -64 22 -2 19 4 45 12 57 14 21 14 23 -1 17 -14 -5
-15 -3 -3 18 7 13 13 29 14 34 0 6 20 16 45 24 25 8 39 16 33 18 -7 3 -39 -3
-70 -13 -32 -10 -62 -18 -68 -19 -5 0 -9 -7 -7 -14 1 -7 -2 -9 -9 -6 -12 8 39
66 86 97 l30 20 -30 -6 c-28 -6 -29 -5 -11 9 25 19 9 19 -24 0 -35 -20 -46
-18 -27 3 25 27 21 37 -8 18 -24 -16 -25 -16 -25 5 0 12 8 28 18 36 9 8 11 12
5 8 -17 -8 -16 0 2 35 21 40 10 38 -15 -2 l-20 -33 5 50 c12 112 40 220 67
253 6 7 8 15 5 19 -4 3 -18 -18 -31 -47 -21 -44 -29 -54 -53 -56 -15 -1 -22 0
-15 3 7 3 17 14 24 26 11 21 10 21 -8 8 -10 -8 -30 -26 -43 -39 -12 -13 -25
-21 -28 -18 -12 12 10 43 49 69 40 27 38 28 -9 10 -14 -5 -12 1 7 22 14 16 18
24 10 20 -33 -18 28 40 69 67 25 15 41 28 35 28 -5 0 -32 -16 -61 -35 -41 -28
-52 -31 -57 -19 -3 8 2 27 11 42 15 23 15 25 1 14 -14 -11 -15 -9 -13 18 1 17
11 38 21 46 10 9 2 6 -19 -6 -45 -26 -55 -22 -27 12 10 14 16 29 12 32 -4 4
-2 6 3 5 6 -2 28 7 50 20 39 21 31 21 -27 -2 -21 -9 -31 -8 -40 1 -9 9 -6 17
12 37 18 19 20 24 7 19 -22 -8 -21 -2 4 49 l20 42 -30 -34 c-17 -18 -31 -31
-31 -27 0 9 29 55 54 87 12 14 1 5 -22 -20 -37 -39 -43 -42 -37 -21 7 25 30
50 95 104 41 33 22 24 -34 -16 -21 -15 -43 -28 -48 -28 -18 0 -6 27 24 53 18
16 27 25 19 21 -34 -18 -1 24 43 54 27 17 44 32 39 32 -4 0 -26 -12 -46 -26
-21 -14 -41 -24 -43 -21 -3 3 7 29 22 58 18 36 21 49 10 40 -9 -7 -16 -10 -16
-5 -1 5 -12 -4 -25 -21 -23 -28 -25 -28 -25 -8 0 33 39 71 96 93 l51 19 16
-40 c8 -21 20 -39 26 -39 8 0 7 9 -3 28 -20 39 -46 161 -35 167 4 3 4 17 -1
31 -11 29 -13 81 -3 71 3 -4 9 -24 13 -44 7 -34 8 -31 9 24 0 34 6 65 12 69 7
4 7 9 1 13 -5 3 -6 15 -1 26 5 14 8 15 8 4 1 -19 51 -123 56 -117 2 2 -4 26
-13 52 -13 38 -14 50 -5 53 10 4 10 10 2 25 -8 15 -7 22 6 32 14 10 15 16 4
38 -12 27 -7 58 9 58 5 0 17 -21 27 -46 21 -56 31 -53 11 4 -9 23 -11 42 -6
42 5 0 12 -9 15 -20 3 -11 11 -20 16 -20 12 0 11 6 -5 38 -20 39 -26 139 -7
128 5 -4 12 0 14 6 3 7 6 1 6 -14 1 -15 5 -29 9 -32 5 -3 7 23 5 57 l-3 62 15
-39 c8 -22 17 -42 20 -44 6 -6 -2 85 -10 118 -4 14 5 5 21 -22 15 -27 29 -46
32 -43 3 2 -6 29 -18 60 l-23 56 39 35 c27 24 31 32 14 22 -14 -7 -34 -20 -44
-28 -18 -14 -18 -14 -7 7 6 12 19 27 29 33 12 8 14 13 4 16 -13 6 -7 24 9 24
6 0 7 -4 4 -10 -3 -5 -1 -10 4 -10 6 0 11 6 11 13 1 6 8 0 16 -15 23 -43 35
-34 28 22 -3 28 -4 50 -1 50 3 0 13 -24 23 -52 21 -66 34 -85 45 -65 5 8 0 35
-10 63 -10 27 -21 62 -25 78 l-7 30 21 -25 c18 -21 20 -21 16 -4 -3 11 -1 27
4 35 7 11 10 2 10 -32 0 -26 4 -49 9 -52 5 -4 7 20 4 56 -5 45 -3 59 5 54 7
-4 13 -35 14 -69 l1 -62 7 55 c4 30 7 49 8 41 2 -16 31 -51 42 -51 5 0 4 17
-1 38 -12 51 -11 112 1 112 6 0 10 -15 10 -32 1 -18 7 -46 15 -63 l15 -30 -3
47 c-2 53 8 55 17 3 4 -19 10 -35 15 -35 4 0 1 37 -7 81 -13 80 -11 116 7 105
5 -4 12 2 14 11 4 14 5 13 6 -4 0 -13 -3 -23 -9 -23 -5 0 -10 -9 -10 -20 0
-22 16 -27 22 -8 3 7 10 -10 18 -38 18 -67 51 -144 61 -144 5 0 0 18 -11 40
-11 21 -20 45 -19 52 0 7 5 2 10 -11 17 -42 21 -14 5 33 -18 54 -20 76 -6 76
6 0 6 9 1 23 -9 23 0 60 18 71 6 4 6 -5 0 -26 -5 -20 -5 -45 0 -63 l9 -30 1
28 c1 16 5 26 10 23 5 -4 7 4 3 16 -5 21 -4 22 11 9 12 -9 17 -29 17 -65 0
-50 17 -132 26 -124 2 3 -1 29 -6 59 -6 30 -8 72 -4 94 l7 40 9 -40 c8 -35 21
-54 38 -55 4 0 5 17 3 38 -3 43 0 37 21 -40 9 -31 22 -63 29 -70 7 -7 19 -28
26 -46 14 -32 40 -60 28 -29 -3 9 -2 17 4 19 5 2 5 16 -1 38 -15 50 -10 140 7
140 8 0 18 -10 22 -22 10 -25 8 -29 27 59 4 21 7 24 15 12 5 -7 9 -25 9 -39
l1 -25 19 24 c18 21 20 21 21 5 0 -12 6 -5 14 16 l13 35 1 -47 c1 -51 8 -78
22 -78 4 0 6 6 3 14 -6 16 12 56 26 56 5 0 12 -9 15 -20 3 -11 11 -20 16 -20
6 0 7 9 4 20 -3 11 -2 20 3 20 5 0 12 -10 15 -22 4 -12 9 -19 12 -16 4 3 2 16
-4 27 -12 22 -4 98 11 107 5 3 6 -11 3 -33 -7 -43 20 -212 36 -228 7 -7 8 2 2
30 -10 49 -11 214 -1 238 9 21 15 21 35 2z m1423 -6 c0 -5 -7 -9 -15 -9 -8 0
-15 -4 -15 -9 0 -5 -3 -18 -6 -28 -3 -10 1 -8 11 7 12 20 15 21 13 6 -3 -16
-48 -53 -70 -55 -13 -2 5 40 23 53 10 7 16 16 13 19 -4 4 1 9 10 13 9 3 13 10
10 15 -3 5 2 6 10 3 9 -3 16 -10 16 -15z m-1629 -16 c-12 -20 -14 -14 -5 12 4
9 9 14 11 11 3 -2 0 -13 -6 -23z m-469 -5 c-7 -7 -12 -8 -12 -2 0 14 12 26 19
19 2 -3 -1 -11 -7 -17z m740 -13 c-2 -14 -9 -28 -15 -32 -6 -4 -8 2 -4 18 4
13 7 30 7 37 0 7 4 11 9 8 4 -3 6 -17 3 -31z m-325 -7 c-3 -8 -6 -5 -6 6 -1
11 2 17 5 13 3 -3 4 -12 1 -19z m-158 -40 c0 -42 -2 -48 -9 -30 -8 20 -3 82 6
82 2 0 4 -24 3 -52z m-259 33 c0 -6 -4 -13 -10 -16 -5 -3 -10 1 -10 9 0 9 5
16 10 16 6 0 10 -4 10 -9z m369 -48 c1 -7 -3 -13 -8 -13 -14 0 -20 25 -13 52
l6 23 7 -25 c4 -14 7 -31 8 -37z m608 35 c-3 -8 -6 -5 -6 6 -1 11 2 17 5 13 3
-3 4 -12 1 -19z m83 6 c0 -8 -5 -12 -10 -9 -6 4 -8 11 -5 16 9 14 15 11 15 -7z
m-1427 -9 c-3 -9 -8 -14 -10 -11 -3 3 -2 9 2 15 9 16 15 13 8 -4z m1149 3 c3
-7 2 -24 -2 -38 -6 -22 -7 -21 -11 13 -5 35 4 51 13 25z m45 -10 c-3 -8 -6 -5
-6 6 -1 11 2 17 5 13 3 -3 4 -12 1 -19z m-270 -10 c-3 -8 -6 -5 -6 6 -1 11 2
17 5 13 3 -3 4 -12 1 -19z m575 -23 c-7 -41 -19 -38 -19 5 0 31 3 38 12 30 7
-6 10 -21 7 -35z m-818 -145 l6 -35 -14 35 c-8 20 -14 67 -14 110 l1 75 7 -75
c4 -41 10 -91 14 -110z m1031 103 c-10 -53 -18 -32 -9 24 4 26 10 40 12 30 2
-11 1 -35 -3 -54z m528 52 c-3 -9 -8 -14 -10 -11 -3 3 -2 9 2 15 9 16 15 13 8
-4z m187 6 c0 -5 -7 -12 -16 -15 -14 -5 -15 -4 -4 9 14 17 20 19 20 6z m-583
-33 c-3 -7 -5 -2 -5 12 0 14 2 19 5 13 2 -7 2 -19 0 -25z m535 0 c-7 -7 -12
-8 -12 -2 0 14 12 26 19 19 2 -3 -1 -11 -7 -17z m-812 2 c0 -5 -5 -10 -11 -10
-5 0 -7 5 -4 10 3 6 8 10 11 10 2 0 4 -4 4 -10z m1033 -5 c-3 -9 -8 -14 -10
-11 -3 3 -2 9 2 15 9 16 15 13 8 -4z m-633 -42 c0 -20 -3 -24 -11 -16 -7 7 -9
19 -6 27 10 24 17 19 17 -11z m470 23 c0 -2 -7 -9 -15 -16 -13 -11 -14 -10 -9
4 5 14 24 23 24 12z m130 -21 c-7 -9 -15 -13 -18 -10 -3 2 1 11 8 20 7 9 15
13 18 10 3 -2 -1 -11 -8 -20z m-700 5 c0 -5 -5 -10 -11 -10 -5 0 -7 5 -4 10 3
6 8 10 11 10 2 0 4 -4 4 -10z m170 6 c0 -3 -4 -8 -10 -11 -5 -3 -10 -1 -10 4
0 6 5 11 10 11 6 0 10 -2 10 -4z m-2189 -49 c-13 -12 -20 -15 -16 -7 14 26 28
41 33 35 3 -3 -5 -16 -17 -28z m2589 17 c0 -15 -44 -94 -52 -94 -10 0 -4 26
15 73 10 23 37 39 37 21z m-518 -66 c-9 -9 -13 -7 -17 5 -17 53 -17 53 7 30
17 -18 19 -26 10 -35z m-2126 -23 c-9 -14 -21 -25 -27 -25 -7 0 -6 8 3 23 8
12 18 29 23 37 6 10 10 11 13 2 2 -7 -3 -24 -12 -37z m47 30 c-3 -9 -8 -14
-10 -11 -3 3 -2 9 2 15 9 16 15 13 8 -4z m2838 -12 c-8 -15 -10 -15 -11 -2 0
17 10 32 18 25 2 -3 -1 -13 -7 -23z m-30 -20 c-8 -15 -10 -15 -11 -2 0 17 10
32 18 25 2 -3 -1 -13 -7 -23z m-284 -5 c-3 -8 -6 -5 -6 6 -1 11 2 17 5 13 3
-3 4 -12 1 -19z m-208 -24 c-9 -22 -13 -25 -16 -12 -3 10 2 24 9 32 18 20 20
13 7 -20z m21 -34 c-16 -31 -23 -18 -8 15 7 15 14 23 16 17 2 -6 -2 -21 -8
-32z m420 30 c0 -5 -5 -10 -11 -10 -5 0 -7 5 -4 10 3 6 8 10 11 10 2 0 4 -4 4
-10z m-293 -37 c-3 -10 -5 -4 -5 12 0 17 2 24 5 18 2 -7 2 -21 0 -30z m340 15
c-3 -8 -6 -5 -6 6 -1 11 2 17 5 13 3 -3 4 -12 1 -19z m-2561 -15 c-10 -10 -19
5 -10 18 6 11 8 11 12 0 2 -7 1 -15 -2 -18z m2120 -30 c-6 -48 -16 -71 -16
-36 0 27 11 83 17 83 2 0 2 -21 -1 -47z m61 -25 c-3 -22 -4 -21 -11 4 -5 16
-5 36 0 45 7 16 8 15 11 -4 3 -13 3 -33 0 -45z m508 23 c-3 -6 -11 -11 -17
-11 -6 0 -6 6 2 15 14 17 26 13 15 -4z m-422 -61 c-5 -29 -8 -31 -14 -15 -4
11 -8 33 -8 50 -1 26 1 28 14 14 11 -11 13 -25 8 -49z m516 57 c-2 -1 -14 -11
-26 -21 -13 -11 -23 -16 -23 -13 0 10 31 37 42 37 6 0 9 -1 7 -3z m-119 -42
c-7 -9 -15 -13 -18 -10 -3 2 1 11 8 20 7 9 15 13 18 10 3 -2 -1 -11 -8 -20z
m101 -22 c-10 -17 -10 -16 -11 3 0 23 13 41 18 25 2 -6 -1 -18 -7 -28z m-3121
23 c0 -3 -4 -8 -10 -11 -5 -3 -10 -1 -10 4 0 6 5 11 10 11 6 0 10 -2 10 -4z
m2560 -44 c0 -7 -4 -10 -10 -7 -5 3 -10 16 -10 28 0 18 2 19 10 7 5 -8 10 -21
10 -28z m295 19 c-3 -6 -11 -11 -17 -11 -6 0 -6 6 2 15 14 17 26 13 15 -4z
m235 -17 c-18 -21 -24 -10 -9 18 8 14 14 18 17 10 2 -7 -2 -19 -8 -28z m-496
-26 c3 -15 2 -29 -3 -32 -9 -6 -21 26 -21 59 0 25 16 8 24 -27z m-2644 28 c0
-3 -4 -8 -10 -11 -5 -3 -10 -1 -10 4 0 6 5 11 10 11 6 0 10 -2 10 -4z m2767
-18 c-3 -8 -6 -5 -6 6 -1 11 2 17 5 13 3 -3 4 -12 1 -19z m523 7 c-7 -9 -15
-13 -17 -11 -7 7 7 26 19 26 6 0 6 -6 -2 -15z m-3371 -65 c-19 -36 -49 -70
-49 -56 0 4 12 24 26 46 14 21 23 44 19 49 -3 7 0 8 9 5 13 -5 12 -11 -5 -44z
m3245 25 c-4 -8 -8 -15 -10 -15 -2 0 -4 7 -4 15 0 8 4 15 10 15 5 0 7 -7 4
-15z m-351 -31 c-9 -15 -19 -21 -21 -15 -4 13 16 41 29 41 5 0 2 -12 -8 -26z
m-2516 -24 c-2 -48 -17 -54 -17 -7 0 29 6 47 16 47 2 0 3 -18 1 -40z m2360 8
c-3 -8 -6 -5 -6 6 -1 11 2 17 5 13 3 -3 4 -12 1 -19z m684 -1 c-6 -6 -16 -12
-21 -12 -5 0 -16 -9 -24 -20 -9 -11 -15 -15 -15 -10 0 15 21 40 44 52 24 14
34 8 16 -10z m-598 -32 c-7 -21 -13 -19 -13 6 0 11 4 18 10 14 5 -3 7 -12 3
-20z m-2913 -55 c-12 -23 -24 -40 -26 -37 -3 3 4 24 16 47 12 23 24 40 26 37
3 -3 -4 -24 -16 -47z m3097 28 c-3 -8 -6 -5 -6 6 -1 11 2 17 5 13 3 -3 4 -12
1 -19z m170 -30 c-3 -7 -5 -2 -5 12 0 14 2 19 5 13 2 -7 2 -19 0 -25z m-60
-10 c-3 -7 -5 -2 -5 12 0 14 2 19 5 13 2 -7 2 -19 0 -25z m-2897 7 c-7 -9 -15
-13 -17 -11 -7 7 7 26 19 26 6 0 6 -6 -2 -15z m2791 -12 c-8 -15 -10 -15 -11
-2 0 17 10 32 18 25 2 -3 -1 -13 -7 -23z m-3045 -30 c-10 -26 -18 -8 -9 23 5
21 8 24 11 11 2 -10 1 -25 -2 -34z m3637 27 c-3 -11 -19 -26 -35 -35 l-31 -15
34 34 c19 19 35 35 36 35 0 1 -1 -8 -4 -19z m-234 3 c0 -5 -4 -17 -9 -28 -8
-18 -9 -17 -9 8 -1 15 4 27 9 27 6 0 10 -3 9 -7z m73 -18 c-2 -14 -8 -25 -13
-25 -12 0 -11 7 1 31 14 26 18 24 12 -6z m-3289 -5 c-5 -19 -23 -39 -23 -25 0
9 20 45 24 45 2 0 2 -9 -1 -20z m-162 -13 c-10 -9 -11 -8 -5 6 3 10 9 15 12
12 3 -3 0 -11 -7 -18z m3153 -9 c-10 -16 -22 -7 -17 13 4 15 8 17 14 8 4 -7 5
-17 3 -21z m-3207 -9 c-4 -16 -3 -18 9 -8 22 18 18 -14 -4 -34 -17 -15 -18
-14 -19 23 -1 23 3 40 9 40 6 0 8 -9 5 -21z m3391 -16 c-2 -20 -8 -38 -14 -40
-16 -5 -25 36 -13 59 16 30 30 20 27 -19z m-163 -7 c0 -13 -4 -28 -8 -32 -4
-5 -5 0 -2 11 7 20 6 20 -9 1 -16 -20 -16 -20 -16 0 0 19 17 44 30 44 3 0 6
-11 5 -24z m-3261 -13 c-4 -16 -14 -41 -22 -58 -9 -16 -17 -36 -18 -44 -2 -7
-8 -19 -13 -24 -18 -18 -1 52 26 106 26 53 37 60 27 20z m406 17 c0 -5 -5 -10
-11 -10 -5 0 -7 5 -4 10 3 6 8 10 11 10 2 0 4 -4 4 -10z m3165 -9 c-3 -6 -11
-11 -17 -11 -6 0 -6 6 2 15 14 17 26 13 15 -4z m-108 -13 c-3 -8 -6 -5 -6 6
-1 11 2 17 5 13 3 -3 4 -12 1 -19z m183 18 c0 -3 -4 -8 -10 -11 -5 -3 -10 -1
-10 4 0 6 5 11 10 11 6 0 10 -2 10 -4z m-438 -72 c2 -19 0 -37 -4 -40 -4 -3
-8 13 -8 35 0 51 6 53 12 5z m-3171 3 c-10 -9 -11 -8 -5 6 3 10 9 15 12 12 3
-3 0 -11 -7 -18z m3615 -13 c-4 -9 -9 -15 -11 -12 -3 3 -3 13 1 22 4 9 9 15
11 12 3 -3 3 -13 -1 -22z m-405 -36 c-9 -31 -9 -31 -10 -6 -1 30 11 67 16 51
2 -6 0 -26 -6 -45z m-2916 -8 c-11 -17 -23 -1 -18 21 5 19 7 19 15 5 5 -9 6
-21 3 -26z m3042 8 c-3 -7 -5 -2 -5 12 0 14 2 19 5 13 2 -7 2 -19 0 -25z
m-3003 -10 c8 -32 7 -40 -3 -34 -11 7 -21 56 -11 56 4 0 10 -10 14 -22z m2976
-13 c0 -19 -4 -35 -8 -35 -4 0 -6 16 -4 35 2 19 6 35 8 35 2 0 4 -16 4 -35z
m-3374 -3 c-17 -16 -18 -16 -5 5 7 12 15 20 18 17 3 -2 -3 -12 -13 -22z m3584
-22 c-6 -12 -14 -19 -17 -17 -2 3 1 15 7 27 6 12 14 19 17 17 2 -3 -1 -15 -7
-27z m163 15 c-3 -9 -8 -14 -10 -11 -3 3 -2 9 2 15 9 16 15 13 8 -4z m121 -2
c4 -10 4 -14 0 -10 -4 4 -21 -5 -37 -20 -32 -30 -28 -13 6 25 24 26 23 26 31
5z m-3643 -11 c-5 -9 -20 -26 -32 -37 -24 -20 -24 -20 -9 0 36 51 60 72 41 37z
m121 -17 c-5 -16 -11 -25 -14 -20 -6 11 10 61 17 53 2 -2 1 -17 -3 -33z m3365
3 c-3 -8 -6 -5 -6 6 -1 11 2 17 5 13 3 -3 4 -12 1 -19z m-3720 -40 c-14 -24
-28 -59 -32 -78 -7 -32 -51 -110 -63 -110 -2 0 -2 25 2 56 5 42 15 67 38 98
72 92 97 108 55 34z m3776 -13 c-3 -9 -8 -14 -10 -11 -3 3 -2 9 2 15 9 16 15
13 8 -4z m-51 -17 c-7 -7 -12 -8 -12 -2 0 14 12 26 19 19 2 -3 -1 -11 -7 -17z
m-275 -20 c-3 -7 -5 -2 -5 12 0 14 2 19 5 13 2 -7 2 -19 0 -25z m106 17 c-3
-9 -8 -14 -10 -11 -3 3 -2 9 2 15 9 16 15 13 8 -4z m-3246 -42 c1 -21 -4 -41
-10 -45 -8 -5 -6 -8 5 -8 12 0 17 -7 17 -22 -1 -13 1 -30 5 -39 9 -21 -13 -37
-25 -18 -4 8 -6 24 -2 36 3 13 1 23 -5 23 -11 0 -10 20 3 53 4 10 3 17 -4 17
-9 0 -9 5 -1 20 15 27 16 26 17 -17z m3074 -16 c-13 -13 -15 1 -4 30 7 17 8
17 11 -1 2 -10 -1 -23 -7 -29z m474 3 c-10 -11 -20 -18 -23 -16 -5 6 21 35 32
36 5 0 1 -9 -9 -20z m-428 -12 c-3 -8 -6 -5 -6 6 -1 11 2 17 5 13 3 -3 4 -12
1 -19z m334 -5 c-8 -15 -10 -15 -11 -2 0 17 10 32 18 25 2 -3 -1 -13 -7 -23z
m-3791 -32 c-5 -11 -15 -23 -22 -27 -7 -5 -8 -2 -3 7 21 37 44 55 25 20z
m3599 -13 c-8 -14 -14 -18 -17 -10 -4 13 17 46 25 38 3 -2 -1 -15 -8 -28z
m291 -19 c-7 -11 -14 -19 -16 -16 -7 7 7 37 17 37 6 0 5 -9 -1 -21z m-279 -65
c2 -37 -3 -58 -17 -77 -10 -15 -22 -27 -26 -27 -14 0 -8 44 12 100 11 30 20
57 20 59 0 2 2 2 4 0 3 -2 6 -27 7 -55z m32 28 c-3 -12 -9 -22 -14 -22 -14 0
-11 38 4 43 16 6 17 5 10 -21z m-3333 4 c0 -16 27 -29 41 -20 5 3 9 -2 9 -10
0 -9 -6 -16 -14 -16 -8 0 -20 -2 -28 -5 -24 -9 -41 11 -34 39 7 27 26 36 26
12z m-43 -26 c1 -17 -2 -30 -7 -30 -5 0 -7 12 -6 28 6 44 10 45 13 2z m-317
-5 c-7 -9 -15 -13 -19 -10 -3 3 1 10 9 15 21 14 24 12 10 -5z m284 -28 c-3 -9
-12 -17 -19 -17 -10 0 -11 5 -2 24 13 27 32 20 21 -7z m3450 8 c-4 -8 -8 -15
-10 -15 -2 0 -4 7 -4 15 0 8 4 15 10 15 5 0 7 -7 4 -15z m286 -20 c-7 -9 -15
-13 -17 -11 -7 7 7 26 19 26 6 0 6 -6 -2 -15z m-4059 -29 c-7 -8 -10 -20 -6
-26 3 -5 0 -19 -7 -29 -13 -18 -14 -16 -15 20 -1 27 3 41 15 48 22 12 28 6 13
-13z m3766 -63 c-3 -10 -5 -4 -5 12 0 17 2 24 5 18 2 -7 2 -21 0 -30z m170 15
c-3 -8 -6 -5 -6 6 -1 11 2 17 5 13 3 -3 4 -12 1 -19z m-3577 2 c0 -5 -5 -10
-11 -10 -5 0 -7 5 -4 10 3 6 8 10 11 10 2 0 4 -4 4 -10z m-76 -33 c-3 -9 -9
-17 -13 -17 -4 0 -7 -16 -6 -35 1 -19 -3 -40 -10 -45 -10 -8 -12 -4 -11 17 1
16 5 34 9 41 5 7 3 12 -3 12 -7 0 -4 12 7 30 17 30 39 28 27 -3z m-276 -4
c-15 -35 -38 -62 -38 -45 0 11 39 72 47 72 1 0 -3 -12 -9 -27z m182 23 c0 -2
-8 -10 -17 -17 -16 -13 -17 -12 -4 4 13 16 21 21 21 13z m143 -31 c-3 -9 -8
-14 -10 -11 -3 3 -2 9 2 15 9 16 15 13 8 -4z m3427 -80 c0 -7 -6 -17 -13 -23
-10 -9 -13 -4 -13 23 0 27 3 32 13 23 7 -6 13 -16 13 -23z m471 17 c-5 -10
-18 -25 -27 -33 -16 -12 -17 -12 -9 1 7 12 5 12 -11 -1 -33 -27 -44 -32 -38
-14 6 16 70 63 87 64 4 1 3 -7 -2 -17z m-3921 4 c0 -2 -7 -9 -15 -16 -13 -11
-14 -10 -9 4 5 14 24 23 24 12z m-177 -21 c-3 -9 -8 -14 -10 -11 -3 3 -2 9 2
15 9 16 15 13 8 -4z m-144 -69 c-9 -8 -10 -7 -5 7 3 10 7 24 7 30 1 7 3 4 6
-7 3 -10 -1 -23 -8 -30z m233 22 c-7 -7 -12 -8 -12 -2 0 14 12 26 19 19 2 -3
-1 -11 -7 -17z m3531 -20 c-6 -34 -52 -112 -60 -104 -3 3 6 26 20 53 14 26 28
56 31 66 9 29 16 19 9 -15z m-3570 -3 c-3 -9 -8 -14 -10 -11 -3 3 -2 9 2 15 9
16 15 13 8 -4z m57 -40 c-21 -26 -31 -16 -13 11 9 15 19 21 21 15 2 -6 -2 -18
-8 -26z m3962 -3 c-7 -5 -10 -16 -7 -24 4 -9 2 -19 -3 -22 -6 -3 -13 1 -16 10
-7 18 10 44 28 44 7 0 6 -3 -2 -8z m-3972 -58 c0 -1 -3 -10 -7 -20 -6 -16 -7
-16 -14 2 -7 17 -8 17 -8 -3 -1 -14 -7 -23 -16 -23 -14 0 -14 2 0 23 8 13 22
24 30 24 8 0 15 -1 15 -3z m3701 -77 l-24 -22 19 27 c10 14 21 24 23 22 3 -3
-6 -15 -18 -27z m249 25 c0 -5 -7 -17 -15 -28 -14 -19 -14 -19 -15 2 0 11 3
24 7 27 9 10 23 9 23 -1z m-3980 -12 c0 -5 -5 -10 -11 -10 -5 0 -7 5 -4 10 3
6 8 10 11 10 2 0 4 -4 4 -10z m71 -17 c-12 -20 -14 -14 -5 12 4 9 9 14 11 11
3 -2 0 -13 -6 -23z m-55 -19 c-4 -9 -9 -15 -11 -12 -3 3 -3 13 1 22 4 9 9 15
11 12 3 -3 3 -13 -1 -22z m-28 -6 c-4 -27 -28 -36 -28 -10 0 20 8 32 22 32 5
0 8 -10 6 -22z m3874 0 c-7 -7 -12 -8 -12 -2 0 14 12 26 19 19 2 -3 -1 -11 -7
-17z m-4045 -10 c-3 -8 -6 -5 -6 6 -1 11 2 17 5 13 3 -3 4 -12 1 -19z m120
-20 c-3 -8 -6 -5 -6 6 -1 11 2 17 5 13 3 -3 4 -12 1 -19z m3830 -10 c-3 -8 -6
-5 -6 6 -1 11 2 17 5 13 3 -3 4 -12 1 -19z m279 -49 l-14 -44 -1 36 c-1 19 4
40 11 47 18 18 19 9 4 -39z m-4236 11 c0 -10 -4 -22 -10 -25 -6 -4 -10 7 -10
25 0 18 4 29 10 25 6 -3 10 -15 10 -25z m3791 -16 c-9 -28 -9 -29 -10 -3 -1
14 2 29 6 32 11 12 13 2 4 -29z m-3676 -4 c-4 -12 -9 -19 -12 -17 -3 3 -2 15
2 27 4 12 9 19 12 17 3 -3 2 -15 -2 -27z m70 0 c-10 -11 -20 -18 -23 -15 -3 3
3 14 13 25 10 11 20 18 23 15 3 -3 -3 -14 -13 -25z m139 15 c-4 -8 -14 -15
-23 -15 -14 1 -13 3 3 15 25 19 27 19 20 0z m3817 -18 c-10 -9 -11 -8 -5 6 3
10 9 15 12 12 3 -3 0 -11 -7 -18z m61 -87 l-17 -25 -3 24 c-2 13 2 45 9 70
l13 46 8 -45 c6 -34 4 -50 -10 -70z m-3890 58 c-7 -7 -12 -8 -12 -2 0 14 12
26 19 19 2 -3 -1 -11 -7 -17z m3838 8 c0 -3 -4 -8 -10 -11 -5 -3 -10 -1 -10 4
0 6 5 11 10 11 6 0 10 -2 10 -4z m-4173 -38 c-3 -8 -6 -5 -6 6 -1 11 2 17 5
13 3 -3 4 -12 1 -19z m4143 15 c0 -5 -5 -15 -10 -23 -8 -12 -10 -11 -10 8 0
12 5 22 10 22 6 0 10 -3 10 -7z m158 -5 c-2 -6 -10 -14 -16 -16 -7 -2 -10 2
-6 12 7 18 28 22 22 4z m-3983 -27 c3 -5 1 -12 -5 -16 -5 -3 -10 1 -10 9 0 18
6 21 15 7z m3611 -19 c-18 -16 -18 -16 -6 6 6 13 14 21 18 18 3 -4 -2 -14 -12
-24z m233 -34 c-17 -31 -23 -9 -8 28 9 22 13 25 16 12 2 -9 -1 -27 -8 -40z
m-3966 27 c-3 -9 -8 -14 -10 -11 -3 3 -2 9 2 15 9 16 15 13 8 -4z m3676 -16
c-13 -26 -23 -18 -14 10 3 12 11 19 16 16 5 -4 5 -14 -2 -26z m421 27 c0 -2
-8 -10 -17 -17 -16 -13 -17 -12 -4 4 13 16 21 21 21 13z m-4260 -14 c0 -5 -9
-17 -20 -27 -22 -20 -26 -14 -10 16 11 19 30 26 30 11z m270 -17 c0 -8 -4 -15
-10 -15 -5 0 -10 7 -10 15 0 8 5 15 10 15 6 0 10 -7 10 -15z m-70 -12 c0 -5
-14 -16 -30 -25 -36 -20 -38 -16 -8 12 22 20 38 26 38 13z m3887 -25 c-3 -8
-6 -5 -6 6 -1 11 2 17 5 13 3 -3 4 -12 1 -19z m-4105 -10 c-7 -7 -12 -8 -12
-2 0 14 12 26 19 19 2 -3 -1 -11 -7 -17z m4352 -2 c-3 -9 -10 -16 -15 -16 -6
0 -5 9 1 21 13 24 24 20 14 -5z m-413 -17 c-5 -13 -10 -19 -10 -12 -1 15 10
45 15 40 3 -2 0 -15 -5 -28z m209 21 c0 -5 -5 -10 -11 -10 -5 0 -7 5 -4 10 3
6 8 10 11 10 2 0 4 -4 4 -10z m132 -12 c-7 -7 -12 -8 -12 -2 0 14 12 26 19 19
2 -3 -1 -11 -7 -17z m-4073 -28 c-11 -30 -33 -44 -24 -15 3 8 7 22 10 30 2 8
9 15 14 15 6 0 6 -11 0 -30z m3831 2 c0 -16 -6 -37 -14 -48 -14 -18 -15 -18
-14 6 0 41 8 70 18 70 6 0 10 -13 10 -28z m80 8 c0 -11 -4 -20 -9 -20 -5 0 -7
9 -4 20 3 11 7 20 9 20 2 0 4 -9 4 -20z m-4143 -12 c-3 -8 -6 -5 -6 6 -1 11 2
17 5 13 3 -3 4 -12 1 -19z m59 -54 c-4 -13 -11 -24 -16 -24 -14 0 -12 57 3 81
12 19 12 19 15 -7 2 -14 1 -37 -2 -50z m133 30 c-10 -27 -12 -27 -19 -9 -9 23
-3 38 11 30 5 -4 9 -1 9 6 0 7 2 10 5 7 3 -3 0 -18 -6 -34z m-218 -27 c-8 -8
-11 -5 -11 9 0 27 14 41 18 19 2 -9 -1 -22 -7 -28z m437 8 c-5 -16 -12 -43
-15 -60 -3 -16 -10 -33 -16 -37 -19 -12 -20 10 -2 28 10 11 13 19 6 23 -7 5
-5 16 5 35 8 16 13 31 11 32 -7 7 -47 -37 -42 -46 3 -4 -7 -16 -21 -25 -17
-11 -23 -12 -18 -4 5 8 9 17 9 21 0 17 57 67 74 65 16 -1 17 -5 9 -32z m3512
-5 l-8 -35 -1 31 c-1 17 2 34 6 37 11 12 12 3 3 -33z m-3774 -17 c-10 -10 -19
5 -10 18 6 11 8 11 12 0 2 -7 1 -15 -2 -18z m4124 17 c0 -5 -5 -10 -11 -10 -5
0 -7 5 -4 10 3 6 8 10 11 10 2 0 4 -4 4 -10z m-247 -27 c6 -33 -1 -53 -19 -53
-16 0 -17 5 -8 49 8 38 20 40 27 4z m37 -4 c0 -11 -4 -18 -10 -14 -5 3 -7 12
-3 20 7 21 13 19 13 -6z m-4030 -47 c0 -5 -7 -17 -15 -28 -14 -18 -14 -17 -4
9 12 27 19 34 19 19z m3888 -54 c-13 -23 -13 -22 -16 11 -2 20 2 37 10 42 18
12 23 -24 6 -53z m-3858 37 c0 -8 -4 -15 -10 -15 -5 0 -7 7 -4 15 4 8 8 15 10
15 2 0 4 -7 4 -15z m280 -5 c0 -5 -5 -10 -11 -10 -5 0 -7 5 -4 10 3 6 8 10 11
10 2 0 4 -4 4 -10z m48 -37 c0 -21 -5 -51 -11 -67 -9 -26 -12 -27 -18 -10 -7
16 -8 16 -8 -6 -1 -30 -17 -57 -27 -47 -4 4 -2 13 4 19 7 7 12 22 12 35 0 12
10 32 23 44 l22 22 -23 -6 c-23 -5 -22 2 7 34 9 9 17 18 18 18 0 1 1 -16 1
-36z m3552 -63 c0 -77 -15 -94 -25 -27 -6 38 6 97 20 97 3 0 5 -31 5 -70z
m417 33 c-3 -10 -5 -4 -5 12 0 17 2 24 5 18 2 -7 2 -21 0 -30z m-4297 -47 c0
-3 -4 -8 -10 -11 -5 -3 -10 -1 -10 4 0 6 5 11 10 11 6 0 10 -2 10 -4z m51 -53
c-12 -20 -14 -14 -5 12 4 9 9 14 11 11 3 -2 0 -13 -6 -23z m198 -25 c1 -5 -3
-8 -8 -8 -12 0 -22 30 -14 43 6 10 20 -13 22 -35z m170 30 c-2 -2 -20 -18 -39
-35 -31 -28 -36 -30 -36 -14 0 11 3 18 7 15 4 -2 10 3 13 11 5 15 47 36 55 29
2 -2 2 -5 0 -6z m3667 -50 c-19 -26 -22 -7 -4 25 7 13 13 17 15 10 3 -7 -3
-23 -11 -35z m167 26 c9 -9 -4 -35 -14 -28 -5 3 -9 12 -9 20 0 14 12 19 23 8z
m-346 -26 c-3 -8 -6 -5 -6 6 -1 11 2 17 5 13 3 -3 4 -12 1 -19z m136 -49 c-6
-32 -7 -33 -13 -9 -3 14 -1 30 5 36 14 17 16 12 8 -27z m226 5 c-15 -18 -22
-13 -13 10 3 9 10 13 16 10 5 -3 4 -12 -3 -20z m-4209 -1 c0 -18 -37 -63 -52
-63 -5 0 1 18 13 40 24 42 39 51 39 23z m4180 -5 c0 -18 -2 -20 -9 -8 -6 8 -7
18 -5 22 9 14 14 9 14 -14z m-4103 -10 c-3 -8 -6 -5 -6 6 -1 11 2 17 5 13 3
-3 4 -12 1 -19z m283 17 c0 -3 -18 -24 -40 -46 -43 -45 -48 -44 -25 1 17 33
65 66 65 45z m-133 -27 c-3 -8 -6 -5 -6 6 -1 11 2 17 5 13 3 -3 4 -12 1 -19z
m3928 -18 c-3 -6 -11 -10 -18 -10 -8 0 -8 3 0 11 6 6 9 19 6 28 -4 13 -2 13 7
-2 6 -9 8 -22 5 -27z m-331 15 c-4 -8 -8 -15 -10 -15 -2 0 -4 7 -4 15 0 8 4
15 10 15 5 0 7 -7 4 -15z m-3771 -40 c-3 -9 -8 -14 -10 -11 -3 3 -2 9 2 15 9
16 15 13 8 -4z m147 11 c0 -3 -4 -8 -10 -11 -5 -3 -10 -1 -10 4 0 6 5 11 10
11 6 0 10 -2 10 -4z m3646 -53 c-9 -26 -28 -61 -42 -78 l-25 -30 6 60 c4 33
11 65 17 70 7 7 9 3 5 -12 -8 -35 7 -27 27 13 23 50 31 36 12 -23z m114 37 c0
-5 -5 -10 -11 -10 -5 0 -7 5 -4 10 3 6 8 10 11 10 2 0 4 -4 4 -10z m196 -58
c-14 -14 -16 -14 -16 -1 0 20 23 44 29 28 2 -6 -4 -18 -13 -27z m-286 18 c0
-5 -5 -10 -11 -10 -5 0 -7 5 -4 10 3 6 8 10 11 10 2 0 4 -4 4 -10z m37 -22
c-3 -7 -5 -2 -5 12 0 14 2 19 5 13 2 -7 2 -19 0 -25z m28 23 c3 -5 1 -12 -5
-16 -5 -3 -10 1 -10 9 0 18 6 21 15 7z m65 -12 c-7 -11 -14 -18 -17 -15 -8 8
5 36 17 36 7 0 7 -6 0 -21z m-3935 -29 c-4 -17 -9 -29 -12 -26 -3 2 -2 19 2
36 4 17 9 29 12 26 3 -2 2 -19 -2 -36z m245 15 c-7 -8 -17 -15 -23 -15 -5 0
-2 9 8 20 21 23 35 19 15 -5z m3549 -62 c-9 -24 -12 -26 -20 -11 -6 11 -5 26
3 43 9 21 13 23 20 11 4 -8 3 -27 -3 -43z m-3459 36 c0 8 2 12 5 9 7 -7 -16
-58 -26 -58 -5 0 -6 -8 -3 -17 5 -14 4 -15 -4 -4 -8 11 -13 8 -27 -13 -10 -15
-20 -24 -22 -22 -6 6 34 65 57 84 13 12 13 13 -4 8 -16 -6 -17 -4 -6 9 11 13
15 13 21 3 7 -10 9 -10 9 1z m-80 -12 c0 -2 -11 -14 -25 -27 -14 -13 -25 -21
-25 -17 0 3 10 15 22 27 21 19 28 24 28 17z m3487 -69 c-9 -32 -13 -37 -15
-21 -3 19 13 63 22 63 2 0 -1 -19 -7 -42z m-3670 10 c-3 -8 -6 -5 -6 6 -1 11
2 17 5 13 3 -3 4 -12 1 -19z m44 -25 c-8 -15 -10 -15 -11 -2 0 17 10 32 18 25
2 -3 -1 -13 -7 -23z m3986 5 c-3 -8 -6 -5 -6 6 -1 11 2 17 5 13 3 -3 4 -12 1
-19z m-4037 -13 c0 -8 -4 -17 -10 -20 -6 -4 -10 5 -10 20 0 15 4 24 10 20 6
-3 10 -12 10 -20z m3706 -56 c-15 -54 -20 -52 -16 6 2 34 21 76 27 59 2 -6 -3
-35 -11 -65z m35 -12 c-8 -8 -11 -7 -11 4 0 20 13 34 18 19 3 -7 -1 -17 -7
-23z m298 19 c9 -10 8 -15 -4 -20 -10 -4 -15 1 -15 14 0 24 4 25 19 6z m-3855
-11 c-4 -8 -11 -15 -16 -15 -6 0 -5 6 2 15 7 8 14 15 16 15 2 0 1 -7 -2 -15z
m-150 -30 c-4 -8 -8 -15 -10 -15 -2 0 -4 7 -4 15 0 8 4 15 10 15 5 0 7 -7 4
-15z m3619 -87 c-14 -21 -27 -38 -29 -38 -10 0 11 87 25 106 l16 22 7 -26 c6
-20 1 -36 -19 -64z m432 82 c-3 -5 -14 -10 -23 -9 -14 0 -13 2 3 9 27 11 27
11 20 0z m-3815 -24 c0 -3 -4 -8 -10 -11 -5 -3 -10 -1 -10 4 0 6 5 11 10 11 6
0 10 -2 10 -4z m3457 -28 c-3 -8 -6 -5 -6 6 -1 11 2 17 5 13 3 -3 4 -12 1 -19z
m293 12 c0 -5 -5 -10 -11 -10 -5 0 -7 5 -4 10 3 6 8 10 11 10 2 0 4 -4 4 -10z
m-3923 -32 c-3 -7 -5 -2 -5 12 0 14 2 19 5 13 2 -7 2 -19 0 -25z m3703 23 c0
-6 -4 -13 -10 -16 -5 -3 -10 1 -10 9 0 9 5 16 10 16 6 0 10 -4 10 -9z m-3629
-42 c-6 -16 -10 -18 -10 -7 -1 22 12 55 16 42 2 -6 -1 -22 -6 -35z m80 -16
c-9 -16 -10 -16 -11 -1 0 9 3 25 7 35 7 16 8 17 11 1 2 -10 -1 -25 -7 -35z
m3432 15 c-4 -13 -15 -36 -26 -51 -10 -16 -17 -31 -14 -33 3 -3 11 4 17 16 21
40 22 13 0 -29 -23 -47 -35 -53 -26 -15 4 14 3 23 -2 20 -19 -12 -2 47 23 79
31 41 35 43 28 13z m48 -25 c-8 -15 -10 -15 -11 -2 0 17 10 32 18 25 2 -3 -1
-13 -7 -23z m-3634 -19 c-3 -20 -9 -39 -12 -42 -11 -12 -16 8 -10 42 9 48 29
48 22 0z m3815 14 c-7 -7 -12 -8 -12 -2 0 14 12 26 19 19 2 -3 -1 -11 -7 -17z
m-3755 -25 c-3 -16 -8 -41 -12 -58 l-6 -30 15 30 14 30 1 -43 c1 -49 -17 -99
-47 -125 -20 -18 -20 -18 -32 52 -12 69 -4 111 20 111 6 0 10 12 11 28 l1 27
8 -25 8 -25 1 28 c1 15 6 27 12 27 7 0 9 -11 6 -27z m175 -3 c-9 -16 -19 -25
-21 -19 -3 9 26 49 35 49 2 0 -5 -13 -14 -30z m-145 -12 c-3 -7 -5 -2 -5 12 0
14 2 19 5 13 2 -7 2 -19 0 -25z m3543 -7 c0 -12 -20 -25 -27 -18 -7 7 6 27 18
27 5 0 9 -4 9 -9z m-3353 -29 c-10 -10 -17 -26 -17 -34 0 -9 -7 -22 -17 -29
-15 -13 -15 -12 -5 8 7 12 12 31 12 42 0 11 8 22 18 24 9 3 19 5 21 6 2 0 -3
-7 -12 -17z m3653 14 c0 -3 -4 -8 -10 -11 -5 -3 -10 -1 -10 4 0 6 5 11 10 11
6 0 10 -2 10 -4z m-254 -32 c-4 -9 -9 -15 -11 -12 -3 3 -3 13 1 22 4 9 9 15
11 12 3 -3 3 -13 -1 -22z m-3541 -14 c-4 -12 -9 -19 -12 -17 -3 3 -2 15 2 27
4 12 9 19 12 17 3 -3 2 -15 -2 -27z m3455 20 c0 -5 -5 -10 -11 -10 -5 0 -7 5
-4 10 3 6 8 10 11 10 2 0 4 -4 4 -10z m-3497 -61 c-5 -5 -9 6 -10 28 0 37 0
38 9 10 6 -18 7 -32 1 -38z m3547 40 c0 -6 -13 -23 -28 -38 -15 -16 -45 -51
-67 -79 -43 -57 -55 -61 -29 -10 22 42 50 79 56 72 3 -2 17 11 32 31 28 37 36
42 36 24z m-3523 -61 c-3 -8 -6 -5 -6 6 -1 11 2 17 5 13 3 -3 4 -12 1 -19z
m-17 -2 c0 -3 -4 -8 -10 -11 -5 -3 -10 -1 -10 4 0 6 5 11 10 11 6 0 10 -2 10
-4z m3509 -38 c-12 -24 -29 -52 -39 -63 -10 -11 -34 -44 -53 -73 -30 -47 -36
-51 -42 -33 -4 14 4 35 27 69 41 60 110 142 121 142 4 0 -2 -19 -14 -42z m311
38 c0 -3 -4 -8 -10 -11 -5 -3 -10 -1 -10 4 0 6 5 11 10 11 6 0 10 -2 10 -4z
m-429 -87 c-24 -55 -27 -30 -4 37 12 34 19 43 21 28 1 -11 -6 -40 -17 -65z
m-3040 42 c-17 -16 -31 -32 -31 -37 0 -4 9 1 20 11 11 10 20 13 20 8 0 -14
-29 -37 -37 -29 -4 3 -17 -4 -30 -16 -13 -12 -23 -17 -23 -11 0 6 7 16 15 23
8 6 13 17 12 22 -2 11 59 58 76 58 5 0 -5 -13 -22 -29z m3455 -19 c-14 -14
-16 -14 -16 -1 0 20 23 44 29 28 2 -6 -4 -18 -13 -27z m-25 -35 c-8 -8 -11 -3
-11 19 1 25 2 27 11 11 8 -14 8 -22 0 -30z m-3754 -9 c-3 -8 -6 -5 -6 6 -1 11
2 17 5 13 3 -3 4 -12 1 -19z m150 -36 c-16 -15 -17 -15 -17 5 0 12 3 29 7 39
6 16 8 15 16 -5 8 -17 7 -26 -6 -39z m208 23 c-17 -13 -32 -21 -35 -18 -3 3 8
15 25 28 16 13 31 22 34 19 3 -3 -8 -16 -24 -29z m-278 -27 c-3 -8 -6 -5 -6 6
-1 11 2 17 5 13 3 -3 4 -12 1 -19z m29 -74 c-3 -8 -10 -14 -16 -14 -10 0 -8
18 7 78 7 25 7 25 11 -12 2 -21 1 -44 -2 -52z m3384 71 c0 -20 -22 -65 -32
-65 -4 0 -8 -7 -8 -16 0 -13 -58 -104 -66 -104 -2 0 3 21 11 48 8 26 15 50 15
55 0 4 5 7 11 7 15 0 39 26 39 43 0 23 11 47 21 47 5 0 9 -7 9 -15z m-3132
-46 c-7 -25 -14 -37 -20 -31 -6 6 -4 21 6 41 22 42 26 39 14 -10z m3392 15 c0
-8 -4 -12 -10 -9 -5 3 -10 10 -10 16 0 5 5 9 10 9 6 0 10 -7 10 -16z m-3437
-9 c-3 -9 -8 -14 -10 -11 -3 3 -2 9 2 15 9 16 15 13 8 -4z m-249 -21 c3 -8 2
-12 -4 -9 -6 3 -10 10 -10 16 0 14 7 11 14 -7z m3453 -16 c-3 -8 -6 -5 -6 6
-1 11 2 17 5 13 3 -3 4 -12 1 -19z m-3023 -57 c-14 -29 -28 -51 -30 -48 -6 6
24 74 36 82 5 3 10 11 10 17 0 6 -11 1 -25 -12 -14 -13 -25 -18 -25 -12 0 16
43 43 52 34 5 -5 -3 -32 -18 -61z m3276 59 c0 -5 -4 -10 -10 -10 -5 0 -10 5
-10 10 0 6 5 10 10 10 6 0 10 -4 10 -10z m-3716 -6 c19 -7 21 -52 2 -76 -7
-10 -15 -18 -17 -18 -2 0 -4 23 -5 50 0 28 1 50 2 50 1 0 9 -3 18 -6z m606
-15 c-14 -11 -33 -24 -44 -30 -32 -19 -7 11 28 32 40 25 48 24 16 -2z m3072
-1 c-7 -7 -12 -8 -12 -2 0 14 12 26 19 19 2 -3 -1 -11 -7 -17z m-3601 -65 c-8
-15 -10 -10 -11 23 0 22 3 44 8 48 11 12 14 -52 3 -71z m190 54 c-10 -9 -11
-8 -5 6 3 10 9 15 12 12 3 -3 0 -11 -7 -18z m3016 -9 c-3 -8 -6 -5 -6 6 -1 11
2 17 5 13 3 -3 4 -12 1 -19z m-2897 -19 c-7 -11 -14 -18 -17 -15 -3 3 0 12 7
21 18 21 23 19 10 -6z m3000 -24 c-12 -13 -19 -28 -15 -35 7 -11 -34 -105 -42
-97 -2 3 3 22 11 42 19 45 19 48 4 38 -7 -4 -5 5 5 20 9 15 25 39 34 53 10 16
19 22 21 15 2 -7 -6 -23 -18 -36z m130 16 c0 -5 -7 -11 -15 -15 -15 -5 -20 5
-8 17 9 10 23 9 23 -2z m-5 -40 c-3 -6 -11 -11 -17 -11 -6 0 -6 6 2 15 14 17
26 13 15 -4z m-3348 -23 c-3 -8 -6 -5 -6 6 -1 11 2 17 5 13 3 -3 4 -12 1 -19z
m501 -15 c-18 -42 -25 -47 -33 -23 -5 15 -1 26 12 35 28 22 34 18 21 -12z
m102 -4 c-12 -16 -24 -28 -27 -25 -6 6 29 55 40 56 5 0 -1 -14 -13 -31z m-404
-15 c-4 -9 -9 -15 -11 -12 -3 3 -3 13 1 22 4 9 9 15 11 12 3 -3 3 -13 -1 -22z
m247 -14 c-3 -11 -9 -20 -15 -20 -5 0 -4 9 2 20 6 11 12 20 14 20 2 0 2 -9 -1
-20z m-93 -10 c0 -5 -5 -10 -11 -10 -5 0 -7 5 -4 10 3 6 8 10 11 10 2 0 4 -4
4 -10z m51 -27 c-12 -20 -14 -14 -5 12 4 9 9 14 11 11 3 -2 0 -13 -6 -23z
m161 5 c-7 -7 -12 -8 -12 -2 0 6 3 14 7 17 3 4 9 5 12 2 2 -3 -1 -11 -7 -17z
m2579 -21 c-13 -13 -15 1 -4 30 7 17 8 17 11 -1 2 -10 -1 -23 -7 -29z m126 3
c0 -16 -4 -27 -8 -24 -4 2 -10 -2 -12 -8 -3 -7 -6 -2 -6 13 -1 19 14 49 24 49
1 0 2 -13 2 -30z m-2843 -15 c-10 -16 -20 -23 -22 -16 -4 12 28 55 35 47 3 -2
-3 -17 -13 -31z m-327 -12 c-3 -10 -5 -4 -5 12 0 17 2 24 5 18 2 -7 2 -21 0
-30z m3093 18 c0 -14 -36 -91 -42 -91 -11 0 -10 6 7 47 18 43 18 46 3 37 -6
-4 -8 -3 -5 3 6 10 37 14 37 4z m-2340 -14 c0 -2 -14 -16 -31 -33 -26 -24 -30
-25 -20 -7 11 22 51 53 51 40z m-412 -49 c2 -40 -6 -68 -19 -68 -12 0 -12 37
1 45 6 3 10 11 10 17 0 7 -6 6 -15 -2 -20 -17 -19 -1 2 22 9 10 17 18 18 18 1
0 2 -15 3 -32z m-361 -10 c-3 -7 -5 -2 -5 12 0 14 2 19 5 13 2 -7 2 -19 0 -25z
m118 -96 c-7 -50 -8 -54 -17 -32 -11 30 -12 135 -1 153 13 21 26 -61 18 -121z
m440 109 c-3 -6 -11 -11 -17 -11 -6 0 -6 6 2 15 14 17 26 13 15 -4z m2592 -13
c-3 -7 -5 -2 -5 12 0 14 2 19 5 13 2 -7 2 -19 0 -25z m230 0 c-3 -7 -5 -2 -5
12 0 14 2 19 5 13 2 -7 2 -19 0 -25z m-2717 -7 c-10 -21 -30 -37 -30 -26 0 14
21 45 31 45 6 0 6 -7 -1 -19z m40 0 c0 -5 -7 -12 -16 -15 -14 -5 -15 -4 -4 9
14 17 20 19 20 6z m5036 -23 c-11 -15 -16 -18 -16 -7 0 16 21 42 28 34 2 -2
-3 -14 -12 -27z m-2637 -15 c-1 -48 -8 -73 -20 -73 -13 0 -11 34 4 49 10 11
10 13 0 7 -16 -9 -16 -4 -1 29 15 33 18 32 17 -12z m-59 -57 c-17 -45 -22 -24
-8 30 10 39 14 44 16 23 2 -14 -2 -38 -8 -53z m2642 52 c-7 -7 -12 -8 -12 -2
0 14 12 26 19 19 2 -3 -1 -11 -7 -17z m-5432 -10 c0 -17 -18 -44 -24 -37 -8 7
5 49 15 49 5 0 9 -6 9 -12z m15 -43 c-9 -20 -19 -35 -21 -32 -3 2 3 21 12 41
10 19 20 34 22 31 3 -2 -3 -21 -13 -40z m235 -6 c-7 -11 -14 -19 -16 -16 -7 7
7 37 17 37 6 0 5 -9 -1 -21z m130 6 c0 -8 -4 -15 -10 -15 -5 0 -7 7 -4 15 4 8
8 15 10 15 2 0 4 -7 4 -15z m2730 11 c0 -3 -4 -8 -10 -11 -5 -3 -10 -1 -10 4
0 6 5 11 10 11 6 0 10 -2 10 -4z m1675 -85 c-15 -15 -16 -14 -10 14 14 64 20
72 23 36 2 -22 -2 -40 -13 -50z m507 47 c-8 -8 -9 -4 -5 13 4 13 8 18 11 10 2
-7 -1 -18 -6 -23z m-4670 -21 c-9 -11 -18 -14 -20 -8 -2 6 -9 8 -15 4 -7 -3
-1 6 12 20 18 20 27 24 32 15 5 -7 1 -21 -9 -31z m4048 8 c-7 -8 -17 -15 -23
-15 -5 0 -2 9 8 20 21 23 35 19 15 -5z m333 5 c-3 -11 -12 -20 -21 -20 -13 0
-12 3 3 20 10 11 19 20 21 20 1 0 0 -9 -3 -20z m264 8 c-2 -7 -9 -12 -15 -11
-6 2 -20 -9 -32 -24 -11 -14 -23 -24 -25 -21 -10 10 14 56 32 61 33 9 45 7 40
-5z m-2420 -35 c-3 -10 -5 -4 -5 12 0 17 2 24 5 18 2 -7 2 -21 0 -30z m1557
22 c-4 -8 -11 -15 -16 -15 -6 0 -5 6 2 15 7 8 14 15 16 15 2 0 1 -7 -2 -15z
m-1304 -22 c0 -14 -3 -23 -7 -20 -3 4 -15 -1 -26 -10 -21 -19 -19 -13 13 35
19 28 20 28 20 -5z m1662 -8 c-5 -26 -42 -56 -42 -35 0 13 32 59 41 60 3 0 4
-11 1 -25z m394 -27 c-20 -33 -25 -37 -22 -18 3 14 5 29 5 33 1 5 5 6 10 2 5
-3 13 4 16 16 4 11 9 18 12 15 3 -2 -7 -24 -21 -48z m-4392 27 c-4 -8 -11 -15
-16 -15 -6 0 -5 6 2 15 7 8 14 15 16 15 2 0 1 -7 -2 -15z m260 -22 c-13 -9
-20 -10 -22 -3 -5 15 32 42 37 28 2 -6 -5 -17 -15 -25z m3520 22 c-4 -8 -11
-15 -16 -15 -6 0 -5 6 2 15 7 8 14 15 16 15 2 0 1 -7 -2 -15z m-3929 -15 c-10
-11 -22 -17 -26 -14 -5 3 -9 0 -9 -7 0 -7 -3 -10 -6 -7 -10 11 18 44 38 45 19
2 19 1 3 -17z m199 5 c-4 -9 -16 -21 -28 -27 -19 -10 -19 -9 3 16 28 30 33 32
25 11z m3586 9 c0 -17 -23 -44 -32 -38 -7 4 -8 3 -4 -4 3 -6 -3 -16 -15 -22
-17 -10 -20 -9 -13 2 5 7 9 20 11 28 3 22 53 54 53 34z m253 -14 c-3 -10 -11
-25 -19 -31 -17 -14 -18 -8 -2 26 13 30 28 34 21 5z m-4483 1 c0 -6 -4 -13
-10 -16 -5 -3 -10 1 -10 9 0 9 5 16 10 16 6 0 10 -4 10 -9z m966 2 c-3 -3 -20
-7 -38 -9 -18 -2 -28 0 -21 4 13 8 67 13 59 5z m3794 -3 c0 -5 -5 -10 -11 -10
-5 0 -7 5 -4 10 3 6 8 10 11 10 2 0 4 -4 4 -10z m310 -10 c-6 -11 -13 -20 -16
-20 -2 0 0 9 6 20 6 11 13 20 16 20 2 0 0 -9 -6 -20z m-2410 3 c-1 -10 -39
-60 -40 -51 0 14 23 58 32 58 4 0 8 -3 8 -7z m-2485 -43 c-9 -18 -19 -30 -21
-27 -3 3 2 19 11 37 9 18 19 30 21 27 3 -3 -2 -19 -11 -37z m296 13 c-8 -15
-10 -15 -11 -2 0 17 10 32 18 25 2 -3 -1 -13 -7 -23z m47 7 c-7 -10 -14 -17
-17 -15 -4 4 18 35 25 35 2 0 -1 -9 -8 -20z m4344 -12 c-8 -8 -9 -4 -5 13 4
13 8 18 11 10 2 -7 -1 -18 -6 -23z m-3941 -16 c-11 -16 -27 -35 -36 -42 -13
-10 -15 -10 -15 6 0 17 45 63 63 64 5 0 -1 -13 -12 -28z m-311 14 c0 -3 -4 -8
-10 -11 -5 -3 -10 -1 -10 4 0 6 5 11 10 11 6 0 10 -2 10 -4z m81 -27 c-13 -11
-27 -17 -30 -13 -3 3 5 14 18 25 13 11 27 17 30 13 3 -3 -5 -14 -18 -25z
m4009 27 c0 -3 -4 -8 -10 -11 -5 -3 -10 -1 -10 4 0 6 5 11 10 11 6 0 10 -2 10
-4z m-4188 -38 c-7 -7 -12 -8 -12 -2 0 6 3 14 7 17 3 4 9 5 12 2 2 -3 -1 -11
-7 -17z m4129 -11 c-10 -9 -11 -8 -5 6 3 10 9 15 12 12 3 -3 0 -11 -7 -18z
m-4235 -29 c-19 -26 -20 -20 -5 19 6 15 13 22 16 16 2 -7 -3 -23 -11 -35z m35
9 c-10 -9 -11 -8 -5 6 3 10 9 15 12 12 3 -3 0 -11 -7 -18z m-201 -8 c-7 -11
-14 -18 -17 -15 -8 8 5 36 17 36 7 0 7 -6 0 -21z m286 -7 c-18 -16 -18 -16 -6
6 6 13 14 21 18 18 3 -4 -2 -14 -12 -24z m274 -3 c-7 -11 -14 -18 -17 -15 -3
3 0 12 7 21 18 21 23 19 10 -6z m33 -4 c-3 -9 -8 -14 -10 -11 -3 3 -2 9 2 15
9 16 15 13 8 -4z m-456 -37 c-3 -7 -5 -2 -5 12 0 14 2 19 5 13 2 -7 2 -19 0
-25z m2233 -9 c-4 -22 -13 -46 -19 -52 -14 -14 -14 -7 0 49 14 55 29 58 19 3z
m-2320 11 c-6 -11 -12 -20 -14 -20 -2 0 -2 9 1 20 3 11 9 20 15 20 5 0 4 -9
-2 -20z m4366 -8 c-18 -16 -18 -16 -6 6 6 13 14 21 18 18 3 -4 -2 -14 -12 -24z
m-4339 -14 c-3 -7 -5 -2 -5 12 0 14 2 19 5 13 2 -7 2 -19 0 -25z m3146 13 c-5
-18 -93 -99 -93 -85 0 6 91 103 97 104 0 0 -1 -8 -4 -19z m-3206 -23 c-3 -7
-5 -2 -5 12 0 14 2 19 5 13 2 -7 2 -19 0 -25z m1023 25 c-1 -14 -40 -56 -47
-50 -3 4 5 18 18 32 26 27 29 29 29 18z m1281 -51 c-6 -22 -18 -45 -26 -52
-15 -13 -12 2 16 80 16 45 23 24 10 -28z m940 11 c-12 -20 -14 -14 -5 12 4 9
9 14 11 11 3 -2 0 -13 -6 -23z m1269 17 c0 -5 -5 -10 -11 -10 -5 0 -7 5 -4 10
3 6 8 10 11 10 2 0 4 -4 4 -10z m-4376 -25 c3 -8 1 -15 -4 -15 -6 0 -10 7 -10
15 0 8 2 15 4 15 2 0 6 -7 10 -15z m798 -25 c-30 -44 -54 -55 -27 -12 15 24
43 52 52 52 1 0 -10 -18 -25 -40z m1637 -41 c-18 -11 -24 7 -9 26 8 9 8 15 2
15 -6 0 -7 10 -4 23 5 19 7 17 15 -17 7 -29 6 -40 -4 -47z m644 61 c-3 -12 -8
-19 -11 -16 -5 6 5 36 12 36 2 0 2 -9 -1 -20z m-2519 -40 c-29 -55 -34 -60
-34 -31 0 17 44 81 56 81 2 0 -8 -22 -22 -50z m539 36 c6 -15 -38 -50 -52 -42
-4 3 -8 -1 -8 -8 0 -9 7 -12 16 -8 9 3 3 -5 -14 -18 -52 -41 -61 -45 -41 -22
11 12 16 22 11 22 -4 0 -2 6 4 13 6 8 8 17 5 20 -4 3 10 14 29 23 20 10 34 21
31 26 -3 4 -1 8 4 8 6 0 12 -6 15 -14z m-1022 -63 c-9 -15 -10 -12 -11 18 0
20 3 39 8 43 11 12 14 -42 3 -61z m2039 21 c-7 -21 -23 -49 -35 -62 l-22 -23
-1 34 c-1 20 5 40 13 47 12 10 15 8 16 -11 1 -21 2 -21 6 -4 10 39 24 68 29
62 3 -3 0 -23 -6 -43z m932 19 c-5 -10 -7 -23 -5 -29 2 -6 -3 -14 -11 -17 -20
-8 -18 32 2 56 19 21 27 15 14 -10z m-2755 -5 c-3 -8 -6 -5 -6 6 -1 11 2 17 5
13 3 -3 4 -12 1 -19z m-161 -3 c-3 -8 -1 -15 4 -15 5 0 7 -7 4 -15 -4 -8 -10
-12 -15 -9 -13 8 -11 54 2 54 6 0 9 -7 5 -15z m619 5 c-3 -5 -11 -10 -16 -10
-6 0 -7 5 -4 10 3 6 11 10 16 10 6 0 7 -4 4 -10z m-444 -34 c-14 -36 -22 -33
-9 5 6 16 12 28 14 26 3 -2 0 -16 -5 -31z m809 19 c-7 -9 -15 -13 -17 -11 -7
7 7 26 19 26 6 0 6 -6 -2 -15z m161 1 c-6 -8 -22 -16 -34 -20 -21 -5 -21 -4 3
14 29 23 48 26 31 6z m-660 -23 c-12 -20 -14 -14 -5 12 4 9 9 14 11 11 3 -2 0
-13 -6 -23z m-617 2 c3 -8 1 -15 -4 -15 -6 0 -10 7 -10 15 0 8 2 15 4 15 2 0
6 -7 10 -15z m730 -12 c-8 -31 -22 -53 -35 -53 -16 0 -10 26 12 54 26 33 31
33 23 -1z m76 23 c0 -2 -8 -10 -17 -17 -16 -13 -17 -12 -4 4 13 16 21 21 21
13z m2190 -22 c0 -8 -5 -12 -10 -9 -6 4 -8 11 -5 16 9 14 15 11 15 -7z m-2887
-60 c-21 -44 -27 -37 -18 23 6 43 8 46 20 29 12 -15 11 -23 -2 -52z m2347 29
c0 -18 -17 -16 -24 3 -8 22 4 40 15 23 5 -8 9 -20 9 -26z m-320 -9 c-18 -21
-24 -10 -9 18 8 14 14 18 17 10 2 -7 -2 -19 -8 -28z m957 14 c2 -18 0 -20 -7
-8 -12 18 -13 30 -2 30 4 0 9 -10 9 -22z m-2650 -20 c-3 -7 -5 -2 -5 12 0 14
2 19 5 13 2 -7 2 -19 0 -25z m33 -45 c-11 -17 -11 -17 -6 0 3 10 7 31 7 45 l2
27 4 -27 c2 -15 -1 -35 -7 -45z m1940 57 c0 -5 -5 -10 -11 -10 -5 0 -7 5 -4
10 3 6 8 10 11 10 2 0 4 -4 4 -10z m481 -23 c-13 -12 -21 -15 -17 -7 4 8 1 7
-8 -4 -14 -17 -60 -46 -74 -46 -3 0 4 10 16 23 12 13 19 27 15 32 -5 4 -3 5 4
1 6 -3 27 2 45 13 41 23 49 18 19 -12z m-1521 20 c0 -2 -10 -12 -22 -23 l-23
-19 19 23 c18 21 26 27 26 19z m650 -42 c-10 -12 -10 -15 -1 -15 8 0 4 -12 -9
-30 -12 -16 -26 -30 -32 -30 -7 0 -6 5 1 14 7 8 14 25 16 37 3 13 10 35 17 48
11 20 14 21 16 7 2 -9 -2 -23 -8 -31z m-1767 8 c3 -16 2 -31 -2 -35 -4 -4 -7
0 -7 10 -1 9 -4 25 -9 35 -4 9 -3 17 3 17 5 0 12 -12 15 -27z m1442 7 c-10
-11 -20 -18 -23 -15 -7 6 18 35 31 35 5 0 2 -9 -8 -20z m-239 3 c-10 -11 -36
-12 -36 -2 0 5 10 9 22 9 12 0 18 -3 14 -7z m1534 3 c0 -2 -7 -7 -16 -10 -8
-3 -12 -2 -9 4 6 10 25 14 25 6z m-2761 -56 c0 -23 -1 -23 -9 -5 -5 11 -9 29
-9 40 -1 17 1 17 9 5 5 -8 9 -26 9 -40z m121 46 c0 -3 -4 -8 -10 -11 -5 -3
-10 -1 -10 4 0 6 5 11 10 11 6 0 10 -2 10 -4z m931 -29 c-13 -12 -20 -15 -16
-7 14 26 28 41 33 35 3 -3 -5 -16 -17 -28z m-670 -10 c-16 -16 -26 0 -10 19 9
11 15 12 17 4 2 -6 -1 -17 -7 -23z m1369 29 c0 -2 -7 -7 -16 -10 -8 -3 -12 -2
-9 4 6 10 25 14 25 6z m445 -17 c0 -8 -10 -15 -22 -17 -25 -4 -30 7 -11 26 15
15 33 10 33 -9z m525 11 c0 -5 -5 -10 -11 -10 -5 0 -7 5 -4 10 3 6 8 10 11 10
2 0 4 -4 4 -10z m-190 -29 c-18 -27 -80 -68 -80 -54 0 9 82 83 92 83 5 0 0
-13 -12 -29z m-2239 -12 c-9 -22 -10 -22 -10 -3 -1 11 2 24 6 27 12 12 14 0 4
-24z m1089 27 c0 -2 -7 -7 -16 -10 -8 -3 -12 -2 -9 4 6 10 25 14 25 6z m185
-36 c-10 -11 -23 -20 -29 -20 -6 0 0 9 14 20 32 25 38 25 15 0z m145 -5 c-7
-9 -15 -13 -18 -10 -3 2 1 11 8 20 7 9 15 13 18 10 3 -2 -1 -11 -8 -20z
m-1404 -13 c-18 -16 -18 -16 -6 6 6 13 14 21 18 18 3 -4 -2 -14 -12 -24z m157
13 c-3 -9 -8 -14 -10 -11 -3 3 -2 9 2 15 9 16 15 13 8 -4z m72 -15 c-9 -16
-18 -30 -21 -30 -2 0 2 14 11 30 9 17 18 30 21 30 2 0 -2 -13 -11 -30z m-275
-22 c0 -10 -4 -18 -10 -18 -5 0 -10 15 -10 33 0 24 3 28 10 17 5 -8 10 -23 10
-32z m90 33 c0 -5 -7 -14 -15 -21 -8 -7 -15 -17 -15 -22 0 -6 8 -4 17 3 14 12
14 10 -1 -13 -10 -16 -19 -28 -20 -28 -5 0 1 47 8 68 7 21 26 31 26 13z m22
-13 c-7 -7 -12 -8 -12 -2 0 6 3 14 7 17 3 4 9 5 12 2 2 -3 -1 -11 -7 -17z
m1462 -2 c-3 -9 -10 -16 -15 -16 -5 0 -4 9 3 20 14 22 21 20 12 -4z m391 14
c-3 -5 -11 -10 -16 -10 -6 0 -7 5 -4 10 3 6 11 10 16 10 6 0 7 -4 4 -10z m346
-23 c-10 -9 -11 -8 -5 6 3 10 9 15 12 12 3 -3 0 -11 -7 -18z m2139 19 c0 -3
-4 -8 -10 -11 -5 -3 -10 -1 -10 4 0 6 5 11 10 11 6 0 10 -2 10 -4z m-2345 -36
c-10 -11 -20 -18 -23 -15 -3 3 3 14 13 25 10 11 20 18 23 15 3 -3 -3 -14 -13
-25z m-2075 -4 c0 -3 -4 -8 -10 -11 -5 -3 -10 -1 -10 4 0 6 5 11 10 11 6 0 10
-2 10 -4z m34 -72 c-15 -26 -30 -42 -32 -36 -3 11 50 94 56 87 2 -2 -9 -25
-24 -51z m146 41 c0 -8 -4 -15 -10 -15 -5 0 -10 7 -10 15 0 8 5 15 10 15 6 0
10 -7 10 -15z m41 -45 c-7 -36 -9 -39 -10 -15 -1 33 11 85 16 70 1 -6 -1 -30
-6 -55z m49 13 c-1 -5 -7 -19 -15 -33 -10 -18 -14 -20 -15 -8 0 23 11 48 21
48 5 0 9 -3 9 -7z m3332 -65 c-7 -7 -12 -8 -12 -2 0 14 12 26 19 19 2 -3 -1
-11 -7 -17z m-2742 -38 c-16 -31 -23 -19 -9 16 6 16 13 24 16 17 2 -7 -1 -22
-7 -33z m3221 -17 c-9 -15 -10 -13 -11 13 0 17 3 34 8 38 11 12 14 -32 3 -51z
m-3624 25 c-3 -8 -6 -5 -6 6 -1 11 2 17 5 13 3 -3 4 -12 1 -19z m29 -44 l-15
-29 -1 32 c0 17 3 39 7 49 6 16 7 16 16 -3 6 -14 4 -29 -7 -49z m121 44 c-3
-8 -6 -5 -6 6 -1 11 2 17 5 13 3 -3 4 -12 1 -19z m100 0 c-3 -8 -6 -5 -6 6 -1
11 2 17 5 13 3 -3 4 -12 1 -19z m-30 -10 c-3 -8 -6 -5 -6 6 -1 11 2 17 5 13 3
-3 4 -12 1 -19z m3041 -3 c-3 -3 -9 2 -12 12 -6 14 -5 15 5 6 7 -7 10 -15 7
-18z m-3168 -4 c0 -6 -4 -13 -10 -16 -5 -3 -10 1 -10 9 0 9 5 16 10 16 6 0 10
-4 10 -9z m40 -21 c-10 -19 -30 -36 -30 -26 0 16 24 55 31 50 5 -3 5 -14 -1
-24z m2680 10 c0 -5 -5 -10 -11 -10 -5 0 -7 5 -4 10 3 6 8 10 11 10 2 0 4 -4
4 -10z m1141 -17 c-8 -15 -10 -15 -11 -2 0 17 10 32 18 25 2 -3 -1 -13 -7 -23z
m-3959 -19 c2 -19 0 -37 -4 -40 -4 -3 -8 13 -8 35 0 51 6 53 12 5z m3997 -8
c-9 -8 -10 -7 -5 7 3 10 7 24 7 30 1 7 3 4 6 -7 3 -10 -1 -23 -8 -30z m-3719
13 c0 -5 -4 -9 -10 -9 -5 0 -10 7 -10 16 0 8 5 12 10 9 6 -3 10 -10 10 -16z
m35 4 c-3 -10 -9 -30 -12 -45 -5 -27 -23 -30 -23 -3 0 24 19 65 31 65 7 0 8
-7 4 -17z m95 -8 c0 -8 -4 -15 -10 -15 -5 0 -7 7 -4 15 4 8 8 15 10 15 2 0 4
-7 4 -15z m905 -7 c-4 -34 -5 -35 -16 -15 -10 17 -5 37 10 37 5 0 7 -10 6 -22z
m-704 -11 c-10 -9 -11 -8 -5 6 3 10 9 15 12 12 3 -3 0 -11 -7 -18z m2623 -9
c-22 -43 -23 -44 -22 -17 2 26 15 49 29 49 5 0 2 -15 -7 -32z m-1603 -19 c-5
-13 -10 -19 -10 -12 -1 15 10 45 15 40 3 -2 0 -15 -5 -28z m1763 6 c-4 -8 -8
-15 -10 -15 -2 0 -4 7 -4 15 0 8 4 15 10 15 5 0 7 -7 4 -15z m526 11 c0 -3 -4
-8 -10 -11 -5 -3 -10 -1 -10 4 0 6 5 11 10 11 6 0 10 -2 10 -4z m100 -15 c0
-12 -20 -25 -27 -18 -7 7 6 27 18 27 5 0 9 -4 9 -9z m-898 -43 c-6 -6 -8 -1
-7 14 3 32 7 36 12 14 3 -10 1 -22 -5 -28z m-2316 -61 c-3 -12 -11 -31 -19
-41 -12 -17 -14 -14 -14 28 -1 33 3 46 13 46 10 0 12 9 9 33 -4 29 -4 29 6 -6
6 -20 9 -47 5 -60z m61 71 c-3 -8 -6 -5 -6 6 -1 11 2 17 5 13 3 -3 4 -12 1
-19z m845 -10 c-7 -7 -12 -8 -12 -2 0 14 12 26 19 19 2 -3 -1 -11 -7 -17z
m124 -15 c-11 -11 -17 4 -9 23 7 18 8 18 11 1 2 -10 1 -21 -2 -24z m-886 12
c0 -8 -4 -15 -10 -15 -5 0 -7 7 -4 15 4 8 8 15 10 15 2 0 4 -7 4 -15z m481
-18 c-10 -9 -11 -8 -5 6 3 10 9 15 12 12 3 -3 0 -11 -7 -18z m-794 -9 c-3 -8
-6 -5 -6 6 -1 11 2 17 5 13 3 -3 4 -12 1 -19z m1150 0 c-3 -8 -6 -5 -6 6 -1
11 2 17 5 13 3 -3 4 -12 1 -19z m-926 -71 c-8 -8 -11 1 -11 29 0 53 14 67 18
19 2 -21 -1 -42 -7 -48z m865 57 c-4 -9 -9 -15 -11 -12 -3 3 -3 13 1 22 4 9 9
15 11 12 3 -3 3 -13 -1 -22z m2094 16 c0 -5 -5 -10 -11 -10 -5 0 -7 5 -4 10 3
6 8 10 11 10 2 0 4 -4 4 -10z m-2143 -47 c-3 -10 -5 -2 -5 17 0 19 2 27 5 18
2 -10 2 -26 0 -35z m203 37 c0 -5 -5 -10 -11 -10 -5 0 -7 5 -4 10 3 6 8 10 11
10 2 0 4 -4 4 -10z m1710 6 c0 -3 -4 -8 -10 -11 -5 -3 -10 -1 -10 4 0 6 5 11
10 11 6 0 10 -2 10 -4z m-2300 -34 c0 -15 -2 -15 -10 -2 -13 20 -13 33 0 25 6
-3 10 -14 10 -23z m480 -22 c0 -13 -1 -13 -10 0 -5 8 -10 22 -10 30 0 13 1 13
10 0 5 -8 10 -22 10 -30z m1470 -10 c-17 -32 -22 -19 -7 19 7 20 13 27 15 18
2 -9 -2 -26 -8 -37z m-1903 18 c-3 -8 -6 -5 -6 6 -1 11 2 17 5 13 3 -3 4 -12
1 -19z m-120 -10 c-3 -8 -6 -5 -6 6 -1 11 2 17 5 13 3 -3 4 -12 1 -19z m293
-21 l-1 -32 -15 28 c-8 15 -12 32 -9 37 11 18 25 -1 25 -33z m2150 39 c0 -3
-4 -8 -10 -11 -5 -3 -10 -1 -10 4 0 6 5 11 10 11 6 0 10 -2 10 -4z m-1850 -10
c0 -3 -4 -8 -10 -11 -5 -3 -10 -1 -10 4 0 6 5 11 10 11 6 0 10 -2 10 -4z m266
-59 c-7 -34 -32 -74 -41 -65 -5 5 6 44 28 103 9 23 12 26 15 12 2 -11 1 -33
-2 -50z m-1161 33 c7 -23 -2 -43 -16 -35 -12 8 -12 55 0 55 5 0 12 -9 16 -20z
m1025 13 c0 -5 -4 -14 -9 -21 -6 -10 -10 -9 -14 7 -3 14 0 21 9 21 8 0 14 -3
14 -7z m2090 -3 c0 -5 -5 -10 -11 -10 -5 0 -7 5 -4 10 3 6 8 10 11 10 2 0 4
-4 4 -10z m-2045 -30 c3 -5 -8 -33 -25 -62 -32 -57 -36 -55 -19 5 6 22 14 35
21 31 6 -4 8 1 3 15 -6 21 8 30 20 11z m32 -87 c-3 -10 -5 -4 -5 12 0 17 2 24
5 18 2 -7 2 -21 0 -30z m1225 -15 c-7 -7 -12 -8 -12 -2 0 14 12 26 19 19 2 -3
-1 -11 -7 -17z m-1206 -20 c-18 -26 -22 -17 -5 14 6 11 13 17 16 15 3 -3 -2
-16 -11 -29z m1585 5 c-12 -20 -14 -14 -5 12 4 9 9 14 11 11 3 -2 0 -13 -6
-23z m281 5 c-7 -7 -12 -8 -12 -2 0 14 12 26 19 19 2 -3 -1 -11 -7 -17z m-372
-8 c0 -5 -4 -10 -10 -10 -5 0 -10 5 -10 10 0 6 5 10 10 10 6 0 10 -4 10 -10z
m412 -22 c-7 -7 -12 -8 -12 -2 0 14 12 26 19 19 2 -3 -1 -11 -7 -17z m59 -1
c-10 -9 -11 -8 -5 6 3 10 9 15 12 12 3 -3 0 -11 -7 -18z m-3179 1 c-14 -14
-16 -32 -3 -24 5 4 0 -16 -12 -44 -21 -51 -45 -72 -27 -24 6 14 8 30 5 35 -8
12 23 69 37 69 9 0 9 -3 0 -12z m309 -25 c-10 -17 -10 -16 -11 3 0 23 13 41
18 25 2 -6 -1 -18 -7 -28z m2119 33 c0 -2 -7 -9 -15 -16 -13 -11 -14 -10 -9 4
5 14 24 23 24 12z m-1123 -53 c-3 -10 -5 -2 -5 17 0 19 2 27 5 18 2 -10 2 -26
0 -35z m-1020 -15 c-4 -27 -2 -37 4 -27 7 12 9 11 9 -3 0 -10 -6 -18 -14 -18
-8 0 -17 -6 -20 -12 -6 -15 -6 59 1 85 9 36 26 17 20 -25z m2135 20 c-7 -7
-12 -8 -12 -2 0 14 12 26 19 19 2 -3 -1 -11 -7 -17z m-412 -22 c0 -3 -4 -8
-10 -11 -5 -3 -10 -1 -10 4 0 6 5 11 10 11 6 0 10 -2 10 -4z m-573 -38 c-3 -7
-5 -2 -5 12 0 14 2 19 5 13 2 -7 2 -19 0 -25z m-1397 13 c0 -5 -7 -14 -15 -21
-16 -14 -18 -10 -9 14 6 17 24 22 24 7z m2231 -14 c-10 -9 -11 -8 -5 6 3 10 9
15 12 12 3 -3 0 -11 -7 -18z m-54 -39 c-3 -8 -6 -5 -6 6 -1 11 2 17 5 13 3 -3
4 -12 1 -19z m87 0 c8 -32 6 -47 -3 -23 -7 16 -10 10 -16 -28 -10 -66 -18 -52
-10 17 8 59 19 71 29 34z m116 9 c0 -7 -7 -22 -15 -33 -13 -17 -14 -16 -4 14
11 33 19 41 19 19z m298 -24 c-16 -39 -28 -51 -28 -28 0 16 26 55 36 55 2 0
-2 -12 -8 -27z m-2748 -6 c0 -7 -9 -18 -20 -25 -23 -14 -24 -13 -10 23 10 25
30 27 30 2z m2015 -27 c-5 -23 -10 -29 -18 -21 -8 8 -7 18 3 36 17 32 24 25
15 -15z m475 31 c0 -6 -4 -13 -10 -16 -5 -3 -10 1 -10 9 0 9 5 16 10 16 6 0
10 -4 10 -9z m-330 -23 c0 -16 -3 -19 -11 -11 -6 6 -8 16 -5 22 11 17 16 13
16 -11z m-1870 -14 c0 -8 -5 -12 -10 -9 -6 4 -8 11 -5 16 9 14 15 11 15 -7z
m-296 -19 c-4 -8 -8 -15 -10 -15 -2 0 -4 7 -4 15 0 8 4 15 10 15 5 0 7 -7 4
-15z m2836 1 c0 -3 -4 -8 -10 -11 -5 -3 -10 -1 -10 4 0 6 5 11 10 11 6 0 10
-2 10 -4z m-2870 -30 c0 -8 -4 -18 -10 -21 -5 -3 -10 3 -10 14 0 12 5 21 10
21 6 0 10 -6 10 -14z m258 -12 c-2 -25 -28 -58 -28 -35 0 6 6 11 13 12 9 0 9
2 0 6 -10 3 -10 9 0 24 15 25 17 24 15 -7z m2463 3 c-10 -9 -11 -8 -5 6 3 10
9 15 12 12 3 -3 0 -11 -7 -18z m-2761 -6 c0 -24 -32 -59 -38 -42 -4 11 23 61
33 61 3 0 5 -9 5 -19z m2570 3 c0 -8 -4 -12 -10 -9 -5 3 -10 10 -10 16 0 5 5
9 10 9 6 0 10 -7 10 -16z m307 -21 c-8 -47 -28 -69 -26 -28 2 44 9 65 21 65 7
0 8 -14 5 -37z m226 22 c-3 -9 -8 -14 -10 -11 -3 3 -2 9 2 15 9 16 15 13 8 -4z
m-163 -35 c-6 -11 -15 -20 -20 -20 -14 0 -12 6 6 24 21 22 27 20 14 -4z m327
-2 c-3 -8 -6 -5 -6 6 -1 11 2 17 5 13 3 -3 4 -12 1 -19z m-3247 -19 c-7 -11
-14 -18 -17 -15 -3 3 0 12 7 21 18 21 23 19 10 -6z m177 -1 c-3 -8 -6 -5 -6 6
-1 11 2 17 5 13 3 -3 4 -12 1 -19z m2795 0 c-7 -7 -12 -8 -12 -2 0 14 12 26
19 19 2 -3 -1 -11 -7 -17z m133 3 c3 -5 1 -12 -5 -16 -5 -3 -10 1 -10 9 0 18
6 21 15 7z m65 -23 c0 -16 -3 -19 -11 -11 -6 6 -8 16 -5 22 11 17 16 13 16
-11z m38 -3 c-3 -3 -9 2 -12 12 -6 14 -5 15 5 6 7 -7 10 -15 7 -18z m-3266 -7
c-7 -7 -12 -8 -12 -2 0 14 12 26 19 19 2 -3 -1 -11 -7 -17z m2935 0 c-3 -8 -6
-5 -6 6 -1 11 2 17 5 13 3 -3 4 -12 1 -19z m-2834 -3 c-3 -9 -8 -14 -10 -11
-3 3 -2 9 2 15 9 16 15 13 8 -4z m2804 -27 c-3 -8 -6 -5 -6 6 -1 11 2 17 5 13
3 -3 4 -12 1 -19z m394 -9 c-9 -22 -10 -22 -10 -3 -1 11 2 24 6 27 12 12 14 0
4 -24z m-3283 -13 c1 -21 -23 -56 -32 -45 -3 4 22 69 27 69 1 0 4 -11 5 -24z
m279 -8 c-3 -8 -6 -5 -6 6 -1 11 2 17 5 13 3 -3 4 -12 1 -19z m-17 -8 c9 -17
7 -22 -12 -29 -29 -11 -32 -8 -24 24 8 30 21 32 36 5z m-310 -50 c0 -5 -5 -10
-11 -10 -5 0 -7 5 -4 10 3 6 8 10 11 10 2 0 4 -4 4 -10z m31 -27 c-8 -15 -10
-15 -11 -2 0 17 10 32 18 25 2 -3 -1 -13 -7 -23z m226 -5 c-3 -8 -6 -5 -6 6
-1 11 2 17 5 13 3 -3 4 -12 1 -19z m-292 -53 c-13 -28 -27 -69 -31 -92 -3 -24
-10 -43 -14 -43 -4 0 -4 19 1 43 4 23 8 47 9 52 0 12 52 96 57 92 1 -2 -9 -25
-22 -52z m5 -68 c-24 -42 -29 -46 -24 -22 4 17 16 50 27 75 17 38 21 42 24 22
3 -13 -8 -44 -27 -75z m167 -49 c-3 -8 -6 -5 -6 6 -1 11 2 17 5 13 3 -3 4 -12
1 -19z m-277 -75 c-11 -17 -11 -17 -6 0 3 10 6 24 7 30 0 9 2 9 5 0 3 -7 0
-20 -6 -30z m12 -60 c-6 -3 -10 -8 -8 -12 3 -4 -9 -23 -25 -42 -16 -19 -32
-45 -36 -59 -6 -27 -31 -60 -45 -60 -13 0 47 113 71 132 12 10 21 24 21 32 0
15 21 27 30 18 3 -2 -1 -7 -8 -9z m174 -50 c-10 -10 -19 5 -10 18 6 11 8 11
12 0 2 -7 1 -15 -2 -18z m24 -23 c0 -5 -2 -10 -4 -10 -3 0 -8 5 -11 10 -3 6
-1 10 4 10 6 0 11 -4 11 -10z m-30 -10 c0 -5 -5 -10 -11 -10 -5 0 -7 5 -4 10
3 6 8 10 11 10 2 0 4 -4 4 -10z m0 -70 c0 -5 -4 -10 -10 -10 -5 0 -10 5 -10
10 0 6 5 10 10 10 6 0 10 -4 10 -10z m-248 -37 c-11 -16 -30 -37 -42 -48 l-23
-20 7 30 c7 31 33 58 47 50 4 -3 10 -1 14 5 3 5 8 10 11 10 3 0 -3 -12 -14
-27z m218 -2 c0 -6 -4 -13 -10 -16 -5 -3 -10 1 -10 9 0 9 5 16 10 16 6 0 10
-4 10 -9z m-40 -5 c0 -3 -4 -8 -10 -11 -5 -3 -10 -1 -10 4 0 6 5 11 10 11 6 0
10 -2 10 -4z m-60 -70 c0 -2 -7 -9 -15 -16 -13 -11 -14 -10 -9 4 5 14 24 23
24 12z m-218 -58 c-7 -7 -12 -8 -12 -2 0 14 12 26 19 19 2 -3 -1 -11 -7 -17z
m265 -30 c-3 -8 -6 -5 -6 6 -1 11 2 17 5 13 3 -3 4 -12 1 -19z m-297 -7 c-5
-11 -15 -23 -22 -27 -7 -5 -8 -2 -3 7 21 37 44 55 25 20z m33 -31 c-6 -24 -23
-37 -23 -18 0 12 18 38 26 38 1 0 0 -9 -3 -20z m241 -23 c-21 -12 -30 -1 -14
18 10 13 15 13 21 3 5 -8 2 -16 -7 -21z m-73 -20 c-8 -8 -11 -7 -11 4 0 20 13
34 18 19 3 -7 -1 -17 -7 -23z m65 -37 c-17 -21 -27 -26 -32 -18 -4 6 -2 14 4
16 7 2 10 8 7 12 -3 5 5 16 17 24 32 23 35 2 4 -34z m-266 18 c0 -7 -16 -31
-35 -53 l-34 -40 3 33 c2 19 11 41 20 50 16 16 17 16 11 -3 -5 -18 -4 -18 11
3 19 25 24 27 24 10z m205 -47 c-7 -23 -25 -29 -25 -8 0 14 21 39 28 33 2 -3
1 -14 -3 -25z m-89 4 c-1 -8 -5 -17 -8 -21 -5 -4 -4 16 1 34 3 9 9 -1 7 -13z
m119 -25 c-3 -5 -10 -10 -16 -10 -5 0 -9 5 -9 10 0 6 7 10 16 10 8 0 12 -4 9
-10z m-315 -15 c0 -8 -4 -15 -10 -15 -5 0 -7 7 -4 15 4 8 8 15 10 15 2 0 4 -7
4 -15z m150 5 c0 -5 -5 -10 -11 -10 -5 0 -7 5 -4 10 3 6 8 10 11 10 2 0 4 -4
4 -10z m-118 -42 c-7 -7 -12 -8 -12 -2 0 14 12 26 19 19 2 -3 -1 -11 -7 -17z
m90 -20 c-7 -7 -12 -8 -12 -2 0 14 12 26 19 19 2 -3 -1 -11 -7 -17z m-142 -11
c0 -2 -9 -14 -20 -27 -22 -26 -27 -20 -8 10 11 17 28 27 28 17z m278 -48 c-14
-39 -18 -37 -18 12 0 35 2 40 14 30 11 -10 12 -19 4 -42z m-233 -15 c3 -29 -6
-48 -37 -73 -16 -12 -18 -11 -18 3 0 9 10 26 21 37 12 12 22 32 22 46 0 31 7
23 12 -13z m-141 -38 c-59 -70 -59 -57 0 16 16 21 31 36 34 34 2 -3 -13 -25
-34 -50z m306 24 c0 -5 -5 -10 -11 -10 -5 0 -7 5 -4 10 3 6 8 10 11 10 2 0 4
-4 4 -10z m5 -88 c-6 -16 -7 -16 -16 0 -6 11 -5 26 3 45 l12 28 4 -28 c2 -16
1 -36 -3 -45z m-54 11 c-12 -20 -14 -14 -5 12 4 9 9 14 11 11 3 -2 0 -13 -6
-23z m-219 -42 c-2 -17 -11 -36 -19 -42 -18 -16 -36 1 -23 21 7 11 10 11 10 2
0 -7 5 -10 10 -7 6 4 10 12 9 18 -3 26 1 48 9 43 5 -3 7 -19 4 -35z m-112 -14
c0 -2 -10 -12 -22 -23 l-23 -19 19 23 c18 21 26 27 26 19z m26 -51 c-8 -20
-16 -40 -16 -44 -3 -14 -33 -41 -41 -36 -5 3 -9 -1 -9 -8 0 -8 -16 -43 -35
-78 -19 -36 -35 -72 -35 -81 0 -9 -18 -28 -40 -43 l-40 -26 19 51 c26 68 82
159 98 159 7 0 13 3 13 8 0 4 10 23 22 42 12 19 22 38 23 42 0 3 4 10 9 15 5
5 6 2 1 -6 -5 -10 -4 -12 4 -7 6 4 9 12 5 17 -3 6 2 19 12 30 24 27 29 10 10
-35z m44 -21 c-7 -9 -15 -13 -17 -11 -7 7 7 26 19 26 6 0 6 -6 -2 -15z m14
-49 c-6 -16 -24 -23 -24 -8 0 10 22 33 27 28 2 -2 1 -11 -3 -20z m-74 -9 c0
-2 -10 -12 -22 -23 l-23 -19 19 23 c18 21 26 27 26 19z m240 -67 c0 -13 -1
-13 -10 0 -5 8 -10 22 -10 30 0 13 1 13 10 0 5 -8 10 -22 10 -30z m-220 22 c0
-16 -38 -44 -42 -31 -2 6 -16 -7 -31 -30 -39 -58 -43 -51 -6 10 23 36 34 47
40 38 6 -11 9 -10 15 4 6 17 24 24 24 9z m-19 -85 c-10 -9 -11 -8 -5 6 3 10 9
15 12 12 3 -3 0 -11 -7 -18z m-41 -12 c0 -8 -7 -15 -16 -15 -14 0 -14 3 -4 15
7 8 14 15 16 15 2 0 4 -7 4 -15z m30 -15 c0 -5 -5 -10 -11 -10 -5 0 -7 5 -4
10 3 6 8 10 11 10 2 0 4 -4 4 -10z m-45 -29 c-3 -6 -11 -11 -17 -11 -6 0 -6 6
2 15 14 17 26 13 15 -4z m220 -40 c-13 -14 -28 -21 -32 -17 -4 5 -2 11 5 13 7
3 18 17 23 31 8 21 12 23 19 12 7 -11 2 -22 -15 -39z m-225 -55 c0 -3 -4 -8
-10 -11 -5 -3 -10 -1 -10 4 0 6 5 11 10 11 6 0 10 -2 10 -4z"/>
<path d="M2940 7040 c-8 -5 -12 -12 -9 -15 4 -3 12 1 19 10 14 17 11 19 -10 5z"/>
<path d="M2470 5150 c-9 -6 -10 -10 -3 -10 6 0 15 5 18 10 8 12 4 12 -15 0z"/>
<path d="M3319 3563 c-13 -16 -12 -17 4 -4 16 13 21 21 13 21 -2 0 -10 -8 -17
-17z"/>
<path d="M5803 3018 c-15 -20 -25 -38 -20 -38 3 0 12 11 21 25 17 26 16 35 -1
13z"/>
<path d="M4467 2963 c-4 -3 -7 -11 -7 -17 0 -6 5 -5 12 2 6 6 9 14 7 17 -3 3
-9 2 -12 -2z"/>
<path d="M5475 2749 c-4 -6 -5 -12 -2 -15 2 -3 7 2 10 11 7 17 1 20 -8 4z"/>
<path d="M2495 5740 c-3 -6 1 -7 9 -4 18 7 21 14 7 14 -6 0 -13 -4 -16 -10z"/>
<path d="M5447 2023 c-4 -3 -7 -11 -7 -17 0 -6 5 -5 12 2 6 6 9 14 7 17 -3 3
-9 2 -12 -2z"/>
<path d="M4659 333 c-13 -16 -12 -17 4 -4 16 13 21 21 13 21 -2 0 -10 -8 -17
-17z"/>
<path d="M5100 7120 c-8 -5 -12 -12 -9 -15 4 -3 12 1 19 10 14 17 11 19 -10 5z"/>
<path d="M5055 7100 c-3 -6 1 -7 9 -4 18 7 21 14 7 14 -6 0 -13 -4 -16 -10z"/>
<path d="M5094 7034 c-18 -14 -18 -14 6 -3 31 14 36 19 24 19 -6 0 -19 -7 -30
-16z"/>
<path d="M5297 6903 c-4 -3 -7 -13 -7 -22 1 -13 3 -13 11 2 11 19 8 33 -4 20z"/>
<path d="M5819 6515 c-3 -2 -16 -6 -29 -8 -22 -3 -43 -28 -23 -27 13 1 79 39
67 40 -6 0 -13 -2 -15 -5z"/>
<path d="M5999 6343 c-13 -16 -12 -17 4 -4 16 13 21 21 13 21 -2 0 -10 -8 -17
-17z"/>
<path d="M6026 6125 c-9 -26 -7 -32 5 -12 6 10 9 21 6 23 -2 3 -7 -2 -11 -11z"/>
<path d="M6195 5953 c-11 -3 -24 -10 -30 -15 -12 -13 35 0 50 13 5 5 7 8 5 8
-3 -1 -14 -3 -25 -6z"/>
<path d="M6275 5790 c-13 -6 -15 -9 -5 -9 8 0 22 4 30 9 18 12 2 12 -25 0z"/>
<path d="M6327 5293 c-4 -3 -7 -11 -7 -17 0 -6 5 -5 12 2 6 6 9 14 7 17 -3 3
-9 2 -12 -2z"/>
<path d="M2081 4572 c-6 -12 -11 -27 -11 -34 1 -7 8 0 16 15 9 16 13 31 11 34
-3 2 -10 -4 -16 -15z"/>
<path d="M6469 4543 l-24 -28 28 24 c15 14 27 26 27 28 0 8 -8 1 -31 -24z"/>
<path d="M6462 4234 c-24 -14 -41 -28 -38 -32 3 -3 14 2 23 10 10 9 32 23 48
31 17 9 26 16 20 17 -5 0 -29 -12 -53 -26z"/>
<path d="M8641 3401 c-6 -11 -17 -18 -25 -15 -7 3 -19 -3 -26 -13 -12 -15 -12
-16 0 -5 17 14 34 16 25 2 -3 -5 -2 -10 3 -10 12 0 46 50 39 57 -3 2 -10 -5
-16 -16z"/>
<path d="M8419 3301 c-9 -9 -24 -21 -35 -28 -15 -9 -12 -9 13 0 18 6 35 18 38
26 8 20 3 20 -16 2z"/>
<path d="M8369 3293 c-13 -16 -12 -17 4 -4 16 13 21 21 13 21 -2 0 -10 -8 -17
-17z"/>
<path d="M7711 3209 c-25 -24 -22 -36 6 -20 10 6 14 11 9 11 -5 0 -3 7 4 15
18 22 7 18 -19 -6z"/>
<path d="M7561 3154 c0 -11 3 -14 6 -6 3 7 2 16 -1 19 -3 4 -6 -2 -5 -13z"/>
<path d="M6155 2729 c-4 -6 -5 -12 -2 -15 2 -3 7 2 10 11 7 17 1 20 -8 4z"/>
<path d="M8127 1773 c-4 -3 -7 -11 -7 -17 0 -6 5 -5 12 2 6 6 9 14 7 17 -3 3
-9 2 -12 -2z"/>
</g>
</svg>
