<?xml version="1.0" standalone="no"?>
<!DOCTYPE svg PUBLIC "-//W3C//DTD SVG 20010904//EN"
 "http://www.w3.org/TR/2001/REC-SVG-20010904/DTD/svg10.dtd">
<svg version="1.0" xmlns="http://www.w3.org/2000/svg"
 width="1280.000000pt" height="367.000000pt" viewBox="0 0 1280.000000 367.000000"
 preserveAspectRatio="xMidYMid meet">
<metadata>
Created by potrace 1.15, written by Peter Selinger 2001-2017
</metadata>
<g transform="translate(0.000000,367.000000) scale(0.100000,-0.100000)"
fill="#009688" stroke="none">
<path d="M9830 2719 c0 -5 -4 -8 -9 -5 -5 3 -15 -2 -22 -12 -13 -15 -12 -16 4
-3 15 12 17 11 14 -7 -2 -12 -7 -25 -12 -29 -4 -5 -5 -2 -1 5 13 22 -6 12 -35
-19 -16 -18 -33 -29 -36 -25 -4 3 7 20 23 37 28 30 28 31 4 18 -14 -7 -29 -12
-33 -11 -5 1 -6 -2 -2 -8 3 -5 1 -10 -5 -10 -6 0 -15 -10 -20 -22 -7 -19 -9
-20 -9 -5 -1 10 4 27 9 38 6 10 8 19 5 19 -3 0 -22 -34 -40 -75 -19 -41 -40
-75 -46 -75 -11 0 -10 14 7 86 6 27 5 28 -8 10 -9 -11 -14 -27 -12 -35 5 -22
-26 -56 -59 -65 -34 -8 -34 0 1 37 23 25 24 28 5 18 -12 -6 -25 -16 -28 -21
-3 -6 -16 -10 -28 -10 -12 0 -29 -5 -37 -11 -12 -9 -10 -10 8 -6 23 5 23 5 7
-13 -10 -11 -22 -17 -27 -14 -4 3 -7 1 -6 -4 3 -8 -67 -72 -78 -72 -2 0 1 12
7 27 10 28 96 113 114 113 5 0 21 10 35 21 15 13 -1 7 -42 -14 -65 -33 -81
-36 -58 -9 6 6 -8 -6 -31 -28 -23 -22 -44 -38 -47 -36 -2 3 3 12 12 21 9 9 16
19 17 23 0 4 2 15 4 25 2 9 0 17 -4 17 -9 0 -49 -41 -53 -55 -2 -5 -7 -10 -13
-10 -15 -1 -68 -27 -87 -43 -22 -19 -22 -14 -2 27 22 45 11 50 -16 6 -12 -19
-26 -32 -31 -29 -6 3 -20 -2 -31 -13 -21 -18 -21 -18 -9 4 6 12 16 25 21 28 5
3 15 16 21 28 10 18 7 17 -14 -5 -14 -16 -31 -28 -37 -28 -18 0 -11 33 12 58
l23 23 -28 -10 c-22 -9 -26 -8 -20 2 10 16 32 77 27 77 -2 0 -17 -29 -33 -64
-21 -48 -36 -67 -60 -77 -31 -14 -65 -65 -54 -83 3 -5 1 -6 -5 -2 -17 11 -14
35 11 87 l23 47 -25 -16 c-24 -16 -25 -16 -18 3 7 20 7 20 -8 0 -9 -11 -23
-29 -33 -40 -9 -11 -16 -23 -14 -27 1 -5 -1 -7 -6 -6 -4 1 -18 -4 -31 -11 -22
-12 -23 -12 -16 5 4 11 8 24 8 31 0 6 5 9 11 7 6 -2 17 6 25 18 13 21 13 22
-3 9 -21 -17 -56 -22 -56 -8 0 6 7 18 15 27 13 15 13 17 0 17 -8 0 -15 -4 -15
-9 0 -5 -16 -26 -35 -46 -19 -20 -42 -46 -50 -57 -13 -19 -14 -19 -8 4 l6 25
-23 -22 c-13 -12 -27 -22 -31 -22 -14 0 13 75 34 98 14 14 17 22 8 20 -8 -2
-28 -19 -46 -38 -20 -20 -43 -35 -58 -35 -14 -1 -33 -7 -41 -14 -14 -12 -16
-10 -17 10 0 15 -3 18 -6 9 -3 -8 -12 -21 -21 -27 -19 -15 -56 -17 -47 -3 3 6
2 10 -4 10 -5 0 -13 -9 -16 -20 -4 -11 -10 -18 -14 -15 -16 9 -2 80 28 139 19
37 23 51 11 36 -11 -14 -31 -53 -46 -87 -24 -57 -28 -61 -47 -51 -29 15 -225
10 -260 -7 -27 -13 -28 -13 -22 8 3 12 -12 -11 -32 -52 -27 -53 -47 -80 -70
-93 -41 -22 -43 -6 -3 24 17 12 30 28 30 35 0 8 -7 6 -20 -7 -11 -11 -25 -20
-30 -20 -18 0 -37 -24 -33 -40 2 -9 -5 -24 -16 -34 -17 -15 -21 -16 -21 -5 0
8 5 20 12 27 6 6 13 23 14 38 2 15 17 50 34 77 17 28 24 45 16 38 -9 -7 -31
-44 -49 -81 -20 -39 -54 -85 -81 -110 -25 -23 -46 -41 -46 -38 0 7 41 122 51
143 9 18 9 18 -4 3 -7 -9 -33 -67 -58 -128 -42 -107 -45 -112 -86 -131 -49
-22 -67 -24 -57 -6 4 6 -6 0 -22 -14 -52 -47 -98 -74 -154 -91 -71 -23 -73
-23 -55 6 10 15 12 26 6 30 -6 4 -18 -5 -27 -19 -9 -14 -23 -25 -31 -25 -13 0
-13 2 -2 17 12 15 12 16 -5 10 -14 -6 -17 -4 -12 10 5 15 3 14 -9 -2 -9 -11
-24 -21 -33 -21 -9 -1 -24 -5 -34 -9 -21 -8 -20 27 2 37 13 6 13 7 -1 7 -8 1
-24 -6 -35 -14 -23 -17 -38 -19 -28 -3 4 6 3 8 -4 4 -5 -3 -13 0 -15 6 -4 10
-6 10 -6 0 -1 -14 -34 -29 -83 -37 -39 -7 -50 -14 -43 -26 3 -5 -1 -6 -10 -3
-14 6 -13 10 7 33 12 14 6 10 -15 -8 -29 -27 -37 -31 -37 -17 0 9 5 26 10 37
16 30 5 23 -41 -23 -35 -36 -39 -38 -24 -13 18 29 17 29 -23 -7 -44 -40 -64
-50 -41 -21 8 10 -1 5 -19 -10 -69 -56 -73 -17 -4 44 26 24 36 35 22 26 -47
-32 -60 -38 -60 -28 0 5 7 17 16 25 14 15 14 16 -2 16 -16 0 -16 1 1 20 29 32
3 23 -35 -13 -37 -34 -84 -67 -97 -67 -4 0 11 19 32 41 22 23 31 37 20 31 -12
-6 -42 -33 -68 -61 l-47 -50 5 32 c3 18 8 41 10 52 3 11 -4 2 -14 -20 -11 -22
-20 -48 -20 -57 -1 -9 -6 -20 -12 -24 -12 -7 -9 43 5 106 4 15 -2 9 -14 -15
-11 -22 -20 -53 -20 -70 0 -16 -5 -37 -10 -45 -10 -16 -5 74 6 91 3 5 2 9 -3
9 -4 -1 -21 -28 -38 -61 -16 -34 -39 -65 -49 -71 -15 -8 -18 -7 -13 5 4 12 0
15 -16 11 -16 -3 -8 9 31 45 35 32 47 48 33 44 -12 -3 -24 -9 -27 -14 -3 -5
-10 -9 -15 -9 -6 0 -7 4 -4 10 11 18 -8 11 -32 -12 -31 -29 -42 -14 -19 25
l18 32 -26 -24 c-14 -14 -25 -29 -24 -35 3 -18 -13 -56 -23 -56 -5 0 -2 11 7
25 10 15 12 25 5 25 -11 0 18 59 47 95 9 11 -3 2 -26 -20 -43 -40 -51 -51 -29
-39 17 9 -41 -41 -79 -68 -18 -12 -39 -33 -49 -47 -11 -18 -14 -19 -9 -6 4 11
7 31 8 44 1 13 16 36 36 53 38 34 23 29 -27 -8 -17 -13 -34 -24 -37 -24 -7 0
14 62 26 77 6 8 4 11 -9 9 -10 -2 -21 2 -25 8 -5 7 -8 5 -8 -6 0 -10 -20 -27
-50 -42 -27 -14 -50 -22 -50 -18 0 3 -7 -4 -16 -16 -8 -12 -20 -22 -26 -22 -6
0 -7 5 -2 13 5 7 -2 0 -16 -16 -24 -27 -26 -27 -27 -7 -1 12 5 24 13 27 7 3
11 9 8 15 -3 5 4 22 17 36 13 15 5 10 -17 -11 -24 -22 -44 -34 -48 -29 -3 6
-2 13 4 17 6 4 8 11 4 16 -3 5 14 18 38 29 24 11 37 20 30 20 -19 0 -183 -76
-176 -83 3 -3 -4 -11 -16 -17 -18 -10 -21 -9 -15 1 6 9 3 11 -11 6 -11 -4 -6
3 11 15 16 13 37 30 47 40 9 9 18 14 20 12 3 -2 5 3 5 11 0 8 -5 11 -11 8 -33
-19 -114 -79 -129 -97 l-18 -21 7 25 c3 14 13 39 21 55 l14 30 -26 -30 c-13
-16 -32 -45 -41 -63 -10 -21 -21 -32 -29 -28 -8 3 -16 0 -19 -7 -3 -9 -5 -8
-5 1 -1 7 6 15 14 18 9 4 21 16 27 27 10 20 10 20 -17 -1 -16 -12 -30 -21 -32
-18 -4 4 29 46 65 81 23 23 23 23 2 18 -12 -3 -24 -12 -27 -19 -5 -14 -64 -54
-78 -54 -4 0 0 11 9 25 9 14 12 25 7 25 -5 0 -12 -4 -16 -9 -12 -20 -98 -72
-92 -57 7 18 -1 20 -23 6 -12 -8 -12 -10 -1 -10 10 0 11 -4 3 -12 -6 -7 -10
-16 -9 -20 1 -3 -2 -10 -7 -15 -5 -5 -6 -3 -2 5 9 15 -6 16 -22 0 -8 -8 -12
-8 -12 -1 0 6 7 16 15 23 8 7 15 18 15 25 0 7 28 43 63 81 34 38 47 57 30 42
-18 -14 -52 -48 -75 -75 -23 -26 -46 -47 -51 -45 -4 1 -6 -2 -2 -8 3 -5 -1
-10 -9 -10 -9 0 -26 -10 -38 -22 -13 -13 -23 -17 -26 -10 -6 19 29 70 87 128
13 13 19 24 14 24 -6 0 -16 -7 -23 -15 -7 -8 -16 -15 -20 -15 -15 0 -154 -83
-181 -107 -14 -12 -31 -23 -38 -23 -7 0 -9 -4 -6 -10 3 -6 -1 -7 -9 -4 -9 3
-16 7 -16 9 0 1 18 15 40 30 22 15 38 30 36 33 -3 2 -19 -6 -36 -18 -17 -12
-34 -20 -36 -17 -6 5 20 47 61 97 11 14 -1 4 -27 -22 -52 -55 -73 -62 -57 -22
16 43 3 39 -17 -5 -10 -23 -25 -41 -33 -41 -12 0 -13 -2 -3 -9 10 -6 10 -10
-2 -20 -12 -11 -15 -9 -14 11 1 13 9 32 17 42 9 11 10 16 4 12 -16 -9 -17 21
-3 58 5 14 7 26 5 26 -9 0 -32 -55 -28 -67 2 -7 -1 -20 -7 -30 -9 -16 -10 -15
-6 7 3 14 3 19 0 13 -3 -7 -15 -13 -26 -13 -10 0 -40 -12 -66 -26 -39 -21 -43
-22 -23 -5 13 12 19 21 15 21 -5 0 0 8 11 16 19 15 19 15 -10 8 -16 -4 -33
-12 -37 -18 -9 -14 -58 -15 -58 -1 0 6 5 16 11 22 9 9 6 10 -10 6 -12 -3 -24
-9 -27 -14 -11 -18 -25 -8 -19 14 l7 22 -17 -22 c-15 -22 -45 -32 -45 -15 0 4
14 32 31 62 16 30 24 48 16 40 -8 -8 -25 -35 -38 -60 -13 -25 -32 -55 -43 -67
-13 -16 -15 -23 -7 -23 11 0 11 -3 1 -15 -7 -8 -17 -15 -22 -15 -6 0 -5 7 2
15 17 20 1 19 -22 -2 -11 -9 -18 -11 -18 -5 0 7 3 12 8 12 4 0 18 10 32 21 21
17 22 20 5 15 -17 -5 -16 -3 5 14 20 16 21 19 5 13 -20 -7 -20 -7 -1 22 13 21
1 13 -39 -25 -32 -30 -66 -63 -76 -73 -23 -21 -47 -24 -30 -4 6 8 8 17 5 20
-4 4 1 18 10 31 24 38 20 41 -18 12 -37 -28 -55 -34 -38 -13 7 8 7 18 2 27 -8
13 -10 13 -10 -1 0 -9 -8 -23 -17 -30 -15 -13 -16 -12 -11 9 4 12 2 22 -3 22
-5 0 -9 -9 -9 -19 0 -11 -5 -23 -10 -26 -6 -4 -8 -11 -5 -16 3 -5 -1 -6 -9 -3
-9 3 -16 1 -16 -6 0 -6 -5 -8 -11 -5 -7 5 -2 17 13 33 15 17 16 21 4 12 -18
-14 -18 -13 -11 10 4 14 10 31 13 39 3 9 1 12 -6 7 -7 -4 -12 -13 -12 -21 0
-8 -5 -26 -12 -42 -6 -15 -10 -34 -9 -40 1 -7 -3 -13 -9 -13 -5 0 -9 6 -7 13
1 6 -4 11 -11 10 -17 -4 -15 4 14 56 14 25 18 37 9 26 -10 -11 -30 -47 -46
-80 -16 -33 -29 -56 -29 -51 0 6 -5 5 -12 -2 -19 -19 -28 -14 -19 11 9 23 11
31 11 45 0 5 21 31 48 57 38 39 41 44 14 26 -18 -13 -39 -21 -46 -18 -8 3 -18
1 -24 -5 -8 -8 -9 -4 -5 13 4 16 2 21 -5 14 -5 -5 -12 -19 -14 -29 -1 -11 -10
-22 -18 -24 -13 -4 -13 -3 -2 11 8 9 11 21 8 26 -4 5 -2 12 4 16 5 3 10 11 10
17 0 6 -8 4 -18 -5 -10 -10 -23 -17 -29 -17 -5 0 -15 -10 -21 -22 -9 -20 -11
-20 -11 -5 -1 15 -11 9 -48 -27 -26 -24 -49 -43 -51 -41 -6 6 40 105 49 105 5
0 9 4 9 9 0 6 -12 3 -27 -5 -38 -19 -49 -18 -32 4 8 10 4 7 -9 -6 -13 -13 -25
-23 -27 -20 -2 2 7 35 20 73 13 38 17 62 10 52 -7 -9 -20 -42 -30 -72 -9 -30
-21 -53 -26 -49 -5 3 -9 -2 -9 -10 0 -8 -9 -20 -20 -26 -18 -10 -19 -9 -10 17
9 26 9 27 -5 9 -8 -11 -15 -25 -15 -32 0 -7 -17 -18 -37 -25 -21 -6 -43 -16
-50 -21 -7 -6 -18 -6 -28 -1 -15 9 -15 11 0 23 13 11 15 10 9 -3 -5 -14 -2
-14 20 -4 25 12 41 35 32 45 -3 2 -23 -3 -46 -12 -22 -9 -40 -12 -40 -7 0 9
46 52 110 104 l35 29 -34 -19 c-19 -10 -64 -46 -99 -80 -76 -74 -99 -82 -45
-16 34 42 35 45 11 29 -15 -10 -26 -22 -23 -26 3 -4 -3 -14 -12 -21 -15 -12
-16 -12 -10 4 4 11 3 16 -3 12 -6 -3 -10 2 -10 13 0 11 17 31 40 47 50 35 52
44 3 14 -31 -19 -36 -20 -30 -5 4 10 3 15 -3 11 -6 -3 -10 -13 -10 -21 0 -13
-13 -19 -35 -14 -5 1 -7 -1 -3 -5 3 -4 -1 -15 -10 -26 -9 -11 -17 -23 -17 -27
-1 -16 -17 -31 -29 -26 -8 3 -12 16 -9 32 2 17 -1 13 -9 -12 -7 -21 -23 -45
-36 -54 -23 -15 -23 -15 -16 14 3 16 12 39 20 51 10 16 10 23 2 25 -7 3 5 13
27 24 21 10 41 25 43 33 3 8 -8 4 -27 -10 -27 -20 -33 -21 -41 -9 -9 13 -10
13 -10 0 -1 -14 -81 -68 -123 -83 -9 -4 -17 -11 -17 -17 0 -5 -5 -10 -11 -10
-7 0 -4 11 6 27 l18 28 -21 -19 c-12 -11 -22 -14 -22 -8 0 17 47 45 61 36 7
-4 9 -3 5 4 -3 6 3 14 15 17 11 4 18 9 16 12 -3 2 -19 -3 -37 -12 -41 -21 -46
-15 -18 21 12 16 15 23 7 17 -9 -7 -19 -10 -22 -6 -4 3 -7 2 -7 -3 0 -5 -10
-25 -22 -44 -12 -19 -22 -43 -23 -53 -2 -24 -25 -47 -25 -26 0 9 3 19 7 22 3
4 7 19 9 34 2 28 2 28 -13 -4 -17 -34 -43 -51 -43 -28 0 24 32 139 47 170 9
17 10 25 4 19 -7 -6 -25 -44 -40 -85 -29 -76 -81 -173 -81 -152 0 7 9 29 21
50 l21 38 -27 -27 c-27 -29 -42 -37 -29 -16 5 7 9 21 9 30 2 16 0 16 -14 3
-18 -15 -61 -17 -61 -2 0 15 61 67 79 67 13 0 13 2 2 9 -11 7 -10 11 5 20 11
6 13 11 6 11 -6 0 -21 -9 -32 -20 -21 -21 -90 -63 -90 -55 0 2 17 16 37 30 70
47 15 25 -75 -30 -101 -62 -124 -69 -72 -23 22 19 28 28 15 24 -16 -6 -14 -1
9 23 l29 30 -42 -21 c-22 -11 -41 -26 -41 -34 0 -8 -12 -19 -26 -24 -36 -14
-39 -13 -19 10 20 22 8 28 -14 7 -11 -10 -13 -8 -8 11 7 30 1 28 -17 -5 -8
-16 -15 -22 -16 -14 0 11 -3 11 -16 1 -8 -8 -27 -15 -42 -16 -26 -3 -25 -1 18
38 l45 42 -37 -23 c-34 -20 -37 -21 -31 -4 6 15 4 16 -9 5 -9 -7 -19 -23 -22
-36 -3 -13 -15 -26 -26 -29 -11 -3 -24 -17 -30 -32 -6 -15 -13 -26 -16 -23
-11 12 20 64 74 121 54 58 44 56 -23 -5 -16 -15 -42 -28 -56 -30 -15 -2 -33
-9 -40 -15 -11 -9 -14 -6 -16 15 -1 15 4 33 9 40 6 7 8 15 5 19 -4 3 -12 -6
-18 -21 -17 -37 -28 -32 -24 12 3 32 2 31 -7 -10 -8 -33 -18 -49 -35 -57 -14
-7 -23 -7 -23 -1 0 6 4 10 8 10 4 0 8 9 9 21 2 18 0 18 -19 -6 -11 -14 -23
-24 -25 -21 -3 3 -14 -5 -25 -17 l-19 -22 10 22 c14 27 14 36 1 28 -5 -3 -10
-1 -10 5 0 6 10 8 24 4 19 -4 27 1 45 33 l21 38 -23 -27 c-23 -29 -66 -38 -68
-15 0 6 -7 -6 -15 -27 -15 -42 -34 -69 -42 -61 -3 3 -12 0 -19 -7 -11 -9 -16
-9 -23 1 -6 10 -10 9 -19 -5 -9 -17 -10 -17 -11 -1 0 15 12 22 24 15 6 -4 46
34 46 44 0 5 -10 2 -22 -6 -31 -22 -45 -20 -24 3 17 19 17 19 -1 15 -11 -3
-24 -19 -31 -36 -6 -18 -15 -29 -18 -25 -4 4 -2 13 5 21 7 8 8 15 2 18 -5 1
-1 21 10 43 l19 40 -25 -30 c-14 -16 -25 -37 -25 -46 0 -8 -16 -30 -35 -49
-19 -19 -35 -29 -35 -23 0 7 8 18 18 25 10 7 22 20 27 28 7 12 6 13 -6 4 -12
-10 -49 -16 -49 -8 0 2 17 15 37 29 21 14 33 25 28 25 -6 0 -21 -7 -33 -16
-12 -8 -22 -10 -22 -5 0 6 9 16 20 23 11 7 20 16 20 20 0 8 -27 4 -36 -5 -4
-4 -12 -7 -18 -7 -6 0 5 14 24 31 l35 31 -45 -30 c-25 -17 -65 -46 -89 -66
-24 -20 -47 -36 -52 -36 -13 0 -6 44 10 64 20 24 -4 21 -42 -6 l-30 -22 6 30
c3 16 9 37 13 48 5 13 3 17 -6 14 -7 -2 -14 -13 -15 -24 -4 -47 -17 -64 -57
-74 -22 -6 -43 -9 -46 -6 -3 3 -14 -2 -25 -11 -19 -18 -20 -18 -3 14 9 18 30
48 46 67 35 40 40 58 8 29 -13 -11 -66 -42 -118 -68 -52 -26 -99 -51 -104 -56
-6 -5 -17 -9 -25 -9 -12 1 -10 6 8 20 33 28 13 25 -31 -5 -26 -17 -38 -21 -42
-12 -5 12 -14 4 -43 -40 -11 -16 -12 -14 -7 12 4 17 14 37 23 45 9 8 23 24 31
35 11 15 8 14 -13 -4 -30 -27 -36 -13 -12 29 23 40 17 49 -6 10 -12 -19 -26
-38 -32 -41 -5 -4 -7 -14 -4 -23 4 -9 2 -15 -3 -13 -5 1 -15 -7 -24 -18 -14
-19 -15 -19 -12 7 1 15 7 33 13 40 5 7 14 20 18 28 7 12 6 13 -7 3 -8 -7 -18
-10 -21 -7 -3 4 -9 -5 -12 -19 -8 -29 -35 -58 -35 -37 0 7 -9 2 -20 -11 -25
-31 -26 -19 -1 22 13 21 21 26 25 17 4 -9 5 -9 4 2 -3 25 29 75 84 130 53 53
53 54 9 19 -25 -18 -66 -63 -93 -100 -26 -36 -60 -71 -74 -78 -23 -10 -26 -9
-21 4 12 29 -4 15 -19 -17 l-15 -33 5 45 c3 25 8 56 11 70 4 14 3 20 -2 15 -4
-6 -24 -22 -43 -35 l-35 -25 22 30 c41 54 48 62 71 74 13 7 21 15 18 18 -3 3
-36 -17 -73 -44 -76 -56 -112 -77 -120 -69 -3 2 17 16 44 31 26 14 39 23 28
19 -60 -20 -62 -19 -35 12 20 23 17 22 -13 -5 -20 -19 -37 -31 -37 -26 0 4
-10 -4 -23 -19 -16 -18 -29 -25 -40 -20 -9 3 -14 11 -11 16 4 6 10 5 16 -3 8
-11 9 -10 4 4 -3 9 -1 17 3 17 5 0 12 7 15 16 6 15 4 15 -11 3 -10 -7 -33 -27
-51 -43 -24 -23 -31 -26 -26 -12 5 12 4 17 -2 13 -7 -4 -9 6 -6 26 3 18 1 29
-3 25 -4 -4 -9 -24 -12 -45 -5 -39 -22 -80 -23 -55 0 9 -8 7 -26 -7 -26 -21
-54 -28 -54 -14 0 4 17 25 38 47 l37 40 -48 -38 c-26 -20 -47 -34 -47 -29 0 4
12 28 25 52 14 25 19 38 10 31 -8 -7 -24 -32 -35 -56 -21 -49 -34 -58 -24 -17
11 44 32 76 66 106 l33 29 -32 -22 c-38 -25 -41 -15 -13 35 11 20 16 34 10 30
-6 -4 -22 -33 -37 -66 -14 -32 -31 -60 -37 -61 -6 0 -15 -2 -21 -2 -5 -1 -17
-6 -25 -11 -13 -8 -13 -6 -2 8 8 9 18 15 22 14 4 -1 9 3 10 8 1 6 6 16 12 23
7 8 7 12 0 12 -6 0 -32 -25 -59 -55 -26 -30 -52 -55 -57 -55 -5 0 -2 8 5 17
12 14 12 15 0 9 -18 -11 -8 20 30 96 16 32 23 55 16 53 -15 -7 -57 -67 -57
-84 0 -7 -3 -10 -7 -8 -5 3 -9 -6 -9 -19 -2 -33 -24 -84 -36 -84 -5 0 -4 9 2
19 5 11 15 32 20 48 l10 28 -18 -24 c-10 -13 -24 -39 -31 -57 -7 -19 -24 -47
-37 -61 l-25 -27 10 28 c14 34 14 49 1 41 -5 -3 -10 -2 -10 3 0 5 8 12 18 15
11 2 21 14 24 25 4 15 2 19 -8 15 -19 -7 -17 4 9 58 l23 47 -30 -21 c-17 -12
-41 -30 -53 -40 -12 -11 -26 -16 -31 -13 -5 3 -15 -1 -22 -9 -6 -7 -19 -11
-28 -8 -13 4 -14 3 -3 -5 11 -8 11 -11 0 -16 -8 -3 -3 -4 11 -2 23 5 21 2 -15
-30 -37 -34 -62 -32 -34 2 13 16 21 44 13 44 -3 0 -18 -7 -34 -15 -37 -19 -37
-14 0 44 28 41 28 43 4 16 -51 -58 -64 -75 -58 -75 11 0 -19 -31 -40 -42 -18
-9 -18 -7 4 17 l25 28 -27 -18 -28 -17 5 48 c6 63 14 86 27 78 6 -4 8 -2 5 3
-4 6 7 16 23 23 17 7 29 15 26 17 -2 2 -18 -3 -35 -12 -17 -8 -31 -13 -31 -9
0 3 -17 -7 -37 -23 -58 -45 -68 -50 -59 -27 4 12 -2 8 -16 -10 -13 -15 -35
-42 -50 -60 -27 -30 -28 -30 -24 -6 2 14 9 24 16 22 6 -1 9 2 6 7 -4 5 2 12
11 14 17 4 17 5 0 6 -10 0 -27 -4 -38 -9 -10 -6 -19 -7 -19 -2 0 5 17 16 37
25 l38 15 -34 -5 c-31 -6 -33 -5 -26 18 4 13 14 36 22 52 19 37 9 34 -16 -5
-28 -46 -62 -83 -88 -96 -29 -16 -46 -15 -37 1 4 6 -6 -3 -23 -20 -29 -31 -51
-44 -39 -24 4 5 1 11 -5 13 -6 2 -2 16 11 33 21 29 21 29 -6 -2 -16 -17 -37
-42 -47 -55 -18 -23 -18 -23 -1 4 25 42 8 34 -25 -12 -15 -21 -31 -36 -35 -32
-4 3 -4 -1 -1 -9 3 -9 -1 -22 -10 -29 -30 -25 -26 -2 9 66 26 48 30 62 16 49
-11 -10 -20 -23 -20 -30 0 -7 -10 -20 -22 -31 l-21 -19 19 30 c16 26 17 28 1
16 -22 -17 -22 -3 0 21 9 10 11 18 5 18 -22 0 -52 -58 -52 -100 0 -25 4 -39
10 -35 7 4 7 -3 0 -20 -6 -15 -10 -99 -10 -188 0 -135 3 -168 18 -196 9 -19
22 -33 27 -32 10 2 10 12 -1 61 -3 14 -7 45 -9 70 l-4 45 8 -42 c12 -66 22
-63 15 5 -5 49 -4 64 10 77 12 13 16 13 16 3 0 -8 7 -38 15 -66 16 -52 35 -70
35 -33 0 22 13 34 24 23 4 -4 21 -7 37 -8 26 -1 29 2 29 27 0 16 5 29 10 29 6
0 11 15 11 33 1 31 1 31 9 -7 4 -21 5 -47 3 -58 -3 -10 0 -18 6 -18 6 0 11
-13 11 -30 0 -34 19 -41 27 -10 6 23 21 26 29 6 3 -8 14 -14 24 -13 13 1 16 5
10 17 -8 16 -14 68 -11 110 2 34 19 13 23 -30 l4 -35 8 43 c5 23 12 42 17 42
5 0 9 11 9 24 0 13 7 29 16 37 13 11 14 9 8 -17 -4 -16 -10 -33 -14 -39 -12
-16 -19 -85 -9 -85 5 0 9 5 9 12 0 6 9 3 20 -7 20 -18 20 -17 20 21 0 21 5 46
11 54 8 11 9 4 5 -27 -4 -24 -2 -44 4 -48 6 -4 10 6 10 24 0 16 4 32 9 36 12
7 23 -28 15 -49 -3 -9 -2 -16 2 -16 5 0 8 -28 7 -62 0 -35 1 -49 3 -33 11 76
12 78 39 61 23 -15 43 -7 31 12 -2 4 -1 14 5 22 6 11 9 5 9 -21 0 -51 11 -99
22 -99 5 0 7 8 4 18 -8 28 -19 167 -12 161 3 -3 15 -41 26 -84 32 -124 49
-124 24 0 -2 11 -1 14 2 8 10 -22 22 -14 18 10 -3 13 1 9 10 -10 18 -40 28
-43 21 -5 -5 19 -3 23 3 12 5 -8 12 -32 16 -52 5 -29 12 -38 26 -38 13 0 20 7
20 19 0 11 7 27 16 36 21 20 30 9 39 -47 6 -33 9 -36 21 -24 8 8 14 26 14 41
0 38 16 22 24 -24 3 -22 11 -43 18 -47 8 -5 9 0 4 17 -18 62 -19 89 -3 89 10
0 13 6 10 18 -2 10 2 34 10 53 14 33 14 33 11 -36 -3 -54 -1 -61 5 -32 10 49
21 58 21 18 l0 -32 25 27 c22 23 25 24 25 8 0 -16 2 -16 10 -4 12 20 16 14 26
-50 5 -30 15 -54 21 -53 6 1 13 -11 17 -27 3 -17 10 -30 15 -30 6 0 6 12 1 30
-11 40 -16 118 -7 126 4 4 7 0 7 -9 0 -9 4 -17 8 -17 4 0 6 15 4 34 -6 50 3
67 17 32 6 -16 14 -26 17 -23 3 3 1 14 -4 24 -5 10 -12 36 -15 58 -3 22 -3 32
0 21 4 -15 9 -12 28 20 13 21 21 44 18 51 -3 7 -1 13 5 13 6 0 13 -6 15 -12 4
-10 6 -10 6 0 1 6 5 12 10 12 4 0 6 -11 3 -25 -6 -31 6 -33 18 -2 9 22 9 22 9
-3 0 -14 -6 -34 -14 -44 -20 -27 -19 -46 1 -21 15 18 16 14 9 -57 -4 -50 -3
-78 3 -78 6 0 13 6 15 13 3 6 6 -4 7 -23 1 -35 22 -75 33 -64 4 4 2 15 -3 24
-7 13 -5 27 4 44 l13 26 14 -31 c7 -18 14 -28 16 -22 2 6 -3 28 -11 48 -9 21
-16 45 -15 54 0 9 5 2 10 -15 6 -20 15 -31 25 -30 11 1 21 -14 30 -46 8 -26
20 -50 26 -54 8 -5 9 -2 3 12 -13 33 -18 64 -8 64 5 0 10 12 11 26 1 14 7 33
12 42 8 13 9 9 5 -18 -3 -19 -1 -48 4 -65 9 -29 9 -28 10 15 1 25 8 56 16 70
14 25 14 24 15 -19 0 -33 3 -42 14 -38 16 7 21 -4 31 -73 8 -51 34 -120 45
-120 4 0 -1 24 -11 53 -22 66 -39 190 -31 219 9 31 37 34 40 5 1 -12 2 -49 2
-82 -1 -68 8 -135 18 -135 4 0 6 30 5 67 l-3 68 14 -48 c13 -47 22 -64 30 -56
2 2 -2 27 -10 54 -16 60 -18 98 -4 90 6 -3 10 3 10 15 0 13 4 19 11 14 7 -4 9
-22 6 -45 -3 -22 -1 -39 4 -39 5 0 9 10 9 23 l1 22 18 -23 c22 -25 36 -29 27
-7 -3 9 0 15 8 15 8 0 18 -23 26 -60 7 -33 16 -60 19 -60 4 0 5 33 3 73 l-3
72 20 -30 c12 -16 21 -36 21 -43 0 -22 42 -112 51 -112 5 0 3 14 -6 30 -25 48
-36 123 -20 133 9 5 12 19 9 45 -4 28 -3 33 5 22 9 -13 11 -13 11 3 0 33 16
17 32 -34 9 -28 14 -58 11 -67 -4 -10 -2 -13 5 -8 8 5 12 -2 12 -19 0 -17 5
-25 13 -22 8 2 11 20 9 49 -2 26 1 49 7 53 6 3 11 -1 11 -9 0 -8 4 -17 9 -21
6 -3 7 9 4 30 -3 21 -1 41 7 50 15 18 29 11 25 -13 -10 -50 -14 -142 -5 -142
5 0 10 14 12 32 2 17 9 33 17 36 9 3 11 -2 8 -14 -16 -51 -18 -74 -9 -74 5 0
12 17 16 38 4 20 13 51 20 67 l14 30 7 -43 c4 -23 12 -45 17 -48 6 -4 7 8 4
29 -4 23 -1 39 8 46 11 9 15 3 21 -35 7 -51 24 -94 36 -94 4 0 4 12 -1 28 -14
45 -22 119 -10 102 5 -8 10 -28 10 -45 0 -22 7 -33 24 -41 23 -11 25 -10 21
15 -2 14 -6 33 -9 41 -3 8 -2 21 3 29 8 12 11 12 24 -1 9 -8 17 -28 20 -44 3
-22 4 -19 6 14 1 44 15 56 26 21 4 -11 9 -19 11 -16 3 2 0 17 -6 32 -13 35 -9
40 17 18 15 -14 18 -27 15 -60 -3 -27 0 -43 7 -43 6 0 12 12 13 28 1 15 2 34
4 42 1 8 2 21 3 29 1 11 5 10 16 -5 13 -17 14 -16 8 19 -13 87 31 4 52 -97 18
-85 28 -98 46 -57 8 17 17 31 21 31 5 0 8 9 8 21 0 15 4 19 16 15 9 -3 17 -6
19 -6 2 0 13 -20 24 -45 11 -25 24 -45 30 -45 6 0 -1 22 -14 49 -14 27 -24 62
-24 77 1 23 3 24 6 7 2 -12 11 -27 19 -33 12 -11 14 -4 15 46 1 56 2 57 11 27
15 -45 31 -42 22 5 -7 34 -6 36 10 23 13 -11 16 -23 12 -44 -6 -31 24 -197 35
-197 4 0 5 34 2 77 -6 75 -6 76 16 70 19 -5 21 -2 15 16 -9 31 3 17 25 -29
l20 -39 -6 59 c-4 41 -3 57 5 52 6 -4 12 4 14 21 7 59 23 25 26 -54 2 -46 7
-83 11 -83 5 0 8 14 7 30 -1 17 1 50 4 73 l6 42 12 -40 c7 -22 12 -58 13 -80
1 -39 1 -39 22 25 l21 65 9 -42 c6 -24 15 -43 22 -43 7 0 15 -17 18 -38 4 -21
14 -46 23 -57 16 -20 16 -20 8 0 -4 11 -12 41 -17 66 -9 41 -8 49 14 78 22 30
24 31 27 12 2 -12 7 -19 12 -16 5 3 11 -5 15 -17 12 -43 38 -98 47 -98 5 0 1
14 -8 31 -12 24 -13 37 -6 53 6 11 13 28 15 36 3 8 6 0 6 -18 1 -38 21 -34 21
4 0 37 20 19 21 -19 0 -18 5 -41 10 -52 7 -14 8 -7 4 25 -6 42 -5 44 9 25 14
-19 15 -19 16 -2 0 10 6 17 13 15 7 -3 15 -33 20 -72 4 -38 12 -75 17 -85 7
-11 8 3 4 47 -8 77 7 82 37 12 12 -27 24 -50 28 -50 4 0 5 30 3 66 -3 45 -1
65 6 60 6 -3 12 2 15 11 3 16 5 16 12 -2 15 -38 26 -46 41 -30 8 7 11 21 8 29
-7 19 12 22 20 4 3 -7 4 1 1 17 -3 18 5 56 19 95 l25 65 -1 -50 c0 -27 -10
-76 -20 -107 -11 -31 -18 -63 -15 -70 2 -7 10 6 16 30 7 24 19 46 27 49 8 3
13 12 10 19 -3 7 -2 16 3 18 9 6 32 -87 27 -106 -12 -38 -15 -68 -8 -68 4 0
17 33 27 72 l19 73 9 -35 9 -35 13 30 c7 17 14 26 15 20 1 -5 6 1 10 15 l8 25
1 -25 c1 -19 3 -22 10 -10 6 8 7 27 4 44 -4 21 -3 27 5 22 7 -4 12 -18 12 -31
0 -25 29 -43 41 -24 4 7 10 -6 14 -30 4 -22 11 -43 16 -47 11 -7 11 3 0 43 -9
31 4 112 15 100 3 -3 1 -20 -4 -39 -7 -25 -6 -37 5 -47 18 -16 17 -18 31 53
16 81 29 90 24 16 -5 -71 8 -78 41 -23 l21 37 10 -39 c5 -22 12 -42 17 -45 4
-3 16 -27 26 -54 10 -27 24 -51 30 -53 8 -3 6 11 -7 39 -21 46 -26 83 -11 73
6 -3 14 3 20 12 6 11 11 13 11 5 0 -24 20 -1 20 23 0 13 5 27 11 31 8 5 10 -4
7 -30 -3 -29 -1 -36 13 -36 10 0 20 -8 22 -17 4 -16 5 -16 6 1 1 12 6 16 16
12 12 -4 13 -2 6 12 -5 9 -6 33 -2 52 8 44 35 48 39 5 2 -16 8 -34 13 -39 5
-6 9 -21 9 -34 0 -13 7 -30 15 -38 9 -10 13 -25 9 -39 -5 -20 -2 -24 14 -22
17 1 20 6 15 28 -3 19 5 49 28 96 34 67 34 68 37 34 2 -19 9 -40 17 -45 7 -6
15 -22 18 -36 4 -14 12 -34 20 -44 13 -18 14 -15 10 31 -3 28 0 59 6 69 9 17
10 17 11 -6 0 -33 11 -70 19 -70 4 0 3 26 -3 57 -8 43 -7 58 2 61 7 2 12 18
13 35 0 27 4 22 21 -30 12 -35 25 -63 30 -63 6 0 7 8 2 17 -13 30 -17 103 -6
103 6 0 12 8 15 18 2 9 1 -5 -1 -32 -4 -35 -2 -47 7 -42 8 5 11 -8 11 -43 0
-39 3 -49 14 -45 8 3 18 15 22 27 6 16 9 5 11 -40 2 -35 8 -63 13 -63 6 0 10
8 10 18 1 10 7 3 15 -16 25 -58 33 -34 9 27 -21 53 -23 66 -14 107 15 67 33
92 24 34 -11 -74 -9 -150 5 -150 4 0 6 22 3 49 -2 28 1 56 7 67 11 16 12 14 8
-17 -4 -27 -1 -38 14 -47 29 -18 39 -15 31 11 -6 16 1 40 24 87 20 39 33 57
33 44 1 -11 -5 -26 -11 -32 -10 -10 -10 -17 0 -32 9 -15 10 -26 2 -40 -13 -25
-13 -30 4 -24 10 4 16 -4 21 -25 4 -19 11 -28 19 -25 9 3 16 -12 23 -48 6 -32
11 -42 12 -26 0 15 6 30 11 33 7 4 6 13 -1 26 -11 21 -3 79 11 79 4 0 11 19
15 43 7 38 8 40 15 17 5 -14 8 -42 9 -62 1 -22 6 -38 13 -38 6 0 9 3 5 6 -3 3
3 14 14 25 10 10 19 29 19 42 l1 22 13 -23 13 -24 14 23 c15 22 15 21 13 -17
-3 -37 -3 -37 8 9 5 26 14 47 19 47 5 0 9 8 9 17 0 12 3 14 10 7 7 -7 8 -25 1
-55 -16 -77 -22 -163 -11 -179 7 -11 10 -2 10 35 1 28 5 68 9 90 6 33 9 36 15
20 5 -11 12 -32 18 -47 6 -16 14 -28 19 -28 4 0 2 15 -5 33 -22 53 -29 90 -15
81 9 -5 10 3 5 32 -5 31 -4 35 5 21 6 -11 8 -33 5 -53 -6 -27 -4 -33 8 -28 9
3 17 -2 21 -15 9 -29 25 -26 25 3 0 14 4 28 10 31 6 3 10 -1 10 -10 0 -8 7
-18 15 -21 8 -4 15 -14 16 -23 0 -12 2 -11 8 4 8 19 8 19 15 -5 14 -49 29 -80
37 -80 5 0 2 16 -6 36 -9 22 -14 63 -14 103 2 59 3 62 9 26 4 -22 8 -36 9 -31
0 6 8 1 16 -10 13 -17 14 -17 15 -1 0 9 5 17 10 17 6 0 10 -6 10 -12 0 -22 44
-98 57 -98 8 0 13 14 13 35 0 19 5 35 10 35 6 0 10 -13 10 -30 0 -16 6 -33 13
-37 8 -4 16 -16 20 -25 3 -10 11 -18 16 -18 6 0 4 15 -4 34 -11 25 -12 43 -4
72 17 67 22 71 29 24 l7 -45 1 43 c2 30 6 42 17 42 8 0 15 -4 15 -10 0 -5 7
-10 16 -10 8 0 12 5 9 10 -3 6 -3 20 1 32 6 21 7 21 21 -6 8 -15 12 -38 9 -50
-4 -17 -1 -22 12 -21 10 0 23 4 30 9 8 5 12 -2 12 -26 0 -41 10 -78 20 -78 4
0 5 20 2 45 l-5 46 27 -10 c25 -10 26 -9 26 22 0 46 18 103 37 118 14 13 16
11 11 -13 -4 -19 -1 -28 8 -28 9 0 11 -17 8 -71 -4 -49 -2 -69 5 -64 6 3 11
23 11 43 1 33 2 35 14 19 12 -15 13 -12 10 30 l-4 48 15 -41 c10 -25 24 -44
35 -47 14 -3 20 -14 21 -34 1 -16 3 -21 6 -10 2 9 13 17 23 17 10 0 21 9 25
19 3 11 15 23 26 26 10 4 19 13 19 21 0 8 5 12 11 8 7 -4 8 -20 4 -41 -4 -24
-3 -33 4 -28 7 3 11 -3 11 -16 0 -18 2 -20 16 -8 8 7 13 21 11 31 -3 10 -1 16
4 12 5 -3 9 -11 9 -18 0 -13 39 -67 40 -55 0 3 -9 24 -20 47 -21 43 -27 87
-10 77 6 -3 10 -1 10 5 0 6 5 8 10 5 6 -3 10 -15 10 -26 0 -43 64 -199 76
-186 2 2 -10 36 -27 75 -16 40 -27 78 -23 84 4 6 6 30 6 54 -1 23 3 46 9 50 8
5 10 -1 7 -20 -4 -20 -2 -26 8 -22 18 7 17 -12 -1 -44 -8 -14 -14 -34 -14 -45
0 -19 1 -18 11 3 11 23 42 30 53 12 11 -18 26 -11 17 8 -15 28 -23 72 -14 72
4 0 14 -24 21 -52 8 -29 20 -66 29 -83 15 -30 15 -30 25 -7 13 29 21 28 36 -5
21 -47 41 -74 51 -68 6 3 5 16 0 31 -6 16 -6 31 0 42 5 9 14 33 19 52 5 21 10
27 10 15 2 -18 3 -18 16 5 l14 25 1 -25 c1 -14 7 -38 14 -55 12 -28 13 -27 8
26 -3 42 0 64 14 90 l19 34 3 -77 c2 -45 7 -78 13 -78 6 0 8 17 3 45 -7 53 3
138 17 130 5 -4 9 -20 9 -37 0 -49 23 -158 33 -158 5 0 7 11 5 25 -3 14 1 30
8 36 10 8 14 8 14 0 0 -6 5 -11 10 -11 6 0 10 10 10 23 0 12 4 29 10 37 16 26
23 -15 17 -98 -6 -69 -5 -75 8 -58 14 18 15 18 15 2 0 -19 29 -80 35 -74 2 2
-2 22 -9 43 -8 22 -17 55 -21 72 -5 28 -4 32 9 27 10 -4 16 -1 16 7 1 8 8 1
17 -16 18 -33 53 -81 53 -72 0 3 -7 32 -15 64 -17 65 -20 159 -5 168 9 6 16
-33 10 -60 -4 -21 12 -95 21 -95 5 0 9 19 10 43 0 40 1 41 12 17 6 -14 17 -28
23 -32 6 -4 17 -21 24 -38 17 -41 24 -30 21 30 -3 58 12 66 29 16 6 -19 18
-40 26 -46 18 -16 18 -6 -2 32 -9 16 -11 27 -6 24 6 -3 12 2 14 11 2 11 12 -5
22 -37 21 -62 46 -110 58 -110 5 0 -1 18 -12 41 -26 49 -19 65 7 17 l18 -33 3
35 c5 76 12 99 27 93 8 -3 15 -11 15 -19 0 -18 22 -64 31 -64 4 0 5 8 2 19 -2
10 4 26 14 36 10 10 17 20 15 23 -2 2 -1 6 2 10 3 3 6 -9 6 -26 0 -24 4 -30
19 -29 11 0 18 4 15 8 -2 4 7 22 19 40 23 35 44 41 39 11 -2 -9 -5 -55 -7
-102 -4 -82 -3 -83 5 -25 16 105 21 125 29 125 5 0 11 -18 14 -40 8 -65 47
-93 47 -34 0 13 4 24 8 24 5 0 7 15 5 33 -3 26 -1 28 6 12 9 -18 10 -17 11 10
l1 30 14 -30 13 -30 1 28 c1 41 28 34 35 -10 9 -50 26 -93 38 -93 5 0 7 3 5 8
-3 4 -12 32 -21 62 -15 54 -15 54 3 31 18 -23 18 -23 14 35 l-3 59 14 -35 c8
-19 15 -53 16 -75 2 -43 3 -41 19 21 14 52 37 54 53 2 12 -42 28 -52 21 -14
-3 13 0 27 6 30 7 5 11 -2 11 -16 0 -13 4 -29 9 -37 7 -11 10 -9 16 8 3 12 11
19 16 16 5 -4 9 -1 9 4 0 6 9 11 20 11 11 0 20 -6 20 -14 0 -8 7 -22 16 -30 8
-9 12 -20 9 -26 -3 -5 -2 -10 4 -10 5 0 13 9 16 21 7 20 7 20 22 2 13 -17 14
-16 8 10 -6 31 11 71 27 61 6 -4 8 -26 4 -58 -3 -28 -2 -58 4 -66 8 -12 10 -8
10 15 l1 30 16 -37 c24 -59 33 -44 10 17 -17 48 -18 59 -7 83 l13 27 12 -40
c6 -22 10 -45 8 -50 -2 -6 6 -16 18 -23 18 -11 20 -11 19 5 -4 33 0 44 12 37
8 -5 9 0 6 14 -4 12 -2 22 2 22 13 0 21 -35 14 -54 -5 -12 -2 -15 10 -10 17 7
20 -4 17 -66 -1 -33 -1 -33 17 15 11 28 25 62 33 75 14 24 14 24 17 -24 2 -31
-2 -54 -11 -65 -21 -23 -49 -81 -40 -81 5 0 21 22 37 48 34 55 43 44 22 -27
-8 -28 -11 -51 -6 -51 5 0 11 10 13 23 l4 22 8 -22 c13 -41 23 -24 13 22 -6
29 -6 50 1 62 7 13 10 14 11 4 0 -20 40 23 40 44 0 8 5 15 10 15 14 0 13 0
-15 -76 -31 -83 -32 -116 -1 -49 20 42 25 47 31 31 5 -11 3 -27 -3 -37 -10
-15 -8 -23 8 -39 14 -14 20 -33 20 -65 0 -25 5 -45 10 -45 6 0 10 26 11 58 l1
57 14 -69 c7 -38 18 -74 24 -80 13 -13 13 3 1 36 -4 13 -11 46 -15 75 -6 45
-4 55 17 79 l24 28 -5 -77 c-3 -54 -1 -77 7 -77 7 0 11 22 11 58 l0 57 25 -60
c13 -33 37 -70 52 -82 26 -21 38 -23 154 -23 145 0 163 8 198 83 l19 42 1 -47
c2 -77 21 -55 22 25 l1 72 14 -70 c15 -77 44 -123 44 -70 0 29 0 29 15 8 10
-15 13 -32 9 -50 -10 -40 9 -19 22 25 l11 37 16 -39 c23 -53 30 -42 10 15 -11
29 -13 52 -8 65 7 17 8 17 12 2 3 -10 9 -18 14 -18 5 0 9 -13 9 -30 0 -16 4
-30 9 -30 5 0 14 -13 21 -30 7 -16 16 -30 21 -30 12 0 12 17 0 25 -19 11 -43
103 -32 122 10 17 10 17 11 -2 0 -11 14 -45 30 -75 17 -30 31 -64 32 -75 1
-11 4 7 7 39 7 68 23 82 41 34 10 -25 14 -29 17 -15 3 10 0 32 -6 49 -16 44
-12 69 4 33 8 -16 15 -66 16 -110 l1 -80 12 58 c9 47 13 56 24 46 6 -7 12 -22
12 -33 0 -12 5 -28 10 -36 7 -11 10 3 10 48 0 47 3 62 14 62 8 0 17 6 19 12 3
7 8 -2 12 -20 4 -18 12 -35 18 -39 7 -4 8 1 3 13 -15 37 -19 84 -7 84 6 0 11
-10 12 -22 1 -17 3 -15 10 11 6 18 12 31 15 28 3 -3 0 -25 -7 -48 -12 -44 -13
-85 0 -104 3 -5 8 14 11 44 3 31 10 56 18 59 14 4 17 -34 2 -43 -5 -3 -10 -11
-10 -17 0 -7 4 -7 14 1 11 9 12 6 8 -16 -2 -16 -1 -25 3 -21 4 4 18 -14 31
-40 15 -32 23 -41 24 -27 1 15 3 16 7 5 3 -8 10 -26 15 -39 15 -42 17 -18 2
44 -17 73 -17 88 -3 79 8 -4 9 3 5 22 -4 18 0 46 9 69 11 30 14 32 9 10 -11
-53 -10 -139 2 -185 l12 -45 4 65 c3 54 5 47 6 -35 2 -103 21 -173 23 -85 1
57 4 79 13 108 7 22 8 22 22 5 13 -17 13 -16 14 6 0 24 0 24 15 5 13 -17 14
-16 8 18 -5 32 -3 36 13 33 11 -2 22 -4 26 -4 4 -1 5 -25 3 -53 l-5 -53 14 40
c8 22 15 34 15 26 1 -8 8 -19 17 -25 9 -7 15 -28 16 -54 0 -23 2 -42 4 -42 2
0 13 18 24 40 24 48 50 45 50 -5 0 -19 5 -37 10 -40 6 -4 10 17 10 57 0 67 12
103 24 73 3 -9 1 -25 -4 -36 -14 -26 -3 -24 22 4 l19 22 -5 -42 c-7 -51 7 -64
26 -23 15 35 33 41 24 8 -14 -53 -19 -128 -7 -128 6 0 11 16 11 38 l0 37 21
-25 21 -25 -7 25 c-14 51 -17 80 -11 97 6 15 8 15 16 3 8 -12 10 -12 16 3 10
26 24 20 25 -10 0 -16 3 -23 5 -16 3 7 11 10 18 7 9 -3 11 -17 6 -49 -10 -67
4 -54 19 18 12 56 14 60 23 37 6 -14 14 -65 18 -115 l7 -90 1 78 c1 46 6 77
13 77 5 0 15 13 20 30 17 47 32 24 25 -37 -4 -36 -3 -52 4 -48 5 3 10 18 11
33 0 26 1 25 13 -7 7 -19 24 -43 37 -53 24 -18 51 -19 438 -18 259 0 420 4
432 10 37 20 49 63 49 175 l0 105 420 0 c468 0 468 0 496 66 16 38 10 78 -15
108 -38 44 -59 46 -491 46 l-410 0 0 405 0 405 429 0 c414 0 429 1 454 20 14
11 31 36 37 55 10 30 9 41 -7 72 -10 21 -29 43 -43 50 -19 10 -131 13 -447 13
l-423 0 0 113 c0 123 -17 171 -62 181 -13 3 -194 7 -403 9 -268 2 -379 6 -378
14 4 20 -76 -27 -94 -55 -25 -39 -46 -53 -55 -39 -5 9 -8 8 -8 -2 0 -8 -2 -12
-5 -9 -10 10 7 58 20 58 13 0 29 29 20 38 -2 3 -11 -1 -20 -8 -17 -15 -19 -7
-5 21 7 13 7 19 0 19 -5 0 -10 -5 -10 -11z m-36 -104 c-9 -14 -19 -23 -22 -20
-5 4 26 45 35 45 2 0 -4 -11 -13 -25z m-44 -9 c0 -2 -8 -10 -17 -17 -16 -13
-17 -12 -4 4 13 16 21 21 21 13z m-650 -104 c0 -16 -7 -37 -15 -48 -14 -18
-15 -17 -9 11 14 71 24 86 24 37z m500 13 c0 -8 -4 -15 -10 -15 -5 0 -7 7 -4
15 4 8 8 15 10 15 2 0 4 -7 4 -15z m-630 -20 c-7 -9 -15 -13 -18 -10 -3 2 1
11 8 20 7 9 15 13 18 10 3 -2 -1 -11 -8 -20z m600 18 c0 -5 -5 -15 -11 -23 -9
-12 -10 -11 -5 5 4 14 -2 10 -21 -13 -32 -37 -49 -43 -32 -9 7 12 11 24 10 27
-3 5 28 18 47 19 6 1 12 -2 12 -6z m-865 -22 c-3 -6 -11 -11 -17 -11 -6 0 -6
6 2 15 14 17 26 13 15 -4z m599 6 c-2 -7 -14 -18 -25 -25 -22 -14 -21 -6 4 26
12 16 28 16 21 -1z m-243 -39 c-4 -19 -13 -32 -24 -34 -21 -3 -21 1 0 37 23
38 32 37 24 -3z m429 29 c0 -13 -49 -66 -54 -58 -4 5 3 15 14 21 11 6 20 17
20 25 0 8 5 15 10 15 6 0 10 -1 10 -3z m-645 -26 c-3 -6 -11 -11 -17 -11 -6 0
-6 6 2 15 14 17 26 13 15 -4z m-150 -13 c-7 -22 -42 -57 -57 -58 -12 0 23 59
40 70 24 13 24 13 17 -12z m250 -17 c-8 -17 -18 -31 -21 -31 -7 0 6 42 19 58
17 22 19 5 2 -27z m276 6 c-10 -9 -11 -8 -5 6 3 10 9 15 12 12 3 -3 0 -11 -7
-18z m319 -7 c-6 -12 -14 -19 -17 -17 -2 3 1 15 7 27 6 12 14 19 17 17 2 -3
-1 -15 -7 -27z m-1003 -5 c-26 -23 -47 -32 -47 -20 0 6 62 45 70 45 3 -1 -8
-12 -23 -25z m723 11 c0 -2 -7 -9 -15 -16 -13 -11 -14 -10 -9 4 5 14 24 23 24
12z m77 -18 c-3 -8 -6 -5 -6 6 -1 11 2 17 5 13 3 -3 4 -12 1 -19z m-427 8 c0
-2 -8 -10 -17 -17 -16 -13 -17 -12 -4 4 13 16 21 21 21 13z m-345 -16 c-3 -5
-12 -10 -18 -10 -7 0 -6 4 3 10 19 12 23 12 15 0z m782 -102 c-3 -8 -6 -5 -6
6 -1 11 2 17 5 13 3 -3 4 -12 1 -19z m-77 -2 c0 -3 -4 -8 -10 -11 -5 -3 -10
-1 -10 4 0 6 5 11 10 11 6 0 10 -2 10 -4z m-144 -34 c-18 -16 -18 -16 -6 6 6
13 14 21 18 18 3 -4 -2 -14 -12 -24z m-1193 1 c-9 -24 -82 -97 -89 -90 -5 4
84 107 93 107 1 0 -1 -8 -4 -17z m43 -39 c-4 -9 -9 -15 -11 -12 -3 3 -3 13 1
22 4 9 9 15 11 12 3 -3 3 -13 -1 -22z m-35 -21 c-8 -15 -10 -15 -11 -2 0 17
10 32 18 25 2 -3 -1 -13 -7 -23z m-26 -20 c-5 -10 -7 -24 -6 -30 1 -7 -3 -13
-9 -13 -6 0 -9 4 -6 9 4 5 0 11 -6 14 -10 3 -8 10 6 26 22 24 32 21 21 -6z
m42 -60 c-4 -3 -2 -12 4 -20 9 -10 7 -20 -7 -40 -16 -24 -19 -25 -22 -10 -2
10 0 26 4 35 7 16 9 23 13 37 0 3 4 5 8 5 3 0 3 -3 0 -7z m-184 -38 c-10 -13
-22 -25 -26 -25 -5 0 -15 -7 -23 -15 -9 -8 -21 -15 -27 -15 -14 1 71 80 85 80
5 0 1 -11 -9 -25z m87 -9 c0 -2 -7 -7 -16 -10 -8 -3 -12 -2 -9 4 6 10 25 14
25 6z m-230 -49 c0 -2 -10 -12 -21 -23 -22 -19 -22 -19 -8 4 12 19 29 30 29
19z m-336 -21 c-3 -7 -17 -18 -32 -25 -27 -11 -27 -11 3 14 35 29 36 29 29 11z
m426 11 c0 -2 -10 -12 -21 -23 -22 -19 -22 -19 -10 4 10 18 31 31 31 19z
m1580 -6 c0 -6 -4 -13 -10 -16 -5 -3 -10 1 -10 9 0 9 5 16 10 16 6 0 10 -4 10
-9z m-2060 -16 c-7 -8 -17 -15 -22 -15 -6 0 -5 7 2 15 7 8 17 15 22 15 6 0 5
-7 -2 -15z m-394 -39 c-15 -36 -36 -49 -36 -22 0 15 40 69 47 63 2 -3 -3 -21
-11 -41z m177 -21 c-25 -19 -27 -13 -6 24 16 27 18 29 21 10 2 -11 -4 -26 -15
-34z m157 11 c-13 -11 -19 -14 -15 -6 5 8 -3 4 -18 -9 -14 -12 -31 -20 -37
-16 -15 9 4 32 49 55 42 21 54 8 21 -24z m-6339 -3 c-21 -38 -58 -76 -70 -72
-7 3 4 21 28 47 41 44 59 54 42 25z m1222 -23 c-15 -22 -33 -40 -40 -40 -7 0
-13 -5 -13 -12 0 -6 -3 -8 -7 -4 -5 5 74 96 83 96 2 0 -9 -18 -23 -40z m4200
20 c-3 -11 -10 -23 -16 -27 -7 -4 -8 0 -4 11 4 10 7 22 7 27 0 5 4 9 9 9 5 0
7 -9 4 -20z m515 -2 c-8 -12 -21 -24 -29 -26 -8 -3 -3 7 10 22 30 32 39 34 19
4z m-6245 -31 c-3 -18 -11 -35 -17 -39 -17 -11 -20 0 -5 19 9 11 10 14 2 9
-14 -8 -18 6 -5 18 4 4 8 12 8 17 3 19 4 20 14 14 5 -3 7 -20 3 -38z m5699 11
c-3 -18 -10 -41 -17 -51 -12 -17 -13 -16 -19 9 -5 17 -1 35 9 50 22 33 32 30
27 -8z m1118 7 c-7 -9 -15 -13 -18 -10 -3 2 1 11 8 20 7 9 15 13 18 10 3 -2
-1 -11 -8 -20z m-1899 -18 c-10 -9 -11 -8 -5 6 3 10 9 15 12 12 3 -3 0 -11 -7
-18z m1149 -7 c-6 -12 -14 -19 -17 -17 -2 3 1 15 7 27 6 12 14 19 17 17 2 -3
-1 -15 -7 -27z m375 11 c-3 -6 -11 -11 -17 -11 -6 0 -6 6 2 15 14 17 26 13 15
-4z m106 -4 c-10 -9 -11 -8 -5 6 3 10 9 15 12 12 3 -3 0 -11 -7 -18z m-6311 3
c0 -5 -5 -10 -11 -10 -5 0 -7 5 -4 10 3 6 8 10 11 10 2 0 4 -4 4 -10z m736
-32 c-20 -23 -36 -45 -36 -50 0 -4 -5 -8 -11 -8 -15 0 17 49 50 77 38 32 37
28 -3 -19z m874 13 c-12 -23 -58 -57 -66 -48 -3 3 11 22 31 42 39 38 54 41 35
6z m1825 -4 c-19 -30 -45 -42 -45 -22 0 14 50 59 57 51 3 -2 -3 -16 -12 -29z
m1976 1 c-4 -17 -13 -34 -21 -36 -13 -5 -13 -3 -1 12 12 15 12 16 -5 10 -16
-6 -15 -3 5 19 14 15 25 27 26 27 2 0 0 -14 -4 -32z m229 28 c0 -2 -8 -10 -17
-17 -16 -13 -17 -12 -4 4 13 16 21 21 21 13z m614 -10 c-6 -15 -34 -31 -34
-19 0 5 30 32 37 33 1 0 0 -6 -3 -14z m272 -24 c-15 -15 -15 -15 -4 10 7 15
15 23 17 17 2 -6 -4 -18 -13 -27z m1791 6 c-3 -7 -5 -2 -5 12 0 14 2 19 5 13
2 -7 2 -19 0 -25z m-7672 -27 c-19 -26 -35 -53 -35 -59 0 -6 -4 -14 -10 -17
-16 -10 -12 32 5 49 8 8 15 19 15 25 0 8 47 51 56 51 2 0 -12 -22 -31 -49z
m825 39 c0 -5 -5 -10 -11 -10 -5 0 -7 5 -4 10 3 6 8 10 11 10 2 0 4 -4 4 -10z
m995 -10 c-10 -11 -21 -18 -23 -15 -3 3 3 12 14 20 27 20 30 18 9 -5z m53 1
c-7 -11 -21 -22 -32 -25 -16 -4 -13 0 9 19 37 30 38 30 23 6z m404 12 c-6 -2
-10 -8 -7 -13 12 -20 -40 -100 -65 -100 -18 0 -11 14 22 43 22 19 26 25 11 17
-13 -6 -23 -8 -23 -5 0 11 55 64 65 64 6 0 4 -3 -3 -6z m148 -18 c-7 -9 -15
-13 -18 -10 -3 2 1 11 8 20 7 9 15 13 18 10 3 -2 -1 -11 -8 -20z m493 10 c-3
-9 -8 -14 -10 -11 -3 3 -2 9 2 15 9 16 15 13 8 -4z m1703 -14 c-4 -6 -14 -11
-22 -11 -12 0 -13 4 -3 21 7 14 14 18 21 11 6 -6 7 -15 4 -21z m889 -1 c-10
-11 -20 -18 -23 -15 -3 3 3 14 13 25 10 11 20 18 23 15 3 -3 -3 -14 -13 -25z
m-4758 -1 c-9 -6 -26 -20 -37 -31 -24 -26 -27 -12 -4 20 8 12 19 20 24 17 5
-3 12 0 15 6 4 5 10 7 13 4 4 -4 -1 -11 -11 -16z m713 17 c0 -3 -4 -8 -10 -11
-5 -3 -10 -1 -10 4 0 6 5 11 10 11 6 0 10 -2 10 -4z m-2420 -10 c0 -2 -8 -10
-17 -17 -16 -13 -17 -12 -4 4 13 16 21 21 21 13z m580 -21 c-7 -9 -15 -13 -18
-10 -3 2 1 11 8 20 7 9 15 13 18 10 3 -2 -1 -11 -8 -20z m888 -4 c-13 -17 -28
-30 -33 -30 -6 -1 -18 -13 -27 -28 -10 -16 -17 -21 -17 -13 0 21 22 48 61 76
43 30 44 30 16 -5z m922 14 c0 -8 -13 -29 -30 -47 l-30 -33 12 35 c6 19 19 40
27 47 20 16 21 16 21 -2z m1440 11 c0 -2 -25 -30 -56 -62 -61 -64 -59 -45 3
23 33 37 53 52 53 39z m630 -6 c0 -5 -5 -10 -11 -10 -5 0 -7 5 -4 10 3 6 8 10
11 10 2 0 4 -4 4 -10z m202 -12 c-7 -7 -12 -8 -12 -2 0 14 12 26 19 19 2 -3
-1 -11 -7 -17z m518 19 c0 -2 -10 -12 -22 -23 l-23 -19 19 23 c18 21 26 27 26
19z m631 -31 c-11 -27 -24 -37 -16 -11 3 8 7 22 10 31 3 9 8 15 11 12 2 -3 0
-17 -5 -32z m389 24 c0 -5 -5 -10 -11 -10 -5 0 -7 5 -4 10 3 6 8 10 11 10 2 0
4 -4 4 -10z m-6311 -31 c-13 -26 -20 -21 -12 9 3 12 9 19 14 16 5 -3 4 -14 -2
-25z m501 27 c0 -3 -4 -8 -10 -11 -5 -3 -10 -1 -10 4 0 6 5 11 10 11 6 0 10
-2 10 -4z m658 -35 c-32 -26 -37 -17 -7 15 13 14 25 20 27 14 2 -6 -7 -19 -20
-29z m452 8 c-12 -16 -25 -28 -28 -25 -5 6 36 56 45 56 3 0 -5 -14 -17 -31z
m141 -5 c-9 -28 -9 -29 -10 -3 -1 14 2 29 6 32 11 12 13 2 4 -29z m129 32 c0
-2 -8 -10 -17 -17 -16 -13 -17 -12 -4 4 13 16 21 21 21 13z m836 -44 l-38 -37
16 32 c9 18 24 36 33 42 33 18 27 1 -11 -37z m1236 26 c-7 -7 -12 -8 -12 -2 0
14 12 26 19 19 2 -3 -1 -11 -7 -17z m362 7 c-4 -9 -16 -21 -28 -27 -19 -10
-19 -9 3 16 28 30 33 32 25 11z m416 -15 c-12 -16 -29 -30 -39 -30 -9 0 -23
-6 -30 -12 -11 -11 -11 -9 -1 7 12 20 68 63 83 64 5 1 -1 -12 -13 -29z m163
10 c-3 -12 -8 -19 -11 -16 -5 6 5 36 12 36 2 0 2 -9 -1 -20z m173 -8 c-7 -20
-46 -38 -46 -21 0 12 40 52 47 46 3 -3 2 -14 -1 -25z m310 17 c3 -6 1 -16 -6
-22 -10 -9 -11 -9 -5 2 4 8 2 17 -6 22 -9 6 -10 9 -2 9 6 0 15 -5 19 -11z
m656 -14 c-2 -14 -9 -25 -14 -25 -5 0 -7 3 -5 8 2 4 7 15 10 25 9 25 15 21 9
-8z m-6102 -1 c-8 -8 -23 -20 -34 -25 -15 -7 -13 -3 7 15 31 29 47 35 27 10z
m488 -29 c-23 -25 -43 -45 -45 -45 -1 0 3 15 8 32 5 18 9 34 9 35 0 1 15 7 33
12 17 5 33 10 35 10 1 1 -17 -19 -40 -44z m236 21 c-3 -9 -10 -16 -15 -16 -6
0 -5 9 1 21 13 24 24 20 14 -5z m596 -5 c-6 -12 -18 -21 -27 -21 -13 0 -12 5
7 25 27 29 37 27 20 -4z m1140 25 c0 -2 -7 -7 -16 -10 -8 -3 -12 -2 -9 4 6 10
25 14 25 6z m262 -8 c-14 -14 -44 -20 -36 -7 3 5 9 7 14 4 5 -3 11 -1 15 5 3
5 9 10 13 10 3 0 1 -5 -6 -12z m1360 -10 c-7 -7 -12 -8 -12 -2 0 14 12 26 19
19 2 -3 -1 -11 -7 -17z m-3840 -10 c-7 -7 -12 -8 -12 -2 0 14 12 26 19 19 2
-3 -1 -11 -7 -17z m758 14 c0 -4 -9 -13 -20 -20 -16 -10 -20 -10 -20 2 0 8 6
17 13 19 19 8 27 8 27 -1z m451 -15 c-10 -9 -11 -8 -5 6 3 10 9 15 12 12 3 -3
0 -11 -7 -18z m349 17 c0 -31 -29 -89 -52 -105 -35 -25 -36 -13 -3 35 13 20
22 36 19 36 -2 0 0 9 6 20 10 19 30 28 30 14z m83 -9 c-3 -9 -8 -14 -10 -11
-3 3 -2 9 2 15 9 16 15 13 8 -4z m1177 7 c0 -5 -10 -17 -22 -28 -12 -10 -19
-14 -16 -9 3 6 8 18 11 28 6 17 27 24 27 9z m93 -17 c-3 -13 -11 -29 -18 -35
-11 -9 -12 -5 -3 24 13 41 28 49 21 11z m1177 21 c0 -3 -4 -8 -10 -11 -5 -3
-10 -1 -10 4 0 6 5 11 10 11 6 0 10 -2 10 -4z m1422 -28 c-8 -8 -9 -4 -5 13 4
13 8 18 11 10 2 -7 -1 -18 -6 -23z m-4964 2 c3 -7 0 -10 -6 -6 -6 3 -15 -2
-21 -11 -10 -17 -10 -16 -11 3 0 35 28 45 38 14z m2982 5 c-7 -8 -17 -15 -23
-15 -6 0 -2 7 9 15 25 19 30 19 14 0z m1160 -21 c-18 -21 -24 -10 -9 18 8 14
14 18 17 10 2 -7 -2 -19 -8 -28z m793 21 c-3 -9 -8 -14 -10 -11 -3 3 -2 9 2
15 9 16 15 13 8 -4z m79 -7 c-7 -7 -12 -8 -12 -2 0 14 12 26 19 19 2 -3 -1
-11 -7 -17z m485 -16 c-15 -14 -27 -21 -27 -14 0 16 40 56 48 48 3 -4 -6 -19
-21 -34z m-6097 8 c-24 -15 -37 -11 -16 5 11 8 22 12 25 9 3 -3 -1 -9 -9 -14z
m176 5 c-26 -19 -42 -19 -26 0 7 8 20 15 29 15 13 -1 13 -3 -3 -15z m877 -2
c-7 -3 -13 -11 -13 -18 0 -7 -11 -15 -24 -17 -15 -3 -23 -1 -20 6 6 15 57 46
64 39 3 -3 -1 -8 -7 -10z m282 -3 c-10 -11 -20 -18 -23 -15 -7 6 18 35 31 35
5 0 2 -9 -8 -20z m645 17 c0 -2 -12 -14 -27 -28 l-28 -24 24 28 c23 25 31 32
31 24z m270 -1 c0 -2 -8 -10 -17 -17 -16 -13 -17 -12 -4 4 13 16 21 21 21 13z
m220 -11 c-7 -8 -17 -15 -22 -15 -6 0 -5 7 2 15 7 8 17 15 22 15 6 0 5 -7 -2
-15z m292 -7 c-7 -7 -12 -8 -12 -2 0 14 12 26 19 19 2 -3 -1 -11 -7 -17z m243
3 c-3 -6 -11 -11 -17 -11 -6 0 -6 6 2 15 14 17 26 13 15 -4z m656 -4 c-10 -9
-11 -8 -5 6 3 10 9 15 12 12 3 -3 0 -11 -7 -18z m981 1 c-7 -7 -12 -8 -12 -2
0 14 12 26 19 19 2 -3 -1 -11 -7 -17z m3888 7 c0 -8 -4 -15 -10 -15 -5 0 -7 7
-4 15 4 8 8 15 10 15 2 0 4 -7 4 -15z m-6650 1 c0 -2 -8 -10 -17 -17 -16 -13
-17 -12 -4 4 13 16 21 21 21 13z m667 -18 c-3 -8 -6 -5 -6 6 -1 11 2 17 5 13
3 -3 4 -12 1 -19z m343 -3 c-7 -9 -15 -13 -18 -10 -3 2 1 11 8 20 7 9 15 13
18 10 3 -2 -1 -11 -8 -20z m1281 2 c-10 -9 -11 -8 -5 6 3 10 9 15 12 12 3 -3
0 -11 -7 -18z m914 4 c-3 -6 -11 -11 -17 -11 -6 0 -6 6 2 15 14 17 26 13 15
-4z m-5045 -12 c-7 -11 -14 -18 -17 -15 -8 8 5 36 17 36 7 0 7 -6 0 -21z m712
-1 c-7 -7 -12 -8 -12 -2 0 14 12 26 19 19 2 -3 -1 -11 -7 -17z m2063 12 c-3
-5 -11 -10 -16 -10 -6 0 -7 5 -4 10 3 6 11 10 16 10 6 0 7 -4 4 -10z m310 -9
c-3 -6 -11 -11 -17 -11 -6 0 -6 6 2 15 14 17 26 13 15 -4z m1565 16 c0 -2 -10
-12 -21 -23 -22 -19 -22 -19 -10 4 10 18 31 31 31 19z m4311 -60 c-8 -8 -11
-2 -11 19 0 40 14 54 18 19 2 -15 -1 -32 -7 -38z m-9223 33 c-14 -22 -24 -19
-15 5 4 8 11 15 17 15 6 0 6 -7 -2 -20z m2739 -5 c-4 -8 -11 -15 -17 -15 -7 0
-7 6 0 21 13 23 26 19 17 -6z m185 3 c-7 -7 -12 -8 -12 -2 0 14 12 26 19 19 2
-3 -1 -11 -7 -17z m598 7 c-7 -9 -15 -13 -19 -10 -3 3 1 10 9 15 21 14 24 12
10 -5z m1040 11 c0 -3 -4 -8 -10 -11 -5 -3 -10 -1 -10 4 0 6 5 11 10 11 6 0
10 -2 10 -4z m432 -18 c-7 -7 -12 -8 -12 -2 0 14 12 26 19 19 2 -3 -1 -11 -7
-17z m919 -9 c-9 -22 -10 -22 -10 -3 -1 11 2 24 6 27 12 12 14 0 4 -24z
m-5691 13 c0 -9 -36 -44 -57 -56 -9 -5 -13 0 -13 13 0 12 11 27 28 35 31 17
42 19 42 8z m6421 -19 c-12 -20 -14 -14 -5 12 4 9 9 14 11 11 3 -2 0 -13 -6
-23z m2217 2 c-3 -3 -9 2 -12 12 -6 14 -5 15 5 6 7 -7 10 -15 7 -18z m-8078
-4 c-12 -24 -30 -36 -30 -22 0 6 5 11 10 11 6 0 9 3 9 8 -3 15 1 22 11 22 7 0
7 -6 0 -19z m1381 -14 c-13 -12 -20 -15 -16 -7 14 26 28 41 33 35 3 -3 -5 -16
-17 -28z m864 4 c-7 -23 -25 -29 -25 -8 0 14 21 39 28 33 2 -3 1 -14 -3 -25z
m1092 -3 c-3 -7 -5 -2 -5 12 0 14 2 19 5 13 2 -7 2 -19 0 -25z m-4197 7 c-7
-9 -15 -13 -17 -11 -7 7 7 26 19 26 6 0 6 -6 -2 -15z m3286 -13 c-18 -16 -18
-16 -6 6 6 13 14 21 18 18 3 -4 -2 -14 -12 -24z m-3256 -17 c-6 -15 -13 -25
-16 -23 -2 3 1 17 7 32 16 34 23 27 9 -9z m1066 15 c0 -11 -4 -20 -8 -20 -4 0
-8 9 -8 20 0 11 4 20 8 20 4 0 8 -9 8 -20z m2275 -7 c-8 -15 -10 -15 -11 -2 0
17 10 32 18 25 2 -3 -1 -13 -7 -23z m869 12 c-7 -9 -15 -13 -17 -11 -7 7 7 26
19 26 6 0 6 -6 -2 -15z m1138 -10 c-6 -14 -13 -23 -15 -21 -5 5 15 46 22 46 3
0 -1 -11 -7 -25z m3109 3 c-3 -8 -6 -5 -6 6 -1 11 2 17 5 13 3 -3 4 -12 1 -19z
m1144 -5 c-12 -20 -14 -14 -5 12 4 9 9 14 11 11 3 -2 0 -13 -6 -23z m-8131 7
c0 -5 -5 -10 -11 -10 -5 0 -7 5 -4 10 3 6 8 10 11 10 2 0 4 -4 4 -10z m1480
-10 c-11 -20 -30 -28 -30 -12 0 11 22 32 32 32 5 0 4 -9 -2 -20z m2967 -2 c-3
-8 -6 -5 -6 6 -1 11 2 17 5 13 3 -3 4 -12 1 -19z m3722 -22 c-9 -8 -10 -7 -5
7 3 10 7 24 7 30 1 7 3 4 6 -7 3 -10 -1 -23 -8 -30z m-4844 -15 c-15 -14 -24
-19 -19 -11 25 42 39 59 43 49 2 -6 -9 -23 -24 -38z m1412 27 c-3 -8 -6 -5 -6
6 -1 11 2 17 5 13 3 -3 4 -12 1 -19z m-3727 2 c0 -5 -5 -10 -11 -10 -5 0 -7 5
-4 10 3 6 8 10 11 10 2 0 4 -4 4 -10z m1220 6 c0 -2 -8 -10 -17 -17 -16 -13
-17 -12 -4 4 13 16 21 21 21 13z m-2413 -53 c-15 -20 -23 -40 -18 -43 4 -3 -8
-45 -28 -93 -21 -48 -40 -84 -44 -81 -14 14 -7 77 11 93 18 17 52 66 52 76 0
4 -5 3 -12 -1 -6 -4 -2 9 11 29 12 20 19 42 15 48 -4 7 -3 9 4 5 6 -3 14 -1
17 5 4 5 10 8 13 5 3 -3 -7 -23 -21 -43z m464 16 c-9 -22 -10 -22 -10 -3 -1
11 2 24 6 27 12 12 14 0 4 -24z m1023 16 c-6 -16 -24 -21 -24 -7 0 11 11 22
21 22 5 0 6 -7 3 -15z m6104 -15 c-5 -17 -14 -32 -18 -35 -12 -7 -9 37 3 53
17 22 26 12 15 -18z m-7846 -2 c-7 -7 -12 -8 -12 -2 0 14 12 26 19 19 2 -3 -1
-11 -7 -17z m2664 -15 c-18 -33 -21 -26 -6 13 6 15 13 24 16 21 3 -3 -1 -18
-10 -34z m-3826 18 c0 -5 -7 -12 -16 -15 -14 -5 -15 -4 -4 9 14 17 20 19 20 6z
m31 -32 l-10 -24 0 26 c-1 14 2 29 6 33 12 12 14 -9 4 -35z m1929 21 c-6 -12
-12 -38 -14 -58 -1 -20 -6 -35 -11 -32 -15 8 -9 54 10 84 20 31 30 35 15 6z
m30 0 c-6 -11 -12 -20 -14 -20 -2 0 -2 9 1 20 3 11 9 20 15 20 5 0 4 -9 -2
-20z m477 -2 c-3 -8 -6 -5 -6 6 -1 11 2 17 5 13 3 -3 4 -12 1 -19z m-1447 2
c0 -5 -5 -10 -11 -10 -5 0 -7 5 -4 10 3 6 8 10 11 10 2 0 4 -4 4 -10z m2176
-2 c4 -7 3 -8 -5 -4 -7 4 -15 -2 -20 -16 -9 -22 -10 -22 -10 -2 -1 32 20 46
35 22z m445 -11 c-10 -9 -11 -8 -5 6 3 10 9 15 12 12 3 -3 0 -11 -7 -18z
m5529 16 c0 -5 -5 -15 -10 -23 -8 -12 -10 -11 -10 8 0 12 5 22 10 22 6 0 10
-3 10 -7z m-9059 -36 c-8 -8 -11 -7 -11 4 0 20 13 34 18 19 3 -7 -1 -17 -7
-23z m1035 21 c4 -6 3 -8 -3 -5 -13 8 -37 -18 -29 -31 7 -12 -20 -49 -29 -40
-10 9 21 75 38 81 6 3 13 6 14 6 1 1 5 -4 9 -11z m2881 -10 c-3 -8 -6 -5 -6 6
-1 11 2 17 5 13 3 -3 4 -12 1 -19z m310 -10 c-3 -7 -5 -2 -5 12 0 14 2 19 5
13 2 -7 2 -19 0 -25z m5443 7 c-7 -9 -15 -13 -18 -10 -3 2 1 11 8 20 7 9 15
13 18 10 3 -2 -1 -11 -8 -20z m-9129 -12 c-12 -20 -14 -14 -5 12 4 9 9 14 11
11 3 -2 0 -13 -6 -23z m4406 5 c-3 -8 -6 -5 -6 6 -1 11 2 17 5 13 3 -3 4 -12
1 -19z m3843 0 c0 -16 -3 -19 -11 -11 -6 6 -8 16 -5 22 11 17 16 13 16 -11z
m-8926 -46 c-9 -29 -18 -52 -21 -52 -10 0 5 80 18 96 19 23 19 13 3 -44z
m1886 54 c0 -3 -4 -8 -10 -11 -5 -3 -10 -1 -10 4 0 6 5 11 10 11 6 0 10 -2 10
-4z m1001 -34 c-6 -2 -11 -15 -11 -30 0 -20 -3 -23 -12 -14 -9 9 -8 20 7 49
15 31 19 34 23 18 2 -10 -1 -21 -7 -23z m-1980 1 c-8 -15 -10 -15 -11 -2 0 17
10 32 18 25 2 -3 -1 -13 -7 -23z m489 23 c0 -3 -4 -8 -10 -11 -5 -3 -10 -1
-10 4 0 6 5 11 10 11 6 0 10 -2 10 -4z m508 -43 c0 -44 -1 -46 -14 -29 -16 23
-19 13 -4 -15 12 -21 2 -96 -10 -82 -12 12 -29 104 -23 119 3 8 9 11 14 8 5
-3 9 1 9 8 0 11 18 38 25 38 1 0 2 -21 3 -47z m3052 39 c0 -5 -7 -17 -16 -28
-14 -17 -15 -17 -10 -1 3 10 6 23 6 28 0 5 5 9 10 9 6 0 10 -4 10 -8z m1310
-12 c-6 -11 -13 -20 -16 -20 -2 0 0 9 6 20 6 11 13 20 16 20 2 0 0 -9 -6 -20z
m-4777 -10 c-3 -12 -8 -19 -11 -16 -5 6 5 36 12 36 2 0 2 -9 -1 -20z m4234 -2
c-3 -8 -6 -5 -6 6 -1 11 2 17 5 13 3 -3 4 -12 1 -19z m640 0 c-3 -8 -6 -5 -6
6 -1 11 2 17 5 13 3 -3 4 -12 1 -19z m-4077 -48 l-9 -45 4 50 c4 59 5 63 11
50 2 -5 0 -30 -6 -55z m737 28 c-3 -7 -5 -2 -5 12 0 14 2 19 5 13 2 -7 2 -19
0 -25z m1080 10 c-3 -8 -6 -5 -6 6 -1 11 2 17 5 13 3 -3 4 -12 1 -19z m313 15
c-1 -13 -29 -59 -30 -48 0 21 13 55 21 55 5 0 9 -3 9 -7z m2097 -25 c-3 -7 -5
-2 -5 12 0 14 2 19 5 13 2 -7 2 -19 0 -25z m-6416 -21 c-8 -8 -11 -5 -11 9 0
27 14 41 18 19 2 -9 -1 -22 -7 -28z m506 21 c-3 -8 -6 -5 -6 6 -1 11 2 17 5
13 3 -3 4 -12 1 -19z m173 12 c0 -5 -4 -10 -10 -10 -5 0 -10 5 -10 10 0 6 5
10 10 10 6 0 10 -4 10 -10z m1031 -37 c-9 -16 -10 -16 -11 -1 0 9 3 25 7 35 7
16 8 17 11 1 2 -10 -1 -25 -7 -35z m2379 32 c0 -8 -4 -15 -10 -15 -5 0 -7 7
-4 15 4 8 8 15 10 15 2 0 4 -7 4 -15z m1328 -5 c-7 -11 -16 -20 -20 -20 -5 0
-3 9 4 20 7 11 16 20 20 20 5 0 3 -9 -4 -20z m1868 -35 c3 -25 3 -57 -2 -72
-7 -26 -8 -25 -15 17 -11 64 -11 112 0 105 6 -3 13 -26 17 -50z m-4664 23 c-7
-7 -12 -8 -12 -2 0 14 12 26 19 19 2 -3 -1 -11 -7 -17z m3618 -28 c0 -27 -4
-50 -8 -50 -7 0 -8 35 -4 83 4 37 12 15 12 -33z m-6279 -17 c-9 -16 -10 -16
-11 4 0 12 3 30 7 40 7 16 8 16 11 -4 2 -12 -1 -30 -7 -40z m259 50 c0 -5 -7
-17 -15 -27 -15 -20 -20 -10 -9 18 6 16 24 22 24 9z m254 -30 c-3 -21 -11 -42
-16 -48 -9 -10 -1 60 9 78 10 17 13 4 7 -30z m2913 15 c-3 -8 -6 -5 -6 6 -1
11 2 17 5 13 3 -3 4 -12 1 -19z m1039 -4 c-4 -9 -9 -15 -11 -12 -3 3 -3 13 1
22 4 9 9 15 11 12 3 -3 3 -13 -1 -22z m565 -11 c-9 -16 -10 -14 -11 12 0 21 3
26 11 18 8 -8 8 -16 0 -30z m321 -9 c-6 -12 -9 -7 -9 16 0 23 3 28 9 16 5 -9
5 -23 0 -32z m945 24 c-3 -8 -6 -5 -6 6 -1 11 2 17 5 13 3 -3 4 -12 1 -19z
m3080 0 c-3 -8 -6 -5 -6 6 -1 11 2 17 5 13 3 -3 4 -12 1 -19z m-9083 -3 c-4
-8 -8 -15 -10 -15 -2 0 -4 7 -4 15 0 8 4 15 10 15 5 0 7 -7 4 -15z m1091 -35
c-23 -44 -30 -31 -9 16 9 22 18 34 21 27 2 -6 -3 -26 -12 -43z m496 7 c-15
-15 -21 -5 -14 22 5 21 7 21 16 6 6 -11 5 -21 -2 -28z m1275 -26 c-20 -39 -20
-64 0 -31 l15 25 -5 -34 c-3 -18 -6 -54 -7 -80 0 -60 -12 -32 -28 71 -9 54 -9
83 -2 95 9 16 10 14 11 -10 0 -36 20 -26 21 11 2 23 2 23 6 5 2 -12 -3 -35
-11 -52z m891 2 c-2 -16 -4 -5 -4 22 0 28 2 40 4 28 2 -13 2 -35 0 -50z m861
27 c-6 -23 -13 -39 -16 -36 -7 8 8 76 17 76 5 0 4 -18 -1 -40z m73 -2 c-4 -35
-6 -38 -9 -15 -3 26 3 57 10 57 2 0 1 -19 -1 -42z m215 16 c-4 -9 -9 -15 -11
-12 -3 3 -3 13 1 22 4 9 9 15 11 12 3 -3 3 -13 -1 -22z m1124 -2 c-6 -2 -10
-8 -10 -13 0 -4 8 -5 17 -2 14 5 13 -1 -7 -33 -31 -52 -34 -54 -26 -19 8 36
13 64 15 85 1 13 2 13 11 0 6 -10 6 -16 0 -18z m110 -2 c0 -10 -4 -22 -10 -25
-6 -4 -10 7 -10 25 0 18 4 29 10 25 6 -3 10 -15 10 -25z m-6003 -2 c-3 -8 -6
-5 -6 6 -1 11 2 17 5 13 3 -3 4 -12 1 -19z m1111 -18 c-10 -29 -32 -34 -23 -5
3 8 7 22 10 31 3 8 9 13 14 9 6 -3 6 -17 -1 -35z m765 20 c3 -11 1 -23 -4 -26
-5 -3 -9 -1 -9 5 0 5 -3 16 -6 25 -3 9 -2 16 4 16 5 0 12 -9 15 -20z m475 -72
l-13 -43 -3 53 c-2 34 2 60 10 69 11 14 13 13 16 -10 2 -14 -3 -45 -10 -69z
m97 -7 c-12 -24 -13 -23 -13 20 -1 24 2 53 5 64 5 16 8 11 14 -20 4 -26 2 -49
-6 -64z m544 63 c10 -35 -2 -84 -20 -84 -11 0 -17 83 -7 103 12 24 16 22 27
-19z m289 16 c-7 -10 -14 -18 -15 -16 -6 6 9 36 18 36 5 0 4 -9 -3 -20z m76
-10 c-4 -16 -3 -37 1 -47 7 -17 8 -17 15 2 l9 20 0 -20 c0 -11 -6 -28 -13 -38
-12 -16 -15 -15 -27 15 -8 18 -12 38 -10 43 4 11 9 36 10 48 1 4 5 7 11 7 5 0
7 -13 4 -30z m357 16 c11 6 10 -60 -1 -96 -8 -28 -15 -18 -24 41 -6 36 4 85
12 61 2 -7 8 -10 13 -6z m427 -11 c-6 -14 -15 -25 -20 -25 -9 0 -4 14 15 38
15 19 18 14 5 -13z m171 -7 c0 -31 -1 -31 -10 -10 -5 13 -7 28 -3 33 10 16 14
9 13 -23z m4249 2 c-9 -27 -28 -50 -28 -35 0 9 30 65 35 65 2 0 -1 -14 -7 -30z
m-5901 -2 c-3 -8 -6 -5 -6 6 -1 11 2 17 5 13 3 -3 4 -12 1 -19z m770 0 c-3 -8
-6 -5 -6 6 -1 11 2 17 5 13 3 -3 4 -12 1 -19z m226 -3 c-7 -21 -13 -19 -13 6
0 11 4 18 10 14 5 -3 7 -12 3 -20z m1708 2 c-10 -9 -11 -8 -5 6 3 10 9 15 12
12 3 -3 0 -11 -7 -18z m-5674 -9 c-3 -8 -6 -5 -6 6 -1 11 2 17 5 13 3 -3 4
-12 1 -19z m504 -9 c-9 -22 -10 -22 -10 -3 -1 11 2 24 6 27 12 12 14 0 4 -24z
m47 -9 c-2 -47 -18 -66 -18 -21 0 29 8 61 16 61 2 0 3 -18 2 -40z m170 14 c-7
-15 -14 -21 -16 -15 -2 7 2 18 8 26 18 22 21 18 8 -11z m1569 4 c-3 -8 -6 -5
-6 6 -1 11 2 17 5 13 3 -3 4 -12 1 -19z m4626 -31 c-4 -7 -10 -2 -13 13 -9 33
1 50 12 21 4 -13 5 -28 1 -34z m-1703 28 c0 -8 -2 -15 -4 -15 -2 0 -6 7 -10
15 -3 8 -1 15 4 15 6 0 10 -7 10 -15z m1207 -17 c-3 -7 -5 -2 -5 12 0 14 2 19
5 13 2 -7 2 -19 0 -25z m352 -14 c-9 -22 -13 -25 -16 -12 -5 19 18 69 24 52 2
-6 -2 -24 -8 -40z m231 13 c0 -5 -4 -5 -10 -2 -5 3 -10 14 -10 23 0 15 2 15
10 2 5 -8 10 -19 10 -23z m140 23 c0 -5 -2 -10 -4 -10 -3 0 -8 5 -11 10 -3 6
-1 10 4 10 6 0 11 -4 11 -10z m171 -90 c-7 -20 -19 24 -19 70 0 34 0 34 12
-10 6 -25 10 -52 7 -60z m373 4 c-9 -22 -18 -47 -19 -57 -2 -21 -25 -48 -25
-30 0 7 5 15 11 18 6 4 8 14 5 22 -8 20 4 64 15 57 5 -3 6 2 3 10 -3 9 0 29 8
46 l13 31 3 -29 c2 -17 -4 -47 -14 -68z m-7224 53 c0 -18 -2 -19 -10 -7 -13
20 -13 43 0 35 6 -3 10 -16 10 -28z m1387 11 c-3 -8 -6 -5 -6 6 -1 11 2 17 5
13 3 -3 4 -12 1 -19z m861 -70 c-4 -31 -4 -29 -12 14 -5 26 -5 56 0 65 6 14 9
11 12 -14 2 -18 2 -48 0 -65z m455 77 c-3 -9 -8 -14 -10 -11 -3 3 -2 9 2 15 9
16 15 13 8 -4z m184 -22 c-3 -10 -5 -4 -5 12 0 17 2 24 5 18 2 -7 2 -21 0 -30z
m1470 -10 c-3 -10 -5 -2 -5 17 0 19 2 27 5 18 2 -10 2 -26 0 -35z m753 37 c0
-5 -5 -10 -11 -10 -5 0 -7 5 -4 10 3 6 8 10 11 10 2 0 4 -4 4 -10z m702 -15
c3 -13 1 -22 -3 -19 -9 5 -13 44 -5 44 2 0 6 -11 8 -25z m538 6 c-16 -31 -32
-36 -18 -7 6 14 15 26 20 26 5 0 4 -9 -2 -19z m740 9 c0 -5 -2 -10 -4 -10 -3
0 -8 5 -11 10 -3 6 -1 10 4 10 6 0 11 -4 11 -10z m-7641 -22 c0 -13 -4 -32 -8
-43 -7 -18 -8 -17 -14 7 -8 29 0 58 14 58 5 0 9 -10 8 -22z m671 18 c0 -3 -4
-8 -10 -11 -5 -3 -10 -1 -10 4 0 6 5 11 10 11 6 0 10 -2 10 -4z m1307 -28 c-3
-7 -5 -2 -5 12 0 14 2 19 5 13 2 -7 2 -19 0 -25z m96 2 c-7 -28 -13 -25 -13 6
0 14 4 23 9 20 5 -3 7 -15 4 -26z m45 -11 c-3 -20 -5 -19 -9 9 -3 20 -2 29 4
23 5 -5 7 -19 5 -32z m217 -23 c23 -25 24 -27 8 -73 -14 -42 -17 -44 -24 -25
-5 13 -11 55 -13 95 -3 40 -2 62 0 50 3 -12 16 -33 29 -47z m732 32 c-3 -7 -5
-2 -5 12 0 14 2 19 5 13 2 -7 2 -19 0 -25z m1354 1 c-9 -22 -10 -22 -10 -3 -1
11 2 24 6 27 12 12 14 0 4 -24z m269 -4 c0 -5 -5 -3 -10 5 -5 8 -10 20 -10 25
0 6 5 3 10 -5 5 -8 10 -19 10 -25z m357 13 c-3 -8 -6 -5 -6 6 -1 11 2 17 5 13
3 -3 4 -12 1 -19z m1723 15 c0 -5 -5 -15 -10 -23 -8 -12 -10 -11 -10 8 0 12 5
22 10 22 6 0 10 -3 10 -7z m665 -3 c3 -5 1 -18 -4 -27 -6 -10 -11 -13 -11 -6
0 6 -3 18 -6 27 -7 17 11 22 21 6z m2223 -15 c-3 -3 -9 2 -12 12 -6 14 -5 15
5 6 7 -7 10 -15 7 -18z m-8706 -10 c-2 -14 -6 -25 -8 -25 -2 0 -4 11 -4 25 0
14 4 25 9 25 4 0 6 -11 3 -25z m225 -7 c-3 -7 -5 -2 -5 12 0 14 2 19 5 13 2
-7 2 -19 0 -25z m2817 -51 c-15 -33 -19 -36 -25 -21 -4 11 -8 35 -8 54 0 33 1
34 14 16 14 -19 15 -18 16 10 l0 29 10 -25 c8 -18 6 -34 -7 -63z m555 46 c-5
-21 -9 -42 -9 -48 -1 -22 -20 22 -20 46 0 28 7 39 26 39 9 0 10 -10 3 -37z
m598 5 c-3 -7 -5 -2 -5 12 0 14 2 19 5 13 2 -7 2 -19 0 -25z m1523 17 c0 -8
-4 -15 -10 -15 -5 0 -7 7 -4 15 4 8 8 15 10 15 2 0 4 -7 4 -15z m-5068 -20 c3
-14 1 -25 -3 -25 -5 0 -9 11 -9 25 0 14 2 25 4 25 2 0 6 -11 8 -25z m1908 -8
c0 -5 -4 -5 -10 -2 -5 3 -10 14 -10 23 0 15 2 15 10 2 5 -8 10 -19 10 -23z
m1877 1 c-3 -7 -5 -2 -5 12 0 14 2 19 5 13 2 -7 2 -19 0 -25z m247 2 c-9 -16
-17 -30 -18 -30 -1 0 -3 14 -3 30 0 22 5 30 18 30 16 0 16 -2 3 -30z m321 -21
c18 -53 13 -82 -5 -33 -15 38 -24 84 -17 84 3 0 13 -23 22 -51z m74 -44 c0
-25 -2 -27 -8 -10 -5 11 -11 40 -15 65 l-6 45 14 -35 c8 -19 15 -48 15 -65z
m781 85 c0 -5 -4 -10 -10 -10 -5 0 -10 5 -10 10 0 6 5 10 10 10 6 0 10 -4 10
-10z m861 -62 c-29 -50 -31 -51 -24 -18 9 52 33 94 45 82 7 -7 1 -27 -21 -64z
m-7018 -13 c-17 -38 -17 -39 -21 -13 -4 33 31 105 36 73 1 -11 -5 -38 -15 -60z
m2257 65 c0 -5 -2 -10 -4 -10 -3 0 -8 5 -11 10 -3 6 -1 10 4 10 6 0 11 -4 11
-10z m247 -42 c-2 -13 -4 -5 -4 17 -1 22 1 32 4 23 2 -10 2 -28 0 -40z m1934
-3 l-7 -50 -18 33 c-17 33 -15 82 3 53 6 -10 10 -9 15 5 11 28 13 12 7 -41z
m979 24 c-12 -40 -20 -49 -20 -21 0 26 10 52 20 52 5 0 5 -14 0 -31z m712 -22
c-3 -12 -8 -15 -15 -8 -5 5 -6 22 -2 38 7 25 8 26 15 8 4 -11 5 -28 2 -38z
m-6731 10 c-8 -8 -11 -7 -11 4 0 20 13 34 18 19 3 -7 -1 -17 -7 -23z m726 1
c-3 -7 -5 -2 -5 12 0 14 2 19 5 13 2 -7 2 -19 0 -25z m5632 -23 l0 -20 -9 20
c-5 11 -9 29 -9 40 l0 20 9 -20 c5 -11 9 -29 9 -40z m280 8 c0 -41 -2 -45 -11
-26 -10 20 -4 73 7 73 3 0 5 -21 4 -47z m-4152 15 c-3 -8 -6 -5 -6 6 -1 11 2
17 5 13 3 -3 4 -12 1 -19z m2090 0 c-3 -8 -6 -5 -6 6 -1 11 2 17 5 13 3 -3 4
-12 1 -19z m4700 0 c-3 -8 -6 -5 -6 6 -1 11 2 17 5 13 3 -3 4 -12 1 -19z
m-6310 -10 c-3 -8 -6 -5 -6 6 -1 11 2 17 5 13 3 -3 4 -12 1 -19z m3950 0 c-3
-8 -6 -5 -6 6 -1 11 2 17 5 13 3 -3 4 -12 1 -19z m-3873 -28 c4 -25 3 -31 -4
-20 -5 8 -10 26 -10 39 0 32 6 24 14 -19z m4633 -12 c-2 -13 -4 -5 -4 17 -1
22 1 32 4 23 2 -10 2 -28 0 -40z m1224 -11 c-10 -9 -11 -8 -5 6 3 10 9 15 12
12 3 -3 0 -11 -7 -18z m380 -14 c-12 -20 -14 -14 -5 12 4 9 9 14 11 11 3 -2 0
-13 -6 -23z m280 4 c-10 -9 -11 -8 -5 6 3 10 9 15 12 12 3 -3 0 -11 -7 -18z
m-371 -7 c0 -5 -4 -10 -10 -10 -5 0 -10 5 -10 10 0 6 5 10 10 10 6 0 10 -4 10
-10z m477 -22 c-3 -8 -6 -5 -6 6 -1 11 2 17 5 13 3 -3 4 -12 1 -19z m-757 8
c0 -2 -8 -10 -17 -17 -16 -13 -17 -12 -4 4 13 16 21 21 21 13z m-1123 -53 c-3
-10 -5 -2 -5 17 0 19 2 27 5 18 2 -10 2 -26 0 -35z m1115 5 c-7 -7 -12 -8 -12
-2 0 14 12 26 19 19 2 -3 -1 -11 -7 -17z m-412 -22 c0 -3 -4 -8 -10 -11 -5 -3
-10 -1 -10 4 0 6 5 11 10 11 6 0 10 -2 10 -4z m405 -85 c-4 -17 -10 -31 -15
-31 -4 0 -3 16 3 35 13 42 22 39 12 -4z m-401 14 c-4 -8 -8 -15 -10 -15 -2 0
-4 7 -4 15 0 8 4 15 10 15 5 0 7 -7 4 -15z m203 -7 c-3 -8 -6 -5 -6 6 -1 11 2
17 5 13 3 -3 4 -12 1 -19z m77 -15 c-12 -62 -25 -95 -19 -48 3 22 5 50 5 63 0
12 5 22 10 22 7 0 8 -14 4 -37z m424 -3 c-11 -33 -28 -49 -28 -28 0 13 27 58
35 58 2 0 -1 -14 -7 -30z m-266 -12 c-7 -7 -12 -8 -12 -2 0 14 12 26 19 19 2
-3 -1 -11 -7 -17z m-471 -29 c-8 -21 -10 -22 -16 -6 -4 10 -2 24 6 33 17 20
23 5 10 -27z m149 19 c0 -16 -3 -19 -11 -11 -6 6 -8 16 -5 22 11 17 16 13 16
-11z m670 -38 c0 -5 -4 -10 -10 -10 -5 0 -10 5 -10 10 0 6 5 10 10 10 6 0 10
-4 10 -10z m-149 -33 c-10 -9 -11 -8 -5 6 3 10 9 15 12 12 3 -3 0 -11 -7 -18z
m-191 -2 c0 -8 -2 -15 -4 -15 -2 0 -6 7 -10 15 -3 8 -1 15 4 15 6 0 10 -7 10
-15z m306 -42 c-8 -16 -16 -26 -16 -23 -12 48 5 97 22 66 6 -10 3 -26 -6 -43z
m64 2 c-7 -8 -17 -15 -23 -15 -5 0 -2 9 8 20 21 23 35 19 15 -5z m322 -17 c-6
-6 -7 0 -4 19 5 21 7 23 10 9 2 -10 0 -22 -6 -28z m-262 7 c-7 -9 -15 -13 -17
-11 -6 6 20 36 26 30 2 -2 -2 -10 -9 -19z m41 -22 c-12 -20 -14 -14 -5 12 4 9
9 14 11 11 3 -2 0 -13 -6 -23z m84 18 c3 -5 1 -12 -5 -16 -5 -3 -10 1 -10 9 0
18 6 21 15 7z m65 -23 c0 -16 -3 -19 -11 -11 -6 6 -8 16 -5 22 11 17 16 13 16
-11z m38 -3 c-3 -3 -9 2 -12 12 -6 14 -5 15 5 6 7 -7 10 -15 7 -18z m-331 -7
c-3 -8 -6 -5 -6 6 -1 11 2 17 5 13 3 -3 4 -12 1 -19z m-30 -30 c-3 -8 -6 -5
-6 6 -1 11 2 17 5 13 3 -3 4 -12 1 -19z m160 0 c-3 -8 -6 -5 -6 6 -1 11 2 17
5 13 3 -3 4 -12 1 -19z m234 -9 c-9 -22 -10 -22 -10 -3 -1 11 2 24 6 27 12 12
14 0 4 -24z"/>
<path d="M8989 2583 c-13 -16 -12 -17 4 -4 9 7 17 15 17 17 0 8 -8 3 -21 -13z"/>
<path d="M9050 2570 c-6 -11 -8 -20 -6 -20 3 0 10 9 16 20 6 11 8 20 6 20 -3
0 -10 -9 -16 -20z"/>
<path d="M8514 2516 c-21 -19 -37 -36 -34 -39 3 -3 23 12 45 34 49 48 42 51
-11 5z"/>
<path d="M9025 2529 c-4 -6 -5 -12 -2 -15 2 -3 7 2 10 11 7 17 1 20 -8 4z"/>
<path d="M5876 2024 c-23 -23 -20 -30 4 -9 11 10 20 20 20 22 0 7 -9 2 -24
-13z"/>
<path d="M6138 2013 c7 -3 16 -2 19 1 4 3 -2 6 -13 5 -11 0 -14 -3 -6 -6z"/>
<path d="M1295 1958 c-34 -35 -35 -38 -9 -17 27 21 60 59 51 59 -2 0 -21 -19
-42 -42z"/>
<path d="M4395 1979 c-11 -17 1 -21 15 -4 8 9 8 15 2 15 -6 0 -14 -5 -17 -11z"/>
<path d="M4440 1965 c-13 -14 -21 -27 -18 -31 3 -3 16 9 28 25 26 37 22 40
-10 6z"/>
<path d="M4529 1973 c-13 -16 -12 -17 4 -4 9 7 17 15 17 17 0 8 -8 3 -21 -13z"/>
<path d="M6156 1975 c-9 -26 -7 -32 5 -12 6 10 9 21 6 23 -2 3 -7 -2 -11 -11z"/>
<path d="M2128 1953 c-21 -14 -38 -30 -38 -35 0 -5 18 6 40 23 22 18 40 34 40
36 0 5 -3 3 -42 -24z"/>
<path d="M4303 1965 c-3 -9 -3 -18 -1 -21 3 -3 8 4 11 16 6 23 -1 27 -10 5z"/>
<path d="M20 1920 c-12 -17 -19 -36 -17 -43 4 -9 6 -8 6 1 1 8 10 27 22 43 11
16 18 29 15 29 -2 0 -14 -14 -26 -30z"/>
<path d="M5364 1925 c-18 -14 -18 -14 4 -8 12 3 22 9 22 14 0 12 -3 11 -26 -6z"/>
<path d="M1825 1910 c-10 -11 -16 -22 -13 -25 3 -3 13 6 22 20 20 30 16 32 -9
5z"/>
<path d="M6314 1908 l-19 -23 23 19 c12 11 22 21 22 23 0 8 -8 2 -26 -19z"/>
<path d="M195 1890 c-3 -6 1 -7 9 -4 18 7 21 14 7 14 -6 0 -13 -4 -16 -10z"/>
<path d="M1210 1612 c0 -18 5 -32 10 -32 6 0 8 11 4 28 -10 39 -14 40 -14 4z"/>
<path d="M2350 1451 c0 -5 5 -13 10 -16 6 -3 10 -2 10 4 0 5 -4 13 -10 16 -5
3 -10 2 -10 -4z"/>
<path d="M9316 1083 c-6 -14 -5 -15 5 -6 7 7 10 15 7 18 -3 3 -9 -2 -12 -12z"/>
</g>
</svg>
