<?xml version="1.0" standalone="no"?>
<!DOCTYPE svg PUBLIC "-//W3C//DTD SVG 20010904//EN"
 "http://www.w3.org/TR/2001/REC-SVG-20010904/DTD/svg10.dtd">
<svg version="1.0" xmlns="http://www.w3.org/2000/svg"
 width="1280.000000pt" height="439.000000pt" viewBox="0 0 1280.000000 439.000000"
 preserveAspectRatio="xMidYMid meet">
<metadata>
Created by potrace 1.15, written by Peter Selinger 2001-2017
</metadata>
<g transform="translate(0.000000,439.000000) scale(0.100000,-0.100000)"
fill="#9e9e9e" stroke="none">
<path d="M8079 4273 c-13 -16 -12 -17 4 -4 16 13 21 21 13 21 -2 0 -10 -8 -17
-17z"/>
<path d="M8112 4256 c-31 -33 -42 -53 -23 -42 5 4 11 2 13 -4 1 -5 12 10 24
35 11 25 20 45 20 45 -1 0 -16 -15 -34 -34z"/>
<path d="M7811 4233 l-33 -26 6 24 c6 23 6 23 -8 -2 -9 -15 -23 -29 -32 -33
-10 -4 -14 -13 -11 -26 6 -25 -18 -48 -27 -25 -3 9 -2 14 2 11 5 -3 9 1 9 9 0
11 -8 10 -33 -6 -34 -21 -59 -18 -50 7 3 7 0 16 -6 20 -7 4 -8 3 -4 -4 4 -6
-7 -26 -24 -44 -21 -23 -28 -27 -24 -13 4 11 14 29 23 40 15 19 15 19 -4 5
-10 -8 -45 -41 -76 -72 -32 -31 -68 -62 -80 -68 -20 -11 -21 -10 -15 6 6 16 5
17 -6 6 -7 -7 -13 -20 -13 -29 0 -9 -6 -18 -12 -20 -16 -6 -12 41 6 77 9 19 5
17 -17 -9 -21 -25 -31 -30 -35 -20 -2 8 -8 -5 -12 -29 -6 -33 -14 -46 -32 -53
-36 -13 -37 -11 -7 14 17 15 25 29 21 42 -5 19 -5 19 -12 -2 -4 -12 -14 -24
-22 -27 -11 -4 -13 -2 -10 9 4 8 2 17 -3 20 -6 4 -10 2 -10 -3 0 -5 -14 -15
-31 -22 -17 -7 -46 -24 -65 -36 -39 -27 -39 -26 -20 21 8 19 13 35 11 35 -7 0
-45 -77 -45 -90 0 -6 -12 -28 -27 -48 -22 -28 -24 -34 -10 -29 11 4 16 3 12
-3 -3 -6 -12 -10 -19 -10 -12 0 -119 -104 -156 -152 -22 -28 -97 -101 -169
-164 -44 -38 -101 -118 -101 -138 1 -6 9 3 18 20 20 35 94 125 99 120 2 -2 -6
-20 -18 -40 -11 -20 -18 -36 -15 -36 3 0 12 12 21 28 15 26 16 26 9 2 -10 -40
-30 -73 -58 -99 -14 -14 -26 -31 -26 -38 0 -8 -7 -28 -16 -45 -9 -17 -17 -47
-18 -67 -1 -20 -10 -52 -19 -71 -10 -19 -12 -26 -5 -16 7 10 24 31 36 45 19
21 23 22 17 6 -4 -11 -8 -28 -10 -37 -2 -10 -11 -28 -19 -40 -17 -24 -22 -53
-8 -44 5 3 6 -9 4 -26 -3 -21 -1 -29 7 -24 6 4 11 15 11 24 0 9 9 35 20 57 12
24 18 30 14 15 -3 -14 -7 -42 -8 -62 -4 -43 -16 -64 -85 -143 -28 -32 -51 -63
-50 -69 0 -6 6 -2 12 8 21 34 69 87 88 97 15 8 14 3 -6 -27 -16 -23 -22 -40
-15 -44 6 -4 -2 -22 -20 -46 -31 -41 -39 -64 -16 -45 12 10 14 6 13 -21 -2
-23 2 -32 11 -30 8 1 11 -2 7 -8 -4 -6 -10 -9 -13 -6 -5 6 -51 -62 -52 -76 0
-4 21 16 48 44 l47 51 6 -29 c6 -27 7 -28 8 -4 1 14 5 31 10 39 7 10 10 6 15
-15 13 -61 14 -101 4 -115 -7 -11 -9 -9 -5 9 3 12 1 20 -3 17 -5 -3 -11 5 -13
17 -3 14 -5 10 -5 -12 1 -19 -3 -44 -7 -55 -5 -16 -5 -17 4 -5 18 26 21 5 6
-50 -16 -59 -20 -108 -7 -96 8 8 9 14 11 52 0 14 5 22 11 19 6 -4 10 5 10 20
0 19 4 26 14 22 9 -4 17 4 21 21 4 15 9 22 12 15 2 -7 -1 -22 -9 -35 -12 -23
-37 -104 -37 -123 0 -5 7 6 16 25 15 31 17 32 20 13 3 -16 9 -20 21 -16 13 6
12 0 -6 -31 -13 -21 -21 -41 -18 -43 3 -3 1 -16 -4 -29 -6 -14 -6 -24 -1 -24
5 0 12 13 16 30 10 47 25 46 26 -2 2 -39 2 -40 9 -13 11 49 34 95 46 95 7 0
14 6 17 13 2 6 2 -1 -1 -18 -2 -16 -9 -36 -15 -44 -10 -12 -18 -30 -41 -96
l-8 -20 13 20 c7 11 21 33 32 49 12 16 16 26 9 22 -7 -4 -12 -3 -12 3 0 16 18
22 23 9 3 -9 11 -4 25 12 12 14 21 21 22 17 0 -5 -17 -29 -39 -55 -21 -26 -44
-58 -51 -72 -15 -29 -6 -21 40 39 33 42 34 43 42 20 5 -12 6 -29 3 -37 -5 -12
-3 -13 10 -2 14 12 15 10 9 -16 -4 -16 -13 -41 -20 -56 -8 -15 -14 -33 -13
-40 0 -7 5 -2 12 12 11 25 11 25 15 -10 2 -19 7 -38 11 -43 4 -4 5 12 1 35 -4
30 -2 51 9 71 17 31 30 35 29 10 0 -10 3 -27 7 -38 5 -14 4 -16 -3 -7 -7 11
-10 8 -14 -12 -3 -15 0 -27 8 -30 8 -3 14 -1 14 4 0 6 5 10 10 10 6 0 10 -7
10 -15 0 -8 5 -15 12 -15 9 0 9 -3 0 -12 -17 -17 -15 -33 3 -18 13 11 15 8 15
-18 0 -17 -5 -43 -10 -58 -9 -22 -8 -25 3 -16 8 7 16 9 19 7 3 -3 3 5 1 18 -3
14 0 28 6 31 6 4 11 -1 11 -12 0 -25 30 -112 49 -141 16 -25 16 -25 24 29 4
30 12 59 17 64 13 13 13 -6 0 -59 -6 -25 -5 -44 0 -49 7 -7 10 -3 10 10 0 27
10 36 24 21 21 -21 25 -57 10 -92 -12 -29 -12 -33 0 -29 9 4 15 -7 20 -36 3
-23 4 -45 1 -50 -3 -4 -1 -19 4 -32 9 -21 10 -19 10 15 1 20 5 37 9 37 4 0 7
-17 5 -37 -2 -27 -1 -32 5 -19 5 11 11 15 15 10 3 -5 -3 -29 -14 -53 -27 -60
-23 -75 5 -21 13 25 36 56 52 70 15 14 24 19 20 13 -4 -7 -2 -13 4 -13 6 0 8
-5 5 -11 -4 -6 -8 -23 -10 -37 -2 -15 -6 -37 -10 -49 -5 -15 -3 -23 4 -23 6 0
11 6 11 13 0 7 6 21 13 32 13 16 13 15 9 -16 -3 -19 -12 -45 -20 -57 -10 -16
-12 -26 -5 -30 5 -4 13 -24 17 -44 5 -28 2 -45 -14 -70 -26 -44 -26 -62 1 -20
12 17 23 32 25 32 7 0 -7 -72 -19 -95 -10 -19 -9 -20 11 -2 24 22 28 17 37
-44 5 -35 3 -48 -9 -58 -14 -12 -16 -8 -17 35 -2 46 -2 44 -11 -21 -11 -95
-10 -142 8 -194 29 -87 -25 -80 707 -81 404 0 655 4 667 10 38 20 52 112 25
164 -14 26 -14 31 0 52 9 13 20 24 26 24 5 0 4 6 -3 14 -7 8 -16 12 -20 10 -4
-2 0 9 8 26 9 16 20 30 26 30 6 0 8 10 5 22 -4 15 1 30 15 45 22 24 12 33 -11
11 -11 -11 -12 -8 -6 12 11 39 43 87 76 115 17 14 26 25 21 25 -18 0 -113
-110 -106 -123 5 -9 4 -9 -5 -1 -22 21 -20 108 3 105 21 -3 26 2 26 24 0 18
10 31 33 46 l32 20 -29 -7 c-26 -6 -27 -5 -17 15 7 13 8 21 2 21 -6 0 -8 7 -4
16 5 13 9 11 20 -11 21 -39 26 -25 8 19 -9 21 -12 35 -7 32 5 -3 12 15 15 40
5 51 14 65 28 44 7 -11 8 -9 7 10 -2 19 1 25 15 23 16 -1 18 4 12 39 -5 30 -4
39 5 33 9 -5 10 6 5 46 -6 53 -6 54 26 72 26 14 30 20 19 27 -11 7 -12 12 -3
21 6 6 9 19 6 28 -3 12 -1 11 7 -2 10 -16 14 -26 19 -57 1 -3 5 1 10 8 4 8 4
34 -2 60 -6 30 -6 47 0 49 6 2 8 16 6 31 -3 19 -2 23 5 13 8 -10 10 -11 14 0
3 8 11 5 28 -12 12 -13 20 -18 16 -12 -4 7 -2 21 3 30 9 16 10 15 11 -5 0 -13
4 -21 10 -17 5 3 7 13 4 23 -5 14 -4 15 5 2 6 -8 11 -23 11 -32 0 -10 4 -18 8
-18 5 0 8 35 6 78 -1 42 0 65 2 50 3 -14 11 -32 19 -38 11 -9 11 -3 0 42 -14
52 -14 61 0 106 10 31 21 27 30 -10 5 -27 8 -29 14 -15 8 22 20 24 33 5 7 -9
8 -7 3 7 -3 11 -9 33 -12 49 -5 24 -3 28 10 23 9 -3 17 -1 20 6 2 7 4 -3 4
-21 0 -18 5 -38 12 -45 11 -10 12 -7 6 12 -5 17 -4 21 5 16 11 -7 8 27 -7 90
-3 14 -2 16 5 7 7 -11 10 -9 15 7 3 13 1 19 -5 15 -6 -4 -8 -1 -6 7 3 8 11 13
18 11 8 -2 10 3 6 13 -11 30 7 38 20 9 13 -29 13 -28 9 14 -5 48 10 57 20 12
4 -16 10 -32 14 -35 5 -2 3 13 -3 35 -9 35 -8 42 9 55 17 12 17 14 4 15 -27 0
-30 28 -6 51 l22 21 -23 -7 c-21 -6 -22 -4 -16 22 10 41 24 76 37 94 7 8 -4
-2 -23 -23 -20 -21 -41 -38 -48 -38 -22 0 -12 25 21 49 27 19 28 22 9 18 -18
-4 -25 0 -33 20 -6 18 -6 30 2 39 9 11 8 14 -2 14 -10 1 -9 4 4 14 9 7 17 17
17 21 0 4 -8 4 -17 0 -10 -3 -3 10 16 29 36 37 35 44 -2 25 -21 -10 -21 -9 1
10 24 21 22 44 -3 35 -8 -4 -12 -10 -9 -15 7 -12 -7 -11 -26 1 -13 9 -13 12 3
21 9 5 17 15 17 20 0 6 -4 7 -10 4 -23 -14 -8 19 21 46 32 30 28 39 -6 16 -11
-8 -28 -17 -37 -20 -14 -5 -16 -3 -8 11 5 9 19 37 31 62 l22 44 -38 -32 c-41
-37 -61 -35 -27 1 23 24 32 51 10 29 -17 -17 -24 -15 -25 10 -1 14 1 18 5 11
6 -9 11 -7 20 7 10 17 9 18 -6 13 -14 -6 -15 -4 -4 9 8 9 9 19 4 22 -6 3 -15
-1 -22 -9 -15 -18 -37 -21 -23 -2 6 6 13 21 17 31 7 19 6 19 -14 1 -25 -23
-32 -17 -24 22 5 24 15 35 43 46 l36 15 -30 -1 c-16 0 -41 -8 -55 -16 -19 -11
-22 -11 -12 -1 6 8 12 20 12 27 0 17 -27 17 -33 1 -4 -9 -6 -8 -6 2 -1 9 6 26
15 38 13 19 13 22 0 22 -21 0 -48 -29 -40 -43 5 -8 2 -8 -6 0 -12 11 -10 18 9
44 22 30 22 30 2 19 -14 -7 -21 -7 -21 0 0 6 11 15 25 22 13 6 22 15 19 20 -3
4 -10 6 -15 3 -5 -4 -9 -1 -9 5 0 6 -12 3 -27 -7 -27 -17 -27 -17 -14 0 12 16
12 17 -5 10 -17 -6 -18 -5 -5 11 13 16 12 16 -15 4 -16 -7 -32 -17 -36 -23 -5
-6 -8 -4 -8 4 0 8 10 25 22 38 l22 23 -31 -6 c-44 -9 -50 10 -18 57 26 40 26
41 4 34 -12 -4 -19 -3 -16 2 8 13 -28 10 -45 -4 -34 -26 -40 -23 -13 6 23 25
25 31 10 25 -19 -8 -19 -7 -3 17 16 25 16 25 -13 21 -16 -2 -29 -8 -29 -13 0
-5 -4 -9 -10 -9 -5 0 -6 7 -3 17 4 11 3 14 -5 9 -17 -10 -15 5 3 32 15 20 15
21 -2 15 -15 -6 -16 -4 -5 9 17 22 0 31 -24 13 -10 -8 -28 -14 -39 -14 -19 0
-19 1 1 9 12 4 24 16 27 24 6 15 4 15 -23 1 -50 -26 -69 -11 -32 23 9 10 13
14 8 10 -16 -13 -29 -9 -19 5 6 6 13 25 17 40 7 28 6 28 -31 22 -30 -5 -34 -4
-20 5 25 16 22 33 -5 19 -18 -10 -20 -9 -15 7 5 14 3 14 -9 -3 -9 -13 -25 -23
-36 -23 -18 0 -17 4 11 35 42 48 39 57 -4 15 -24 -23 -46 -35 -67 -36 l-31 -1
34 28 34 29 -31 -15 c-18 -9 -37 -22 -44 -30 -7 -8 -20 -15 -28 -15 -13 0 -12
3 4 14 10 8 16 18 12 22 -5 4 -17 -1 -28 -11 -11 -10 -20 -14 -20 -8 0 13 35
45 42 38 3 -3 13 4 23 15 18 19 17 20 -4 20 -15 0 -20 4 -15 12 4 7 -6 2 -22
-9 -17 -12 -43 -25 -60 -29 l-29 -7 23 25 c26 28 28 38 7 38 -18 0 -19 12 -2
29 10 10 7 10 -16 2 -16 -6 -37 -16 -48 -21 -13 -7 -19 -7 -19 0 0 5 6 10 13
10 9 0 9 2 0 8 -8 5 -9 13 -3 22 16 24 11 31 -11 20 -17 -10 -20 -9 -17 7 3
20 29 44 40 37 4 -3 5 2 2 10 -5 14 -11 13 -38 -6 -17 -12 -32 -25 -34 -29 -1
-3 -16 -5 -32 -3 -20 2 -30 -1 -30 -10 0 -7 -9 -21 -20 -31 -18 -16 -20 -16
-20 -2 0 9 8 21 18 26 9 6 13 11 8 11 -5 0 -1 10 10 23 l19 22 -23 -19 c-32
-28 -41 -10 -9 20 37 34 34 40 -5 12 -34 -24 -77 -48 -85 -48 -3 0 0 7 7 15 9
11 10 19 3 26 -8 8 -13 7 -18 -2 -6 -8 -4 -10 5 -4 8 5 11 4 6 -3 -4 -6 -12
-9 -19 -6 -7 2 -23 -9 -35 -26 -13 -16 -28 -30 -34 -30 -6 0 -1 11 11 24 l22
23 -25 -2 c-15 -2 -26 1 -26 7 0 6 -6 5 -15 -2 -15 -12 -22 0 -8 14 4 3 8 13
9 21 2 10 -6 8 -27 -7 -29 -22 -40 -35 -16 -22 6 4 3 -2 -7 -14 -11 -12 -25
-22 -32 -22 -7 0 -16 -5 -20 -12 -5 -7 -3 -8 6 -3 8 5 11 3 8 -5 -2 -8 -10
-16 -16 -18 -18 -6 -11 56 7 71 12 10 14 9 8 -5 -3 -10 -2 -18 3 -18 6 0 10 3
11 8 6 53 4 62 -11 56 -8 -3 -23 -9 -32 -11 -10 -3 -16 -9 -13 -13 3 -5 -8
-18 -24 -29 -34 -25 -49 -27 -31 -6 7 9 11 17 9 20 -5 4 -64 -48 -71 -62 -1
-4 -16 -19 -33 -33 -16 -14 -24 -18 -17 -9 7 9 10 24 6 33 -4 10 0 18 10 22 9
3 16 14 16 24 0 10 12 32 26 49 32 38 29 39 -15 4z m409 -58 c0 -2 -10 -9 -22
-15 -22 -11 -22 -10 -4 4 21 17 26 19 26 11z m150 -14 c-5 -11 -15 -23 -22
-27 -7 -5 -8 -2 -3 7 21 37 44 55 25 20z m-44 -17 c-30 -21 -44 -16 -17 7 13
11 27 17 30 13 3 -3 -3 -12 -13 -20z m-626 -7 c0 -2 -14 -19 -31 -38 -29 -32
-31 -33 -27 -9 2 14 14 30 28 37 27 14 30 15 30 10z m170 -28 c-7 -11 -14 -18
-17 -15 -3 3 0 12 7 21 18 21 23 19 10 -6z m57 -11 c-3 -8 -6 -5 -6 6 -1 11 2
17 5 13 3 -3 4 -12 1 -19z m-35 -20 c-6 -26 -43 -80 -50 -73 -6 6 38 95 48 95
4 0 6 -10 2 -22z m-112 -18 c-6 -12 -14 -19 -17 -17 -2 3 1 15 7 27 6 12 14
19 17 17 2 -3 -1 -15 -7 -27z m150 10 c0 -5 -5 -10 -11 -10 -5 0 -7 5 -4 10 3
6 8 10 11 10 2 0 4 -4 4 -10z m-120 -50 c0 -19 -5 -30 -14 -30 -12 0 -12 5 -3
30 6 17 13 30 14 30 2 0 3 -13 3 -30z m-350 -10 c0 -5 -5 -10 -11 -10 -5 0 -7
5 -4 10 3 6 8 10 11 10 2 0 4 -4 4 -10z m300 -19 c0 -6 -4 -13 -10 -16 -5 -3
-10 1 -10 9 0 9 5 16 10 16 6 0 10 -4 10 -9z m-521 -29 c-6 -10 -24 -25 -39
-34 -23 -13 -30 -14 -34 -3 -2 8 2 19 10 25 8 7 14 9 14 6 0 -4 10 0 22 8 30
21 41 20 27 -2z m194 -7 c-3 -9 -8 -14 -10 -11 -3 3 -2 9 2 15 9 16 15 13 8
-4z m169 -7 c-7 -7 -12 -8 -12 -2 0 14 12 26 19 19 2 -3 -1 -11 -7 -17z m245
0 c-3 -8 -6 -5 -6 6 -1 11 2 17 5 13 3 -3 4 -12 1 -19z m789 4 c-9 -15 -48
-23 -43 -9 2 7 9 12 15 12 5 0 14 3 18 8 10 9 18 1 10 -11z m-825 -58 c-11
-15 -21 -21 -21 -14 0 15 31 52 38 46 2 -3 -5 -17 -17 -32z m-671 5 c-7 -11
-14 -18 -17 -15 -3 3 0 12 7 21 18 21 23 19 10 -6z m643 6 c-3 -9 -8 -14 -10
-11 -3 3 -2 9 2 15 9 16 15 13 8 -4z m-529 -40 c-4 -8 -11 -15 -16 -15 -6 0
-5 6 2 15 7 8 14 15 16 15 2 0 1 -7 -2 -15z m1498 -7 c-7 -7 -12 -8 -12 -2 0
14 12 26 19 19 2 -3 -1 -11 -7 -17z m-1550 -15 c-10 -16 -17 -33 -15 -40 2 -6
0 -14 -6 -17 -18 -11 -8 39 12 62 28 30 32 28 9 -5z m543 -12 c-20 -20 -29 -8
-14 18 10 14 15 17 21 8 4 -7 1 -18 -7 -26z m-493 -13 c-7 -7 -12 -8 -12 -2 0
14 12 26 19 19 2 -3 -1 -11 -7 -17z m-32 2 c0 -5 -5 -10 -11 -10 -5 0 -7 5 -4
10 3 6 8 10 11 10 2 0 4 -4 4 -10z m493 -33 c3 -8 -1 -14 -8 -14 -7 0 -11 6
-8 14 3 7 6 13 8 13 2 0 5 -6 8 -13z m-514 -49 c-11 -19 -14 -20 -17 -6 -2 9
2 27 9 40 11 19 14 20 17 6 2 -9 -2 -27 -9 -40z m-146 1 c-4 -15 -8 -17 -14
-8 -8 14 -3 29 11 29 4 0 6 -9 3 -21z m1870 -4 c-3 -9 -8 -14 -10 -11 -3 3 -2
9 2 15 9 16 15 13 8 -4z m-1168 -27 c-4 -48 -4 -48 -15 -48 -14 0 -12 54 2 68
16 16 16 16 13 -20z m-673 -4 c-3 -15 -8 -22 -14 -16 -9 9 -1 42 12 42 4 0 5
-12 2 -26z m78 16 c0 -5 -5 -10 -11 -10 -5 0 -7 5 -4 10 3 6 8 10 11 10 2 0 4
-4 4 -10z m467 -22 c-3 -7 -5 -2 -5 12 0 14 2 19 5 13 2 -7 2 -19 0 -25z
m1252 -9 c-12 -24 -39 -54 -39 -45 0 3 10 21 21 41 23 39 39 42 18 4z m-1866
-29 c-3 -12 -8 -19 -11 -16 -5 6 5 36 12 36 2 0 2 -9 -1 -20z m1977 11 c0 -5
-9 -19 -20 -32 -17 -21 -19 -21 -13 -4 10 33 33 57 33 36z m-1063 -23 c-3 -8
-6 -5 -6 6 -1 11 2 17 5 13 3 -3 4 -12 1 -19z m113 2 c0 -5 -5 -10 -11 -10 -5
0 -7 5 -4 10 3 6 8 10 11 10 2 0 4 -4 4 -10z m-1127 -15 c-3 -9 -8 -14 -10
-11 -3 3 -2 9 2 15 9 16 15 13 8 -4z m149 -7 c-7 -7 -12 -8 -12 -2 0 14 12 26
19 19 2 -3 -1 -11 -7 -17z m699 -1 c-10 -9 -11 -8 -5 6 3 10 9 15 12 12 3 -3
0 -11 -7 -18z m116 -29 c-3 -7 -5 -2 -5 12 0 14 2 19 5 13 2 -7 2 -19 0 -25z
m63 22 c0 -5 -5 -10 -11 -10 -5 0 -7 5 -4 10 3 6 8 10 11 10 2 0 4 -4 4 -10z
m-120 -4 c0 -3 -4 -8 -10 -11 -5 -3 -10 -1 -10 4 0 6 5 11 10 11 6 0 10 -2 10
-4z m36 -42 c-4 -9 -9 -15 -11 -12 -3 3 -3 13 1 22 4 9 9 15 11 12 3 -3 3 -13
-1 -22z m64 16 c0 -5 -5 -10 -11 -10 -5 0 -7 5 -4 10 3 6 8 10 11 10 2 0 4 -4
4 -10z m182 -12 c-7 -7 -12 -8 -12 -2 0 14 12 26 19 19 2 -3 -1 -11 -7 -17z
m879 -34 c-11 -15 -21 -24 -21 -20 0 12 33 57 37 52 3 -3 -4 -17 -16 -32z
m-1701 2 c0 -8 -8 -20 -17 -27 -15 -12 -16 -12 -10 4 4 10 7 25 7 33 0 9 5 12
10 9 6 -3 10 -12 10 -19z m792 -18 c-9 -9 -12 -7 -12 12 0 19 3 21 12 12 9 -9
9 -15 0 -24z m-82 18 c0 -3 -4 -8 -10 -11 -5 -3 -10 -1 -10 4 0 6 5 11 10 11
6 0 10 -2 10 -4z m-1196 -52 c-10 -20 -20 -32 -22 -26 -4 13 27 76 35 69 2 -3
-3 -22 -13 -43z m166 32 c0 -16 -28 -42 -36 -33 -8 7 14 47 26 47 6 0 10 -6
10 -14z m267 -18 c-3 -8 -6 -5 -6 6 -1 11 2 17 5 13 3 -3 4 -12 1 -19z m733
18 c0 -3 -4 -8 -10 -11 -5 -3 -10 -1 -10 4 0 6 5 11 10 11 6 0 10 -2 10 -4z
m242 -28 c-7 -7 -12 -8 -12 -2 0 14 12 26 19 19 2 -3 -1 -11 -7 -17z m796 2
c-7 -10 -14 -18 -15 -16 -6 6 9 36 18 36 5 0 4 -9 -3 -20z m-927 -13 c-10 -9
-11 -8 -5 6 3 10 9 15 12 12 3 -3 0 -11 -7 -18z m349 14 c0 -6 -4 -13 -10 -16
-5 -3 -10 1 -10 9 0 9 5 16 10 16 6 0 10 -4 10 -9z m-228 -43 c-7 -7 -12 -8
-12 -2 0 14 12 26 19 19 2 -3 -1 -11 -7 -17z m-264 -29 c-1 -22 -3 -27 -10
-16 -4 8 -5 22 -2 31 9 24 13 19 12 -15z m122 21 c0 -5 -4 -10 -10 -10 -5 0
-10 5 -10 10 0 6 5 10 10 10 6 0 10 -4 10 -10z m113 -38 c-6 -24 -23 -30 -23
-9 0 13 21 39 26 34 2 -2 1 -13 -3 -25z m-75 -2 c-7 -10 -14 -18 -15 -16 -6 6
9 36 18 36 5 0 4 -9 -3 -20z m-1157 -23 c-8 -8 -11 -7 -11 4 0 20 13 34 18 19
3 -7 -1 -17 -7 -23z m1112 8 c-3 -9 -8 -14 -10 -11 -3 3 -2 9 2 15 9 16 15 13
8 -4z m-793 1 c0 -3 -4 -8 -10 -11 -5 -3 -10 -1 -10 4 0 6 5 11 10 11 6 0 10
-2 10 -4z m-358 -38 c-8 -8 -9 -4 -5 13 4 13 8 18 11 10 2 -7 -1 -18 -6 -23z
m725 12 c-1 -12 -5 -16 -10 -11 -5 5 -6 14 -3 20 11 16 15 13 13 -9z m-857 0
c0 -5 -5 -10 -11 -10 -5 0 -7 5 -4 10 3 6 8 10 11 10 2 0 4 -4 4 -10z m170 -4
c0 -2 -7 -9 -15 -16 -13 -11 -14 -10 -9 4 5 14 24 23 24 12z m930 0 c0 -3 -4
-8 -10 -11 -5 -3 -10 -1 -10 4 0 6 5 11 10 11 6 0 10 -2 10 -4z m30 -10 c0 -2
-7 -9 -15 -16 -13 -11 -14 -10 -9 4 5 14 24 23 24 12z m204 -31 c-26 -19 -31
-9 -8 16 11 12 20 16 22 9 2 -6 -4 -17 -14 -25z m-436 -16 c-3 -34 -15 -46
-30 -31 -7 7 -4 18 7 36 22 34 26 33 23 -5z m498 11 c0 -11 -6 -22 -13 -24
-16 -7 -17 16 -1 32 7 7 12 12 13 12 0 0 1 -9 1 -20z m-1016 6 c0 -3 -4 -8
-10 -11 -5 -3 -10 -1 -10 4 0 6 5 11 10 11 6 0 10 -2 10 -4z m-450 -25 c-16
-31 -32 -36 -18 -7 6 14 15 26 20 26 5 0 4 -9 -2 -19z m228 -6 c-6 -14 -13
-24 -14 -22 -6 6 9 47 17 47 5 0 3 -11 -3 -25z m1196 10 c-4 -8 -11 -15 -16
-15 -6 0 -5 6 2 15 7 8 14 15 16 15 2 0 1 -7 -2 -15z m-1332 -17 c-7 -7 -12
-8 -12 -2 0 14 12 26 19 19 2 -3 -1 -11 -7 -17z m978 6 c0 -8 -5 -12 -10 -9
-6 4 -8 11 -5 16 9 14 15 11 15 -7z m-1050 -40 c-18 -21 -24 -10 -9 18 8 14
14 18 17 10 2 -7 -2 -19 -8 -28z m569 9 c0 -25 -1 -25 -8 -8 -5 11 -7 23 -4
28 8 14 13 7 12 -20z m853 -5 c-7 -7 -12 -8 -12 -2 0 14 12 26 19 19 2 -3 -1
-11 -7 -17z m-1039 -18 c-3 -11 -9 -17 -15 -14 -5 3 -4 12 3 20 16 19 18 18
12 -6z m567 16 c0 -3 -4 -8 -10 -11 -5 -3 -10 -1 -10 4 0 6 5 11 10 11 6 0 10
-2 10 -4z m-1009 -29 c-10 -9 -11 -8 -5 6 3 10 9 15 12 12 3 -3 0 -11 -7 -18z
m580 0 c-10 -9 -11 -8 -5 6 3 10 9 15 12 12 3 -3 0 -11 -7 -18z m-311 3 c0 -5
-2 -10 -4 -10 -3 0 -8 5 -11 10 -3 6 -1 10 4 10 6 0 11 -4 11 -10z m2276 -18
c-18 -16 -18 -16 -6 6 6 13 14 21 18 18 3 -4 -2 -14 -12 -24z m-1792 -3 c-3
-5 -10 -7 -15 -3 -5 3 -7 10 -3 15 3 5 10 7 15 3 5 -3 7 -10 3 -15z m96 14
c-1 -12 -26 -43 -36 -43 -4 0 -3 5 3 11 6 6 9 18 6 25 -3 8 1 14 11 14 9 0 16
-3 16 -7z m120 3 c0 -3 -4 -8 -10 -11 -5 -3 -10 -1 -10 4 0 6 5 11 10 11 6 0
10 -2 10 -4z m65 -31 c-4 -38 -11 -55 -25 -55 -11 0 -1 60 13 78 14 18 15 16
12 -23z m-965 15 c0 -5 -5 -10 -11 -10 -5 0 -7 5 -4 10 3 6 8 10 11 10 2 0 4
-4 4 -10z m2030 6 c0 -3 -4 -8 -10 -11 -5 -3 -10 -1 -10 4 0 6 5 11 10 11 6 0
10 -2 10 -4z m-1954 -68 c-6 -10 -15 -18 -19 -18 -5 0 -6 8 -2 18 4 9 10 28
13 42 l6 25 6 -25 c4 -14 2 -33 -4 -42z m300 40 c-3 -13 -5 -35 -5 -49 -1 -15
-10 -37 -22 -50 l-20 -24 15 25 c9 15 13 42 11 68 -2 23 1 40 6 36 5 -3 9 0 9
5 0 6 2 11 5 11 3 0 3 -10 1 -22z m-46 -3 c0 -8 -4 -15 -10 -15 -5 0 -7 7 -4
15 4 8 8 15 10 15 2 0 4 -7 4 -15z m210 5 c0 -5 -5 -10 -11 -10 -5 0 -7 5 -4
10 3 6 8 10 11 10 2 0 4 -4 4 -10z m164 -7 c4 -10 4 -14 0 -10 -4 4 -16 0 -26
-10 -10 -9 -21 -13 -25 -9 -4 4 3 16 17 26 30 24 27 23 34 3z m417 -6 c-10 -9
-11 -8 -5 6 3 10 9 15 12 12 3 -3 0 -11 -7 -18z m874 3 c3 -5 1 -10 -4 -10 -6
0 -11 5 -11 10 0 6 2 10 4 10 3 0 8 -4 11 -10z m-338 -32 c-3 -8 -6 -5 -6 6
-1 11 2 17 5 13 3 -3 4 -12 1 -19z m-888 -20 c-8 -14 -14 -18 -17 -10 -4 13
17 46 25 38 3 -2 -1 -15 -8 -28z m295 8 c-3 -9 -10 -16 -15 -16 -6 0 -5 9 1
21 13 24 24 20 14 -5z m1470 9 c-6 -16 -24 -21 -24 -7 0 11 11 22 21 22 5 0 6
-7 3 -15z m-524 -16 c0 -5 -4 -9 -10 -9 -5 0 -10 7 -10 16 0 8 5 12 10 9 6 -3
10 -10 10 -16z m-1670 2 c0 -5 -7 -11 -15 -15 -15 -5 -20 5 -8 17 9 10 23 9
23 -2z m353 -16 c-5 -22 -33 -57 -33 -41 0 9 29 66 34 66 2 0 1 -11 -1 -25z
m-536 -7 c-3 -8 -6 -5 -6 6 -1 11 2 17 5 13 3 -3 4 -12 1 -19z m-136 -11 c-10
-9 -11 -8 -5 6 3 10 9 15 12 12 3 -3 0 -11 -7 -18z m179 8 c0 -8 -4 -15 -10
-15 -5 0 -7 7 -4 15 4 8 8 15 10 15 2 0 4 -7 4 -15z m592 -20 c-2 -14 -6 -25
-8 -25 -2 0 -4 11 -4 25 0 14 4 25 9 25 4 0 6 -11 3 -25z m278 21 c0 -3 -4 -8
-10 -11 -5 -3 -10 -1 -10 4 0 6 5 11 10 11 6 0 10 -2 10 -4z m1344 -21 c-4 -8
-8 -15 -10 -15 -2 0 -4 7 -4 15 0 8 4 15 10 15 5 0 7 -7 4 -15z m-1951 -10
c-3 -9 -8 -14 -10 -11 -3 3 -2 9 2 15 9 16 15 13 8 -4z m2077 11 c0 -3 -4 -8
-10 -11 -5 -3 -10 -1 -10 4 0 6 5 11 10 11 6 0 10 -2 10 -4z m-1277 -41 c-3
-8 -9 -15 -14 -15 -10 0 -12 24 -3 33 11 11 24 -3 17 -18z m-1087 -2 c-3 -10
-8 -30 -12 -45 -7 -31 -24 -38 -24 -10 0 23 22 72 33 72 5 0 6 -8 3 -17z m181
-8 c-4 -8 -14 -15 -23 -15 -16 0 -16 2 1 20 20 22 31 20 22 -5z m570 -7 c-3
-8 -6 -5 -6 6 -1 11 2 17 5 13 3 -3 4 -12 1 -19z m-865 -10 c-7 -7 -12 -8 -12
-2 0 14 12 26 19 19 2 -3 -1 -11 -7 -17z m899 -5 c-8 -15 -10 -15 -11 -2 0 17
10 32 18 25 2 -3 -1 -13 -7 -23z m699 7 c-6 -11 -13 -20 -16 -20 -2 0 0 9 6
20 6 11 13 20 16 20 2 0 0 -9 -6 -20z m-1288 -20 c-2 -16 -8 -30 -13 -30 -11
0 -11 3 1 34 13 34 18 33 12 -4z m348 10 c0 -5 -5 -10 -11 -10 -5 0 -7 5 -4
10 3 6 8 10 11 10 2 0 4 -4 4 -10z m70 -63 c5 -21 6 -36 3 -33 -4 3 -12 1 -20
-5 -17 -14 -17 2 0 20 7 8 7 11 1 8 -16 -9 -25 54 -10 72 9 12 12 11 14 -5 2
-10 7 -36 12 -57z m486 46 c-4 -8 -9 -26 -12 -39 -3 -13 -10 -24 -14 -24 -16
0 -17 35 -2 53 9 9 10 17 4 17 -6 0 -12 -6 -15 -12 -2 -7 -8 -9 -13 -5 -12 12
24 37 43 30 8 -3 12 -12 9 -20z m-1149 -15 c-3 -7 -5 -2 -5 12 0 14 2 19 5 13
2 -7 2 -19 0 -25z m2283 28 c0 -2 -8 -10 -17 -17 -16 -13 -17 -12 -4 4 13 16
21 21 21 13z m-1403 -36 c1 -16 -2 -32 -6 -35 -5 -3 -7 5 -4 17 4 19 3 20 -6
8 -9 -13 -11 -12 -11 6 0 42 24 46 27 4z m-287 11 c0 -6 -4 -13 -10 -16 -5 -3
-10 1 -10 9 0 9 5 16 10 16 6 0 10 -4 10 -9z m-378 -33 c-15 -15 -24 -6 -16
16 5 12 10 14 17 7 8 -8 8 -14 -1 -23z m567 20 c0 -7 -4 -22 -9 -33 -7 -17 -9
-15 -9 13 -1 17 4 32 9 32 6 0 10 -6 9 -12z m-92 -30 c-3 -7 -5 -2 -5 12 0 14
2 19 5 13 2 -7 2 -19 0 -25z m-727 18 c0 -3 -4 -8 -10 -11 -5 -3 -10 -1 -10 4
0 6 5 11 10 11 6 0 10 -2 10 -4z m500 -5 c0 -6 -4 -12 -8 -15 -5 -3 -9 1 -9 9
0 8 4 15 9 15 4 0 8 -4 8 -9z m120 -26 c-13 -14 -26 -23 -28 -20 -3 2 6 15 19
29 13 14 26 23 28 20 2 -2 -6 -15 -19 -29z m262 5 c5 -33 -6 -50 -16 -24 -9
23 -7 54 3 54 5 0 11 -14 13 -30z m-842 10 c0 -5 -5 -10 -11 -10 -5 0 -7 5 -4
10 3 6 8 10 11 10 2 0 4 -4 4 -10z m532 -12 c-7 -7 -12 -8 -12 -2 0 14 12 26
19 19 2 -3 -1 -11 -7 -17z m493 -8 c-10 -11 -20 -18 -23 -15 -3 3 3 14 13 25
10 11 20 18 23 15 3 -3 -3 -14 -13 -25z m1251 3 c-10 -10 -19 5 -10 18 6 11 8
11 12 0 2 -7 1 -15 -2 -18z m-2221 -2 c-3 -6 -11 -11 -17 -11 -6 0 -6 6 2 15
14 17 26 13 15 -4z m1060 -10 c-6 -5 -25 10 -25 20 0 5 6 4 14 -3 8 -7 12 -15
11 -17z m-1277 0 c-11 -18 -48 -25 -48 -9 0 13 18 18 23 6 3 -9 7 -7 12 5 4 9
11 17 16 17 5 0 4 -9 -3 -19z m127 9 c-3 -5 -1 -10 4 -10 18 0 12 -24 -9 -43
-19 -16 -20 -16 -20 3 0 10 4 21 10 25 5 3 7 12 3 20 -3 8 0 15 7 15 6 0 8 -4
5 -10z m2168 -5 c-3 -9 -8 -14 -10 -11 -3 3 -2 9 2 15 9 16 15 13 8 -4z
m-1423 -21 c0 -8 -4 -14 -10 -14 -5 0 -10 9 -10 21 0 11 5 17 10 14 6 -3 10
-13 10 -21z m-809 -11 c-8 -15 -10 -15 -11 -2 0 17 10 32 18 25 2 -3 -1 -13
-7 -23z m521 -27 c-8 -18 -10 -16 -9 17 1 28 3 33 10 21 6 -10 5 -24 -1 -38z
m458 50 c0 -3 -4 -8 -10 -11 -5 -3 -10 -1 -10 4 0 6 5 11 10 11 6 0 10 -2 10
-4z m-868 -28 c-7 -7 -12 -8 -12 -2 0 14 12 26 19 19 2 -3 -1 -11 -7 -17z
m520 0 c-7 -7 -12 -8 -12 -2 0 14 12 26 19 19 2 -3 -1 -11 -7 -17z m424 -15
c-11 -11 -17 4 -9 23 7 18 8 18 11 1 2 -10 1 -21 -2 -24z m-744 5 c-7 -7 -12
-8 -12 -2 0 14 12 26 19 19 2 -3 -1 -11 -7 -17z m-162 -8 c0 -11 -4 -20 -9
-20 -7 0 -8 17 -2 38 4 10 11 -2 11 -18z m770 13 c0 -11 -44 -73 -52 -73 -9 0
1 27 22 58 14 21 30 29 30 15z m-990 -6 c0 -2 -10 -12 -21 -23 -22 -19 -22
-19 -10 4 10 18 31 31 31 19z m97 -44 c-3 -10 -5 -2 -5 17 0 19 2 27 5 18 2
-10 2 -26 0 -35z m1103 43 c0 -3 -4 -8 -10 -11 -5 -3 -10 -1 -10 4 0 6 5 11
10 11 6 0 10 -2 10 -4z m-140 -27 c-7 -11 -14 -18 -17 -15 -3 3 0 12 7 21 18
21 23 19 10 -6z m100 11 c0 -5 -5 -10 -11 -10 -5 0 -7 5 -4 10 3 6 8 10 11 10
2 0 4 -4 4 -10z m-1034 -28 c-18 -16 -18 -16 -6 6 6 13 14 21 18 18 3 -4 -2
-14 -12 -24z m974 19 c0 -6 -4 -13 -10 -16 -5 -3 -10 1 -10 9 0 9 5 16 10 16
6 0 10 -4 10 -9z m1510 -1 c0 -5 -2 -10 -4 -10 -3 0 -8 5 -11 10 -3 6 -1 10 4
10 6 0 11 -4 11 -10z m-2630 -35 c-7 -9 -15 -13 -18 -10 -3 2 1 11 8 20 7 9
15 13 18 10 3 -2 -1 -11 -8 -20z m460 -11 c-18 -21 -24 -10 -8 15 7 12 14 17
16 11 2 -6 -2 -17 -8 -26z m179 0 c-6 -16 -13 -24 -16 -17 -5 13 16 58 23 50
3 -2 -1 -17 -7 -33z m256 -10 c-10 -19 -15 -23 -15 -11 0 20 23 62 28 49 1 -5
-4 -22 -13 -38z m125 42 c0 -3 -4 -8 -10 -11 -5 -3 -10 -1 -10 4 0 6 5 11 10
11 6 0 10 -2 10 -4z m270 -6 c0 -5 -4 -10 -10 -10 -5 0 -10 5 -10 10 0 6 5 10
10 10 6 0 10 -4 10 -10z m-1192 -44 c2 -30 -3 -48 -15 -57 -15 -13 -16 -11
-10 11 4 14 7 40 7 58 0 48 17 39 18 -12z m74 12 c-7 -7 -12 -8 -12 -2 0 14
12 26 19 19 2 -3 -1 -11 -7 -17z m1388 7 c0 -8 -4 -15 -10 -15 -5 0 -7 7 -4
15 4 8 8 15 10 15 2 0 4 -7 4 -15z m32 -7 c-7 -7 -12 -8 -12 -2 0 14 12 26 19
19 2 -3 -1 -11 -7 -17z m-1635 -36 c-14 -18 -19 -9 -11 24 6 25 8 26 14 9 4
-11 3 -26 -3 -33z m612 2 c-17 -21 -21 -11 -8 22 10 23 13 25 16 11 3 -10 -1
-25 -8 -33z m141 36 c0 -5 -5 -10 -11 -10 -5 0 -7 5 -4 10 3 6 8 10 11 10 2 0
4 -4 4 -10z m-484 -42 c-18 -26 -22 -17 -5 14 6 11 13 17 16 15 3 -3 -2 -16
-11 -29z m264 28 c0 -3 -4 -8 -10 -11 -5 -3 -10 -1 -10 4 0 6 5 11 10 11 6 0
10 -2 10 -4z m2173 -38 c-21 -55 -27 -61 -19 -19 5 30 22 61 32 61 2 0 -4 -19
-13 -42z m-2603 22 c0 -5 -2 -10 -4 -10 -3 0 -8 5 -11 10 -3 6 -1 10 4 10 6 0
11 -4 11 -10z m1492 -12 c-7 -7 -12 -8 -12 -2 0 14 12 26 19 19 2 -3 -1 -11
-7 -17z m-1269 -3 c-3 -9 -8 -14 -10 -11 -3 3 -2 9 2 15 9 16 15 13 8 -4z
m-233 -37 c0 -38 -5 -34 -13 10 -4 21 -3 31 3 27 6 -3 10 -20 10 -37z m491 21
c12 -23 3 -93 -11 -84 -4 3 -11 -1 -13 -7 -3 -7 -6 4 -6 24 -1 20 4 40 9 43 6
3 10 11 10 18 0 6 -7 4 -17 -6 -12 -11 -16 -30 -14 -56 2 -35 -1 -41 -28 -55
-37 -20 -41 -20 -41 0 0 10 6 14 15 10 10 -4 15 1 15 16 0 12 7 30 17 40 12
13 13 18 3 18 -9 0 -6 8 8 20 12 12 22 25 22 30 0 18 19 11 31 -11z m649 17
c0 -3 -4 -8 -10 -11 -5 -3 -10 -1 -10 4 0 6 5 11 10 11 6 0 10 -2 10 -4z m-4
-85 l-26 -26 0 27 c0 20 4 26 15 22 11 -5 15 1 15 18 0 35 14 45 18 12 3 -19
-4 -35 -22 -53z m427 48 c-6 -6 -9 -19 -6 -28 3 -12 2 -12 -7 2 -9 14 -9 22 1
33 6 8 14 12 17 9 3 -3 1 -10 -5 -16z m-1216 -40 c-8 -21 -13 -26 -15 -14 -5
21 5 45 17 45 5 0 4 -13 -2 -31z m569 -1 c-9 -12 -16 -19 -16 -15 0 11 24 47
28 42 2 -2 -3 -14 -12 -27z m484 18 c0 -2 -7 -9 -15 -16 -13 -11 -14 -10 -9 4
5 14 24 23 24 12z m-1240 -20 c0 -3 -4 -8 -10 -11 -5 -3 -10 -1 -10 4 0 6 5
11 10 11 6 0 10 -2 10 -4z m877 -73 c-3 -10 -5 -2 -5 17 0 19 2 27 5 18 2 -10
2 -26 0 -35z m-1031 11 c-4 -9 -9 -15 -11 -12 -3 3 -3 13 1 22 4 9 9 15 11 12
3 -3 3 -13 -1 -22z m169 17 c3 -5 1 -12 -5 -16 -5 -3 -10 1 -10 9 0 18 6 21
15 7z m127 -13 c-7 -7 -12 -8 -12 -2 0 14 12 26 19 19 2 -3 -1 -11 -7 -17z
m178 1 c-7 -11 -14 -18 -17 -15 -3 3 0 12 7 21 18 21 23 19 10 -6z m761 -22
c-8 -8 -11 -3 -11 19 1 25 2 27 11 11 8 -14 8 -22 0 -30z m-271 13 c0 -5 -2
-10 -4 -10 -3 0 -8 5 -11 10 -3 6 -1 10 4 10 6 0 11 -4 11 -10z m120 6 c0 -2
-8 -10 -17 -17 -16 -13 -17 -12 -4 4 13 16 21 21 21 13z m73 -9 c3 -8 2 -20
-3 -26 -5 -9 -7 -4 -7 13 0 29 2 32 10 13z m231 -2 c-4 -8 -11 -15 -16 -15 -6
0 -5 6 2 15 7 8 14 15 16 15 2 0 1 -7 -2 -15z m-54 -49 c-6 -19 -18 -40 -27
-48 -15 -12 -16 -10 -9 16 4 15 14 35 21 43 8 8 15 22 16 31 0 10 3 12 6 5 2
-7 0 -28 -7 -47z m72 22 c-8 -8 -9 -4 -5 13 4 13 8 18 11 10 2 -7 -1 -18 -6
-23z m130 10 c-7 -7 -12 -8 -12 -2 0 14 12 26 19 19 2 -3 -1 -11 -7 -17z m275
0 c-3 -8 -6 -5 -6 6 -1 11 2 17 5 13 3 -3 4 -12 1 -19z m-1026 -11 c-10 -9
-11 -8 -5 6 3 10 9 15 12 12 3 -3 0 -11 -7 -18z m1309 2 c-7 -11 -14 -19 -16
-16 -7 7 7 37 17 37 6 0 5 -9 -1 -21z m-1740 1 c0 -5 -5 -10 -11 -10 -5 0 -7
5 -4 10 3 6 8 10 11 10 2 0 4 -4 4 -10z m736 -17 c-1 -14 -8 -28 -16 -31 -12
-4 -13 -2 -2 9 6 7 12 17 12 22 0 4 -6 5 -12 1 -9 -5 -9 -2 1 9 18 22 18 22
17 -10z m195 4 c-10 -9 -11 -8 -5 6 3 10 9 15 12 12 3 -3 0 -11 -7 -18z m620
0 c-10 -9 -11 -8 -5 6 3 10 9 15 12 12 3 -3 0 -11 -7 -18z m-1450 -41 l-22
-21 4 22 c1 11 9 29 17 39 14 16 15 16 18 -1 2 -9 -6 -27 -17 -39z m279 35 c0
-11 -4 -23 -10 -26 -6 -4 -10 5 -10 19 0 14 5 26 10 26 6 0 10 -9 10 -19z
m-430 1 c0 -5 -10 -17 -22 -28 -20 -18 -21 -18 -15 -1 4 10 7 23 7 28 0 5 7 9
15 9 8 0 15 -4 15 -8z m916 -28 c-4 -9 -9 -15 -11 -12 -3 3 -3 13 1 22 4 9 9
15 11 12 3 -3 3 -13 -1 -22z m-1185 -30 c-5 -16 -10 -21 -10 -12 -1 18 10 51
15 45 2 -1 -1 -16 -5 -33z m301 14 c-7 -7 -12 -8 -12 -2 0 14 12 26 19 19 2
-3 -1 -11 -7 -17z m1125 -20 c-3 -7 -5 -2 -5 12 0 14 2 19 5 13 2 -7 2 -19 0
-25z m-1063 -5 c-7 -30 -24 -56 -31 -49 -5 5 24 76 32 76 3 0 2 -12 -1 -27z
m477 -6 c-8 -8 -11 -7 -11 4 0 20 13 34 18 19 3 -7 -1 -17 -7 -23z m99 8 c-7
-8 -17 -15 -23 -15 -5 0 -2 9 8 20 21 23 35 19 15 -5z m269 -30 c-13 -13 -14
-12 -13 13 4 46 5 48 16 24 9 -18 8 -26 -3 -37z m-779 20 c-7 -9 -15 -13 -18
-10 -3 2 1 11 8 20 7 9 15 13 18 10 3 -2 -1 -11 -8 -20z m50 5 c-6 -11 -15
-20 -20 -20 -13 0 -12 8 3 25 18 21 29 18 17 -5z m337 -12 c-3 -7 -5 -2 -5 12
0 14 2 19 5 13 2 -7 2 -19 0 -25z m-641 -1 c-3 -21 -23 -67 -30 -67 -2 0 0 15
4 34 12 52 31 77 26 33z m118 -2 c-9 -14 -21 -25 -27 -25 -6 0 0 11 13 25 13
14 25 25 27 25 2 0 -4 -11 -13 -25z m482 -30 c-4 -19 -11 -37 -17 -41 -14 -8
-8 79 5 88 15 10 19 -7 12 -47z m536 33 c-7 -7 -12 -8 -12 -2 0 14 12 26 19
19 2 -3 -1 -11 -7 -17z m87 -20 c1 -5 -3 -8 -9 -8 -5 0 -10 12 -9 28 0 24 1
25 9 7 5 -11 9 -23 9 -27z m-665 15 c4 -10 4 -14 0 -10 -4 4 -13 2 -21 -5 -18
-15 -29 -2 -13 17 16 20 26 19 34 -2z m532 -15 c-18 -26 -22 -17 -5 14 6 11
13 17 16 15 3 -3 -2 -16 -11 -29z m1212 7 c-3 -3 -9 2 -12 12 -6 14 -5 15 5 6
7 -7 10 -15 7 -18z m-1518 11 c0 -3 -4 -8 -10 -11 -5 -3 -10 -1 -10 4 0 6 5
11 10 11 6 0 10 -2 10 -4z m-580 -51 c-7 -9 -15 -13 -18 -10 -3 2 1 11 8 20 7
9 15 13 18 10 3 -2 -1 -11 -8 -20z m360 15 c0 -5 -5 -10 -11 -10 -5 0 -7 5 -4
10 3 6 8 10 11 10 2 0 4 -4 4 -10z m619 -21 c-25 -16 -32 -9 -13 12 12 13 20
16 22 9 3 -7 -2 -16 -9 -21z m273 -11 c-7 -7 -12 -8 -12 -2 0 14 12 26 19 19
2 -3 -1 -11 -7 -17z m-896 -54 l-15 -29 -1 41 c0 47 11 64 23 36 6 -13 4 -29
-7 -48z m671 36 c-13 -22 -41 -28 -34 -7 2 6 10 11 16 10 6 -2 11 4 11 13 0 8
4 12 10 9 6 -4 5 -13 -3 -25z m-597 16 c0 -2 -8 -10 -17 -17 -16 -13 -17 -12
-4 4 13 16 21 21 21 13z m-446 -36 c-10 -16 -20 -27 -22 -25 -5 5 26 55 34 55
3 0 -3 -13 -12 -30z m-152 -5 c-5 -31 -22 -44 -22 -18 0 15 17 43 26 43 1 0
-1 -11 -4 -25z m919 -11 c-9 -28 -9 -29 -10 -3 -1 14 2 29 6 32 11 12 13 2 4
-29z m-850 -1 c-8 -15 -10 -15 -11 -2 0 17 10 32 18 25 2 -3 -1 -13 -7 -23z
m890 4 c-10 -9 -11 -8 -5 6 3 10 9 15 12 12 3 -3 0 -11 -7 -18z m171 -9 c-8
-8 -9 -4 -5 13 4 13 8 18 11 10 2 -7 -1 -18 -6 -23z m258 22 c0 -5 -5 -10 -11
-10 -5 0 -7 5 -4 10 3 6 8 10 11 10 2 0 4 -4 4 -10z m32 -12 c-7 -7 -12 -8
-12 -2 0 14 12 26 19 19 2 -3 -1 -11 -7 -17z m-933 -54 c-6 -8 -19 -14 -27
-14 -12 0 -13 3 -5 11 6 6 9 18 6 25 -6 17 13 19 21 2 4 -9 5 -8 5 2 -2 31 4
44 8 17 3 -16 -1 -35 -8 -43z m503 44 c-7 -7 -12 -8 -12 -2 0 14 12 26 19 19
2 -3 -1 -11 -7 -17z m339 -11 c-10 -9 -11 -8 -5 6 3 10 9 15 12 12 3 -3 0 -11
-7 -18z m-1000 -20 c-8 -8 -11 -7 -11 4 0 20 13 34 18 19 3 -7 -1 -17 -7 -23z
m839 8 c-7 -9 -15 -13 -18 -10 -3 2 1 11 8 20 7 9 15 13 18 10 3 -2 -1 -11 -8
-20z m-984 -11 c-4 -9 -9 -15 -11 -12 -3 3 -3 13 1 22 4 9 9 15 11 12 3 -3 3
-13 -1 -22z m1174 16 c0 -5 -5 -10 -11 -10 -5 0 -7 5 -4 10 3 6 8 10 11 10 2
0 4 -4 4 -10z m-1353 -40 c0 -22 -3 -40 -6 -40 -6 0 -7 32 -3 68 4 27 9 10 9
-28z m983 20 c0 -5 -5 -10 -11 -10 -5 0 -7 5 -4 10 3 6 8 10 11 10 2 0 4 -4 4
-10z m1147 -25 c-2 -19 -7 -38 -10 -42 -9 -8 -9 6 -1 46 9 42 15 39 11 -4z
m-2077 10 c0 -8 -4 -15 -10 -15 -5 0 -7 7 -4 15 4 8 8 15 10 15 2 0 4 -7 4
-15z m506 -21 c-4 -9 -9 -15 -11 -12 -3 3 -3 13 1 22 4 9 9 15 11 12 3 -3 3
-13 -1 -22z m-136 12 c0 -3 -4 -8 -10 -11 -5 -3 -10 -1 -10 4 0 6 5 11 10 11
6 0 10 -2 10 -4z m-376 -31 c-4 -8 -8 -15 -10 -15 -2 0 -4 7 -4 15 0 8 4 15
10 15 5 0 7 -7 4 -15z m538 -7 c-7 -7 -12 -8 -12 -2 0 14 12 26 19 19 2 -3 -1
-11 -7 -17z m-162 -13 c-7 -9 -15 -13 -18 -10 -3 2 1 11 8 20 7 9 15 13 18 10
3 -2 -1 -11 -8 -20z m50 -15 c-6 -12 -14 -19 -17 -16 -4 3 0 18 8 32 7 14 15
21 17 15 2 -5 -2 -20 -8 -31z m-163 8 c-3 -8 -6 -5 -6 6 -1 11 2 17 5 13 3 -3
4 -12 1 -19z m74 -31 c-8 -8 -11 -7 -11 4 0 20 13 34 18 19 3 -7 -1 -17 -7
-23z m639 -7 c0 -5 -5 -10 -11 -10 -5 0 -7 5 -4 10 3 6 8 10 11 10 2 0 4 -4 4
-10z m285 -9 c3 -5 1 -12 -5 -16 -5 -3 -10 1 -10 9 0 18 6 21 15 7z m-775 -11
c0 -5 -5 -10 -11 -10 -5 0 -7 5 -4 10 3 6 8 10 11 10 2 0 4 -4 4 -10z m815
-10 c3 -5 1 -10 -4 -10 -6 0 -11 5 -11 10 0 6 2 10 4 10 3 0 8 -4 11 -10z m63
-20 c-7 -10 -14 -18 -15 -16 -6 6 9 36 18 36 5 0 4 -9 -3 -20z m-871 -42 c-3
-7 -5 -2 -5 12 0 14 2 19 5 13 2 -7 2 -19 0 -25z m433 12 c0 -5 -5 -10 -11
-10 -5 0 -7 5 -4 10 3 6 8 10 11 10 2 0 4 -4 4 -10z m118 -23 c2 -10 -3 -17
-11 -17 -9 0 -17 -3 -20 -7 -2 -5 -2 -2 0 5 1 8 3 20 3 29 0 20 24 11 28 -10z
m569 1 c-3 -8 -6 -5 -6 6 -1 11 2 17 5 13 3 -3 4 -12 1 -19z m-1504 -8 c-3
-11 -9 -20 -14 -20 -10 0 -12 24 -2 33 13 13 21 7 16 -13z m357 8 c0 -19 -18
-43 -25 -36 -4 3 -2 16 5 27 12 24 20 27 20 9z m490 -23 c0 -8 -4 -15 -10 -15
-5 0 -7 7 -4 15 4 8 8 15 10 15 2 0 4 -7 4 -15z m-881 -45 c0 -9 -4 -8 -9 5
-5 11 -9 27 -9 35 0 9 4 8 9 -5 5 -11 9 -27 9 -35z m560 19 c-19 -11 -24 -3
-8 14 8 9 16 11 18 5 2 -6 -3 -14 -10 -19z m661 21 c0 -5 -5 -10 -11 -10 -5 0
-7 5 -4 10 3 6 8 10 11 10 2 0 4 -4 4 -10z m-801 -41 c-5 -10 -14 -21 -19 -24
-13 -8 -13 21 1 47 9 16 13 18 19 7 5 -7 4 -21 -1 -30z m972 14 c-12 -20 -14
-14 -5 12 4 9 9 14 11 11 3 -2 0 -13 -6 -23z m-759 -13 c5 -32 -7 -42 -14 -12
-4 16 0 42 7 42 1 0 5 -13 7 -30z m-572 -15 c-6 -15 -13 -26 -16 -23 -2 3 0
18 6 33 6 15 13 26 16 23 2 -3 0 -18 -6 -33z m520 0 c0 -20 -24 -45 -43 -45
-10 0 -3 37 11 53 21 24 32 21 32 -8z m142 3 c-7 -7 -12 -8 -12 -2 0 14 12 26
19 19 2 -3 -1 -11 -7 -17z m1118 18 c0 -3 -4 -8 -10 -11 -5 -3 -10 -1 -10 4 0
6 5 11 10 11 6 0 10 -2 10 -4z m-370 -20 c0 -2 -7 -9 -15 -16 -13 -11 -14 -10
-9 4 5 14 24 23 24 12z m-1090 -20 c0 -3 -4 -8 -10 -11 -5 -3 -10 -1 -10 4 0
6 5 11 10 11 6 0 10 -2 10 -4z m-50 -30 c0 -13 -7 -26 -15 -30 -12 -4 -13 -2
-7 12 5 9 7 23 5 30 -3 6 0 12 6 12 6 0 11 -11 11 -24z m330 15 c0 -6 -11 -23
-25 -38 -27 -31 -34 -16 -9 22 16 25 34 33 34 16z m430 -11 c0 -5 -5 -10 -11
-10 -5 0 -7 5 -4 10 3 6 8 10 11 10 2 0 4 -4 4 -10z m-500 -23 c0 -7 -9 -18
-20 -25 -23 -14 -25 -10 -8 18 14 23 28 26 28 7z m487 -17 c-1 -22 -17 -28
-17 -7 0 12 9 27 16 27 2 0 2 -9 1 -20z m193 -4 c0 -14 -4 -28 -10 -31 -6 -4
-10 7 -10 24 0 17 5 31 10 31 6 0 10 -11 10 -24z m-253 -8 c-3 -8 -6 -5 -6 6
-1 11 2 17 5 13 3 -3 4 -12 1 -19z m-94 -3 c-3 -9 -8 -14 -10 -11 -3 3 -2 9 2
15 9 16 15 13 8 -4z m-423 1 c0 -3 -4 -8 -10 -11 -5 -3 -10 -1 -10 4 0 6 5 11
10 11 6 0 10 -2 10 -4z m623 -11 c-3 -9 -8 -14 -10 -11 -3 3 -2 9 2 15 9 16
15 13 8 -4z m-513 1 c0 -2 -7 -7 -16 -10 -8 -3 -12 -2 -9 4 6 10 25 14 25 6z
m27 -21 c-7 -13 -14 -20 -15 -14 -2 5 2 16 8 24 18 21 20 18 7 -10z m1149 -15
c-1 -16 -5 -31 -10 -32 -9 -3 -16 50 -9 65 9 16 20 -4 19 -33z m-1631 -8 c-10
-10 -16 -12 -13 -7 3 6 8 19 13 30 5 14 9 16 12 7 3 -8 -3 -21 -12 -30z m902
8 c-5 -33 -17 -35 -14 -2 1 16 5 28 9 26 4 -3 6 -14 5 -24z m-27 6 c0 -8 -4
-18 -10 -21 -5 -3 -10 3 -10 14 0 12 5 21 10 21 6 0 10 -6 10 -14z m350 10 c0
-3 -4 -8 -10 -11 -5 -3 -10 -1 -10 4 0 6 5 11 10 11 6 0 10 -2 10 -4z m-279
-43 c-12 -20 -14 -14 -5 12 4 9 9 14 11 11 3 -2 0 -13 -6 -23z m-451 -19 c-18
-21 -24 -10 -9 18 8 14 14 18 17 10 2 -7 -2 -19 -8 -28z m730 32 c0 -2 -7 -9
-15 -16 -12 -10 -15 -10 -15 4 0 9 7 16 15 16 8 0 15 -2 15 -4z m-1260 -16 c0
-5 -4 -10 -10 -10 -5 0 -10 5 -10 10 0 6 5 10 10 10 6 0 10 -4 10 -10z m630 0
c0 -5 -4 -10 -10 -10 -5 0 -10 5 -10 10 0 6 5 10 10 10 6 0 10 -4 10 -10z
m405 -49 c-4 -22 -13 -45 -21 -52 -18 -15 -18 -4 3 53 20 56 28 56 18 -1z
m171 -3 l-16 -22 0 21 c0 12 3 29 6 38 6 16 8 16 16 1 6 -11 4 -23 -6 -38z
m-372 27 c3 -8 1 -15 -4 -15 -6 0 -10 7 -10 15 0 8 2 15 4 15 2 0 6 -7 10 -15z
m108 -7 c-7 -7 -12 -8 -12 -2 0 14 12 26 19 19 2 -3 -1 -11 -7 -17z m-896 -3
c-8 -9 -13 -22 -10 -29 3 -8 1 -17 -5 -20 -12 -8 -11 34 2 52 5 6 14 12 19 12
5 0 3 -7 -6 -15z m71 -7 c-3 -8 -6 -5 -6 6 -1 11 2 17 5 13 3 -3 4 -12 1 -19z
m354 -5 c-8 -15 -10 -15 -11 -2 0 17 10 32 18 25 2 -3 -1 -13 -7 -23z m1139 7
c0 -5 -5 -10 -11 -10 -5 0 -7 5 -4 10 3 6 8 10 11 10 2 0 4 -4 4 -10z m-910
-15 c0 -15 -38 -40 -48 -31 -3 3 -1 6 5 6 6 0 13 9 16 20 6 23 27 27 27 5z
m81 -28 c-15 -15 -21 -5 -14 22 5 21 7 21 16 6 6 -11 5 -21 -2 -28z m-691 20
c0 -2 -9 -12 -20 -22 -24 -21 -27 -14 -4 9 15 15 24 20 24 13z m1014 -12 c-4
-8 -11 -15 -16 -15 -6 0 -5 6 2 15 7 8 14 15 16 15 2 0 1 -7 -2 -15z m-178
-23 c-18 -16 -18 -16 -6 6 6 13 14 21 18 18 3 -4 -2 -14 -12 -24z m-253 -17
c-10 -13 -22 -25 -27 -25 -5 0 1 11 14 25 30 32 36 32 13 0z m487 5 c0 -11 -4
-20 -9 -20 -5 0 -7 9 -4 20 3 11 7 20 9 20 2 0 4 -9 4 -20z m-374 -17 c-10
-10 -19 5 -10 18 6 11 8 11 12 0 2 -7 1 -15 -2 -18z m-79 -35 c-3 -8 -6 -5 -6
6 -1 11 2 17 5 13 3 -3 4 -12 1 -19z m155 0 c-7 -7 -12 -8 -12 -2 0 14 12 26
19 19 2 -3 -1 -11 -7 -17z m78 -8 c0 -5 -5 -10 -11 -10 -5 0 -7 5 -4 10 3 6 8
10 11 10 2 0 4 -4 4 -10z m-670 -10 c0 -5 -9 -14 -21 -20 -19 -11 -20 -10 -9
9 11 22 30 29 30 11z m80 0 c0 -5 -5 -10 -11 -10 -5 0 -7 5 -4 10 3 6 8 10 11
10 2 0 4 -4 4 -10z m272 -12 c-7 -7 -12 -8 -12 -2 0 14 12 26 19 19 2 -3 -1
-11 -7 -17z m377 -14 c-15 -18 -22 -13 -13 10 3 9 10 13 16 10 5 -3 4 -12 -3
-20z m-134 7 c3 -5 1 -12 -5 -16 -5 -3 -10 1 -10 9 0 18 6 21 15 7z m67 -33
c-7 -7 -12 -8 -12 -2 0 14 12 26 19 19 2 -3 -1 -11 -7 -17z m-596 -15 c-10
-10 -19 5 -10 18 6 11 8 11 12 0 2 -7 1 -15 -2 -18z m528 -17 c-3 -14 -10 -26
-15 -26 -5 0 -6 7 -4 15 3 8 7 22 10 31 9 27 17 9 9 -20z m69 -1 c-3 -9 -8
-14 -10 -11 -3 3 -2 9 2 15 9 16 15 13 8 -4z m207 11 c0 -3 -4 -8 -10 -11 -5
-3 -10 -1 -10 4 0 6 5 11 10 11 6 0 10 -2 10 -4z m-479 -43 c-12 -20 -14 -14
-5 12 4 9 9 14 11 11 3 -2 0 -13 -6 -23z m-370 -26 c-8 -8 -11 -7 -11 4 0 20
13 34 18 19 3 -7 -1 -17 -7 -23z m539 29 c0 -3 -4 -8 -10 -11 -5 -3 -10 -1
-10 4 0 6 5 11 10 11 6 0 10 -2 10 -4z m-348 -28 c-7 -7 -12 -8 -12 -2 0 14
12 26 19 19 2 -3 -1 -11 -7 -17z m709 -51 c-4 -4 -8 9 -8 30 -1 38 -1 38 8 8
5 -16 5 -33 0 -38z m-1061 38 c0 -8 -2 -15 -4 -15 -2 0 -6 7 -10 15 -3 8 -1
15 4 15 6 0 10 -7 10 -15z m219 -46 c-26 -16 -32 -9 -13 13 17 19 17 21 1 15
-15 -6 -16 -4 -6 16 12 22 12 22 22 -7 7 -21 6 -30 -4 -37z m-79 47 c0 -3 -4
-8 -10 -11 -5 -3 -10 -1 -10 4 0 6 5 11 10 11 6 0 10 -2 10 -4z m-107 -31 c-3
-9 -8 -14 -10 -11 -3 3 -2 9 2 15 9 16 15 13 8 -4z m117 -36 c0 -9 -8 -23 -17
-30 -15 -12 -16 -12 -10 4 3 9 2 17 -3 17 -14 0 -12 24 2 38 14 14 28 -1 28
-29z m720 16 c0 -3 -7 -22 -17 -43 -18 -42 -31 -23 -14 21 9 23 31 38 31 22z
m-840 -14 c0 -6 -4 -13 -10 -16 -5 -3 -10 1 -10 9 0 9 5 16 10 16 6 0 10 -4
10 -9z m188 -5 c-20 -15 -25 -31 -6 -20 7 5 8 3 3 -5 -5 -10 -10 -10 -19 -1
-8 8 -6 15 8 26 11 8 22 14 25 14 3 0 -2 -7 -11 -14z m-170 -37 c-16 -39 -13
-69 8 -69 8 0 14 -6 14 -12 0 -7 3 -23 6 -35 4 -14 2 -23 -5 -23 -6 0 -10 3
-10 8 1 4 1 18 0 32 -1 20 -3 22 -11 10 -8 -13 -10 -12 -10 3 0 10 -4 16 -9
13 -5 -3 -12 9 -15 28 -5 27 -2 39 16 59 29 32 33 28 16 -14z m903 -2 c-8 -8
-11 -7 -11 4 0 20 13 34 18 19 3 -7 -1 -17 -7 -23z m109 29 c0 -3 -4 -8 -10
-11 -5 -3 -10 -1 -10 4 0 6 5 11 10 11 6 0 10 -2 10 -4z m34 -11 c-6 -16 -24
-21 -24 -7 0 11 11 22 21 22 5 0 6 -7 3 -15z m258 -17 c-9 -9 -12 -7 -12 12 0
19 3 21 12 12 9 -9 9 -15 0 -24z m-876 -15 c-8 -15 -15 -22 -16 -15 0 17 20
55 27 49 2 -3 -2 -18 -11 -34z m-305 -1 c-5 -10 -19 -26 -32 -37 l-22 -20 7
30 c7 32 33 58 48 49 4 -3 4 -13 -1 -22z m235 1 c-10 -10 -19 5 -10 18 6 11 8
11 12 0 2 -7 1 -15 -2 -18z m294 13 c0 -3 -4 -8 -10 -11 -5 -3 -10 -1 -10 4 0
6 5 11 10 11 6 0 10 -2 10 -4z m200 -10 c0 -3 -4 -8 -10 -11 -5 -3 -10 -1 -10
4 0 6 5 11 10 11 6 0 10 -2 10 -4z m-803 -38 c-3 -7 -5 -2 -5 12 0 14 2 19 5
13 2 -7 2 -19 0 -25z m233 16 c0 -8 -5 -12 -10 -9 -6 4 -8 11 -5 16 9 14 15
11 15 -7z m376 -32 c-11 -10 -15 4 -8 28 l7 25 3 -23 c2 -13 1 -26 -2 -30z
m298 33 c-4 -8 -10 -15 -15 -15 -4 0 -6 7 -3 15 4 8 10 15 15 15 4 0 6 -7 3
-15z m353 -7 c-3 -8 -6 -5 -6 6 -1 11 2 17 5 13 3 -3 4 -12 1 -19z m-1120 -10
c-3 -8 -6 -5 -6 6 -1 11 2 17 5 13 3 -3 4 -12 1 -19z m583 7 c0 -8 -4 -15 -10
-15 -5 0 -10 7 -10 15 0 8 5 15 10 15 6 0 10 -7 10 -15z m23 0 c-3 -9 -8 -14
-10 -11 -3 3 -2 9 2 15 9 16 15 13 8 -4z m468 -9 c-6 -7 -9 -16 -6 -20 3 -3 0
-2 -6 3 -14 12 -3 45 11 36 8 -5 8 -11 1 -19z m-527 -52 c-12 -9 -12 -13 -2
-17 10 -4 11 -7 1 -18 -18 -18 -16 -34 2 -19 8 7 15 19 15 26 0 24 18 15 24
-12 4 -16 2 -31 -5 -38 -8 -8 -10 -5 -5 14 7 24 7 24 -9 5 -19 -23 -65 -31
-65 -10 0 7 7 21 16 29 8 9 12 21 9 27 -4 5 1 17 11 25 18 14 18 14 0 7 -11
-3 -17 -2 -14 3 3 5 8 18 13 29 7 18 8 17 16 -10 7 -23 5 -33 -7 -41z m270 42
c-3 -9 -10 -16 -15 -16 -5 0 -4 9 3 20 14 22 21 20 12 -4z m-644 5 c0 -6 -4
-13 -10 -16 -5 -3 -10 1 -10 9 0 9 5 16 10 16 6 0 10 -4 10 -9z m502 -29 c-7
-9 -15 -25 -18 -34 -4 -10 -10 -18 -15 -18 -12 0 -11 17 1 25 6 3 10 16 10 29
0 28 10 40 24 26 7 -7 7 -16 -2 -28z m-746 -37 c0 -38 -3 -60 -8 -53 -6 11
-10 11 -16 0 -11 -17 -42 -4 -41 17 0 11 2 12 6 3 3 -9 9 -6 17 10 20 39 26
59 16 53 -6 -3 -10 -12 -10 -20 0 -8 -4 -17 -10 -20 -22 -13 -8 27 16 50 15
14 28 25 28 25 1 0 2 -29 2 -65z m580 17 c-12 -11 -18 7 -10 30 l8 23 4 -23
c2 -13 1 -26 -2 -30z m234 36 c0 -4 -4 -8 -9 -8 -6 0 -12 4 -15 8 -3 5 1 9 9
9 8 0 15 -4 15 -9z m-553 -20 c-3 -8 -6 -5 -6 6 -1 11 2 17 5 13 3 -3 4 -12 1
-19z m174 -1 c-10 -9 -11 -8 -5 6 3 10 9 15 12 12 3 -3 0 -11 -7 -18z m-399
-9 c-6 -6 -15 -8 -19 -4 -4 4 -1 11 7 16 19 12 27 3 12 -12z m368 18 c0 -3 -4
-8 -10 -11 -5 -3 -10 -1 -10 4 0 6 5 11 10 11 6 0 10 -2 10 -4z m395 -62 c-35
-52 -39 -54 -31 -19 7 28 48 77 54 64 2 -4 -9 -24 -23 -45z m-645 27 c0 -11
-5 -23 -10 -26 -6 -4 -9 -13 -8 -20 2 -8 -1 -14 -7 -14 -10 0 -10 41 -1 66 8
20 26 16 26 -6z m379 -27 c-17 -21 -21 -11 -8 22 10 23 13 25 16 11 3 -10 -1
-25 -8 -33z m-429 17 c-5 -11 -8 -26 -7 -33 2 -7 2 -9 -1 -4 -2 4 -8 2 -13 -5
-4 -7 -11 -10 -15 -7 -3 4 4 21 16 37 24 35 36 41 20 12z m72 -13 c-7 -7 -12
-8 -12 -2 0 14 12 26 19 19 2 -3 -1 -11 -7 -17z m276 -8 c-1 -17 -5 -33 -9
-36 -7 -4 -7 16 0 59 3 20 10 3 9 -23z m525 5 c-3 -8 -9 -15 -13 -15 -5 0 -10
-8 -12 -17 -2 -12 -6 -14 -11 -6 -4 6 0 18 8 26 8 9 15 21 15 27 0 6 4 9 10 5
5 -3 7 -12 3 -20z m-933 0 c-7 -9 -15 -13 -17 -11 -7 7 7 26 19 26 6 0 6 -6
-2 -15z m170 6 c0 -6 -4 -13 -10 -16 -5 -3 -10 1 -10 9 0 9 5 16 10 16 6 0 10
-4 10 -9z m200 -21 c0 -16 -4 -30 -8 -30 -5 0 -8 10 -6 23 1 12 3 25 3 30 3
21 11 3 11 -23z m86 6 c-3 -12 -6 -24 -6 -28 0 -5 -4 -8 -10 -8 -5 0 -8 13 -7
28 1 16 8 29 15 29 9 0 11 -8 8 -21z m334 17 c0 -5 -10 -19 -21 -33 l-20 -25
16 33 c15 30 25 41 25 25z m-968 -35 c-4 -16 -2 -19 8 -13 9 5 11 4 6 -4 -4
-6 -11 -9 -15 -7 -4 3 -14 -6 -21 -19 -17 -31 -30 -32 -30 -2 0 24 39 77 52
71 3 -2 4 -14 0 -26z m375 -5 c-3 -10 -5 -4 -5 12 0 17 2 24 5 18 2 -7 2 -21
0 -30z m463 2 c0 -5 -5 -3 -10 5 -5 8 -10 20 -10 25 0 6 5 3 10 -5 5 -8 10
-19 10 -25z m180 4 c0 -14 -7 -19 -26 -19 -16 0 -24 5 -21 13 2 6 10 11 16 10
6 -2 11 4 11 13 0 8 5 12 10 9 6 -3 10 -15 10 -26z m-613 -11 c-3 -7 -5 -2 -5
12 0 14 2 19 5 13 2 -7 2 -19 0 -25z m-347 12 c0 -5 -4 -10 -10 -10 -5 0 -10
5 -10 10 0 6 5 10 10 10 6 0 10 -4 10 -10z m130 -5 c0 -8 -7 -15 -16 -15 -14
0 -14 3 -4 15 7 8 14 15 16 15 2 0 4 -7 4 -15z m130 0 c0 -8 -7 -15 -15 -15
-16 0 -20 12 -8 23 11 12 23 8 23 -8z m365 -5 c-3 -5 -11 -10 -16 -10 -6 0 -7
5 -4 10 3 6 11 10 16 10 6 0 7 -4 4 -10z m185 0 c0 -5 -4 -10 -10 -10 -5 0
-10 5 -10 10 0 6 5 10 10 10 6 0 10 -4 10 -10z m-903 -112 c-3 -7 -5 -2 -5 12
0 14 2 19 5 13 2 -7 2 -19 0 -25z"/>
<path d="M7640 1980 c-9 -6 -10 -10 -3 -10 6 0 15 5 18 10 8 12 4 12 -15 0z"/>
<path d="M7790 4139 c0 -5 5 -7 10 -4 6 3 10 8 10 11 0 2 -4 4 -10 4 -5 0 -10
-5 -10 -11z"/>
<path d="M1555 4113 c-240 -20 -475 -101 -666 -228 -364 -242 -556 -616 -520
-1009 19 -195 60 -305 205 -551 102 -172 250 -469 313 -630 88 -222 133 -414
133 -561 0 -53 4 -77 16 -88 14 -14 86 -16 644 -16 533 0 631 2 643 14 10 11
16 50 20 138 6 144 35 270 101 445 89 238 193 450 350 713 89 151 136 254 169
374 30 111 32 383 3 491 -96 360 -352 643 -725 801 -201 85 -465 126 -686 107z"/>
<path d="M4664 4110 c-327 -35 -608 -165 -830 -385 -109 -108 -161 -178 -222
-301 -80 -160 -107 -281 -105 -469 1 -224 44 -357 197 -615 147 -247 286 -537
362 -752 56 -162 84 -291 90 -418 5 -87 10 -118 22 -128 12 -9 156 -12 643
-12 557 0 629 2 643 16 12 12 16 37 16 109 0 119 21 227 75 390 76 230 196
487 350 750 177 301 225 444 225 670 0 688 -690 1227 -1466 1145z"/>
<path d="M10920 4110 c-741 -90 -1247 -680 -1135 -1323 23 -133 67 -238 186
-448 187 -327 301 -569 377 -799 48 -145 64 -224 71 -359 6 -105 10 -125 26
-137 16 -12 128 -14 646 -14 l628 0 15 22 c12 17 16 48 16 121 0 120 18 212
74 382 79 235 191 470 382 798 131 224 176 357 190 558 15 217 -51 449 -186
650 -60 89 -229 255 -325 318 -158 104 -355 182 -540 216 -111 19 -325 27
-425 15z"/>
<path d="M7346 4073 c-6 -14 -5 -15 5 -6 7 7 10 15 7 18 -3 3 -9 -2 -12 -12z"/>
<path d="M6943 3810 c-53 -39 -129 -140 -106 -140 5 0 17 16 28 36 10 20 43
58 73 85 62 56 63 62 5 19z"/>
<path d="M8913 3790 c-13 -5 -23 -12 -23 -15 0 -9 16 -5 36 10 22 16 19 18
-13 5z"/>
<path d="M6621 3323 c-6 -21 -10 -54 -10 -73 l2 -35 6 40 c4 22 11 55 15 73
11 45 -1 40 -13 -5z"/>
<path d="M8780 1340 c-9 -6 -10 -10 -3 -10 6 0 15 5 18 10 8 12 4 12 -15 0z"/>
<path d="M8762 1280 c-12 -12 -22 -24 -22 -27 0 -4 11 4 25 17 23 22 29 30 22
30 -2 0 -13 -9 -25 -20z"/>
<path d="M1092 988 c-7 -7 -12 -41 -12 -84 0 -64 3 -75 22 -88 19 -13 94 -15
591 -13 652 2 597 -7 597 100 0 107 63 97 -603 97 -440 0 -586 -3 -595 -12z"/>
<path d="M4226 984 c-9 -25 -7 -147 4 -164 8 -13 80 -15 527 -18 285 -2 550 1
588 5 l70 8 0 90 0 90 -591 3 c-533 2 -592 1 -598 -14z"/>
<path d="M10490 981 c-15 -29 -12 -134 4 -157 14 -18 32 -19 589 -19 472 0
577 2 590 14 21 17 24 150 5 169 -9 9 -155 12 -595 12 -565 0 -583 -1 -593
-19z"/>
<path d="M7427 932 c-38 -42 -29 -169 13 -192 12 -6 234 -10 599 -10 l580 0
20 26 c16 21 21 41 21 90 0 113 55 104 -628 104 -557 0 -590 -1 -605 -18z"/>
<path d="M1160 761 c-5 -11 -10 -51 -10 -89 0 -110 -44 -102 532 -102 574 0
528 -9 528 104 0 117 55 106 -530 106 -493 0 -510 -1 -520 -19z"/>
<path d="M4302 768 c-7 -7 -12 -42 -12 -88 0 -62 4 -80 18 -93 17 -15 67 -17
508 -17 427 0 492 2 512 16 19 13 22 24 22 85 0 121 56 109 -528 109 -382 0
-511 -3 -520 -12z"/>
<path d="M10572 768 c-7 -7 -12 -44 -12 -95 0 -71 3 -84 19 -93 27 -14 985
-14 1012 0 16 9 19 22 19 93 0 51 -5 88 -12 95 -17 17 -1009 17 -1026 0z"/>
<path d="M7505 695 c-22 -21 -25 -33 -25 -90 0 -57 3 -69 25 -90 l24 -25 504
0 c597 0 552 -9 552 115 0 124 45 115 -552 115 l-504 0 -24 -25z"/>
<path d="M1295 536 c-16 -11 -20 -29 -23 -89 -4 -66 -2 -77 17 -96 21 -21 28
-21 395 -21 327 0 377 2 390 16 12 11 16 36 16 94 0 117 27 110 -410 110 -298
0 -370 -3 -385 -14z"/>
<path d="M4430 530 c-26 -26 -29 -143 -4 -178 l15 -22 378 0 c444 0 411 -9
411 113 0 114 27 107 -412 107 -355 0 -369 -1 -388 -20z"/>
<path d="M10702 534 c-20 -13 -22 -24 -22 -94 0 -58 4 -83 16 -94 13 -14 63
-16 390 -16 441 0 414 -7 414 110 0 117 26 110 -408 110 -316 0 -371 -2 -390
-16z"/>
<path d="M7632 445 c-18 -38 -15 -146 4 -173 l15 -22 398 0 c355 0 400 2 412
16 21 26 25 149 5 179 l-16 25 -404 0 -403 0 -11 -25z"/>
</g>
</svg>
