<?xml version="1.0" standalone="no"?>
<!DOCTYPE svg PUBLIC "-//W3C//DTD SVG 20010904//EN"
 "http://www.w3.org/TR/2001/REC-SVG-20010904/DTD/svg10.dtd">
<svg version="1.0" xmlns="http://www.w3.org/2000/svg"
 width="1280.000000pt" height="640.000000pt" viewBox="0 0 1280.000000 640.000000"
 preserveAspectRatio="xMidYMid meet">
<metadata>
Created by potrace 1.15, written by Peter Selinger 2001-2017
</metadata>
<g transform="translate(0.000000,640.000000) scale(0.100000,-0.100000)"
fill="#508c70" stroke="none">
<path d="M9414 5727 c5 -14 1 -18 -17 -15 -18 2 -23 -2 -25 -29 -4 -37 -5 -37
-33 -23 -17 10 -19 7 -19 -20 0 -20 -5 -30 -15 -30 -9 0 -12 -6 -9 -15 4 -10
0 -15 -11 -15 -13 0 -16 -6 -11 -25 5 -19 3 -23 -8 -19 -9 3 -12 12 -9 21 5
13 1 15 -20 9 -19 -4 -27 -2 -27 7 0 8 -14 13 -42 12 -38 0 -42 -3 -50 -30 -4
-16 -5 -37 -3 -46 3 -8 -6 -26 -20 -39 -14 -13 -25 -19 -25 -14 0 14 14 30 30
37 8 3 1 6 -15 6 -17 1 -36 6 -43 13 -7 7 -12 9 -12 5 0 -3 -11 -2 -24 3 -20
7 -25 5 -36 -18 -8 -15 -13 -30 -12 -34 1 -4 -6 -4 -15 -1 -12 5 -15 2 -10
-10 3 -9 2 -17 -4 -17 -5 0 -7 -11 -5 -24 3 -15 -1 -27 -10 -30 -8 -3 -11 -12
-7 -22 5 -13 2 -15 -15 -9 -16 5 -22 2 -22 -9 0 -18 -23 -21 -50 -6 -18 10
-19 6 -16 -67 4 -82 -9 -123 -40 -123 -8 0 -13 3 -11 8 3 4 -13 15 -35 24 -36
16 -39 16 -34 1 5 -13 4 -14 -9 -3 -8 7 -28 10 -45 8 -16 -3 -30 -1 -30 3 0 7
-52 20 -87 21 -14 0 -23 6 -23 15 0 10 -6 13 -16 9 -13 -5 -14 -1 -9 24 6 25
4 29 -10 23 -14 -5 -16 -2 -10 15 5 18 2 22 -15 22 -16 0 -20 5 -16 15 4 11
-1 15 -19 15 -13 0 -27 5 -31 11 -4 8 -12 2 -21 -15 -8 -14 -22 -26 -33 -26
-17 0 -18 -4 -10 -25 6 -17 6 -25 -1 -25 -6 0 -7 -4 -4 -10 3 -5 0 -10 -7 -10
-8 -1 -6 -6 6 -15 11 -9 17 -22 13 -34 -3 -14 1 -21 17 -25 16 -5 18 -8 7 -15
-10 -7 -11 -10 -1 -16 10 -6 9 -11 -4 -20 -15 -12 -15 -14 -1 -29 10 -10 14
-24 10 -36 -9 -29 19 -54 52 -46 23 6 24 6 9 -9 -21 -22 -21 -22 14 -17 29 4
30 3 30 -38 0 -29 6 -47 18 -56 16 -13 16 -15 -2 -29 -10 -8 -23 -12 -27 -9
-5 3 -9 0 -9 -7 0 -8 -5 -7 -17 2 -15 13 -15 12 -4 -8 10 -19 9 -22 -4 -17 -9
4 -15 0 -15 -10 0 -10 -5 -13 -17 -9 -11 4 -14 3 -9 -5 10 -16 -16 -15 -39 2
-12 8 -16 20 -12 35 3 11 2 21 -1 21 -4 0 -6 19 -6 42 2 63 -52 133 -101 131
-53 -1 -77 -23 -94 -85 -8 -27 -17 -48 -22 -48 -4 0 -9 -12 -11 -26 -2 -19
-14 -32 -38 -45 -48 -25 -62 -39 -56 -55 3 -8 2 -14 -3 -14 -5 0 -4 -23 1 -51
7 -38 6 -54 -2 -59 -8 -5 -7 -9 3 -13 13 -5 13 -13 5 -46 -6 -23 -15 -41 -20
-41 -5 0 -7 -4 -3 -10 3 -5 12 -7 20 -3 8 3 15 0 15 -7 0 -7 7 -10 15 -6 17 6
21 -9 5 -19 -6 -4 -18 -1 -26 6 -14 11 -15 10 -12 -11 1 -14 -2 -24 -8 -23
-17 3 -14 -68 3 -74 12 -5 12 -7 1 -14 -9 -6 -7 -9 10 -9 26 0 29 -15 6 -24
-9 -4 -15 -9 -12 -12 3 -2 17 0 32 6 27 10 27 9 21 -19 -6 -27 -4 -29 16 -24
17 5 20 3 14 -8 -5 -8 1 -5 13 5 12 11 22 14 22 8 0 -6 -4 -14 -10 -17 -5 -3
-10 -12 -10 -18 0 -7 7 -3 16 8 8 11 19 20 24 20 5 0 15 6 22 13 18 18 31 15
79 -20 24 -17 63 -35 86 -39 27 -5 69 -28 115 -62 88 -64 143 -97 166 -98 9 0
31 -9 47 -19 17 -11 52 -31 79 -45 117 -61 137 -89 206 -271 22 -59 72 -169
112 -243 108 -207 111 -214 183 -406 37 -99 73 -191 80 -205 7 -14 16 -64 20
-110 3 -47 13 -127 21 -177 11 -66 15 -178 15 -395 1 -279 0 -303 -17 -315
-11 -8 -30 -11 -51 -7 -22 4 -46 0 -70 -11 -28 -14 -52 -16 -106 -12 -38 3
-75 11 -83 18 -16 13 -95 6 -166 -16 -25 -7 -65 -11 -91 -8 -33 4 -67 -1 -114
-16 -62 -20 -76 -21 -158 -11 -49 6 -124 15 -165 20 -41 5 -97 16 -125 24 -59
19 -101 20 -111 5 -10 -17 -145 -4 -156 15 -5 8 -15 13 -23 10 -11 -4 -15 1
-15 16 0 20 -2 21 -16 9 -15 -12 -16 -11 -10 9 5 13 3 22 -3 22 -6 0 -11 7
-11 15 0 8 -7 15 -15 15 -9 0 -15 -9 -15 -22 0 -13 -5 -30 -11 -38 -8 -12 -9
-9 -5 13 7 30 -9 34 -31 7 -10 -13 -12 -11 -13 13 0 29 -9 34 -28 15 -9 -9
-14 -6 -21 13 -10 24 -10 24 -10 2 -1 -23 -21 -33 -21 -11 0 6 -3 8 -7 5 -3
-4 -12 -2 -19 4 -9 8 -17 4 -29 -15 -10 -14 -21 -23 -27 -20 -5 3 -14 -8 -21
-25 -19 -50 -37 -48 -37 5 0 25 -4 43 -9 39 -5 -3 -13 5 -17 17 -6 20 -8 20
-19 5 -14 -19 -35 -23 -35 -6 0 5 -4 7 -10 4 -6 -3 -10 4 -10 17 -1 22 -1 22
-16 -4 -18 -35 -34 -36 -34 -3 0 25 -18 30 -32 10 -5 -6 -8 -4 -8 5 0 9 5 21
11 27 7 7 -8 10 -50 10 -58 -1 -61 0 -90 37 -17 21 -31 44 -31 50 0 6 -11 31
-24 56 -24 47 -66 185 -66 220 0 12 11 47 25 80 14 33 25 70 25 83 0 14 6 30
14 36 8 7 22 42 32 79 26 100 29 105 72 97 20 -3 42 -6 49 -7 7 -1 10 -5 7
-10 -3 -4 -1 -8 4 -8 4 0 18 -9 30 -20 20 -19 23 -19 62 -4 22 9 41 21 41 28
6 48 5 56 -2 56 -5 0 -9 7 -9 15 0 8 -9 19 -21 25 -12 7 -18 18 -15 26 3 8 0
14 -7 14 -8 0 -6 4 3 10 8 5 10 10 4 10 -6 0 -11 7 -11 15 0 13 3 13 18 -1 11
-10 28 -15 44 -12 23 5 30 -2 26 -26 -1 -5 5 -6 13 -3 10 4 16 -1 18 -14 3
-20 3 -20 25 0 12 12 27 21 34 21 6 0 8 7 5 16 -3 9 -6 25 -6 36 0 12 -5 18
-12 15 -52 -21 -52 -21 -45 -2 6 14 5 16 -6 6 -14 -11 -31 2 -52 39 -8 13 -7
13 8 1 11 -8 17 -9 17 -3 0 7 7 9 17 5 11 -4 14 -3 9 5 -4 7 -2 12 4 12 7 0
10 6 7 14 -3 8 3 24 14 37 21 24 24 39 9 39 -5 0 -10 11 -10 25 0 16 -6 25
-16 25 -24 0 -40 22 -47 64 -3 21 -8 40 -10 42 -2 2 -18 -1 -35 -7 l-32 -11 0
-84 c0 -93 -3 -96 -68 -73 -40 14 -53 65 -27 105 9 14 15 34 12 44 -11 43 155
147 190 119 7 -7 13 -8 13 -5 0 4 8 0 17 -10 9 -9 19 -12 20 -7 2 6 14 8 26 6
32 -6 105 61 113 103 5 25 1 37 -16 54 -20 20 -24 21 -32 6 -5 -9 -20 -16 -33
-16 -14 0 -25 -5 -25 -11 0 -6 -8 -8 -17 -5 -19 6 -45 -6 -44 -20 0 -9 -38
-24 -91 -38 -18 -4 -28 -2 -28 4 0 6 5 8 10 5 6 -3 10 5 10 19 0 18 -4 24 -14
20 -14 -5 -29 10 -32 34 -2 7 8 28 20 47 14 19 22 46 21 64 -1 17 2 31 6 31
11 0 0 30 -23 59 -10 13 -18 32 -18 42 0 21 -20 27 -20 7 0 -7 -8 2 -17 20
-11 24 -22 32 -37 30 -13 -2 -20 2 -18 10 6 31 -32 -2 -43 -38 -4 -14 -13 -28
-19 -32 -8 -5 -7 -11 2 -20 6 -6 12 -21 12 -32 -1 -19 -3 -19 -24 6 -20 23
-26 25 -36 13 -15 -18 -39 1 -33 26 3 9 -3 23 -11 32 -9 8 -16 20 -16 25 0 5
-10 13 -22 19 -23 10 -54 1 -70 -22 -4 -6 -20 0 -40 15 -18 13 -41 23 -51 23
-10 -1 -21 5 -24 13 -4 12 -8 12 -19 -3 -12 -16 -13 -17 -14 -1 0 19 -45 27
-97 17 -35 -7 -42 1 -18 21 12 10 11 15 -10 36 -13 13 -29 24 -35 24 -5 0 -10
8 -10 19 0 21 -23 45 -33 34 -4 -3 -7 -1 -7 6 0 8 -6 11 -16 7 -9 -4 -25 0
-34 9 -15 14 -18 14 -30 0 -7 -9 -14 -32 -15 -51 -1 -19 -5 -38 -9 -41 -10
-10 -7 -19 13 -42 11 -13 25 -20 30 -16 17 10 36 -6 20 -16 -11 -7 -9 -10 8
-15 29 -8 20 -24 -15 -25 l-27 0 25 -10 c24 -10 24 -11 6 -24 -16 -12 -17 -17
-6 -30 7 -8 9 -15 4 -15 -19 -1 31 -30 52 -30 18 0 23 -7 29 -47 3 -27 17 -68
29 -93 25 -48 22 -82 -9 -94 -17 -6 -27 3 -128 111 -12 12 -17 28 -14 38 4 10
3 14 -4 9 -8 -4 -9 1 -4 17 4 13 12 26 16 27 13 5 11 42 -1 42 -6 0 -16 11
-22 25 -6 14 -17 24 -24 21 -6 -2 -17 7 -24 22 l-12 26 -19 -24 c-12 -17 -19
-20 -19 -10 0 8 -5 32 -11 53 -7 27 -15 37 -30 37 -29 0 -59 18 -59 35 0 8 -4
15 -10 15 -5 0 -10 -15 -10 -33 0 -21 -8 -39 -21 -51 -16 -13 -18 -20 -9 -26
6 -4 11 -16 10 -26 -4 -34 0 -44 16 -44 13 0 14 -3 5 -13 -9 -11 -4 -14 26
-15 38 -2 57 -12 36 -19 -10 -4 -10 -9 -1 -26 7 -12 11 -25 10 -29 -1 -5 3 -8
8 -8 6 0 10 -6 10 -14 0 -11 10 -13 40 -9 31 4 40 2 40 -9 0 -18 75 -119 98
-133 14 -8 11 -11 -18 -15 -26 -4 -38 -12 -49 -34 l-13 -29 -30 32 c-16 17
-35 31 -42 31 -19 0 -47 34 -49 59 -1 11 -4 21 -7 21 -3 0 -6 9 -7 21 -1 11
-11 29 -22 39 -12 9 -21 22 -21 28 0 7 -10 6 -27 -3 -54 -25 -81 -27 -88 -5
-3 11 -13 21 -21 22 -8 0 -18 1 -24 2 -5 1 -10 -3 -9 -8 0 -5 -11 -16 -25 -25
-25 -16 -25 -18 -9 -41 16 -22 16 -23 -3 -16 -39 15 -74 18 -87 7 -8 -6 -16
-8 -19 -5 -3 2 -8 -2 -11 -10 -4 -9 -2 -18 3 -21 7 -4 6 -13 0 -26 -8 -14 -7
-19 1 -19 6 0 9 -6 6 -14 -6 -15 19 -31 42 -27 13 2 13 0 2 -13 -9 -10 -9 -16
-3 -16 29 0 106 -109 90 -126 -8 -7 -58 7 -58 17 0 4 -19 1 -42 -7 -33 -11
-43 -12 -49 -2 -4 7 -11 9 -15 5 -4 -4 -17 -1 -30 8 -20 13 -22 12 -28 -8 -3
-12 -1 -23 4 -25 13 -5 0 -32 -16 -32 -28 0 -13 -31 21 -46 20 -8 35 -22 36
-32 0 -10 3 -12 6 -4 7 17 33 15 33 -4 0 -8 5 -12 10 -9 6 4 22 0 35 -9 13 -9
33 -16 45 -16 42 0 19 -27 -32 -39 -46 -10 -55 -16 -68 -46 l-15 -35 -45 36
c-38 30 -46 33 -49 18 -1 -9 -6 -12 -10 -7 -3 6 -16 13 -28 17 -21 7 -22 5
-17 -22 3 -17 1 -32 -5 -36 -8 -5 -7 -11 2 -20 6 -8 15 -12 20 -9 4 2 7 -1 7
-7 0 -6 4 -9 9 -6 4 3 13 -5 19 -18 11 -24 52 -30 60 -7 3 9 7 9 18 0 11 -9
14 -9 14 0 0 7 5 9 10 6 6 -3 13 1 16 10 10 24 78 55 124 55 27 0 43 5 46 15
13 33 186 11 230 -30 16 -15 42 -34 57 -42 16 -8 27 -17 25 -21 -2 -4 -16 -30
-32 -59 -26 -47 -31 -52 -75 -58 -71 -10 -78 -13 -92 -46 -10 -27 -16 -30 -41
-25 -15 3 -28 2 -28 -3 0 -5 -18 -7 -40 -6 -22 1 -40 -2 -40 -6 0 -5 -5 -9
-11 -9 -13 0 -39 -25 -39 -38 0 -5 14 -21 31 -36 27 -24 34 -26 57 -17 50 21
104 23 124 4 13 -11 15 -19 7 -24 -6 -4 -8 -12 -5 -18 4 -6 12 -9 17 -6 5 4 9
-1 9 -9 0 -13 4 -14 23 -5 32 14 93 -11 109 -45 6 -15 16 -26 22 -26 6 0 4 -5
-4 -10 -8 -5 -46 -10 -83 -10 -47 0 -81 -6 -109 -20 l-41 -19 -30 25 c-16 14
-33 21 -36 16 -3 -4 -14 -11 -23 -15 -10 -3 -17 -14 -16 -24 5 -62 -3 -93 -27
-109 -22 -14 -30 -15 -50 -4 -20 11 -26 10 -40 -4 -9 -9 -13 -21 -10 -27 4 -5
0 -18 -9 -28 -15 -16 -14 -20 14 -47 16 -16 30 -37 30 -46 0 -9 4 -19 9 -23 5
-3 12 -19 16 -35 4 -17 13 -30 21 -30 8 0 14 -4 14 -10 0 -5 7 -6 17 -3 10 4
14 2 10 -4 -8 -13 26 -23 53 -16 11 3 20 12 20 20 0 12 3 13 14 4 11 -10 17
-8 25 6 6 10 11 12 11 6 0 -7 8 -13 18 -13 13 -1 12 -3 -6 -14 l-24 -13 23
-15 24 -15 -33 -17 c-27 -14 -31 -20 -22 -36 14 -26 12 -85 -3 -98 -7 -6 -28
-10 -47 -10 -75 3 -299 -12 -322 -21 -37 -14 -107 -2 -119 20 -5 11 -17 19
-25 19 -8 0 -12 4 -9 10 3 5 -6 22 -20 36 -15 14 -24 31 -22 38 3 6 -2 17 -9
24 -8 7 -14 8 -14 2 0 -5 -4 -10 -10 -10 -5 0 -10 6 -10 14 0 8 -9 18 -20 21
-11 3 -20 11 -20 16 0 5 -9 9 -20 9 -12 0 -20 7 -20 18 0 13 -2 14 -9 3 -5 -7
-14 -10 -20 -7 -19 12 -12 55 20 118 51 100 59 136 70 283 8 103 15 148 29
170 41 70 42 91 10 223 -16 68 -30 137 -30 153 0 41 27 92 46 85 8 -3 14 1 14
9 0 8 5 15 11 15 6 0 9 7 5 15 -3 8 -1 15 5 15 6 0 8 4 4 9 -3 5 -1 12 5 16
13 8 13 65 0 65 -6 0 -8 10 -5 23 4 15 1 28 -9 36 -9 8 -16 10 -16 5 0 -4 -16
7 -35 26 -19 19 -35 29 -35 22 0 -27 -16 -9 -30 34 -17 51 -29 58 -47 23 -9
-17 -9 -27 -1 -36 7 -9 7 -13 -2 -13 -7 0 -10 -7 -6 -15 6 -17 -29 -22 -39 -5
-4 6 -9 8 -13 6 -4 -2 -8 12 -9 32 -1 31 -7 77 -12 91 0 2 -9 -3 -18 -10 -15
-12 -16 -12 -10 4 4 11 2 17 -8 17 -8 0 -15 5 -15 10 0 6 -5 10 -11 10 -5 0
-7 -4 -4 -10 3 -5 1 -10 -4 -10 -6 0 -11 -6 -11 -14 0 -18 -40 -28 -57 -14
-13 10 -16 -10 -16 -87 0 -35 36 -137 50 -142 19 -7 16 -20 -7 -26 -15 -4 -20
0 -20 13 0 11 -5 22 -11 26 -6 3 -9 14 -6 24 3 11 -1 21 -9 24 -10 4 -14 -3
-14 -24 0 -17 -4 -30 -10 -30 -5 0 -9 -3 -9 -7 3 -21 -3 -32 -18 -36 -17 -4
-17 -5 0 -6 26 -2 20 -20 -10 -27 -17 -5 -28 -3 -31 4 -8 25 -32 12 -32 -18 0
-24 -4 -29 -20 -27 -24 4 -72 66 -66 84 3 7 -1 13 -9 13 -8 0 -17 -15 -21 -37
-8 -43 -23 -62 -44 -55 -11 4 -10 -1 4 -17 12 -13 14 -21 7 -21 -7 0 -9 -5 -6
-10 3 -6 0 -17 -9 -25 -13 -14 -16 -13 -29 5 -7 11 -17 17 -20 13 -4 -3 -7 6
-7 20 0 15 -4 27 -10 27 -5 0 -9 5 -7 11 1 6 -17 19 -39 29 l-42 18 -22 -30
c-26 -35 -22 -84 10 -113 11 -10 20 -27 20 -38 0 -16 5 -18 30 -15 24 4 30 1
30 -14 0 -10 5 -18 11 -18 6 0 9 -9 6 -20 -3 -11 -2 -22 2 -24 4 -3 6 -19 5
-35 -1 -17 2 -31 8 -31 20 0 38 -30 38 -64 0 -33 -2 -36 -29 -36 -16 0 -34 7
-41 15 -7 8 -21 15 -31 15 -18 0 -19 -2 -4 -29 14 -28 53 -65 78 -74 9 -3 9
-9 0 -25 -8 -13 -9 -23 -3 -27 15 -9 12 -32 -5 -39 -8 -3 -30 3 -47 13 -18 10
-50 22 -70 25 -31 6 -37 11 -35 29 1 12 6 25 10 28 5 3 1 13 -8 22 -12 13 -13
21 -5 36 13 25 13 44 -1 36 -6 -4 -13 2 -16 14 -5 18 -10 20 -44 15 -34 -6
-40 -4 -48 17 -9 22 -10 21 -10 -13 -1 -26 -7 -41 -23 -52 -21 -15 -21 -16 -2
-38 10 -13 25 -27 32 -31 21 -14 13 -26 -24 -36 -29 -8 -41 -7 -60 6 l-24 15
0 -46 c0 -60 21 -93 60 -94 44 -1 70 -11 70 -27 0 -9 6 -12 15 -9 9 4 15 0 15
-10 0 -10 6 -13 15 -10 8 4 36 -4 62 -16 34 -16 58 -21 86 -17 42 6 116 -20
152 -53 11 -10 40 -24 63 -31 25 -7 51 -23 60 -37 10 -13 42 -52 72 -86 55
-63 109 -179 97 -210 -3 -8 -32 -15 -80 -19 -41 -4 -86 -11 -99 -16 -38 -15
-141 -31 -199 -31 -31 -1 -62 -7 -73 -15 -29 -22 -58 -18 -102 12 -21 14 -54
29 -72 34 -35 7 -92 -6 -92 -22 0 -4 -6 -6 -14 -3 -7 3 -28 -7 -46 -22 l-32
-27 -51 18 c-38 14 -82 19 -176 20 -120 1 -128 2 -178 30 -52 30 -53 30 -84
12 -17 -9 -36 -14 -41 -10 -7 4 -8 1 -3 -7 6 -10 0 -12 -31 -5 -21 4 -48 7
-59 6 -11 -1 -53 -4 -94 -7 -65 -5 -80 -3 -114 17 -32 18 -44 20 -58 10 -27
-16 -57 -14 -63 6 -3 10 -13 54 -21 97 -15 73 -15 85 -1 135 12 42 14 88 11
185 -2 70 -6 130 -9 133 -2 3 2 28 11 56 8 28 13 67 10 86 -2 20 0 46 4 59 6
14 5 22 -2 22 -8 0 -7 5 1 15 7 8 10 21 7 29 -3 8 0 17 7 19 20 8 27 83 10
115 -11 23 -11 28 2 43 11 12 12 19 4 24 -7 4 -9 19 -5 36 4 19 3 29 -5 29 -7
0 -10 7 -6 16 8 22 -12 57 -30 50 -19 -7 -18 3 2 26 15 15 15 18 1 23 -8 4
-13 14 -10 25 6 21 -26 45 -74 55 -32 6 -33 6 -27 -24 6 -28 4 -31 -12 -25
-16 6 -17 5 -7 -7 17 -18 16 -39 -2 -39 -26 0 -5 -28 26 -34 27 -5 42 -26 18
-26 -8 0 -7 -5 1 -15 17 -20 5 -32 -15 -15 -9 7 -13 20 -10 28 3 9 0 12 -9 9
-8 -3 -22 1 -33 8 -10 8 -25 15 -33 15 -9 0 -23 9 -33 20 -9 11 -22 20 -28 20
-6 0 -4 -7 5 -15 14 -14 13 -19 -4 -49 -13 -24 -15 -37 -7 -45 7 -7 6 -12 -6
-17 -25 -9 -20 -24 8 -24 14 0 25 -4 25 -10 0 -5 -10 -10 -22 -10 -17 0 -19
-3 -9 -9 8 -5 16 -37 20 -77 4 -38 13 -70 19 -72 7 -2 10 -8 6 -13 -3 -5 4 -9
16 -9 12 0 18 -4 15 -10 -3 -6 3 -10 13 -10 12 0 23 -9 27 -22 4 -13 8 -25 9
-28 6 -18 32 -50 41 -50 6 0 11 -88 12 -245 1 -225 -6 -298 -20 -210 -5 28
-26 56 -97 127 -50 50 -92 99 -93 110 -1 10 -7 18 -15 18 -7 0 -12 6 -11 13 1
6 -3 25 -10 42 -13 31 -7 75 12 87 9 6 8 8 -2 8 -11 0 -11 3 0 17 11 13 12 17
1 21 -10 3 -9 8 4 23 9 10 12 19 7 19 -6 0 -13 14 -17 31 -3 17 -10 28 -15 24
-6 -3 -20 8 -32 25 -26 35 -39 38 -39 11 0 -12 -8 -21 -22 -23 -26 -4 -51 -65
-35 -85 6 -9 6 -13 -2 -13 -7 0 -9 -9 -5 -25 5 -20 1 -26 -20 -35 -25 -9 -26
-12 -23 -80 1 -38 5 -70 9 -70 5 0 8 -9 8 -20 0 -11 4 -20 10 -20 5 0 6 -7 3
-17 -4 -11 -3 -14 5 -9 7 4 12 2 12 -4 0 -7 7 -9 16 -6 10 4 13 2 8 -6 -5 -8
-2 -9 10 -5 9 4 19 1 22 -6 2 -6 20 -12 39 -13 51 -1 132 -45 119 -65 -3 -5 1
-9 8 -9 26 0 78 -64 78 -96 0 -19 12 -44 33 -69 38 -46 64 -143 40 -152 -7 -3
-19 0 -27 6 -7 6 -31 10 -52 10 -21 -1 -59 2 -84 6 -44 8 -166 60 -176 76 -3
5 -13 9 -23 9 -10 0 -32 13 -48 29 -31 29 -103 48 -137 35 -16 -6 -101 12
-121 26 -5 4 -22 8 -37 8 -14 0 -46 9 -70 21 -24 11 -57 23 -73 27 -61 12 -72
32 -89 153 -9 61 -16 132 -16 157 0 25 -5 54 -11 65 -6 13 -7 25 -1 32 12 15
9 46 -7 76 l-14 25 -23 -27 c-28 -33 -60 -34 -91 -5 -13 12 -26 18 -30 14 -4
-4 -1 -11 7 -16 13 -9 13 -10 0 -11 -8 -1 -19 -1 -24 0 -34 6 -82 -52 -69 -86
3 -7 0 -13 -7 -13 -7 0 -18 -6 -24 -14 -16 -19 -113 -29 -123 -12 -8 12 -45
36 -57 36 -3 0 -6 -6 -6 -14 0 -8 -7 -16 -15 -20 -21 -8 -19 -32 6 -84 16 -33
19 -46 10 -55 -14 -14 -201 -21 -201 -7 0 6 -15 10 -34 10 -18 0 -53 7 -77 16
-24 9 -55 18 -68 19 -23 3 -86 27 -123 46 -10 5 -28 9 -41 9 -13 0 -32 9 -42
20 -10 11 -24 20 -32 20 -18 0 -162 66 -183 84 -8 7 -27 16 -41 19 -29 7 -100
39 -144 66 -16 10 -43 21 -58 25 -15 3 -33 17 -39 30 -7 16 -22 26 -44 31 -21
4 -42 17 -56 35 -12 17 -30 30 -40 30 -10 0 -21 6 -24 14 -3 8 -13 12 -23 9
-12 -3 -31 10 -57 40 -40 45 -77 71 -87 61 -3 -3 -16 1 -29 10 -12 9 -30 16
-39 16 -10 0 -26 11 -37 24 -10 13 -36 29 -58 35 -21 6 -55 21 -74 35 -21 14
-89 37 -165 56 -111 28 -186 54 -257 92 -17 8 -18 -57 -18 -1312 l0 -1320
6400 0 6400 0 0 541 0 541 -26 -6 c-14 -4 -71 -13 -127 -22 -56 -8 -109 -17
-118 -20 -9 -2 -32 -7 -50 -9 -19 -3 -50 -9 -69 -15 -49 -14 -127 -13 -133 3
-4 10 -6 10 -6 0 -1 -7 -5 -13 -10 -13 -14 0 -7 60 9 70 8 5 11 12 7 16 -8 8
-38 -27 -31 -37 4 -7 -28 -21 -74 -34 -22 -6 -23 -5 -17 17 5 12 17 29 27 37
19 13 19 14 -11 28 -27 13 -28 17 -16 30 21 21 19 26 -9 21 -22 -5 -24 -2 -20
21 5 24 3 27 -23 25 -15 -1 -28 -2 -28 -3 0 -1 -16 -4 -36 -6 -33 -3 -36 -2
-32 19 7 35 -14 41 -22 6 -4 -16 -13 -30 -21 -30 -11 0 -13 7 -8 28 l7 27 -23
-20 -23 -20 7 28 c5 23 3 27 -14 27 -22 0 -27 -15 -7 -24 6 -3 2 -3 -9 -1 -14
4 -24 0 -28 -10 -7 -20 -56 -20 -56 0 0 19 -19 19 -26 0 -8 -19 -34 -19 -48 0
-10 14 -14 14 -33 -4 -18 -17 -22 -18 -27 -5 -4 9 -13 14 -21 10 -9 -3 -15 0
-15 9 0 8 -6 15 -13 15 -7 0 -21 10 -31 21 -14 17 -25 20 -57 16 -22 -3 -37
-1 -33 4 9 15 -43 10 -56 -6 -14 -17 -42 -19 -68 -6 -27 13 -87 31 -106 31
-10 0 -29 9 -43 20 -14 11 -34 20 -44 20 -10 0 -21 5 -25 11 -4 8 -30 9 -78 4
-45 -4 -82 -2 -101 5 -24 9 -31 8 -41 -4 -15 -21 -21 -20 -26 2 -4 15 -18 18
-83 21 -56 2 -81 -1 -87 -11 -8 -10 -11 -10 -15 0 -6 16 -31 15 -49 -2 -16
-17 -19 -36 -4 -36 6 0 10 -9 10 -20 0 -17 -4 -19 -26 -14 -20 5 -25 4 -19 -6
5 -9 2 -10 -13 -6 -17 6 -23 2 -28 -18 -3 -14 -12 -26 -19 -26 -7 0 -15 -5
-17 -11 -3 -8 -10 -5 -21 6 -22 22 -32 14 -18 -13 14 -26 15 -64 2 -43 -7 12
-13 12 -24 3 -7 -7 -17 -9 -20 -5 -4 3 -7 1 -7 -5 0 -7 -4 -12 -10 -12 -5 0
-10 7 -10 15 0 25 -29 29 -51 9 -12 -11 -24 -17 -28 -14 -3 3 -7 -5 -9 -17 -2
-13 -7 -23 -11 -23 -14 0 -31 26 -23 35 4 4 -5 5 -20 1 -16 -3 -28 -3 -28 2 0
5 -11 14 -25 20 -14 6 -25 19 -25 29 0 13 -3 14 -12 5 -16 -16 -29 -15 -27 0
4 33 -2 50 -15 45 -9 -4 -17 1 -20 11 -3 9 -15 23 -27 30 -19 12 -23 11 -36
-8 l-15 -21 -25 23 c-20 19 -25 20 -33 8 -8 -13 -10 -12 -10 3 0 10 -5 15 -10
12 -6 -4 -8 -11 -5 -16 3 -5 -1 -6 -9 -3 -9 3 -16 10 -16 14 0 16 -95 5 -112
-13 -10 -11 -19 -14 -23 -7 -9 15 -25 12 -25 -5 0 -8 -3 -15 -7 -16 -5 0 -18
-2 -30 -3 -13 -2 -23 1 -23 6 0 14 -38 9 -54 -8 -10 -9 -24 -13 -36 -9 -14 5
-20 2 -20 -9 0 -25 -24 -14 -33 14 -4 14 -10 160 -14 326 -6 289 -5 304 16
395 34 139 139 455 175 524 35 68 102 152 126 160 17 6 51 58 109 168 23 44
61 98 84 120 24 23 53 55 65 71 12 16 25 26 28 23 7 -6 34 17 34 29 0 13 79
92 86 86 4 -4 4 -2 1 4 -7 12 24 44 61 63 19 10 22 9 22 -5 0 -10 3 -14 6 -11
4 4 19 -1 34 -9 20 -12 26 -22 22 -40 -3 -19 0 -24 16 -24 11 0 23 8 27 19 3
10 14 28 24 39 14 17 20 19 31 9 10 -10 12 -9 7 6 -4 11 -1 17 8 17 8 0 15 6
15 14 0 8 9 21 19 28 11 8 25 26 31 40 14 30 39 40 64 26 13 -7 16 -5 16 12 0
17 4 20 22 15 16 -6 20 -4 15 7 -3 8 3 21 13 28 10 7 16 19 13 27 -3 7 -1 13
4 13 5 0 10 13 10 29 0 22 14 46 58 92 64 70 95 115 95 141 0 13 8 17 29 15
16 -1 27 -5 25 -8 -2 -3 10 -6 25 -5 23 1 27 4 19 14 -8 9 -7 11 4 7 11 -5 15
0 14 17 -1 19 4 22 23 20 17 -1 22 2 17 13 -3 8 0 15 6 15 7 0 6 5 -2 15 -10
12 -10 15 4 15 9 0 15 3 15 8 -5 29 3 42 26 42 14 0 25 4 25 8 0 4 -16 8 -35
8 -41 0 -52 9 -59 47 -4 22 -2 27 9 23 15 -5 39 17 28 27 -3 4 8 7 25 7 l32 0
-21 21 c-25 25 -20 43 14 47 33 4 36 22 5 23 -15 0 -18 3 -8 6 8 4 21 12 29
20 7 8 26 17 42 20 37 7 37 21 2 29 -16 4 -33 14 -40 23 -8 11 -12 12 -13 4 0
-16 -30 -17 -30 -2 0 5 -4 7 -10 4 -5 -3 -10 -1 -10 5 0 5 -13 24 -30 42 -28
28 -30 29 -30 9 0 -11 -5 -20 -12 -19 -7 2 -17 -7 -23 -19 -5 -13 -13 -23 -16
-23 -4 0 -5 -19 -2 -42 l5 -43 -19 23 c-18 22 -18 22 -30 2 -7 -10 -10 -26 -7
-35 5 -11 2 -14 -10 -9 -9 3 -16 1 -16 -5 0 -6 -13 -11 -29 -11 -36 0 -78 49
-59 68 8 8 8 15 -1 26 -7 8 -10 20 -6 26 3 5 1 10 -5 10 -6 0 -21 9 -33 21
-13 12 -31 19 -44 16 -17 -3 -24 2 -32 24 -5 15 -7 29 -5 32 12 12 11 46 -2
51 -8 3 -14 10 -14 16 0 6 -7 18 -15 26 -13 14 -17 12 -33 -15 -17 -30 -32
-40 -32 -22 0 5 -14 12 -31 16 -19 4 -33 15 -36 26 -3 11 -16 22 -29 25 -18 5
-24 13 -24 35 0 22 -6 32 -26 39 -14 6 -30 8 -35 5 -12 -8 -72 -15 -65 -8 3 3
1 12 -5 19 -9 11 -7 15 7 21 11 3 27 16 37 27 18 20 18 21 -5 27 -21 5 -20 6
10 13 18 4 30 12 26 17 -3 5 2 9 10 9 23 0 19 27 -6 45 -25 17 -25 24 3 43 21
15 25 42 7 42 -8 0 -9 3 -3 8 6 4 11 15 11 25 2 23 -39 33 -83 19 -19 -6 -41
-8 -49 -5 -9 3 -14 -1 -14 -12 0 -9 -6 -15 -12 -13 -7 3 -19 -2 -27 -10 -16
-15 -18 -13 -35 41 -4 12 -16 17 -43 17 -49 0 -144 26 -153 41 -6 8 -9 8 -13
-2 -3 -8 -6 -4 -6 9 -1 12 -8 25 -16 28 -11 4 -12 10 -6 18 6 7 6 17 1 26 -6
8 -10 11 -10 6 0 -5 -9 1 -20 14 -18 21 -20 21 -20 4 0 -11 -4 -15 -8 -9 -4 6
-15 11 -25 12 -14 1 -18 -4 -14 -19 4 -15 3 -17 -8 -8 -9 8 -14 6 -19 -6 -3
-9 -3 -21 1 -26 3 -6 1 -8 -4 -5 -6 4 -13 -6 -17 -23 -6 -32 -31 -40 -55 -17
-11 10 -12 6 -7 -19 5 -22 2 -36 -8 -47 -8 -8 -12 -17 -9 -21 4 -3 1 -6 -6 -6
-7 0 -12 -10 -11 -22 4 -48 0 -68 -15 -68 -8 0 -15 -4 -15 -9 0 -5 -9 -7 -20
-4 -15 4 -19 11 -15 24 4 13 1 19 -8 19 -14 0 -41 52 -40 77 0 6 -6 9 -13 6
-10 -4 -12 0 -8 11 4 10 1 16 -7 17 -8 0 -26 3 -41 5 -16 3 -32 -2 -42 -12
-11 -10 -23 -13 -34 -8 -9 4 -24 8 -32 8 -10 1 -14 10 -12 29 1 15 -2 27 -7
27 -10 0 -9 25 1 36 8 8 -2 37 -16 46 -8 5 -7 8 1 8 7 0 11 15 10 39 0 22 -4
38 -8 35 -4 -2 -10 4 -13 13 -6 15 -8 15 -16 3 -8 -13 -12 -12 -25 5 -15 18
-16 18 -11 2z m-94 -297 c0 -5 -4 -10 -10 -10 -5 0 -10 5 -10 10 0 6 5 10 10
10 6 0 10 -4 10 -10z m108 -10 c7 -12 8 -20 2 -20 -5 0 -10 -9 -10 -20 0 -11
-4 -20 -10 -20 -5 0 -9 18 -7 40 2 45 7 49 25 20z m-598 -130 c0 -5 -4 -10
-10 -10 -5 0 -10 5 -10 10 0 6 5 10 10 10 6 0 10 -4 10 -10z m1417 -136 c-3
-3 -12 -4 -19 -1 -8 3 -5 6 6 6 11 1 17 -2 13 -5z m33 -21 c0 -8 -50 -50 -79
-68 -10 -5 -12 -4 -7 3 4 8 0 12 -11 12 -13 0 -15 2 -5 9 7 4 15 17 17 27 2
10 4 20 4 22 2 6 81 1 81 -5z m-940 -179 c0 -8 5 -12 10 -9 18 11 40 -16 40
-50 0 -20 -8 -39 -21 -51 -20 -18 -21 -18 -35 0 -7 10 -11 23 -8 27 3 5 0 9
-5 9 -6 0 -11 9 -11 19 0 11 -4 21 -10 23 -5 2 -7 13 -4 26 7 25 44 31 44 6z
m-586 -49 c29 -38 62 -122 52 -132 -7 -7 -56 44 -56 58 0 6 -5 7 -11 4 -5 -4
-24 7 -40 25 l-31 31 24 24 c13 12 26 23 29 24 4 1 19 -15 33 -34z m329 -5 c9
-22 17 -47 17 -56 0 -8 6 -27 14 -42 7 -15 16 -43 20 -63 4 -21 12 -42 20 -48
7 -6 19 -30 26 -53 7 -24 23 -74 36 -112 23 -68 34 -196 16 -196 -10 0 -68
116 -89 179 -30 86 -33 110 -14 121 9 5 12 10 6 10 -5 0 -10 20 -9 44 0 34 -6
53 -25 78 -17 21 -26 45 -26 68 0 23 -4 34 -13 33 -14 -3 -15 6 -3 26 6 9 6
22 0 33 -5 10 -6 18 -2 18 5 0 16 -18 26 -40z m1059 -55 c17 -22 6 -66 -37
-144 -46 -86 -65 -114 -72 -107 -7 6 26 129 53 201 4 11 6 23 6 28 -1 4 3 7 8
7 6 0 10 7 10 15 0 16 20 16 32 0z m-661 -42 c13 -35 8 -68 -11 -68 -8 0 -21
-4 -27 -8 -17 -10 -17 11 -1 63 15 47 25 50 39 13z m911 -6 c-16 -7 -26 -7
-34 1 -8 8 -2 10 23 10 31 -1 32 -2 11 -11z m-5 -28 c9 -9 2 -22 -28 -50 -23
-22 -47 -39 -55 -39 -24 0 -15 37 17 69 33 33 48 38 66 20z m-906 -63 c5 3 9
0 9 -6 0 -15 -23 -7 -26 8 -1 7 0 8 3 2 2 -5 9 -8 14 -4z m1132 -33 c-3 -10
-14 -29 -23 -43 -35 -53 -80 -140 -80 -156 0 -13 -25 -77 -36 -92 -1 -2 -12 1
-23 8 -16 8 -21 8 -21 -1 0 -7 -3 -9 -6 -6 -4 3 -16 1 -27 -5 -17 -9 -19 -8
-13 7 5 13 2 16 -10 11 -11 -4 -14 -1 -10 12 3 9 10 36 16 60 10 38 13 42 27
30 14 -11 15 -10 9 10 -7 21 -5 22 20 16 19 -5 25 -4 20 5 -4 6 -1 11 8 11 10
0 13 6 10 15 -4 9 0 15 8 15 17 0 20 30 4 30 -6 1 5 9 24 19 19 11 46 31 59
45 28 30 54 35 44 9z m140 -36 c-3 -18 -13 -49 -22 -69 l-16 -38 -22 33 c-26
38 -22 70 13 86 13 6 24 15 24 20 0 6 7 8 15 5 10 -4 12 -15 8 -37z m-1129
-27 c13 -46 14 -64 6 -80 -21 -39 -35 -16 -38 63 -2 42 1 77 6 77 5 0 17 -27
26 -60z m-1078 -18 c2 -46 -3 -57 -22 -41 -17 14 -16 70 0 81 15 10 20 2 22
-40z m2114 -24 c0 -16 -3 -19 -11 -11 -6 6 -8 16 -5 22 11 17 16 13 16 -11z
m-1166 -45 c-8 -63 -24 -79 -24 -26 0 47 8 73 22 73 5 0 6 -19 2 -47z m646 34
c0 -7 -6 -21 -13 -32 -13 -19 -22 -47 -46 -140 -11 -41 -60 -83 -81 -70 -26
16 2 110 46 154 15 14 37 43 50 64 24 37 44 48 44 24z m155 -42 c-14 -29 -25
-42 -25 -31 0 17 41 89 47 82 1 -1 -9 -24 -22 -51z m-2265 35 c-8 -5 -19 -10
-25 -10 -5 0 -3 5 5 10 8 5 20 10 25 10 6 0 3 -5 -5 -10z m1320 -49 c0 -28 -4
-53 -10 -56 -6 -4 -10 15 -10 49 0 31 5 56 10 56 6 0 10 -22 10 -49z m-314
-117 c5 -40 3 -52 -9 -57 -20 -7 -61 37 -54 57 4 9 3 16 -2 16 -8 0 -11 18
-11 63 0 16 -6 30 -15 33 -8 4 -15 12 -15 19 0 6 22 -9 50 -34 43 -40 50 -52
56 -97z m-886 106 c0 -5 6 -10 14 -10 19 0 108 -89 100 -101 -8 -14 -87 2
-101 20 -7 9 -13 23 -13 32 0 9 -11 22 -25 29 -14 7 -25 19 -25 27 0 7 11 13
25 13 14 0 25 -4 25 -10z m1760 -35 c0 -29 -9 -64 -25 -95 -30 -59 -51 -77
-41 -34 4 16 9 49 13 74 6 49 28 100 43 100 6 0 10 -20 10 -45z m-236 -105
c-2 -50 -20 -88 -34 -73 -14 15 -20 62 -9 68 5 4 14 18 19 31 15 40 27 27 24
-26z m1175 18 c-8 -14 -14 -18 -17 -10 -4 13 17 46 25 38 3 -2 -1 -15 -8 -28z
m-2356 -84 c14 -25 -20 -27 -53 -4 -16 12 -30 30 -30 41 0 11 -5 30 -12 42
-12 23 81 -54 95 -79z m1675 36 c-7 -11 -16 -20 -21 -20 -4 0 -3 9 3 20 6 11
15 20 20 20 6 0 5 -9 -2 -20z m-2038 6 c0 -3 -4 -8 -10 -11 -5 -3 -10 -1 -10
4 0 6 5 11 10 11 6 0 10 -2 10 -4z m613 -46 c66 -13 127 -90 127 -160 0 -30
-2 -32 -26 -26 -49 13 -105 57 -138 109 -49 78 -55 107 -17 91 9 -4 33 -10 54
-14z m302 -20 c4 -6 8 -37 10 -70 2 -40 14 -80 34 -124 36 -75 40 -97 11 -71
-11 10 -20 24 -20 31 0 6 -13 37 -30 68 -33 64 -49 176 -24 176 7 0 16 -5 19
-10z m1192 -148 c-51 -90 -63 -121 -72 -182 -5 -31 -17 -56 -40 -80 -17 -19
-39 -46 -49 -60 l-16 -24 0 30 c0 18 31 88 79 179 44 83 85 170 91 195 7 25
19 59 29 75 l16 30 3 -43 c3 -36 -4 -56 -41 -120z m-334 44 c-15 -43 -32 -79
-37 -80 -13 -2 -39 82 -31 102 4 12 8 13 14 4 5 -8 18 4 41 36 44 61 49 39 13
-62z m157 77 c0 -15 -15 -68 -34 -118 -38 -100 -56 -175 -56 -237 0 -46 -42
-128 -65 -128 -32 0 -1 181 43 261 17 30 40 94 52 143 23 100 26 106 46 106 9
0 14 -10 14 -27z m-552 -148 c14 -48 15 -55 3 -55 -17 0 -41 93 -40 154 l1 61
13 -60 c6 -33 17 -78 23 -100z m82 67 c0 -30 -18 2 -25 43 l-6 40 16 -34 c8
-18 15 -40 15 -49z m985 8 c3 -5 1 -10 -5 -10 -6 0 -8 -10 -4 -25 6 -25 -1
-30 -30 -19 -14 5 -14 9 0 35 15 30 28 36 39 19z m-454 -83 c-11 -26 -23 -47
-27 -47 -9 0 4 48 24 90 25 52 27 13 3 -43z m-662 -56 c31 -49 32 -50 21 -118
-6 -37 -9 -84 -6 -103 5 -28 4 -30 -4 -13 -5 12 -16 71 -25 130 -9 59 -19 118
-22 131 -8 33 0 27 36 -27z m-447 -43 c25 -29 60 -78 79 -108 18 -30 47 -68
63 -84 l29 -30 -6 -119 c-3 -66 -8 -122 -11 -125 -18 -18 -93 109 -131 223
-13 39 -37 108 -54 155 -31 84 -39 140 -22 140 5 0 29 -24 53 -52z m793 -43
c-3 -36 -11 -65 -17 -65 -11 0 -5 91 8 125 12 31 16 5 9 -60z m-391 -86 c19
-100 20 -173 5 -218 -11 -31 -12 -31 -25 -13 -8 11 -16 59 -20 108 -3 49 -10
101 -16 116 -8 21 -6 38 8 73 21 57 27 49 48 -66z m-2614 17 c0 -2 -7 -7 -16
-10 -8 -3 -12 -2 -9 4 6 10 25 14 25 6z m2686 -211 c-23 -54 -29 -38 -14 36
12 59 13 61 21 33 6 -22 4 -41 -7 -69z m-2690 77 c14 -9 27 -62 16 -62 -14 0
-52 40 -52 55 0 16 18 19 36 7z m232 -86 c-1 -6 10 -41 25 -79 15 -37 27 -77
27 -88 0 -11 9 -32 20 -46 26 -33 25 -48 -2 -67 -28 -20 -42 -20 -35 -2 4 10
1 13 -8 10 -7 -3 -16 3 -20 15 -3 12 -10 21 -15 21 -5 0 -12 10 -15 21 -5 16
-9 18 -15 9 -5 -7 -6 -19 -4 -25 6 -16 -18 -25 -45 -18 -26 7 -26 16 -1 72 11
23 18 47 15 51 -3 4 2 13 10 20 21 17 19 30 -5 30 -28 0 -25 13 11 39 18 13
28 28 25 37 -3 8 -1 14 5 14 6 0 7 6 3 13 -5 8 -2 7 9 -2 10 -7 16 -19 15 -25z
m-149 -102 c15 -52 7 -79 -24 -79 -10 0 -20 -6 -23 -13 -9 -29 -22 -9 -17 26
7 42 35 112 44 112 4 0 13 -21 20 -46z m434 9 c8 -16 17 -55 20 -88 7 -59 6
-61 -32 -105 -34 -39 -41 -43 -56 -30 -9 7 -23 26 -31 41 -13 26 -12 32 8 74
16 34 19 48 11 53 -8 5 -1 19 22 45 19 20 36 37 39 37 3 0 12 -12 19 -27z
m2455 -9 c12 -4 22 -12 22 -19 0 -18 -37 -126 -62 -181 l-21 -49 -7 45 c-7 42
10 176 25 199 7 13 12 13 43 5z m-475 -76 c3 -35 11 -94 17 -132 10 -68 6
-116 -10 -100 -16 17 -50 147 -50 192 0 48 19 114 30 107 4 -3 10 -33 13 -67z
m247 -21 c0 -16 11 -52 25 -80 24 -47 26 -57 19 -146 -7 -99 -68 -322 -84
-304 -11 13 -29 118 -36 218 -7 100 18 339 38 363 10 12 14 11 25 -4 7 -10 13
-31 13 -47z m-2827 -62 c44 -4 67 -20 67 -45 0 -33 -12 -50 -34 -50 -19 0 -22
4 -19 33 3 26 2 29 -7 15 -6 -10 -16 -18 -22 -18 -7 0 -6 5 2 15 10 12 10 15
-4 15 -9 0 -16 5 -16 10 0 6 -9 10 -20 10 -12 0 -20 7 -20 16 0 11 5 14 18 9
9 -4 34 -9 55 -10z m264 -41 c-3 -3 -12 -4 -19 -1 -8 3 -5 6 6 6 11 1 17 -2
13 -5z m-612 -34 c14 0 25 -22 25 -51 0 -28 -29 -23 -40 7 -10 25 -13 80 -3
57 2 -7 11 -13 18 -13z m605 10 c-19 -13 -30 -13 -30 0 0 6 10 10 23 10 18 0
19 -2 7 -10z m-21 -20 c20 12 41 1 41 -21 0 -16 -3 -17 -32 -5 -18 8 -34 20
-36 28 -3 9 -1 10 5 1 5 -7 14 -9 22 -3z m-327 -14 c5 3 20 2 31 -4 12 -5 53
-22 91 -38 94 -38 118 -60 119 -110 1 -75 -29 -85 -84 -28 -18 20 -51 44 -71
55 -20 10 -50 30 -65 44 -15 14 -38 34 -51 45 -12 11 -34 23 -47 26 -42 10
-18 22 26 13 22 -5 45 -7 51 -3z m-967 -47 c-28 -11 -43 -10 -25 1 12 8 12 10
-3 16 -9 3 -17 10 -17 15 0 5 15 2 32 -7 30 -16 31 -18 13 -25z m554 32 c21
-14 6 -38 -24 -38 -19 0 -25 4 -21 14 3 8 6 19 6 24 0 11 21 11 39 0z m285
-42 c-23 -25 -34 -24 -34 4 0 32 9 38 32 26 19 -10 19 -12 2 -30z m726 27 c15
-19 9 -60 -10 -64 -9 -1 -24 4 -35 12 -17 12 -18 17 -7 40 13 29 33 33 52 12z
m-1580 -60 c0 -8 -4 -18 -10 -21 -5 -3 -10 3 -10 14 0 12 5 21 10 21 6 0 10
-6 10 -14z m692 -13 c23 -20 32 -64 16 -75 -15 -10 -88 0 -105 14 -7 6 -13 25
-13 43 0 19 6 36 13 38 19 8 70 -3 89 -20z m752 -35 c5 -21 3 -28 -8 -28 -22
0 -28 17 -21 52 8 34 17 26 29 -24z m-1674 27 c0 -8 -7 -15 -15 -15 -26 0 -18
20 13 29 1 1 2 -6 2 -14z m100 4 c0 -5 4 -8 9 -5 17 11 18 -19 2 -31 -23 -18
-26 -16 -27 17 -1 17 3 30 7 30 5 0 9 -5 9 -11z m1070 -14 c13 -14 30 -25 38
-25 8 0 30 -11 48 -25 18 -14 37 -25 42 -25 18 0 88 -88 99 -124 14 -46 3 -46
-50 -2 -39 32 -48 35 -107 34 -74 0 -94 7 -138 44 -34 29 -45 72 -15 61 12 -5
14 -3 8 7 -6 10 -4 12 8 7 20 -8 28 14 10 31 -7 7 -13 20 -13 28 0 23 44 16
70 -11z m-1010 -69 c0 -17 5 -37 11 -43 5 -5 16 -48 24 -94 7 -46 23 -112 35
-147 15 -43 20 -74 16 -97 -14 -71 -49 -50 -39 23 5 36 2 47 -18 68 -21 22
-29 25 -66 19 -42 -6 -43 -6 -43 24 0 19 8 35 20 44 16 11 19 21 14 41 -3 14
-13 26 -21 26 -11 0 -13 3 -5 13 6 7 9 30 8 52 -4 53 16 100 43 102 17 1 21
-4 21 -31z m1440 -58 c0 -23 -4 -28 -24 -28 -32 0 -36 7 -29 58 l6 43 23 -22
c14 -13 24 -34 24 -51z m350 -3 c-48 -49 -67 -53 -62 -12 2 17 -1 27 -9 27
-30 0 9 19 46 23 22 2 47 4 55 5 8 1 -6 -18 -30 -43z m-2054 -58 c7 -6 -8 -67
-16 -67 -10 0 -35 38 -44 67 -7 21 -5 21 25 13 17 -5 33 -11 35 -13z m1807
-48 c-10 -9 -63 -23 -63 -16 0 2 12 18 28 35 26 29 27 29 35 9 4 -11 4 -24 0
-28z m-1757 -25 c-3 -9 -6 -18 -6 -20 0 -2 -7 -4 -15 -4 -18 0 -19 12 -3 28
17 17 31 15 24 -4z m1370 -7 l27 -23 -33 -14 c-18 -8 -46 -26 -61 -41 -16 -15
-34 -31 -41 -36 -8 -4 -19 -21 -26 -37 -11 -24 -11 -31 0 -37 7 -5 9 -9 3 -9
-5 0 -4 -4 3 -8 9 -7 10 -15 3 -35 -10 -27 -44 -51 -55 -40 -3 3 -6 1 -6 -5 0
-18 -27 -14 -34 4 -4 12 -2 15 9 10 8 -3 15 0 15 5 0 6 -9 9 -20 6 -25 -6 -58
23 -70 61 -9 34 -5 42 21 42 9 0 19 7 23 15 3 8 12 15 21 15 9 0 15 9 15 25 0
14 11 48 25 75 l25 50 65 0 c52 0 69 -4 91 -23z m421 -87 c-6 -16 -13 -27 -15
-25 -7 7 8 55 17 55 5 0 4 -13 -2 -30z m-1939 -117 c19 -35 20 -42 8 -52 -12
-10 -18 -4 -35 35 -12 25 -21 51 -21 56 0 21 26 -1 48 -39z m-88 -4 c19 -34 9
-44 -15 -16 -14 15 -25 32 -25 37 0 15 30 -1 40 -21z m1946 -63 c-8 -43 -23
-39 -32 9 -8 43 3 63 23 42 11 -11 14 -25 9 -51z m-1506 39 c4 2 15 -4 24 -14
26 -29 9 -271 -25 -355 -13 -33 -29 -61 -35 -63 -12 -4 -44 65 -44 93 0 8 9
28 21 43 30 40 38 175 15 250 -9 30 -16 56 -16 58 0 1 12 -2 26 -7 14 -6 29
-8 34 -5z m-162 -7 c16 -16 16 -88 0 -88 -16 0 -68 50 -68 65 0 7 10 17 23 23
29 14 31 14 45 0z m-628 -17 c0 -6 -4 -13 -10 -16 -5 -3 -10 1 -10 9 0 9 5 16
10 16 6 0 10 -4 10 -9z m2110 -13 c0 -13 -5 -30 -10 -38 -8 -13 -11 -12 -24 5
-20 26 -20 36 -1 29 11 -5 13 -2 9 10 -4 11 -1 16 10 16 10 0 16 -8 16 -22z
m-203 -44 l23 -35 -26 -9 c-37 -14 -70 -12 -84 5 -9 11 -9 15 -1 15 7 0 10 4
7 8 -7 11 31 52 47 52 7 -1 22 -17 34 -36z m-1539 -14 c26 -18 42 -38 42 -50
0 -11 9 -45 19 -75 23 -65 14 -70 -50 -29 l-41 25 5 56 c4 45 2 58 -14 74 -40
40 -16 39 39 -1z m187 -8 c55 -42 73 -79 82 -173 6 -56 -18 -159 -37 -159 -5
0 -21 21 -36 48 -23 39 -29 63 -34 142 -4 78 -10 101 -29 127 -21 28 -22 53
-3 53 4 0 30 -17 57 -38z m145 -43 c0 -37 -4 -58 -10 -54 -16 10 -11 115 6
115 2 0 4 -27 4 -61z m1500 29 c0 -16 -3 -19 -11 -11 -6 6 -8 16 -5 22 11 17
16 13 16 -11z m-2037 -26 c21 -23 13 -32 -28 -32 -39 0 -47 7 -34 31 12 24 41
24 62 1z m1916 -9 c28 -23 46 -125 30 -165 -9 -22 -23 -31 -68 -44 -31 -9 -69
-22 -85 -30 -16 -8 -31 -12 -34 -10 -7 8 -5 170 3 195 3 11 15 21 25 21 10 0
20 3 22 8 6 13 52 41 69 41 9 1 26 -7 38 -16z m-4391 -9 c12 -4 25 -17 28 -30
3 -13 15 -41 25 -61 10 -21 19 -52 19 -70 0 -37 -16 -42 -67 -22 -33 12 -43
26 -43 59 0 14 -7 38 -15 54 -33 62 -14 87 53 70z m4551 -125 c6 -27 11 -57
11 -66 0 -14 -2 -14 -19 1 -20 18 -41 87 -41 133 l1 28 19 -23 c10 -12 23 -45
29 -73z m-450 55 c-6 -8 -22 -14 -35 -14 -34 0 -31 28 4 32 36 5 46 -1 31 -18z
m83 -41 c4 -49 -2 -113 -11 -113 -3 0 -12 25 -19 55 -10 44 -10 58 0 75 19 29
26 25 30 -17z m-176 -15 c10 -11 -24 -64 -70 -106 -41 -38 -49 -41 -95 -39
-55 2 -70 22 -26 33 19 5 25 13 25 34 0 21 12 39 45 68 43 38 47 39 80 28 19
-7 37 -15 41 -18z m98 -24 c10 -4 16 -18 16 -39 0 -29 -7 -37 -50 -65 -28 -18
-58 -33 -68 -34 -26 -2 -28 40 -3 56 12 7 21 18 21 24 0 13 49 64 61 64 4 0
14 -3 23 -6z m-344 -81 c-1 -24 -3 -26 -13 -13 -7 8 -18 15 -24 16 -37 3 -43
5 -43 14 0 6 18 10 40 10 37 0 40 -2 40 -27z m722 -41 c19 -21 51 -51 71 -66
20 -15 49 -54 66 -86 36 -69 36 -70 15 -70 -9 0 -14 -6 -11 -12 19 -52 18 -58
-7 -69 -28 -13 -70 -4 -47 10 10 7 10 10 1 16 -7 4 -15 3 -19 -3 -9 -15 -61
-8 -72 9 -5 8 -9 9 -9 4 0 -12 -40 -13 -58 -1 -7 4 -12 1 -12 -7 0 -19 -72
-29 -150 -20 -62 6 -67 11 -50 43 5 10 10 46 11 81 1 53 7 69 38 114 34 50 41
54 106 73 94 26 88 27 127 -16z m-331 -9 c-8 -15 -10 -15 -11 -2 0 17 10 32
18 25 2 -3 -1 -13 -7 -23z m-1141 -97 c-1 -56 -2 -59 -15 -42 -19 26 -29 79
-20 113 6 27 7 27 21 9 8 -12 14 -43 14 -80z m1057 18 c-9 -9 -28 6 -21 18 4
6 10 6 17 -1 6 -6 8 -13 4 -17z m-114 0 c6 -6 -16 -34 -27 -34 -3 0 -6 9 -6
20 0 19 20 27 33 14z m223 -111 c-2 -10 -10 -38 -17 -63 -19 -68 -22 -70 -110
-70 l-79 0 0 40 c0 26 4 40 13 40 7 0 22 8 33 18 24 22 26 23 64 12 24 -7 32
-6 37 6 4 12 8 13 13 4 9 -15 30 -4 30 16 0 8 5 14 11 14 6 0 8 -8 5 -17z
m-254 -83 c-3 -51 -8 -59 -30 -53 -15 3 -21 15 -24 44 -4 47 -4 48 30 45 24
-2 27 -6 24 -36z m4255 -32 c-3 -8 -6 -5 -6 6 -1 11 2 17 5 13 3 -3 4 -12 1
-19z m-447 -8 c0 -5 -5 -10 -11 -10 -5 0 -7 5 -4 10 3 6 8 10 11 10 2 0 4 -4
4 -10z"/>
<path d="M6820 1960 c0 -5 5 -10 11 -10 5 0 7 5 4 10 -3 6 -8 10 -11 10 -2 0
-4 -4 -4 -10z"/>
<path d="M5205 3190 c4 -6 11 -8 16 -5 14 9 11 15 -7 15 -8 0 -12 -5 -9 -10z"/>
</g>
</svg>
