<?xml version="1.0" standalone="no"?>
<!DOCTYPE svg PUBLIC "-//W3C//DTD SVG 20010904//EN"
 "http://www.w3.org/TR/2001/REC-SVG-20010904/DTD/svg10.dtd">
<svg version="1.0" xmlns="http://www.w3.org/2000/svg"
 width="1280.000000pt" height="1056.000000pt" viewBox="0 0 1280.000000 1056.000000"
 preserveAspectRatio="xMidYMid meet">
<metadata>
Created by potrace 1.15, written by Peter Selinger 2001-2017
</metadata>
<g transform="translate(0.000000,1056.000000) scale(0.100000,-0.100000)"
fill="#000000" stroke="none">
<path d="M5660 9673 c-41 -2 -79 -8 -85 -13 -5 -4 -71 -11 -145 -15 -74 -4
-139 -11 -145 -15 -5 -4 -59 -10 -120 -14 -60 -4 -114 -11 -120 -16 -5 -4 -32
-11 -60 -15 -27 -4 -54 -11 -60 -15 -5 -5 -32 -11 -60 -15 -27 -4 -54 -11 -60
-15 -5 -5 -32 -11 -60 -15 -27 -4 -54 -11 -60 -15 -5 -4 -34 -11 -62 -15 -29
-4 -55 -10 -58 -15 -3 -4 -29 -11 -60 -15 -30 -3 -57 -10 -60 -15 -2 -4 -29
-11 -60 -15 -30 -3 -57 -10 -60 -15 -2 -4 -29 -11 -60 -15 -30 -3 -57 -10 -60
-15 -2 -4 -29 -11 -60 -15 -30 -3 -57 -11 -60 -16 -4 -5 -14 -9 -23 -9 -9 0
-43 -13 -74 -29 -32 -16 -71 -32 -88 -36 -16 -4 -30 -10 -30 -15 0 -5 -13 -11
-30 -15 -29 -6 -99 -38 -202 -91 -27 -13 -54 -24 -60 -24 -7 0 -40 -13 -73
-29 -129 -62 -171 -81 -179 -81 -5 0 -38 -14 -75 -31 -126 -59 -148 -69 -156
-69 -9 0 -136 -63 -169 -83 -11 -7 -35 -29 -54 -49 -19 -21 -39 -38 -44 -38
-6 0 -43 -29 -83 -65 -40 -36 -76 -65 -80 -65 -4 0 -44 -34 -90 -75 -45 -41
-86 -75 -90 -75 -8 0 -71 -53 -131 -110 -17 -17 -35 -30 -39 -30 -22 0 -225
-202 -225 -224 0 -4 -11 -19 -25 -34 -27 -30 -97 -114 -135 -163 -14 -18 -40
-49 -57 -69 -18 -21 -33 -41 -33 -46 0 -5 -13 -22 -29 -39 -50 -50 -101 -112
-101 -121 0 -5 -11 -20 -25 -34 -48 -49 -95 -108 -95 -118 0 -6 -3 -12 -8 -14
-17 -7 -80 -97 -104 -148 -14 -30 -35 -76 -47 -101 -11 -25 -21 -50 -21 -55 0
-5 -12 -34 -26 -64 -14 -30 -36 -77 -49 -105 -12 -27 -32 -71 -44 -96 -11 -25
-21 -52 -21 -60 0 -8 -7 -23 -15 -33 -8 -11 -15 -30 -15 -43 0 -13 -4 -23 -9
-23 -5 0 -12 -13 -16 -30 -4 -16 -11 -30 -16 -30 -5 0 -9 -8 -9 -18 0 -9 -9
-34 -20 -55 -11 -20 -20 -46 -20 -57 0 -11 -4 -20 -9 -20 -5 0 -12 -13 -16
-30 -4 -16 -11 -30 -16 -30 -5 0 -9 -8 -9 -17 -1 -10 -9 -36 -20 -58 -11 -22
-19 -48 -20 -57 0 -10 -4 -18 -9 -18 -5 0 -12 -13 -16 -30 -4 -16 -10 -30 -15
-30 -4 0 -11 -21 -15 -47 -4 -27 -10 -52 -15 -58 -4 -5 -11 -31 -14 -57 -4
-26 -11 -50 -15 -53 -5 -2 -12 -25 -15 -50 -4 -24 -11 -47 -15 -50 -5 -2 -12
-29 -16 -60 -3 -30 -10 -57 -15 -60 -5 -3 -12 -27 -16 -53 -3 -26 -10 -51 -14
-57 -5 -5 -11 -31 -15 -57 -4 -27 -11 -48 -15 -48 -4 0 -10 -22 -14 -50 -4
-27 -10 -52 -15 -54 -5 -3 -12 -30 -16 -61 -3 -30 -11 -57 -16 -60 -12 -8 -12
-102 0 -109 5 -3 12 -71 16 -152 l7 -145 57 7 c31 3 61 10 66 14 6 4 39 11 75
15 36 4 70 11 76 16 6 5 39 12 73 15 33 4 61 10 61 14 0 4 33 11 73 15 39 3
77 10 82 15 6 4 36 11 67 14 32 4 60 11 63 16 3 5 34 12 70 15 36 4 67 11 70
15 3 5 29 11 58 15 28 4 57 11 62 15 6 4 38 11 73 15 34 4 62 10 62 15 0 4 29
11 65 15 36 3 67 10 70 15 3 5 34 12 70 15 36 4 65 11 65 15 0 5 27 11 60 15
33 4 63 11 66 16 3 5 14 9 26 9 19 0 50 12 123 45 17 8 43 17 59 21 16 4 41
13 55 20 14 8 31 14 38 14 6 0 24 6 40 14 15 8 49 24 76 35 43 19 47 24 47 55
0 19 4 37 9 40 4 3 12 60 16 126 4 66 10 122 15 125 4 3 11 66 15 140 4 74 11
135 15 135 4 0 11 55 15 123 4 67 11 127 15 132 4 6 11 64 15 130 4 66 10 125
15 130 4 6 10 50 13 99 4 49 8 90 10 92 2 3 55 7 118 11 63 3 119 9 124 13 6
4 81 11 168 15 86 4 159 11 162 15 3 4 73 11 157 15 84 4 158 11 163 15 6 4
80 11 165 15 85 4 160 11 165 15 6 5 161 12 345 16 184 3 340 10 345 14 6 4
190 11 410 15 220 4 405 11 410 15 6 4 92 10 193 13 101 3 189 10 195 15 7 6
67 13 135 17 67 4 125 12 128 16 3 5 32 9 64 9 32 0 62 5 65 11 4 6 29 9 56 8
27 -2 52 0 55 4 4 4 36 7 70 7 35 0 65 4 68 9 3 5 62 12 131 16 69 4 127 11
130 15 3 4 55 11 117 15 62 4 118 11 123 15 6 4 64 11 130 15 66 4 125 11 131
16 17 14 308 21 484 12 l155 -8 3 -33 c2 -18 -2 -39 -8 -47 -7 -8 -10 -40 -9
-74 1 -34 -1 -64 -4 -68 -4 -3 -7 -38 -7 -78 0 -39 -4 -75 -9 -81 -5 -5 -13
-76 -16 -159 -4 -82 -11 -154 -15 -160 -5 -5 -11 -74 -15 -153 -4 -78 -11
-145 -15 -147 -4 -3 -11 -70 -15 -150 -4 -80 -11 -148 -16 -151 -12 -7 -12
-147 0 -159 5 -6 11 -26 13 -45 3 -35 3 -35 56 -36 28 -1 55 2 58 7 3 5 52 9
109 9 57 0 106 4 109 9 3 5 98 12 211 16 113 4 207 11 210 15 3 4 99 11 215
15 115 4 210 11 210 16 0 5 72 9 160 9 l161 0 -1 206 c-1 113 1 208 4 212 8 7
8 477 0 485 -4 3 -7 34 -6 67 0 33 -4 63 -9 66 -5 3 -9 34 -9 69 0 35 -5 67
-11 70 -6 4 -9 32 -8 66 1 32 -1 62 -4 66 -4 3 -7 35 -7 69 0 35 -4 65 -9 68
-4 3 -11 40 -15 82 -3 42 -10 82 -15 88 -5 6 -12 39 -16 74 -4 34 -10 62 -15
62 -4 0 -11 28 -14 61 -4 34 -13 70 -19 80 -10 17 -6 24 33 59 25 21 49 39 53
40 5 0 37 24 70 53 67 56 88 71 127 88 14 6 32 15 41 19 9 5 33 12 53 15 20 4
39 11 41 16 3 4 26 11 50 15 25 3 45 10 45 15 0 4 20 11 45 15 25 3 45 10 45
15 0 4 20 11 45 15 25 3 45 10 45 14 0 5 44 11 98 15 53 3 104 10 113 14 9 5
66 12 128 16 61 4 114 12 117 16 7 12 61 12 68 0 3 -5 18 -12 33 -15 16 -4 42
-13 58 -21 63 -29 103 -45 113 -45 6 0 23 -6 39 -14 40 -21 100 -46 108 -46 4
0 25 -18 46 -40 22 -22 43 -40 47 -40 12 0 72 -64 72 -78 0 -7 4 -12 9 -12 5
0 12 -13 16 -30 4 -16 11 -30 16 -30 5 0 9 -9 9 -20 0 -11 14 -46 30 -77 30
-56 30 -56 30 -228 l0 -172 -61 -7 c-34 -3 -84 -6 -110 -6 -26 0 -51 -4 -54
-10 -3 -5 -27 -10 -52 -10 -41 0 -63 -7 -148 -45 -16 -8 -41 -17 -55 -20 -14
-4 -41 -14 -60 -23 -19 -9 -39 -16 -45 -17 -5 0 -32 -11 -60 -23 -81 -37 -89
-40 -115 -47 -47 -13 -112 -48 -117 -64 -4 -9 -12 -23 -19 -31 -45 -51 -74
-89 -74 -95 0 -5 -7 -15 -15 -24 -31 -33 -75 -89 -75 -94 0 -3 -11 -18 -25
-33 -14 -15 -28 -39 -32 -53 -3 -14 -9 -30 -13 -36 -4 -5 -11 -37 -15 -70 -4
-33 -12 -66 -18 -74 -16 -19 -16 -372 -1 -392 6 -8 15 -35 18 -61 4 -27 11
-48 17 -48 5 0 9 -6 9 -12 0 -15 54 -124 71 -145 6 -7 8 -13 5 -13 -16 0 36
-59 57 -66 12 -4 34 -15 50 -26 15 -11 27 -16 27 -13 0 3 13 -3 29 -14 30 -22
95 -28 106 -11 3 6 32 10 64 10 32 0 61 3 64 6 3 4 26 8 49 10 71 5 128 16
134 25 3 5 13 9 22 9 10 0 50 29 89 65 39 36 74 65 78 65 4 0 49 38 100 85 51
47 97 85 102 85 14 0 47 40 65 80 32 69 48 108 48 119 0 11 4 20 33 79 9 19
17 39 17 45 0 7 6 24 14 39 8 15 17 40 21 57 4 17 10 31 15 31 4 0 11 20 14
45 4 25 11 45 16 45 5 0 11 14 15 30 4 17 13 44 22 60 13 28 17 30 56 24 23
-4 46 -10 52 -15 5 -5 16 -9 25 -9 8 0 24 -19 35 -43 10 -23 28 -55 39 -71 11
-16 35 -59 54 -95 l35 -66 0 -292 c1 -190 -3 -296 -10 -305 -6 -7 -13 -74 -17
-148 -4 -74 -11 -136 -16 -138 -6 -2 -10 -8 -10 -13 0 -11 -69 -103 -81 -107
-5 -2 -9 -10 -9 -18 0 -11 -9 -13 -42 -8 -24 4 -45 10 -48 15 -3 4 -31 10 -62
14 -32 4 -58 11 -58 15 0 4 -26 11 -57 15 -32 4 -64 12 -72 18 -17 14 -331 12
-340 -2 -4 -4 -62 -11 -131 -14 -116 -6 -130 -9 -191 -40 -36 -19 -79 -42 -95
-53 -16 -11 -54 -32 -85 -47 -43 -20 -73 -46 -125 -107 -38 -44 -106 -123
-151 -175 -46 -51 -83 -97 -83 -100 0 -4 -27 -37 -60 -73 -59 -65 -60 -68 -60
-124 0 -31 -4 -60 -10 -63 -24 -15 -9 -83 38 -173 126 -246 120 -236 166 -257
32 -15 50 -26 101 -60 17 -12 41 -26 55 -33 14 -7 43 -23 65 -37 36 -22 51
-24 155 -24 l115 -1 89 45 c50 25 97 51 105 58 9 7 51 31 94 52 43 22 90 47
105 56 15 8 45 25 67 38 22 12 58 33 80 46 22 14 47 28 55 32 8 3 17 9 20 12
8 9 40 28 98 57 28 15 52 31 52 35 0 4 14 10 30 14 17 4 30 11 30 16 0 4 20
18 45 29 25 11 45 24 45 29 0 14 51 23 65 11 7 -6 16 -34 20 -63 4 -29 11 -57
16 -63 14 -17 16 -488 3 -505 -7 -8 -15 -30 -19 -49 -4 -19 -11 -39 -15 -45
-4 -5 -11 -31 -14 -57 -4 -26 -11 -50 -15 -53 -5 -2 -12 -25 -15 -50 -4 -24
-11 -47 -17 -50 -5 -4 -9 -19 -9 -35 0 -16 -4 -31 -9 -34 -5 -3 -12 -23 -16
-43 -4 -21 -10 -42 -14 -48 -5 -5 -11 -25 -15 -44 -3 -19 -16 -48 -29 -65 -12
-17 -28 -42 -35 -56 -7 -14 -21 -38 -32 -55 -11 -16 -23 -38 -26 -47 -4 -10
-10 -18 -14 -18 -5 0 -19 -20 -31 -45 -12 -25 -26 -45 -31 -45 -4 0 -8 -5 -8
-10 0 -11 -39 -70 -52 -80 -3 -3 -10 -18 -13 -33 -4 -15 -11 -27 -16 -27 -5 0
-14 -11 -19 -25 -5 -14 -21 -30 -35 -35 -14 -5 -25 -14 -25 -19 0 -5 -8 -11
-17 -15 -22 -7 -46 -22 -94 -59 -20 -15 -40 -27 -44 -27 -4 0 -24 -13 -45 -30
-21 -17 -41 -30 -45 -30 -3 0 -21 -11 -39 -25 -18 -14 -48 -28 -67 -31 -19 -4
-38 -10 -44 -14 -5 -4 -31 -11 -57 -14 -26 -4 -50 -11 -53 -16 -3 -5 -30 -12
-60 -15 -31 -4 -58 -11 -61 -16 -2 -5 -27 -11 -54 -15 -28 -4 -50 -10 -50 -15
0 -4 -21 -11 -47 -15 -27 -3 -52 -10 -58 -14 -5 -5 -31 -11 -57 -15 -27 -4
-48 -11 -48 -15 0 -4 -27 -11 -60 -15 -33 -4 -60 -11 -60 -16 0 -13 -327 -12
-335 1 -4 6 -68 10 -161 10 -146 0 -154 1 -154 19 0 11 -4 22 -9 25 -5 3 -12
51 -16 106 -4 55 -11 102 -15 105 -4 3 -11 50 -15 105 -4 55 -11 102 -15 105
-4 3 -11 50 -15 105 -4 55 -11 102 -15 105 -4 3 -11 47 -15 97 -4 51 -11 98
-15 103 -4 6 -11 53 -15 105 -4 52 -11 100 -15 105 -4 6 -11 53 -15 105 -4 52
-11 100 -15 105 -4 6 -10 42 -14 80 -5 62 -16 91 -101 259 -52 103 -99 194
-104 200 -6 7 -51 93 -101 191 -83 165 -129 235 -153 235 -5 0 -27 18 -48 40
-22 22 -43 40 -47 40 -4 0 -28 20 -52 45 -24 25 -48 45 -54 45 -5 0 -23 13
-40 29 -68 65 -133 121 -141 121 -4 0 -23 14 -42 30 -18 17 -42 30 -53 30 -10
0 -22 5 -25 10 -3 6 -14 10 -23 10 -9 0 -29 6 -44 14 -15 8 -42 17 -60 21 -18
4 -37 11 -43 15 -5 4 -26 11 -45 15 -19 4 -41 11 -50 15 -63 30 -89 40 -115
46 -16 4 -34 10 -40 14 -5 4 -25 11 -43 15 -18 4 -45 13 -60 21 -15 8 -35 14
-44 14 -9 0 -19 4 -22 9 -4 5 -24 12 -46 16 -22 4 -42 10 -45 15 -3 4 -20 11
-39 14 -20 4 -48 13 -63 21 -15 8 -36 15 -45 15 -10 0 -18 4 -18 9 0 5 -12 11
-27 13 l-28 3 4 75 c2 41 7 80 11 85 4 6 11 54 15 108 4 53 11 100 15 102 5 3
12 55 15 115 4 61 11 110 15 110 4 0 11 47 15 105 4 58 10 107 15 110 4 3 11
49 15 102 4 54 11 103 17 110 5 7 8 22 6 35 -3 21 -9 24 -78 29 -41 4 -125 7
-187 8 -61 0 -113 5 -115 9 -1 5 -89 12 -193 15 l-190 7 -12 -28 c-7 -15 -15
-40 -19 -57 -4 -16 -10 -34 -14 -40 -4 -5 -11 -26 -15 -45 -4 -19 -11 -41 -15
-50 -30 -63 -40 -89 -46 -115 -4 -16 -10 -34 -14 -40 -5 -5 -11 -27 -15 -48
-4 -20 -11 -39 -15 -42 -5 -3 -11 -23 -15 -45 -4 -22 -10 -42 -15 -45 -5 -3
-11 -23 -15 -45 -4 -22 -11 -42 -15 -45 -5 -3 -12 -26 -16 -50 -3 -25 -10 -45
-15 -45 -5 0 -9 -8 -9 -17 0 -10 -6 -30 -14 -45 -8 -15 -17 -42 -21 -60 -4
-18 -11 -37 -15 -43 -4 -5 -11 -26 -15 -45 -4 -19 -12 -43 -18 -55 -5 -11 -13
-27 -17 -35 -8 -17 -76 -26 -93 -12 -7 6 -102 13 -212 17 -110 4 -204 11 -210
15 -5 4 -101 11 -213 15 -111 4 -204 11 -207 15 -3 4 -99 11 -215 15 -116 4
-212 11 -215 15 -3 4 -97 11 -210 15 -113 4 -208 11 -211 16 -3 5 -40 9 -83 9
-43 0 -112 3 -155 6 l-76 7 6 111 c4 61 10 116 14 121 4 6 11 79 15 163 4 83
11 152 15 152 4 0 10 69 14 153 4 83 12 157 18 164 5 6 8 29 6 50 l-3 38 -110
6 c-60 4 -192 7 -292 8 -109 0 -184 5 -188 11 -3 6 -50 10 -106 10 l-99 0 0
-537 c-1 -579 1 -565 -53 -578 -15 -4 -27 -11 -27 -15 0 -5 -14 -12 -32 -15
-17 -4 -51 -18 -76 -31 -25 -13 -49 -24 -55 -24 -5 0 -39 -14 -76 -31 -128
-60 -148 -69 -158 -69 -6 0 -35 -14 -66 -30 -31 -16 -65 -30 -76 -30 -11 0
-21 -3 -23 -7 -1 -5 -21 -17 -43 -28 -22 -10 -59 -34 -82 -52 -23 -18 -45 -33
-48 -33 -7 0 -43 -30 -111 -91 -12 -10 -26 -19 -31 -19 -5 0 -22 -13 -38 -30
-16 -16 -34 -30 -39 -30 -6 -1 -22 -14 -36 -30 -13 -17 -28 -30 -33 -30 -9 0
-56 -37 -109 -85 -15 -14 -31 -25 -36 -25 -5 0 -17 -9 -27 -20 -10 -11 -22
-20 -27 -20 -15 0 -48 -39 -70 -83 -12 -23 -29 -51 -38 -62 -10 -11 -24 -32
-31 -47 -8 -14 -25 -48 -39 -75 -13 -26 -34 -61 -45 -78 -32 -47 -44 -68 -57
-95 -7 -14 -21 -38 -32 -55 -23 -33 -38 -60 -76 -132 -13 -26 -34 -61 -45 -78
-51 -77 -111 -194 -120 -238 -4 -18 -11 -36 -15 -42 -4 -5 -11 -26 -15 -45 -4
-19 -11 -41 -15 -50 -30 -63 -40 -89 -46 -115 -4 -16 -10 -34 -14 -40 -4 -5
-11 -26 -15 -45 -4 -19 -11 -39 -15 -45 -4 -5 -11 -30 -15 -55 -4 -25 -11 -49
-15 -55 -4 -5 -11 -34 -15 -62 -4 -29 -10 -55 -15 -58 -4 -3 -11 -29 -15 -60
-3 -30 -11 -57 -16 -60 -5 -4 -9 -19 -9 -35 0 -16 -4 -31 -9 -34 -5 -3 -7 -15
-4 -25 3 -10 0 -22 -6 -25 -6 -4 -11 -20 -11 -36 0 -16 -4 -31 -9 -35 -5 -3
-13 -30 -16 -60 -4 -31 -11 -57 -15 -60 -5 -3 -11 -29 -15 -58 -4 -28 -11 -56
-15 -62 -4 -5 -11 -45 -15 -87 -4 -43 -11 -78 -15 -78 -4 0 -11 -40 -15 -90
-4 -49 -11 -90 -15 -90 -4 0 -11 -36 -15 -80 -4 -44 -11 -82 -15 -85 -5 -3
-12 -41 -16 -85 -3 -44 -11 -83 -15 -86 -12 -7 -12 -151 0 -158 5 -3 12 -121
16 -261 4 -140 11 -255 15 -255 4 0 11 -115 15 -255 4 -140 11 -258 16 -261 5
-3 9 -34 9 -70 l0 -64 668 6 c367 3 676 9 687 14 11 5 172 11 358 13 228 3
342 8 350 16 6 6 48 11 97 11 48 0 90 3 93 6 4 4 42 6 86 5 47 -1 82 2 86 8 3
7 43 11 95 11 52 0 92 4 95 11 4 6 40 9 91 8 47 -1 87 1 91 5 3 3 44 6 89 6
46 0 85 4 88 9 3 5 87 12 186 16 99 4 182 11 185 15 3 4 84 11 180 15 96 4
177 11 180 15 3 4 82 11 177 15 95 4 178 11 183 15 6 4 88 11 183 15 95 4 174
11 177 15 3 4 86 11 185 15 99 4 182 11 185 15 3 4 84 11 180 15 96 4 177 11
180 15 3 4 82 11 177 15 95 4 178 11 183 15 6 4 87 11 180 15 94 4 175 11 180
15 6 4 72 11 148 15 75 4 139 11 142 15 2 4 68 11 145 15 77 4 142 10 145 15
3 4 63 11 135 15 72 4 132 11 135 15 3 4 68 11 145 15 77 4 140 11 140 15 0 4
63 11 140 15 77 4 142 11 145 15 3 4 66 11 140 15 74 4 135 11 135 15 0 4 62
11 138 15 75 4 142 11 147 15 6 4 53 10 105 14 52 3 98 10 102 14 5 5 11 53
15 108 3 54 9 104 13 109 4 6 11 72 15 148 4 75 11 140 15 142 5 3 11 68 15
145 4 77 12 143 16 146 5 3 9 16 9 30 l0 24 462 0 461 0 316 156 c251 125 326
166 364 203 26 25 47 50 47 56 0 6 36 46 80 90 44 44 80 82 80 86 0 4 38 44
85 90 47 45 85 87 85 92 0 5 58 70 130 145 79 83 132 147 135 164 4 16 11 28
16 28 5 0 9 8 9 18 0 9 9 34 20 55 11 20 20 46 20 57 0 11 4 20 9 20 5 0 13
15 16 32 4 18 14 42 21 53 8 11 14 30 14 42 0 13 4 23 9 23 5 0 12 13 16 30 4
16 11 30 16 30 5 0 9 10 9 23 0 12 6 31 14 42 7 11 17 35 21 52 3 18 11 33 16
33 5 0 9 10 9 23 0 13 7 32 15 43 8 10 15 25 15 33 0 8 9 32 19 55 52 111 52
114 45 189 -3 39 -10 77 -14 82 -4 6 -11 51 -15 100 -4 50 -11 95 -15 100 -4
6 -11 49 -15 97 -4 49 -10 90 -15 93 -4 2 -11 48 -15 100 -4 52 -11 97 -15
100 -5 3 -11 43 -15 90 -4 47 -11 88 -16 91 -12 7 -12 51 0 58 5 3 12 30 16
61 3 30 10 57 15 60 4 2 11 29 15 60 3 30 10 57 15 60 4 2 11 29 15 60 3 30
10 57 15 60 4 2 11 29 15 60 3 30 10 57 15 60 4 2 11 29 15 60 3 30 10 57 15
60 4 2 11 29 15 60 3 30 10 57 14 60 5 2 12 159 16 347 l7 343 -27 50 c-15 28
-39 73 -54 101 -15 28 -36 64 -47 80 -11 16 -30 49 -43 74 -35 69 -71 133 -84
150 -7 8 -21 33 -32 55 -21 45 -54 85 -68 85 -5 0 -35 22 -67 50 -31 27 -59
47 -62 45 -15 -15 -29 34 -35 119 -3 53 -10 99 -15 102 -4 3 -8 38 -8 78 0 40
-3 76 -6 79 -4 3 -7 34 -6 67 0 33 -4 63 -9 66 -5 3 -9 22 -9 42 0 20 -11 59
-24 87 -52 111 -66 143 -66 151 0 5 -12 32 -26 61 -19 36 -61 84 -140 157 -62
58 -116 106 -121 106 -5 0 -22 13 -37 29 -26 27 -141 91 -163 91 -6 0 -36 14
-67 30 l-56 30 -183 -6 c-100 -4 -186 -10 -192 -14 -5 -4 -50 -10 -99 -13 -49
-4 -92 -10 -95 -16 -3 -5 -32 -12 -64 -16 -31 -4 -60 -11 -62 -15 -3 -5 -30
-12 -60 -15 -31 -4 -58 -11 -60 -15 -3 -5 -30 -12 -60 -15 -31 -4 -58 -11 -60
-15 -3 -5 -30 -12 -60 -15 -31 -4 -58 -11 -60 -15 -3 -5 -30 -12 -60 -15 -31
-4 -57 -11 -60 -15 -3 -5 -29 -11 -58 -15 -28 -4 -56 -11 -62 -15 -5 -4 -32
-11 -60 -15 -27 -4 -54 -10 -60 -15 -5 -4 -32 -11 -60 -15 -27 -4 -54 -10 -60
-15 -5 -4 -31 -10 -56 -14 l-46 -7 -67 133 c-220 432 -235 458 -258 458 -5 0
-29 16 -52 35 -24 19 -46 35 -50 35 -4 0 -29 18 -55 40 -26 22 -51 40 -56 40
-4 0 -32 20 -61 45 -28 25 -56 45 -60 45 -4 0 -26 16 -50 35 -23 19 -46 35
-50 35 -4 0 -29 18 -55 40 -26 22 -51 40 -55 40 -4 0 -26 16 -50 35 -23 19
-46 35 -50 35 -4 0 -29 18 -55 40 -26 22 -50 40 -54 40 -4 0 -28 18 -54 40
-26 22 -51 40 -55 40 -4 0 -27 16 -50 35 -24 19 -48 35 -53 35 -5 0 -18 9 -29
21 -22 25 -82 55 -127 64 -18 4 -36 11 -42 15 -5 4 -26 11 -45 15 -19 4 -39
11 -45 15 -5 4 -25 11 -42 15 -18 3 -33 10 -33 15 0 4 -20 11 -45 14 -25 4
-45 11 -45 15 0 5 -20 12 -45 15 -25 4 -45 11 -45 15 0 5 -20 12 -45 15 -25 4
-45 11 -45 16 0 5 -30 11 -67 15 -38 3 -75 10 -84 14 -8 5 -51 12 -95 16 -43
4 -83 11 -89 15 -5 4 -46 11 -90 15 -44 4 -84 11 -90 15 -11 9 -883 20 -1005
13z m5484 -2855 c-3 -40 -10 -77 -14 -83 -4 -5 -11 -49 -15 -97 -4 -49 -11
-90 -16 -94 -5 -3 -9 -20 -9 -37 0 -18 -20 -71 -44 -119 -25 -48 -47 -101 -51
-118 -4 -16 -10 -30 -15 -30 -5 0 -11 -13 -15 -30 -4 -16 -10 -30 -15 -30 -5
0 -11 -13 -15 -30 -4 -16 -10 -30 -15 -30 -4 0 -10 -9 -13 -19 -3 -13 -38 -36
-98 -66 -98 -47 -130 -65 -139 -77 -3 -3 -18 -10 -33 -13 -15 -4 -27 -11 -27
-15 0 -4 -12 -11 -27 -15 -15 -3 -31 -12 -35 -18 -9 -14 -122 -13 -152 2 -12
5 -42 12 -68 16 -32 4 -48 11 -48 21 0 8 -4 14 -9 14 -5 0 -12 27 -16 60 -4
33 -11 62 -15 65 -5 3 -11 24 -15 48 -4 23 -12 48 -18 55 -14 17 -14 166 0
184 6 7 14 39 17 70 4 32 12 60 17 63 5 4 9 14 9 24 0 16 149 161 166 161 3 0
24 16 45 35 22 19 44 35 50 35 6 0 28 12 48 28 57 43 97 62 128 62 16 0 33 4
39 10 5 5 75 12 157 16 81 4 147 11 147 16 0 4 27 8 61 8 l60 0 -7 -72z m-190
-1717 c3 -4 29 -11 58 -15 29 -4 57 -11 63 -15 5 -5 30 -11 55 -15 81 -12 99
-25 106 -76 4 -25 12 -51 18 -59 14 -18 13 -176 -1 -193 -6 -7 -14 -32 -18
-55 -5 -34 -16 -50 -55 -83 -26 -22 -51 -40 -55 -40 -4 0 -38 -27 -75 -60 -37
-33 -71 -60 -74 -60 -4 0 -26 -16 -49 -35 -41 -34 -112 -75 -130 -75 -10 0
-67 -24 -110 -46 -31 -15 -103 -19 -111 -6 -3 5 -42 12 -87 15 -45 4 -87 11
-93 16 -6 5 -36 13 -66 16 -30 4 -62 9 -70 13 -8 3 -35 11 -60 16 -35 9 -48
18 -60 41 -8 17 -24 44 -35 60 -12 17 -30 47 -40 68 -11 20 -23 37 -26 37 -4
0 -10 12 -13 26 -6 21 0 33 32 65 22 21 43 39 48 39 4 0 44 35 89 78 91 86
216 200 286 262 33 28 55 40 77 40 17 0 33 4 36 9 3 5 62 12 131 16 69 4 128
11 131 16 7 12 91 12 98 0z"/>
</g>
</svg>
