<?xml version="1.0" standalone="no"?>
<!DOCTYPE svg PUBLIC "-//W3C//DTD SVG 20010904//EN"
 "http://www.w3.org/TR/2001/REC-SVG-20010904/DTD/svg10.dtd">
<svg version="1.0" xmlns="http://www.w3.org/2000/svg"
 width="1280.000000pt" height="853.000000pt" viewBox="0 0 1280.000000 853.000000"
 preserveAspectRatio="xMidYMid meet">
<metadata>
Created by potrace 1.15, written by Peter Selinger 2001-2017
</metadata>
<g transform="translate(0.000000,853.000000) scale(0.100000,-0.100000)"
fill="#9e9e9e" stroke="none">
<path d="M0 8435 l0 -95 58 6 c126 13 185 40 230 107 55 81 62 77 -123 77
l-165 0 0 -95z"/>
<path d="M592 8463 c66 -224 112 -362 134 -402 26 -49 94 -105 186 -154 46
-25 61 -28 121 -25 63 3 67 2 67 -17 0 -36 206 -686 256 -809 6 -15 4 -18 -9
-13 -14 5 -1160 633 -1294 709 l-53 29 0 -289 0 -290 43 -17 c38 -15 2218
-1015 2693 -1235 105 -49 216 -100 246 -113 l55 -25 58 119 c33 65 57 120 55
122 -3 3 -104 58 -225 124 -440 240 -802 437 -912 497 l-113 61 -36 115 c-48
152 -94 312 -94 327 0 7 5 13 10 13 10 0 305 -185 455 -286 44 -30 84 -55 88
-57 4 -1 17 -38 28 -82 28 -108 41 -130 102 -165 70 -40 120 -40 175 -1 l40
30 169 -109 c292 -188 422 -270 430 -270 7 0 29 31 136 191 l17 26 -377 279
c-207 153 -381 282 -386 286 -6 3 -16 41 -23 85 -16 97 -17 113 -4 113 6 0
104 -73 218 -163 554 -436 633 -497 640 -500 4 -1 49 45 99 103 51 58 117 133
149 168 l56 62 -240 248 c-132 136 -266 272 -296 302 -31 30 -56 57 -56 61 0
4 37 5 83 3 l82 -3 65 -69 c36 -38 116 -125 179 -193 63 -68 148 -159 188
-201 l73 -78 99 87 c84 74 98 89 88 103 -19 25 -395 492 -593 736 -98 121
-255 313 -347 427 l-168 207 -266 0 -266 0 24 -27 c24 -27 203 -220 434 -467
169 -181 164 -165 42 -159 l-102 6 -318 323 -319 324 -321 0 -322 -1 75 -69
c41 -38 182 -163 312 -277 l237 -208 -192 -7 c-299 -11 -676 -29 -740 -35
l-58 -6 36 53 c31 46 35 59 34 114 0 35 -18 141 -43 246 l-43 185 -290 3 -291
2 20 -67z m1591 -930 c12 -42 29 -154 25 -159 -9 -8 -199 138 -195 150 4 11
59 22 129 24 27 2 38 -2 41 -15z"/>
<path d="M2997 8518 c76 -98 1060 -1328 1073 -1341 17 -18 21 -16 123 59 l105
78 -111 162 c-62 90 -251 363 -420 608 l-308 446 -236 0 c-187 0 -233 -3 -226
-12z"/>
<path d="M3778 8453 c27 -43 136 -217 242 -388 106 -170 202 -326 215 -345 12
-19 61 -99 109 -176 l87 -142 122 70 c67 39 155 87 195 107 51 25 72 41 69 51
-2 8 -98 214 -212 458 l-208 442 -334 0 -333 0 48 -77z"/>
<path d="M4694 8513 c4 -10 43 -108 86 -218 44 -110 114 -289 157 -398 45
-115 82 -196 88 -193 64 24 287 100 346 118 l76 23 -91 342 -91 343 -289 0
c-270 0 -288 -1 -282 -17z"/>
<path d="M5824 8503 c7 -30 20 -132 37 -273 13 -116 38 -293 41 -295 2 -1 53
4 113 11 61 7 199 16 308 20 108 4 197 10 197 13 0 3 5 111 10 240 l9 234 37
38 38 39 -398 0 -398 0 6 -27z"/>
<path d="M6776 8508 c-5 -23 -46 -501 -46 -536 0 -16 15 -21 128 -34 70 -9
128 -15 130 -14 1 2 14 75 27 162 14 87 34 214 45 280 30 184 46 164 -130 164
-147 0 -150 0 -154 -22z"/>
<path d="M7196 8518 c70 -114 178 -269 198 -284 l26 -19 -45 -175 c-25 -96
-44 -178 -42 -183 4 -13 239 -80 247 -70 8 9 250 719 250 734 0 5 -133 9 -321
9 -253 0 -319 -3 -313 -12z"/>
<path d="M7855 8518 c-91 -258 -252 -745 -247 -750 17 -16 234 -90 241 -82 4
5 72 162 151 349 79 187 158 375 176 418 l33 77 -175 0 c-131 0 -176 -3 -179
-12z"/>
<path d="M8505 8303 c-318 -600 -286 -546 -330 -561 -102 -35 -116 -45 -141
-94 l-24 -48 52 -26 c29 -15 104 -56 167 -91 62 -35 114 -63 115 -61 1 2 15
24 31 49 27 45 32 47 99 62 39 9 74 13 78 9 4 -4 -19 -48 -52 -97 -33 -49 -56
-92 -52 -96 4 -3 39 -27 77 -54 39 -26 84 -58 100 -71 l30 -23 64 85 c35 46
67 84 72 84 12 0 17 -26 34 -180 l15 -135 92 -87 c50 -49 94 -88 98 -88 3 0
379 371 835 824 l830 825 -285 0 -285 1 -280 -322 c-280 -321 -435 -498 -504
-573 -20 -22 -83 -94 -141 -159 l-105 -120 -8 85 c-12 122 -56 454 -63 473
-11 30 -53 28 -222 -8 -92 -20 -170 -36 -175 -36 -4 0 16 37 45 83 47 75 114
183 294 475 l64 102 -203 0 -202 -1 -120 -226z"/>
<path d="M9070 8527 c0 -2 11 -64 24 -138 14 -74 33 -185 42 -247 14 -91 22
-121 44 -151 39 -53 89 -74 159 -69 51 5 58 8 98 53 68 78 69 81 49 293 -10
103 -20 204 -23 225 l-6 37 -193 0 c-107 0 -194 -2 -194 -3z"/>
<path d="M11073 8517 c-4 -8 -210 -198 -458 -422 -247 -225 -646 -587 -885
-804 -477 -433 -582 -531 -578 -542 2 -5 39 -51 82 -103 l79 -95 72 57 c40 31
126 100 191 152 66 53 133 106 151 119 l31 24 154 -22 c184 -27 198 -30 198
-45 0 -6 -44 -40 -98 -75 -113 -75 -543 -370 -556 -382 -5 -4 21 -54 58 -111
36 -56 67 -107 69 -112 3 -10 141 68 527 298 96 57 179 100 184 96 4 -5 -9
-68 -31 -141 l-39 -134 -266 -140 c-147 -77 -269 -143 -273 -146 -3 -4 20 -59
52 -122 l58 -116 225 99 c167 73 229 96 242 89 55 -30 165 12 201 76 21 36 35
44 237 132 118 52 284 126 369 164 l155 70 133 -47 c122 -43 133 -49 127 -68
-20 -65 -26 -69 -216 -140 -253 -95 -811 -307 -1124 -426 -143 -55 -266 -100
-272 -100 -7 0 -12 -3 -12 -7 0 -5 81 -244 85 -251 1 -1 121 34 266 78 145 44
270 80 276 80 7 0 55 -23 105 -51 191 -106 230 -131 220 -141 -6 -6 -122 -37
-259 -69 -438 -103 -534 -127 -539 -132 -6 -6 37 -238 45 -249 4 -4 184 22
401 58 217 36 403 63 414 62 17 -3 7 -20 -64 -113 -45 -60 -84 -111 -85 -113
-1 -1 -145 -18 -321 -38 -175 -20 -320 -37 -321 -38 -2 -2 2 -47 7 -102 5 -54
10 -135 10 -180 0 -76 2 -82 30 -109 17 -16 30 -35 30 -42 0 -8 -12 -13 -30
-13 l-30 0 0 -92 c0 -51 -3 -110 -6 -130 -6 -36 -5 -38 19 -38 41 0 43 -20 5
-54 -34 -30 -36 -36 -48 -131 -6 -55 -20 -145 -31 -199 -10 -55 -18 -101 -16
-102 1 -1 112 -25 247 -54 135 -28 364 -78 510 -111 146 -33 650 -142 1120
-244 470 -102 865 -190 878 -195 l22 -10 0 307 0 306 -49 -6 c-58 -7 -104 -28
-146 -67 l-30 -28 -685 99 c-377 55 -714 103 -750 109 -154 22 -816 120 -828
122 -7 2 23 31 65 64 128 101 303 254 320 280 21 33 16 40 -161 216 l-146 145
61 7 c108 11 165 8 180 -11 24 -28 65 -39 128 -33 49 5 67 11 93 36 l33 31
835 32 c459 17 890 34 958 37 l122 6 0 229 0 229 -62 -6 c-35 -4 -394 -44
-798 -89 -404 -45 -736 -82 -737 -81 -2 1 47 64 107 140 61 76 116 147 124
157 11 16 18 18 40 9 68 -26 193 -3 239 44 77 78 396 511 618 841 222 329 232
351 191 388 -9 9 -100 46 -202 82 -101 36 -186 67 -187 69 -2 2 62 134 142
293 80 159 145 298 145 309 0 43 -27 62 -117 82 -441 101 -1332 241 -1415 223
-54 -13 -147 -86 -169 -135 -25 -55 -24 -93 6 -152 14 -27 25 -49 25 -50 0 0
-66 10 -147 23 -82 12 -220 32 -307 43 -88 11 -161 22 -163 24 -2 1 320 256
714 566 395 310 723 568 728 574 6 7 61 51 123 100 61 48 112 90 112 92 0 2
-164 4 -365 4 -294 0 -366 -3 -372 -13z m-53 -1503 c272 -54 390 -84 390 -99
0 -8 -42 -36 -94 -62 -82 -43 -97 -48 -127 -40 -53 14 -111 3 -175 -34 -49
-29 -64 -44 -86 -89 -25 -52 -31 -57 -149 -122 -68 -37 -124 -66 -125 -65 -2
2 15 59 37 127 57 180 119 396 119 415 0 12 5 15 18 10 9 -4 96 -22 192 -41z
m420 -1254 c41 -21 93 -26 132 -11 13 4 36 11 51 15 l28 7 -18 -28 c-88 -142
-225 -343 -233 -343 -5 0 -74 36 -152 79 -79 43 -178 96 -220 117 -43 21 -78
41 -78 44 0 3 37 16 83 28 60 17 321 96 365 111 1 1 20 -8 42 -19z"/>
<path d="M12147 8523 c-6 -10 -124 -407 -144 -485 -19 -73 -11 -129 27 -190
44 -70 105 -102 196 -102 67 0 76 2 155 48 121 70 142 88 176 153 26 48 223
559 223 578 0 8 -628 6 -633 -2z"/>
<path d="M0 6612 l0 -258 58 -18 c104 -32 1066 -347 1122 -367 30 -11 250 -84
489 -163 l433 -144 -128 -68 c-167 -88 -384 -212 -406 -232 -37 -32 -27 -51
175 -322 64 -85 115 -156 113 -157 -1 -1 -58 5 -127 14 -123 16 -124 16 -166
56 -65 63 -172 75 -255 30 l-49 -27 -612 82 c-337 46 -620 82 -629 82 -17 0
-18 -18 -18 -228 l0 -229 400 -23 c220 -14 400 -27 400 -30 0 -4 -15 -17 -32
-30 -18 -13 -101 -81 -185 -151 l-151 -127 -48 24 c-39 20 -62 24 -135 24
-102 0 -125 -7 -196 -61 l-53 -40 0 -1304 0 -1304 53 -15 c183 -53 457 -118
501 -119 74 -1 214 67 256 125 52 71 60 148 23 221 -7 15 -11 27 -8 27 3 0 79
-22 168 -49 183 -56 423 -122 511 -142 47 -10 55 -15 43 -24 -8 -6 -360 -195
-781 -420 l-765 -410 -1 -308 0 -309 29 19 c17 10 486 307 1043 659 557 353
1047 663 1088 688 96 60 439 279 597 381 67 44 210 135 317 202 l194 123 -64
107 c-35 59 -65 111 -67 116 -1 4 -45 -15 -97 -44 -242 -131 -612 -332 -783
-425 l-189 -101 -146 43 c-203 59 -255 77 -259 90 -4 12 74 52 212 109 66 27
254 113 550 250 28 12 131 60 230 104 99 45 225 102 281 128 l101 45 -51 122
c-27 66 -51 123 -53 125 -1 2 -316 -114 -700 -258 -384 -144 -704 -261 -712
-261 -20 0 -10 27 68 173 l72 133 417 133 c229 73 501 159 605 192 103 33 187
62 187 66 0 5 -53 201 -65 240 -4 14 50 26 -586 -130 l-506 -123 -34 18 c-39
21 -78 23 -149 6 -40 -9 -60 -21 -92 -56 l-41 -45 -426 -104 c-234 -58 -455
-113 -490 -121 l-64 -17 -154 80 c-84 43 -153 81 -153 84 0 3 17 26 38 49 l37
44 225 43 c124 24 430 82 680 130 250 48 595 113 765 146 348 67 554 106 760
144 77 15 141 28 143 30 6 5 -30 249 -37 257 -4 4 -265 -24 -581 -62 -316 -39
-588 -70 -604 -70 -21 0 -60 23 -140 83 -161 121 -239 188 -229 197 4 5 172
18 373 30 201 12 543 32 760 45 217 13 396 24 398 24 1 1 2 59 2 130 l0 129
-122 6 c-68 3 -415 9 -773 13 -422 5 -650 12 -649 18 0 11 208 201 234 214 8
5 183 -3 389 -16 l373 -23 36 -30 c32 -26 44 -30 100 -30 50 0 70 5 90 21 26
20 34 21 174 14 121 -6 148 -5 152 6 4 15 25 243 23 246 -1 0 -83 13 -182 27
-99 15 -192 29 -207 32 -21 4 -47 32 -103 107 -41 56 -75 105 -75 110 0 13 39
8 317 -44 151 -27 277 -49 278 -47 2 2 16 59 31 127 20 88 24 125 16 130 -6 4
-96 28 -199 54 -103 27 -228 58 -277 71 -50 12 -91 27 -93 32 -4 11 266 164
288 164 8 0 91 -25 183 -55 93 -30 170 -54 172 -52 3 3 82 218 86 235 3 11
-243 121 -417 186 -78 29 -914 370 -1070 436 -172 73 -1463 600 -1470 600 -3
0 -5 -116 -5 -258z m620 -2777 c96 -71 205 -150 242 -175 37 -25 68 -48 68
-51 0 -4 -33 -10 -72 -14 -40 -4 -164 -17 -274 -31 -249 -30 -248 -30 -289 1
-41 32 -102 43 -184 33 -36 -4 -67 -5 -70 -2 -9 9 383 383 394 376 6 -3 89
-65 185 -137z m470 -1279 c0 -2 -50 -91 -110 -198 -61 -106 -136 -243 -167
-305 -48 -96 -59 -110 -74 -103 -9 6 -133 50 -276 100 -370 129 -408 144 -408
160 0 10 41 29 125 58 l125 43 77 -22 76 -22 100 31 c103 33 145 64 174 127 8
19 43 34 172 78 154 53 186 62 186 53z"/>
<path d="M6330 6379 l0 -140 -42 -50 c-22 -27 -44 -49 -48 -49 -3 0 -12 66
-19 148 -6 81 -15 164 -18 186 l-6 38 -71 -7 c-39 -3 -74 -10 -78 -13 -4 -4 6
-88 23 -186 17 -98 28 -180 26 -183 -3 -2 -44 23 -93 56 -48 34 -93 61 -100
61 -7 0 -18 19 -24 43 -35 131 -44 162 -46 165 -2 3 -146 -37 -152 -42 -1 -2
61 -189 138 -416 77 -227 138 -415 135 -418 -3 -3 -5 -3 -5 0 0 9 -279 820
-284 825 -3 3 -133 -44 -144 -52 -2 -2 40 -104 92 -227 l95 -225 -25 -77 c-13
-42 -24 -83 -24 -91 0 -8 -3 -15 -7 -15 -5 0 -58 98 -120 218 l-112 218 13 45
c11 37 11 48 0 72 -8 15 -19 27 -26 27 -11 0 -140 -69 -172 -93 -18 -13 -18
-15 -1 -40 12 -20 15 -37 10 -67 -4 -22 -10 -40 -15 -40 -4 0 -22 22 -40 50
l-32 50 -58 -40 c-32 -22 -62 -45 -65 -50 -4 -6 7 -27 23 -48 52 -68 55 -65
-53 -57 l-97 8 -54 -54 -54 -54 400 -400 c303 -303 402 -408 410 -434 5 -19 8
-36 7 -38 -2 -1 -200 176 -441 395 -241 218 -441 398 -446 400 -8 3 -100 -105
-100 -118 0 -4 42 -40 93 -79 154 -118 145 -107 161 -191 8 -41 12 -77 10 -79
-2 -3 -23 10 -47 27 -23 17 -101 71 -173 121 l-132 91 -42 -65 c-23 -35 -39
-68 -36 -73 3 -5 84 -55 181 -112 96 -56 174 -105 171 -107 -2 -2 -29 -11 -61
-19 l-56 -15 -143 76 c-79 41 -147 75 -150 75 -3 0 -22 -31 -41 -70 l-35 -70
32 -13 c155 -65 228 -102 233 -118 7 -20 64 -43 87 -34 8 3 79 -22 157 -56
130 -57 144 -66 161 -100 15 -28 16 -38 7 -42 -7 -3 -170 56 -361 130 -192 74
-352 131 -356 126 -14 -15 -50 -137 -43 -143 5 -4 33 -14 63 -22 30 -9 94 -28
142 -43 l86 -26 42 -66 c22 -36 40 -69 38 -72 -2 -4 -95 14 -208 40 -113 26
-206 47 -207 45 -5 -5 -33 -149 -30 -152 2 -2 95 -18 208 -35 112 -17 207 -34
211 -38 4 -3 -15 -21 -41 -40 l-49 -33 -172 19 c-118 13 -173 16 -175 9 -2 -6
-6 -55 -10 -110 -6 -91 -5 -100 15 -121 l21 -22 -20 -6 c-23 -6 -25 -24 -15
-114 5 -36 10 -50 19 -47 22 9 25 -12 5 -31 -12 -11 -18 -26 -15 -44 15 -95
37 -221 40 -221 3 0 913 195 972 208 32 7 49 6 80 -8 32 -14 35 -18 18 -23
-11 -3 -247 -65 -525 -138 -278 -73 -509 -136 -514 -140 -9 -8 30 -149 41
-149 4 0 88 28 188 62 l180 62 73 -29 c39 -15 72 -31 72 -34 0 -3 -49 -25
-108 -49 l-108 -43 -45 17 c-45 17 -48 17 -80 -2 -25 -15 -35 -28 -37 -51 -3
-26 -10 -34 -43 -47 -22 -9 -39 -23 -39 -31 0 -9 13 -42 30 -75 l30 -59 93 44
c85 40 96 44 130 34 20 -5 37 -13 37 -17 0 -4 -50 -33 -110 -65 -61 -32 -110
-62 -110 -68 0 -15 102 -185 136 -228 2 -2 33 18 70 44 l67 48 -7 -45 c-5 -36
-3 -49 14 -71 30 -37 55 -42 95 -17 29 18 35 28 40 68 10 71 32 193 36 196
168 120 422 296 424 294 2 -2 -5 -34 -15 -73 -25 -92 -24 -111 3 -130 l22 -16
-50 -45 c-27 -25 -67 -56 -87 -70 -21 -13 -38 -28 -38 -34 0 -5 -87 -89 -192
-186 -106 -97 -194 -180 -196 -183 -1 -4 23 -31 53 -61 l56 -55 82 85 c45 47
131 136 189 198 l107 113 62 9 c35 5 65 8 66 6 2 -2 -89 -114 -202 -249 -113
-134 -205 -247 -205 -249 0 -13 123 -99 129 -92 5 5 73 99 151 209 198 275
221 307 225 303 2 -2 9 -41 15 -88 6 -46 16 -92 21 -102 8 -15 -15 -59 -116
-227 -69 -114 -125 -211 -125 -214 0 -6 124 -77 134 -77 3 0 123 233 265 518
143 284 260 514 260 509 1 -4 -22 -53 -50 -110 -29 -56 -143 -288 -255 -515
l-203 -413 66 -30 c37 -16 71 -28 77 -26 6 3 28 47 48 98 20 52 82 204 137
339 l99 245 72 43 c39 24 74 42 76 39 3 -2 -27 -101 -65 -219 -69 -208 -72
-215 -105 -230 -24 -12 -38 -27 -46 -53 -11 -33 -10 -40 9 -65 l20 -28 -39
-116 c-22 -68 -35 -118 -29 -122 28 -17 144 -43 149 -33 4 6 24 85 46 176 35
148 41 167 67 185 15 11 31 18 34 15 4 -5 -57 -330 -73 -388 -4 -13 10 -18 72
-28 41 -7 78 -10 81 -7 3 3 17 94 31 203 13 109 26 200 29 202 2 3 11 -6 21
-20 9 -13 39 -51 67 -84 57 -67 99 -82 136 -49 38 34 25 74 -51 165 -39 45
-96 122 -128 170 -31 48 -63 88 -70 88 -7 1 -36 -17 -64 -39 -28 -23 -53 -39
-55 -36 -6 6 60 286 67 286 3 0 18 -25 34 -56 54 -104 84 -125 119 -86 28 30
20 60 -50 199 -46 92 -67 146 -69 175 -1 24 -14 90 -28 148 -23 92 -34 169
-19 133 8 -20 31 -15 47 10 11 17 14 57 13 173 l-1 152 -51 -38 c-28 -20 -77
-52 -110 -70 -78 -43 -105 -68 -105 -97 0 -32 31 -30 91 7 27 16 49 27 49 24
0 -3 -28 -52 -62 -109 -56 -93 -67 -106 -112 -127 -58 -27 -91 -66 -81 -97 3
-11 13 -21 21 -21 8 0 14 -5 14 -10 0 -6 -42 -81 -92 -166 -107 -180 -104
-180 -115 14 -3 62 -9 115 -13 117 -4 3 -40 -2 -80 -11 -125 -26 -125 -24 23
131 l133 139 -9 -76 c-12 -91 -7 -108 32 -108 42 0 56 29 69 150 7 58 19 130
27 160 8 30 13 55 11 57 -2 2 -35 -3 -75 -12 -40 -8 -110 -18 -157 -21 l-85
-7 10 25 c5 14 7 29 4 32 -4 3 -34 6 -67 6 -34 1 -97 7 -141 15 -161 30 -161
30 -188 3 l-25 -25 -96 32 c-92 31 -114 41 -105 48 6 5 454 157 462 157 4 0
-11 -28 -33 -62 -57 -87 -51 -130 15 -114 32 8 44 22 105 118 27 42 65 94 85
117 20 22 34 44 31 50 -3 5 -28 14 -56 21 -28 7 -52 15 -55 19 -2 4 44 18 103
30 59 12 118 25 132 27 22 5 19 1 -18 -31 -57 -50 -68 -71 -43 -85 29 -15 68
3 126 60 28 26 76 66 107 88 l58 40 -67 16 c-37 10 -98 30 -136 47 -78 33
-109 36 -131 13 -25 -25 -17 -31 94 -76 20 -9 -12 -16 -175 -39 -139 -21 -207
-26 -221 -20 -25 11 -62 4 -84 -14 -14 -12 -819 -130 -827 -121 -4 4 25 41
111 139 l60 69 -82 75 c-45 41 -82 79 -82 84 0 13 111 -1 135 -17 26 -18 55
-18 82 1 19 13 61 13 380 0 197 -9 362 -17 366 -18 5 -1 -21 -22 -57 -46 -72
-47 -86 -80 -45 -101 30 -17 61 -6 130 45 33 24 94 63 135 85 l75 42 -48 35
c-26 20 -79 66 -118 104 -76 74 -115 95 -144 79 -38 -20 -33 -40 26 -101 31
-32 52 -59 48 -59 -11 0 -545 60 -565 63 -9 2 9 19 42 41 47 31 60 36 76 27
34 -18 57 -13 159 38 54 27 127 59 163 71 36 13 68 26 72 29 4 4 -3 23 -17 43
-14 20 -25 39 -25 41 0 2 28 10 63 17 34 7 66 16 70 20 5 4 -6 36 -24 71 -18
35 -49 111 -70 169 -31 88 -42 108 -68 124 -29 17 -33 17 -55 2 -24 -15 -25
-15 -35 17 -11 33 -41 171 -38 173 1 1 120 -91 265 -205 l263 -206 -72 -3
c-99 -4 -124 -28 -77 -72 17 -16 36 -20 92 -21 107 -1 248 -28 380 -74 40 -14
75 -25 78 -25 3 0 -5 36 -18 79 -12 44 -26 107 -30 140 -7 67 -33 111 -64 111
-29 0 -32 -14 -20 -81 6 -34 10 -63 8 -65 -8 -7 -144 161 -153 190 -6 19 -22
37 -41 47 -28 13 -109 103 -477 527 l-98 112 33 0 c18 0 74 -7 123 -15 50 -8
95 -15 102 -15 6 0 16 31 23 73 7 39 15 77 19 84 3 7 42 -46 89 -124 46 -74
81 -137 79 -140 -3 -2 -40 5 -83 17 -43 11 -87 20 -99 20 -28 0 -55 -30 -55
-62 0 -39 37 -64 125 -83 129 -28 264 -74 274 -94 6 -10 53 -38 105 -64 52
-25 120 -62 151 -81 58 -38 75 -39 75 -5 0 33 16 21 29 -22 7 -23 15 -48 18
-56 3 -8 -25 6 -62 31 -53 37 -70 44 -81 35 -34 -28 -13 -74 58 -125 29 -21
83 -64 120 -96 l67 -59 10 38 c5 21 13 52 17 68 4 17 20 63 36 104 32 81 34
137 6 155 -25 15 -45 -8 -73 -85 l-23 -64 -11 40 c-6 22 -21 79 -33 127 l-22
86 22 54 c30 72 29 113 -2 133 -19 13 -29 14 -45 6 -19 -10 -22 -7 -35 41 -37
133 -86 331 -83 334 5 5 109 -68 188 -132 36 -30 68 -54 71 -54 3 0 33 38 68
85 35 47 66 85 71 85 4 0 8 -75 8 -167 1 -93 4 -185 8 -205 3 -21 3 -38 0 -38
-3 0 -33 29 -68 65 -66 69 -85 77 -114 45 -29 -32 -13 -78 46 -135 28 -28 69
-71 91 -97 36 -44 38 -49 24 -64 -28 -28 -19 -69 35 -151 l50 -78 -2 -147 c-1
-82 -5 -148 -8 -148 -3 0 -17 25 -30 56 -17 38 -29 54 -40 52 -28 -5 -25 -61
7 -125 16 -32 40 -91 53 -130 l23 -73 33 70 c17 39 47 92 64 118 33 48 46 121
23 129 -7 2 -28 -22 -48 -54 -39 -62 -40 -60 -27 55 10 82 32 117 160 256 71
76 85 108 59 134 -23 23 -46 12 -97 -44 -28 -30 -51 -50 -51 -42 1 7 9 70 19
140 17 118 30 158 52 158 10 0 68 -122 89 -186 24 -76 27 -78 62 -52 17 12 41
23 54 24 20 2 23 -4 38 -84 9 -48 16 -94 16 -104 0 -9 4 -18 9 -20 5 -1 -19
-55 -53 -118 l-61 -115 -3 50 c-3 71 -10 95 -27 95 -33 0 -43 -42 -47 -196
l-4 -151 55 39 c30 21 58 38 62 38 5 0 1 -21 -7 -47 -31 -103 -35 -97 42 -64
38 16 101 38 140 50 71 21 104 44 104 74 0 26 -15 28 -81 7 -35 -10 -64 -18
-65 -17 -1 1 30 35 68 76 57 59 70 69 64 47 -3 -14 -9 -38 -12 -53 -7 -26 -7
-26 37 -19 24 5 102 13 173 20 112 11 131 15 147 34 13 17 28 22 61 22 59 0
148 -11 148 -19 0 -3 -60 -39 -133 -79 -72 -39 -165 -90 -205 -113 l-73 -40
31 60 c39 78 39 101 2 101 -36 0 -61 -27 -102 -110 -18 -36 -50 -91 -72 -122
l-39 -58 63 0 c35 0 58 -4 53 -9 -8 -6 -152 -66 -215 -89 -8 -3 2 13 23 34 38
41 45 58 27 69 -16 10 -52 -14 -135 -94 -44 -42 -91 -84 -105 -93 -24 -17 -24
-17 35 -12 33 4 94 1 135 -4 83 -12 129 -7 137 15 8 21 0 25 -64 32 l-58 7
175 57 c96 32 196 59 223 61 31 2 55 10 70 23 13 13 155 64 372 133 193 62
356 115 364 118 17 7 -1 -29 -68 -128 -57 -86 -63 -72 53 -144 38 -24 64 -46
59 -49 -9 -6 -58 -7 -140 -4 -23 0 -48 -5 -58 -13 -12 -10 -132 -30 -358 -61
l-339 -45 57 50 c64 58 68 86 10 86 -25 0 -49 -14 -111 -66 -43 -36 -98 -77
-121 -91 -24 -14 -43 -28 -43 -31 0 -4 28 -18 63 -31 34 -13 92 -41 130 -63
52 -30 76 -38 105 -36 28 2 38 8 40 23 2 15 -12 29 -60 57 -35 21 -56 38 -48
39 8 0 133 8 278 17 144 9 262 16 262 15 0 -2 -17 -18 -37 -38 -32 -29 -46
-35 -83 -35 -36 0 -57 -8 -105 -41 -33 -22 -96 -58 -140 -81 -44 -22 -82 -42
-84 -44 -3 -2 8 -18 24 -34 16 -16 27 -31 24 -34 -2 -2 -28 -11 -56 -20 -29
-10 -53 -21 -53 -24 0 -4 19 -30 42 -57 22 -28 66 -87 96 -133 33 -50 64 -87
79 -93 27 -10 63 -4 63 12 0 5 4 9 8 9 9 0 82 -148 82 -164 0 -4 -53 21 -117
55 -65 35 -192 102 -282 150 l-164 88 73 7 c79 7 99 25 62 54 -17 14 -51 18
-179 23 -144 5 -261 24 -336 53 -14 5 -10 -7 17 -49 20 -31 52 -90 71 -132 23
-52 42 -78 59 -87 45 -20 45 1 1 107 -6 13 11 4 51 -27 57 -46 68 -56 132
-125 17 -18 38 -33 47 -33 13 0 199 -146 553 -435 l73 -60 -120 -3 -120 -3 -3
-75 -3 -75 -98 111 c-55 61 -97 113 -95 116 3 2 42 -1 87 -8 78 -11 83 -10
103 9 27 27 19 63 -19 84 -15 9 -61 19 -102 23 -109 10 -222 35 -248 56 -13
10 -59 30 -101 45 -88 30 -176 74 -149 75 10 0 20 7 23 15 10 26 -23 62 -93
104 -38 22 -90 58 -118 80 l-50 41 -7 -148 c-6 -154 0 -193 34 -200 18 -3 20
2 35 92 l8 50 48 -108 c48 -106 48 -108 42 -181 -7 -67 -5 -75 15 -95 13 -13
28 -19 38 -15 9 4 20 7 25 8 8 2 159 -324 153 -331 -5 -5 -111 52 -195 105
-29 19 -54 33 -56 31 -1 -2 -20 -42 -41 -91 -20 -48 -40 -84 -44 -80 -4 5 -21
80 -39 168 -18 88 -35 171 -38 185 -6 22 1 18 55 -28 75 -65 105 -68 110 -9 3
33 -1 41 -35 70 -21 17 -76 69 -122 114 -47 46 -87 83 -90 83 -4 0 -16 -27
-29 -59 -13 -33 -45 -97 -73 -142 -53 -88 -60 -126 -30 -153 28 -25 51 -9 90
64 18 34 35 59 38 56 7 -7 72 -495 71 -533 -1 -17 4 -51 10 -75 7 -24 26 -146
42 -273 17 -126 33 -231 35 -233 8 -9 155 22 155 32 0 6 -25 128 -55 270 l-54
259 30 59 c17 33 32 58 34 57 2 -2 40 -141 86 -309 45 -168 83 -307 85 -309 4
-5 125 27 142 38 9 5 -14 83 -93 306 -58 164 -105 301 -105 306 0 4 38 -13 85
-37 47 -24 93 -44 101 -44 8 0 23 -19 33 -42 52 -118 181 -401 184 -405 3 -2
37 12 76 32 l72 36 -29 52 c-35 62 -393 721 -412 757 -7 14 -8 21 -3 15 8 -9
241 -428 397 -717 26 -48 51 -90 55 -92 4 -3 37 13 74 35 l66 40 -76 117 c-42
64 -134 205 -204 313 l-127 196 5 87 c3 47 9 86 12 86 3 -1 67 -82 140 -181
128 -171 135 -182 132 -222 -3 -59 27 -97 77 -98 35 0 41 -5 110 -100 l74
-100 56 47 c32 26 60 50 64 54 5 3 -46 66 -112 140 -107 121 -119 139 -120
173 0 40 12 47 32 18 7 -10 69 -76 136 -146 l124 -128 54 54 c30 29 54 56 54
60 0 3 -66 66 -147 139 -82 74 -149 137 -151 141 -2 4 33 9 78 11 l81 3 116
-93 c64 -50 117 -92 119 -92 1 0 24 28 50 61 l47 62 -24 18 c-13 10 -262 184
-553 386 -474 330 -581 412 -562 431 2 1 134 -79 292 -179 786 -496 903 -567
912 -556 5 7 23 38 41 69 24 43 29 58 19 65 -7 4 -121 64 -253 134 l-240 126
-33 68 c-18 37 -31 69 -29 71 2 2 142 -61 312 -140 170 -80 313 -142 316 -140
10 6 63 143 58 147 -2 2 -147 57 -322 122 -174 65 -314 122 -310 125 5 4 28
15 53 24 l45 17 279 -91 c153 -50 284 -89 291 -86 15 5 49 136 38 146 -4 4
-118 33 -253 65 -154 36 -256 66 -275 79 -21 14 -47 21 -85 21 -89 2 -290 53
-322 83 -34 32 -35 42 -4 42 21 0 917 -174 957 -186 13 -4 18 10 28 72 7 42 9
80 4 84 -4 4 -135 22 -290 41 l-283 33 -52 53 c-28 29 -50 54 -47 56 2 2 155
-4 339 -15 184 -10 340 -16 347 -14 9 4 13 29 13 81 l0 77 -352 -7 -353 -7 40
40 40 40 155 10 c128 7 160 7 184 -5 30 -16 71 -11 96 12 10 9 45 15 95 17
l80 3 -1 73 c-1 40 -5 76 -8 79 -3 4 -58 0 -121 -7 l-115 -12 -50 32 c-27 18
-50 35 -50 39 0 4 71 20 158 36 86 15 158 29 160 30 8 7 -33 155 -43 155 -6 0
-78 -18 -159 -41 -82 -22 -150 -39 -151 -37 -2 2 15 35 37 74 l41 71 103 33
103 32 -27 74 c-14 41 -29 74 -34 74 -9 0 -183 -70 -688 -275 -500 -204 -490
-200 -524 -191 -16 4 -27 9 -25 11 2 1 236 110 519 240 283 130 552 254 598
275 l83 39 -36 71 c-21 42 -41 70 -48 67 -7 -3 -137 -74 -290 -159 l-278 -155
-57 9 c-31 5 -64 12 -72 14 -16 6 4 20 112 84 59 36 71 39 111 34 40 -6 49 -3
72 20 19 19 26 34 23 51 -4 21 12 34 159 125 l164 101 -43 61 c-24 34 -47 63
-53 64 -5 2 -95 -59 -199 -136 -167 -124 -194 -140 -228 -140 -22 0 -37 4 -34
9 3 4 98 81 211 171 166 132 203 165 196 179 -5 9 -46 56 -92 104 l-82 89
-159 -159 c-157 -156 -158 -157 -158 -123 0 31 16 51 135 178 74 79 135 145
135 147 0 1 -27 26 -59 54 l-59 52 -149 -183 c-82 -101 -222 -274 -312 -385
-90 -112 -166 -203 -169 -203 -3 0 2 8 10 18 8 9 142 177 298 372 156 195 289
363 297 372 13 15 9 21 -47 62 -34 25 -65 46 -69 46 -3 -1 -112 -156 -241
-345 -194 -285 -239 -345 -258 -345 -13 0 -32 -5 -43 -10 -10 -6 -19 -9 -19
-7 0 4 307 493 428 682 28 44 48 83 44 87 -18 17 -226 127 -231 122 -3 -3 -74
-150 -157 -327 -141 -299 -153 -322 -180 -328 -16 -3 -39 -11 -51 -18 -13 -6
-23 -9 -23 -7 0 7 176 449 240 605 29 68 48 127 43 132 -5 5 -62 26 -128 48
-85 28 -122 36 -126 28 -3 -7 -46 -164 -95 -349 -48 -186 -91 -338 -94 -338
-3 0 -13 14 -22 31 -15 25 -23 30 -50 27 -23 -2 -36 -10 -43 -25 -7 -17 -18
-23 -43 -23 -32 0 -33 1 -27 33 3 17 19 129 35 247 16 118 37 268 47 332 9 65
13 121 9 125 -11 11 -131 22 -253 22 l-113 1 0 -141z m-475 -829 c19 -44 32
-80 29 -80 -2 0 -36 16 -74 35 -79 40 -75 26 -42 150 l16 60 18 -43 c11 -23
34 -78 53 -122z m1103 -95 c-12 -27 -28 -34 -28 -12 0 14 20 37 32 37 4 0 2
-11 -4 -25z m576 -17 c-5 -25 -40 -67 -143 -171 -75 -75 -142 -136 -150 -135
-8 2 -14 7 -13 11 1 11 295 327 304 327 4 0 5 -15 2 -32z m-1104 -48 c0 -5 -5
-10 -11 -10 -5 0 -7 5 -4 10 3 6 8 10 11 10 2 0 4 -4 4 -10z m670 -106 c0 -3
-19 -33 -42 -67 l-43 -62 -3 39 c-2 21 -1 45 2 52 8 20 86 55 86 38z m356
-197 c-14 -49 -27 -91 -30 -94 -3 -3 -12 0 -20 6 -10 9 -36 10 -88 6 l-73 -7
25 26 c14 14 66 61 115 104 63 55 91 74 93 63 1 -9 -9 -56 -22 -104z m174 88
c-38 -28 -41 -28 -33 3 4 17 13 22 36 22 l31 0 -34 -25z m-2525 -152 c17 -43
32 -82 34 -86 2 -5 -11 -1 -28 8 -18 9 -35 23 -38 31 -7 18 -55 44 -83 44 -26
0 -109 42 -94 47 16 6 146 31 164 32 10 1 25 -25 45 -76z m1808 15 c-5 -33 -7
-36 -20 -22 -13 13 -13 17 2 40 21 32 23 29 18 -18z m-1124 -170 c1 -10 -43 4
-51 16 -4 6 -8 17 -8 24 0 14 58 -26 59 -40z m-867 -170 l36 -25 -59 -28 c-32
-16 -60 -27 -62 -24 -6 6 -82 122 -90 135 -11 18 133 -30 175 -58z m2898 -563
l45 -46 -65 7 c-36 3 -78 12 -95 19 -16 7 -36 15 -44 17 -8 2 6 17 35 35 55
36 59 35 124 -32z m-831 -265 l16 -25 -35 24 c-48 34 -48 33 -21 29 13 -1 31
-14 40 -28z m580 19 c17 -6 31 -15 31 -19 0 -11 67 -33 79 -26 11 7 101 -15
101 -24 0 -7 -130 -50 -151 -50 -8 0 -33 30 -57 65 -23 36 -41 65 -39 65 2 0
18 -5 36 -11z m-2413 -308 l89 -17 -140 -83 c-77 -46 -144 -86 -149 -89 -11
-6 -1 26 46 141 35 83 42 95 53 81 7 -11 45 -23 101 -33z m1686 -49 c-7 -2
-12 -16 -12 -30 -1 -24 -3 -23 -25 18 -32 60 -31 63 12 38 20 -12 31 -24 25
-26z m-782 -14 c0 -23 -3 -38 -7 -35 -3 4 -17 0 -31 -9 -13 -9 -22 -12 -20 -7
2 4 13 27 24 50 10 24 22 43 27 43 4 0 7 -19 7 -42z m-490 -12 c0 -2 -43 -43
-97 -92 -87 -80 -96 -86 -90 -59 4 17 9 39 11 50 2 11 7 37 11 57 8 41 -4 37
138 46 15 1 27 0 27 -2z m-730 -34 c0 -5 -6 -16 -13 -26 -10 -13 -20 -16 -41
-10 l-29 7 34 18 c38 20 49 23 49 11z m2240 -142 c51 -20 56 -32 45 -118 l-7
-54 -42 63 c-23 35 -53 81 -66 103 l-23 38 24 -7 c13 -4 44 -15 69 -25z
m-1065 -131 l18 -71 -29 -23 c-16 -13 -46 -33 -67 -45 l-37 -21 19 48 c36 91
75 183 77 183 1 0 10 -32 19 -71z m1000 -49 c9 -16 13 -30 11 -30 -3 0 -12 14
-21 30 -9 17 -13 30 -11 30 3 0 12 -13 21 -30z"/>
<path d="M12748 5817 c-56 -57 -72 -100 -65 -178 6 -68 35 -125 80 -157 l32
-22 3 100 c1 55 1 146 0 202 l-3 101 -47 -46z"/>
<path d="M9977 3303 c-3 -10 -20 -65 -37 -121 -17 -57 -29 -107 -25 -110 4 -4
160 -59 348 -123 l342 -115 56 -112 c74 -147 114 -241 105 -249 -6 -6 -201 68
-321 123 -27 12 -80 36 -117 53 -38 16 -68 35 -68 41 0 7 -14 41 -31 77 -27
57 -36 67 -77 85 -63 27 -114 20 -157 -22 l-32 -31 -66 27 c-37 15 -69 26 -71
23 -7 -8 -106 -222 -106 -230 0 -5 71 -44 158 -88 l158 -79 24 -76 c13 -42 21
-79 17 -82 -5 -5 -135 62 -353 183 l-62 33 -62 -107 c-35 -60 -89 -147 -121
-195 l-59 -87 109 -78 c120 -85 120 -84 19 -103 -87 -17 -138 -75 -138 -157 0
-29 8 -44 44 -79 40 -41 47 -44 97 -44 30 0 124 9 209 20 85 12 175 23 200 27
l46 5 294 -209 c162 -115 336 -239 385 -274 50 -36 191 -136 315 -223 254
-178 258 -182 244 -196 -10 -10 -262 -34 -494 -45 -79 -4 -149 -13 -170 -22
-70 -29 -120 -97 -120 -164 0 -17 -4 -29 -9 -27 -4 2 -92 80 -194 173 -124
114 -189 181 -197 202 -13 36 -96 111 -135 121 -14 4 -198 166 -410 360 l-386
353 -92 -94 -93 -95 217 -234 c119 -128 291 -312 382 -408 l166 -175 1 -96 c0
-156 -11 -280 -26 -277 -12 3 -68 68 -636 741 -235 278 -262 307 -278 295
-102 -73 -188 -145 -185 -155 4 -13 116 -166 664 -912 73 -101 134 -190 135
-199 1 -13 -6 -16 -24 -14 -36 4 -195 38 -345 73 -84 20 -146 29 -176 27 l-45
-5 -45 75 c-24 41 -53 91 -64 111 -11 20 -28 47 -36 61 -31 48 -182 305 -209
355 -25 46 -138 236 -145 243 -3 3 -213 -109 -233 -124 -2 -1 104 -216 235
-478 l238 -476 783 0 783 0 -3 175 c-2 96 -1 175 2 174 3 -1 79 -79 168 -175
l164 -174 304 0 c167 0 304 2 304 4 0 3 -79 77 -175 165 l-175 161 115 0 115
0 44 -40 c24 -22 46 -40 49 -40 3 0 3 18 0 40 l-6 40 225 0 225 0 22 -117 c12
-65 27 -139 32 -165 l11 -48 285 0 c266 0 284 1 279 18 -3 9 -24 79 -46 156
-22 76 -45 146 -50 156 -9 16 0 18 108 24 145 9 180 19 189 54 10 39 10 41
-92 322 -152 418 -378 970 -467 1142 -43 83 -51 91 -146 131 -71 30 -117 34
-167 13 -33 -14 -35 -14 -35 6 0 25 -103 255 -217 482 -61 121 -79 167 -66
162 31 -13 959 -328 1327 -451 192 -64 356 -119 363 -122 10 -4 13 42 13 244
l0 250 -357 92 c-197 51 -819 214 -1383 362 -564 147 -1037 271 -1052 274 -20
5 -27 3 -31 -12z m553 -1098 c50 -25 90 -49 90 -54 0 -12 -126 -58 -135 -49
-7 7 -53 148 -49 148 3 0 45 -20 94 -45z m787 -287 c-33 -69 -27 -114 43 -303
110 -300 146 -413 135 -424 -7 -7 -85 35 -245 133 -129 78 -307 187 -395 240
-88 54 -193 119 -234 144 l-74 45 184 44 c185 43 527 135 571 152 37 15 37 13
15 -31z"/>
<path d="M3220 2053 c-69 -47 -300 -208 -514 -357 -214 -149 -435 -302 -491
-341 -56 -38 -516 -358 -1023 -710 l-921 -640 421 -3 420 -2 245 197 c135 109
367 296 517 417 149 120 305 246 346 278 41 33 94 76 118 95 24 20 61 49 83
65 22 16 101 79 176 139 74 61 136 109 137 107 2 -2 -3 -52 -10 -113 -7 -60
-20 -207 -28 -325 -19 -264 -20 -260 82 -259 37 0 138 6 225 12 86 7 157 10
157 7 0 -5 -19 -27 -342 -388 -109 -121 -198 -223 -198 -226 0 -3 114 -6 253
-6 l252 0 130 166 c72 91 192 246 267 343 l137 178 58 7 c106 12 129 22 167
75 43 58 48 114 16 167 l-21 33 33 44 c18 25 80 104 137 177 l103 133 -33 26
c-19 14 -65 52 -103 84 -38 32 -73 56 -77 55 -4 -2 -105 -113 -225 -248 l-217
-245 -81 -7 c-45 -3 -85 -2 -90 2 -11 11 18 44 279 320 116 121 218 231 228
243 17 22 17 23 -71 115 -84 87 -106 103 -114 84 -1 -4 -59 -59 -128 -122 -69
-62 -163 -151 -210 -196 -137 -131 -219 -204 -230 -204 -12 0 -13 17 0 177 16
205 -3 173 198 334 97 79 191 155 208 170 l32 26 -74 99 c-41 55 -80 100 -86
101 -7 1 -69 -37 -138 -84z"/>
<path d="M12560 1917 c-118 -40 -255 -85 -305 -100 -109 -34 -150 -64 -181
-131 -35 -75 -32 -138 9 -206 28 -48 42 -60 122 -102 106 -55 144 -64 222 -48
70 14 340 80 359 87 20 7 21 573 2 572 -7 0 -110 -33 -228 -72z"/>
<path d="M4312 1047 c-39 -62 -207 -321 -372 -576 -165 -255 -300 -465 -300
-467 0 -2 92 -4 204 -4 l204 0 281 506 c155 279 281 509 281 513 0 3 -37 27
-83 53 -45 26 -96 56 -112 67 l-30 20 -73 -112z"/>
<path d="M4623 998 c-4 -7 -128 -233 -275 -503 l-267 -490 186 -3 c103 -1 190
1 194 5 4 5 68 141 142 303 74 162 165 360 202 440 40 87 62 146 56 148 -9 3
-124 60 -223 110 -3 2 -10 -3 -15 -10z"/>
<path d="M7915 889 c-60 -27 -111 -51 -113 -54 -3 -3 50 -136 168 -420 65
-154 148 -359 159 -387 l11 -28 180 0 c99 0 180 3 180 7 0 19 -455 933 -464
932 -6 0 -60 -23 -121 -50z"/>
<path d="M5158 691 c-14 -42 -73 -214 -131 -384 l-106 -307 167 0 167 0 91
343 c51 188 91 343 90 344 -1 1 -58 20 -127 41 l-126 38 -25 -75z"/>
<path d="M7475 724 c-22 -8 -77 -24 -122 -36 -46 -11 -83 -23 -83 -27 0 -3 34
-145 75 -316 41 -171 75 -318 75 -327 0 -17 15 -18 183 -18 l183 0 23 48 c13
26 27 59 32 75 11 40 -16 116 -57 155 -27 26 -42 32 -77 32 l-43 0 -21 68
c-12 37 -42 133 -68 215 -25 81 -49 147 -53 146 -4 0 -25 -7 -47 -15z"/>
<path d="M2232 668 c-52 -29 -117 -90 -137 -128 -12 -22 -75 -465 -75 -527 0
-10 52 -13 229 -13 l229 0 7 94 c4 52 8 180 9 284 l1 190 -31 38 c-37 47 -105
84 -155 84 -20 0 -54 -10 -77 -22z"/>
<path d="M5611 493 c-62 -278 -101 -465 -101 -479 0 -11 30 -14 158 -14 l157
0 38 282 c20 156 37 290 37 298 0 12 -26 20 -107 34 -60 9 -117 20 -129 22
-19 5 -23 -6 -53 -143z"/>
<path d="M7015 617 c-66 -12 -121 -22 -122 -22 -2 -1 28 -226 70 -517 l11 -78
157 0 157 0 -39 182 c-85 404 -96 452 -105 454 -5 1 -63 -8 -129 -19z"/>
<path d="M6485 96 c-32 -15 -68 -50 -78 -78 -6 -17 6 -18 161 -18 l167 0 -45
40 c-79 69 -139 85 -205 56z"/>
</g>
</svg>
