<?xml version="1.0" standalone="no"?>
<!DOCTYPE svg PUBLIC "-//W3C//DTD SVG 20010904//EN"
 "http://www.w3.org/TR/2001/REC-SVG-20010904/DTD/svg10.dtd">
<svg version="1.0" xmlns="http://www.w3.org/2000/svg"
 width="1280.000000pt" height="799.000000pt" viewBox="0 0 1280.000000 799.000000"
 preserveAspectRatio="xMidYMid meet">
<metadata>
Created by potrace 1.15, written by Peter Selinger 2001-2017
</metadata>
<g transform="translate(0.000000,799.000000) scale(0.100000,-0.100000)"
fill="#9e9e9e" stroke="none">
<path d="M912 7514 c-13 -9 -33 -37 -44 -63 -11 -25 -96 -349 -189 -719 l-169
-673 0 -782 c0 -475 -4 -788 -10 -797 -7 -12 -37 -16 -132 -19 -77 -2 -126 -7
-130 -15 -4 -6 -8 -180 -8 -386 0 -279 3 -379 12 -388 8 -8 51 -12 128 -12 77
0 120 -4 128 -12 15 -15 17 -1564 2 -1588 -7 -12 -37 -16 -132 -19 -77 -2
-126 -7 -130 -15 -4 -6 -8 -180 -8 -386 0 -279 3 -379 12 -388 8 -8 51 -12
129 -12 82 0 120 -4 127 -13 7 -8 11 -149 11 -412 1 -363 3 -401 18 -412 13
-10 114 -13 424 -13 224 0 414 3 423 6 14 5 16 51 16 413 0 303 3 410 12 419
8 8 61 12 174 12 157 0 163 -1 178 -22 14 -19 16 -76 16 -419 0 -353 2 -398
16 -403 9 -3 181 -6 383 -6 272 0 370 3 379 12 9 9 12 114 12 413 0 299 3 404
12 413 17 17 329 17 346 0 9 -9 12 -114 12 -413 0 -299 3 -404 12 -413 17 -17
854 -17 864 0 4 7 6 190 5 408 -2 369 -1 398 15 415 16 16 34 17 176 13 87 -3
163 -9 169 -15 6 -6 12 -165 16 -414 4 -276 9 -406 17 -411 15 -11 748 -10
764 1 10 6 13 91 14 410 1 334 3 405 15 417 11 11 48 14 164 14 201 0 187 18
189 -237 2 -325 9 -593 15 -603 8 -13 835 -13 854 -1 12 8 15 74 15 416 1 349
3 407 16 415 23 15 333 13 348 -2 9 -9 12 -116 12 -419 0 -362 2 -408 16 -413
9 -3 183 -6 388 -6 276 0 375 3 384 12 9 9 12 115 12 415 l0 403 26 10 c38 15
274 12 304 -3 25 -13 25 -13 25 -157 1 -259 17 -655 27 -667 8 -10 106 -13
429 -13 403 0 419 1 429 19 6 13 10 161 10 413 0 293 3 397 12 406 17 17 329
17 346 0 9 -9 12 -114 12 -409 0 -348 2 -400 16 -413 13 -14 63 -16 388 -16
276 0 375 3 384 12 9 9 12 115 12 415 0 388 1 403 19 413 29 15 324 13 339 -2
9 -9 12 -114 12 -413 0 -299 3 -404 12 -413 17 -17 839 -17 856 0 9 9 12 115
12 415 0 388 1 403 19 413 25 13 321 13 341 0 13 -8 15 -62 11 -414 -3 -399
-3 -404 17 -415 30 -16 754 -15 770 1 9 9 12 115 12 414 0 320 3 404 13 412 8
7 72 13 158 14 l144 3 0 395 0 395 -148 5 c-116 4 -150 8 -157 20 -6 9 -10
322 -10 796 0 635 2 784 13 792 8 7 72 13 158 14 l144 3 0 395 0 395 -147 5
c-81 3 -152 10 -157 15 -6 6 -11 162 -13 410 l-3 400 -74 285 c-40 157 -85
339 -101 405 -15 66 -39 165 -53 220 -14 55 -31 125 -38 155 -6 30 -25 83 -41
118 -64 136 -137 116 -188 -51 -10 -34 -58 -217 -105 -407 -47 -190 -107 -426
-133 -525 l-46 -180 -6 -407 c-4 -315 -8 -410 -18 -420 -19 -19 -298 -24 -332
-6 l-25 14 -5 814 -6 815 -27 95 c-30 106 -24 82 -184 735 -64 259 -121 481
-128 495 -24 46 -63 80 -93 80 -38 0 -68 -33 -92 -102 -11 -31 -94 -353 -185
-717 l-165 -661 0 -772 c0 -470 -4 -779 -10 -788 -13 -20 -332 -22 -352 -2
-10 10 -14 109 -19 440 l-5 427 -141 557 c-149 593 -159 621 -223 648 -40 16
-64 1 -96 -61 -15 -31 -81 -274 -172 -632 l-146 -582 -6 -400 -5 -399 -25 -7
c-32 -9 -278 -9 -310 0 l-25 7 -5 804 -5 805 -61 230 c-60 226 -130 507 -158
635 -12 54 -77 311 -117 463 -13 48 -74 117 -103 117 -27 0 -60 -33 -80 -81
-8 -19 -42 -145 -76 -280 -34 -134 -93 -368 -132 -519 -38 -151 -88 -347 -109
-435 l-39 -160 0 -776 c0 -654 -2 -778 -14 -795 -13 -17 -28 -19 -176 -19
-148 0 -163 2 -176 19 -11 16 -14 88 -14 402 l0 382 -66 264 c-36 144 -79 319
-94 388 -55 246 -130 523 -152 563 -13 22 -35 49 -49 60 -24 17 -30 18 -55 6
-16 -8 -38 -34 -52 -60 -13 -27 -86 -297 -173 -644 l-149 -597 0 -378 c0 -339
-2 -379 -17 -391 -12 -11 -55 -14 -175 -14 -146 0 -161 2 -174 19 -12 17 -14
144 -14 810 0 694 -2 800 -16 861 -86 371 -322 1262 -350 1321 -17 35 -61 59
-92 50 -44 -14 -69 -95 -242 -779 l-170 -677 0 -783 c0 -661 -2 -786 -14 -803
-13 -17 -28 -19 -174 -19 -120 0 -163 3 -175 14 -15 12 -17 54 -17 415 0 401
0 401 -26 496 -49 179 -74 275 -89 340 -8 36 -28 115 -45 175 -17 61 -51 192
-75 293 -45 181 -82 296 -111 340 -20 31 -64 29 -97 -4 -36 -36 -48 -78 -207
-710 l-140 -561 0 -379 c0 -313 -3 -384 -14 -400 -13 -17 -28 -19 -176 -19
-148 0 -163 2 -176 19 -12 17 -14 142 -14 796 l0 776 -154 619 c-84 341 -161
650 -169 688 -17 72 -64 151 -94 159 -11 3 -28 2 -40 -3 -52 -19 -77 -93 -194
-564 -39 -154 -105 -417 -147 -585 l-77 -305 -5 -794 -5 -795 -35 -9 c-42 -11
-305 -6 -317 6 -4 5 -10 187 -13 405 l-6 397 -101 400 c-56 220 -113 452 -127
515 -72 312 -124 401 -202 345 -41 -28 -64 -101 -174 -545 -32 -129 -84 -334
-116 -455 l-58 -220 -6 -412 c-4 -319 -8 -415 -18 -425 -20 -20 -339 -18 -352
2 -6 9 -10 325 -10 805 l0 790 -36 135 c-55 208 -126 488 -199 785 -110 445
-140 526 -195 533 -14 1 -36 -5 -48 -14z m848 -3880 c7 -17 9 -303 8 -795 -2
-618 -6 -771 -16 -781 -17 -17 -327 -14 -348 3 -19 16 -21 1568 -2 1587 8 8
63 12 180 12 l168 0 10 -26z m1158 14 c9 -9 12 -200 12 -800 l0 -788 -27 -11
c-32 -12 -310 -8 -330 4 -18 12 -19 1577 -1 1595 17 17 329 17 346 0z m1262
-7 c7 -13 10 -279 10 -794 0 -709 -1 -776 -17 -788 -12 -11 -55 -14 -175 -14
-146 0 -161 2 -174 19 -12 17 -14 141 -14 789 0 510 3 775 10 788 10 18 23 19
180 19 157 0 170 -1 180 -19z m1170 -7 c6 -16 10 -317 10 -788 0 -644 -2 -765
-14 -782 -13 -18 -26 -19 -176 -17 -105 2 -167 6 -176 14 -12 10 -14 137 -14
793 0 595 3 785 12 794 8 8 63 12 180 12 l168 0 10 -26z m1248 14 c9 -9 12
-201 12 -800 0 -742 -1 -789 -17 -796 -29 -12 -334 -5 -347 8 -15 15 -21 1535
-6 1574 l10 26 168 0 c117 0 172 -4 180 -12z m1172 -7 c11 -22 15 -1373 4
-1505 -8 -94 -3 -92 -204 -89 -125 1 -146 4 -157 19 -10 14 -13 174 -13 790 0
689 2 774 16 788 13 13 44 16 179 16 152 0 165 -1 175 -19z m1248 7 c9 -9 12
-200 12 -800 l0 -788 -27 -11 c-32 -12 -310 -8 -330 4 -18 12 -19 1577 -1
1595 17 17 329 17 346 0z m1170 0 c9 -9 12 -199 12 -794 0 -715 -1 -784 -17
-799 -14 -14 -37 -16 -172 -13 -86 1 -162 7 -168 11 -10 6 -13 178 -13 802 0
625 3 794 13 798 28 12 333 7 345 -5z m1252 2 c13 -8 15 -107 15 -794 0 -631
-3 -788 -13 -798 -19 -19 -322 -18 -345 1 -16 12 -17 80 -17 795 0 595 3 785
12 794 15 15 325 17 348 2z"/>
</g>
</svg>
