<?xml version="1.0" standalone="no"?>
<!DOCTYPE svg PUBLIC "-//W3C//DTD SVG 20010904//EN"
 "http://www.w3.org/TR/2001/REC-SVG-20010904/DTD/svg10.dtd">
<svg version="1.0" xmlns="http://www.w3.org/2000/svg"
 width="1280.000000pt" height="665.000000pt" viewBox="0 0 1280.000000 665.000000"
 preserveAspectRatio="xMidYMid meet">
<metadata>
Created by potrace 1.15, written by Peter Selinger 2001-2017
</metadata>
<g transform="translate(0.000000,665.000000) scale(0.100000,-0.100000)"
fill="#9e9e9e" stroke="none">
<path d="M3494 6495 c-3 -6 -3 -22 -2 -35 3 -21 -1 -25 -24 -25 -23 1 -28 -4
-28 -22 0 -13 -5 -23 -11 -23 -6 0 -9 7 -5 15 3 9 0 15 -9 15 -18 0 -19 -12
-4 -27 9 -9 8 -18 -3 -35 -13 -20 -13 -29 -2 -67 7 -24 12 -47 12 -50 -1 -3 2
-14 7 -24 5 -13 1 -25 -15 -43 -30 -30 -34 -30 -49 3 l-13 28 -14 -28 c-8 -15
-21 -27 -30 -27 -10 0 -13 -7 -8 -25 7 -29 -15 -35 -37 -9 -19 23 -69 46 -86
39 -9 -3 -24 2 -33 10 -12 11 -20 13 -25 6 -4 -8 -12 -8 -27 0 -17 9 -24 8
-34 -5 -7 -10 -15 -17 -18 -17 -20 3 -26 0 -21 -8 8 -14 -9 -21 -25 -11 -7 4
-19 6 -27 3 -18 -7 -17 -43 2 -43 8 0 15 -6 15 -14 0 -9 12 -16 28 -18 l27 -3
-36 -18 c-20 -10 -42 -17 -50 -15 -8 2 -13 -2 -12 -8 4 -23 -46 -22 -81 2 -18
13 -36 20 -40 17 -11 -11 -57 -9 -67 3 -8 10 -15 8 -29 -6 -23 -23 -46 -17
-56 13 -13 42 -64 68 -141 73 -44 2 -53 0 -58 -17 -4 -10 -15 -19 -26 -19 -13
0 -19 -7 -19 -21 0 -11 -4 -18 -9 -14 -5 3 -12 1 -16 -5 -3 -5 -19 -10 -36
-10 -16 0 -29 -4 -29 -8 0 -4 12 -7 28 -7 29 1 55 -12 47 -25 -3 -4 2 -13 10
-20 23 -19 18 -27 -17 -32 -20 -3 -42 1 -56 10 -12 8 -26 12 -30 8 -3 -4 0
-11 8 -16 12 -7 10 -11 -10 -19 -14 -5 -20 -10 -14 -10 7 -1 14 -8 18 -16 4
-12 0 -14 -21 -9 -21 6 -25 4 -20 -9 4 -10 -2 -17 -16 -22 -22 -6 -22 -6 3
-17 23 -9 23 -11 6 -17 -23 -9 -62 -7 -58 2 1 4 -7 16 -18 27 -11 11 -20 28
-20 39 0 14 -6 17 -26 13 -15 -3 -23 -10 -20 -17 6 -16 -25 -45 -47 -45 -9 0
-17 -7 -17 -16 0 -31 -30 -43 -66 -28 -18 8 -39 11 -47 8 -9 -3 -21 4 -30 16
-13 19 -18 20 -29 9 -8 -7 -12 -24 -10 -37 3 -16 0 -23 -9 -22 -31 5 -49 -1
-49 -15 0 -8 6 -15 14 -15 8 0 18 -4 21 -10 10 -16 -22 -11 -39 6 -14 13 -20
14 -46 2 -17 -7 -30 -20 -30 -29 0 -17 30 -49 46 -49 5 0 16 -9 24 -20 8 -11
21 -20 28 -20 8 0 12 -6 9 -12 -2 -7 -14 -12 -26 -10 -16 3 -24 -3 -28 -16 -4
-17 -13 -20 -56 -20 -67 1 -117 -11 -124 -28 -6 -16 -33 -19 -33 -4 0 21 -26
9 -47 -22 -15 -22 -19 -36 -13 -42 7 -7 4 -16 -11 -27 -20 -15 -20 -17 -4 -32
9 -9 13 -22 10 -27 -4 -6 -8 -26 -9 -45 -3 -26 1 -35 13 -36 10 0 12 -2 4 -6
-16 -6 -17 -33 -1 -33 6 0 9 -2 6 -5 -3 -3 -18 -1 -33 5 -37 14 -53 -1 -52
-50 1 -33 3 -37 16 -27 12 10 13 9 2 -11 -10 -18 -9 -23 4 -28 10 -4 13 -13 9
-26 -4 -15 -2 -19 12 -16 14 2 21 -6 28 -33 11 -44 3 -71 -19 -63 -10 4 -14
14 -10 28 2 11 2 15 -1 9 -7 -16 -48 -17 -75 -3 -15 8 -19 7 -19 -5 0 -8 -9
-15 -19 -15 -11 0 -22 -4 -25 -8 -3 -5 14 -8 37 -8 36 1 43 -3 55 -28 8 -16
10 -31 6 -35 -5 -3 -17 -21 -27 -39 -17 -33 -17 -34 4 -39 l22 -6 -22 -16
c-28 -21 -54 -93 -38 -103 13 -8 11 -10 -25 -26 -22 -9 -28 -18 -28 -42 0 -17
8 -42 17 -57 16 -25 16 -25 -3 -19 -17 5 -20 2 -19 -21 1 -16 -4 -34 -9 -42
-8 -10 -8 -15 2 -18 21 -8 13 -30 -12 -37 -13 -3 -26 -15 -29 -26 -3 -11 -13
-23 -24 -27 -28 -12 -24 -39 12 -80 27 -31 36 -36 46 -25 17 16 26 15 26 -3 0
-9 -6 -14 -14 -11 -16 6 -16 5 -4 -27 6 -14 20 -28 32 -32 16 -5 18 -9 9 -15
-11 -7 -10 -14 4 -34 9 -15 14 -30 11 -35 -2 -5 6 -12 20 -15 14 -4 25 -11 25
-16 0 -6 14 -10 30 -10 17 0 30 4 30 10 0 12 -53 40 -77 40 -16 1 -16 2 2 13
25 15 32 47 10 47 -8 0 -15 2 -15 5 0 10 42 46 63 55 l22 9 -23 0 c-29 1 -25
22 6 36 12 5 22 18 22 28 0 15 2 16 14 5 11 -11 11 -15 -5 -26 -16 -11 -17
-17 -7 -35 l12 -22 6 24 c5 21 12 25 47 26 37 1 40 -1 34 -19 -5 -12 -18 -25
-30 -31 -11 -5 -19 -15 -17 -22 3 -6 -2 -14 -10 -17 -25 -10 -10 -31 19 -28
36 5 34 -4 -5 -25 -26 -14 -29 -18 -15 -21 10 -2 16 -10 14 -17 -3 -7 0 -18 6
-24 8 -8 6 -11 -8 -11 -17 -1 -18 -2 -5 -13 9 -7 15 -28 14 -52 0 -45 30 -97
52 -88 10 4 12 0 8 -11 -5 -12 0 -19 15 -23 26 -7 28 -23 3 -23 -26 0 -34 -11
-21 -27 9 -10 7 -13 -9 -13 -12 0 -23 -4 -27 -10 -3 -5 -12 -7 -19 -4 -8 3
-17 1 -21 -5 -3 -6 1 -11 9 -11 9 0 16 -4 16 -10 0 -5 -4 -10 -9 -10 -5 0 -11
-18 -15 -40 -3 -23 -13 -43 -21 -46 -8 -4 -15 -12 -15 -19 0 -7 -6 -15 -12
-18 -10 -3 -10 -10 2 -31 11 -21 19 -26 37 -21 16 4 23 1 23 -9 0 -8 6 -17 13
-19 6 -2 0 -3 -15 -1 -20 2 -33 -4 -50 -25 -13 -15 -32 -32 -42 -38 -25 -14
-56 -5 -49 13 6 16 -5 18 -26 5 -7 -5 -11 -13 -7 -19 3 -6 2 -13 -4 -17 -15
-9 -12 -25 5 -25 9 0 12 6 9 15 -4 8 -1 15 5 15 21 0 25 -32 6 -46 -25 -19
-32 -18 -52 6 -10 11 -23 20 -30 20 -26 0 -12 29 17 35 16 4 30 11 30 17 0 6
8 17 18 24 10 8 12 13 5 14 -7 0 -10 7 -7 15 5 11 -1 15 -19 15 -14 0 -27 -7
-30 -14 -4 -11 -16 -13 -41 -9 -31 5 -37 2 -45 -20 -8 -20 -16 -25 -47 -25
-21 0 -32 3 -25 8 9 5 8 11 -4 24 -22 21 -22 21 -23 -15 -1 -39 -2 -40 -49
-43 -22 -2 -50 -9 -64 -17 -13 -7 -27 -12 -31 -11 -3 1 -12 -5 -18 -13 -16
-19 -34 -19 -50 0 -15 18 -41 20 -37 4 1 -6 -4 -14 -10 -16 -9 -3 -13 5 -13
22 0 19 -4 26 -14 22 -8 -3 -31 -1 -51 4 -35 10 -36 11 -20 29 12 13 13 20 4
25 -7 5 -18 -1 -28 -13 l-16 -22 -44 25 c-23 14 -49 25 -57 25 -7 0 -17 6 -21
13 -9 15 -105 38 -154 37 -52 -2 -181 9 -187 15 -3 3 4 5 16 5 33 0 26 27 -10
40 -18 7 -27 14 -20 17 26 10 11 32 -25 38 -21 3 -46 8 -56 10 -9 2 -15 -1
-11 -6 3 -5 0 -9 -5 -9 -6 0 -11 -8 -11 -19 0 -10 -7 -24 -16 -32 -9 -7 -23
-28 -32 -48 -18 -37 -41 -46 -84 -32 l-27 9 0 -500 c-1 -429 1 -502 14 -515
20 -19 20 -63 0 -63 -13 0 -15 -149 -15 -1285 l0 -1285 6400 0 6400 0 0 1930
0 1930 -23 0 c-13 0 -27 -4 -33 -10 -5 -5 -24 -6 -49 0 -25 6 -41 6 -43 0 -6
-16 -30 -11 -44 8 -7 11 -20 21 -28 25 -8 3 3 6 25 6 75 1 150 8 173 15 l22 7
0 450 0 449 -70 0 c-92 0 -120 13 -115 54 4 33 -17 72 -34 62 -5 -4 -14 2 -20
12 -7 13 -18 18 -38 15 -21 -3 -34 2 -52 21 -14 14 -33 26 -43 26 -10 0 -21 7
-24 15 -4 8 -11 15 -18 15 -6 0 -24 7 -40 15 -15 8 -38 12 -50 9 -14 -3 -28 2
-40 15 -28 31 -84 29 -96 -4 -13 -33 -30 -32 -66 6 -25 26 -34 30 -65 25 -23
-4 -42 -1 -55 9 -25 19 -53 19 -76 -2 -17 -15 -21 -15 -51 -1 -19 9 -40 12
-52 8 -11 -5 -39 -6 -63 -3 -40 5 -46 3 -82 -32 -30 -29 -44 -37 -65 -33 -21
4 -35 -3 -68 -35 -23 -22 -46 -49 -52 -61 -6 -11 -19 -23 -30 -25 -27 -5 -35
-19 -35 -62 0 -28 -5 -38 -20 -42 -14 -3 -20 -14 -20 -31 0 -41 -37 -53 -87
-28 -40 19 -41 19 -54 1 -7 -11 -22 -19 -33 -19 -24 0 -106 -79 -106 -102 0
-10 -6 -18 -12 -18 -11 0 -34 -16 -88 -62 -8 -7 -20 -13 -28 -13 -7 0 -21 -11
-31 -24 -17 -23 -21 -23 -87 -14 -74 11 -95 8 -88 -11 6 -16 -66 -40 -80 -26
-6 6 -25 10 -43 10 -26 0 -33 -4 -34 -20 -1 -11 -2 -24 -3 -29 -2 -21 -25 -32
-74 -38 -29 -3 -52 -11 -52 -17 0 -20 -37 -35 -74 -29 -58 9 -86 -3 -86 -37 0
-19 7 -34 21 -42 11 -7 27 -28 34 -45 8 -18 27 -41 44 -51 l30 -18 -37 -41
c-20 -22 -47 -46 -59 -52 -13 -7 -23 -16 -23 -22 0 -6 -7 -17 -15 -25 -9 -9
-13 -25 -9 -38 3 -14 -1 -27 -10 -35 -18 -15 -21 -48 -5 -53 14 -5 0 -38 -16
-38 -33 0 -27 -94 7 -103 15 -4 17 -9 9 -24 -5 -10 -12 -26 -15 -36 -3 -10
-10 -16 -15 -12 -5 3 -12 1 -16 -5 -3 -5 -1 -10 5 -10 6 0 8 -4 5 -10 -3 -5 3
-17 14 -27 14 -11 19 -24 15 -39 -4 -16 0 -26 15 -34 12 -6 21 -7 21 -3 1 8
30 -55 30 -63 0 -2 -8 -4 -18 -4 -10 0 -23 -5 -28 -10 -8 -8 -15 -6 -24 5 -7
8 -27 15 -45 15 -22 0 -37 7 -47 21 -11 18 -25 22 -86 24 -59 3 -72 0 -72 -12
0 -11 -6 -13 -22 -8 -61 18 -69 18 -75 -3 -3 -13 -10 -19 -19 -15 -8 3 -14 0
-14 -7 0 -7 -8 -10 -20 -7 -14 3 -20 0 -20 -10 0 -13 -3 -13 -15 -3 -20 17
-29 7 -16 -18 16 -31 1 -33 -24 -4 -22 25 -24 26 -42 11 -14 -13 -30 -15 -78
-9 l-60 8 -34 -39 c-29 -35 -37 -39 -66 -33 -27 5 -33 2 -38 -15 -4 -15 -13
-21 -34 -21 -24 0 -29 5 -31 26 -1 14 -5 31 -9 37 -4 6 -8 25 -10 42 -6 56 -9
66 -26 85 -18 22 -9 28 11 8 9 -9 12 -9 12 3 0 26 -34 49 -73 49 -20 0 -37 5
-37 11 0 5 -8 9 -17 8 -38 -6 -60 17 -59 63 1 31 -4 48 -19 60 -19 17 -19 19
-3 31 10 8 15 17 11 20 -3 4 3 7 14 7 16 0 20 -6 18 -25 -4 -31 10 -33 26 -4
13 24 -5 69 -27 69 -7 0 -10 8 -7 20 4 14 0 20 -10 20 -11 0 -14 9 -12 37 2
21 0 42 -5 48 -12 14 -7 60 8 74 7 7 12 8 12 1 0 -5 9 -10 20 -10 26 0 26 16
-1 30 -22 12 -18 25 8 25 9 0 18 6 20 13 3 8 -6 12 -26 12 -33 0 -49 15 -26
24 21 8 18 23 -7 37 -16 9 -23 9 -26 0 -6 -18 -21 -13 -16 7 2 9 0 23 -5 31
-8 13 -15 13 -50 1 -22 -7 -38 -16 -36 -20 3 -5 -2 -11 -11 -14 -23 -9 -34 -7
-34 4 0 6 7 10 15 10 18 0 20 17 3 22 -7 3 -6 7 5 11 9 3 17 2 17 -3 0 -6 6
-10 14 -10 8 0 13 8 12 18 -1 11 5 16 18 14 15 -3 17 0 11 15 -4 10 -11 32
-15 48 -4 17 -8 24 -9 16 -1 -7 -7 -11 -15 -8 -8 3 -19 -5 -26 -21 -8 -18 -14
-22 -18 -13 -2 7 2 17 9 22 10 6 11 9 2 9 -7 0 -13 9 -13 21 0 12 -4 17 -11
14 -6 -4 -8 -13 -5 -21 6 -15 -3 -18 -20 -6 -17 12 -23 39 -11 51 8 8 5 11
-10 11 -25 0 -41 19 -25 29 8 5 7 18 -5 43 -13 29 -23 37 -52 42 -71 12 -79
14 -99 32 -18 15 -19 19 -5 32 13 13 13 17 -2 31 -14 14 -17 14 -25 1 -5 -8
-12 -11 -17 -7 -4 5 -2 12 5 16 17 10 5 41 -17 43 -9 0 -35 2 -58 3 -44 1 -87
29 -79 51 3 7 -1 17 -8 23 -16 14 -54 10 -60 -6 -3 -7 -11 -13 -18 -13 -16 0
-58 45 -77 83 -9 16 -23 27 -35 27 -19 0 -18 -2 8 -24 29 -23 29 -23 5 -22
-14 1 -24 -5 -24 -13 0 -8 -9 -17 -19 -21 -14 -4 -16 -9 -8 -14 7 -4 12 -18
12 -32 0 -16 7 -27 21 -32 18 -7 19 -10 6 -21 -12 -10 -21 -10 -38 -1 -17 10
-19 14 -8 21 12 8 12 10 0 18 -8 5 -10 14 -6 21 5 8 4 11 -3 6 -6 -3 -15 2
-21 11 -6 10 -11 14 -11 9 0 -5 -6 -4 -12 1 -7 6 -30 14 -52 17 -36 7 -38 6
-33 -13 5 -22 -8 -30 -16 -8 -6 17 -13 7 -20 -29 -5 -26 -2 -33 18 -44 33 -18
40 -50 11 -50 -27 0 -30 -38 -4 -67 15 -17 16 -23 5 -46 -11 -24 -39 -39 -36
-19 5 31 -30 70 -52 57 -4 -3 -14 3 -21 15 -7 11 -23 20 -36 20 -21 0 -23 -3
-18 -27 6 -27 6 -27 -9 -8 -13 16 -19 18 -35 7 -12 -7 -31 -10 -46 -6 -23 6
-25 5 -16 -12 12 -24 -12 -53 -25 -31 -4 8 -20 22 -36 32 -21 14 -30 15 -42 5
-8 -6 -22 -9 -33 -6 -14 5 -22 -2 -35 -30 -10 -19 -15 -40 -12 -45 4 -5 0 -12
-9 -15 -8 -3 -12 -12 -9 -20 3 -8 -1 -14 -10 -14 -8 0 -17 -10 -21 -22 -10
-38 -7 -51 10 -44 10 4 14 1 12 -6 -3 -7 -18 -15 -34 -16 -16 -2 -35 -8 -41
-14 -9 -7 -17 -7 -27 1 -11 9 -15 9 -18 0 -3 -8 -11 -10 -24 -5 -12 6 -15 10
-6 13 17 7 15 39 -4 69 -9 13 -14 28 -10 32 4 3 11 0 15 -7 6 -10 10 -10 16
-2 5 9 10 9 21 0 12 -10 17 -9 27 1 10 10 9 12 -4 7 -10 -3 -22 5 -32 23 -13
22 -14 29 -5 33 10 3 10 7 -1 20 -9 12 -10 17 -2 17 7 0 9 5 6 10 -3 6 -1 10
4 10 20 0 11 22 -10 27 -18 5 -20 12 -16 47 2 23 6 46 7 51 3 11 -6 39 -22 69
-8 15 -6 22 8 33 15 11 16 15 5 22 -9 6 -10 11 -3 15 6 4 9 13 5 21 -3 9 1 15
9 15 18 0 38 34 28 50 -4 7 -12 10 -18 6 -6 -3 -13 -2 -16 2 -3 5 -16 7 -29 5
-18 -4 -26 2 -37 24 -24 52 -10 113 24 100 10 -4 15 -11 12 -16 -9 -13 19 -32
38 -25 9 3 16 12 16 20 0 8 6 14 13 14 7 1 5 6 -5 14 -22 16 -24 30 -3 22 8
-3 21 4 28 15 14 19 15 19 15 -6 0 -14 -4 -25 -8 -25 -19 0 -1 -35 18 -36 20
-1 21 2 15 45 -3 25 -10 48 -15 49 -15 6 -8 20 12 27 33 10 24 28 -11 21 -27
-5 -30 -4 -24 14 6 18 2 20 -42 20 -72 0 -87 -7 -112 -55 -20 -38 -27 -44 -51
-41 -39 4 -50 14 -50 42 0 16 -8 28 -25 36 -29 13 -33 28 -8 28 9 0 13 3 9 7
-4 4 -15 8 -24 8 -9 0 -18 7 -20 16 -2 10 3 17 10 16 49 -2 78 4 78 17 0 16
44 29 70 21 32 -10 48 67 21 98 -18 21 -21 49 -7 59 16 11 -22 40 -40 30 -20
-11 -66 -3 -58 10 3 5 -2 19 -13 30 -10 12 -13 18 -6 14 9 -5 12 2 10 24 -2
34 -1 34 -26 18 -11 -6 -26 -8 -37 -3 -11 4 -26 9 -34 10 -52 6 -60 15 -60 66
0 45 -2 49 -22 46 -13 -1 -22 3 -21 10 1 6 -4 14 -12 17 -10 3 -17 -3 -21 -19
-7 -30 -8 -30 -72 -9 -54 18 -54 17 1 76 21 22 22 42 2 34 -10 -4 -15 1 -15
14 0 27 -14 25 -28 -2 -8 -17 -11 -19 -11 -6 -1 21 -54 48 -72 37 -10 -6 -11
-9 -1 -9 23 0 13 -40 -14 -50 -33 -13 -34 -13 -34 8 0 9 -9 28 -20 42 -17 21
-21 23 -30 10 -8 -13 -10 -12 -11 5 -1 11 -3 25 -4 30 -2 6 -3 15 -4 20 0 6
-20 10 -43 10 -41 0 -43 1 -43 30 0 32 -45 81 -53 57 -2 -7 -15 -12 -28 -12
-19 0 -24 5 -24 25 0 13 -8 29 -17 34 -10 6 -14 11 -9 11 5 0 1 10 -10 21 -19
21 -19 22 4 14 22 -6 23 -5 10 17 -7 12 -14 25 -16 28 -1 2 -14 -8 -27 -24
-13 -15 -28 -25 -34 -22 -11 7 -34 -28 -25 -37 3 -3 3 -15 -1 -27 -5 -17 -10
-19 -21 -9 -7 6 -21 8 -30 5 -12 -5 -15 -2 -10 10 5 12 2 15 -10 10 -13 -5
-15 -1 -10 20 6 24 5 26 -19 22 -21 -4 -25 -2 -20 13 4 13 -3 23 -27 36 -18
10 -40 18 -48 18 -8 0 -22 15 -32 33 -9 19 -19 29 -23 23 -3 -6 -4 -14 -2 -18
3 -5 0 -13 -7 -19 -15 -14 -54 -1 -62 21 -9 23 -26 18 -19 -5 8 -25 -3 -26
-21 -3 -16 23 -25 14 -28 -30 -4 -41 -12 -57 -32 -57 -9 0 -14 -11 -14 -32 0
-27 -17 -75 -21 -58 0 3 -2 14 -4 25 -2 10 -12 26 -23 35 -10 8 -22 22 -25 31
-3 9 -21 19 -40 23 -38 7 -55 39 -35 64 9 10 8 16 -3 24 -11 7 -11 11 -1 15
14 5 17 33 3 33 -5 0 -11 -5 -13 -11 -2 -6 -10 2 -18 18 -8 15 -23 37 -33 47
-17 20 -17 20 -32 0 -10 -14 -17 -16 -23 -7 -9 14 -62 37 -79 34 -7 -1 -13 7
-13 17 0 13 -9 22 -26 26 -31 8 -43 1 -26 -16 16 -16 15 -30 0 -26 -7 1 -26
-1 -41 -5 l-28 -8 23 -32 c15 -21 16 -27 5 -18 -14 11 -18 11 -23 -2 -4 -10 4
-25 19 -40 15 -13 24 -31 22 -43 -2 -10 -4 -21 -4 -24 -1 -3 -14 -5 -30 -5
-16 0 -29 4 -28 9 3 14 -42 34 -64 29 -11 -3 -19 -14 -19 -25 0 -15 -5 -19
-20 -15 -24 6 -65 -27 -54 -45 4 -7 16 -23 27 -35 10 -12 16 -26 12 -32 -8
-14 -46 -14 -79 -1 -33 12 -34 32 -2 24 13 -3 27 -1 30 5 4 6 3 11 -3 11 -6 0
-18 14 -26 30 -9 17 -20 28 -26 25 -5 -4 -7 -11 -4 -16 4 -5 -6 -9 -21 -9 -25
0 -26 1 -11 18 15 16 15 19 -3 30 -26 16 -43 15 -37 -2 3 -8 0 -17 -8 -20 -8
-3 -17 3 -20 15 -4 10 -11 17 -16 14 -5 -4 -9 1 -9 9 0 18 -25 22 -35 6 -3 -5
-16 -10 -28 -10 -19 1 -20 2 -7 13 27 22 45 66 32 79 -7 7 -12 19 -12 28 0 25
-32 51 -50 40 -8 -5 -21 -5 -31 1 -27 14 -43 -20 -22 -44 25 -26 8 -32 -24 -7
-26 20 -28 20 -40 4 -7 -10 -13 -26 -13 -36 0 -11 -5 -15 -14 -12 -8 3 -17 1
-21 -5 -3 -6 -15 -11 -27 -11 -16 0 -19 -5 -16 -24 4 -21 0 -26 -37 -36 -37
-10 -45 -10 -64 6 -23 20 -27 34 -10 34 11 0 39 24 39 34 0 12 -58 6 -63 -6
-2 -7 -7 4 -11 25 -8 41 -8 42 -36 25 -16 -11 -22 -9 -34 7 -14 20 -15 19 -24
-5 -5 -14 -7 -31 -5 -38 3 -7 -1 -19 -8 -28 -7 -9 -14 -33 -15 -54 -1 -31 2
-39 20 -45 12 -4 16 -8 9 -11 -7 -3 -21 -1 -31 5 -16 9 -21 7 -25 -11 -4 -14
-11 -19 -23 -14 -11 4 -15 2 -11 -8 4 -9 -6 -20 -26 -30 -18 -8 -28 -16 -24
-16 5 0 -1 -13 -13 -30 -14 -19 -26 -27 -38 -24 -12 4 -13 3 -4 -3 7 -5 10
-16 7 -24 -7 -19 19 -54 33 -45 21 13 14 38 -8 31 -15 -5 -18 -3 -14 8 3 8 16
15 29 15 18 0 28 -10 41 -36 12 -25 13 -37 5 -40 -6 -2 -9 -7 -6 -12 3 -4 -2
-10 -10 -14 -8 -3 -15 0 -15 6 0 6 -3 8 -7 5 -3 -4 -12 -2 -20 4 -10 9 -13 8
-14 -2 -1 -8 -4 -3 -8 11 -9 32 -37 38 -44 9 -7 -25 -27 -17 -21 9 2 9 -3 26
-11 36 -11 15 -17 16 -28 8 -11 -10 -14 -6 -15 19 -1 24 2 29 11 20 17 -17 24
-14 36 19 7 23 16 30 35 30 28 0 33 -9 14 -28 -9 -9 -8 -12 4 -12 9 0 18 10
21 23 2 12 8 31 12 42 5 11 5 17 0 13 -4 -4 -14 -3 -22 3 -10 9 -10 15 -2 25
6 8 8 14 4 14 -4 0 -1 8 6 17 13 15 12 16 -8 11 -25 -7 -30 6 -13 32 9 13 11
13 20 0 9 -13 10 -13 10 0 0 8 -4 21 -9 29 -7 11 -10 11 -17 -2 -7 -12 -20
-14 -61 -9 -46 6 -50 9 -39 24 11 15 15 15 40 2 35 -17 36 -17 36 1 0 9 -7 18
-15 21 -8 4 -15 12 -15 19 0 8 -5 17 -12 21 -8 5 -9 0 -6 -14 11 -40 -20 -24
-43 24 -13 25 -35 57 -49 72 -14 14 -19 22 -12 18 6 -4 12 -2 12 3 0 20 -20
11 -30 -11 -5 -15 -9 -17 -9 -7 -1 16 -54 69 -70 69 -5 0 -11 6 -14 13 -3 8
-14 5 -37 -12 -27 -19 -37 -22 -51 -12 -28 16 -36 14 -43 -14 -4 -14 -11 -25
-16 -25 -6 0 -10 -7 -10 -15 0 -20 -8 -19 -57 10 -33 18 -43 20 -43 9 0 -21
-38 -17 -57 6 -18 20 -53 28 -53 11 0 -17 -33 -21 -50 -6 -20 18 -42 19 -57 4
-9 -9 -16 -8 -28 5 -9 9 -21 16 -26 16 -5 0 -9 9 -9 20 0 11 -7 20 -15 20 -25
0 -66 23 -61 35 7 20 -31 60 -60 60 -14 1 -28 -4 -30 -10z m741 -265 c3 -5 1
-10 -4 -10 -6 0 -11 -7 -11 -15 0 -8 -4 -15 -10 -15 -11 0 -13 11 -4 34 7 18
20 21 29 6z m1510 0 c-3 -5 -10 -10 -16 -10 -5 0 -9 5 -9 10 0 6 7 10 16 10 8
0 12 -4 9 -10z m-1562 -39 c-2 -6 17 -20 42 -32 25 -12 45 -25 45 -30 0 -13
-7 -11 -36 7 -23 16 -26 16 -38 -2 -12 -15 -19 -17 -42 -9 -36 13 -42 37 -12
50 13 6 22 17 20 24 -1 7 3 11 10 8 7 -2 12 -10 11 -16z m-708 -19 c3 -34 -18
-46 -40 -22 -10 11 -13 20 -7 20 7 0 12 7 12 16 0 25 33 12 35 -14z m1595 2
c0 -2 -7 -4 -15 -4 -8 0 -15 4 -15 10 0 5 7 7 15 4 8 -4 15 -8 15 -10z m-2050
-74 c0 -5 -2 -10 -4 -10 -3 0 -8 5 -11 10 -3 6 -1 10 4 10 6 0 11 -4 11 -10z
m2124 -6 c9 -23 8 -24 -14 -24 -19 0 -27 20 -13 33 11 11 20 8 27 -9z m1061
-52 c-5 -14 -7 -14 -16 -2 -8 13 -10 13 -19 0 -6 -10 -10 -11 -10 -3 0 7 9 18
20 25 11 7 21 20 21 28 1 8 4 5 6 -8 3 -13 2 -31 -2 -40z m-2134 33 c0 -5 5
-15 11 -22 5 -7 14 -28 18 -48 9 -39 -6 -58 -25 -32 -10 14 -12 14 -23 -3 -15
-24 -32 -18 -60 19 -19 26 -19 31 -6 47 14 18 15 18 9 -3 -4 -14 -2 -23 4 -23
10 0 15 14 12 34 -5 26 12 47 35 44 14 -2 25 -7 25 -13z m1159 -17 c0 -19 -2
-20 -10 -8 -13 19 -13 30 0 30 6 0 10 -10 10 -22z m-1450 -14 c8 -8 9 -14 4
-13 -21 4 -35 -2 -29 -11 4 -6 12 -7 18 -3 7 4 5 -2 -3 -12 -11 -14 -12 -19
-2 -22 6 -3 12 -12 12 -21 0 -9 7 -26 15 -36 16 -22 19 -36 7 -36 -8 0 -52 80
-52 96 0 7 -7 14 -15 18 -8 3 -15 12 -15 20 0 10 6 13 15 10 8 -4 17 1 21 10
8 20 8 20 24 0z m1482 1 c0 -5 -5 -11 -11 -13 -6 -2 -11 4 -11 13 0 9 5 15 11
13 6 -2 11 -8 11 -13z m-1035 -1 c-3 -3 -12 -4 -19 -1 -8 3 -5 6 6 6 11 1 17
-2 13 -5z m-9 -26 c8 -8 8 -17 0 -31 -11 -22 5 -39 29 -30 9 4 11 0 7 -11 -3
-9 -1 -16 5 -16 6 0 11 9 11 20 0 19 1 19 18 3 11 -10 17 -21 15 -25 -2 -5 3
-8 11 -8 10 0 13 6 10 15 -4 9 0 15 10 15 10 0 13 -5 9 -17 -4 -11 -3 -14 5
-9 17 10 15 -11 -4 -39 -13 -20 -14 -28 -4 -40 10 -12 9 -15 -4 -15 -9 0 -16
6 -16 14 0 17 -49 66 -66 66 -8 0 -16 -11 -20 -25 -7 -29 -38 -33 -66 -8 -22
20 -23 39 -3 47 11 4 14 17 11 50 -2 24 -2 47 1 50 10 10 28 7 41 -6z m-523
-29 c8 -24 -1 -39 -24 -39 -18 0 -32 33 -24 57 6 17 42 3 48 -18z m699 10 c-8
-14 -24 -10 -24 6 0 9 6 12 15 9 8 -4 12 -10 9 -15z m-494 -36 c0 -17 -10 -16
-34 2 -15 11 -16 16 -5 28 12 12 15 12 26 -2 7 -9 13 -22 13 -28z m1600 43 c0
-3 -4 -8 -10 -11 -5 -3 -10 -1 -10 4 0 6 5 11 10 11 6 0 10 -2 10 -4z m-1869
-13 c0 -5 2 -18 3 -30 2 -13 -1 -23 -6 -23 -4 0 -8 6 -8 14 0 8 -3 21 -6 30
-3 9 -1 16 5 16 6 0 11 -3 12 -7z m1034 -23 c7 0 13 -11 13 -25 0 -14 -2 -25
-4 -25 -4 0 -34 62 -33 69 0 3 3 0 6 -6 2 -7 10 -13 18 -13z m159 3 c4 -4 -3
-15 -16 -24 -12 -10 -19 -21 -15 -25 4 -4 13 -1 20 8 23 29 46 30 53 2 8 -30
5 -33 -32 -40 -22 -3 -25 -2 -14 6 14 9 7 15 -14 11 -4 -1 -14 3 -21 9 -11 9
-11 17 -3 36 11 24 28 31 42 17z m241 -3 c3 -5 1 -10 -4 -10 -6 0 -11 5 -11
10 0 6 2 10 4 10 3 0 8 -4 11 -10z m425 -5 c0 -8 -4 -15 -10 -15 -5 0 -10 7
-10 15 0 8 5 15 10 15 6 0 10 -7 10 -15z m1138 -6 c-2 -6 -8 -10 -13 -10 -5 0
-11 4 -13 10 -2 6 4 11 13 11 9 0 15 -5 13 -11z m-2778 -8 c0 -5 -9 -11 -20
-14 -13 -3 -20 0 -20 9 0 8 9 14 20 14 11 0 20 -4 20 -9z m1334 -7 c7 -19 0
-34 -17 -34 -8 0 -8 3 2 9 9 6 10 11 2 15 -13 9 -15 26 -2 26 5 0 12 -7 15
-16z m-1859 -16 c9 -14 11 -24 5 -26 -14 -5 -40 17 -40 34 0 21 17 17 35 -8z
m1695 -14 c0 -7 -9 -16 -20 -19 -11 -4 -18 -11 -14 -16 3 -5 10 -7 15 -4 14 9
11 -5 -5 -21 -29 -28 -34 -8 -15 59 8 32 13 36 25 26 8 -6 14 -17 14 -25z
m756 10 c-4 -9 -9 -15 -11 -12 -3 3 -3 13 1 22 4 9 9 15 11 12 3 -3 3 -13 -1
-22z m274 16 c0 -5 -4 -10 -10 -10 -5 0 -10 5 -10 10 0 6 5 10 10 10 6 0 10
-4 10 -10z m-2345 -10 c3 -5 1 -10 -4 -10 -6 0 -11 5 -11 10 0 6 2 10 4 10 3
0 8 -4 11 -10z m2122 -24 c-4 -9 -11 -16 -16 -16 -15 0 -23 33 -9 41 17 11 32
-5 25 -25z m-2422 -6 c-5 -8 -11 -8 -17 -2 -6 6 -7 16 -3 22 5 8 11 8 17 2 6
-6 7 -16 3 -22z m1552 14 c3 -8 0 -21 -6 -27 -9 -9 -11 -8 -5 7 4 11 2 21 -7
27 -10 6 -11 9 -1 9 7 0 15 -7 19 -16z m910 -10 c-4 -21 -1 -25 14 -21 11 3
19 1 19 -4 0 -5 -4 -9 -9 -9 -5 0 -11 -8 -13 -17 -2 -14 -6 -12 -20 9 -9 14
-14 35 -11 47 8 30 26 26 20 -5z m-740 -12 c-10 -11 -14 -26 -10 -40 4 -18 1
-24 -16 -29 -11 -3 -21 -10 -21 -16 0 -15 -38 22 -45 44 -9 28 21 53 61 51 21
-2 34 2 34 9 0 7 3 9 7 6 3 -4 -1 -15 -10 -25z m-2493 -50 c1 -25 -3 -32 -18
-32 -15 0 -16 -3 -7 -14 15 -17 0 -29 -26 -20 -57 19 -81 36 -85 59 -4 21 -1
25 19 25 14 0 22 4 18 11 -5 7 11 9 46 7 51 -3 52 -3 53 -36z m951 17 c4 -6
19 -7 36 -4 17 4 29 2 29 -4 0 -5 -8 -10 -17 -10 -10 0 -37 0 -60 -1 -43 -2
-63 4 -63 21 0 13 67 12 75 -2z m1331 -10 c3 -6 1 -15 -6 -19 -7 -4 -9 -13 -6
-19 4 -6 1 -11 -8 -11 -10 0 -14 10 -14 30 1 30 20 41 34 19z m-1436 -9 c0 -5
-4 -10 -10 -10 -5 0 -10 5 -10 10 0 6 5 10 10 10 6 0 10 -4 10 -10z m938 -22
c-5 -16 -48 -24 -48 -9 0 8 17 16 43 20 5 0 7 -5 5 -11z m309 -12 c17 -18 17
-19 -2 -11 -11 4 -35 11 -52 17 -43 12 -42 17 2 14 19 -1 43 -10 52 -20z
m-1037 -21 c10 -12 15 -13 21 -4 6 10 11 10 23 0 24 -20 19 -31 -11 -27 -43 5
-85 25 -78 36 9 15 31 12 45 -5z m-295 -5 c3 -5 1 -10 -4 -10 -6 0 -11 5 -11
10 0 6 2 10 4 10 3 0 8 -4 11 -10z m1453 -15 c-3 -3 -9 2 -12 12 -6 14 -5 15
5 6 7 -7 10 -15 7 -18z m707 5 c3 -5 2 -10 -4 -10 -5 0 -13 5 -16 10 -3 6 -2
10 4 10 5 0 13 -4 16 -10z m-2965 -10 c0 -5 -4 -10 -10 -10 -5 0 -10 5 -10 10
0 6 5 10 10 10 6 0 10 -4 10 -10z m1078 -7 c15 -10 30 -22 34 -27 11 -17 -11
-34 -35 -28 -28 7 -66 32 -49 32 9 0 11 7 7 20 -8 25 7 26 43 3z m1827 7 c3
-5 -1 -10 -10 -10 -9 0 -13 5 -10 10 3 6 8 10 10 10 2 0 7 -4 10 -10z m-2847
-11 c-2 -6 -8 -10 -13 -10 -5 0 -11 4 -13 10 -2 6 4 11 13 11 9 0 15 -5 13
-11z m2087 -10 c-3 -9 -1 -20 5 -24 16 -10 12 -25 -5 -18 -9 3 -22 -2 -29 -12
-15 -21 -23 -12 -26 30 -3 41 -4 40 30 41 25 1 29 -2 25 -17z m-37 -75 c15 -4
32 -11 39 -16 7 -5 14 -5 18 2 3 5 1 10 -6 10 -7 0 -10 2 -7 5 9 9 58 -17 58
-31 0 -8 -14 -21 -30 -29 -17 -9 -28 -20 -25 -25 7 -12 3 -12 -19 -4 -9 3 -16
15 -16 25 0 22 -11 24 -28 7 -18 -18 -37 4 -24 29 8 15 7 22 -9 31 -22 14 -24
27 -6 46 10 12 13 9 20 -15 5 -20 16 -31 35 -35z m198 41 c1 -8 -1 -15 -6 -15
-10 0 -20 26 -13 34 8 8 16 -1 19 -19z m-1243 -23 c-13 -2 -23 -8 -23 -13 0
-6 -5 -7 -10 -4 -19 12 9 34 33 27 l22 -7 -22 -3z m3354 -7 c-4 -8 -11 -15
-17 -15 -7 0 -7 6 0 21 13 23 26 19 17 -6z m-4149 -10 c-3 -3 -9 2 -12 12 -6
14 -5 15 5 6 7 -7 10 -15 7 -18z m812 -5 c0 -5 -5 -10 -11 -10 -5 0 -7 5 -4
10 3 6 8 10 11 10 2 0 4 -4 4 -10z m-520 -67 c0 -1 -9 -3 -20 -3 -15 0 -20 7
-20 27 l0 26 20 -23 c11 -13 20 -25 20 -27z m3584 -9 c10 -27 7 -34 -19 -34
-27 0 -33 18 -13 38 16 16 25 15 32 -4z m346 2 c0 -3 -4 -8 -10 -11 -5 -3 -10
-1 -10 4 0 6 5 11 10 11 6 0 10 -2 10 -4z m-2289 -49 c-13 -13 -26 -3 -16 12
3 6 11 8 17 5 6 -4 6 -10 -1 -17z m-3076 -7 c3 -5 1 -10 -4 -10 -6 0 -11 5
-11 10 0 6 2 10 4 10 3 0 8 -4 11 -10z m735 -10 c0 -5 -5 -10 -11 -10 -5 0 -7
5 -4 10 3 6 8 10 11 10 2 0 4 -4 4 -10z m4780 -20 c0 -5 -5 -10 -11 -10 -5 0
-7 5 -4 10 3 6 8 10 11 10 2 0 4 -4 4 -10z m100 -51 c0 -5 -10 -9 -21 -9 -18
0 -19 2 -9 15 12 15 30 12 30 -6z m-50 1 c0 -5 -2 -10 -4 -10 -3 0 -8 5 -11
10 -3 6 -1 10 4 10 6 0 11 -4 11 -10z m-5700 -10 c0 -5 -2 -10 -4 -10 -3 0 -8
5 -11 10 -3 6 -1 10 4 10 6 0 11 -4 11 -10z m998 -8 c2 -7 -3 -12 -12 -12 -9
0 -16 7 -16 16 0 17 22 14 28 -4z m4532 8 c0 -5 -4 -10 -10 -10 -5 0 -10 5
-10 10 0 6 5 10 10 10 6 0 10 -4 10 -10z m-5550 -40 c0 -5 -4 -10 -10 -10 -5
0 -10 5 -10 10 0 6 5 10 10 10 6 0 10 -4 10 -10z m5786 -16 c17 6 28 -10 13
-19 -5 -4 -8 -13 -5 -20 3 -8 -4 -17 -15 -20 -10 -4 -19 -11 -19 -16 0 -15
-47 -10 -54 6 -9 23 15 56 36 49 14 -4 18 1 19 23 1 18 3 22 6 10 3 -11 11
-16 19 -13z m-171 6 c3 -5 1 -10 -4 -10 -6 0 -11 5 -11 10 0 6 2 10 4 10 3 0
8 -4 11 -10z m-91 -38 c-6 -9 -18 -17 -27 -17 -9 0 -26 -10 -39 -21 -13 -12
-30 -25 -38 -29 -13 -7 -13 -6 -2 7 7 9 13 32 14 52 1 29 4 34 15 25 7 -6 13
-8 13 -4 0 4 6 2 14 -5 12 -9 17 -7 28 9 8 14 16 17 23 10 6 -6 6 -15 -1 -27z
m79 0 c10 -10 14 -22 10 -27 -5 -4 0 -5 10 -2 9 4 17 2 17 -4 0 -6 6 -7 13 -3
10 6 10 4 0 -7 -21 -22 -14 -30 11 -14 14 10 27 12 30 6 8 -12 -3 -41 -15 -41
-5 0 -9 -6 -9 -14 0 -8 -7 -16 -15 -20 -18 -6 -19 -1 -5 25 7 13 7 19 0 19 -5
0 -10 -5 -10 -11 0 -5 -5 -7 -10 -4 -6 4 -7 11 -4 17 5 7 -2 9 -20 4 -25 -6
-36 6 -16 19 6 4 4 17 -5 35 -8 16 -15 31 -15 35 0 11 18 4 33 -13z m243 -45
c4 -4 -2 -7 -14 -7 -12 0 -22 4 -22 9 0 10 26 9 36 -2z m-4 -39 c-6 -6 -15 -8
-19 -4 -4 4 -1 11 7 16 19 12 27 3 12 -12z m-5539 -9 l21 -12 -24 -9 c-15 -5
-27 -5 -34 2 -15 15 -30 12 -17 -3 8 -11 4 -20 -19 -40 -40 -36 -44 -34 -21 9
11 20 17 42 14 50 -7 18 48 19 80 3z m5429 -13 c-4 -22 7 -20 35 6 13 12 23
16 23 10 0 -6 -5 -14 -10 -17 -6 -4 -8 -11 -5 -16 9 -14 -25 -23 -38 -10 -6 6
-19 11 -29 11 -16 0 -16 3 -6 20 15 23 34 21 30 -4z m-5332 -20 c0 -3 -4 -8
-10 -11 -5 -3 -10 -1 -10 4 0 6 5 11 10 11 6 0 10 -2 10 -4z m742 -16 c24 -22
22 -28 -12 -32 -18 -2 -25 3 -31 25 -9 33 11 37 43 7z m-802 0 c0 -5 -9 -10
-21 -10 -11 0 -17 5 -14 10 3 6 13 10 21 10 8 0 14 -4 14 -10z m885 1 c3 -5 1
-13 -5 -16 -15 -9 -43 3 -35 15 8 13 32 13 40 1z m4471 -32 c15 -6 12 -8 -13
-8 -34 -1 -38 5 -26 35 6 16 7 16 13 -1 4 -10 15 -22 26 -26z m34 21 c0 -5 -2
-10 -4 -10 -3 0 -8 5 -11 10 -3 6 -1 10 4 10 6 0 11 -4 11 -10z m-5402 -22
c-5 -14 -48 -22 -48 -9 0 5 10 12 23 14 12 2 24 5 25 6 2 0 2 -4 0 -11z m-378
-28 c0 -5 -7 -7 -15 -4 -8 4 -15 8 -15 10 0 2 7 4 15 4 8 0 15 -4 15 -10z
m5730 -41 c0 -17 -3 -18 -21 -9 -16 9 -18 14 -9 26 15 17 30 9 30 -17z m330
11 c0 -5 -5 -10 -11 -10 -5 0 -7 5 -4 10 3 6 8 10 11 10 2 0 4 -4 4 -10z
m-4875 -10 c3 -5 -1 -10 -10 -10 -9 0 -13 5 -10 10 3 6 8 10 10 10 2 0 7 -4
10 -10z m-35 -37 c0 -15 -2 -15 -24 -7 -23 9 -20 23 4 21 11 -1 20 -7 20 -14z
m4750 -49 c0 -2 -7 -4 -15 -4 -8 0 -15 4 -15 10 0 5 7 7 15 4 8 -4 15 -8 15
-10z m-210 -24 c0 -5 -9 -10 -21 -10 -11 0 -17 5 -14 10 3 6 13 10 21 10 8 0
14 -4 14 -10z m265 -4 c20 -14 29 -59 11 -53 -6 2 -16 14 -23 27 -6 12 -17 27
-25 31 -10 7 -10 9 3 9 8 0 24 -6 34 -14z m-1495 -32 c0 -8 -5 -12 -10 -9 -6
4 -8 11 -5 16 9 14 15 11 15 -7z m270 -54 c0 -5 -4 -10 -10 -10 -5 0 -10 5
-10 10 0 6 5 10 10 10 6 0 10 -4 10 -10z m210 -14 c0 -3 -4 -8 -10 -11 -5 -3
-10 -1 -10 4 0 6 5 11 10 11 6 0 10 -2 10 -4z m570 -3 c0 -1 -8 -7 -18 -12
-11 -6 -23 -5 -34 3 -14 10 -11 12 18 12 19 0 34 -1 34 -3z m-748 -73 c5 -34
-7 -41 -15 -8 -5 19 -2 38 7 38 2 0 6 -13 8 -30z m6073 20 c3 -5 1 -10 -4 -10
-6 0 -11 5 -11 10 0 6 2 10 4 10 3 0 8 -4 11 -10z m-4790 -10 c-3 -5 -10 -10
-16 -10 -5 0 -9 5 -9 10 0 6 7 10 16 10 8 0 12 -4 9 -10z m-4135 -11 c0 -12
-29 -38 -42 -39 -5 0 -8 7 -8 15 0 8 7 15 15 15 8 0 15 5 15 10 0 6 5 10 10
10 6 0 10 -5 10 -11z m2950 -24 c0 -25 -14 -34 -24 -16 -8 12 3 41 15 41 5 0
9 -11 9 -25z m40 1 c0 -3 -4 -8 -10 -11 -5 -3 -10 -1 -10 4 0 6 5 11 10 11 6
0 10 -2 10 -4z m913 -28 c12 -7 23 -13 25 -14 1 -1 0 -8 -4 -17 -5 -15 -9 -14
-34 6 -44 34 -35 51 13 25z m-919 -14 c8 -22 9 -22 -16 -19 -32 3 -32 3 -18
20 16 19 26 19 34 -1z m816 -46 c0 -5 -9 -4 -19 2 -27 14 -41 13 -41 -5 0 -8
5 -15 10 -15 6 0 10 -4 10 -8 0 -17 -59 -7 -74 13 -8 11 -18 17 -22 13 -4 -4
-1 -14 6 -22 22 -28 5 -36 -27 -14 -18 13 -33 26 -33 29 0 4 16 10 35 13 19 4
39 14 45 24 8 12 13 14 16 5 9 -21 34 -15 34 9 0 21 1 21 30 -7 17 -16 30 -33
30 -37z m5169 26 c16 -20 18 -31 10 -45 -12 -23 -44 -26 -36 -4 4 8 2 17 -3
20 -13 8 -13 55 -1 55 5 0 19 -12 30 -26z m-7663 -49 c9 -38 8 -45 -4 -40 -7
3 -18 5 -23 5 -5 0 -9 7 -9 15 0 8 5 15 10 15 6 0 8 11 4 25 -3 14 -2 25 3 25
4 0 13 -20 19 -45z m1114 -11 c0 -10 -39 4 -71 24 -21 13 -28 22 -17 22 9 0
23 -7 32 -15 17 -17 30 -20 21 -5 -3 6 -3 15 0 21 6 8 35 -31 35 -47z m1620
36 c-19 -13 -30 -13 -30 0 0 6 10 10 23 10 18 0 19 -2 7 -10z m-6010 -10 c0
-5 -5 -10 -11 -10 -5 0 -7 -4 -4 -10 3 -5 2 -10 -3 -10 -12 0 -23 26 -15 34
10 10 33 7 33 -4z m5140 -11 c0 -6 7 -9 15 -5 16 6 19 -3 9 -28 -5 -13 -8 -14
-28 -1 -13 8 -26 12 -29 8 -4 -3 -7 0 -7 9 0 8 3 18 7 21 10 11 33 8 33 -4z
m-2433 -36 c34 -39 40 -53 23 -53 -5 0 -10 -6 -10 -13 0 -8 -13 -13 -35 -13
-19 0 -31 2 -27 6 5 3 11 13 15 23 4 10 11 15 17 12 5 -3 10 1 10 9 0 8 -4 18
-10 21 -13 8 -33 45 -24 45 4 0 22 -17 41 -37z m2373 22 c0 -8 -9 -15 -20 -15
-17 0 -19 2 -8 15 17 19 28 19 28 0z m-1763 -1 c-3 -3 -12 -4 -19 -1 -8 3 -5
6 6 6 11 1 17 -2 13 -5z m-1807 -14 c0 -5 -4 -10 -10 -10 -5 0 -10 5 -10 10 0
6 5 10 10 10 6 0 10 -4 10 -10z m2868 -12 c-6 -18 -28 -21 -28 -4 0 9 7 16 16
16 9 0 14 -5 12 -12z m-3258 -19 c0 -15 -5 -19 -15 -15 -8 3 -15 1 -15 -5 0
-6 -4 -8 -10 -4 -10 6 18 45 32 45 5 0 8 -9 8 -21z m3130 11 c0 -5 -2 -10 -4
-10 -3 0 -8 5 -11 10 -3 6 -1 10 4 10 6 0 11 -4 11 -10z m-2800 -14 c0 -11
-19 -15 -25 -6 -3 5 1 10 9 10 9 0 16 -2 16 -4z m3937 -2 c-3 -3 -12 -4 -19
-1 -8 3 -5 6 6 6 11 1 17 -2 13 -5z m-1962 -14 c3 -5 15 -6 28 -1 12 5 31 5
41 1 17 -6 18 -7 3 -13 -9 -3 -24 -4 -32 -1 -9 4 -15 1 -15 -7 0 -8 -10 -15
-23 -15 -17 -1 -23 4 -25 22 -2 24 12 32 23 14z m1265 -16 c0 -16 -16 -19 -25
-4 -8 13 4 32 16 25 5 -4 9 -13 9 -21z m547 7 c8 8 13 4 19 -12 l8 -24 6 25
c6 23 10 25 56 21 27 -1 54 -7 61 -12 7 -7 13 -5 16 3 3 8 8 4 14 -12 7 -16 6
-28 -1 -36 -12 -13 -39 -7 -30 7 3 5 10 7 15 4 5 -4 9 -1 9 5 0 8 -11 9 -32 5
-45 -10 -48 -13 -48 -42 0 -33 -36 -84 -55 -76 -10 3 -15 19 -15 43 0 38 -1
39 -45 46 -25 3 -42 10 -39 15 3 5 -4 9 -15 9 -20 0 -37 17 -27 27 3 3 17 6
31 6 14 0 28 4 32 10 4 6 11 4 18 -6 8 -12 15 -13 22 -6z m-3424 3 c13 -14
-16 -41 -39 -36 -27 5 -30 12 -12 30 13 13 41 16 51 6z m1799 -33 c-4 -11 -7
-10 -12 4 -9 24 -22 3 -14 -22 4 -14 4 -15 -4 -4 -5 7 -15 10 -21 7 -6 -4 -11
-5 -11 -2 0 2 -3 11 -6 20 -4 11 0 16 14 16 12 0 24 4 27 10 9 15 34 -12 27
-29z m2468 24 c0 -8 -4 -15 -9 -15 -13 0 -22 16 -14 24 11 11 23 6 23 -9z
m-4923 -21 c-9 -9 -28 6 -21 18 4 6 10 6 17 -1 6 -6 8 -13 4 -17z m3323 10
c14 -1 28 -2 33 -3 12 -2 8 -28 -8 -41 -11 -9 -18 -8 -36 9 -13 12 -26 21 -31
21 -4 0 -8 7 -8 16 0 10 5 12 13 7 6 -4 23 -8 37 -9z m1565 -4 c6 -10 -17 -40
-31 -40 -5 0 -3 5 4 12 16 16 15 29 -2 22 -8 -3 -17 -1 -21 5 -4 7 4 11 19 11
14 0 28 -5 31 -10z m-4205 -4 c0 -3 -4 -8 -10 -11 -5 -3 -10 -1 -10 4 0 6 5
11 10 11 6 0 10 -2 10 -4z m1665 -6 c3 -5 -3 -10 -14 -10 -12 0 -21 5 -21 10
0 6 6 10 14 10 8 0 18 -4 21 -10z m1955 -5 c10 -12 10 -15 -4 -15 -9 0 -16 7
-16 15 0 8 2 15 4 15 2 0 9 -7 16 -15z m-548 -17 c-7 -7 -12 -8 -12 -2 0 14
12 26 19 19 2 -3 -1 -11 -7 -17z m231 5 c13 -15 13 -21 2 -36 -11 -15 -17 -16
-34 -8 -25 14 -41 14 -41 0 0 -6 7 -9 15 -5 18 7 20 -10 3 -21 -21 -13 -37
-12 -49 3 -6 8 -15 11 -20 8 -5 -3 -9 5 -9 18 0 19 9 27 43 40 55 22 71 22 90
1z m-3745 -4 c-2 -6 -8 -10 -13 -10 -5 0 -11 4 -13 10 -2 6 4 11 13 11 9 0 15
-5 13 -11z m2060 -1 c-2 -7 3 -12 11 -10 10 2 12 -5 7 -33 -6 -28 -4 -35 9
-35 8 0 15 -5 15 -11 0 -6 -6 -9 -12 -6 -7 2 -19 -3 -26 -12 -11 -15 -13 -15
-22 1 -6 10 -18 14 -30 11 -18 -5 -21 -2 -17 21 2 15 8 31 14 34 5 4 15 17 22
30 12 23 33 30 29 10z m988 -5 c-3 -6 4 -15 15 -18 11 -4 18 -9 16 -11 -7 -7
-55 17 -60 30 -3 7 4 12 14 12 11 0 17 -5 15 -13z m1499 7 c3 -5 2 -10 -4 -10
-5 0 -13 5 -16 10 -3 6 -2 10 4 10 5 0 13 -4 16 -10z m119 -14 c-3 -8 -1 -17
5 -21 19 -11 12 -33 -13 -37 -19 -4 -25 0 -29 19 -3 14 1 23 8 23 7 0 15 7 19
15 3 8 8 15 10 15 3 0 3 -6 0 -14z m-4413 -19 c-10 -9 -11 -8 -5 6 3 10 9 15
12 12 3 -3 0 -11 -7 -18z m215 6 c16 -21 18 -43 4 -43 -5 0 -10 7 -10 16 0 9
-9 18 -20 21 -11 3 -20 9 -20 14 0 16 32 10 46 -8z m2841 -40 c-5 -7 -14 -10
-19 -7 -6 4 -6 9 2 14 6 4 11 10 11 14 -1 3 -1 14 0 24 1 11 4 8 8 -8 4 -14 4
-31 -2 -37z m56 32 c-3 -8 1 -15 8 -15 15 0 3 -13 -14 -16 -9 -1 -12 8 -9 27
2 16 8 26 13 24 4 -3 6 -12 2 -20z m447 11 c0 -8 10 -16 23 -19 18 -3 19 -5 5
-11 -22 -10 -75 23 -56 35 19 13 28 11 28 -5z m564 -11 c11 -8 18 -17 15 -19
-2 -3 -15 4 -29 14 -14 11 -20 20 -15 19 6 0 19 -6 29 -14z m-5684 -4 c0 -14
-18 -23 -30 -16 -6 4 -8 11 -5 16 8 12 35 12 35 0z m5575 -1 c3 -5 -1 -10 -10
-10 -9 0 -13 5 -10 10 3 6 8 10 10 10 2 0 7 -4 10 -10z m-2141 -21 c-9 -15
-34 -10 -28 5 3 8 12 12 20 9 8 -3 11 -9 8 -14z m858 -1 c-7 -7 -12 -8 -12 -2
0 14 12 26 19 19 2 -3 -1 -11 -7 -17z m593 1 c-4 -5 -1 -9 5 -9 6 0 18 -7 26
-15 9 -8 12 -15 7 -15 -5 0 -15 6 -22 13 -10 10 -11 7 -6 -15 5 -21 2 -29 -14
-37 -11 -7 -20 -15 -20 -19 1 -4 1 -15 0 -24 -2 -28 -21 -21 -21 7 0 14 -3 24
-7 24 -23 -4 -41 3 -46 15 -7 18 42 73 51 59 5 -7 11 -6 20 3 7 8 10 14 7 14
-3 0 -3 5 0 10 4 6 11 8 16 4 5 -3 7 -10 4 -15z m-3503 -7 c-6 -2 -12 -10 -12
-18 0 -9 -4 -12 -10 -9 -5 3 -10 14 -10 25 0 14 5 17 22 12 12 -3 17 -7 10
-10z m3108 8 c0 -5 -5 -10 -11 -10 -5 0 -7 5 -4 10 3 6 8 10 11 10 2 0 4 -4 4
-10z m615 0 c-3 -5 -12 -7 -20 -3 -21 7 -19 13 6 13 11 0 18 -4 14 -10z m680
0 c3 -5 1 -10 -4 -10 -6 0 -11 5 -11 10 0 6 2 10 4 10 3 0 8 -4 11 -10z m235
0 c0 -5 -4 -10 -10 -10 -5 0 -10 5 -10 10 0 6 5 10 10 10 6 0 10 -4 10 -10z
m-140 -21 c0 -6 -4 -7 -10 -4 -5 3 -10 11 -10 16 0 6 5 7 10 4 6 -3 10 -11 10
-16z m-2193 5 c-3 -3 -12 -4 -19 -1 -8 3 -5 6 6 6 11 1 17 -2 13 -5z m854 -8
c0 5 4 -2 10 -14 5 -13 7 -28 3 -33 -8 -13 -84 -11 -84 2 0 6 7 9 15 6 17 -7
30 9 15 18 -5 3 -10 11 -10 16 0 6 5 7 10 4 6 -3 10 -1 10 6 0 8 4 8 15 -1 8
-7 15 -9 16 -4z m-2666 -5 c-3 -5 -1 -12 5 -16 6 -4 7 -11 4 -17 -5 -7 -12 -4
-21 7 -17 25 -17 35 3 35 8 0 13 -4 9 -9z m1377 -16 c-4 -25 -16 -32 -27 -16
-3 5 2 17 11 25 21 21 22 20 16 -9z m226 -26 c-15 -9 -30 -1 -23 12 4 5 1 9
-5 9 -6 0 -9 4 -5 10 3 5 14 2 25 -7 14 -12 16 -19 8 -24z m2952 30 c-10 -7
-11 -12 -4 -15 14 -6 6 -46 -8 -42 -5 2 -8 6 -6 9 2 3 -3 13 -10 22 -17 20 -7
37 21 37 18 0 19 -2 7 -11z m-1007 -40 c-7 -27 -32 -24 -43 7 -14 35 -14 34
19 23 22 -8 28 -15 24 -30z m-963 21 c0 -5 -4 -10 -10 -10 -5 0 -10 5 -10 10
0 6 5 10 10 10 6 0 10 -4 10 -10z m1065 -10 c3 -5 -1 -10 -9 -10 -9 0 -16 5
-16 10 0 6 4 10 9 10 6 0 13 -4 16 -10z m-4075 -15 c7 -9 8 -15 2 -15 -5 0
-12 7 -16 15 -3 8 -4 15 -2 15 2 0 9 -7 16 -15z m1880 0 c0 -8 -6 -15 -14 -15
-20 0 -29 17 -14 23 22 9 28 7 28 -8z m94 0 c-4 -8 -14 -15 -23 -15 -14 1 -13
3 3 15 25 19 27 19 20 0z m686 0 c7 -9 8 -15 2 -15 -5 0 -12 7 -16 15 -3 8 -4
15 -2 15 2 0 9 -7 16 -15z m1895 -4 c-3 -6 -11 -11 -17 -11 -6 0 -6 6 2 15 14
17 26 13 15 -4z m-515 -1 c0 -5 -2 -10 -4 -10 -3 0 -8 5 -11 10 -3 6 -1 10 4
10 6 0 11 -4 11 -10z m-4080 -10 c0 -5 -5 -10 -11 -10 -5 0 -7 5 -4 10 3 6 8
10 11 10 2 0 4 -4 4 -10z m3288 -7 c-2 -10 -14 -19 -26 -21 -19 -3 -21 -6 -11
-18 9 -11 9 -14 -1 -14 -7 0 -10 -8 -7 -19 3 -14 -2 -20 -19 -24 -13 -2 -24 0
-24 4 0 5 -7 9 -15 9 -8 0 -15 2 -15 4 0 2 -3 12 -6 20 -5 14 0 16 34 11 33
-4 40 -2 36 9 -6 15 28 56 47 56 6 0 9 -8 7 -17z m843 -36 c-8 -8 -11 -4 -11
14 0 33 14 47 18 19 2 -12 -1 -27 -7 -33z m-731 33 c0 -5 -4 -10 -10 -10 -5 0
-10 5 -10 10 0 6 5 10 10 10 6 0 10 -4 10 -10z m6 -25 c-10 -8 -23 -12 -28 -9
-6 4 1 12 14 18 29 16 39 9 14 -9z m66 -7 c-8 -8 -9 -4 -5 13 4 13 8 18 11 10
2 -7 -1 -18 -6 -23z m436 -1 c7 -5 10 -13 6 -18 -4 -6 -10 -6 -19 1 -15 12
-57 8 -62 -7 -4 -11 -43 -6 -43 6 0 3 15 15 32 27 33 21 40 20 86 -9z m17 23
c3 -5 1 -10 -4 -10 -6 0 -11 5 -11 10 0 6 2 10 4 10 3 0 8 -4 11 -10z m-2165
-43 c0 -10 -36 -1 -43 11 -15 23 4 34 24 13 10 -11 19 -22 19 -24z m2020 28
c0 -8 -2 -15 -4 -15 -2 0 -6 7 -10 15 -3 8 -1 15 4 15 6 0 10 -7 10 -15z
m-2430 -88 c0 -6 -16 6 -35 28 -46 52 -45 70 0 22 19 -20 35 -43 35 -50z m20
68 c7 -9 10 -18 7 -21 -5 -6 -67 23 -67 31 0 12 49 3 60 -10z m865 5 c3 -5 1
-10 -4 -10 -6 0 -11 5 -11 10 0 6 2 10 4 10 3 0 8 -4 11 -10z m735 -9 c0 -12
-20 -25 -27 -18 -7 7 6 27 18 27 5 0 9 -4 9 -9z m350 -22 c0 -10 -12 -11 -34
-3 -9 3 -14 10 -11 14 6 10 45 1 45 -11z m5840 5 c0 -11 -5 -14 -16 -10 -9 3
-18 6 -20 6 -3 0 -2 5 1 10 10 16 35 12 35 -6z m605 6 c3 -5 -1 -10 -9 -10 -8
0 -18 5 -21 10 -3 6 1 10 9 10 8 0 18 -4 21 -10z m-5790 -12 c30 -13 33 -28 5
-28 -11 0 -20 6 -20 14 0 8 -6 17 -12 19 -7 3 -10 6 -6 6 4 1 19 -4 33 -11z
m230 -2 c10 4 12 0 8 -15 -5 -21 -23 -30 -23 -12 0 5 -2 15 -3 23 -2 7 -2 10
0 6 2 -4 10 -5 18 -2z m-2425 -5 c0 -10 -24 -21 -46 -21 -8 0 -14 4 -14 10 0
5 6 7 14 4 8 -3 17 -1 21 5 8 13 25 14 25 2z m1240 4 c0 -14 -33 -81 -47 -97
-20 -22 -43 -23 -43 -3 0 8 -4 15 -10 15 -17 0 -11 20 8 27 9 4 30 19 46 35
28 26 46 35 46 23z m140 -16 c0 -5 -8 -9 -17 -10 -11 0 -13 -3 -5 -6 6 -2 12
-13 12 -24 0 -23 -32 -26 -50 -4 -11 13 -9 20 10 40 21 22 50 24 50 4z m6577
10 c10 -10 6 -59 -6 -59 -16 0 -28 23 -23 46 5 26 12 30 29 13z m-7147 -9 c0
-5 -4 -10 -10 -10 -5 0 -10 5 -10 10 0 6 5 10 10 10 6 0 10 -4 10 -10z m355 0
c-3 -5 -11 -10 -16 -10 -6 0 -7 5 -4 10 3 6 11 10 16 10 6 0 7 -4 4 -10z
m1210 0 c3 -5 2 -10 -4 -10 -5 0 -13 5 -16 10 -3 6 -2 10 4 10 5 0 13 -4 16
-10z m-4505 -21 c0 -5 -9 -9 -20 -9 -19 0 -26 11 -14 23 8 8 34 -3 34 -14z
m1605 -7 c-3 -3 -11 0 -18 7 -9 10 -8 11 6 5 10 -3 15 -9 12 -12z m995 -25 c9
3 7 -2 -5 -12 -11 -9 -19 -23 -17 -31 3 -12 -1 -13 -16 -5 -15 8 -21 7 -26 -4
-3 -8 -12 -15 -21 -15 -21 0 -19 -17 4 -25 11 -3 25 -13 33 -22 12 -15 10 -16
-14 -9 -22 5 -28 3 -28 -10 0 -12 6 -15 23 -9 12 3 33 8 47 9 14 2 32 5 40 7
8 2 15 -3 15 -11 0 -9 -7 -14 -20 -12 -18 3 -17 0 7 -25 23 -24 26 -32 15 -42
-10 -11 -8 -13 11 -8 12 3 22 1 22 -4 0 -5 14 -9 30 -9 37 0 52 -27 26 -46
-12 -8 -16 -19 -11 -33 5 -17 2 -21 -14 -21 -12 0 -21 -6 -21 -14 0 -20 -40
-32 -51 -15 -5 8 -9 9 -9 4 0 -6 -9 -11 -20 -11 -11 0 -20 6 -20 13 0 8 7 10
18 6 15 -6 15 -3 -3 18 -11 13 -23 26 -26 29 -4 3 -5 20 -4 38 1 25 -2 32 -17
32 -10 0 -17 3 -17 8 3 13 -23 72 -32 72 -4 0 -6 6 -3 14 3 8 1 17 -5 21 -6 3
-11 1 -11 -4 0 -6 -5 -11 -11 -11 -7 0 -8 12 -4 33 6 24 4 29 -5 21 -15 -15
-50 -6 -50 13 0 10 4 11 19 4 15 -9 20 -7 24 9 3 12 -1 24 -11 31 -15 9 -15
10 3 6 13 -2 31 8 50 28 l30 31 30 -22 c17 -12 37 -19 45 -17z m1528 13 c3 -9
0 -10 -9 -4 -8 5 -18 9 -23 9 -5 0 -11 6 -13 12 -4 10 2 11 18 5 13 -5 25 -15
27 -22z m-2521 -15 c1 -1 -13 -1 -31 -1 -30 0 -32 2 -23 18 11 16 12 16 32 0
11 -9 21 -17 22 -17z m252 5 c7 0 9 -5 6 -11 -12 -18 -38 -5 -40 20 -2 21 0
22 10 7 7 -9 18 -16 24 -16z m3164 3 c-17 -6 -4 -33 17 -33 11 0 23 -14 32
-39 l16 -39 -44 -7 c-24 -3 -48 -4 -54 0 -13 8 -1 35 17 35 10 0 12 6 7 23 -4
12 -10 24 -14 27 -14 9 -16 45 -2 43 6 -2 12 2 12 9 0 9 3 8 13 -1 9 -10 9
-15 0 -18z m-2633 -9 c0 -12 -2 -12 -14 -2 -8 7 -12 16 -9 21 7 11 23 -2 23
-19z m540 16 c0 -5 9 -10 21 -10 11 0 17 -4 14 -10 -3 -5 0 -7 9 -4 18 7 51
-51 47 -83 -1 -11 3 -24 8 -28 17 -10 13 -25 -4 -19 -8 4 -15 12 -15 19 0 8
-7 21 -17 30 -12 13 -13 19 -4 25 13 7 -25 23 -59 24 -16 1 -24 66 -8 66 4 0
8 -4 8 -10z m131 -7 c13 -15 12 -16 -8 -11 -19 5 -23 2 -24 -20 -1 -17 -3 -21
-6 -9 -2 9 -9 17 -14 17 -17 0 -9 15 14 26 12 7 23 12 23 13 1 0 8 -7 15 -16z
m584 -9 c1 -16 -3 -20 -17 -16 -23 6 -25 45 -1 40 9 -2 17 -12 18 -24z m1515
6 c0 -24 -6 -25 -26 -6 -19 20 -18 26 6 26 13 0 20 -7 20 -20z m-229 -17 c-8
-15 -10 -15 -11 -2 0 17 10 32 18 25 2 -3 -1 -13 -7 -23z m-5141 1 c0 -8 -5
-12 -10 -9 -6 4 -8 11 -5 16 9 14 15 11 15 -7z m3664 0 c4 -9 4 -19 2 -21 -8
-8 -26 8 -26 23 0 19 16 18 24 -2z m727 6 c5 0 9 -4 9 -10 0 -5 -13 -10 -30
-10 -22 0 -28 4 -23 16 3 8 12 13 20 10 8 -3 19 -6 24 -6z m-2571 -14 c0 -3
-4 -8 -10 -11 -5 -3 -10 -1 -10 4 0 6 5 11 10 11 6 0 10 -2 10 -4z m2610 -12
c0 -8 -5 -12 -10 -9 -6 4 -8 11 -5 16 9 14 15 11 15 -7z m-2573 -17 c-3 -11
-47 -21 -47 -11 0 4 8 13 17 20 19 13 36 9 30 -9z m2143 13 c0 -5 -4 -10 -10
-10 -5 0 -10 5 -10 10 0 6 5 10 10 10 6 0 10 -4 10 -10z m80 0 c0 -5 -2 -10
-4 -10 -3 0 -8 5 -11 10 -3 6 -1 10 4 10 6 0 11 -4 11 -10z m-2195 -10 c3 -5
1 -10 -4 -10 -6 0 -11 5 -11 10 0 6 2 10 4 10 3 0 8 -4 11 -10z m499 -21 c-3
-5 -10 -7 -15 -3 -5 3 -7 10 -3 15 3 5 10 7 15 3 5 -3 7 -10 3 -15z m468 -1
c-7 -7 -12 -8 -12 -2 0 14 12 26 19 19 2 -3 -1 -11 -7 -17z m-1212 8 c0 -3 -4
-8 -10 -11 -5 -3 -10 -1 -10 4 0 6 5 11 10 11 6 0 10 -2 10 -4z m1548 -36 c3
-9 -1 -11 -13 -6 -13 4 -16 2 -11 -9 3 -8 1 -15 -4 -15 -6 0 -10 9 -10 20 0
11 -5 20 -11 20 -5 0 -8 4 -4 10 7 12 48 -3 53 -20z m492 9 c0 -5 -6 -9 -12
-10 -7 0 2 -5 20 -10 17 -5 32 -14 32 -19 0 -13 -17 -13 -25 0 -10 16 -25 12
-33 -10 -6 -17 -10 -18 -31 -7 -13 7 -23 15 -22 20 0 4 1 16 1 26 0 13 8 21
23 23 27 5 47 -1 47 -13z m-2004 -24 c0 -15 -10 -28 -24 -35 -13 -5 -20 -15
-17 -20 9 -15 25 -12 25 5 0 8 5 15 10 15 6 0 10 -9 10 -20 0 -12 -7 -20 -16
-20 -13 0 -10 -6 11 -26 15 -14 24 -28 21 -32 -4 -3 -11 0 -16 8 -8 13 -12 13
-27 -2 -16 -17 -16 -18 9 -18 15 0 29 -4 32 -9 6 -10 -20 -35 -46 -44 -19 -7
-25 -27 -8 -27 6 0 10 -5 10 -12 0 -6 -3 -8 -7 -5 -3 4 -12 2 -20 -4 -10 -9
-18 -8 -33 6 -22 20 -27 55 -7 55 8 0 7 3 -3 9 -8 6 -17 8 -21 5 -4 -2 -9 6
-13 19 -9 33 -7 37 9 31 8 -4 15 -1 15 5 0 6 13 11 29 11 17 0 33 5 36 10 4 6
-5 10 -21 10 -22 0 -25 2 -14 15 10 12 10 15 -3 15 -9 0 -16 12 -19 34 -6 49
-3 51 51 48 44 -3 49 -6 47 -27z m134 25 c0 -5 -2 -10 -4 -10 -3 0 -8 5 -11
10 -3 6 -1 10 4 10 6 0 11 -4 11 -10z m-610 -10 c0 -5 -4 -10 -10 -10 -5 0
-10 5 -10 10 0 6 5 10 10 10 6 0 10 -4 10 -10z m84 -5 c3 -8 12 -15 21 -15 8
0 15 -2 15 -4 0 -2 3 -11 6 -20 11 -28 -22 -18 -35 10 -7 16 -17 24 -26 20 -9
-3 -12 0 -8 10 7 18 19 18 27 -1z m1616 -6 c7 -12 17 -18 26 -15 8 3 21 9 29
12 8 3 15 1 15 -6 0 -14 19 -34 40 -43 15 -6 8 -7 -50 -11 -14 0 -29 -4 -35
-7 -20 -13 -53 10 -60 40 -11 49 14 70 35 30z m692 -1 c-7 -7 -12 -8 -12 -2 0
14 12 26 19 19 2 -3 -1 -11 -7 -17z m153 12 c3 -5 1 -10 -4 -10 -6 0 -11 5
-11 10 0 6 2 10 4 10 3 0 8 -4 11 -10z m360 0 c3 -5 -1 -10 -10 -10 -9 0 -13
5 -10 10 3 6 8 10 10 10 2 0 7 -4 10 -10z m352 -9 c-1 -14 -5 -15 -24 -7 -30
14 -29 24 1 24 17 0 24 -6 23 -17z m2075 11 c2 6 10 8 16 4 19 -12 4 -26 -28
-26 -15 0 -30 7 -33 15 -5 11 -1 12 18 5 16 -6 25 -5 27 2z m-3697 -12 c-3 -5
-11 -10 -16 -10 -6 0 -7 5 -4 10 3 6 11 10 16 10 6 0 7 -4 4 -10z m1678 4 c-7
-3 -9 -12 -6 -21 4 -11 2 -14 -8 -11 -8 3 -15 12 -17 21 -3 12 3 17 20 16 13
0 18 -3 11 -5z m-2628 -14 c3 -5 -1 -10 -9 -10 -9 0 -16 5 -16 10 0 6 4 10 9
10 6 0 13 -4 16 -10z m215 -5 c11 -13 10 -14 -4 -9 -9 3 -16 10 -16 15 0 13 6
11 20 -6z m3035 5 c3 -5 1 -10 -4 -10 -6 0 -11 5 -11 10 0 6 2 10 4 10 3 0 8
-4 11 -10z m1481 -1 c12 -20 -13 -32 -35 -17 -12 8 -18 18 -14 21 10 11 41 8
49 -4z m-4876 -9 c0 -5 -4 -10 -10 -10 -5 0 -10 5 -10 10 0 6 5 10 10 10 6 0
10 -4 10 -10z m860 -30 c0 -23 -37 -33 -49 -13 -11 21 19 54 37 40 6 -5 12
-17 12 -27z m7635 30 c3 -5 1 -10 -4 -10 -6 0 -11 5 -11 10 0 6 2 10 4 10 3 0
8 -4 11 -10z m-8963 -27 c-10 -4 -10 -8 -1 -19 10 -12 8 -13 -7 -7 -28 10 -35
25 -16 39 12 9 20 9 27 2 7 -7 6 -12 -3 -15z m2555 5 c-3 -34 -37 -66 -37 -35
0 13 27 57 35 57 3 0 4 -10 2 -22z m46 7 c-3 -9 -8 -14 -10 -11 -3 3 -2 9 2
15 9 16 15 13 8 -4z m-282 -12 c23 14 52 -8 44 -34 -6 -18 3 -24 33 -20 6 1
12 -4 12 -10 0 -7 -3 -10 -6 -6 -4 3 -13 -1 -21 -9 -9 -8 -13 -18 -10 -21 9
-8 -30 -55 -56 -69 -40 -22 -92 21 -65 54 11 13 11 14 0 8 -18 -11 -41 22 -40
57 1 16 4 24 7 19 7 -11 81 -21 81 -11 0 10 -49 21 -60 14 -19 -12 -10 7 13
25 18 16 24 17 36 5 10 -10 18 -11 32 -2z m764 -2 c-3 -6 -11 -11 -16 -11 -5
0 -4 6 3 14 14 16 24 13 13 -3z m-2615 -26 c0 -5 -5 -3 -10 5 -5 8 -10 20 -10
25 0 6 5 3 10 -5 5 -8 10 -19 10 -25z m1463 15 c-5 -20 -15 -25 -26 -13 -8 7
11 33 23 33 5 0 6 -9 3 -20z m506 -1 c-19 -28 -33 -29 -37 -1 -3 18 1 22 24
22 24 0 25 -1 13 -21z m771 11 c12 -8 11 -10 -7 -10 -12 0 -23 -5 -25 -12 -2
-6 -10 -8 -17 -4 -9 6 -8 11 6 22 22 16 24 16 43 4z m1634 1 c3 -5 0 -11 -8
-14 -15 -6 -26 1 -26 15 0 11 27 10 34 -1z m-4320 -16 c4 -10 -1 -15 -16 -15
-17 0 -18 2 -8 15 7 8 14 15 15 15 2 0 5 -7 9 -15z m1681 5 c-3 -5 -11 -10
-16 -10 -6 0 -7 5 -4 10 3 6 11 10 16 10 6 0 7 -4 4 -10z m660 -38 c0 -23 -3
-42 -7 -42 -5 0 -8 5 -8 10 0 6 -7 10 -15 10 -8 0 -15 5 -15 11 0 6 7 9 15 6
11 -5 13 0 8 25 -5 24 -3 30 8 26 9 -3 14 -20 14 -46z m845 27 c0 -6 -4 -7
-10 -4 -5 3 -10 11 -10 16 0 6 5 7 10 4 6 -3 10 -11 10 -16z m-2270 -10 c0 -6
-4 -7 -10 -4 -5 3 -10 11 -10 16 0 6 5 7 10 4 6 -3 10 -11 10 -16z m1670 11
c0 -5 -2 -10 -4 -10 -3 0 -8 5 -11 10 -3 6 -1 10 4 10 6 0 11 -4 11 -10z
m-2670 -10 c0 -5 -5 -10 -11 -10 -5 0 -7 5 -4 10 3 6 8 10 11 10 2 0 4 -4 4
-10z m2070 0 c0 -5 -5 -10 -11 -10 -5 0 -7 5 -4 10 3 6 8 10 11 10 2 0 4 -4 4
-10z m565 -4 c20 -14 43 -11 58 8 6 7 7 5 4 -6 -4 -9 1 -19 10 -22 15 -6 11
-20 -8 -22 -5 -1 -13 -2 -19 -3 -5 0 -10 -10 -10 -21 0 -11 -4 -20 -9 -20 -5
0 -16 -3 -25 -6 -9 -3 -16 -1 -16 6 0 6 6 8 13 4 6 -4 1 5 -13 21 -17 19 -21
29 -12 32 6 3 12 11 12 18 0 7 -6 16 -12 18 -7 3 -8 6 -2 6 5 1 19 -5 29 -13z
m261 -13 c-7 -7 -26 7 -26 19 0 6 6 6 15 -2 9 -7 13 -15 11 -17z m-1590 -3
c30 0 12 -15 -21 -17 -25 -2 -35 1 -35 11 0 15 33 27 38 14 2 -4 10 -8 18 -8z
m-1216 0 c0 -5 -4 -10 -10 -10 -5 0 -10 5 -10 10 0 6 5 10 10 10 6 0 10 -4 10
-10z m837 -21 c-3 -12 0 -19 9 -19 17 0 18 -12 2 -29 -7 -8 -8 -11 -3 -8 14 7
48 -19 41 -32 -4 -6 -23 -13 -43 -17 -22 -4 -49 -20 -66 -38 l-29 -31 16 32
c22 43 27 93 11 93 -11 0 -25 21 -25 36 0 2 10 4 23 4 21 1 22 1 2 13 -19 11
-17 12 15 17 43 8 53 3 47 -21z m310 16 c0 -8 -4 -15 -9 -15 -4 0 -8 7 -8 15
0 8 4 15 8 15 5 0 9 -7 9 -15z m213 1 c0 -3 -4 -8 -10 -11 -5 -3 -10 -1 -10 4
0 6 5 11 10 11 6 0 10 -2 10 -4z m214 -12 c9 -22 -3 -32 -14 -14 -12 19 -12
30 -1 30 5 0 12 -7 15 -16z m403 -41 c-1 -14 -6 -19 -16 -15 -9 3 -12 1 -8 -5
11 -18 -10 -63 -26 -57 -11 4 -16 -10 -22 -60 -3 -36 -11 -68 -16 -71 -5 -4
-9 -17 -9 -30 0 -13 -5 -27 -12 -31 -8 -5 -9 -2 -5 9 8 22 -2 49 -16 40 -6 -4
-8 0 -4 10 3 9 2 19 -3 22 -17 10 -21 -34 -6 -69 11 -27 19 -33 35 -29 14 3
21 13 21 29 0 12 5 26 12 30 8 5 9 0 5 -17 -4 -13 -7 -38 -7 -56 0 -24 -4 -31
-14 -27 -10 4 -14 -1 -13 -15 1 -12 5 -21 10 -21 4 0 5 -21 1 -46 -5 -38 -4
-45 7 -39 7 5 29 8 49 7 l35 -2 -24 20 c-18 16 -27 18 -37 9 -11 -9 -14 -6
-14 19 0 17 5 34 10 37 6 3 10 -1 10 -10 0 -15 2 -15 15 -1 21 21 19 36 -6 36
-16 0 -19 4 -13 22 3 12 6 55 6 95 -1 45 3 71 8 68 6 -4 10 -12 10 -19 0 -12
39 -30 47 -23 1 2 3 19 5 40 1 20 7 37 13 37 5 0 4 4 -4 9 -7 5 -10 14 -7 20
4 6 4 16 0 22 -4 8 -9 7 -15 -2 -7 -11 -9 -10 -9 4 0 9 6 17 14 17 19 0 32 20
19 29 -14 10 -11 50 4 44 7 -3 13 -14 13 -24 0 -10 5 -19 11 -19 8 0 7 -5 -2
-16 -10 -13 -10 -17 2 -25 22 -14 42 -11 35 6 -7 19 3 47 15 39 5 -3 4 7 -1
22 -6 15 -8 30 -4 33 4 3 9 0 11 -6 3 -7 13 -13 24 -13 10 0 19 -4 19 -10 0
-5 -4 -10 -10 -10 -5 0 -10 -4 -10 -10 0 -5 5 -10 11 -10 15 0 36 -23 42 -46
4 -15 5 -14 6 6 2 24 2 23 16 -7 9 -22 19 -31 29 -27 22 9 31 -38 13 -72 -8
-16 -12 -35 -10 -42 3 -7 -1 -10 -10 -7 -8 4 -21 -4 -31 -19 -21 -33 -22 -53
-1 -36 12 10 15 10 15 -2 0 -7 10 -14 22 -15 11 -1 24 -7 28 -14 8 -13 30 -4
30 12 0 6 -4 7 -10 4 -5 -3 -10 -2 -10 4 0 5 5 11 11 13 9 3 9 10 0 26 -7 13
-16 20 -22 17 -5 -4 -9 3 -9 14 0 12 3 20 8 19 14 -4 52 23 52 37 0 20 -10 19
-26 -2 -14 -20 -27 -14 -19 9 4 9 20 18 36 22 19 3 33 14 39 30 5 13 14 27 19
31 15 9 26 -22 14 -38 -20 -24 -22 -58 -5 -64 9 -4 18 -1 20 5 6 19 25 14 20
-6 -6 -20 12 -40 30 -34 7 2 12 -6 12 -20 0 -12 5 -30 10 -38 12 -16 6 19 -11
76 -11 36 1 78 25 87 9 4 16 14 16 22 0 15 -1 15 -16 1 -19 -20 -22 -20 -41
-1 -12 13 -18 13 -32 3 -13 -10 -14 -10 -4 1 8 9 9 21 3 37 -6 14 -6 24 -1 24
5 0 16 2 23 5 9 4 19 -4 26 -19 11 -25 46 -30 48 -8 1 7 2 18 3 25 1 9 4 8 10
-2 5 -8 7 -20 4 -28 -3 -7 -2 -20 1 -29 5 -14 9 -14 22 -3 13 10 17 10 24 -1
18 -29 -11 -63 -47 -53 -17 4 -23 1 -23 -11 0 -15 16 -21 52 -18 26 2 46 -37
46 -86 -1 -31 -4 -42 -14 -38 -9 4 -11 -4 -7 -28 3 -20 1 -36 -6 -40 -19 -12
-12 -32 15 -44 14 -7 22 -17 19 -22 -3 -5 0 -7 8 -4 13 5 29 -16 31 -41 1 -5
15 -10 32 -10 21 0 30 4 27 13 -3 6 2 12 11 12 9 0 16 -8 16 -20 0 -10 13 -33
30 -50 17 -18 27 -36 24 -45 -5 -11 -2 -13 10 -9 10 4 15 13 12 20 -6 15 12
18 30 6 6 -4 10 -40 9 -90 -1 -68 2 -87 17 -104 10 -12 18 -16 18 -10 0 6 12
9 28 7 15 -2 30 -4 34 -4 3 -1 4 -11 1 -22 -4 -15 0 -27 12 -35 18 -13 17 -14
-8 -14 -17 0 -32 9 -43 25 -16 24 -26 27 -26 8 0 -4 -4 -14 -10 -21 -9 -10
-15 -9 -34 3 -13 9 -24 11 -24 5 0 -5 -9 -10 -20 -10 -13 0 -24 -10 -30 -25
-6 -15 -17 -25 -30 -25 -21 0 -24 -4 -34 -51 -5 -23 -12 -27 -46 -31 -26 -2
-40 1 -40 8 0 27 -26 33 -75 18 -27 -8 -55 -12 -62 -10 -7 3 -15 1 -18 -4 -4
-6 -15 -10 -25 -10 -22 0 -37 -19 -23 -29 6 -3 13 -16 17 -28 5 -17 1 -25 -16
-34 -13 -7 -28 -14 -34 -15 -29 -5 -98 -59 -107 -85 -13 -33 -22 -36 -36 -11
-9 15 -12 15 -20 2 -6 -8 -13 -11 -17 -7 -4 4 0 15 9 25 10 10 17 21 17 24 0
14 -56 68 -71 68 -25 0 -49 33 -42 58 4 16 1 22 -11 22 -16 0 -21 12 -9 23 3
4 12 2 19 -4 8 -6 14 -7 18 0 4 6 13 8 21 5 10 -4 12 0 8 16 -4 14 -1 20 8 18
26 -6 19 37 -11 70 -16 17 -34 32 -40 32 -6 0 -13 7 -17 16 -4 10 -13 14 -29
10 -26 -7 -41 9 -26 27 14 18 11 45 -7 52 -9 3 -17 2 -19 -4 -2 -5 -17 -2 -35
9 -44 25 -109 33 -132 16 -11 -8 -35 -11 -67 -8 -42 4 -51 1 -64 -16 -12 -17
-23 -21 -55 -18 -23 2 -45 9 -49 17 -7 10 -12 10 -23 1 -8 -7 -34 -13 -58 -13
-24 -1 -54 -8 -66 -15 -12 -8 -29 -11 -38 -8 -9 4 -25 -2 -35 -11 -19 -17 -21
-17 -41 1 -17 15 -22 16 -29 4 -7 -11 -13 -12 -32 -2 -13 7 -39 12 -58 12 -19
0 -48 1 -65 3 -16 3 -36 -1 -44 -6 -7 -6 -20 -12 -29 -14 -9 -1 -21 -8 -27
-17 -12 -16 -43 -25 -45 -13 -1 4 8 28 20 52 12 25 27 72 33 105 8 41 16 60
27 61 10 0 11 2 3 6 -15 6 -18 63 -3 63 6 0 10 15 10 33 l1 32 14 -25 14 -25
1 27 c0 32 13 43 29 24 8 -10 9 -26 2 -57 -14 -60 -13 -70 4 -32 10 23 19 31
29 27 9 -3 16 -2 16 4 0 5 -7 12 -15 16 -24 9 -17 34 13 44 l27 10 -25 2 c-14
1 -30 2 -36 1 -6 -1 -17 5 -23 13 -9 11 -4 17 26 31 21 10 50 28 65 40 17 15
41 23 66 23 39 1 40 0 39 -30 -2 -35 -27 -52 -27 -19 0 25 -35 29 -44 5 -11
-27 -7 -36 14 -29 12 4 28 1 37 -7 13 -10 17 -10 20 0 3 6 13 12 23 12 12 0
18 8 18 24 0 18 -5 23 -17 18 -13 -5 -14 -3 -3 10 18 23 90 30 118 11 22 -14
24 -14 24 1 0 14 3 14 20 4 14 -9 23 -9 30 -2 8 8 4 13 -14 18 -14 3 -26 11
-26 16 0 6 3 9 8 8 12 -4 87 49 103 72 11 17 26 23 64 26 28 2 64 5 80 8 17 2
36 -1 43 -6 9 -8 12 -6 12 6 0 9 6 16 14 16 7 0 16 10 20 23 5 18 8 20 16 7 8
-12 10 -11 10 6 0 12 9 32 20 45 l19 24 1 -22 c0 -16 4 -21 15 -17 17 7 21 34
4 34 -12 0 -3 37 14 58 13 16 37 -15 34 -45z m-592 37 c3 -5 1 -10 -4 -10 -6
0 -11 5 -11 10 0 6 2 10 4 10 3 0 8 -4 11 -10z m1291 -16 c-4 -9 -9 -15 -11
-12 -3 3 -3 13 1 22 4 9 9 15 11 12 3 -3 3 -13 -1 -22z m-2692 7 c3 -4 -3 -16
-14 -26 -19 -17 -20 -17 -26 0 -9 23 27 47 40 26z m2306 -22 c0 -23 -15 -25
-24 -4 -3 8 -12 15 -21 15 -8 0 -15 4 -15 8 0 5 14 7 30 4 21 -3 30 -10 30
-23z m115 21 c-3 -5 -10 -10 -16 -10 -5 0 -9 5 -9 10 0 6 7 10 16 10 8 0 12
-4 9 -10z m-1707 -18 c2 -7 -3 -12 -12 -12 -9 0 -16 7 -16 16 0 17 22 14 28
-4z m219 -14 c-3 -7 -5 -2 -5 12 0 14 2 19 5 13 2 -7 2 -19 0 -25z m299 19 c8
3 14 1 14 -4 0 -17 -13 -23 -27 -12 -7 6 -13 8 -13 5 0 -4 -5 -4 -11 0 -8 4
-7 9 2 15 8 5 15 4 17 -1 2 -5 10 -6 18 -3z m350 -8 c6 -5 15 -5 19 -1 5 4 -9
-14 -31 -40 -32 -39 -43 -47 -63 -42 -21 4 -23 3 -12 -10 10 -12 8 -16 -9 -21
-30 -10 -32 -4 -11 36 12 22 25 33 36 31 16 -3 16 -2 1 19 -11 17 -13 26 -5
36 11 13 53 9 75 -8z m2394 11 c0 -5 -5 -10 -11 -10 -5 0 -7 5 -4 10 3 6 8 10
11 10 2 0 4 -4 4 -10z m-4910 -15 c0 -12 -24 -55 -32 -55 -4 0 -8 -9 -8 -20 0
-13 -7 -20 -20 -20 -18 0 -19 2 -8 20 7 11 16 20 20 20 5 0 8 8 8 18 0 10 5
23 12 30 12 12 28 16 28 7z m3130 -5 c0 -5 -2 -10 -4 -10 -3 0 -8 5 -11 10 -3
6 -1 10 4 10 6 0 11 -4 11 -10z m1817 4 c-3 -3 -12 -4 -19 -1 -8 3 -5 6 6 6
11 1 17 -2 13 -5z m-5003 -19 c-7 -16 -24 -21 -24 -6 0 8 7 13 27 20 1 1 0 -6
-3 -14z m490 6 c4 -5 3 -16 0 -25 -5 -14 -8 -14 -21 -1 -8 8 -11 19 -8 25 8
12 22 13 29 1z m3216 -1 c0 -5 -4 -10 -10 -10 -5 0 -10 5 -10 10 0 6 5 10 10
10 6 0 10 -4 10 -10z m4775 0 c-3 -5 -10 -10 -16 -10 -5 0 -9 5 -9 10 0 6 7
10 16 10 8 0 12 -4 9 -10z m-3490 -10 c3 -5 1 -10 -4 -10 -6 0 -11 5 -11 10 0
6 2 10 4 10 3 0 8 -4 11 -10z m3317 -15 c-3 -20 -7 -23 -18 -14 -20 16 -17 39
5 39 14 0 17 -6 13 -25z m-7292 5 c0 -5 -4 -10 -9 -10 -6 0 -13 5 -16 10 -3 6
1 10 9 10 9 0 16 -4 16 -10z m220 -16 c0 -8 -7 -14 -15 -14 -17 0 -18 2 -9 24
7 18 24 12 24 -10z m984 -9 c12 -18 13 -30 6 -47 -10 -21 -10 -21 -5 5 4 19 2
26 -5 22 -5 -3 -10 -13 -10 -21 0 -8 -6 -14 -12 -15 -72 -6 -78 -6 -78 7 0 17
5 17 30 4 21 -11 33 8 33 52 0 31 18 28 41 -7z m-249 5 c3 -11 3 -25 0 -30
-10 -16 -35 8 -35 31 0 25 27 24 35 -1z m7535 10 c0 -5 -7 -10 -16 -10 -8 0
-12 5 -9 10 3 6 10 10 16 10 5 0 9 -4 9 -10z m-10090 -14 c0 -3 -4 -8 -10 -11
-5 -3 -10 -1 -10 4 0 6 5 11 10 11 6 0 10 -2 10 -4z m1515 -6 c3 -5 -1 -10 -9
-10 -9 0 -16 5 -16 10 0 6 4 10 9 10 6 0 13 -4 16 -10z m765 0 c0 -5 -5 -10
-11 -10 -5 0 -7 5 -4 10 3 6 8 10 11 10 2 0 4 -4 4 -10z m1889 -3 c6 -8 8 -17
4 -20 -11 -12 -21 -7 -26 13 -6 23 5 26 22 7z m-4129 -6 c0 -6 -4 -13 -10 -16
-5 -3 -10 1 -10 9 0 9 5 16 10 16 6 0 10 -4 10 -9z m193 -11 c7 -26 -30 -70
-43 -51 -5 9 -1 24 13 43 11 15 22 28 23 28 1 0 4 -9 7 -20z m707 10 c0 -5 -2
-10 -4 -10 -3 0 -8 5 -11 10 -3 6 -1 10 4 10 6 0 11 -4 11 -10z m750 -7 c0
-24 -16 -48 -23 -36 -8 13 3 53 14 53 5 0 9 -8 9 -17z m500 -4 c0 -11 -4 -18
-10 -14 -5 3 -7 12 -3 20 7 21 13 19 13 -6z m296 -21 c-26 -18 -36 -8 -19 18
15 24 17 25 24 8 3 -11 1 -22 -5 -26z m1414 38 c0 -3 -4 -8 -10 -11 -5 -3 -10
-1 -10 4 0 6 5 11 10 11 6 0 10 -2 10 -4z m1840 -6 c8 -5 11 -12 8 -16 -4 -3
-14 1 -23 10 -18 17 -9 21 15 6z m-5387 -15 c4 -8 1 -17 -5 -21 -7 -4 -8 -3
-4 4 4 7 2 12 -3 12 -6 0 -11 5 -11 10 0 15 17 12 23 -5z m57 11 c0 -3 -4 -8
-10 -11 -5 -3 -10 -1 -10 4 0 6 5 11 10 11 6 0 10 -2 10 -4z m8647 -2 c-3 -3
-12 -4 -19 -1 -8 3 -5 6 6 6 11 1 17 -2 13 -5z m-9072 -14 c3 -5 2 -10 -4 -10
-5 0 -13 5 -16 10 -3 6 -2 10 4 10 5 0 13 -4 16 -10z m505 0 c0 -5 -5 -10 -11
-10 -5 0 -7 5 -4 10 3 6 8 10 11 10 2 0 4 -4 4 -10z m1320 0 c0 -5 -5 -10 -11
-10 -5 0 -7 5 -4 10 3 6 8 10 11 10 2 0 4 -4 4 -10z m3870 -10 c0 -20 -61 -22
-68 -1 -3 9 1 11 17 6 11 -3 21 -2 21 3 0 5 7 9 15 9 8 0 15 -8 15 -17z m387
-6 c-9 -9 -28 6 -21 18 4 6 10 6 17 -1 6 -6 8 -13 4 -17z m2827 -14 c11 0 15
5 10 13 -5 8 -3 8 7 -1 12 -11 11 -15 -3 -26 -10 -7 -18 -18 -18 -23 0 -15
-43 -24 -54 -13 -7 7 -6 10 2 10 22 0 13 18 -13 27 -24 8 -25 9 -9 31 l16 23
22 -20 c12 -12 30 -21 40 -21z m-6614 20 c0 -5 -2 -10 -4 -10 -3 0 -8 5 -11
10 -3 6 -1 10 4 10 6 0 11 -4 11 -10z m32 -22 c-8 -8 -9 -4 -5 13 4 13 8 18
11 10 2 -7 -1 -18 -6 -23z m-2194 -8 c-12 -16 -27 -30 -34 -30 -23 0 -44 12
-38 22 4 6 10 5 15 -3 7 -11 14 -8 36 14 37 36 49 35 21 -3z m1422 20 c0 -5
-5 -10 -11 -10 -5 0 -7 5 -4 10 3 6 8 10 11 10 2 0 4 -4 4 -10z m390 -10 c0
-11 -4 -20 -9 -20 -14 0 -23 18 -16 30 10 17 25 11 25 -10z m2246 1 c19 3 35
-1 30 -9 -6 -10 -56 -10 -56 1 0 32 0 32 9 19 4 -7 12 -12 17 -11z m-3836 -10
c0 -5 -8 -8 -17 -7 -10 0 -19 -7 -21 -18 -3 -15 0 -18 16 -14 19 5 20 3 9 -21
-16 -37 -27 -51 -44 -51 -8 0 -12 3 -10 8 3 4 -1 13 -9 20 -12 10 -14 10 -14
-2 0 -9 -6 -13 -13 -10 -10 4 -12 -3 -9 -28 2 -18 1 -30 -3 -26 -12 11 -16 68
-5 68 6 0 10 9 10 21 0 16 4 19 20 14 14 -4 22 -1 26 12 13 35 64 62 64 34z
m1850 -9 c0 -15 -2 -15 -10 -2 -13 20 -13 33 0 25 6 -3 10 -14 10 -23z m235 2
c0 -10 5 -22 10 -27 6 -4 -3 -19 -23 -37 -17 -16 -32 -32 -32 -36 1 -3 -10
-14 -24 -25 l-24 -19 -21 26 c-24 31 -30 74 -8 55 11 -8 17 -5 27 14 7 14 19
25 27 25 7 0 13 7 13 15 0 8 7 15 15 15 8 0 15 5 15 11 0 6 6 9 13 7 6 -3 12
-13 12 -24z m201 -2 c-9 -9 -37 8 -31 18 5 8 11 7 21 -1 8 -6 12 -14 10 -17z
m2994 -4 c0 -5 -11 -8 -24 -8 -19 0 -23 4 -19 19 4 17 8 18 24 8 10 -6 19 -15
19 -19z m-5436 -2 c8 -14 8 -20 -1 -23 -7 -3 -13 -11 -13 -19 0 -8 -4 -14 -9
-14 -6 0 -8 -29 -5 -68 4 -60 2 -71 -16 -87 -25 -22 -25 -32 -2 -38 13 -3 10
-6 -10 -11 -16 -5 -28 -12 -28 -18 0 -5 9 -6 21 -3 19 6 21 4 15 -27 -6 -30
-5 -31 5 -8 6 14 15 35 20 48 5 12 16 22 26 22 13 0 14 -3 5 -12 -17 -17 -15
-33 3 -18 8 7 15 9 15 4 0 -5 7 -1 15 10 7 10 18 15 24 12 6 -4 27 4 48 18 27
19 40 23 50 14 18 -14 16 -31 -2 -24 -22 8 -18 -12 5 -26 11 -7 20 -20 19 -28
0 -10 -2 -11 -6 -2 -9 22 -22 13 -20 -14 1 -17 -5 -30 -18 -38 -21 -12 -35
-26 -35 -38 0 -7 37 11 89 43 16 11 25 11 40 2 16 -10 20 -9 25 4 4 11 2 14
-9 9 -9 -3 -15 0 -15 8 0 8 -5 16 -11 18 -14 5 5 73 23 84 6 4 8 -1 3 -15 -4
-12 -2 -28 5 -35 6 -8 10 -18 9 -22 -3 -21 2 -28 11 -14 5 8 22 16 37 16 55 2
63 4 63 13 0 18 -43 24 -54 9 -16 -21 -36 -10 -36 19 0 20 3 23 13 14 17 -14
71 -8 93 10 16 13 17 11 12 -16 -6 -27 -5 -28 8 -10 8 10 14 15 14 10 0 -5 5
-4 12 3 20 20 31 14 26 -13 -4 -20 -3 -23 8 -14 8 6 14 18 14 25 0 8 7 14 16
14 11 0 14 -5 10 -17 -6 -16 -5 -16 12 0 17 16 20 16 25 2 7 -16 57 -21 57 -5
0 6 5 10 10 10 30 0 -12 -71 -45 -76 -10 -1 -19 5 -22 17 -5 19 -23 27 -23 10
0 -5 -3 -17 -7 -27 -5 -13 -3 -16 10 -11 21 8 22 -6 1 -24 -10 -8 -18 -9 -22
-3 -4 5 -20 11 -36 12 -17 1 -34 8 -38 15 -6 9 -10 9 -17 -2 -11 -17 -25 3
-17 24 3 8 1 15 -5 15 -12 0 -21 -21 -23 -55 0 -14 -5 -23 -11 -21 -5 1 -9 10
-7 19 1 8 -2 18 -8 22 -11 7 -13 -3 -11 -53 1 -30 -1 -32 -15 -17 -20 19 -48
2 -39 -25 3 -9 -3 -24 -14 -34 -11 -10 -17 -25 -14 -37 3 -10 0 -19 -6 -19 -6
0 -11 8 -11 18 0 37 -144 51 -194 19 -13 -9 -27 -12 -32 -7 -25 23 -109 2
-119 -30 -3 -11 -12 -17 -18 -14 -7 2 -21 -2 -32 -10 -17 -12 -24 -12 -57 5
l-38 19 0 -25 c0 -26 -14 -33 -25 -14 -4 5 -17 14 -30 19 -19 7 -30 3 -60 -26
-21 -20 -41 -31 -48 -27 -8 5 -6 9 6 11 21 4 23 22 2 22 -8 0 -15 5 -15 11 0
8 -5 8 -15 -1 -8 -7 -15 -26 -15 -42 0 -23 4 -29 15 -24 18 7 20 -10 3 -17
-10 -4 -9 -8 2 -16 12 -8 12 -13 2 -23 -8 -8 -12 -8 -12 -1 0 16 -31 5 -65
-24 -19 -16 -26 -27 -17 -30 14 -6 16 -33 2 -33 -5 0 -7 -7 -4 -15 5 -13 9
-13 34 0 16 8 36 15 45 15 13 0 17 6 14 26 0 4 5 11 13 16 10 7 10 11 1 15
-23 9 -13 22 15 19 19 -1 26 -7 24 -19 -2 -10 4 -17 13 -17 8 0 15 7 15 15 0
21 49 15 61 -7 6 -11 21 -18 39 -18 16 0 32 -4 35 -10 8 -12 -1 -13 -43 -1
-23 7 -32 6 -32 -2 0 -7 -20 -34 -45 -61 -32 -34 -42 -52 -35 -61 7 -8 3 -19
-12 -35 -13 -14 -23 -19 -26 -12 -4 14 -32 16 -32 3 0 -6 10 -17 22 -25 22
-16 22 -16 -10 -16 -41 0 -46 -30 -4 -31 26 0 27 0 4 -10 -24 -9 -22 -29 4
-29 8 0 12 -5 8 -11 -3 -6 2 -28 11 -49 14 -32 15 -44 6 -71 -12 -36 2 -67 18
-40 5 7 14 10 20 7 6 -4 8 -13 4 -19 -11 -18 -11 -77 0 -77 6 0 2 -9 -8 -20
-10 -11 -13 -20 -8 -20 6 0 13 -11 15 -25 3 -14 2 -25 -2 -25 -4 0 -7 -17 -6
-37 1 -31 -3 -38 -24 -44 -14 -4 -19 -7 -12 -8 23 -2 12 -22 -18 -32 -16 -6
-30 -15 -30 -20 0 -26 -81 -36 -211 -26 -42 3 -67 -1 -99 -15 -34 -16 -48 -18
-66 -9 -60 27 -71 31 -96 33 -26 2 -43 21 -34 37 3 4 -8 22 -24 40 -25 30 -31
33 -64 27 -22 -4 -34 -11 -30 -18 4 -6 -1 -6 -14 1 -14 7 -23 8 -27 1 -9 -15
-25 -12 -25 5 0 14 -14 19 -47 18 -8 -1 -11 8 -9 23 4 21 2 23 -20 18 -15 -4
-24 -2 -24 6 0 14 -20 34 -40 38 -8 2 -18 10 -23 17 -6 12 -15 12 -55 0 -56
-18 -55 -17 -48 -6 10 16 -28 23 -39 7 -6 -8 -24 -16 -40 -18 -24 -2 -31 -10
-39 -36 -7 -26 -6 -36 5 -43 9 -6 -8 -7 -48 -3 -69 7 -118 -12 -107 -41 4 -9
0 -15 -9 -15 -8 0 -22 -11 -31 -25 -9 -14 -27 -27 -41 -31 -14 -3 -25 -11 -25
-17 0 -6 -14 -26 -32 -44 -34 -35 -68 -42 -88 -18 -7 8 -15 13 -19 11 -3 -2
-14 -1 -24 3 -19 7 -24 25 -7 27 6 1 14 2 19 3 5 0 11 13 13 29 2 21 9 28 31
30 30 4 34 21 17 66 -9 25 -50 38 -50 16 0 -5 -4 -10 -9 -10 -14 0 -7 30 10
42 11 7 11 11 2 15 -7 2 -13 11 -13 18 0 17 -31 35 -59 35 -32 0 -27 43 7 72
15 13 31 31 35 41 7 19 24 21 80 8 34 -8 43 -6 96 30 32 21 61 39 65 39 5 0 2
-33 -4 -50 -2 -3 -2 -9 -1 -14 1 -5 -5 -6 -14 -3 -9 4 -15 1 -15 -7 0 -12 17
-14 40 -6 3 1 12 3 20 4 10 1 14 10 12 25 -2 20 1 22 20 17 13 -3 29 -6 36 -6
6 0 12 -9 12 -20 0 -14 7 -20 23 -20 13 0 28 -5 34 -11 17 -17 31 -3 39 37 l7
36 54 -7 c37 -4 53 -3 49 4 -7 10 39 6 58 -7 6 -3 1 7 -12 23 -26 33 -24 39
12 25 22 -8 30 -6 48 12 13 13 23 29 23 38 0 16 15 18 51 6 18 -6 20 -3 16 24
-3 22 0 30 11 30 8 0 17 10 20 21 4 15 11 20 21 16 9 -4 16 -2 16 4 0 6 7 9
15 6 8 -4 17 -2 20 2 5 9 50 -4 103 -31 30 -16 32 -16 32 2 0 10 -6 21 -12 24
-9 3 -8 8 5 16 9 6 17 19 17 29 0 17 18 31 41 31 5 0 4 -12 -2 -26 -13 -36 -5
-40 19 -9 11 14 18 34 15 44 -3 11 2 21 12 25 20 7 45 -10 45 -30 0 -8 5 -14
11 -14 6 0 9 6 6 13 -4 10 4 14 25 14 19 0 36 7 45 19 15 20 14 44 -2 46 -5 1
-15 8 -21 16 -10 14 -13 14 -28 0 -9 -10 -11 -18 -5 -20 6 -2 7 -12 1 -27 -7
-20 -9 -21 -21 -7 -8 9 -24 16 -37 16 -25 0 -35 29 -11 32 6 0 17 2 23 2 6 1
28 16 49 34 24 22 44 32 57 29 11 -3 21 0 24 8 3 8 12 11 20 8 9 -3 14 2 14
15 0 14 -8 22 -22 24 -20 3 -20 4 -6 19 11 10 13 20 7 26 -13 13 12 63 31 60
10 -1 16 8 18 30 2 19 9 33 19 35 10 2 17 17 19 42 2 22 11 47 20 55 15 15 16
14 9 -6 -9 -32 9 -29 37 6 25 32 52 44 53 23 0 -7 6 -17 14 -22 12 -7 12 -11
2 -24 -8 -10 -9 -16 -3 -16 6 0 13 4 16 8 2 4 28 9 58 10 33 1 57 8 64 17 6 8
26 17 45 19 25 3 33 8 31 20 -2 9 2 16 8 16 7 0 8 6 1 18 -7 13 -7 22 1 30 6
6 8 18 5 26 -7 18 -27 22 -27 5 0 -6 -7 -17 -15 -25 -13 -14 -16 -13 -24 8
-11 29 -9 31 33 56 29 17 37 18 53 7 10 -7 22 -13 28 -13 5 0 11 -5 13 -11 2
-6 -3 -8 -12 -5 -10 4 -16 1 -16 -7 0 -7 3 -9 7 -6 3 4 12 2 19 -4 9 -7 14 -2
19 23 4 18 10 38 13 43 4 6 7 15 8 20 0 6 2 16 2 23 1 6 11 12 22 12 12 0 20
7 20 18 1 41 46 136 61 127 5 -4 9 -1 9 5 0 16 22 7 34 -14z m2340 8 c4 -9 4
-19 1 -22 -7 -8 -35 19 -29 29 8 14 21 11 28 -7z m-1580 -5 c-6 -11 -54 -12
-54 -1 0 4 13 7 30 8 16 1 27 -3 24 -7z m-1021 -19 c-4 -17 -23 -29 -23 -16 0
2 -3 11 -6 20 -4 11 0 16 14 16 15 0 19 -5 15 -20z m332 10 c-3 -5 -11 -10
-16 -10 -6 0 -7 5 -4 10 3 6 11 10 16 10 6 0 7 -4 4 -10z m623 -24 c3 -20 8
-26 19 -22 8 3 19 6 24 6 5 0 9 7 9 15 0 9 6 12 15 9 8 -4 15 -2 15 4 0 5 6
12 13 15 7 3 12 -4 12 -18 0 -16 -6 -22 -22 -21 -14 1 -30 -11 -46 -34 -13
-19 -29 -34 -35 -32 -17 3 -104 -77 -97 -88 3 -4 -7 -5 -20 -2 -14 2 -31 -1
-39 -7 -17 -14 -29 8 -16 29 7 11 11 11 24 1 12 -11 16 -6 22 35 l7 47 14 -26
c7 -15 16 -27 19 -27 11 0 54 33 54 41 0 15 -29 10 -38 -7 -8 -14 -10 -14 -15
-1 -3 8 3 23 14 33 17 16 22 16 29 4 8 -12 10 -11 10 6 0 32 -10 35 -38 14
-31 -25 -36 -21 -21 14 8 17 20 26 36 26 12 0 23 5 23 11 0 23 25 1 28 -25z
m4827 -17 c-11 -17 -35 4 -35 30 l1 26 19 -24 c11 -12 18 -27 15 -32z m4462
25 c-9 -9 -28 6 -21 18 4 6 10 6 17 -1 6 -6 8 -13 4 -17z m-750 -4 c-1 -22 -5
-24 -26 -11 -16 10 -6 31 14 31 8 0 13 -9 12 -20z m-8937 -20 c-24 -15 -36
-11 -14 4 10 8 21 12 24 10 2 -3 -2 -9 -10 -14z m629 11 c13 -9 9 -13 -21 -24
-12 -4 -16 -1 -15 14 1 20 14 24 36 10z m587 -38 c-9 -9 -33 21 -28 35 3 9 9
7 19 -8 8 -12 13 -24 9 -27z m774 37 c0 -5 -5 -10 -11 -10 -5 0 -7 5 -4 10 3
6 8 10 11 10 2 0 4 -4 4 -10z m-2382 -17 c-5 -25 -28 -28 -28 -4 0 12 6 21 16
21 9 0 14 -7 12 -17z m432 13 c0 -3 -4 -8 -10 -11 -5 -3 -10 -1 -10 4 0 6 5
11 10 11 6 0 10 -2 10 -4z m1303 -21 c-8 -22 -22 -18 -16 5 3 11 9 17 14 15 4
-3 6 -12 2 -20z m43 -2 c-10 -10 -19 5 -10 18 6 11 8 11 12 0 2 -7 1 -15 -2
-18z m244 17 c0 -5 -4 -10 -10 -10 -5 0 -10 5 -10 10 0 6 5 10 10 10 6 0 10
-4 10 -10z m2090 -5 c0 -8 -2 -15 -4 -15 -2 0 -6 7 -10 15 -3 8 -1 15 4 15 6
0 10 -7 10 -15z m1580 5 c0 -5 -2 -10 -4 -10 -3 0 -8 5 -11 10 -3 6 -1 10 4
10 6 0 11 -4 11 -10z m-5380 -10 c0 -5 -8 -18 -17 -27 -10 -10 -18 -25 -18
-33 0 -8 -10 -16 -22 -18 -13 -2 -23 1 -23 7 0 6 5 11 12 11 6 0 8 3 5 6 -4 4
-13 1 -22 -6 -8 -7 -15 -8 -15 -2 0 5 7 12 15 16 8 3 15 12 15 20 0 17 30 30
30 13 0 -7 5 -4 11 6 11 18 29 23 29 7z m2141 -11 c8 -15 8 -28 1 -43 -6 -11
-20 -75 -32 -141 -25 -138 -58 -217 -123 -290 -38 -43 -46 -48 -60 -37 -24 20
-37 99 -26 157 6 28 9 79 8 115 -3 136 -3 135 79 201 32 25 58 39 68 35 9 -3
25 1 37 9 28 20 34 19 48 -6z m1699 2 c0 -10 -9 -21 -21 -24 -15 -4 -19 -2
-15 10 3 8 6 19 6 24 0 5 7 9 15 9 8 0 15 -8 15 -19z m1430 3 c0 -2 -7 -4 -15
-4 -8 0 -15 4 -15 10 0 5 7 7 15 4 8 -4 15 -8 15 -10z m3193 9 c-7 -2 -19 -2
-25 0 -7 3 -2 5 12 5 14 0 19 -2 13 -5z m-9169 -18 c-8 -19 -44 -40 -44 -26 0
8 38 41 47 41 1 0 0 -7 -3 -15z m165 -11 c-6 -7 -15 -11 -21 -8 -5 3 -4 12 3
20 6 7 15 11 21 8 5 -3 4 -12 -3 -20z m1141 -6 c0 -13 -31 -9 -46 6 -12 13
-11 15 8 18 22 3 37 -7 38 -24z m1070 17 c0 -8 -4 -15 -9 -15 -13 0 -22 16
-14 24 11 11 23 6 23 -9z m6364 3 c-3 -4 -9 -8 -15 -8 -5 0 -9 4 -9 8 0 5 7 9
15 9 8 0 12 -4 9 -9z m-6314 -2 c0 -3 -4 -8 -10 -11 -5 -3 -10 -1 -10 4 0 6 5
11 10 11 6 0 10 -2 10 -4z m2870 0 c0 -11 -19 -15 -25 -6 -3 5 1 10 9 10 9 0
16 -2 16 -4z m4030 -6 c12 -8 11 -10 -7 -10 -13 0 -23 5 -23 10 0 13 11 13 30
0z m75 0 c3 -5 1 -10 -4 -10 -6 0 -11 5 -11 10 0 6 2 10 4 10 3 0 8 -4 11 -10z
m-8679 -36 c-27 -27 -41 -28 -31 -3 5 14 46 38 54 32 2 -1 -8 -15 -23 -29z
m699 26 c3 -5 1 -10 -4 -10 -6 0 -11 5 -11 10 0 6 2 10 4 10 3 0 8 -4 11 -10z
m563 -26 c-10 -10 -28 6 -28 24 0 15 1 15 17 -1 9 -9 14 -19 11 -23z m2142 22
c0 -16 -18 -31 -27 -22 -8 8 5 36 17 36 5 0 10 -6 10 -14z m2590 4 c0 -5 -2
-10 -4 -10 -3 0 -8 5 -11 10 -3 6 -1 10 4 10 6 0 11 -4 11 -10z m-7074 -15
c14 -13 13 -15 -10 -15 -26 0 -35 -13 -16 -25 17 -10 11 -47 -10 -70 -11 -11
-21 -31 -23 -43 -3 -23 -17 -43 -17 -25 0 16 -42 3 -63 -18 -10 -11 -24 -19
-32 -19 -8 0 -15 -5 -15 -10 0 -6 -12 -9 -27 -8 -23 2 -29 -1 -31 -22 -2 -14
-8 -31 -14 -37 -11 -14 -32 -7 -23 8 4 5 1 9 -5 9 -7 0 -10 5 -8 11 2 6 7 10
11 9 4 0 15 7 24 15 9 9 26 23 39 32 14 9 21 20 17 27 -20 31 0 68 28 50 5 -3
9 1 9 10 0 8 12 29 27 46 19 23 32 31 50 27 13 -2 26 0 29 4 3 5 0 9 -5 9 -20
0 -11 19 17 34 34 19 31 19 48 1z m10199 6 c9 -16 -9 -20 -23 -5 -10 12 -10
14 2 14 8 0 17 -4 21 -9z m-8498 -7 c-3 -3 -12 -4 -19 -1 -8 3 -5 6 6 6 11 1
17 -2 13 -5z m1021 -24 c6 -11 9 -26 6 -35 -9 -24 -33 -18 -40 10 -4 14 -9 24
-12 21 -7 -8 -33 14 -27 23 8 14 61 -1 73 -19z m38 15 c-8 -21 11 -19 23 2 8
14 14 16 38 7 17 -6 27 -17 27 -27 -1 -9 2 -17 7 -17 5 0 9 -20 9 -45 0 -34
-4 -47 -17 -52 -10 -4 -21 -11 -25 -16 -3 -6 -11 8 -18 31 -6 23 -15 42 -20
42 -10 0 -50 62 -50 79 0 6 7 11 16 11 10 0 14 -6 10 -15z m-2102 -16 c-3 -5
-10 -6 -16 -3 -6 4 -14 0 -19 -7 -6 -9 -9 -10 -9 -2 0 14 31 34 42 26 5 -2 6
-9 2 -14z m27 -26 c-9 -16 -10 -15 -11 8 0 14 3 29 8 33 12 12 14 -22 3 -41z
m1091 25 c-7 -7 -12 -8 -12 -2 0 6 3 14 7 17 3 4 9 5 12 2 2 -3 -1 -11 -7 -17z
m7466 -3 c-3 -3 -9 2 -12 12 -6 14 -5 15 5 6 7 -7 10 -15 7 -18z m-7644 -6
c-8 -14 -21 -11 -21 5 0 8 6 12 14 9 7 -3 10 -9 7 -14z m3781 1 c3 -5 1 -10
-4 -10 -6 0 -11 5 -11 10 0 6 2 10 4 10 3 0 8 -4 11 -10z m3738 -20 c3 -10 18
-21 38 -25 28 -7 31 -9 14 -15 -10 -4 -35 -1 -55 6 -19 7 -47 15 -62 19 -17 3
-28 12 -28 21 0 12 6 15 24 10 14 -3 27 -2 31 4 8 14 32 2 38 -20z m-8143 10
c0 -5 -2 -10 -4 -10 -3 0 -8 5 -11 10 -3 6 -1 10 4 10 6 0 11 -4 11 -10z m81
-46 c12 -15 1 -24 -19 -17 -28 10 -41 24 -36 38 8 20 38 23 43 5 2 -8 7 -20
12 -26z m149 42 c0 -3 -4 -8 -10 -11 -5 -3 -10 -1 -10 4 0 6 5 11 10 11 6 0
10 -2 10 -4z m720 -12 c0 -2 -7 -4 -15 -4 -8 0 -15 4 -15 10 0 5 7 7 15 4 8
-4 15 -8 15 -10z m5285 6 c4 -6 -5 -10 -19 -10 -14 0 -26 5 -26 10 0 6 9 10
19 10 11 0 23 -4 26 -10z m-6048 -6 c-3 -3 -12 -4 -19 -1 -8 3 -5 6 6 6 11 1
17 -2 13 -5z m411 -6 c-2 -6 -20 -13 -39 -15 l-34 -4 25 15 c31 18 53 20 48 4z
m124 -7 c-12 -10 -19 -21 -15 -25 12 -12 23 -6 35 19 6 14 16 25 21 25 5 0 3
-8 -4 -17 -12 -15 -12 -16 4 -10 15 6 16 4 7 -13 -6 -11 -19 -20 -30 -20 -17
0 -18 -3 -8 -25 13 -28 19 -30 36 -13 9 9 12 6 12 -15 0 -17 -5 -27 -15 -27
-8 0 -15 5 -15 10 0 6 -9 10 -20 10 -11 0 -20 6 -20 14 0 9 -7 12 -21 9 -16
-4 -20 -2 -17 8 3 8 13 13 22 13 20 -2 21 15 1 22 -22 9 -18 28 8 40 34 18 42
16 19 -5z m-605 -16 c-15 -16 -22 -11 -13 10 3 9 10 13 16 10 6 -4 5 -11 -3
-20z m139 1 c0 -13 -7 -29 -14 -35 -10 -10 -11 -7 -6 16 12 48 23 59 20 19z
m594 14 c0 -5 -5 -10 -11 -10 -5 0 -7 5 -4 10 3 6 8 10 11 10 2 0 4 -4 4 -10z
m50 0 c12 -8 9 -10 -13 -10 -16 0 -26 4 -22 10 8 12 16 12 35 0z m904 -37 c9
-19 14 -38 11 -41 -6 -7 -45 33 -45 47 0 5 -5 11 -12 13 -6 2 -8 9 -4 16 11
18 31 4 50 -35z m-1876 25 c-3 -7 -11 -13 -18 -13 -7 0 -15 6 -17 13 -3 7 4
12 17 12 13 0 20 -5 18 -12z m302 2 c0 -5 -5 -10 -11 -10 -5 0 -7 5 -4 10 3 6
8 10 11 10 2 0 4 -4 4 -10z m399 -21 c-12 -23 -29 -25 -29 -4 0 8 5 15 11 15
5 0 7 4 4 10 -3 6 1 7 9 4 12 -5 13 -11 5 -25z m-1303 1 c0 -20 -7 -25 -19
-14 -7 7 2 34 12 34 4 0 7 -9 7 -20z m1242 -22 c-23 -29 -43 -38 -43 -18 0 6
5 10 10 11 6 0 16 11 23 25 7 13 17 22 23 18 6 -3 1 -18 -13 -36z m-238 22 c0
-5 -5 -10 -11 -10 -5 0 -7 5 -4 10 3 6 8 10 11 10 2 0 4 -4 4 -10z m540 1 c0
-6 -4 -13 -10 -16 -5 -3 -10 1 -10 9 0 9 5 16 10 16 6 0 10 -4 10 -9z m355 -1
c3 -5 -1 -10 -10 -10 -9 0 -13 5 -10 10 3 6 8 10 10 10 2 0 7 -4 10 -10z
m-330 -19 c-3 -6 -11 -11 -17 -11 -6 0 -6 6 2 15 14 17 26 13 15 -4z m3315 -2
c0 -5 -4 -9 -10 -9 -5 0 -10 7 -10 16 0 8 5 12 10 9 6 -3 10 -10 10 -16z
m-4824 -19 c8 0 14 -4 14 -8 0 -14 -39 -45 -58 -47 -9 0 -23 -4 -30 -8 -8 -5
-10 -3 -6 6 3 8 13 17 23 20 10 2 21 19 26 38 5 23 9 28 12 17 2 -10 11 -18
19 -18z m1594 10 c0 -5 7 -6 17 -3 11 4 14 3 9 -6 -5 -7 -14 -10 -21 -7 -8 3
-19 -2 -25 -10 -11 -12 -50 -20 -50 -10 0 2 -3 11 -6 19 -4 11 2 17 18 20 42
8 58 7 58 -3z m-345 -10 c-3 -5 -12 -10 -18 -10 -7 0 -6 4 3 10 19 12 23 12
15 0z m-2289 -35 c0 -25 -28 -36 -41 -16 -4 7 30 41 40 41 1 0 1 -11 1 -25z
m2234 11 c0 -3 -4 -8 -10 -11 -5 -3 -10 -1 -10 4 0 6 5 11 10 11 6 0 10 -2 10
-4z m3789 -22 c-15 -18 -22 -13 -13 10 3 9 10 13 16 10 5 -3 4 -12 -3 -20z
m-3659 -17 c0 -23 -25 -48 -50 -50 -14 0 -30 -7 -35 -15 -6 -8 -18 -10 -28 -6
-17 6 -17 8 1 28 11 11 25 30 31 41 9 15 11 15 7 3 -3 -12 0 -18 10 -18 8 0
12 5 9 10 -4 6 -1 17 5 25 14 17 50 3 50 -18z m-1432 4 c-7 -11 -16 -17 -20
-15 -14 9 -9 22 10 27 9 3 18 5 20 6 1 0 -3 -8 -10 -18z m5002 15 c0 -2 -9 -6
-20 -9 -11 -3 -20 -1 -20 4 0 5 9 9 20 9 11 0 20 -2 20 -4z m-5340 -21 c-7 -9
-15 -13 -17 -11 -7 7 7 26 19 26 6 0 6 -6 -2 -15z m1620 5 c0 -5 -4 -10 -9
-10 -5 0 -17 -3 -27 -7 -16 -6 -17 -5 -4 10 17 18 40 22 40 7z m-1550 -13 c0
-7 -9 -18 -20 -25 -12 -7 -20 -8 -20 -2 0 5 5 10 10 10 6 0 10 7 10 15 0 8 5
15 10 15 6 0 10 -6 10 -13z m447 2 c13 -13 6 -39 -11 -39 -22 0 -36 21 -23 36
15 16 20 17 34 3z m99 -5 c-3 -9 -6 -19 -6 -24 0 -11 -59 -34 -67 -26 -10 10
31 43 46 38 10 -3 12 0 8 12 -4 11 -1 16 9 16 11 0 14 -6 10 -16z m1234 6 c0
-5 -5 -10 -11 -10 -5 0 -7 5 -4 10 3 6 8 10 11 10 2 0 4 -4 4 -10z m150 0 c0
-5 -7 -10 -16 -10 -8 0 -12 5 -9 10 3 6 10 10 16 10 5 0 9 -4 9 -10z m3194 -6
c17 -7 22 -34 6 -34 -5 0 -14 9 -20 20 -12 22 -10 23 14 14z m269 -15 c-7 -7
-19 -8 -30 -4 -16 7 -15 9 7 15 30 8 38 4 23 -11z m-169 -4 c6 -17 4 -18 -18
-9 -20 8 -21 24 -2 24 8 0 16 -7 20 -15z m2209 1 c3 -8 -6 -17 -28 -23 -30
-10 -32 -9 -32 13 0 20 5 24 27 24 15 0 30 -6 33 -14z m-5397 -23 c-10 -10
-19 5 -10 18 6 11 8 11 12 0 2 -7 1 -15 -2 -18z m-2826 7 c0 -5 -4 -10 -9 -10
-6 0 -13 5 -16 10 -3 6 1 10 9 10 9 0 16 -4 16 -10z m-65 -10 c3 -5 -1 -10
-10 -10 -9 0 -13 5 -10 10 3 6 8 10 10 10 2 0 7 -4 10 -10z m2415 -11 c0 -5
-4 -9 -10 -9 -5 0 -10 7 -10 16 0 8 5 12 10 9 6 -3 10 -10 10 -16z m197 4 c-4
-3 -3 -11 3 -18 14 -17 0 -55 -20 -55 -16 0 -17 5 -10 30 10 34 19 50 27 50 4
0 3 -3 0 -7z m253 3 c0 -3 -4 -8 -10 -11 -5 -3 -10 -1 -10 4 0 6 5 11 10 11 6
0 10 -2 10 -4z m-2467 -21 c9 -4 24 -5 31 -2 10 4 13 1 10 -8 -4 -9 -16 -12
-39 -8 -19 3 -35 1 -39 -6 -8 -12 -46 -15 -46 -4 0 3 7 14 15 23 15 17 36 19
68 5z m1718 -5 c12 0 16 -6 12 -20 -3 -13 0 -20 8 -20 11 0 11 -2 0 -12 -11
-10 -14 -10 -18 0 -3 6 -11 12 -19 12 -8 0 -14 3 -14 8 0 4 -3 18 -6 32 -6 21
-4 23 7 13 7 -7 21 -13 30 -13z m404 4 c19 -15 19 -15 -9 -12 -16 2 -31 9 -34
16 -5 17 19 15 43 -4z m60 6 c-3 -5 -11 -10 -16 -10 -6 0 -7 5 -4 10 3 6 11
10 16 10 6 0 7 -4 4 -10z m7225 6 c0 -2 -7 -6 -15 -10 -8 -3 -15 -1 -15 4 0 6
7 10 15 10 8 0 15 -2 15 -4z m-9145 -25 c-3 -6 -14 -10 -23 -10 -15 1 -15 2 1
6 9 2 17 9 17 15 0 6 3 9 6 5 3 -3 3 -10 -1 -16z m2173 -11 c7 0 9 -7 5 -17
-5 -12 -3 -14 8 -7 19 12 39 14 39 4 0 -4 -7 -11 -16 -14 -9 -4 -14 -9 -11
-13 4 -3 2 -14 -4 -25 -10 -18 -8 -19 11 -13 15 5 20 4 16 -4 -4 -6 -13 -11
-21 -11 -8 0 -11 -7 -8 -20 3 -11 13 -20 22 -20 9 0 12 -3 6 -8 -6 -4 -12 -17
-12 -30 -2 -18 1 -21 11 -13 7 6 16 8 20 4 4 -4 5 -1 1 7 -4 11 3 15 30 16 20
1 37 3 39 5 7 10 -7 89 -16 89 -7 0 -8 -16 -4 -42 l6 -43 -15 29 c-20 38 -20
42 16 77 25 25 29 33 18 40 -11 7 -10 9 4 9 13 0 17 -8 17 -34 0 -19 -5 -38
-10 -41 -10 -6 -8 -22 7 -61 6 -16 -53 -75 -69 -69 -9 4 -19 -4 -26 -20 -6
-14 -16 -25 -21 -25 -15 0 -33 29 -25 42 4 7 -2 5 -12 -6 -14 -13 -15 -20 -6
-23 13 -5 17 -33 4 -33 -4 0 -15 11 -26 24 -11 16 -24 22 -34 19 -12 -5 -11
-8 6 -14 11 -4 25 -17 31 -27 9 -18 7 -19 -30 -16 -37 3 -40 2 -38 -19 2 -12
-5 -36 -14 -53 -16 -31 -16 -32 3 -37 23 -6 26 -25 6 -33 -8 -3 -12 -12 -9
-21 3 -8 1 -24 -5 -36 -6 -12 -12 -31 -14 -42 -2 -12 -11 -19 -21 -19 -21 2
-21 -3 -2 -22 9 -9 23 -13 34 -9 26 8 32 -6 31 -62 -2 -98 -6 -123 -28 -152
-31 -42 -29 -59 6 -53 15 2 32 10 38 18 6 8 28 21 48 29 22 9 41 26 46 41 11
27 30 24 30 -4 0 -15 -2 -15 -10 -2 -8 12 -10 10 -10 -8 0 -15 -7 -26 -20 -29
-11 -3 -20 -12 -20 -20 0 -11 5 -13 18 -8 9 4 25 7 34 7 9 0 24 10 33 24 8 13
23 24 31 24 10 0 14 6 11 14 -4 10 -1 13 9 9 7 -3 14 -13 14 -22 0 -14 2 -14
10 -1 5 8 10 11 10 5 1 -5 8 3 16 18 8 15 19 25 23 23 12 -7 44 31 37 42 -3 6
0 12 8 15 17 7 28 -40 15 -65 -6 -11 -5 -18 4 -22 6 -4 -5 -4 -25 -2 -24 3
-41 0 -49 -10 -14 -17 2 -19 20 -1 11 10 13 8 8 -11 -4 -19 -2 -22 11 -17 38
15 132 34 129 26 0 -3 6 -19 15 -36 8 -16 19 -44 22 -61 6 -28 4 -33 -26 -47
-43 -19 -64 -25 -118 -31 -184 -21 -321 -43 -353 -55 -16 -6 -52 -11 -82 -11
-30 0 -66 -4 -80 -10 -42 -16 -191 -25 -199 -11 -4 6 -17 11 -28 11 -18 0 -20
4 -15 35 5 30 3 35 -11 33 -9 -2 -17 4 -17 12 -2 62 -19 84 -63 83 -8 -1 -10
6 -7 17 3 10 0 20 -9 23 -10 4 -14 16 -12 35 5 33 -7 61 -18 43 -4 -6 -4 -15
-1 -21 3 -5 0 -10 -7 -10 -24 0 -16 40 10 47 12 3 21 8 18 11 -3 3 2 11 12 18
11 9 13 13 4 14 -19 0 -44 28 -37 40 4 6 11 7 17 4 6 -4 8 -2 5 3 -4 6 0 16 8
23 13 10 15 9 15 -9 0 -24 33 -61 55 -61 8 0 15 7 15 16 0 10 -6 14 -15 10 -9
-3 -15 0 -15 9 0 8 5 15 11 15 5 0 8 4 5 9 -4 5 4 7 15 4 12 -4 24 -14 26 -25
7 -24 23 -23 23 2 0 20 9 24 43 20 10 -1 24 3 30 8 7 6 23 12 37 14 22 3 25 7
22 36 -2 33 -24 67 -35 56 -3 -3 -10 4 -17 15 -8 17 -8 21 4 21 8 0 16 -5 18
-12 3 -7 15 0 30 16 23 25 26 26 41 12 14 -14 17 -13 32 10 16 24 16 25 -2 16
-15 -9 -19 -7 -19 9 0 10 6 19 13 19 7 0 13 9 13 20 0 22 10 26 27 9 8 -8 13
-8 17 0 4 6 2 11 -5 11 -7 0 -3 10 10 23 13 15 19 30 15 41 -5 12 -2 15 9 10
10 -3 13 -12 10 -22 -4 -13 -3 -14 6 -6 6 6 14 26 17 45 5 32 4 34 -25 35 -17
1 -31 -3 -31 -7 0 -5 -5 -9 -11 -9 -6 0 -8 8 -4 20 4 12 -1 25 -13 36 -11 9
-17 24 -15 35 4 14 10 16 30 8 25 -9 43 -5 43 12 0 5 -7 9 -15 9 -8 0 -15 2
-15 5 0 14 57 94 63 89 4 -4 7 3 7 15 0 12 4 19 10 16 15 -9 12 -36 -6 -56
-21 -23 -11 -57 11 -39 14 12 16 10 14 -6 -2 -13 23 -21 47 -16 13 2 24 8 24
13 0 5 -7 6 -15 3 -11 -5 -15 1 -15 21 0 22 3 25 21 20 20 -7 20 -6 3 19 -14
23 -15 31 -5 54 12 25 14 25 25 9 7 -9 18 -17 24 -17z m325 5 c4 -8 13 -15 19
-15 5 0 23 -11 38 -24 l28 -23 -21 -12 c-12 -6 -36 -13 -54 -14 -17 -2 -39 -9
-47 -16 -9 -7 -23 -11 -31 -7 -21 8 -45 -3 -45 -20 0 -8 -9 -23 -20 -34 l-20
-20 0 34 c0 19 4 36 9 38 5 2 6 20 2 44 -4 22 -5 49 -1 60 12 34 125 41 143 9z
m6092 -10 c0 -10 -6 -20 -12 -22 -8 -3 -13 5 -13 22 0 17 5 25 13 23 6 -3 12
-13 12 -23z m-6601 -9 c-10 -8 -21 -12 -23 -10 -3 2 4 11 15 18 10 8 21 12 23
10 3 -2 -4 -11 -15 -18z m112 -2 c-4 -9 -9 -15 -11 -12 -3 3 -3 13 1 22 4 9 9
15 11 12 3 -3 3 -13 -1 -22z m6947 5 c-4 -15 -9 -17 -17 -9 -8 8 -7 13 4 20 8
5 16 10 17 10 0 0 -1 -9 -4 -21z m77 17 c0 -11 -19 -15 -25 -6 -3 5 1 10 9 10
9 0 16 -2 16 -4z m-6229 -16 c5 0 9 -13 9 -29 0 -16 6 -31 15 -35 12 -4 13 -2
3 14 -15 24 -4 37 17 20 15 -12 17 -60 3 -60 -4 0 -8 -7 -8 -15 0 -8 7 -15 15
-15 8 0 15 7 15 15 0 8 5 15 11 15 6 0 10 -23 8 -57 -1 -43 6 -74 26 -121 34
-81 42 -137 50 -354 l6 -177 -35 -6 c-19 -4 -42 -15 -52 -26 -9 -10 -21 -16
-25 -13 -5 3 -9 -3 -9 -14 0 -10 -7 -19 -15 -19 -8 0 -12 3 -10 7 2 3 0 12 -6
20 -7 13 -9 13 -9 0 -1 -12 -3 -11 -11 3 -14 24 -38 21 -61 -9 -13 -16 -27
-24 -39 -21 -10 3 -20 0 -22 -6 -2 -6 -35 -13 -74 -15 l-71 -4 -15 48 c-9 27
-17 63 -19 79 -1 17 -6 35 -11 42 -13 17 2 36 24 30 11 -3 19 0 19 5 0 6 8 17
17 24 28 20 11 24 -25 7 -18 -9 -35 -13 -38 -10 -10 10 4 53 26 78 l20 24 20
-25 20 -25 0 25 c1 24 2 24 10 4 13 -33 40 -39 40 -9 0 14 5 25 10 25 13 0 13
46 0 71 -8 15 -7 19 4 19 8 0 16 -6 19 -12 8 -22 20 1 21 37 1 19 4 35 9 35 4
0 7 -5 7 -10 0 -6 8 -5 20 2 21 13 28 62 10 73 -6 3 -7 -1 -4 -9 3 -9 1 -16
-5 -16 -6 0 -12 3 -12 8 -7 48 -7 72 1 77 6 3 10 -1 10 -9 0 -9 2 -16 4 -16 2
0 11 -3 19 -6 8 -3 17 2 20 10 4 10 1 13 -9 9 -7 -3 -14 0 -14 6 0 6 7 11 15
11 9 0 18 7 22 16 3 8 12 13 19 10 14 -5 13 15 -2 62 -2 7 1 10 6 7 18 -11 11
27 -7 41 -12 9 -14 13 -5 14 7 0 11 4 8 9 -3 4 -22 6 -43 4 -30 -3 -44 2 -65
22 -21 20 -34 24 -54 19 -20 -5 -25 -4 -20 5 9 14 -12 43 -25 35 -13 -8 -49
15 -49 31 0 24 49 18 71 -7 10 -13 18 -17 19 -10 0 6 5 12 11 12 6 0 17 7 25
15 40 39 67 8 76 -87 3 -25 35 -23 33 2 -1 11 -4 23 -8 26 -13 14 -7 24 16 25
20 1 20 2 2 6 -11 3 -24 9 -29 13 -11 11 16 40 32 35 8 -3 18 -5 23 -5z m4375
-17 c-7 -7 -26 7 -26 19 0 6 6 6 15 -2 9 -7 13 -15 11 -17z m-1966 7 c0 -5 -4
-10 -10 -10 -5 0 -10 5 -10 10 0 6 5 10 10 10 6 0 10 -4 10 -10z m-3720 -34
c0 -3 -4 -8 -10 -11 -5 -3 -10 -1 -10 4 0 6 5 11 10 11 6 0 10 -2 10 -4z m508
-8 c-3 -7 -11 -13 -18 -13 -7 0 -15 6 -17 13 -3 7 4 12 17 12 13 0 20 -5 18
-12z m-1704 -16 c8 -13 -18 -37 -41 -38 -27 -1 -30 14 -5 32 19 15 39 18 46 6z
m1573 -14 c-3 -8 -6 -5 -6 6 -1 11 2 17 5 13 3 -3 4 -12 1 -19z m-2287 8 c0
-3 -4 -8 -10 -11 -5 -3 -10 -1 -10 4 0 6 5 11 10 11 6 0 10 -2 10 -4z m9067
-13 c-11 -10 26 -32 54 -33 14 0 29 -4 35 -9 5 -5 17 -11 26 -13 26 -5 -2 -37
-38 -42 -16 -3 -39 -8 -50 -11 -12 -4 -25 -2 -28 4 -4 6 -17 11 -29 11 -28 1
-57 23 -57 44 0 11 9 16 26 16 17 0 28 6 31 20 3 11 12 20 21 20 8 0 12 -3 9
-7z m-7127 -7 c0 -3 -4 -8 -10 -11 -5 -3 -10 -1 -10 4 0 6 5 11 10 11 6 0 10
-2 10 -4z m7177 -2 c-3 -3 -12 -4 -19 -1 -8 3 -5 6 6 6 11 1 17 -2 13 -5z
m-7077 -14 c0 -5 -4 -10 -10 -10 -5 0 -10 5 -10 10 0 6 5 10 10 10 6 0 10 -4
10 -10z m-1900 -16 c0 -8 -4 -12 -10 -9 -5 3 -10 10 -10 16 0 5 5 9 10 9 6 0
10 -7 10 -16z m1488 4 c-2 -6 -10 -14 -16 -16 -7 -2 -10 2 -6 12 7 18 28 22
22 4z m546 -14 c8 -21 1 -28 -18 -21 -9 4 -13 13 -10 22 8 20 20 19 28 -1z
m5316 12 c0 -2 -7 -7 -16 -10 -8 -3 -12 -2 -9 4 6 10 25 14 25 6z m-6430 -32
c0 -8 -4 -12 -10 -9 -5 3 -10 10 -10 16 0 5 5 9 10 9 6 0 10 -7 10 -16z m494
10 c9 -3 13 -10 10 -15 -8 -14 -31 -11 -38 6 -6 16 3 19 28 9z m-404 -29 c0
-8 -4 -15 -10 -15 -5 0 -7 7 -4 15 4 8 8 15 10 15 2 0 4 -7 4 -15z m-36 -25
c8 0 13 -10 12 -22 -1 -30 -48 -33 -52 -3 -3 22 18 54 24 36 2 -6 9 -11 16
-11z m1861 10 c-3 -5 -11 -10 -16 -10 -6 0 -7 5 -4 10 3 6 11 10 16 10 6 0 7
-4 4 -10z m-1765 -20 c0 -5 -8 -10 -17 -10 -15 0 -16 2 -3 10 19 12 20 12 20
0z m38 -19 c3 -8 -1 -12 -9 -9 -7 2 -15 10 -17 17 -3 8 1 12 9 9 7 -2 15 -10
17 -17z m1792 -13 c0 -5 -7 -8 -15 -8 -17 0 -18 2 -9 25 5 13 8 14 15 3 5 -7
9 -16 9 -20z m4445 22 c3 -5 2 -10 -4 -10 -5 0 -13 5 -16 10 -3 6 -2 10 4 10
5 0 13 -4 16 -10z m-4605 -21 c0 -5 -10 -9 -21 -9 -18 0 -19 2 -9 15 12 15 30
12 30 -6z m-1936 -31 c-9 -14 -23 2 -17 18 4 12 8 13 14 3 4 -7 5 -17 3 -21z
m633 17 c0 -18 -19 -15 -25 3 -2 7 3 12 11 12 7 0 14 -7 14 -15z m-47 -5 c0
-5 -2 -10 -4 -10 -3 0 -8 5 -11 10 -3 6 -1 10 4 10 6 0 11 -4 11 -10z m1610
-15 c-7 -8 -18 -15 -24 -15 -6 0 -2 7 8 15 25 19 32 19 16 0z m-870 -9 c0 -3
-4 -8 -10 -11 -5 -3 -10 -1 -10 4 0 6 5 11 10 11 6 0 10 -2 10 -4z m750 -32
c0 -19 -4 -25 -15 -20 -10 4 -15 -1 -15 -14 0 -13 -5 -17 -14 -14 -17 6 -11
30 13 56 23 24 31 22 31 -8z m3078 -9 c-3 -28 -6 -29 -28 -15 -10 6 -11 10 -2
10 6 0 12 7 12 15 0 8 4 15 10 15 5 0 9 -11 8 -25z m-5536 3 c-9 -9 -15 -9
-24 0 -9 9 -7 12 12 12 19 0 21 -3 12 -12z m3258 -28 c0 -5 -2 -10 -4 -10 -3
0 -8 5 -11 10 -3 6 -1 10 4 10 6 0 11 -4 11 -10z m-2090 -10 c0 -5 -2 -10 -4
-10 -3 0 -8 5 -11 10 -3 6 -1 10 4 10 6 0 11 -4 11 -10z m950 0 c0 -5 -5 -10
-11 -10 -5 0 -7 5 -4 10 3 6 8 10 11 10 2 0 4 -4 4 -10z m3400 -4 c0 -3 -4 -8
-10 -11 -5 -3 -10 -1 -10 4 0 6 5 11 10 11 6 0 10 -2 10 -4z m-3317 -37 c14
-10 -7 -19 -21 -10 -8 5 -10 15 -6 26 6 15 9 16 12 4 3 -7 9 -17 15 -20z
m-573 4 c0 -10 -50 -58 -50 -49 0 12 32 56 41 56 5 0 9 -3 9 -7z m1935 -3 c3
-5 1 -10 -4 -10 -6 0 -11 5 -11 10 0 6 2 10 4 10 3 0 8 -4 11 -10z m-3665 -4
c0 -3 -4 -8 -10 -11 -5 -3 -10 -1 -10 4 0 6 5 11 10 11 6 0 10 -2 10 -4z
m4265 -36 c3 -11 11 -20 16 -20 13 0 11 -12 -5 -33 -17 -22 -42 -13 -55 21 -6
18 -10 21 -10 10 -1 -10 -5 -18 -11 -18 -16 0 -12 12 12 37 26 28 45 29 53 3z
m50 10 c3 -5 2 -10 -4 -10 -5 0 -13 5 -16 10 -3 6 -2 10 4 10 5 0 13 -4 16
-10z m-2005 -10 c0 -5 -2 -10 -4 -10 -3 0 -8 5 -11 10 -3 6 -1 10 4 10 6 0 11
-4 11 -10z m-230 -10 c0 -5 -5 -10 -11 -10 -5 0 -7 5 -4 10 3 6 8 10 11 10 2
0 4 -4 4 -10z m1384 -39 l7 -43 -47 6 c-26 3 -49 8 -52 11 -7 6 40 41 50 37 5
-1 13 7 20 18 15 23 14 25 22 -29z m706 28 c0 -5 -7 -9 -15 -9 -15 0 -20 12
-9 23 8 8 24 -1 24 -14z m-3006 -42 c-3 -9 -11 -17 -16 -17 -6 0 -7 7 -4 16 3
9 6 21 6 27 0 8 3 8 10 1 6 -6 8 -18 4 -27z m-109 13 c-3 -5 -13 -10 -21 -10
-8 0 -12 5 -9 10 3 6 13 10 21 10 8 0 12 -4 9 -10z m3305 -20 c0 -13 15 -25
45 -39 25 -11 45 -25 45 -32 0 -8 5 -7 17 2 12 10 17 11 20 2 2 -7 11 -9 19
-6 10 4 15 0 14 -8 -6 -39 2 -59 26 -72 18 -10 23 -16 15 -22 -7 -4 -18 0 -25
10 -10 14 -21 16 -57 11 -50 -7 -121 -8 -128 0 -3 2 1 10 7 16 8 8 9 15 1 25
-9 10 -8 13 1 13 8 0 11 3 8 6 -4 3 -15 1 -26 -5 -14 -7 -18 -17 -15 -31 4
-17 0 -20 -25 -20 -17 0 -34 5 -37 10 -9 15 -55 12 -61 -4 -7 -18 -63 -41 -91
-38 -12 2 -33 -4 -48 -14 -14 -9 -28 -14 -31 -12 -9 10 8 58 20 57 6 -1 24 3
39 9 16 7 43 12 61 12 19 0 39 7 46 15 7 8 23 15 36 15 15 0 24 6 24 15 0 8
-4 15 -10 15 -5 0 -10 7 -10 15 0 8 5 15 11 15 5 0 7 5 4 10 -3 6 3 10 15 10
12 0 18 4 15 10 -7 11 55 41 67 34 5 -3 8 -14 8 -24z m95 20 c3 -5 2 -10 -4
-10 -5 0 -13 5 -16 10 -3 6 -2 10 4 10 5 0 13 -4 16 -10z m-3325 -4 c0 -2 -7
-6 -15 -10 -8 -3 -15 -1 -15 4 0 6 7 10 15 10 8 0 15 -2 15 -4z m6975 -16 c-3
-5 -14 -10 -23 -10 -15 0 -15 2 -2 10 20 13 33 13 25 0z m-6445 -10 c0 -5 -5
-10 -11 -10 -5 0 -7 5 -4 10 3 6 8 10 11 10 2 0 4 -4 4 -10z m1862 -32 c-6 -6
-16 -8 -22 -6 -9 3 -7 9 6 22 13 13 19 15 22 6 2 -6 0 -16 -6 -22z m603 21 c4
-6 14 -8 22 -5 8 3 21 -1 30 -10 13 -12 13 -20 5 -40 -9 -19 -19 -24 -46 -24
-33 0 -34 1 -38 45 -3 43 11 61 27 34z m-2560 -9 c4 -6 -5 -10 -20 -10 -15 0
-24 4 -20 10 3 6 12 10 20 10 8 0 17 -4 20 -10z m2375 6 c0 -3 -4 -8 -10 -11
-5 -3 -10 -1 -10 4 0 6 5 11 10 11 6 0 10 -2 10 -4z m-1778 -28 c-7 -7 -12 -8
-12 -2 0 6 3 14 7 17 3 4 9 5 12 2 2 -3 -1 -11 -7 -17z m-1486 3 c-8 -12 -46
-21 -46 -11 0 5 8 11 18 13 29 8 33 7 28 -2z m938 -6 c-7 -16 -24 -21 -24 -6
0 8 7 13 27 20 1 1 0 -6 -3 -14z m2314 -61 c-4 -6 -6 -13 -3 -16 3 -2 -9 -3
-25 0 -17 2 -33 9 -36 14 -4 6 2 8 15 3 22 -7 28 4 12 21 -5 5 -5 19 1 34 l10
25 17 -35 c10 -20 14 -40 9 -46z m92 65 c0 -7 -5 -28 -11 -49 -9 -31 -15 -37
-40 -37 -24 0 -26 3 -18 18 5 10 14 21 19 24 6 3 10 17 10 31 0 17 5 24 20 24
11 0 20 -5 20 -11z m4075 1 c-3 -5 -1 -10 4 -10 6 0 11 -8 11 -17 0 -16 -3
-15 -18 3 -9 12 -24 24 -32 27 -8 3 -2 6 13 6 16 1 26 -3 22 -9z m-3875 -21
c0 -5 -4 -9 -10 -9 -5 0 -10 7 -10 16 0 8 5 12 10 9 6 -3 10 -10 10 -16z
m-3655 1 c-3 -5 -10 -10 -16 -10 -5 0 -9 5 -9 10 0 6 7 10 16 10 8 0 12 -4 9
-10z m1750 0 c3 -5 -3 -10 -14 -10 -12 0 -21 5 -21 10 0 6 6 10 14 10 8 0 18
-4 21 -10z m-4005 -22 c0 -6 -7 -8 -14 -5 -11 4 -13 1 -9 -11 4 -13 2 -12 -10
3 -10 13 -12 22 -5 27 14 8 38 -1 38 -14z m582 7 c0 -5 -5 -11 -11 -13 -6 -2
-11 4 -11 13 0 9 5 15 11 13 6 -2 11 -8 11 -13z m3313 5 c-3 -5 -11 -10 -16
-10 -6 0 -7 5 -4 10 3 6 11 10 16 10 6 0 7 -4 4 -10z m5865 -6 c0 -3 -7 -12
-15 -20 -8 -8 -12 -21 -9 -29 8 -20 -10 -19 -30 1 -27 26 -18 40 22 35 6 -1
12 3 12 9 0 5 5 10 10 10 6 0 10 -3 10 -6z m-7470 -20 c0 -2 -12 -4 -26 -4
-14 0 -23 4 -20 9 6 8 46 4 46 -5z m7370 12 c0 -3 -4 -8 -10 -11 -5 -3 -10 -1
-10 4 0 6 5 11 10 11 6 0 10 -2 10 -4z m-8400 -21 c13 -16 3 -20 -24 -9 -9 3
-13 10 -10 15 8 13 20 11 34 -6z m2694 -17 c6 -4 7 -11 2 -15 -5 -4 -11 -2
-13 5 -3 6 -11 12 -19 12 -12 0 -12 3 -2 14 9 10 14 11 17 3 2 -7 9 -15 15
-19z m-3484 18 c0 -11 -19 -15 -25 -6 -3 5 1 10 9 10 9 0 16 -2 16 -4z m3530
-6 c0 -5 -8 -10 -17 -10 -15 0 -16 2 -3 10 19 12 20 12 20 0z m1324 -12 c9
-37 7 -45 -13 -51 -23 -6 -34 14 -25 49 8 30 30 31 38 2z m4866 -5 c29 -9 -18
-24 -55 -17 -19 3 -35 8 -35 9 0 2 3 10 6 18 6 16 5 16 84 -10z m-9635 -3 c-3
-5 -13 -6 -21 -3 -12 4 -13 8 -3 14 15 9 32 2 24 -11z m4345 5 c15 -18 9 -50
-10 -50 -10 0 -16 12 -18 33 -3 34 8 41 28 17z m505 5 c-3 -5 -14 -10 -23 -10
-15 0 -15 2 -2 10 20 13 33 13 25 0z m4939 4 c26 -10 18 -23 -13 -22 -23 1
-27 4 -17 14 13 16 11 15 30 8z m-8094 -12 c0 -13 -12 -22 -22 -16 -10 6 -1
24 13 24 5 0 9 -4 9 -8z m726 -22 c-4 -39 -12 -47 -21 -21 -3 12 -12 21 -18
21 -13 1 22 30 35 30 4 0 6 -14 4 -30z m1054 20 c0 -5 -2 -10 -4 -10 -3 0 -8
5 -11 10 -3 6 -1 10 4 10 6 0 11 -4 11 -10z m2676 -3 c8 3 14 1 14 -5 0 -15
-24 -21 -56 -16 -16 3 -40 5 -54 6 -23 0 -23 1 -7 13 12 9 29 10 54 5 19 -5
42 -6 49 -3z m3584 -8 c0 -6 -4 -7 -10 -4 -5 3 -10 11 -10 16 0 6 5 7 10 4 6
-3 10 -11 10 -16z m-10395 1 c3 -5 -1 -10 -9 -10 -9 0 -16 5 -16 10 0 6 4 10
9 10 6 0 13 -4 16 -10z m6522 -32 c-3 -8 -6 -5 -6 6 -1 11 2 17 5 13 3 -3 4
-12 1 -19z m-5416 -15 c-8 -15 -10 -15 -11 -2 0 17 10 32 18 25 2 -3 -1 -13
-7 -23z m4372 -25 c4 1 15 -4 23 -13 13 -12 13 -15 1 -15 -8 0 -34 -3 -58 -6
-40 -5 -45 -4 -46 14 -1 13 6 22 21 26 13 3 27 16 31 28 7 22 8 21 14 -7 3
-16 10 -29 14 -27z m-2485 17 c7 -14 12 -34 12 -45 0 -10 5 -22 10 -25 6 -3
10 -14 10 -23 0 -12 -9 -7 -29 18 -16 19 -27 38 -24 43 3 4 2 15 -1 24 -6 14
-9 13 -32 -2 -19 -12 -25 -13 -22 -3 4 12 44 37 59 38 3 0 11 -11 17 -25z
m932 15 c0 -5 -4 -10 -10 -10 -5 0 -10 5 -10 10 0 6 5 10 10 10 6 0 10 -4 10
-10z m-780 -20 c0 -5 -4 -10 -10 -10 -5 0 -10 5 -10 10 0 6 5 10 10 10 6 0 10
-4 10 -10z m2487 -12 c-3 -8 -6 -5 -6 6 -1 11 2 17 5 13 3 -3 4 -12 1 -19z
m-5457 2 c0 -5 -8 -10 -17 -10 -15 0 -16 2 -3 10 19 12 20 12 20 0z m5364 -5
c-4 -8 -11 -12 -16 -9 -6 4 -5 10 3 15 19 12 19 11 13 -6z m-264 -37 c0 -5
-10 -8 -22 -7 -13 0 -17 3 -10 6 6 2 12 12 12 21 0 15 2 15 10 2 5 -8 10 -18
10 -22z m-2150 12 c0 -5 -4 -10 -10 -10 -5 0 -10 5 -10 10 0 6 5 10 10 10 6 0
10 -4 10 -10z m2243 -2 c-6 -11 -31 -10 -37 1 -3 5 5 8 18 7 13 0 22 -4 19 -8z
m-228 -27 c-6 -5 -25 10 -25 20 0 5 6 4 14 -3 8 -7 12 -15 11 -17z m65 14 c0
-8 -4 -15 -10 -15 -5 0 -7 7 -4 15 4 8 8 15 10 15 2 0 4 -7 4 -15z m-4515 -15
c-10 -11 -22 -17 -28 -13 -6 4 -3 12 8 20 28 20 41 16 20 -7z m4485 10 c0 -5
-5 -10 -11 -10 -5 0 -7 5 -4 10 3 6 8 10 11 10 2 0 4 -4 4 -10z m-4565 -40 c0
-31 -31 -39 -50 -13 -19 24 -18 31 3 36 33 9 47 2 47 -23z m2515 20 c0 -5 -5
-10 -11 -10 -5 0 -7 5 -4 10 3 6 8 10 11 10 2 0 4 -4 4 -10z m-2630 -10 c0 -5
-7 -10 -16 -10 -8 0 -12 5 -9 10 3 6 10 10 16 10 5 0 9 -4 9 -10z m2665 0 c-3
-5 -11 -10 -16 -10 -6 0 -7 5 -4 10 3 6 11 10 16 10 6 0 7 -4 4 -10z m1565
-40 c0 -5 -5 -10 -11 -10 -5 0 -7 5 -4 10 3 6 8 10 11 10 2 0 4 -4 4 -10z
m-195 -10 c-3 -5 -1 -10 6 -10 7 0 10 -2 7 -5 -3 -3 -13 -2 -22 1 -14 5 -15 9
-4 15 17 11 20 11 13 -1z m-3045 -114 c0 -3 -4 -8 -10 -11 -5 -3 -10 -1 -10 4
0 6 5 11 10 11 6 0 10 -2 10 -4z"/>
<path d="M4175 5910 c3 -5 10 -10 16 -10 5 0 9 5 9 10 0 6 -7 10 -16 10 -8 0
-12 -4 -9 -10z"/>
<path d="M2550 5860 c0 -5 10 -10 23 -10 18 0 19 2 7 10 -19 13 -30 13 -30 0z"/>
<path d="M6805 4590 c3 -5 8 -10 11 -10 2 0 4 5 4 10 0 6 -5 10 -11 10 -5 0
-7 -4 -4 -10z"/>
<path d="M6730 4546 c0 -2 9 -6 20 -9 11 -3 20 -1 20 4 0 5 -9 9 -20 9 -11 0
-20 -2 -20 -4z"/>
<path d="M5200 4045 c7 -9 15 -13 17 -11 7 7 -7 26 -19 26 -6 0 -6 -6 2 -15z"/>
<path d="M5244 3942 c-7 -16 -6 -43 2 -51 2 -2 11 2 19 9 13 11 13 15 3 21
-10 7 -10 9 0 9 17 0 15 17 -2 23 -8 3 -18 -2 -22 -11z"/>
<path d="M3980 3989 c0 -5 5 -7 10 -4 6 3 10 8 10 11 0 2 -4 4 -10 4 -5 0 -10
-5 -10 -11z"/>
<path d="M3994 3926 c3 -16 8 -31 11 -34 9 -10 5 33 -5 48 -8 11 -9 8 -6 -14z"/>
<path d="M6270 3920 c0 -5 5 -10 10 -10 6 0 10 5 10 10 0 6 -4 10 -10 10 -5 0
-10 -4 -10 -10z"/>
<path d="M6240 3890 c-12 -8 -10 -10 8 -10 13 0 20 4 17 10 -7 12 -6 12 -25 0z"/>
<path d="M6028 3845 c-16 -12 -12 -45 5 -45 19 1 47 26 47 43 0 18 -30 19 -52
2z m32 -9 c0 -3 -4 -8 -10 -11 -5 -3 -10 -1 -10 4 0 6 5 11 10 11 6 0 10 -2
10 -4z"/>
<path d="M6060 3790 c-8 -5 -11 -12 -7 -16 4 -4 13 -2 19 4 15 15 7 24 -12 12z"/>
<path d="M5626 3655 c-11 -30 -6 -40 11 -22 12 12 14 20 6 28 -7 7 -12 6 -17
-6z"/>
<path d="M6395 3640 c-19 -8 -19 -9 3 -9 12 -1 22 4 22 9 0 6 -1 10 -2 9 -2 0
-12 -4 -23 -9z"/>
<path d="M6420 3611 c0 -6 5 -13 10 -16 6 -3 10 1 10 9 0 9 -4 16 -10 16 -5 0
-10 -4 -10 -9z"/>
<path d="M5470 3590 c0 -11 7 -20 15 -20 13 0 14 4 5 20 -6 11 -13 20 -15 20
-3 0 -5 -9 -5 -20z"/>
<path d="M6025 3570 c3 -5 10 -10 16 -10 5 0 9 5 9 10 0 6 -7 10 -16 10 -8 0
-12 -4 -9 -10z"/>
<path d="M5401 3554 c0 -11 3 -14 6 -6 3 7 2 16 -1 19 -3 4 -6 -2 -5 -13z"/>
<path d="M6015 3529 c-11 -17 -2 -18 19 -3 17 12 17 14 4 14 -9 0 -20 -5 -23
-11z"/>
<path d="M6052 3498 c-17 -17 -15 -27 6 -21 10 2 19 11 19 19 0 17 -9 18 -25
2z"/>
<path d="M5407 3480 c3 -12 -2 -29 -12 -40 -10 -11 -15 -20 -10 -20 4 0 2 -7
-5 -15 -11 -13 -8 -15 13 -15 14 0 28 -6 30 -12 3 -7 6 -3 6 10 1 12 -3 22 -9
22 -5 0 -10 7 -10 15 0 21 13 19 28 -5 7 -11 19 -20 27 -20 22 0 18 17 -6 23
-18 5 -19 9 -9 27 6 12 10 22 8 23 -2 1 -13 8 -25 15 -30 16 -32 15 -26 -8z"/>
<path d="M5307 3426 c-14 -11 -15 -15 -3 -25 11 -9 15 -8 21 6 7 16 9 15 14
-6 4 -14 12 -26 20 -29 10 -3 11 0 2 17 -10 18 -9 21 6 21 17 1 16 2 -1 15
-24 18 -36 18 -59 1z"/>
<path d="M5293 3374 c-8 -4 -10 -17 -6 -37 4 -25 3 -30 -7 -20 -14 13 -43 6
-34 -8 8 -13 40 -11 51 4 14 16 25 67 16 66 -5 0 -13 -3 -20 -5z"/>
<path d="M6346 3093 c-6 -14 -5 -15 5 -6 7 7 10 15 7 18 -3 3 -9 -2 -12 -12z"/>
<path d="M2750 3809 c0 -5 5 -7 10 -4 6 3 10 8 10 11 0 2 -4 4 -10 4 -5 0 -10
-5 -10 -11z"/>
<path d="M2555 3543 c-14 -24 -7 -95 8 -90 14 4 17 35 8 78 -5 26 -7 27 -16
12z"/>
<path d="M2895 3550 c-3 -5 -1 -10 4 -10 6 0 11 5 11 10 0 6 -2 10 -4 10 -3 0
-8 -4 -11 -10z"/>
<path d="M2830 3536 c0 -17 14 -29 23 -20 8 8 -3 34 -14 34 -5 0 -9 -6 -9 -14z"/>
<path d="M3365 3540 c3 -5 8 -10 11 -10 2 0 4 5 4 10 0 6 -5 10 -11 10 -5 0
-7 -4 -4 -10z"/>
<path d="M2904 3503 c-2 -19 1 -22 12 -12 17 14 18 25 2 32 -8 3 -14 -5 -14
-20z"/>
<path d="M2790 3510 c0 -5 5 -10 10 -10 6 0 10 5 10 10 0 6 -4 10 -10 10 -5 0
-10 -4 -10 -10z"/>
<path d="M2679 3493 c-21 -3 -25 -8 -21 -28 7 -36 26 -49 46 -30 9 9 20 13 26
10 5 -3 14 -3 20 0 15 9 -12 34 -29 27 -10 -4 -13 -1 -8 11 3 9 3 16 -1 16 -4
-1 -19 -4 -33 -6z"/>
<path d="M2712 3405 c-7 -8 -8 -15 -3 -15 5 0 16 -3 24 -6 12 -4 14 0 10 15
-6 25 -13 26 -31 6z"/>
<path d="M2415 3403 c-11 -3 -24 -9 -30 -13 -5 -5 -25 -10 -44 -13 -36 -6 -59
-22 -47 -34 4 -4 15 -2 25 4 16 10 20 9 24 -9 5 -18 8 -19 22 -8 9 8 37 14 62
14 36 1 48 5 54 21 12 31 10 39 -6 25 -12 -10 -16 -9 -21 4 -3 9 -9 15 -13 15
-3 -1 -15 -4 -26 -6z"/>
<path d="M2210 3200 c-12 -8 -12 -10 3 -16 21 -8 35 2 21 16 -5 5 -15 6 -24 0z"/>
<path d="M1882 2898 c-7 -7 -12 -18 -12 -25 0 -18 29 -16 37 3 8 21 -10 37
-25 22z"/>
<path d="M1674 2872 c-6 -4 -13 -19 -16 -33 -4 -24 -3 -25 30 -20 35 6 58 31
28 31 -8 0 -19 7 -23 15 -5 8 -13 11 -19 7z"/>
<path d="M1230 2586 c0 -9 5 -16 10 -16 6 0 10 4 10 9 0 6 -4 13 -10 16 -5 3
-10 -1 -10 -9z"/>
<path d="M1132 2555 c-7 -16 -8 -33 -2 -47 8 -21 9 -19 10 12 1 31 2 33 14 18
8 -11 20 -15 34 -11 36 9 25 40 -12 34 -4 -1 -14 3 -20 9 -10 7 -16 3 -24 -15z"/>
<path d="M5105 3750 c-3 -5 -1 -10 4 -10 6 0 11 5 11 10 0 6 -2 10 -4 10 -3 0
-8 -4 -11 -10z"/>
<path d="M5056 3535 c-3 -8 -1 -15 4 -15 6 0 10 7 10 15 0 8 -2 15 -4 15 -2 0
-6 -7 -10 -15z"/>
<path d="M4727 3700 c-3 -11 -1 -23 4 -26 5 -3 6 -11 3 -17 -5 -8 -4 -9 3 -2
18 18 25 65 9 65 -7 0 -16 -9 -19 -20z"/>
<path d="M3875 3300 c3 -5 8 -10 11 -10 2 0 4 5 4 10 0 6 -5 10 -11 10 -5 0
-7 -4 -4 -10z"/>
<path d="M3776 3265 c-9 -26 -7 -32 5 -12 6 10 9 21 6 23 -2 3 -7 -2 -11 -11z"/>
<path d="M3900 3230 c0 -5 4 -10 9 -10 6 0 13 5 16 10 3 6 -1 10 -9 10 -9 0
-16 -4 -16 -10z"/>
<path d="M3705 3200 c-3 -5 -1 -10 4 -10 6 0 11 5 11 10 0 6 -2 10 -4 10 -3 0
-8 -4 -11 -10z"/>
<path d="M3745 3050 c-3 -5 -3 -15 1 -22 5 -8 2 -9 -9 -5 -10 3 -17 2 -17 -3
0 -6 9 -10 21 -10 15 0 19 5 15 15 -3 8 -1 15 4 15 6 0 10 5 10 10 0 6 -4 10
-9 10 -6 0 -13 -4 -16 -10z"/>
<path d="M3486 2771 c-4 -5 -2 -12 3 -15 5 -4 12 -2 15 3 4 5 2 12 -3 15 -5 4
-12 2 -15 -3z"/>
<path d="M3432 2729 c2 -7 10 -15 17 -17 8 -3 12 1 9 9 -2 7 -10 15 -17 17 -8
3 -12 -1 -9 -9z"/>
<path d="M4137 3413 c-4 -3 -2 -12 4 -20 9 -9 8 -13 0 -13 -6 0 -11 -4 -11
-10 0 -5 11 -10 24 -10 21 0 25 5 24 30 -1 29 -23 41 -41 23z"/>
<path d="M4190 3399 c0 -5 5 -7 10 -4 6 3 10 8 10 11 0 2 -4 4 -10 4 -5 0 -10
-5 -10 -11z"/>
<path d="M4224 3376 c-10 -8 -16 -17 -13 -20 10 -10 39 5 39 20 0 17 -2 17
-26 0z"/>
<path d="M4451 3341 c-10 -17 -9 -21 3 -21 20 0 31 19 18 32 -7 7 -14 3 -21
-11z"/>
<path d="M4507 3341 c12 -10 19 -21 16 -25 -4 -3 -1 -6 5 -6 7 0 12 4 12 9 0
14 -29 41 -43 41 -7 -1 -2 -9 10 -19z"/>
<path d="M4650 3216 c0 -9 5 -16 10 -16 6 0 10 4 10 9 0 6 -4 13 -10 16 -5 3
-10 -1 -10 -9z"/>
<path d="M4630 3064 c0 -8 5 -12 10 -9 6 4 8 11 5 16 -9 14 -15 11 -15 -7z"/>
<path d="M6178 2835 c6 -32 22 -43 22 -16 0 14 5 19 15 15 8 -4 15 -2 15 4 0
8 -31 21 -51 22 -3 0 -4 -11 -1 -25z"/>
<path d="M4366 6302 c-4 -13 -5 -26 -2 -29 10 -11 18 4 14 29 l-4 23 -8 -23z"/>
<path d="M3385 6251 c-3 -5 -1 -12 5 -16 5 -3 10 1 10 9 0 18 -6 21 -15 7z"/>
<path d="M4495 6211 c-3 -5 -1 -12 5 -16 5 -3 10 1 10 9 0 18 -6 21 -15 7z"/>
<path d="M5544 6189 c-9 -16 2 -22 21 -11 15 8 16 10 1 15 -8 3 -18 2 -22 -4z"/>
<path d="M5385 6090 c3 -5 8 -10 11 -10 2 0 4 5 4 10 0 6 -5 10 -11 10 -5 0
-7 -4 -4 -10z"/>
<path d="M7090 5775 c-8 -9 -8 -15 -2 -15 12 0 26 19 19 26 -2 2 -10 -2 -17
-11z"/>
<path d="M1420 5419 c17 -32 15 -30 34 -23 21 8 20 20 -1 28 -10 3 -24 9 -31
12 -12 5 -12 2 -2 -17z"/>
<path d="M7413 5186 c-25 -12 -30 -26 -10 -26 7 0 18 9 25 20 7 11 11 19 10
19 -2 -1 -13 -6 -25 -13z"/>
<path d="M7435 5171 c-6 -11 9 -23 19 -14 9 9 7 23 -3 23 -6 0 -12 -4 -16 -9z"/>
<path d="M7580 5160 c0 -5 5 -10 11 -10 5 0 7 5 4 10 -3 6 -8 10 -11 10 -2 0
-4 -4 -4 -10z"/>
<path d="M7402 5132 c-20 -13 -3 -42 24 -42 26 0 32 18 12 38 -14 14 -19 14
-36 4z m38 -16 c0 -3 -4 -8 -10 -11 -5 -3 -10 -1 -10 4 0 6 5 11 10 11 6 0 10
-2 10 -4z"/>
<path d="M1358 4983 c7 -3 16 -2 19 1 4 3 -2 6 -13 5 -11 0 -14 -3 -6 -6z"/>
<path d="M1390 4980 c0 -5 5 -10 10 -10 6 0 10 5 10 10 0 6 -4 10 -10 10 -5 0
-10 -4 -10 -10z"/>
<path d="M7645 4910 c-4 -6 -3 -16 3 -22 6 -6 12 -6 17 2 4 6 3 16 -3 22 -6 6
-12 6 -17 -2z"/>
<path d="M7906 4561 c-3 -5 1 -11 9 -15 9 -3 15 0 15 9 0 16 -16 20 -24 6z"/>
<path d="M7942 4553 c2 -10 14 -19 27 -21 27 -4 21 12 -10 29 -18 9 -20 8 -17
-8z"/>
<path d="M1448 4193 c7 -3 16 -2 19 1 4 3 -2 6 -13 5 -11 0 -14 -3 -6 -6z"/>
<path d="M1380 4130 c-13 -8 -12 -10 3 -10 9 0 17 5 17 10 0 12 -1 12 -20 0z"/>
<path d="M9240 4070 c0 -5 7 -10 16 -10 8 0 12 5 9 10 -3 6 -10 10 -16 10 -5
0 -9 -4 -9 -10z"/>
</g>
</svg>
