<?xml version="1.0" standalone="no"?>
<!DOCTYPE svg PUBLIC "-//W3C//DTD SVG 20010904//EN"
 "http://www.w3.org/TR/2001/REC-SVG-20010904/DTD/svg10.dtd">
<svg version="1.0" xmlns="http://www.w3.org/2000/svg"
 width="1280.000000pt" height="1280.000000pt" viewBox="0 0 1280.000000 1280.000000"
 preserveAspectRatio="xMidYMid meet">
<metadata>
Created by potrace 1.15, written by Peter Selinger 2001-2017
</metadata>
<g transform="translate(0.000000,1280.000000) scale(0.100000,-0.100000)"
fill="#9e9e9e" stroke="none">
<path d="M6307 12485 c-3 -17 -76 -353 -161 -749 -86 -395 -156 -724 -156
-732 0 -8 9 -23 20 -34 17 -17 33 -20 100 -20 l80 0 0 -165 0 -164 30 -34 30
-35 -1 -4318 0 -4319 -250 -209 -249 -209 0 -604 0 -605 123 104 c318 270 436
368 442 368 3 0 117 -93 252 -207 135 -115 261 -221 279 -236 l34 -28 0 604 0
604 -250 209 -249 209 -1 4319 0 4320 28 29 c27 28 27 28 30 198 l3 169 69 0
c80 0 116 11 125 39 4 15 -295 1441 -318 1516 -2 5 -6 -4 -10 -20z"/>
</g>
</svg>
