<?xml version="1.0" standalone="no"?>
<!DOCTYPE svg PUBLIC "-//W3C//DTD SVG 20010904//EN"
 "http://www.w3.org/TR/2001/REC-SVG-20010904/DTD/svg10.dtd">
<svg version="1.0" xmlns="http://www.w3.org/2000/svg"
 width="1211.000000pt" height="1280.000000pt" viewBox="0 0 1211.000000 1280.000000"
 preserveAspectRatio="xMidYMid meet">
<metadata>
Created by potrace 1.15, written by Peter Selinger 2001-2017
</metadata>
<g transform="translate(0.000000,1280.000000) scale(0.100000,-0.100000)"
fill="#4caf50" stroke="none">
<path d="M4969 12638 c-1 -84 -4 -177 -7 -207 l-7 -53 -80 72 c-44 39 -90 79
-102 87 -41 28 -56 -8 -29 -70 7 -18 50 -73 94 -124 44 -50 86 -109 92 -129
14 -41 19 -208 8 -220 -11 -11 -35 13 -43 43 -3 14 -15 33 -26 42 -16 13 -23
35 -29 90 -8 73 -26 112 -63 135 -24 15 -60 -23 -60 -64 0 -29 -3 -31 -26 -27
-14 3 -53 22 -86 42 -62 37 -100 42 -118 14 -15 -23 13 -73 88 -157 36 -40 65
-81 65 -91 0 -12 -14 -23 -40 -34 -31 -12 -40 -21 -40 -40 0 -54 82 -77 134
-36 14 11 30 17 36 14 12 -7 14 -122 2 -129 -4 -2 -43 11 -85 31 -63 28 -81
32 -92 23 -30 -25 -16 -54 56 -122 l71 -68 -39 0 c-32 0 -43 -5 -62 -31 -29
-39 -38 -37 -200 50 -191 104 -231 113 -231 52 0 -40 48 -94 105 -118 54 -22
57 -33 10 -33 -45 0 -103 -24 -112 -46 -9 -24 23 -44 69 -44 25 0 45 -7 58
-20 11 -11 30 -20 43 -20 20 -1 20 -2 5 -11 -27 -15 -23 -23 33 -62 l51 -36
-38 -6 c-108 -18 -145 -28 -166 -45 -26 -21 -20 -40 25 -74 23 -17 31 -18 65
-8 68 20 127 15 158 -13 33 -31 85 -33 111 -6 16 17 114 35 112 21 0 -3 -22
-22 -50 -43 -27 -20 -49 -44 -49 -52 0 -31 105 -32 140 0 26 24 31 18 28 -32
l-3 -48 40 -3 c29 -3 43 1 53 15 10 13 16 14 19 6 9 -25 33 -12 60 34 l27 47
28 -60 c15 -32 28 -65 28 -72 0 -22 -49 -32 -194 -40 -192 -10 -229 -4 -357
58 -122 59 -177 71 -199 45 -13 -15 -12 -20 10 -37 14 -11 46 -31 72 -44 27
-13 48 -26 48 -28 0 -2 -31 2 -69 9 -82 16 -196 62 -277 112 -94 57 -111 64
-151 61 -31 -2 -39 -7 -41 -26 -2 -13 2 -30 9 -38 21 -26 -4 -35 -122 -46
-125 -11 -159 -20 -159 -42 0 -58 204 -111 343 -88 31 5 57 8 57 6 0 -1 -25
-16 -55 -33 -88 -50 -98 -111 -18 -111 45 0 90 20 155 68 57 42 95 56 116 43
10 -6 -7 -18 -52 -39 -73 -34 -90 -57 -60 -78 37 -26 44 -35 44 -59 0 -14 9
-29 21 -36 17 -9 25 -7 43 10 24 23 97 51 130 51 12 0 53 18 90 41 37 22 70
38 73 35 9 -9 -58 -66 -106 -91 -25 -12 -55 -33 -66 -45 l-20 -22 24 -19 c28
-23 70 -19 111 10 49 34 49 34 47 -10 -1 -26 3 -44 10 -46 7 -3 35 18 61 46
51 53 71 61 92 36 11 -13 16 -12 42 10 23 20 41 25 82 25 109 0 224 70 243
147 l10 38 11 -39 c9 -31 8 -44 -3 -66 -25 -48 -143 -127 -323 -217 l-173 -87
-42 17 c-23 9 -93 37 -156 63 -95 39 -115 44 -127 33 -15 -16 -9 -30 36 -90
l24 -33 -24 17 c-14 10 -43 17 -67 17 -23 0 -66 10 -95 21 -112 45 -125 43
-119 -13 l3 -28 -68 0 c-37 0 -83 6 -101 12 -30 11 -39 10 -71 -7 -29 -16 -38
-27 -40 -52 -3 -35 -1 -36 57 -33 l35 2 -34 -39 -34 -38 70 -5 69 -5 -2 -33
-1 -34 46 2 c72 4 71 4 65 -36 -6 -36 -6 -37 23 -30 82 18 94 18 119 2 37 -24
49 -63 30 -92 -19 -30 -32 -30 -63 -2 -19 19 -37 24 -103 27 -53 2 -79 0 -79
-8 0 -6 -19 -11 -45 -11 -56 0 -60 -20 -10 -52 18 -13 38 -33 44 -44 10 -22 0
-89 -16 -105 -5 -5 -46 14 -96 46 -129 82 -183 84 -142 5 26 -50 12 -54 -112
-36 -163 24 -206 20 -165 -17 29 -26 120 -68 160 -74 64 -8 66 -10 42 -40 -30
-39 -10 -55 72 -58 70 -2 88 -8 88 -31 0 -18 40 -34 84 -34 39 0 53 -13 58
-55 l3 -30 46 43 c25 23 49 42 52 42 3 0 7 -10 9 -22 2 -15 10 -23 23 -23 12
0 32 -19 55 -51 19 -28 50 -61 68 -73 18 -12 37 -33 42 -46 6 -17 22 -27 50
-35 22 -6 55 -24 73 -40 32 -28 35 -28 63 -14 16 9 37 23 47 31 9 9 20 14 23
10 11 -11 -73 -58 -147 -82 -42 -13 -128 -34 -190 -46 -148 -28 -222 -23 -306
20 -34 17 -77 31 -94 31 l-31 0 6 -44 c6 -35 4 -45 -9 -50 -27 -10 -88 -6
-130 9 -22 8 -48 15 -58 15 -25 0 -77 -31 -77 -47 0 -6 27 -26 61 -44 66 -35
81 -55 77 -97 -3 -26 -2 -27 55 -30 l57 -3 0 -34 c0 -63 58 -81 139 -45 51 23
57 24 44 8 -21 -28 -22 -49 -3 -68 18 -18 28 -19 91 -14 66 7 71 6 67 -12 -7
-38 -189 -77 -290 -63 -25 4 -63 19 -84 33 -22 15 -53 26 -71 26 -30 0 -33 -3
-33 -31 l0 -30 -109 7 c-112 7 -136 0 -103 -28 9 -9 40 -23 67 -33 62 -23 85
-42 85 -71 0 -41 27 -57 89 -52 31 3 62 7 70 9 10 3 18 -10 26 -41 l11 -45 48
3 47 4 -6 -35 -7 -35 43 5 c33 5 45 2 55 -12 19 -26 49 -14 125 49 87 71 123
90 167 83 38 -7 82 -32 82 -47 0 -6 -30 -10 -68 -10 -102 0 -112 -18 -57 -99
19 -28 35 -52 35 -55 0 -2 -19 -7 -42 -11 -24 -4 -63 -20 -88 -35 -25 -15 -61
-31 -80 -35 -19 -4 -45 -14 -58 -22 -14 -9 -68 -18 -135 -23 -62 -5 -125 -13
-140 -19 -16 -6 -61 -11 -100 -11 -40 0 -77 -4 -83 -8 -7 -4 -19 -24 -27 -45
-20 -47 -39 -54 -176 -63 -124 -8 -137 -18 -73 -57 53 -33 112 -55 171 -63
l51 -7 -37 -41 -38 -41 50 -5 c61 -6 75 -14 68 -39 -7 -28 5 -30 87 -16 41 7
93 10 115 6 38 -6 40 -9 37 -39 -5 -63 54 -48 99 25 l24 38 7 -44 c4 -24 10
-47 14 -50 11 -11 171 -13 192 -2 11 6 33 36 48 67 l28 57 24 -55 23 -56 46
49 c25 27 49 49 54 49 4 0 9 -17 11 -37 5 -57 35 -52 67 11 28 54 51 70 51 36
0 -20 3 -21 70 -14 61 6 70 5 70 -10 0 -37 -154 -107 -267 -121 -30 -4 -64
-16 -79 -28 -22 -17 -48 -22 -142 -29 -64 -4 -117 -10 -120 -12 -2 -3 -1 -14
3 -25 10 -33 81 -63 163 -70 40 -3 73 -10 75 -16 7 -33 -185 -58 -588 -75
-332 -13 -502 -28 -539 -46 -16 -8 -55 -14 -86 -14 -31 0 -59 -3 -63 -6 -24
-25 80 -84 149 -84 42 0 71 -20 59 -40 -3 -5 -14 -10 -24 -10 -16 0 -141 -83
-141 -93 0 -2 34 -2 76 1 67 4 77 2 95 -17 16 -17 27 -20 58 -15 33 5 41 3 50
-15 17 -31 59 -26 115 14 27 19 53 32 58 29 5 -3 -7 -25 -27 -49 -19 -24 -35
-48 -35 -54 0 -20 85 -13 113 9 40 31 64 26 87 -20 12 -23 28 -44 36 -47 18
-7 67 14 137 59 26 17 49 29 51 27 2 -2 -1 -27 -7 -56 -8 -41 -8 -55 3 -68 18
-22 50 -13 128 35 34 22 62 37 62 34 0 -3 -7 -19 -16 -35 -23 -45 -12 -63 34
-56 25 4 50 0 79 -13 43 -19 43 -19 54 1 13 26 58 22 73 -6 17 -32 27 -35 104
-35 97 0 92 -15 -19 -57 -162 -61 -390 -109 -559 -119 -93 -6 -96 -5 -173 30
-77 35 -121 44 -131 27 -8 -12 14 -36 49 -55 30 -17 30 -17 -35 -11 -36 3
-121 10 -190 15 -69 5 -163 17 -210 28 -139 32 -150 33 -150 17 0 -33 136
-102 250 -125 l85 -17 -77 -4 c-58 -3 -82 -9 -95 -22 -17 -18 -17 -19 5 -37
14 -12 47 -21 90 -25 110 -11 111 -12 66 -50 -51 -43 -38 -63 25 -40 59 20 68
19 75 -11 7 -27 7 -27 84 -21 42 3 101 12 131 20 l55 15 -40 -34 -39 -33 48
-1 c61 0 87 -14 87 -45 0 -38 24 -31 82 23 40 36 47 40 31 17 -11 -16 -30 -49
-41 -72 -19 -36 -20 -43 -6 -53 21 -18 132 13 184 51 44 32 51 24 26 -35 -26
-63 -85 -90 -345 -157 -139 -35 -196 -36 -303 -5 -46 13 -117 27 -159 31 -110
10 -141 -4 -102 -47 9 -10 14 -21 10 -24 -3 -3 -48 3 -99 15 -136 30 -165 34
-193 27 -36 -9 -31 -26 20 -76 24 -24 43 -45 42 -47 -2 -1 -45 7 -97 17 -104
22 -194 25 -234 10 -34 -12 -33 -25 4 -46 28 -17 28 -19 13 -36 -30 -33 -84
-42 -140 -24 -98 32 -210 113 -291 210 -34 40 -36 62 -4 33 27 -25 42 -21 42
11 l1 27 15 -27 c8 -16 21 -28 29 -28 8 0 30 -14 50 -31 l35 -31 0 35 c0 64 7
67 50 24 22 -21 45 -37 52 -35 7 3 16 20 19 39 5 33 14 28 21 -15 2 -10 20
-28 41 -40 38 -21 39 -21 50 -2 7 11 20 28 31 39 14 15 17 29 13 63 -5 52 -1
58 27 39 23 -17 56 -20 56 -5 0 5 -5 21 -12 36 -10 22 -10 28 5 39 15 11 15
15 0 54 -22 56 -9 63 33 17 29 -32 39 -37 62 -31 35 9 34 7 21 44 -13 38 -6
61 19 61 11 0 39 21 63 47 l44 48 -40 7 c-22 3 -57 4 -77 1 -43 -6 -43 -5 -24
42 21 49 3 45 -60 -15 -54 -51 -82 -64 -69 -32 4 9 10 23 13 31 4 10 1 13 -11
8 -24 -9 -30 9 -12 42 8 17 15 38 15 47 0 23 -20 5 -87 -78 -30 -39 -64 -70
-78 -74 -31 -8 -138 41 -208 94 -85 65 -142 178 -85 170 12 -2 33 -19 46 -38
15 -22 31 -35 45 -35 19 0 22 5 19 33 -2 17 -1 32 1 32 3 0 17 -21 32 -46 46
-79 99 -78 88 1 -7 53 2 95 21 95 8 0 24 -16 36 -35 26 -42 57 -65 87 -65 32
0 29 18 -18 90 -22 34 -38 65 -35 67 11 11 37 -8 46 -33 6 -15 13 -24 17 -20
4 3 17 -3 29 -15 14 -13 32 -19 49 -17 l27 3 -22 28 c-21 26 -21 29 -5 47 9
10 30 24 46 30 34 15 36 21 9 45 -30 27 -25 33 23 28 32 -4 48 0 64 13 48 42
32 94 -30 94 -56 0 -76 10 -79 39 -4 37 -38 31 -110 -19 -31 -22 -59 -40 -63
-40 -3 0 -5 15 -5 34 0 22 -6 36 -16 40 -12 5 -15 14 -10 36 6 34 -2 37 -44
15 l-30 -16 0 40 c0 55 -13 58 -44 11 -33 -50 -101 -100 -135 -100 -24 0 -91
33 -91 45 0 3 7 17 16 30 8 13 14 36 12 52 -3 27 -6 28 -67 33 -75 6 -93 22
-116 110 -21 78 -31 200 -16 200 7 0 11 -22 11 -60 0 -64 31 -174 56 -200 13
-13 16 -13 24 0 6 8 13 26 16 40 3 14 8 36 11 50 5 22 7 20 19 -20 16 -51 30
-72 60 -88 35 -19 50 0 36 46 -15 49 -15 65 -1 57 6 -4 13 3 16 14 8 31 26 21
34 -18 8 -39 76 -141 94 -141 13 0 25 30 25 66 0 12 7 35 15 50 8 16 15 24 15
18 0 -6 9 -23 20 -37 l20 -25 66 36 c37 21 71 48 78 61 9 21 6 27 -24 53 -19
15 -41 43 -50 60 -10 22 -24 34 -45 38 -71 15 -121 58 -96 83 17 17 13 55 -8
67 -31 16 -48 12 -83 -18 -38 -33 -65 -45 -73 -32 -6 10 17 35 47 51 19 10 20
21 3 62 -5 12 -2 17 9 17 20 0 86 58 86 76 0 18 -27 32 -90 45 l-52 11 5 40
c8 56 21 67 50 40 31 -29 43 -28 52 5 8 32 42 71 73 83 14 6 22 18 22 34 0 27
-20 47 -64 61 -38 12 -45 44 -16 70 11 10 20 25 20 34 1 9 14 32 30 51 17 19
30 40 30 47 0 18 -33 33 -74 33 -20 0 -36 2 -36 4 0 2 14 33 31 69 30 66 35
117 12 125 -7 2 -31 -26 -54 -62 -23 -36 -45 -66 -50 -66 -5 0 -15 14 -24 30
-9 16 -20 30 -26 30 -14 0 -44 -74 -63 -160 -10 -41 -31 -101 -49 -133 -36
-68 -116 -162 -128 -150 -4 4 -10 69 -12 143 -3 74 -8 152 -12 173 -10 55 3
124 28 147 33 32 46 25 49 -27 2 -25 8 -48 14 -50 6 -2 24 16 39 39 16 24 30
37 33 30 5 -17 47 -15 62 3 22 27 -64 155 -105 155 -7 0 -18 7 -25 15 -19 23
8 28 82 17 67 -10 108 -2 108 22 0 18 -68 86 -86 86 -18 0 -7 22 42 87 36 47
43 73 21 73 -19 0 -106 -59 -120 -82 -18 -28 -23 -22 -19 21 11 117 -60 -5
-83 -143 -3 -21 -9 -35 -12 -32 -4 3 -15 -6 -25 -21 l-18 -28 0 56 c0 96 20
170 81 305 63 140 72 184 40 184 -24 0 -56 -39 -72 -88 -27 -85 -36 -62 -42
103 -3 95 -7 117 -28 154 l-24 44 -3 -54 c-2 -30 -6 -125 -10 -212 l-7 -158
-48 80 c-62 105 -71 109 -65 35 3 -44 16 -84 53 -159 l48 -100 5 -127 c3 -84
1 -128 -6 -128 -6 0 -13 18 -17 40 -4 22 -10 42 -15 45 -4 3 -11 42 -15 87 -8
97 -21 148 -40 148 -16 0 -25 -22 -25 -66 0 -44 -13 -43 -57 6 -84 93 -99 20
-28 -130 25 -52 45 -101 45 -107 0 -7 -11 -20 -25 -29 -27 -17 -33 -51 -15
-85 14 -25 46 -24 62 1 22 34 28 23 28 -50 0 -38 -3 -70 -6 -70 -4 0 -24 16
-46 35 -21 20 -43 33 -48 30 -25 -15 -1 -101 45 -161 30 -40 31 -47 5 -39 -17
5 -23 0 -35 -29 -9 -20 -18 -36 -21 -36 -3 0 -48 41 -99 90 -51 50 -98 90
-104 90 -6 0 -13 -11 -17 -25 -9 -36 21 -109 57 -139 31 -26 30 -29 -13 -40
-39 -9 -54 -41 -33 -72 11 -17 22 -23 34 -19 13 4 20 -1 24 -15 3 -11 13 -20
22 -20 15 0 15 -3 5 -15 -11 -13 -8 -23 19 -60 28 -38 30 -45 14 -45 -10 0
-37 -9 -60 -20 -36 -16 -43 -24 -43 -48 0 -17 8 -40 18 -52 15 -19 22 -21 40
-11 36 19 71 14 84 -14 14 -31 54 -34 63 -5 3 11 12 20 18 21 7 0 20 2 30 4
23 4 22 3 -15 -50 -25 -36 -30 -49 -22 -62 16 -26 29 -26 61 1 l30 25 -5 -49
c-4 -41 -1 -51 13 -56 12 -5 23 -1 32 12 11 15 15 16 22 5 6 -10 12 -2 21 25
7 22 15 43 18 49 7 11 32 -79 32 -117 0 -24 -5 -27 -50 -37 -28 -6 -80 -11
-115 -11 l-65 0 -66 60 c-42 38 -75 60 -90 60 -37 0 -31 -40 13 -85 l37 -38
-29 7 c-47 11 -132 74 -173 127 -66 87 -127 70 -87 -23 7 -17 4 -19 -109 -44
-21 -5 -44 -17 -50 -26 -16 -25 21 -69 78 -92 39 -17 54 -18 96 -10 l49 10
-33 -37 c-41 -45 -51 -72 -36 -99 20 -37 60 -17 110 55 19 27 39 45 50 45 11
0 20 -2 20 -4 0 -2 -18 -22 -40 -44 -44 -44 -47 -53 -24 -76 9 -9 17 -31 18
-49 2 -17 4 -35 5 -39 2 -15 26 -8 39 12 7 11 32 29 56 41 24 11 55 37 70 57
14 20 26 31 26 24 0 -21 -20 -53 -62 -101 -40 -46 -46 -69 -26 -89 18 -18 27
-15 59 19 l30 32 -3 -39 c-4 -46 11 -54 32 -16 41 76 40 75 54 56 13 -17 14
-16 25 4 8 14 21 22 39 22 62 0 126 67 139 145 l7 40 7 -33 c4 -19 3 -49 -2
-67 -14 -50 -89 -144 -187 -234 l-86 -80 -25 20 c-15 10 -52 39 -84 64 -33 25
-63 42 -68 39 -12 -7 -2 -57 19 -99 14 -30 14 -30 -5 -12 -11 9 -28 17 -39 17
-11 0 -35 11 -54 25 -46 34 -58 32 -62 -12 -4 -44 -22 -52 -69 -29 -49 24 -79
0 -79 -65 0 -28 3 -31 25 -27 29 6 30 2 10 -32 -23 -40 -18 -50 20 -50 33 0
35 -2 35 -35 0 -32 2 -35 30 -35 28 0 30 -2 30 -41 l0 -41 25 16 c34 22 42 20
60 -14 18 -34 19 -64 4 -91 -10 -19 -11 -19 -39 11 -30 33 -77 41 -86 15 -4
-8 -17 -15 -30 -15 -30 0 -31 -19 -2 -55 17 -22 22 -40 21 -83 -1 -30 -6 -59
-11 -64 -5 -5 -25 13 -51 46 -64 83 -99 86 -79 8 6 -23 8 -45 5 -49 -4 -3 -38
3 -77 13 -53 13 -73 15 -82 6 -16 -16 32 -76 82 -99 43 -20 45 -24 29 -54 -14
-27 4 -49 40 -49 31 0 51 -16 51 -41 0 -18 19 -29 50 -29 14 0 21 -11 27 -42
l8 -42 19 42 c21 47 36 54 36 17 0 -15 6 -25 14 -25 7 0 19 -20 26 -45 7 -24
23 -59 36 -77 13 -17 24 -40 24 -50 0 -10 12 -25 26 -35 15 -9 35 -30 44 -46
l17 -28 27 31 c29 35 35 32 10 -5 -32 -49 -176 -115 -251 -115 -35 0 -50 6
-82 35 -56 50 -74 47 -69 -12 l3 -48 -36 -3 c-23 -2 -40 2 -49 12 -18 22 -36
20 -54 -6 -22 -30 -21 -30 24 -83 32 -37 40 -54 40 -86 0 -37 2 -39 30 -39 28
0 30 -2 30 -38 0 -63 35 -80 84 -41 l26 21 -11 -25 c-6 -14 -8 -38 -5 -52 6
-25 10 -27 46 -21 67 11 65 -30 -4 -64 -66 -31 -110 -27 -152 16 -41 40 -57
40 -64 -2 -5 -29 -6 -29 -63 -26 -72 5 -75 -12 -12 -64 37 -30 45 -42 45 -69
0 -19 7 -41 16 -50 16 -16 28 -16 66 0 14 6 17 -1 20 -37 3 -40 5 -43 32 -41
27 2 28 1 22 -32 -7 -34 -6 -35 24 -35 21 0 30 -5 30 -16 0 -29 25 -8 70 60
25 37 53 72 63 78 24 13 67 -15 67 -42 0 -17 -7 -20 -40 -20 -37 0 -40 -2 -40
-29 0 -16 7 -48 15 -71 19 -55 19 -57 -6 -65 -11 -4 -34 -22 -51 -41 -17 -19
-37 -34 -43 -34 -7 0 -20 -8 -29 -19 -10 -11 -37 -21 -70 -25 -29 -3 -69 -13
-89 -21 -20 -8 -50 -15 -66 -15 -29 0 -41 -14 -41 -51 0 -34 -34 -56 -99 -64
-45 -5 -61 -11 -61 -23 0 -23 77 -92 111 -99 32 -6 35 -16 14 -53 -21 -37 -18
-48 12 -52 23 -2 28 -8 28 -30 -1 -31 15 -35 61 -17 16 5 39 8 51 4 19 -4 23
-12 23 -45 0 -62 19 -53 52 25 l17 40 0 -41 c1 -52 18 -66 73 -62 l43 3 22 65
21 64 7 -39 c13 -68 19 -70 46 -13 l24 52 5 -45 c3 -24 10 -43 15 -42 6 1 17
24 25 52 18 60 30 75 30 37 0 -24 3 -26 23 -20 65 21 71 -1 17 -60 -26 -28
-60 -52 -88 -62 -26 -10 -57 -27 -69 -40 -16 -15 -39 -24 -82 -29 -54 -6 -61
-9 -61 -29 0 -33 50 -76 87 -76 17 0 36 -6 42 -14 10 -12 8 -18 -11 -30 -35
-23 -104 -35 -292 -52 -213 -18 -282 -29 -312 -49 -13 -8 -37 -15 -54 -15 -23
0 -30 -5 -30 -19 0 -23 47 -71 69 -71 10 0 26 -7 37 -15 19 -15 19 -15 -1 -33
-25 -21 -75 -86 -75 -97 0 -4 16 -5 35 -2 29 5 38 2 51 -18 10 -16 21 -21 35
-18 15 4 22 0 26 -16 8 -33 39 -25 65 17 27 44 39 22 14 -27 -9 -16 -16 -37
-16 -46 0 -23 46 -19 64 6 19 27 32 18 47 -31 7 -22 18 -40 24 -40 7 0 31 20
54 45 23 25 43 45 44 45 2 0 0 -23 -3 -52 -13 -97 7 -113 63 -48 19 22 36 40
40 40 3 0 0 -15 -5 -34 -14 -45 -6 -65 24 -59 15 3 29 -2 37 -11 18 -22 28
-20 35 6 6 25 19 17 40 -24 10 -19 18 -22 48 -20 50 5 54 -11 12 -47 -73 -65
-262 -141 -348 -141 -35 0 -48 6 -76 35 -36 37 -70 46 -70 18 0 -9 10 -27 22
-40 20 -22 20 -23 2 -23 -58 1 -197 31 -253 54 -35 14 -67 24 -69 21 -9 -8 46
-83 81 -109 18 -14 49 -29 68 -33 l34 -7 -45 -11 c-35 -8 -46 -16 -48 -33 -5
-33 14 -50 64 -58 24 -3 44 -9 44 -11 0 -3 -9 -21 -21 -39 -25 -41 -17 -62 17
-40 33 22 44 20 44 -8 0 -14 4 -27 9 -30 8 -5 69 10 115 30 19 7 19 7 3 -16
-25 -36 -21 -50 13 -50 26 0 31 -5 37 -30 7 -40 18 -38 42 8 24 45 26 39 6
-18 -8 -23 -15 -53 -15 -66 0 -39 43 -31 90 16 45 45 46 44 25 -26 -18 -63
-38 -81 -150 -137 -128 -63 -125 -63 -199 -27 -82 40 -143 50 -152 26 -4 -10
-2 -28 4 -42 14 -29 6 -30 -46 -8 -118 51 -149 35 -97 -51 14 -22 25 -43 25
-47 0 -4 -19 2 -42 12 -66 28 -144 31 -155 5 -12 -33 69 -89 146 -101 l40 -6
-30 -42 c-16 -23 -32 -59 -36 -79 -5 -35 -4 -37 21 -37 23 0 26 -4 26 -36 0
-43 15 -74 36 -74 8 0 29 -15 45 -32 l30 -33 34 38 34 39 20 -41 c23 -43 28
-91 10 -91 -6 0 -8 -9 -4 -21 7 -21 5 -22 -33 -15 -33 5 -43 3 -51 -11 -6 -12
-30 -22 -68 -28 -68 -12 -78 -31 -38 -71 24 -24 31 -26 76 -20 27 4 57 9 67
12 9 3 0 -9 -21 -26 -45 -39 -70 -84 -62 -110 8 -24 17 -25 58 -3 30 15 31 15
18 0 -20 -25 -6 -50 24 -43 25 6 35 -7 15 -19 -6 -3 -10 -10 -10 -16 0 -16 34
-10 60 11 38 29 56 26 35 -6 -9 -14 -14 -32 -11 -40 5 -13 10 -12 42 1 46 19
44 19 44 -6 0 -16 5 -20 20 -16 28 7 25 -9 -6 -30 -23 -14 -60 -18 -227 -23
-147 -4 -201 -8 -205 -17 -2 -7 8 -17 22 -22 14 -6 33 -22 42 -37 17 -25 17
-27 0 -40 -10 -7 -39 -16 -65 -20 -84 -12 -117 -54 -69 -88 33 -23 88 -19 142
9 26 14 51 25 56 25 5 0 -7 -31 -27 -69 -50 -96 -32 -128 46 -80 18 11 35 18
37 16 3 -2 8 -34 12 -70 5 -37 12 -70 15 -74 10 -10 59 28 82 65 11 17 23 31
28 32 10 0 9 -48 -3 -110 -18 -93 0 -81 100 66 39 57 73 104 76 104 2 0 -3
-17 -12 -38 -30 -68 -38 -109 -28 -133 10 -22 12 -21 48 31 l38 55 -7 -50 c-4
-27 -11 -56 -17 -62 -12 -15 -116 -48 -180 -58 -39 -6 -53 -3 -90 19 -48 28
-98 34 -98 13 0 -7 5 -18 10 -23 7 -7 -6 -9 -45 -6 l-55 4 15 -35 c17 -40 9
-51 -29 -41 -37 9 -96 -13 -96 -37 0 -20 4 -23 53 -33 41 -10 33 -30 -33 -81
-65 -50 -96 -88 -85 -105 10 -16 25 -12 93 20 79 37 105 40 74 7 -28 -30 -48
-85 -35 -98 6 -6 20 -6 38 1 26 10 27 9 20 -12 -25 -83 -12 -89 53 -25 l44 42
-5 -42 c-6 -47 -2 -52 20 -25 13 15 14 15 10 -10 -6 -37 3 -35 32 7 30 44 47
40 43 -8 -5 -49 15 -49 69 0 35 32 43 35 60 25 11 -7 31 -10 47 -6 26 6 26 6
6 -9 -11 -9 -52 -28 -90 -43 -86 -34 -111 -50 -119 -75 -15 -47 30 -56 98 -22
16 8 31 12 34 10 3 -3 -14 -36 -36 -74 -36 -61 -49 -93 -37 -93 16 0 79 29
114 53 24 16 46 26 50 23 3 -4 -4 -34 -16 -67 -24 -66 -21 -83 9 -74 12 4 21
1 24 -9 17 -53 15 -53 50 -11 l34 40 -1 -31 c-1 -36 8 -54 27 -54 22 0 74 50
96 91 11 22 21 39 22 39 2 0 1 -27 -1 -60 -8 -112 15 -114 83 -6 l42 67 6 -38
c4 -21 7 -50 7 -64 0 -14 6 -34 14 -44 13 -18 15 -17 37 18 13 20 26 37 29 37
3 0 13 -12 22 -27 l16 -27 9 34 c5 20 18 39 30 45 14 6 26 25 33 53 l11 45 20
-22 c39 -41 60 -25 94 69 17 47 37 94 44 105 11 17 12 14 8 -27 -3 -34 -1 -48
8 -48 25 0 74 80 76 122 0 23 0 23 10 -2 15 -36 26 -11 34 77 l7 75 19 -31
c11 -18 27 -31 39 -31 19 0 20 -6 20 -95 0 -162 -35 -393 -76 -499 -6 -14 13
-16 180 -16 165 0 187 2 193 17 4 9 -2 55 -12 102 -22 104 -33 331 -16 331 6
0 25 -29 42 -65 35 -72 51 -83 42 -30 -9 55 5 41 23 -22 21 -76 39 -103 68
-103 13 0 34 -8 47 -19 20 -16 25 -17 34 -4 9 13 16 9 39 -21 36 -47 49 -46
44 4 -2 22 -2 40 -1 40 1 0 14 -12 28 -26 25 -25 27 -25 45 -9 20 19 62 14
113 -11 28 -15 31 -13 27 20 -1 10 4 30 11 43 10 19 10 29 -4 58 -21 44 -9 45
49 3 24 -17 47 -29 50 -25 4 3 1 20 -5 38 -9 26 -9 29 3 20 8 -7 22 -11 32 -9
12 2 20 -9 30 -43 18 -60 38 -78 56 -50 18 30 25 27 51 -25 l24 -47 12 47 c6
25 13 46 16 46 2 0 11 -13 20 -30 20 -39 38 -38 60 4 16 29 17 40 7 73 -12 42
-23 113 -17 113 2 0 23 -28 46 -62 47 -70 78 -108 90 -108 12 0 39 56 39 82 1
21 3 20 33 -13 67 -77 120 -89 91 -21 -9 20 -18 42 -21 49 -2 6 10 19 29 29
18 9 34 18 36 19 2 2 -13 25 -32 53 -60 83 -46 84 55 2 40 -33 78 -59 83 -57
19 6 16 25 -9 56 -29 34 -28 35 39 45 34 5 86 38 86 56 0 3 -33 12 -72 18 -91
16 -271 75 -308 102 -28 20 -47 56 -37 66 3 3 20 -2 37 -11 44 -23 62 -6 38
35 l-17 30 59 0 c52 0 60 3 60 18 0 11 -9 27 -20 37 -31 28 -24 35 33 35 28 0
58 4 66 9 22 14 5 40 -36 58 l-38 16 40 11 c48 14 56 38 23 73 l-23 26 84 -8
85 -7 -16 24 c-8 12 -33 32 -54 44 -57 30 -51 49 15 51 58 2 86 17 62 33 -8 4
-53 18 -99 29 -47 12 -87 23 -90 25 -10 11 14 27 103 70 93 46 139 86 119 106
-12 12 -95 -8 -168 -40 -27 -11 -51 -19 -53 -16 -2 2 12 29 31 59 67 104 41
114 -66 28 -40 -32 -87 -66 -105 -75 -52 -26 -113 -21 -187 18 -133 70 -377
272 -403 334 -20 49 -9 51 21 3 15 -23 32 -41 40 -41 8 0 16 -7 20 -15 9 -24
24 -17 28 13 3 26 5 24 42 -30 21 -32 40 -58 42 -58 1 0 0 33 -3 73 -7 84 -11
84 89 -12 l58 -55 0 67 0 67 21 -21 c29 -29 62 -21 74 19 5 17 12 32 16 32 4
0 17 -17 30 -37 25 -43 69 -93 81 -93 16 0 8 36 -22 98 -31 65 -37 87 -22 78
5 -3 22 8 38 25 27 28 33 30 76 25 41 -6 48 -4 65 19 l18 25 59 -20 c64 -23
86 -21 86 8 0 21 -35 55 -103 101 -27 18 -47 35 -45 37 2 2 28 -5 56 -16 29
-11 74 -20 100 -20 46 0 92 20 92 41 0 23 -42 48 -94 54 l-56 7 33 22 c18 12
34 32 35 45 l4 24 -109 -8 c-59 -4 -121 -8 -138 -9 l-30 -1 3 53 c4 61 -4 65
-71 30 -28 -14 -61 -22 -98 -22 -50 -1 -71 6 -180 61 -200 100 -272 153 -281
208 -2 16 2 19 21 17 13 -1 29 5 36 14 11 16 18 14 73 -21 59 -36 131 -53 236
-55 29 0 30 4 11 55 -5 11 9 -2 30 -29 38 -49 54 -49 55 -2 0 18 3 17 28 -7
15 -15 32 -27 38 -27 5 1 31 21 58 46 l49 45 -16 29 c-23 39 -21 43 13 25 37
-19 50 -19 50 0 0 19 49 50 111 70 25 9 55 24 67 35 12 11 30 20 40 20 11 0
26 7 33 16 11 14 10 18 -6 30 -40 27 -45 36 -45 73 0 25 -5 41 -15 45 -26 10
-17 21 49 59 99 58 124 99 45 77 -101 -30 -289 -32 -289 -4 0 8 5 14 10 14 8
0 16 40 8 40 -150 11 -263 38 -305 74 -30 26 -27 56 6 56 11 0 27 9 35 21 8
12 19 18 25 15 5 -4 14 2 20 11 9 17 11 17 33 -3 30 -28 62 -44 87 -44 28 0
27 5 -10 52 -17 21 -29 41 -27 43 3 3 32 8 66 11 34 4 62 10 62 13 -1 3 -22
22 -48 41 l-47 35 39 6 c28 5 48 16 68 40 16 19 42 49 59 67 41 45 64 99 48
118 -16 20 -26 18 -108 -21 -41 -20 -78 -32 -82 -28 -4 4 -9 27 -11 50 l-3 42
-75 -34 c-51 -23 -83 -32 -100 -28 -47 11 -171 74 -205 105 -35 30 -45 57 -22
59 6 0 25 2 41 3 15 1 34 10 42 21 14 18 15 18 47 -13 36 -35 61 -39 112 -18
41 17 41 20 15 63 -23 39 -19 40 26 12 l34 -21 0 36 c0 30 4 36 21 36 12 0 23
8 26 19 3 14 23 22 80 35 42 9 77 15 79 13 2 -2 -31 -37 -73 -78 l-76 -74 31
-3 c36 -4 135 21 216 54 33 13 63 24 68 24 16 0 7 -23 -27 -70 -47 -64 -46
-82 3 -80 58 3 62 1 62 -20 0 -33 27 -34 73 -4 70 49 68 48 65 17 -3 -41 8
-53 50 -53 52 1 113 31 173 87 46 42 51 45 46 23 -18 -75 -19 -106 -2 -120 14
-11 22 -10 58 7 23 12 67 44 99 72 31 28 61 51 66 51 5 0 13 -25 17 -56 6 -52
30 -94 54 -94 5 0 28 16 51 35 23 19 45 35 49 35 4 0 18 -11 31 -25 31 -33 43
-32 57 5 11 30 16 34 65 44 20 5 30 17 44 51 18 48 25 53 44 31 17 -21 77 -39
105 -32 16 4 42 33 76 84 97 145 126 161 93 50 -7 -24 17 -23 64 1 50 25 83
63 92 103 l7 33 11 -28 c25 -60 62 -10 62 84 0 26 5 51 10 54 6 3 10 1 10 -5
0 -16 61 -50 90 -50 52 0 60 -37 40 -196 -15 -122 -36 -190 -88 -294 -26 -52
-48 -98 -50 -102 -2 -5 147 -8 331 -8 393 0 375 -5 338 94 -55 148 -77 303
-48 341 15 19 18 18 83 -53 37 -39 71 -72 77 -72 5 0 6 15 2 37 -6 34 -5 36
10 23 10 -8 31 -38 47 -67 35 -62 44 -68 117 -77 30 -4 70 -14 89 -22 31 -13
36 -13 47 3 12 16 17 15 67 -20 73 -50 92 -49 85 3 -5 41 2 50 22 27 18 -23
90 -42 103 -29 17 17 143 15 202 -3 65 -20 69 -19 63 11 -3 18 2 33 14 45 24
24 24 28 -8 61 -14 15 -24 31 -20 34 4 4 43 -7 88 -24 114 -45 149 -40 97 15
-21 23 -13 34 9 12 6 -6 29 -11 51 -11 37 1 42 -3 71 -49 17 -27 38 -52 47
-56 8 -3 34 4 55 17 l40 22 45 -48 c36 -40 46 -46 54 -34 5 8 10 20 10 25 0 6
7 21 16 33 l16 23 39 -36 c21 -19 42 -35 45 -35 15 0 75 43 84 59 6 13 4 25
-7 41 -9 12 -17 36 -19 52 -2 16 -9 38 -15 49 -6 11 -9 22 -7 24 2 2 42 -26
88 -62 103 -79 140 -103 162 -103 28 0 71 44 71 73 l0 26 58 -32 c32 -18 59
-35 59 -38 0 -3 -21 -5 -47 -5 -89 2 -42 -57 63 -78 65 -13 79 -31 38 -46 -15
-6 -48 -29 -72 -52 l-45 -41 61 7 c54 6 63 5 79 -14 12 -13 30 -20 55 -20 26
0 38 -4 38 -14 0 -34 67 -19 104 23 40 44 50 16 11 -31 -14 -16 -25 -36 -25
-44 0 -22 63 -17 94 7 33 26 53 19 72 -26 19 -46 43 -46 119 5 32 21 61 38 62
36 2 -2 -1 -23 -6 -47 -10 -46 -1 -79 23 -79 8 0 40 18 72 39 33 22 60 38 62
36 2 -2 -1 -12 -7 -23 -6 -12 -11 -30 -11 -41 0 -18 6 -21 39 -19 23 1 51 -6
65 -15 32 -21 33 -21 39 4 7 28 49 22 62 -9 12 -27 42 -37 95 -28 22 3 41 2
45 -4 23 -37 -270 -129 -508 -160 l-89 -12 -69 36 c-69 36 -103 44 -114 26 -6
-10 17 -35 51 -57 17 -12 17 -12 -6 -8 -14 3 -81 9 -150 15 -69 5 -172 21
-230 34 -57 14 -106 23 -109 21 -9 -10 43 -54 99 -84 32 -17 85 -37 117 -44
l58 -12 -63 -6 c-71 -7 -92 -20 -76 -46 11 -18 39 -27 118 -38 l48 -7 -32 -33
c-29 -30 -31 -35 -16 -41 9 -4 28 -2 42 5 36 16 48 14 59 -12 9 -19 16 -22 66
-20 31 2 75 10 99 18 57 20 58 20 25 -15 -31 -32 -27 -37 35 -42 26 -2 36 -8
38 -23 7 -40 21 -39 62 5 22 24 40 41 40 39 0 -2 -14 -30 -30 -63 -16 -32 -27
-62 -24 -67 15 -24 101 1 161 47 38 29 41 19 14 -43 -14 -29 -31 -48 -58 -61
-45 -23 -211 -77 -301 -98 -62 -14 -65 -14 -169 16 -126 36 -223 41 -223 12 0
-10 5 -23 12 -30 22 -22 0 -23 -80 -3 -88 23 -157 27 -167 10 -4 -6 11 -32 33
-58 l41 -48 -77 18 c-113 28 -222 24 -222 -7 0 -30 153 -84 238 -84 l44 0 -51
-48 c-38 -35 -51 -55 -51 -76 0 -25 3 -27 33 -24 30 3 33 1 43 -41 9 -40 14
-45 51 -56 23 -7 54 -22 69 -34 35 -28 43 -27 94 10 l44 32 33 -36 c35 -39 43
-71 18 -81 -9 -3 -12 -12 -8 -22 6 -15 0 -17 -50 -11 -45 4 -61 2 -73 -10 -11
-11 -45 -19 -102 -24 -48 -4 -88 -8 -89 -8 -2 -1 -3 -10 -3 -21 0 -34 47 -55
121 -54 37 1 84 4 105 8 38 7 37 6 -25 -31 -70 -42 -88 -61 -77 -88 5 -14 14
-16 44 -12 20 3 46 8 57 12 20 7 20 7 0 -10 -17 -14 -18 -17 -5 -26 8 -5 35
-8 60 -5 43 5 44 5 23 -11 -52 -36 -11 -44 62 -13 65 28 85 27 57 -3 -44 -46
-22 -58 61 -33 49 15 59 13 50 -11 -5 -13 0 -15 25 -11 42 6 41 -9 -3 -28 -26
-11 -85 -14 -257 -14 -276 0 -388 -8 -388 -26 0 -8 10 -14 23 -14 29 0 87 -36
87 -54 0 -22 -10 -25 -108 -35 -50 -5 -100 -15 -111 -21 -28 -14 -27 -46 2
-62 34 -18 153 -13 221 11 33 12 65 21 73 21 7 0 -7 -24 -32 -55 -75 -92 -60
-119 47 -84 79 25 88 21 88 -39 0 -42 16 -72 38 -72 24 0 122 58 129 75 8 23
33 18 33 -7 0 -13 -7 -45 -15 -72 -8 -27 -13 -52 -10 -54 12 -12 76 31 165
112 52 47 99 86 103 86 4 0 -8 -21 -28 -46 -37 -50 -47 -100 -20 -110 8 -4 34
11 62 35 26 22 48 39 49 38 1 -1 -1 -19 -4 -40 -6 -52 -27 -63 -166 -87 -146
-25 -197 -25 -261 -1 -71 27 -131 35 -141 20 -4 -7 1 -18 12 -27 17 -13 11
-13 -53 -7 -88 8 -100 2 -72 -33 l21 -27 -94 -5 c-96 -5 -118 -12 -118 -35 0
-16 22 -25 63 -25 39 0 62 -14 52 -29 -3 -7 -48 -32 -99 -56 -95 -45 -123 -66
-111 -85 10 -16 45 -12 159 21 60 17 111 27 114 23 4 -4 1 -9 -6 -11 -32 -12
-72 -56 -72 -80 0 -25 1 -25 50 -19 28 4 50 4 50 0 0 -3 -9 -17 -20 -31 -41
-53 10 -54 91 -2 25 16 49 29 53 29 4 0 4 -17 0 -37 l-7 -37 26 17 c35 23 38
22 27 -8 -5 -14 -7 -25 -5 -25 3 0 26 16 51 35 54 41 70 40 66 -3 -3 -28 0
-32 21 -32 14 0 51 13 82 30 59 31 89 37 100 20 4 -6 24 -8 48 -4 76 10 16
-15 -114 -47 -147 -36 -181 -52 -177 -82 4 -30 34 -33 119 -12 39 10 72 15 74
13 2 -2 -23 -34 -55 -70 -34 -37 -56 -69 -50 -73 14 -9 114 18 184 49 32 14
60 26 62 26 12 0 0 -30 -26 -70 -40 -60 -39 -70 10 -70 34 0 42 -4 50 -26 11
-27 14 -26 66 13 40 30 44 29 44 -6 0 -63 84 -47 166 30 l51 49 -1 -62 c-1
-58 1 -63 22 -66 16 -3 40 14 91 62 37 36 70 66 73 66 3 0 8 -22 11 -50 11
-96 38 -112 94 -58 l33 32 29 -28 30 -28 15 35 c11 27 21 36 42 39 23 2 31 11
43 43 8 22 16 42 17 44 2 2 15 -6 30 -18 34 -27 78 -27 103 0 10 11 33 47 50
78 16 31 40 66 52 77 l22 19 -7 -47 c-7 -43 -6 -47 11 -41 25 9 75 44 90 63 7
8 17 29 22 45 9 29 10 29 16 8 8 -25 30 -31 38 -10 3 8 8 44 12 82 7 65 8 67
24 48 20 -25 53 -43 80 -43 30 0 34 -28 21 -153 -13 -136 -39 -235 -85 -327
l-35 -70 280 0 c237 0 281 2 286 15 3 8 -6 49 -20 92 -45 137 -57 303 -21 303
7 0 29 -21 48 -48 20 -26 45 -56 58 -67 l22 -20 -6 40 c-6 39 -6 40 11 18 9
-11 29 -44 44 -71 26 -48 30 -51 75 -57 26 -3 62 -12 79 -20 27 -11 33 -11 46
1 13 13 20 11 58 -21 23 -20 48 -34 54 -32 6 2 10 20 10 40 l-1 36 26 -18 c35
-25 68 -34 76 -21 9 15 126 12 175 -5 55 -19 53 -20 46 11 -5 18 -2 32 10 45
17 18 16 21 -5 50 -13 17 -20 33 -17 36 3 3 39 -9 81 -27 43 -17 80 -29 83
-25 4 3 -1 20 -10 36 -17 28 -17 29 2 19 10 -5 32 -10 49 -10 25 0 33 -6 44
-33 8 -17 24 -41 36 -51 21 -19 22 -19 57 0 l36 19 29 -35 c16 -19 29 -38 29
-42 0 -23 18 -3 29 32 16 52 26 56 52 20 29 -39 60 -39 93 1 25 29 26 33 11
55 -8 13 -15 33 -15 44 0 12 -5 30 -11 42 -22 40 2 28 87 -46 54 -48 95 -76
109 -76 29 0 68 46 60 72 -8 24 -6 24 61 -21 116 -76 183 -76 119 1 -14 16
-23 34 -19 39 3 5 25 14 50 20 24 6 44 14 44 18 -1 3 -23 23 -50 44 -47 36
-62 57 -41 57 5 0 61 -25 125 -56 106 -52 146 -61 146 -34 0 5 -16 20 -35 32
-19 13 -35 26 -35 31 0 4 24 7 53 7 58 0 139 23 157 45 13 16 12 16 -154 35
-150 18 -371 66 -416 91 -73 41 -54 63 32 37 54 -16 72 1 38 37 l-23 25 79 0
c90 0 121 12 89 35 -65 46 -66 44 17 45 135 0 166 33 58 61 -52 13 -58 29 -10
29 36 0 80 16 80 29 0 6 -13 18 -30 28 -16 9 -30 20 -30 24 0 4 52 5 117 2 87
-5 114 -3 109 6 -11 17 -82 51 -109 51 -23 0 -47 16 -47 32 0 4 37 8 83 8 84
0 125 12 99 29 -7 4 -68 16 -135 26 -67 10 -131 21 -142 25 -19 7 -19 7 0 17
11 6 71 25 134 42 127 36 191 64 191 86 0 23 -73 19 -198 -10 -59 -14 -116
-28 -127 -31 -12 -4 2 16 38 53 101 103 67 108 -123 18 -190 -91 -265 -93
-470 -17 -197 72 -540 251 -540 281 0 5 -3 18 -6 28 -4 10 12 -1 37 -24 25
-24 54 -43 66 -43 12 0 25 -4 28 -10 11 -18 35 -11 35 10 0 31 17 24 74 -30
29 -27 55 -50 58 -50 3 0 2 19 -3 43 -12 62 -11 77 6 77 21 0 108 -44 158 -81
22 -16 44 -29 50 -29 6 0 7 23 3 59 l-7 59 38 -19 c20 -10 46 -19 56 -19 29 0
57 19 57 40 0 35 22 33 63 -7 120 -115 186 -114 92 0 -50 62 -55 77 -24 77 11
0 32 9 46 20 21 16 41 20 106 20 69 0 84 3 104 22 23 21 24 22 96 5 191 -45
208 3 28 78 -50 21 -94 42 -98 48 -3 5 3 7 13 3 55 -17 172 -36 217 -35 101 1
160 41 101 68 -15 6 -63 15 -107 18 l-80 6 51 23 c34 15 52 29 52 40 0 16 -16
17 -210 10 -115 -4 -210 -4 -210 0 0 4 5 23 12 41 19 53 4 59 -88 32 -99 -28
-213 -30 -309 -5 -119 31 -395 126 -456 156 -88 45 -118 97 -50 86 32 -5 42
-3 50 11 9 17 14 17 73 -6 35 -13 86 -30 113 -38 63 -17 315 -30 315 -16 0 6
-10 23 -22 39 l-23 29 26 -20 c15 -11 43 -33 62 -48 38 -30 57 -29 57 4 0 24
17 24 55 -1 17 -11 37 -20 46 -20 14 0 140 67 156 84 3 3 -8 16 -23 30 -33 29
-24 32 36 11 53 -19 60 -19 60 1 0 19 41 36 150 64 101 25 140 39 140 51 0 5
10 7 23 4 25 -7 77 9 77 23 0 5 -21 17 -46 27 -42 16 -45 20 -42 48 2 27 -2
34 -27 46 l-29 14 29 13 c17 8 66 27 110 44 136 51 143 70 18 51 -105 -16
-340 -26 -388 -17 l-39 8 24 18 c17 13 22 22 15 29 -5 5 -71 15 -145 20 -74 6
-166 18 -205 26 -38 8 -72 15 -75 15 -3 0 -20 9 -38 20 -28 17 -32 23 -22 35
7 8 27 15 45 15 18 0 38 7 45 15 7 8 25 15 40 15 16 0 30 5 32 12 3 9 22 4 65
-15 35 -16 78 -27 103 -27 l42 0 -44 36 c-23 20 -44 40 -46 45 -2 5 21 9 51 9
30 0 75 3 100 6 l46 7 -72 35 -72 36 62 6 c63 7 74 12 128 61 17 15 45 36 64
46 43 23 76 66 68 87 -9 23 -53 20 -172 -14 -122 -34 -139 -32 -131 16 4 18 3
35 -2 38 -5 3 -58 -9 -118 -26 -102 -29 -112 -30 -173 -19 -91 17 -248 68
-299 98 -55 31 -45 45 38 51 34 2 64 10 71 18 15 18 33 18 48 0 7 -8 28 -22
47 -31 30 -14 45 -15 102 -5 96 16 103 22 67 60 -32 33 -25 37 28 15 54 -22
64 -20 59 14 -4 27 -1 30 29 33 29 3 34 7 35 30 1 15 7 34 14 43 11 13 9 19
-9 38 -11 13 -21 29 -21 36 0 6 20 34 45 60 25 26 45 51 45 55 0 14 -60 4
-153 -24 -210 -63 -304 -73 -374 -39 -52 25 -93 76 -72 90 20 13 49 11 105 -6
27 -8 57 -15 67 -15 31 0 18 36 -28 79 -25 23 -45 44 -45 46 0 3 29 5 64 5 44
0 67 5 76 15 10 13 7 17 -21 30 -19 8 -29 14 -22 15 17 0 83 60 83 74 0 10
-14 8 -53 -5 -75 -25 -280 -34 -441 -20 -168 16 -302 63 -203 73 30 3 32 5 30
42 -3 38 -2 38 20 22 57 -41 101 -59 119 -47 10 6 32 11 49 11 17 0 42 9 56
20 14 11 41 20 59 20 50 0 43 20 -32 88 l-65 59 87 -14 c48 -8 106 -13 128
-11 39 3 41 4 41 37 0 29 6 39 34 58 19 13 49 23 67 23 65 0 90 32 37 47 -25
7 -23 8 21 13 35 4 52 11 60 25 6 11 17 24 24 28 11 7 9 14 -9 33 -17 18 -33
24 -68 24 -31 0 -41 3 -32 9 8 5 11 16 8 26 -6 13 -15 15 -52 9 l-46 -6 7 27
c6 25 5 27 -17 20 -28 -10 -239 -52 -239 -48 0 1 25 25 55 54 30 29 53 54 50
57 -3 3 -30 -3 -60 -13 -30 -11 -57 -16 -61 -12 -3 3 3 18 15 33 23 29 28 54
11 54 -6 0 -34 -17 -63 -39 -94 -70 -112 -76 -222 -76 -169 0 -332 54 -364
120 -7 17 -22 47 -33 68 -23 46 -5 51 32 9 23 -26 34 -29 134 -40 59 -7 112
-9 117 -6 5 3 9 21 9 39 l0 34 58 -34 c64 -39 112 -46 112 -17 0 10 -6 24 -12
31 -11 11 8 12 108 7 79 -4 131 -3 152 5 31 11 42 32 22 44 -5 3 -15 15 -20
25 -9 17 -4 22 37 42 56 28 64 43 26 55 l-28 10 45 23 c51 26 160 101 179 123
10 13 4 17 -46 27 -32 6 -71 21 -87 32 -23 17 -37 19 -79 14 -50 -7 -51 -7
-34 12 49 54 -3 68 -91 25 -45 -22 -73 -28 -146 -31 l-91 -3 33 27 c31 25 33
30 27 68 -4 22 -8 42 -10 44 -1 2 -35 -14 -75 -35 -69 -36 -78 -38 -164 -38
-107 0 -192 23 -331 90 -96 46 -215 121 -215 135 0 5 16 2 36 -6 43 -18 64
-13 64 17 0 21 1 21 21 -5 11 -14 31 -26 43 -26 13 0 45 -11 71 -26 54 -28 65
-23 65 34 0 37 9 40 34 13 20 -23 113 -64 125 -57 5 3 12 23 16 43 l7 38 13
-38 c15 -45 10 -40 60 -56 22 -7 45 -15 52 -17 6 -3 24 9 39 25 15 17 36 31
47 31 17 0 18 5 12 52 -6 43 -5 50 8 45 96 -37 134 -31 97 15 -26 34 -26 36
12 40 l31 3 -26 31 c-28 33 -35 64 -16 64 6 0 29 -14 50 -31 31 -24 49 -31 85
-31 25 0 48 3 52 6 3 4 -2 19 -11 35 -20 34 -11 45 45 55 20 4 59 23 87 44
l50 37 -27 8 c-15 4 -62 7 -104 5 -42 -1 -80 1 -83 4 -4 3 1 18 11 32 9 15 14
29 11 33 -3 3 -41 -15 -84 -40 -77 -44 -123 -64 -123 -52 0 3 7 17 17 31 16
25 16 25 -9 19 -38 -10 -43 11 -14 50 39 51 15 51 -56 0 -136 -97 -150 -105
-194 -105 -87 0 -294 75 -381 139 -46 34 -80 86 -62 96 21 13 76 -6 102 -35
28 -31 68 -47 87 -35 8 5 9 20 5 44 l-6 36 48 -47 c55 -54 88 -69 121 -57 21
8 23 13 17 53 -7 47 6 86 30 86 7 0 34 -18 59 -40 56 -48 145 -76 160 -51 3 5
-25 38 -62 75 -62 61 -65 66 -40 66 16 0 34 -9 46 -25 11 -14 28 -25 38 -25
11 0 28 -7 38 -15 11 -8 40 -15 65 -15 l46 1 -27 24 c-16 13 -28 29 -28 34 0
6 32 20 72 32 65 20 70 23 53 35 -59 39 -60 39 24 39 63 0 83 4 100 19 46 42
16 76 -67 76 -83 0 -113 9 -110 34 3 19 -2 21 -42 20 -27 0 -73 -13 -115 -31
-99 -44 -110 -45 -110 -8 0 24 -5 31 -24 33 -20 3 -22 8 -17 33 7 34 -2 36
-64 14 -55 -19 -53 -20 -48 15 7 50 -16 58 -59 20 -20 -18 -68 -48 -107 -67
-60 -29 -78 -33 -116 -28 -45 7 -120 33 -120 42 0 3 11 14 25 25 28 22 33 63
9 72 -9 3 -50 6 -92 6 -99 0 -134 20 -166 93 -34 77 -50 167 -32 184 13 13 26
-22 26 -72 0 -51 20 -96 63 -142 40 -45 74 -21 87 62 l6 40 18 -43 c22 -52 65
-89 112 -98 48 -9 58 4 39 49 -20 48 -19 56 5 50 13 -4 20 0 20 10 0 8 7 18
16 21 10 4 19 -4 29 -27 16 -38 101 -121 135 -132 26 -8 40 7 40 43 0 12 9 31
20 42 12 12 18 25 15 30 -13 21 7 8 34 -22 l28 -32 59 18 c32 10 73 22 89 27
45 14 97 48 90 59 -4 6 -28 21 -55 35 -26 13 -58 38 -70 55 -16 23 -29 30 -54
30 -41 0 -125 25 -151 45 -19 14 -19 16 -2 29 21 17 22 52 1 60 -34 13 -95 5
-140 -19 -46 -24 -104 -34 -104 -16 0 4 23 18 51 30 51 21 51 21 36 45 -18 26
-13 36 15 36 29 0 96 38 108 60 13 25 12 25 -103 44 -49 7 -93 18 -99 24 -11
11 15 70 36 78 8 3 29 -4 47 -15 45 -28 56 -26 74 9 9 17 22 30 30 30 8 0 24
9 35 20 11 11 28 20 38 20 21 0 42 18 42 37 0 18 -46 39 -102 47 -57 9 -67 28
-28 56 17 12 30 28 30 35 0 8 21 28 46 45 72 50 50 77 -63 79 l-53 1 46 62
c31 43 44 69 42 87 -5 45 -34 37 -101 -28 -35 -34 -69 -61 -75 -61 -7 0 -25
15 -41 32 l-29 33 -22 -20 c-30 -27 -64 -89 -85 -153 -11 -34 -34 -71 -66
-107 -51 -55 -160 -135 -185 -135 -11 0 -14 22 -14 106 0 77 -4 115 -16 140
-22 46 -15 137 12 165 11 11 37 22 58 26 l37 6 -3 -38 c-2 -27 2 -40 14 -48
14 -10 24 -5 58 28 37 36 41 38 64 25 29 -15 86 -4 94 19 6 17 -104 121 -127
121 -26 0 -81 21 -81 30 0 16 32 19 112 8 106 -14 178 -5 178 23 0 12 -7 19
-18 19 -9 0 -34 14 -55 31 -22 18 -44 28 -53 25 -34 -13 -7 25 50 71 70 57 79
73 39 73 -30 0 -166 -60 -195 -87 -16 -14 -17 -12 -15 28 1 33 -2 44 -13 44
-21 0 -89 -102 -102 -152 -6 -25 -16 -43 -24 -43 -8 0 -23 -9 -34 -20 -11 -11
-23 -20 -26 -20 -4 0 -4 32 0 71 8 86 34 142 109 237 78 97 97 127 97 151 0
16 -6 21 -27 21 -42 -1 -75 -24 -103 -71 -14 -23 -31 -44 -38 -47 -19 -6 -32
44 -32 129 0 85 -6 105 -50 156 l-28 31 -6 -30 c-3 -17 -6 -104 -6 -194 0 -90
-3 -164 -6 -164 -3 0 -41 36 -83 80 -43 44 -83 80 -89 80 -17 0 -15 -65 2 -99
8 -15 42 -61 75 -102 69 -84 85 -131 79 -244 -3 -73 -16 -89 -33 -39 -5 16
-17 36 -26 45 -9 9 -19 43 -23 78 -8 73 -18 101 -41 124 -25 26 -53 5 -61 -43
-4 -22 -10 -40 -14 -40 -5 0 -31 16 -60 35 -64 43 -92 51 -109 31 -20 -23 1
-70 64 -150 30 -38 55 -73 55 -77 0 -5 1 -12 1 -16 1 -4 -11 -15 -27 -24 -34
-18 -43 -59 -19 -83 22 -22 57 -20 89 5 15 12 29 20 30 18 2 -2 7 -28 11 -56
9 -67 -4 -74 -74 -39 -55 28 -76 32 -86 15 -15 -23 9 -66 63 -116 l56 -53 -36
0 c-27 0 -40 -6 -52 -25 -9 -14 -25 -25 -35 -25 -10 0 -56 23 -102 52 -120 74
-188 108 -204 101 -20 -7 -19 -58 1 -89 9 -14 37 -37 62 -51 l45 -26 -48 -12
c-25 -7 -54 -20 -63 -29 -25 -25 -4 -51 43 -52 24 0 41 -6 47 -17 5 -9 18 -17
28 -17 22 0 27 -16 8 -23 -8 -4 4 -20 32 -45 l44 -40 -44 -7 c-131 -20 -160
-46 -110 -96 24 -24 36 -30 53 -24 12 4 42 10 67 12 38 4 50 1 73 -21 34 -31
60 -33 86 -5 11 12 36 23 63 26 l43 4 -47 -41 c-27 -23 -48 -48 -48 -55 0 -31
76 -34 115 -3 l27 21 -2 -39 c-2 -21 -2 -45 -1 -51 2 -18 56 -16 71 2 9 11 16
12 26 4 10 -8 18 -3 34 23 11 18 20 36 20 41 0 22 19 1 34 -36 20 -54 20 -83
0 -91 -31 -12 -249 -24 -294 -17 -25 4 -89 31 -143 59 -100 53 -143 64 -154
37 -7 -20 22 -52 70 -77 22 -11 37 -21 35 -24 -3 -2 -37 4 -76 15 -75 20 -180
73 -241 122 -74 59 -156 44 -119 -22 20 -35 21 -34 -111 -49 -128 -14 -146
-30 -87 -75 47 -35 152 -56 236 -46 61 7 63 7 40 -8 -96 -63 -109 -121 -29
-121 29 0 71 24 124 70 27 23 57 40 71 40 36 0 29 -12 -23 -40 -65 -35 -76
-56 -40 -81 16 -13 27 -30 27 -44 0 -35 33 -50 55 -25 10 11 48 29 84 40 36
11 84 34 105 50 22 16 42 28 44 25 8 -8 -49 -64 -96 -93 -64 -41 -69 -82 -10
-82 17 0 46 9 64 21 l34 21 0 -36 c0 -49 20 -47 66 9 39 48 58 56 68 29 6 -15
9 -14 30 5 17 16 43 25 91 31 45 6 79 17 106 35 43 28 79 78 79 110 0 17 2 17
10 5 5 -8 10 -30 10 -48 0 -58 -119 -155 -326 -264 l-96 -51 -119 58 c-122 59
-157 65 -143 23 4 -13 19 -39 33 -58 l26 -34 -25 17 c-13 9 -39 17 -57 17 -18
0 -58 11 -90 25 -70 31 -87 29 -88 -10 0 -27 -4 -30 -35 -33 -19 -2 -59 2 -88
9 -50 12 -53 11 -78 -12 -16 -15 -24 -32 -22 -49 3 -23 7 -25 42 -22 l39 3
-27 -31 c-14 -17 -26 -36 -26 -41 0 -5 25 -9 56 -9 l57 0 -6 -30 -6 -30 50 0
50 0 -7 -37 c-7 -35 -6 -36 17 -28 59 18 87 17 109 -5 25 -25 24 -77 -2 -94
-14 -8 -20 -7 -30 6 -28 37 -124 51 -151 23 -11 -10 -25 -13 -46 -9 -43 9 -41
-14 4 -53 35 -32 43 -59 29 -110 -9 -33 -26 -29 -102 27 -42 30 -79 50 -95 50
-31 0 -33 -9 -11 -52 9 -17 12 -34 7 -39 -5 -5 -47 -2 -98 6 -50 8 -102 15
-117 15 -69 0 -1 -64 102 -96 68 -21 67 -20 45 -44 -28 -31 -5 -50 61 -50 48
0 54 -3 66 -27 11 -23 21 -29 53 -31 48 -4 65 -17 65 -48 0 -33 10 -30 51 12
33 34 34 35 39 12 3 -13 11 -24 18 -24 7 -1 16 -2 21 -3 5 0 14 -15 21 -31 7
-17 32 -50 56 -75 24 -24 44 -49 44 -54 0 -6 17 -18 38 -26 20 -9 49 -27 63
-41 l25 -24 45 31 c43 31 43 31 19 4 -14 -15 -45 -36 -70 -47 -74 -32 -241
-70 -310 -71 -55 -1 -74 4 -124 31 -33 18 -69 32 -80 32 -12 0 -39 7 -61 14
-22 8 -83 18 -135 22 l-95 7 48 13 c45 12 87 38 87 54 0 18 -67 20 -277 9
-242 -13 -259 -10 -229 32 9 13 16 31 16 41 0 23 -44 24 -120 3 -91 -26 -243
-30 -339 -11 -170 35 -543 146 -619 185 -44 23 -87 66 -78 79 3 5 27 7 52 4
36 -4 49 -1 55 11 10 17 26 14 157 -29 39 -14 116 -29 170 -34 122 -12 282
-13 282 -1 0 4 -10 21 -21 36 -18 22 -10 19 45 -19 73 -50 84 -54 91 -31 3 8
7 22 10 30 4 13 12 12 54 -10 28 -14 57 -25 66 -25 19 0 195 82 195 91 0 3
-17 18 -37 32 -44 31 -32 33 50 10 58 -16 60 -16 76 4 18 23 75 45 166 63 87
17 168 40 184 53 7 6 27 10 43 8 31 -3 88 16 88 29 0 4 -22 13 -50 20 -56 14
-74 30 -65 60 8 27 -11 50 -41 50 -51 0 -19 19 94 55 138 44 178 63 165 76 -6
6 -33 6 -74 -1 -91 -17 -517 -26 -531 -12 -8 8 -4 14 16 22 67 25 -5 47 -162
49 -153 2 -403 54 -416 86 -7 19 23 35 67 35 19 0 40 7 47 15 7 8 25 15 41 15
16 0 38 5 49 12 16 10 27 8 67 -11 31 -15 73 -25 118 -28 l70 -5 -58 43 -59
44 44 7 c23 3 79 7 122 7 49 1 76 5 70 10 -5 5 -45 24 -89 43 l-80 33 76 5
c80 6 94 12 182 82 27 21 57 38 66 38 19 0 51 31 69 66 14 27 -2 44 -43 44
-17 0 -84 -14 -149 -31 -65 -16 -130 -29 -145 -27 -23 3 -26 8 -26 40 0 20 -3
39 -6 42 -3 4 -58 -7 -122 -24 -64 -16 -141 -30 -172 -30 -84 0 -339 66 -425
110 -71 36 -61 46 57 53 42 2 69 9 82 21 19 18 22 17 74 -13 60 -34 104 -39
198 -21 74 14 81 25 41 61 -19 17 -32 32 -30 34 2 2 28 -5 58 -16 77 -27 87
-25 82 11 -4 28 -2 30 37 36 37 6 41 9 41 37 0 17 8 35 18 43 16 12 15 14 -10
41 -16 16 -28 33 -28 39 0 5 25 33 57 62 88 82 70 85 -159 27 -212 -53 -345
-67 -413 -45 -41 14 -115 75 -115 95 0 23 48 25 134 6 46 -10 90 -15 97 -10
20 12 -4 47 -59 89 l-47 35 82 5 c81 6 112 18 99 39 -4 6 -20 11 -37 11 -40 0
-36 12 12 34 39 18 78 61 66 73 -3 3 -25 -2 -47 -11 -61 -24 -271 -38 -455
-31 -182 8 -292 24 -356 53 l-44 19 49 8 48 8 -5 38 c-3 22 -2 39 1 39 4 0 27
-14 52 -30 53 -35 104 -48 125 -30 9 8 29 10 50 7 28 -5 40 -1 55 15 13 14 36
22 70 26 28 2 53 9 56 14 8 13 -20 42 -93 96 -35 25 -62 47 -60 48 1 1 47 -5
102 -12 55 -8 125 -13 155 -12 l55 3 0 39 c0 51 30 73 119 85 89 13 102 25 50
48 l-39 18 63 3 c56 3 64 6 72 27 5 14 14 25 20 25 18 0 11 29 -12 44 -14 10
-44 16 -77 16 -48 0 -53 2 -36 13 33 25 8 40 -52 34 l-55 -6 6 31 c5 24 3 29
-9 25 -8 -4 -40 -11 -72 -17 -32 -6 -101 -19 -153 -29 l-94 -18 34 26 c62 46
115 99 108 107 -4 4 -31 -3 -59 -15 -48 -19 -89 -27 -89 -16 0 2 11 21 25 41
39 58 17 64 -57 16 -111 -72 -151 -86 -268 -90 -208 -7 -470 75 -470 148 0 10
-11 33 -25 53 -32 48 -14 58 26 16 30 -32 35 -34 152 -45 180 -19 167 -21 167
26 0 22 2 40 5 40 3 0 37 -16 75 -35 78 -39 130 -46 130 -17 0 10 -5 23 -12
30 -21 21 20 25 137 13 114 -11 206 -3 221 21 3 5 -6 22 -20 37 -36 37 -33 47
17 59 75 19 104 62 41 62 -40 0 -28 14 44 49 67 33 197 115 207 131 3 4 -25
13 -63 20 -37 6 -86 20 -110 32 -34 16 -55 19 -93 15 -53 -7 -57 -3 -33 31 35
50 -25 54 -134 8 -49 -21 -85 -28 -167 -33 -107 -6 -129 1 -75 25 16 7 32 22
35 32 8 24 -4 90 -16 90 -6 0 -31 -11 -57 -24 -123 -61 -223 -73 -367 -42
-151 32 -338 108 -478 193 -64 39 -65 55 -2 29 52 -22 65 -20 65 9 0 14 4 25
8 25 5 0 19 -11 32 -25 15 -16 34 -25 55 -25 17 0 54 -11 81 -25 27 -14 55
-23 62 -20 7 2 12 21 12 43 0 21 3 41 6 45 3 3 25 -8 48 -24 23 -16 63 -36 88
-44 46 -13 48 -13 63 8 8 12 15 33 16 47 0 20 4 16 18 -20 11 -28 26 -46 37
-48 11 -2 41 -10 67 -19 l48 -15 39 36 c22 20 47 36 56 36 14 0 16 8 10 50 -4
28 -5 50 -4 50 2 0 28 -7 58 -15 95 -25 108 -18 69 36 -20 29 -20 29 0 29 48
0 53 10 21 46 -60 69 -29 85 53 28 48 -33 56 -36 106 -31 64 7 69 11 47 36
-28 30 -17 55 29 65 54 11 124 42 159 71 l29 23 -57 7 c-32 4 -91 5 -132 3
-40 -3 -76 -3 -78 0 -3 2 6 19 20 37 14 18 21 36 16 39 -5 3 -57 -19 -116 -49
-133 -68 -158 -71 -120 -16 17 23 16 23 -14 17 -44 -10 -49 10 -13 55 55 68 0
49 -141 -47 -120 -82 -168 -85 -377 -24 -139 41 -260 100 -300 145 -44 51 -41
65 14 65 39 0 51 -5 80 -34 60 -61 133 -58 115 5 -11 38 -1 37 39 -5 41 -42
124 -80 157 -72 23 6 24 11 23 68 -2 48 2 64 15 74 23 16 57 4 103 -36 38 -34
133 -65 169 -56 32 9 25 20 -59 91 -41 35 -65 61 -59 67 12 12 59 -7 74 -32 7
-11 22 -20 33 -20 12 0 38 -9 60 -20 38 -19 125 -28 125 -12 0 4 -17 18 -37
31 -34 22 -35 25 -19 37 10 7 49 21 87 31 38 9 69 20 69 23 0 4 -18 16 -40 29
-22 12 -40 23 -40 24 0 1 45 2 99 2 91 0 101 2 125 24 52 49 26 69 -96 77
-119 8 -128 10 -125 37 2 21 -2 22 -53 21 -37 -1 -86 -14 -147 -38 -113 -44
-123 -45 -123 -7 0 23 -6 31 -30 39 -26 10 -29 14 -24 41 l6 30 -48 -13 c-27
-7 -60 -16 -72 -20 -21 -7 -24 -5 -22 21 1 15 2 34 1 41 -2 19 -40 14 -64 -9
-30 -30 -174 -97 -225 -105 -26 -4 -66 0 -109 10 -96 24 -104 30 -70 56 35 28
48 52 37 70 -7 11 -40 16 -129 20 -99 4 -125 9 -148 26 -56 40 -119 208 -99
261 13 32 36 -14 36 -72 0 -44 6 -60 41 -108 49 -70 82 -82 115 -44 12 14 25
45 29 69 l8 42 19 -42 c25 -51 66 -88 116 -102 75 -20 96 -6 68 49 -23 44 -21
59 9 53 18 -3 25 0 25 11 0 19 26 29 37 14 5 -7 15 -25 23 -41 24 -47 133
-126 174 -126 19 0 36 30 36 64 0 15 8 30 20 36 11 6 20 18 20 27 0 10 13 4
41 -22 31 -28 46 -35 63 -30 11 3 55 15 96 26 81 21 162 58 163 74 0 6 -28 24
-63 41 -35 17 -73 43 -85 58 -18 22 -34 29 -91 37 -130 18 -209 55 -166 78 11
6 22 17 25 25 20 51 -98 63 -189 20 -67 -32 -139 -44 -132 -23 2 8 29 23 59
33 30 11 56 21 58 23 3 2 -3 16 -12 32 -16 28 -16 29 6 35 12 3 31 6 43 6 24
0 114 55 114 69 0 13 -55 27 -165 41 -49 6 -91 13 -94 15 -7 8 9 53 28 76 l19
24 56 -27 c31 -16 60 -28 64 -28 5 0 16 16 25 35 12 25 23 35 39 35 13 0 29 9
36 20 7 12 23 20 38 20 32 0 64 17 64 34 0 26 -39 47 -106 58 -38 6 -73 14
-77 18 -14 12 4 38 34 50 17 7 29 20 29 31 0 11 17 28 44 44 99 58 82 85 -52
85 l-84 0 50 58 c65 75 76 97 62 122 -18 33 -45 23 -125 -45 -42 -36 -83 -65
-92 -65 -8 0 -26 14 -40 30 -49 59 -87 30 -165 -128 -48 -96 -57 -108 -130
-166 -101 -81 -175 -123 -191 -107 -7 7 -14 62 -17 136 -3 80 -9 129 -17 137
-15 14 -17 96 -3 132 12 32 44 52 98 61 l43 7 -6 -36 c-8 -38 6 -66 30 -66 7
0 32 16 54 35 40 33 44 34 104 29 46 -4 67 -2 82 9 20 15 20 16 -5 42 -52 55
-121 98 -173 106 -51 8 -77 23 -64 36 8 8 30 8 197 -2 105 -6 128 -4 145 8 24
19 15 30 -36 46 -20 7 -45 21 -54 31 -10 11 -31 20 -47 20 -43 0 -32 16 52 74
78 54 92 72 65 82 -21 8 -133 -29 -212 -71 l-63 -33 6 39 c18 111 -112 -3
-145 -128 -9 -31 -15 -41 -27 -36 -9 3 -27 -6 -44 -22 -15 -14 -30 -23 -33
-18 -12 19 15 159 39 203 14 25 63 88 110 140 100 111 121 145 103 166 -28 34
-108 -2 -161 -73 -37 -51 -41 -54 -57 -39 -12 13 -17 43 -21 126 l-5 109 -45
46 c-24 25 -48 45 -52 45 -4 0 -8 -69 -9 -152z m-115 -719 c26 -23 58 -63 71
-90 25 -49 33 -121 16 -148 -11 -16 -32 21 -61 105 -11 30 -35 75 -54 100 -35
45 -45 74 -27 74 4 0 29 -19 55 -41z m-61 -330 c67 -34 124 -86 137 -124 18
-55 3 -60 -48 -16 -26 21 -63 45 -82 53 -38 16 -90 70 -90 94 0 20 34 17 83
-7z m695 -175 c12 -4 22 -12 22 -20 0 -20 -177 -132 -239 -151 -31 -9 -66 -26
-79 -37 -21 -18 -24 -19 -39 -3 -13 13 -14 23 -7 49 l10 33 92 5 c91 5 93 5
112 37 10 18 29 33 42 35 13 2 28 15 36 31 14 29 16 30 50 21z m-163 -379 c64
0 80 -3 80 -15 0 -11 -17 -18 -57 -24 -65 -10 -93 -2 -148 44 l-35 30 40 -17
c26 -11 68 -17 120 -18z m192 -37 c7 20 45 15 41 -5 -4 -22 -83 -67 -103 -59
-15 5 -22 66 -9 78 3 4 19 -1 36 -10 23 -13 32 -14 35 -4z m368 -78 c7 -12
-41 -44 -55 -35 -14 9 -13 32 3 38 21 9 46 7 52 -3z m-638 -473 c6 -85 -5
-141 -26 -128 -29 18 -35 163 -8 215 9 18 10 18 19 2 5 -9 12 -50 15 -89z
m-219 -234 c-2 -10 -13 -19 -26 -21 -24 -4 -29 7 -10 26 18 18 40 15 36 -5z
m-108 -63 c0 -8 -24 -20 -41 -20 -14 0 -11 28 4 33 15 5 37 -2 37 -13z m317
-42 c-2 -13 -4 -3 -4 22 0 25 2 35 4 23 2 -13 2 -33 0 -45z m-977 -30 c70 -55
125 -57 194 -7 49 36 79 38 74 7 -4 -32 42 -37 81 -9 16 12 36 21 44 21 28 0
31 -22 6 -41 -63 -48 -382 -90 -441 -58 -30 16 -63 96 -47 115 15 18 43 10 89
-28z m520 28 c0 -15 -37 -32 -47 -22 -9 8 17 36 33 36 8 0 14 -6 14 -14z
m1930 -1276 c0 -23 -10 -26 -28 -8 -18 18 -15 28 8 28 13 0 20 -7 20 -20z
m-5236 -182 c35 -62 48 -114 44 -188 l-3 -65 -13 60 c-12 53 -24 92 -62 208
-13 41 6 33 34 -15z m2942 -86 c-16 -26 -209 -102 -223 -88 -12 12 30 34 122
65 97 33 109 36 101 23z m-2958 -276 c39 -43 67 -109 60 -144 -2 -12 -13 -3
-36 31 -18 26 -37 47 -43 47 -10 0 -48 76 -49 98 0 24 28 11 68 -32z m376
-165 c9 -14 -51 -96 -102 -140 -26 -22 -56 -50 -68 -61 -25 -24 -34 -17 -34
26 0 44 23 65 60 57 34 -6 60 10 60 38 0 10 9 23 20 29 11 6 20 19 20 29 0 10
3 21 7 24 9 10 31 9 37 -2z m7443 -143 c58 -61 73 -96 73 -170 -1 -58 -2 -62
-16 -43 -8 11 -22 45 -31 75 -8 30 -31 80 -49 110 -52 85 -43 95 23 28z
m-7544 -238 c54 0 66 -23 21 -40 -37 -15 -42 -13 -75 22 -32 35 -40 61 -11 35
12 -11 36 -17 65 -17z m100 -50 c3 0 7 8 10 18 4 16 4 16 12 -1 5 -13 1 -27
-12 -45 -28 -38 -40 -37 -47 3 -8 43 2 65 19 42 7 -10 15 -17 18 -17z m7405
-25 c64 -42 81 -59 97 -98 23 -56 9 -62 -42 -17 -25 22 -51 40 -58 40 -17 0
-75 67 -75 85 0 22 36 18 78 -10z m-7198 -49 c0 -20 -27 -40 -33 -24 -2 7 -2
19 1 26 6 16 32 15 32 -2z m4773 -72 c69 -12 38 -24 -60 -24 -116 0 -115 20 2
28 11 1 37 -1 58 -4z m3001 -42 c12 -20 -152 -142 -211 -157 -16 -3 -36 -14
-45 -22 -28 -25 -52 -9 -44 29 3 17 9 34 12 37 3 3 40 8 82 11 70 5 77 7 80
27 2 13 14 25 32 31 15 6 31 20 35 31 6 21 48 30 59 13z m-2414 -92 c11 -7 5
-10 -23 -10 -23 0 -36 4 -32 10 8 13 35 13 55 0z m-5711 -312 c1 -90 -8 -121
-23 -82 -8 21 -8 178 1 200 12 33 22 -15 22 -118z m7877 77 c17 -9 56 -15 97
-15 79 0 93 -21 25 -38 -47 -12 -82 -1 -133 42 -34 29 -30 33 11 11z m249 -65
c3 0 5 7 5 16 0 18 31 16 37 -3 5 -15 -72 -67 -86 -58 -6 3 -11 22 -11 42 0
35 0 35 25 19 13 -9 27 -16 30 -16z m303 -67 c-4 -22 -48 -31 -48 -10 0 19 10
27 32 27 13 0 18 -6 16 -17z m-8557 -166 c-16 -16 -26 0 -10 19 9 11 15 12 17
4 2 -6 -1 -17 -7 -23z m126 -89 c-2 -13 -4 -3 -4 22 0 25 2 35 4 23 2 -13 2
-33 0 -45z m-177 43 c0 -5 -7 -14 -15 -21 -12 -10 -15 -10 -15 2 0 8 3 18 7
21 9 10 23 9 23 -2z m5943 -37 c22 -16 21 -16 -11 -10 -18 3 -43 13 -55 22
-22 16 -21 16 11 10 18 -3 43 -13 55 -22z m-6312 -36 c13 -18 28 -36 34 -40
23 -17 54 -7 79 27 30 39 50 38 40 -1 -8 -33 20 -33 42 1 21 32 34 32 34 1 0
-14 -11 -33 -25 -44 -32 -25 -140 -55 -185 -50 -39 3 -58 32 -67 99 -7 50 16
53 48 7z m289 18 c0 -8 -4 -18 -10 -21 -5 -3 -10 3 -10 14 0 12 5 21 10 21 6
0 10 -6 10 -14z m8164 -107 c3 -17 6 -62 6 -100 0 -67 -13 -96 -31 -68 -10 16
-12 159 -3 183 10 25 21 19 28 -15z m-174 -274 c0 -16 -27 -32 -37 -21 -7 7
16 36 28 36 5 0 9 -7 9 -15z m172 -97 c-9 -20 -11 -18 -11 22 0 40 2 42 11 23
8 -17 8 -29 0 -45z m-262 43 c0 -12 -29 -35 -36 -28 -11 10 5 37 21 37 8 0 15
-4 15 -9z m-537 -76 c54 -47 102 -48 157 -4 42 34 72 34 63 0 -4 -17 -1 -21
19 -21 14 0 33 9 43 20 20 22 40 26 51 9 11 -19 -30 -49 -87 -64 -78 -20 -227
-37 -261 -29 -23 4 -35 16 -49 48 -10 22 -19 49 -19 59 0 28 38 20 83 -18z
m427 26 c0 -5 -7 -12 -16 -15 -22 -9 -24 -8 -24 9 0 8 9 15 20 15 11 0 20 -4
20 -9z m-6782 -346 c53 -7 53 -7 35 -27 -26 -30 -75 -48 -128 -48 l-46 0 20
26 c12 15 21 37 21 50 0 20 3 22 23 15 12 -5 46 -12 75 -16z m122 -15 c-19
-13 -30 -13 -30 0 0 6 10 10 23 10 18 0 19 -2 7 -10z m90 -85 c-14 -16 -50
-21 -50 -6 0 9 20 17 49 20 11 1 11 -2 1 -14z m233 -191 c45 -45 55 -73 33
-89 -9 -7 -16 -20 -16 -30 0 -16 -7 -17 -66 -11 -55 6 -70 4 -85 -10 -25 -23
-219 -41 -231 -22 -15 24 -8 43 22 60 34 19 39 42 13 57 -16 10 -15 14 14 41
36 33 56 31 113 -10 16 -11 36 -20 46 -20 22 0 104 48 104 60 0 18 17 10 53
-26z m264 -59 l61 -55 37 50 c20 27 42 50 49 50 7 0 23 -11 36 -25 22 -23 25
-24 42 -8 21 19 24 17 46 -29 20 -40 48 -48 68 -19 13 18 25 21 77 21 l62 -1
-60 -26 c-52 -23 -77 -28 -182 -31 -97 -3 -123 -7 -123 -18 0 -20 -15 -18 -99
13 -61 22 -76 24 -93 14 -21 -13 -73 -7 -84 11 -6 9 82 108 96 108 4 0 34 -25
67 -55z m587 26 c3 -5 -12 -13 -34 -19 -41 -10 -53 -1 -22 17 21 13 49 14 56
2z m4216 -116 c41 -8 89 -15 105 -15 27 -1 28 -2 10 -12 -11 -6 -25 -17 -31
-24 -9 -11 -29 -6 -114 26 -109 42 -137 57 -80 46 19 -4 69 -14 110 -21z m306
-31 c-7 -18 -92 -18 -125 0 -23 13 -22 14 30 20 30 4 61 11 69 16 17 11 35
-13 26 -36z m-5762 -25 c-5 -8 -10 -6 -16 5 -5 9 -6 21 -2 27 5 8 10 6 16 -5
5 -9 6 -21 2 -27z m-442 -43 c15 -30 22 -34 70 -40 107 -14 103 -15 106 27 l3
38 40 -35 c52 -48 74 -48 66 -1 -6 35 -6 35 33 35 21 0 51 -5 66 -10 20 -8 36
-8 57 1 24 10 34 9 59 -6 27 -16 47 -17 154 -12 l124 6 -80 -40 c-84 -42 -105
-69 -76 -97 15 -15 21 -15 78 0 45 12 58 13 46 4 -40 -30 -9 -50 61 -40 45 6
45 5 24 -11 -53 -38 -5 -47 77 -15 28 11 61 20 73 20 21 -1 21 -1 -5 -25 -54
-47 -29 -54 111 -29 31 6 33 5 26 -16 -7 -22 -5 -22 31 -16 37 7 38 6 22 -9
-25 -27 -88 -34 -299 -35 -188 0 -197 1 -202 20 -4 16 -11 19 -36 14 -31 -6
-31 -6 -24 27 6 30 5 33 -10 21 -9 -8 -42 -22 -74 -32 -32 -10 -66 -21 -76
-25 -13 -5 -7 11 22 55 23 35 39 65 36 68 -3 3 -20 -3 -40 -13 -19 -11 -37
-17 -40 -13 -3 3 2 22 11 42 27 57 5 65 -34 14 -52 -69 -95 -93 -163 -91 -68
2 -163 41 -204 83 -15 16 -32 50 -39 81 -8 30 -17 62 -21 72 -13 32 11 17 27
-17z m5863 -21 c72 -17 157 -19 172 -4 18 18 53 -25 53 -65 0 -34 1 -35 48
-38 46 -3 47 -4 47 -36 0 -18 7 -37 15 -42 25 -16 73 -11 108 10 17 11 32 16
32 10 0 -5 -4 -12 -10 -15 -15 -9 -12 -51 4 -64 9 -8 33 -9 71 -5 52 6 57 5
53 -12 -5 -29 -90 -56 -179 -58 -67 -1 -80 2 -115 27 -22 15 -52 27 -67 27
-23 0 -27 -4 -27 -26 l0 -27 -77 5 c-136 8 -146 -5 -43 -57 65 -33 70 -38 70
-68 l0 -32 -92 -18 c-51 -9 -104 -20 -118 -23 -23 -5 -22 -3 10 26 90 82 109
103 104 112 -10 15 -69 0 -168 -43 -274 -121 -362 -126 -636 -37 -235 76 -575
228 -634 283 -22 20 -36 55 -22 55 2 0 26 -18 52 -40 27 -22 58 -40 69 -40 12
0 30 -7 41 -15 26 -20 32 -19 36 7 2 12 8 23 14 25 6 2 43 -21 83 -52 39 -31
71 -54 71 -51 0 3 -5 28 -11 56 -16 77 -10 84 53 60 28 -11 87 -40 130 -65 43
-25 81 -45 84 -45 4 0 4 29 0 65 -4 36 -5 65 -3 65 1 0 20 -9 42 -20 63 -32
131 -21 137 22 5 36 35 33 81 -9 46 -42 99 -77 135 -88 40 -12 27 33 -28 91
-48 51 -66 89 -36 78 8 -3 34 6 59 20 39 23 55 26 140 26 85 0 99 3 114 20 21
24 55 25 138 5z m-6716 -231 c-18 -20 -46 -42 -61 -50 -25 -13 -28 -13 -28 0
0 15 95 86 114 86 6 0 -6 -16 -25 -36z m9601 -54 c0 -11 -4 -20 -10 -20 -5 0
-14 9 -20 20 -9 17 -8 20 10 20 13 0 20 -7 20 -20z m-2142 -230 c18 -11 30
-25 27 -30 -3 -6 -32 -10 -65 -10 -73 0 -79 -12 -40 -86 17 -31 30 -58 30 -60
0 -2 -13 -4 -28 -4 -15 0 -52 -16 -82 -35 -30 -19 -63 -35 -74 -35 -11 0 -27
-7 -36 -15 -10 -9 -47 -17 -96 -21 -43 -3 -95 -11 -114 -17 -19 -6 -66 -13
-104 -16 -69 -6 -69 -6 -81 -41 -17 -53 -50 -65 -128 -47 -66 15 -66 16 37 34
27 4 51 13 53 20 2 6 -15 23 -39 38 l-43 27 143 -6 c110 -5 143 -4 140 6 -6
18 -68 47 -122 57 -101 19 -82 54 24 45 70 -6 141 5 140 21 -1 14 -34 22 -187
40 -74 9 -145 20 -156 24 l-21 8 20 11 c12 6 79 25 150 42 71 16 146 37 167
45 47 19 45 19 49 -7 2 -19 10 -24 44 -26 39 -3 40 -4 36 -33 -4 -30 -4 -30
31 -24 27 5 37 3 45 -10 14 -25 43 -12 110 49 90 83 113 91 170 56z m247 -26
c-34 -28 -144 -76 -162 -72 -15 3 -13 7 10 22 27 19 143 65 162 65 6 0 1 -7
-10 -15z m-5605 -53 c0 -6 -18 -31 -40 -56 -42 -49 -52 -92 -26 -114 11 -9 28
-1 81 40 l67 51 -7 -33 c-12 -59 -15 -66 -40 -77 -33 -15 -169 -39 -295 -52
-100 -11 -108 -10 -181 14 -76 25 -172 36 -186 22 -4 -4 2 -15 15 -24 21 -16
18 -17 -73 -14 -53 2 -95 -1 -95 -6 0 -5 9 -17 20 -27 11 -10 20 -22 20 -27 0
-4 -44 -8 -98 -8 -82 0 -105 4 -142 23 -50 25 -60 42 -30 50 16 4 20 13 20 48
l0 44 31 -38 c29 -35 69 -50 69 -26 0 7 9 9 22 6 15 -4 28 1 44 18 13 14 32
25 44 25 30 0 25 22 -25 94 -25 36 -41 66 -36 66 18 0 63 -20 77 -35 21 -20
41 -19 129 9 41 13 77 20 80 16 3 -5 8 -30 11 -57 9 -63 20 -83 47 -83 30 0
138 56 158 82 19 24 39 17 39 -14 0 -12 -8 -45 -17 -74 -9 -30 -14 -57 -10
-60 11 -11 102 47 212 136 61 49 111 89 113 89 1 1 2 -3 2 -8z m150 -166 c0
-10 -10 -15 -26 -15 -22 0 -25 2 -14 15 7 8 19 15 26 15 8 0 14 -7 14 -15z
m4370 -261 c28 -14 73 -31 102 -38 l51 -11 -28 -33 c-15 -18 -26 -35 -23 -37
2 -3 22 -8 44 -13 33 -7 39 -12 36 -32 -2 -22 -1 -22 60 -15 68 9 124 8 140
-1 5 -3 6 -19 3 -35 -6 -24 -3 -29 13 -29 19 0 72 52 72 71 0 5 5 9 10 9 6 0
10 -12 10 -27 0 -43 11 -51 77 -59 78 -8 104 6 128 71 10 25 21 45 25 45 4 0
13 -20 20 -45 7 -25 15 -45 19 -45 3 0 22 22 41 47 l35 47 9 -42 c12 -57 31
-53 61 14 13 30 29 53 34 49 6 -3 7 -13 4 -21 -5 -14 2 -15 55 -9 52 6 62 5
62 -9 0 -34 -125 -102 -209 -113 -25 -3 -62 -16 -81 -28 -27 -18 -53 -24 -118
-27 -45 -3 -85 -7 -88 -11 -12 -12 7 -43 38 -62 18 -11 59 -22 92 -25 35 -3
61 -10 64 -17 10 -32 -102 -48 -483 -68 -154 -8 -298 -17 -321 -20 -32 -5 -44
-2 -58 14 -18 20 -18 21 8 31 15 5 45 13 67 16 21 4 39 9 39 13 0 3 -19 18
-43 33 -23 15 -54 39 -67 54 l-25 27 30 -7 c17 -4 80 -29 140 -56 61 -27 122
-52 136 -55 58 -14 40 40 -22 65 -16 7 -27 15 -24 18 2 3 45 8 94 12 87 8 161
32 168 56 2 7 -30 13 -94 18 -191 13 -521 71 -597 104 -43 20 -73 48 -62 59 4
4 27 2 51 -5 50 -13 115 -16 115 -5 0 4 -12 20 -27 35 l-27 28 96 0 c53 0 103
3 112 6 23 9 9 30 -35 49 -21 10 -39 22 -39 27 0 17 62 7 110 -18z m-5110
-213 c0 -36 -26 -50 -65 -35 -13 5 -11 10 12 25 31 20 53 24 53 10z m-190 -26
c-14 -16 -50 -21 -50 -6 0 11 18 19 44 20 15 1 16 -2 6 -14z m616 -6 c4 -8 26
-10 62 -6 96 10 43 -12 -114 -47 -174 -39 -207 -31 -82 21 45 18 83 35 86 38
10 9 41 5 48 -6z m7751 -215 c42 -12 12 -24 -58 -24 -98 0 -89 23 11 28 14 1
35 -1 47 -4z m478 -124 c4 -6 -5 -10 -19 -10 -14 0 -26 5 -26 10 0 6 9 10 19
10 11 0 23 -4 26 -10z m-8470 -410 c10 -11 14 -20 8 -20 -5 0 -18 9 -28 20
-10 11 -14 20 -8 20 5 0 18 -9 28 -20z m8498 -157 c18 -9 27 -18 20 -20 -12
-4 -73 23 -73 32 0 10 21 5 53 -12z m-11139 -837 c-3 -9 -10 -16 -15 -16 -14
0 -11 28 4 33 16 6 19 3 11 -17z m7212 -61 c-27 -21 -53 -20 -36 0 7 8 22 15
34 15 21 -1 21 -1 2 -15z m-6934 -192 l32 -56 17 39 c10 21 18 44 18 51 2 25
21 23 31 -2 8 -21 13 -25 24 -16 10 9 16 2 29 -29 17 -44 32 -51 40 -20 4 15
14 20 36 20 17 0 31 -2 31 -5 0 -2 -17 -16 -37 -30 -30 -20 -50 -25 -100 -25
-49 0 -63 -3 -63 -15 0 -21 -8 -19 -52 11 -29 21 -41 24 -52 15 -14 -12 -46
-5 -46 10 0 13 49 109 55 109 3 0 19 -26 37 -57z m328 28 c0 -9 -24 -21 -42
-21 -6 0 -6 6 2 15 14 16 40 20 40 6z m7017 -62 l49 -51 38 52 38 53 23 -29
c20 -26 24 -27 40 -14 11 9 20 11 22 5 2 -5 13 -25 24 -44 l21 -35 18 23 c13
18 29 25 71 28 l54 5 -30 -19 c-51 -33 -95 -43 -186 -43 -72 0 -89 -3 -89 -15
0 -20 -6 -19 -80 11 -44 18 -66 22 -73 15 -15 -15 -39 -14 -62 3 -17 12 -16
16 25 60 23 25 44 46 46 46 1 0 25 -23 51 -51z m483 22 c0 -10 -24 -21 -47
-21 -13 0 -13 3 -3 15 13 16 50 21 50 6z m-230 -926 c0 -8 -9 -15 -20 -15 -20
0 -26 11 -13 23 12 13 33 7 33 -8z m-7430 -60 c0 -8 -7 -15 -15 -15 -9 0 -12
6 -9 15 4 8 10 15 15 15 5 0 9 -7 9 -15z"/>
</g>
</svg>
