<?xml version="1.0" standalone="no"?>
<!DOCTYPE svg PUBLIC "-//W3C//DTD SVG 20010904//EN"
 "http://www.w3.org/TR/2001/REC-SVG-20010904/DTD/svg10.dtd">
<svg version="1.0" xmlns="http://www.w3.org/2000/svg"
 width="1280.000000pt" height="948.000000pt" viewBox="0 0 1280.000000 948.000000"
 preserveAspectRatio="xMidYMid meet">
<metadata>
Created by potrace 1.15, written by Peter Selinger 2001-2017
</metadata>
<g transform="translate(0.000000,948.000000) scale(0.100000,-0.100000)"
fill="#ffffff" stroke="none">
<path d="M5754 9470 c-132 -9 -175 -18 -189 -36 -5 -8 -35 -17 -65 -22 -52 -7
-55 -9 -52 -34 2 -24 -2 -28 -33 -34 -32 -6 -36 -10 -31 -29 8 -30 -4 -34
-130 -42 -117 -7 -135 -13 -113 -39 23 -29 169 -92 244 -105 l70 -13 -93 -12
c-51 -6 -98 -16 -104 -22 -18 -18 0 -42 42 -60 22 -9 40 -20 40 -25 0 -4 -129
-7 -286 -7 -158 1 -289 -2 -292 -5 -4 -3 -7 -16 -7 -28 0 -29 -60 -40 -191
-33 -56 3 -104 3 -108 -1 -3 -3 2 -15 11 -25 16 -18 16 -22 2 -46 -8 -15 -34
-38 -59 -51 -36 -20 -56 -24 -117 -23 -40 2 -73 -1 -73 -5 1 -38 66 -60 211
-72 130 -11 181 -23 213 -50 12 -10 37 -16 72 -16 58 0 91 -18 64 -35 -22 -14
-34 -13 -171 16 -188 39 -299 26 -299 -36 0 -23 19 -30 83 -31 29 0 75 -4 102
-8 l50 -7 -44 -23 c-69 -36 -118 -51 -220 -66 -51 -8 -100 -20 -108 -27 -13
-11 -12 -14 7 -30 12 -10 37 -18 55 -18 45 0 84 -16 118 -48 26 -25 36 -27
125 -30 129 -4 132 -5 198 -62 90 -79 136 -80 182 -5 15 26 38 49 53 54 50 17
159 -20 159 -54 0 -14 -14 -19 -65 -27 -15 -3 -20 -11 -20 -33 0 -29 -2 -30
-60 -37 -87 -9 -168 -43 -204 -84 -27 -30 -29 -37 -18 -55 15 -24 -2 -39 -48
-39 -16 0 -65 -7 -108 -15 -43 -8 -84 -15 -89 -15 -6 0 26 26 72 58 45 31 81
62 79 67 -2 6 -8 8 -14 6 -37 -13 -87 -11 -135 6 -66 23 -72 46 -21 80 48 32
102 45 161 37 41 -5 50 -4 50 8 0 24 -36 64 -70 78 -27 11 -36 10 -84 -15 -67
-34 -81 -31 -196 35 -143 82 -220 108 -220 76 0 -7 30 -36 66 -64 36 -27 61
-53 56 -56 -12 -7 -148 28 -362 94 -273 85 -337 95 -373 63 -29 -27 -119 -24
-154 5 -76 62 -188 82 -469 85 -112 2 -144 -1 -159 -13 -14 -11 -48 -15 -139
-16 -129 -1 -235 -23 -316 -64 -36 -18 -41 -25 -36 -45 8 -30 -16 -45 -68 -45
-34 0 -35 1 -24 21 11 17 10 22 -6 35 -22 15 -72 19 -80 5 -6 -9 30 -45 54
-54 8 -3 -23 -6 -70 -6 -47 -1 -90 -5 -95 -9 -6 -4 -16 -25 -22 -47 -19 -67
-54 -159 -63 -169 -5 -5 -39 2 -80 18 -86 31 -99 32 -151 5 -22 -11 -93 -34
-157 -51 -164 -42 -202 -66 -202 -124 0 -37 -14 -51 -55 -56 -24 -2 -31 -9
-35 -33 -7 -39 -28 -42 -140 -20 -116 22 -132 19 -143 -27 -11 -48 -36 -68
-89 -75 -53 -7 -78 -19 -78 -38 0 -18 11 -24 62 -34 l43 -7 -41 -22 c-57 -29
-94 -76 -94 -117 0 -40 17 -55 69 -62 61 -8 67 -22 43 -93 -11 -33 -17 -62
-12 -65 5 -3 32 4 62 16 36 14 67 19 95 16 40 -4 41 -4 31 19 -8 17 -8 27 1
38 29 34 81 19 81 -23 0 -29 23 -42 92 -51 35 -5 87 -14 117 -20 30 -5 56 -8
58 -6 3 2 -3 16 -13 30 -9 15 -14 29 -12 32 10 10 57 -8 108 -41 63 -40 144
-53 205 -33 33 11 40 18 37 37 -2 23 -1 24 62 17 62 -6 66 -5 81 18 9 13 34
31 56 40 39 16 89 21 89 10 0 -3 -14 -26 -32 -50 -23 -32 -29 -47 -21 -55 16
-16 62 1 169 63 107 62 179 91 205 83 20 -7 95 31 119 59 18 22 40 20 40 -4 0
-12 -15 -29 -40 -45 -34 -21 -40 -30 -40 -59 0 -39 36 -88 81 -111 15 -9 55
-15 89 -15 69 0 82 13 55 54 -22 33 -16 33 77 -5 l77 -32 31 26 c37 32 47 32
163 11 48 -9 98 -13 112 -10 13 3 39 22 58 42 l34 36 73 -32 c85 -37 165 -47
229 -28 54 16 71 39 53 69 -13 20 -12 21 29 14 37 -6 44 -4 60 16 19 26 9 29
176 -45 60 -27 105 -39 170 -46 225 -25 363 -66 593 -175 96 -45 227 -107 290
-137 63 -30 122 -63 130 -72 13 -16 12 -20 -8 -37 -58 -47 -204 -38 -328 19
-79 36 -105 43 -224 57 -148 17 -160 23 -160 82 0 43 -28 57 -150 73 -52 6
-124 23 -160 38 -79 31 -136 35 -132 9 6 -36 -37 -40 -543 -48 -525 -7 -557
-10 -682 -63 -36 -15 -98 -30 -148 -35 -96 -11 -109 -16 -100 -39 8 -20 -12
-32 -55 -32 -45 0 -64 -13 -65 -42 0 -20 -6 -24 -53 -29 -63 -8 -70 -13 -54
-39 7 -11 12 -22 12 -24 0 -2 -44 -3 -97 -3 -79 1 -107 -3 -143 -19 -54 -25
-74 -47 -67 -73 7 -28 -19 -47 -103 -76 -97 -33 -123 -51 -116 -78 6 -22 -18
-57 -39 -57 -20 0 -48 -38 -41 -56 5 -13 18 -16 71 -12 l66 4 -6 -26 c-7 -31
17 -56 82 -89 24 -12 43 -25 43 -30 0 -9 -76 -31 -109 -31 -16 0 -20 6 -18 23
2 19 -3 22 -40 25 -94 7 -117 -102 -26 -124 56 -14 247 3 324 30 140 48 324
68 344 36 10 -16 -43 -42 -120 -61 -41 -9 -79 -20 -85 -24 -7 -4 12 -21 47
-40 48 -27 58 -37 58 -59 -1 -30 0 -30 96 -15 59 9 78 8 125 -7 98 -31 268 -1
330 57 23 22 26 22 196 13 311 -16 942 2 1052 31 69 18 127 11 321 -40 159
-41 338 -105 510 -181 72 -31 240 -99 375 -151 248 -95 362 -149 431 -204 63
-50 98 -110 79 -138 -7 -12 -22 -9 -87 21 -43 20 -108 49 -144 66 -41 18 -88
51 -124 86 -64 62 -66 62 -175 70 -41 3 -118 14 -170 25 -239 49 -435 54 -504
13 -20 -12 -41 -22 -46 -22 -4 0 -31 23 -60 51 -92 90 -323 224 -488 283 -85
30 -220 37 -241 12 -18 -22 -59 -26 -158 -14 -51 5 -100 7 -109 4 -16 -6 -16
-8 0 -24 9 -10 16 -22 16 -26 0 -12 -64 -2 -159 24 -102 27 -136 24 -329 -26
-76 -19 -165 -38 -199 -41 -77 -7 -90 -20 -68 -63 9 -18 14 -34 12 -37 -3 -2
-23 5 -46 16 -22 12 -53 21 -68 21 -50 0 -143 -68 -143 -104 0 -12 -14 -47
-31 -79 -28 -53 -29 -62 -18 -89 11 -27 10 -32 -7 -45 -45 -35 -110 -57 -173
-58 l-64 -1 -56 -62 -56 -62 -132 0 c-73 0 -133 -4 -133 -8 0 -5 13 -21 30
-37 16 -16 30 -32 30 -37 0 -5 -25 -19 -56 -33 -46 -21 -55 -28 -52 -47 9 -66
254 -94 308 -35 l20 21 32 -25 c32 -23 38 -24 181 -22 81 2 147 -1 147 -5 0
-4 -5 -13 -12 -20 -17 -17 5 -58 44 -82 44 -26 121 -26 201 1 70 23 110 46
180 101 27 21 59 38 72 38 13 0 56 -16 95 -35 76 -36 105 -37 162 -9 31 16 78
19 78 5 0 -33 230 -97 404 -111 67 -6 156 -19 198 -30 94 -24 117 -25 204 -4
55 12 77 13 113 4 114 -29 332 -199 306 -239 -13 -22 -60 -12 -86 18 -21 23
-36 30 -87 36 -80 9 -155 -2 -187 -27 -31 -24 -41 -21 -160 43 -114 61 -185
79 -300 78 -97 -1 -125 5 -125 27 0 14 -85 82 -137 108 -49 24 -72 21 -84 -13
-6 -16 -18 -33 -27 -36 -9 -4 -129 -11 -267 -16 -324 -10 -495 -42 -481 -87 6
-17 -3 -18 -101 -18 -102 1 -112 -1 -178 -32 -90 -44 -149 -49 -321 -28 -142
17 -466 44 -631 53 -85 5 -92 4 -102 -16 -11 -19 -20 -21 -97 -20 -64 1 -91
-3 -111 -16 -15 -10 -53 -19 -92 -22 -88 -6 -121 -20 -136 -57 -22 -51 -64
-83 -168 -125 -201 -82 -235 -120 -127 -143 33 -6 60 -16 60 -20 0 -4 -35 -8
-77 -8 -117 0 -121 -11 -25 -59 45 -23 82 -43 82 -46 0 -2 -66 -3 -148 -2
-103 1 -154 -2 -169 -11 -52 -29 -9 -51 117 -59 94 -6 115 -13 115 -39 0 -24
48 -36 110 -28 56 7 80 17 112 47 27 24 38 18 29 -17 -4 -16 -21 -33 -44 -45
-97 -49 -78 -76 53 -76 107 0 121 -7 192 -94 49 -59 54 -87 19 -101 -32 -12
-47 -40 -35 -63 7 -12 23 -17 54 -17 34 0 47 -5 55 -20 10 -19 17 -20 69 -14
40 4 81 1 137 -12 65 -15 123 -18 329 -19 275 0 278 0 320 65 11 16 25 30 32
30 6 0 22 -27 35 -61 23 -61 82 -129 112 -129 22 0 46 29 46 54 0 42 20 46 85
20 74 -30 89 -25 143 48 46 62 79 94 89 85 3 -4 6 -23 5 -42 -2 -54 17 -65
112 -65 100 0 140 -12 186 -56 39 -36 77 -49 100 -35 12 8 13 15 3 42 -14 37
-4 64 27 74 26 8 40 -1 40 -26 0 -27 33 -37 120 -36 123 1 185 -32 141 -76
-28 -29 -95 -38 -159 -21 -62 16 -79 13 -142 -26 -103 -64 -326 -67 -350 -5
-18 47 -53 39 -244 -56 -87 -44 -145 -67 -157 -64 -24 8 -98 -25 -127 -57 -15
-17 -22 -35 -20 -54 3 -29 3 -29 -52 -29 l-55 0 3 -72 4 -72 -36 -15 c-40 -17
-43 -28 -20 -86 9 -23 14 -43 12 -46 -3 -2 -34 9 -69 26 -61 29 -129 40 -129
21 0 -5 17 -23 38 -40 47 -39 34 -51 -61 -51 -113 0 -135 -26 -68 -81 22 -17
52 -55 68 -85 15 -30 39 -58 53 -64 39 -19 308 -32 500 -26 205 7 220 9 220
42 0 14 7 27 17 31 22 9 100 -13 135 -39 25 -17 32 -18 39 -7 5 8 9 20 9 27 0
14 10 16 62 13 28 -2 40 2 44 14 10 26 45 34 103 23 31 -5 57 -6 62 -1 8 8
-16 51 -67 121 -30 41 4 23 60 -31 53 -52 59 -64 80 -160 10 -43 53 -55 223
-63 173 -8 211 -3 254 34 29 24 39 26 107 24 59 -2 84 2 114 18 46 24 73 25
119 6 54 -22 139 -34 354 -51 225 -16 376 -40 568 -89 167 -43 296 -71 417
-91 167 -28 312 -89 566 -238 239 -139 316 -203 354 -291 27 -64 67 -230 86
-359 12 -83 15 -150 11 -259 -3 -81 -8 -152 -11 -157 -7 -11 -167 78 -261 144
-100 71 -176 167 -151 192 3 3 43 -4 88 -17 96 -27 168 -40 168 -30 0 4 -23
17 -50 30 -28 13 -49 28 -47 34 1 6 22 20 45 31 41 20 58 41 25 31 -10 -2 -52
-7 -93 -10 l-75 -6 69 25 c38 14 77 32 88 41 45 42 -4 158 -85 200 -17 9 -30
26 -34 44 -7 40 -18 46 -89 53 -61 6 -112 21 -309 91 -131 46 -199 56 -385 56
-177 -1 -266 -14 -400 -60 -123 -42 -223 -46 -289 -12 -59 31 -199 46 -356 38
-148 -7 -172 -13 -314 -84 l-115 -57 -127 -3 c-141 -4 -261 10 -299 36 -37 25
-290 30 -398 8 -87 -18 -217 -20 -472 -7 -193 10 -338 0 -384 -27 -32 -19 -39
-50 -23 -98 10 -30 -7 -34 -89 -24 -103 13 -112 9 -106 -50 4 -44 1 -52 -24
-78 -22 -21 -43 -31 -81 -36 -60 -8 -67 -14 -53 -52 6 -15 7 -31 2 -36 -4 -4
-45 -3 -90 4 -111 15 -115 9 -63 -80 23 -39 41 -76 41 -83 0 -8 -16 -10 -60
-5 -71 8 -84 3 -69 -26 13 -25 79 -54 144 -63 64 -9 118 -37 145 -75 52 -73
187 -95 211 -33 9 25 10 26 84 19 82 -7 87 -3 60 44 -8 14 -14 28 -15 32 0 4
32 -8 72 -27 40 -19 83 -35 95 -35 28 0 31 25 6 52 -23 26 -5 22 55 -12 116
-67 102 -180 -23 -180 -40 0 -45 -13 -12 -34 44 -29 166 -41 442 -41 222 0
288 3 368 19 55 10 103 14 107 10 5 -5 -1 -31 -12 -57 -33 -76 -25 -78 175
-29 202 50 314 72 367 72 33 0 43 -5 66 -37 44 -59 53 -65 106 -58 41 6 47 4
53 -14 7 -23 10 -24 72 -21 26 1 55 -6 73 -17 29 -17 32 -17 78 1 26 10 65 25
87 33 29 11 61 14 117 9 43 -3 79 -2 82 3 7 10 -19 58 -56 104 -16 21 -28 40
-26 43 3 2 20 -8 39 -22 44 -33 104 -64 124 -64 19 0 19 29 0 54 -24 32 -18
36 45 35 52 -1 74 5 147 40 104 50 109 48 162 -59 47 -98 51 -99 257 -84 152
11 159 13 181 38 27 31 28 45 9 89 -16 40 -71 89 -136 122 -86 44 -75 60 40
57 106 -4 285 -35 495 -87 228 -56 338 -92 497 -162 l128 -56 -5 -36 c-3 -20
-12 -135 -20 -256 -26 -375 -53 -596 -82 -688 -10 -33 -12 -52 -5 -59 22 -22
178 -27 769 -28 l611 0 5 457 c5 490 10 557 62 758 84 331 276 642 433 702 47
18 37 19 222 -22 64 -15 93 -4 98 36 6 41 19 44 63 13 l41 -28 24 27 c28 32
58 34 99 6 101 -69 140 -76 175 -34 11 13 24 16 66 10 39 -5 66 -1 112 14 85
29 109 27 212 -20 139 -62 350 -110 350 -79 0 10 -18 28 -60 59 -22 17 -23 21
-10 36 8 10 34 26 56 37 41 18 43 17 87 -2 25 -11 83 -25 129 -31 138 -17 149
-20 154 -34 3 -7 0 -23 -6 -35 -6 -12 -10 -24 -7 -26 2 -2 29 7 61 21 71 31
98 31 160 0 27 -14 58 -25 68 -25 24 0 34 26 17 46 -11 14 -2 15 94 8 76 -5
107 -3 107 4 0 28 36 30 110 6 93 -30 134 -30 185 -1 60 34 54 55 -30 99 -75
39 -74 43 15 53 116 13 155 35 165 95 4 21 12 46 19 56 12 16 15 16 42 -5 47
-34 153 -52 350 -58 197 -6 231 0 220 40 -9 37 11 47 90 47 74 0 74 0 68 25
-7 28 3 32 103 38 35 2 66 7 70 11 4 4 -8 20 -27 36 -19 16 -32 32 -28 35 4 4
46 2 93 -5 47 -7 89 -10 92 -6 8 8 -35 42 -86 67 -27 14 -70 24 -115 27 -76 5
-96 14 -96 42 0 24 -36 46 -138 81 -48 17 -102 42 -119 55 -29 22 -39 24 -91
18 -70 -8 -164 6 -392 56 -324 72 -449 80 -832 54 -79 -5 -95 -3 -162 21 l-73
27 -49 -26 c-65 -34 -134 -46 -263 -46 -126 0 -181 12 -181 40 0 11 10 26 23
35 28 18 456 123 536 131 62 7 563 -22 626 -36 73 -16 329 -41 385 -38 70 4
72 20 8 67 -26 20 -46 37 -44 39 2 2 43 -8 92 -22 116 -34 197 -42 278 -26 90
17 226 99 226 137 0 7 -27 26 -60 43 -65 33 -74 46 -35 56 48 12 26 32 -67 63
-99 33 -158 64 -158 82 0 6 14 16 30 22 17 6 30 18 30 26 0 30 -133 131 -218
164 -68 27 -265 40 -502 34 -159 -5 -227 -10 -260 -22 -39 -14 -61 -14 -158
-5 -133 13 -169 8 -183 -26 -10 -27 -20 -25 -82 19 -44 30 -141 57 -268 73
-133 16 -188 33 -232 70 -80 67 -154 63 -117 -6 6 -12 7 -21 0 -25 -10 -6
-300 86 -300 95 0 3 44 14 98 24 225 43 661 162 1152 314 813 252 1081 325
1270 348 68 8 200 30 294 49 193 40 251 42 356 15 95 -25 127 -25 192 0 67 25
82 25 127 -2 32 -21 49 -23 161 -23 119 0 129 2 205 34 64 27 98 35 168 39 55
3 90 9 93 16 3 7 -2 28 -10 48 -8 19 -12 38 -9 42 4 3 36 3 71 0 62 -7 65 -6
57 12 -4 10 -8 30 -9 44 -1 23 3 25 58 32 32 4 61 10 64 13 3 2 -20 31 -50 64
-55 59 -75 96 -57 107 17 10 9 24 -13 24 -38 0 -49 14 -46 56 l3 39 -60 8
c-113 14 -190 38 -288 88 -130 66 -198 83 -274 70 -82 -16 -83 -15 -77 17 4
21 -1 34 -23 56 -36 37 -118 75 -182 85 -64 10 -93 30 -123 82 -35 63 -63 79
-159 91 -46 5 -101 18 -123 29 -26 14 -74 23 -150 29 -151 13 -174 18 -225 46
-53 29 -76 30 -169 4 -103 -29 -138 -26 -246 20 -101 43 -133 49 -143 25 -8
-22 -56 -45 -93 -45 -39 0 -38 9 5 43 26 21 35 36 35 58 0 40 33 69 190 173
222 147 472 276 535 276 28 -1 29 -1 11 -15 -10 -8 -61 -28 -113 -46 -52 -17
-92 -33 -90 -35 2 -2 46 -14 98 -26 78 -18 119 -21 244 -19 380 7 390 7 390
-9 0 -9 -11 -16 -30 -18 -16 -2 -37 -5 -45 -8 -13 -4 -13 -6 0 -14 31 -20 192
-1 227 26 17 13 16 16 -21 49 -22 19 -35 35 -29 35 6 0 54 -16 107 -35 53 -19
107 -35 120 -35 27 0 88 62 113 115 15 31 15 36 0 59 -10 14 -42 44 -72 67
-30 23 -55 43 -55 45 0 2 36 1 81 -3 76 -6 81 -5 78 13 -3 11 -25 29 -54 44
-45 23 -63 25 -188 27 -76 0 -141 4 -144 7 -3 2 1 27 8 55 16 63 9 73 -77 101
-35 12 -86 36 -112 54 -54 38 -102 56 -146 56 -42 1 -100 28 -175 84 -62 45
-139 76 -192 76 -14 0 -46 -7 -70 -15 -61 -22 -40 -4 96 80 137 84 253 164
328 227 32 26 70 51 84 54 16 4 64 -2 117 -15 113 -27 157 -27 232 0 74 25
149 27 194 4 48 -24 89 -64 105 -102 9 -21 23 -35 40 -39 41 -10 114 4 167 31
61 32 68 31 68 -4 0 -35 20 -53 62 -54 35 -2 36 0 23 59 -6 25 -1 37 29 73 43
51 45 75 12 163 -14 36 -21 70 -17 77 5 7 37 15 72 18 66 6 89 16 89 39 0 22
-44 44 -127 65 -94 23 -121 41 -138 94 -8 22 -32 56 -54 76 -22 20 -38 39 -34
43 3 3 31 6 60 6 69 0 143 18 143 36 0 18 -12 24 -76 34 -60 10 -94 32 -94 60
0 24 -17 36 -75 55 -28 9 -106 46 -175 83 -455 239 -449 237 -740 237 -186 0
-197 -1 -242 -24 -45 -23 -48 -23 -72 -7 -17 10 -26 26 -26 42 0 31 24 80 43
87 8 3 58 -10 113 -29 152 -51 187 -43 112 29 -23 22 -34 37 -23 32 116 -50
170 -52 146 -7 -12 23 -6 32 23 32 35 0 52 16 37 33 -17 21 -3 26 50 18 26 -4
56 -4 68 0 51 19 2 92 -84 125 -52 19 -58 34 -16 34 35 0 48 15 31 35 -16 20
-69 18 -155 -4 -73 -19 -95 -18 -95 5 0 19 -42 28 -96 19 -61 -9 -72 2 -66 64
4 44 2 51 -21 65 -21 15 -42 16 -143 10 -106 -6 -118 -6 -106 8 19 24 -3 34
-88 42 -46 5 -97 17 -130 32 -41 19 -64 23 -92 19 -28 -5 -49 -1 -82 16 -34
17 -55 20 -88 16 -30 -4 -48 -1 -59 9 -25 22 -215 35 -351 24 -62 -5 -114 -10
-115 -10 -1 0 -10 -9 -20 -19 -14 -14 -36 -20 -96 -23 -68 -3 -80 -6 -102 -30
-17 -19 -39 -29 -72 -33 -84 -11 -95 -15 -91 -33 3 -16 62 -40 140 -56 40 -9
83 -49 75 -71 -7 -16 -9 -15 -31 8 -31 34 -118 51 -214 43 -133 -12 -362 -81
-348 -105 9 -15 -21 -21 -99 -21 -92 0 -129 12 -120 40 9 28 -20 37 -146 45
-128 8 -232 29 -262 51 -21 16 -21 16 23 10 25 -3 60 -8 79 -12 26 -6 33 -4
29 7 -9 27 -69 52 -139 57 -38 2 -69 7 -69 11 0 3 20 14 45 24 25 11 45 23 45
28 0 5 -41 21 -90 36 -90 27 -102 39 -45 45 18 2 30 9 30 17 0 26 -58 50 -159
66 -105 17 -138 30 -197 76 -45 35 -61 36 -103 4 -18 -14 -36 -25 -40 -25 -3
0 -22 25 -41 55 -38 59 -64 78 -98 73 -23 -3 -25 -13 -12 -62 l8 -29 -61 5
c-66 5 -102 26 -102 60 0 10 -6 21 -14 24 -7 3 -73 -9 -146 -26 -73 -17 -139
-29 -146 -26 -10 4 -14 25 -14 75 0 87 -21 117 -95 136 -57 14 -79 10 -69 -14
17 -43 16 -50 -12 -57 -30 -8 -157 5 -358 36 -72 11 -132 18 -134 15 -2 -2 16
-14 40 -27 l43 -23 -83 -3 c-102 -3 -119 6 -96 50 19 37 6 51 -41 44 -85 -13
-145 -17 -145 -10 1 5 19 21 40 36 45 31 51 52 18 63 -33 11 -414 14 -544 5z
m1984 -452 c30 -30 -8 -64 -59 -53 -35 8 -47 29 -29 50 15 18 71 20 88 3z
m319 -68 c51 -29 123 -95 123 -112 0 -18 -57 -7 -95 18 -48 32 -103 82 -116
107 -15 28 28 22 88 -13z m-2960 -21 c43 -6 82 -15 86 -19 5 -4 -8 -13 -29
-20 -45 -15 -141 -7 -184 15 -67 35 -16 44 127 24z m2841 -25 c30 -19 25 -46
-11 -58 -22 -8 -32 -6 -55 11 -71 53 -11 96 66 47z m-3293 -64 c4 -6 -18 -10
-59 -10 -37 0 -66 4 -66 10 0 6 26 10 59 10 33 0 63 -4 66 -10z m3873 -242
c14 -14 16 -74 4 -82 -5 -3 -25 6 -45 20 -34 23 -47 51 -30 67 11 11 58 8 71
-5z m-560 -208 c122 -47 135 -49 126 -16 -10 40 22 48 203 54 161 5 195 -2
134 -25 -19 -7 -35 -23 -44 -46 -11 -26 -28 -41 -68 -60 -102 -49 -134 -47
-310 27 -47 19 -116 40 -154 45 -78 11 -106 30 -85 57 20 23 72 14 198 -36z
m-3480 -34 c3 -14 -2 -17 -34 -14 -44 4 -65 28 -45 52 13 15 16 15 45 -2 17
-10 32 -26 34 -36z m872 -71 c19 -23 -3 -43 -55 -50 -41 -7 -85 6 -85 24 0 14
63 41 96 41 17 0 37 -7 44 -15z m3035 -82 c50 -25 70 -30 179 -42 61 -7 101
-18 130 -34 57 -34 104 -43 112 -23 3 9 1 23 -6 31 -7 9 -10 18 -6 22 3 4 70
-5 149 -20 78 -15 145 -27 149 -27 4 0 16 9 27 21 l20 21 95 -23 95 -23 46 23
c35 18 54 21 89 16 38 -6 46 -4 55 14 20 36 123 21 160 -23 13 -15 13 -19 0
-27 -8 -5 -21 -6 -29 -3 -43 16 -112 16 -155 -1 -57 -21 -77 -50 -69 -95 6
-25 3 -36 -10 -46 -15 -10 -29 -8 -84 13 -63 24 -75 25 -207 20 -154 -6 -266
-26 -335 -60 -36 -18 -45 -27 -42 -46 l2 -23 -90 7 -89 7 -28 -29 c-16 -16
-40 -45 -55 -65 -16 -22 -38 -38 -57 -41 -38 -8 -39 -21 -6 -43 21 -14 41 -16
103 -11 l77 5 -60 -28 c-70 -34 -179 -54 -242 -44 -29 4 -58 18 -84 40 -23 19
-42 34 -42 34 -77 4 -180 25 -223 45 -33 16 -92 31 -147 39 -89 12 -91 13 -47
19 48 8 110 40 110 57 0 5 25 10 55 10 32 0 69 7 87 16 25 13 47 15 111 9 l80
-7 -7 24 c-19 58 -16 62 46 59 96 -4 288 60 288 95 0 19 -41 44 -70 44 -48 0
-133 32 -162 60 -18 18 -28 39 -28 58 0 41 9 45 44 18 17 -13 49 -32 71 -43z
m1750 3 c14 -21 14 -28 2 -59 -29 -68 -127 -110 -194 -82 -47 20 -73 43 -73
66 0 20 11 23 92 34 37 5 52 12 68 36 28 38 82 41 105 5z m510 4 c26 -28 83
-42 125 -30 51 15 57 12 32 -12 -20 -20 -33 -23 -106 -23 -65 0 -86 -4 -100
-17 -23 -24 -114 -25 -123 -3 -10 26 27 56 67 55 54 -3 57 -2 64 25 8 30 17
31 41 5z m-264 -20 c26 -14 24 -36 -6 -66 -45 -45 -140 -16 -109 34 23 36 78
51 115 32z m-2980 -280 c54 -26 97 -40 123 -40 68 0 117 -73 67 -100 -28 -14
-43 -13 -105 10 -75 29 -176 122 -176 165 0 9 5 7 91 -35z m-193 -56 c84 -17
135 -41 140 -66 5 -23 -61 -31 -213 -26 -105 3 -129 7 -152 24 -36 27 -38 39
-14 63 17 17 34 21 91 21 39 0 106 -7 148 -16z m-462 -69 c19 -15 19 -15 -3
-34 -26 -22 -180 -54 -238 -49 -35 3 -40 6 -40 28 0 24 3 25 75 31 41 3 91 13
110 22 44 20 71 21 96 2z m-1295 -33 c-20 -38 -13 -72 23 -108 55 -55 116 -40
88 22 -17 36 10 32 104 -18 146 -76 251 -155 267 -200 9 -24 -29 -48 -75 -48
-53 0 -84 -15 -100 -47 -13 -27 -16 -28 -98 -31 -109 -3 -130 -8 -130 -31 0
-34 -24 -42 -114 -40 -47 2 -88 0 -92 -3 -13 -14 20 -51 61 -69 24 -11 77 -23
117 -27 l73 -8 -55 -13 c-61 -15 -101 -33 -118 -53 -15 -18 3 -99 25 -115 35
-27 102 -8 74 20 -16 16 -14 24 10 30 34 9 126 -12 237 -54 56 -21 117 -39
134 -39 l32 0 -42 43 c-23 23 -42 50 -42 58 0 8 17 25 39 37 46 26 58 28 41 7
-28 -34 58 -104 130 -105 19 0 58 10 87 22 42 17 56 19 66 9 15 -15 23 -329 9
-343 -7 -7 -63 16 -164 66 -147 74 -168 81 -315 106 -1 0 -13 12 -26 26 -27
29 -93 43 -123 26 -10 -6 -19 -21 -19 -34 0 -21 -4 -23 -59 -23 -48 1 -61 4
-77 23 -20 25 -66 42 -113 42 -49 0 -116 40 -197 118 -93 88 -152 164 -169
215 -10 33 -9 43 10 82 12 24 36 56 53 71 l31 26 128 -7 128 -7 0 41 c0 47 18
61 75 61 47 0 51 13 36 124 -13 103 -4 152 33 166 27 10 30 6 17 -18z m791
-76 c-3 -25 -103 -261 -117 -275 -11 -10 -135 174 -135 200 0 25 39 49 135 81
100 35 121 34 117 -6z m3328 -135 c11 -22 -2 -71 -20 -71 -21 0 -60 33 -60 51
0 37 62 52 80 20z m761 9 c25 -14 24 -51 -1 -83 -39 -50 -161 -88 -173 -54
-13 36 92 146 141 147 7 0 22 -5 33 -10z m-1051 -81 c24 -24 30 -39 28 -63 -3
-29 -5 -31 -50 -34 -50 -3 -93 14 -158 63 l-35 26 52 -7 c50 -6 53 -5 63 20
14 38 59 36 100 -5z m653 0 c69 -10 87 -22 87 -58 0 -76 -151 -461 -180 -461
-20 0 -90 276 -90 354 0 39 21 52 97 61 29 4 56 11 59 17 10 16 -24 45 -82 70
-93 40 -68 44 109 17z m-5346 -21 c17 -18 53 -65 80 -103 27 -39 75 -104 107
-145 62 -80 91 -128 82 -138 -11 -10 -89 20 -201 75 -143 72 -189 104 -209
148 -16 33 -16 40 -2 89 32 108 84 135 143 74z m264 -5 c15 -9 31 -23 34 -31
11 -29 -62 -111 -85 -97 -14 9 -12 119 2 133 15 15 14 15 49 -5z m4707 -26
c18 -14 15 -51 -6 -71 -18 -15 -21 -15 -45 5 -31 23 -36 63 -10 77 17 10 39 6
61 -11z m-5301 -7 c35 -21 57 -55 47 -71 -11 -19 -74 -2 -131 36 -29 19 -53
40 -53 45 0 18 103 11 137 -10z m-1343 -31 c34 -26 34 -49 0 -49 -63 0 -93 62
-33 69 4 1 18 -8 33 -20z m1076 -1 c49 -25 69 -55 29 -43 -68 21 -129 47 -129
56 0 17 55 9 100 -13z m6375 -58 c33 -64 107 -79 121 -24 8 32 56 54 118 54
63 0 79 -18 61 -69 -20 -59 -43 -101 -88 -161 -105 -141 -208 -240 -251 -240
-12 0 -68 23 -125 50 -57 28 -106 48 -108 46 -3 -2 3 -18 12 -36 18 -35 8 -60
-24 -60 -63 0 -53 138 20 282 40 79 82 124 148 158 73 38 96 38 116 0z m-926
-31 c112 -39 174 -100 191 -189 12 -64 46 -141 101 -228 27 -43 37 -68 31 -74
-12 -12 -79 2 -186 39 -107 36 -268 26 -331 -20 -27 -20 -40 -22 -140 -19
-106 3 -113 2 -167 -26 -79 -42 -103 -45 -204 -28 -49 9 -132 15 -184 14 -86
-2 -105 2 -205 36 -148 51 -305 63 -305 22 0 -23 -45 -27 -127 -10 -48 10
-152 18 -270 21 -106 3 -193 9 -193 13 0 30 163 53 281 39 219 -24 228 -24
312 10 59 23 94 31 142 31 54 0 66 3 79 21 13 19 24 21 90 20 67 -1 75 1 81
19 7 21 12 23 61 20 33 -1 71 34 106 98 19 35 68 65 87 53 10 -6 10 -14 2 -28
-5 -11 -7 -23 -4 -27 3 -3 43 -6 89 -6 72 0 89 -4 139 -30 71 -38 104 -38 227
0 54 16 123 34 155 39 74 14 93 32 93 89 0 38 -5 50 -40 84 -22 22 -40 42 -40
45 0 7 73 -9 129 -28z m1714 -21 c-4 -118 -94 -227 -255 -308 -167 -84 -248
-99 -263 -49 -15 45 165 333 227 365 33 17 194 43 253 41 l40 -2 -2 -47z
m-3849 -304 c19 -18 19 -18 6 -66 -12 -43 -61 -88 -97 -88 -14 0 -37 13 -54
30 -26 25 -30 36 -27 72 2 34 8 45 28 55 36 18 125 17 144 -3z m-299 -34 c8
-13 -12 -45 -56 -87 -41 -41 -49 -41 -49 -2 0 40 14 65 48 83 32 18 49 20 57
6z m-373 -45 c27 -18 50 -25 87 -25 47 0 51 -2 57 -27 15 -58 -46 -108 -145
-120 -63 -7 -132 16 -151 52 -29 53 28 145 89 145 15 0 43 -11 63 -25z m-493
-279 c74 -31 74 -31 37 -34 -43 -4 -104 23 -156 68 l-35 30 40 -16 c22 -9 73
-30 114 -48z m-4341 -92 c24 -17 29 -53 10 -72 -40 -40 -153 31 -117 74 15 19
79 18 107 -2z m3803 -11 c70 -36 72 -59 6 -92 -52 -25 -137 -40 -137 -24 0 17
24 32 66 41 l39 8 -37 34 c-70 62 -33 81 63 33z m-1074 -202 c17 -24 23 -48
23 -85 0 -49 -13 -122 -23 -133 -3 -2 -71 39 -152 92 -81 53 -144 99 -141 102
3 4 44 1 91 -6 115 -18 120 -15 95 49 -11 28 -20 55 -20 61 0 20 105 -46 127
-80z m624 69 c91 -25 122 -115 39 -112 -56 1 -153 82 -135 112 8 13 49 13 96
0z m-1442 -36 c30 -18 56 -52 46 -62 -12 -12 -57 14 -77 46 -22 36 -12 41 31
16z m1075 -19 c41 -14 84 -25 96 -25 11 0 35 -7 52 -16 41 -21 129 -104 122
-115 -3 -5 -25 -9 -50 -9 -25 0 -53 -4 -63 -10 -17 -9 -17 -12 5 -57 30 -62
49 -135 41 -158 -9 -23 -47 -16 -139 27 -117 53 -184 153 -195 287 -9 109 6
118 131 76z m-712 -63 c26 -14 55 -33 64 -43 16 -18 16 -19 0 -19 -20 0 -129
45 -162 67 -13 8 -21 19 -19 24 9 13 65 -1 117 -29z m-579 3 c46 -32 49 -55 5
-55 -36 0 -78 33 -78 62 0 25 28 23 73 -7z m-574 -36 c128 -30 196 -69 119
-69 -67 0 -288 73 -288 95 0 8 59 -1 169 -26z m7491 -99 c112 -31 108 -31 141
1 29 29 69 39 69 18 0 -14 -91 -102 -143 -138 -159 -109 -250 -137 -361 -111
-48 11 -56 22 -56 82 0 62 26 83 125 99 87 14 116 29 97 51 -26 32 7 31 128
-2z m-739 -50 c25 -14 24 -36 -1 -50 -50 -27 -117 15 -76 46 23 17 50 18 77 4z
m-4070 -166 c61 -46 75 -49 266 -49 165 0 184 -2 200 -19 18 -18 16 -18 -47
-12 -83 8 -131 -6 -181 -51 -128 -116 -21 -247 213 -261 68 -4 98 -1 133 12
24 10 49 15 55 11 15 -9 12 -55 -11 -168 -44 -210 -74 -249 -166 -211 -57 24
-108 83 -100 116 4 13 27 38 52 56 25 17 45 38 45 47 0 8 -17 25 -37 38 -39
25 -163 77 -182 77 -16 0 -13 -26 4 -40 19 -16 19 -30 1 -30 -52 0 -268 286
-322 426 -16 42 -16 45 1 64 24 26 34 25 76 -6z m-317 -47 c21 -16 18 -50 -5
-55 -22 -4 -74 41 -65 56 10 16 48 15 70 -1z m1610 -287 c21 -5 48 -18 59 -29
l21 -20 -45 -43 c-25 -24 -59 -56 -77 -71 -39 -35 -40 -56 -6 -97 54 -64 122
-77 173 -34 25 21 38 25 65 20 44 -8 111 -57 131 -95 13 -27 13 -31 0 -45 -39
-38 -251 -42 -354 -7 -68 24 -102 22 -134 -7 -39 -35 -55 32 -56 228 -1 127 8
187 31 202 17 10 144 10 192 -2z m2197 -21 c11 -6 30 -20 41 -31 19 -19 29
-20 118 -15 105 6 140 2 140 -18 0 -15 -82 -49 -158 -66 -134 -30 -227 -41
-435 -49 -200 -7 -231 -11 -249 -27 -16 -15 -37 -18 -112 -18 -102 1 -154 17
-123 40 9 7 44 15 77 18 65 7 94 19 123 48 24 25 77 24 205 -2 128 -26 166
-23 170 11 6 42 17 44 89 15 71 -27 123 -30 131 -7 2 7 -15 29 -37 50 -23 21
-41 43 -41 50 0 15 34 16 61 1z m689 -110 c0 -41 -66 -87 -100 -69 -27 15 -25
35 6 59 28 22 94 29 94 10z m-1864 -50 c33 -36 70 -49 146 -49 l73 -1 -38 -34
c-54 -47 -259 -185 -276 -185 -8 0 -11 6 -6 18 27 71 45 136 51 192 9 90 16
97 50 59z m-5941 -53 c55 -23 43 -36 -35 -36 -77 0 -90 12 -37 35 40 18 32 18
72 1z m5727 -22 c29 -15 30 -18 26 -63 -5 -51 -44 -146 -72 -174 -26 -25 -82
-21 -151 11 -109 52 -161 112 -148 172 3 18 12 34 19 37 7 2 55 -7 107 -21
115 -31 152 -34 144 -8 -21 65 -21 62 12 62 18 0 46 -7 63 -16z m4106 -44 c12
0 22 -4 22 -10 0 -6 -28 -10 -65 -10 -36 0 -65 4 -65 9 0 12 38 20 65 15 11
-2 30 -4 43 -4z m-6089 -19 c20 -11 43 -27 51 -36 12 -14 10 -19 -15 -39 -27
-22 -28 -26 -17 -50 22 -48 21 -49 -118 -41 -115 6 -130 5 -124 -8 8 -21 -12
-30 -131 -61 -119 -31 -318 -127 -388 -187 -42 -37 -48 -46 -43 -70 6 -33 12
-31 -131 -50 -50 -6 -99 -9 -107 -6 -37 14 -5 110 74 227 81 119 180 210 228
210 42 0 56 13 43 39 -15 27 -9 26 64 -4 73 -30 98 -31 139 -5 82 50 267 67
328 30 41 -25 96 -27 105 -4 3 10 1 30 -4 45 -13 34 -6 36 46 10z m2557 4 c9
-21 -10 -41 -89 -93 -39 -25 -79 -61 -93 -83 -17 -28 -31 -39 -48 -39 -38 0
-58 -25 -44 -56 9 -20 9 -28 -4 -40 -13 -14 -22 -14 -51 -5 -57 19 -63 34 -34
84 28 47 127 144 194 190 74 51 158 72 169 42z m-3528 -150 c3 -34 -30 -95
-52 -95 -31 0 -25 101 7 122 23 15 42 3 45 -27z m-286 -33 c34 -31 42 -78 18
-106 -33 -41 -90 13 -90 85 0 59 22 65 72 21z m6833 -475 l26 -22 -23 -21
c-41 -38 -206 -82 -215 -57 -6 16 54 81 96 103 48 26 84 25 116 -3z m780 -7
c7 -21 -10 -60 -25 -60 -12 0 -24 46 -16 65 8 21 34 19 41 -5z m-1365 -33 c0
-31 -31 -59 -105 -95 -72 -35 -194 -76 -202 -68 -20 20 101 103 177 120 41 10
73 24 89 41 32 31 41 32 41 2z m-725 -107 c39 -5 115 -10 170 -10 l100 -1 -30
-25 c-49 -40 -123 -79 -245 -127 -122 -48 -560 -190 -567 -183 -2 2 18 19 44
38 26 19 89 64 139 100 146 106 160 111 303 118 83 3 126 9 128 17 7 21 -40
36 -127 42 -80 6 -85 7 -88 30 -4 27 -6 27 173 1z m-465 -130 c0 -41 -362
-252 -540 -314 -135 -47 -430 -85 -430 -55 0 21 41 68 87 98 52 35 68 38 89
16 30 -30 133 -9 148 30 3 8 3 34 0 58 -7 49 14 83 77 123 51 32 79 30 115 -7
37 -40 75 -59 115 -59 28 0 31 2 25 23 -17 53 -19 52 106 52 104 0 119 2 145
22 29 23 63 30 63 13z m-8803 -151 c57 -33 83 -33 83 1 0 30 37 26 100 -12 67
-42 82 -64 56 -84 -46 -34 -170 -9 -264 53 -102 68 -81 103 25 42z m3137 25
c20 -8 21 -53 1 -81 -8 -12 -31 -31 -50 -43 -47 -29 -44 -40 10 -40 25 0 45
-3 45 -6 0 -4 -18 -26 -40 -50 -22 -24 -40 -48 -40 -54 0 -6 11 -22 25 -35 18
-19 35 -25 65 -25 41 0 41 0 35 30 -6 29 -5 30 29 30 25 0 39 -6 51 -22 14
-21 23 -23 98 -22 91 2 194 25 246 55 40 24 61 19 61 -14 0 -72 67 -76 117 -7
58 81 57 80 100 67 50 -16 123 -86 123 -119 0 -57 -65 -77 -255 -78 -148 0
-165 -6 -210 -67 -38 -53 -99 -84 -179 -90 -93 -8 -155 14 -257 91 -150 113
-232 224 -215 290 10 40 55 85 96 96 26 7 41 18 45 33 18 59 51 79 99 61z
m3956 -147 l85 -42 125 0 c117 0 129 2 183 29 32 15 61 26 64 23 12 -13 -129
-250 -185 -309 -30 -32 -61 -35 -99 -11 -81 53 -313 -22 -343 -111 -6 -20 -17
-36 -24 -36 -6 0 -39 10 -71 21 -66 24 -172 28 -218 10 -15 -6 -47 -31 -69
-56 -23 -25 -55 -49 -72 -53 -24 -7 -31 -14 -30 -33 1 -13 -4 -27 -10 -31 -19
-13 -91 -9 -112 6 -18 14 -16 20 61 172 142 278 230 429 251 432 11 1 51 -18
89 -42 77 -50 99 -55 128 -28 14 12 38 17 91 18 94 1 96 2 96 19 0 17 -56 55
-82 55 -10 0 -18 5 -18 11 0 20 71 0 160 -44z m-1765 -18 c31 -19 46 -21 102
-16 74 7 70 16 39 -93 -9 -30 -20 -106 -26 -169 -11 -136 -23 -161 -78 -161
-39 0 -90 24 -207 96 -119 73 -159 87 -257 89 -82 1 -89 3 -140 38 -29 20 -59
37 -65 37 -7 0 -33 -11 -59 -25 -95 -51 -295 -26 -366 46 -29 28 -36 63 -17
74 5 4 27 -4 47 -17 97 -64 89 -61 88 -36 -1 23 1 23 119 22 91 -1 177 -12
357 -43 130 -22 259 -41 287 -41 47 0 51 2 57 28 11 52 13 54 51 50 37 -3 38
-2 37 32 0 19 -4 52 -8 73 -5 20 -6 37 -3 37 3 0 22 -10 42 -21z m860 -29 c49
-11 92 -23 96 -28 11 -10 -54 -134 -155 -298 -129 -211 -116 -218 -113 69 3
310 -7 296 172 257z m-5521 -66 c22 -21 25 -29 14 -35 -37 -24 -95 3 -84 39
10 29 35 28 70 -4z m1950 -44 c84 -43 159 -37 114 8 -24 24 6 11 48 -20 24
-18 51 -48 60 -67 15 -30 15 -37 1 -70 -9 -20 -19 -46 -22 -58 -7 -25 -12 -26
-108 -23 -32 1 -65 -4 -72 -10 -42 -35 -295 77 -295 130 0 24 52 40 130 40
100 0 121 19 84 75 -21 32 -12 31 60 -5z m344 -183 c26 -24 29 -47 6 -47 -20
0 -74 54 -74 75 0 13 4 14 23 4 12 -6 32 -21 45 -32z m4532 -538 c0 -75 -20
-130 -62 -168 -22 -20 -64 -60 -94 -88 -29 -29 -58 -53 -62 -53 -5 0 -21 9
-36 21 -39 30 -36 84 7 141 29 37 219 186 240 188 4 0 7 -18 7 -41z m224 22
c9 -10 19 -35 23 -54 5 -32 3 -37 -20 -42 -37 -10 -86 20 -87 51 0 17 40 64
54 64 7 0 21 -8 30 -19z m-2736 -41 c42 -16 92 -43 110 -60 29 -26 41 -30 91
-30 31 0 62 5 68 11 6 6 9 27 6 48 -7 53 15 70 58 45 18 -11 40 -30 51 -45 43
-57 46 -258 7 -385 -14 -47 -29 -70 -55 -92 -33 -27 -35 -32 -32 -83 3 -52 2
-54 -26 -59 -67 -12 -57 -78 18 -110 29 -12 51 -30 60 -49 20 -38 21 -124 2
-140 -21 -17 -66 25 -105 98 -50 94 -156 250 -298 439 -144 191 -203 293 -186
320 17 28 83 26 152 -3 34 -14 66 -23 71 -20 27 17 -6 85 -57 120 -49 33 -30
32 65 -5z m1835 11 c43 -5 80 -11 84 -14 22 -23 -79 -152 -146 -186 -20 -11
-72 -21 -119 -25 -125 -11 -186 -30 -306 -98 -124 -69 -144 -70 -180 -8 -31
52 -29 184 5 265 35 86 38 87 339 80 135 -3 280 -10 323 -14z m-2478 -144 c95
-49 255 -216 331 -347 68 -116 82 -150 63 -150 -7 0 -63 25 -124 56 -248 127
-405 231 -405 269 0 8 26 28 58 44 92 47 93 51 17 106 -101 71 -63 85 60 22z
m4309 -17 c-15 -15 -199 -60 -273 -67 -131 -13 -26 35 138 62 97 17 148 18
135 5z m-5088 -51 c28 -31 71 -51 107 -49 57 3 65 1 104 -37 31 -30 54 -42
111 -55 73 -17 254 -96 266 -117 12 -18 -28 -13 -217 29 -326 72 -402 103
-391 160 5 25 3 30 -19 35 -32 8 -65 -9 -77 -40 -6 -17 -14 -23 -25 -19 -27
11 -12 46 33 81 50 38 81 42 108 12z m4129 5 c51 -11 94 -13 128 -9 89 13 305
11 318 -2 10 -10 6 -15 -17 -23 -108 -42 -286 -60 -389 -41 -64 12 -166 58
-173 79 -5 17 39 16 133 -4z m-4645 -79 c32 -12 62 -15 102 -11 35 3 68 1 83
-6 59 -27 8 -43 -109 -35 -125 9 -196 36 -183 70 6 17 18 15 107 -18z m4159
-508 c33 -24 46 -40 46 -58 0 -28 -25 -36 -122 -38 -86 -1 -108 -14 -145 -84
-18 -32 -46 -70 -63 -83 -32 -24 -104 -58 -111 -52 -2 2 8 26 21 53 14 28 29
82 34 120 12 87 31 106 129 130 39 9 79 25 89 36 24 25 63 18 122 -24z m-867
-38 c68 -15 145 -53 152 -77 4 -10 -5 -45 -20 -78 -32 -74 -79 -197 -200 -529
-52 -143 -99 -264 -104 -269 -19 -19 -23 57 -17 343 6 288 17 442 38 548 9 47
14 54 42 62 44 13 49 13 109 0z m-1835 -770 c45 -17 133 -112 133 -144 0 -3
-19 -5 -43 -5 -51 0 -165 30 -244 65 -61 27 -126 82 -116 98 6 11 236 -1 270
-14z m-3148 -65 c31 -25 41 -54 20 -54 -22 0 -49 22 -64 50 -13 26 -13 30 -1
30 8 0 28 -12 45 -26z"/>
<path d="M9236 7065 c-8 -21 21 -45 54 -45 39 0 45 14 18 39 -25 24 -63 27
-72 6z"/>
<path d="M7762 3979 c-42 -13 -51 -35 -23 -62 42 -43 161 -20 161 30 0 15 -59
44 -87 42 -10 0 -33 -5 -51 -10z"/>
<path d="M5051 9162 c-19 -13 -5 -31 35 -48 44 -18 69 -18 89 2 15 15 15 19 1
32 -17 17 -105 27 -125 14z"/>
<path d="M4119 8634 c-29 -35 34 -69 81 -44 24 13 25 23 4 44 -20 21 -68 20
-85 0z"/>
<path d="M994 7908 c-9 -15 43 -60 65 -56 23 5 26 39 5 55 -22 16 -60 17 -70
1z"/>
<path d="M11867 7133 c-24 -23 10 -83 47 -83 26 0 56 19 56 35 0 32 -82 70
-103 48z"/>
<path d="M11255 5961 c-8 -13 35 -41 63 -41 30 0 84 28 77 40 -8 13 -132 13
-140 1z"/>
<path d="M2075 5060 c-10 -16 2 -27 50 -45 47 -18 75 -15 75 9 0 29 -109 61
-125 36z"/>
<path d="M1610 3735 c-17 -20 -6 -43 25 -51 32 -8 75 10 75 30 0 33 -77 49
-100 21z"/>
<path d="M1213 2913 c-17 -6 -16 -38 1 -52 20 -16 71 -10 71 8 0 18 -55 51
-72 44z"/>
<path d="M1090 1333 c0 -10 4 -23 8 -29 8 -14 113 -84 124 -84 24 0 -14 90
-50 118 -9 6 -31 12 -49 12 -25 0 -33 -4 -33 -17z"/>
</g>
</svg>
