<?xml version="1.0" standalone="no"?>
<!DOCTYPE svg PUBLIC "-//W3C//DTD SVG 20010904//EN"
 "http://www.w3.org/TR/2001/REC-SVG-20010904/DTD/svg10.dtd">
<svg version="1.0" xmlns="http://www.w3.org/2000/svg"
 width="1280.000000pt" height="846.000000pt" viewBox="0 0 1280.000000 846.000000"
 preserveAspectRatio="xMidYMid meet">
<metadata>
Created by potrace 1.15, written by Peter Selinger 2001-2017
</metadata>
<g transform="translate(0.000000,846.000000) scale(0.100000,-0.100000)"
fill="#508c70" stroke="none">
<path d="M3656 8331 l-39 -40 -36 20 c-43 23 -91 24 -131 4 -40 -21 -610 -795
-623 -847 -8 -32 -6 -45 14 -86 l24 -49 -29 -49 c-329 -559 -488 -1112 -536
-1859 -9 -142 -5 -825 5 -945 4 -53 3 -61 -6 -43 -11 21 -13 21 -51 -25 -118
-141 -188 -394 -223 -807 -14 -161 -14 -186 0 -230 17 -58 18 -68 6 -60 -5 3
-13 20 -16 38 -23 105 -152 474 -251 714 -50 122 -56 144 -66 251 -6 66 -8
225 -6 365 l5 248 38 39 c37 38 42 40 102 40 89 0 130 24 239 137 72 74 103
99 150 119 l59 25 -44 -7 -45 -6 34 43 35 44 -42 -37 c-64 -57 -81 -65 -192
-93 -162 -41 -234 -86 -248 -157 -5 -25 -73 -91 -73 -70 0 9 9 62 36 207 21
116 55 170 113 180 88 15 155 81 245 240 35 62 58 89 100 119 61 44 68 61 11
28 -40 -24 -40 -24 -20 25 22 52 19 52 -14 2 -47 -69 -50 -72 -160 -135 -57
-32 -126 -80 -153 -106 -26 -26 -48 -46 -48 -44 0 7 71 200 95 256 91 217 285
567 464 835 119 178 135 207 49 90 -313 -425 -574 -930 -686 -1326 -80 -280
-101 -423 -111 -729 l-6 -205 -27 85 c-61 193 -63 209 -23 223 5 2 -7 22 -27
46 -37 43 -48 76 -48 141 0 21 -7 57 -16 81 -22 64 -52 278 -64 474 l-11 170
27 57 c23 48 32 57 59 62 43 8 108 56 144 107 16 22 50 90 76 152 41 98 54
119 106 170 65 62 68 70 12 32 -20 -13 -39 -23 -41 -20 -2 2 1 18 7 36 20 57
12 52 -22 -13 -27 -53 -46 -73 -119 -128 -164 -122 -218 -190 -218 -273 0 -24
-7 -52 -15 -63 -14 -17 -15 -15 -10 31 2 28 7 91 10 140 9 142 49 380 85 515
7 25 31 59 73 100 l62 63 -54 -46 c-30 -26 -56 -45 -58 -43 -2 2 14 53 35 114
21 62 35 112 32 112 -18 0 -154 -443 -190 -620 -17 -82 -18 -84 -30 -58 -10
22 -11 36 -2 67 29 93 6 174 -88 321 -60 93 -80 141 -80 192 0 14 -3 35 -8 45
-5 13 -8 3 -12 -31 l-5 -50 -29 42 c-16 23 -30 41 -32 39 -2 -2 12 -33 31 -69
34 -63 36 -72 41 -195 9 -195 43 -299 105 -318 14 -5 32 -31 51 -72 29 -64 29
-67 19 -152 -20 -169 -23 -309 -12 -496 7 -104 14 -199 17 -210 9 -31 -144
124 -168 170 -12 22 -29 62 -39 90 -18 53 -25 36 -10 -27 5 -21 7 -38 4 -38
-2 0 -25 17 -51 38 l-46 37 52 -63 c67 -81 64 -74 106 -235 51 -193 89 -263
167 -302 19 -10 35 -18 37 -20 1 -1 22 -80 46 -176 59 -235 136 -485 241 -784
4 -11 -17 21 -47 71 -153 254 -302 416 -453 491 -33 17 -70 34 -83 38 -22 6
-23 6 -16 -47 23 -192 153 -404 401 -656 109 -111 193 -172 235 -172 7 0 31
-21 54 -48 36 -41 45 -65 82 -197 73 -262 133 -537 177 -808 21 -133 21 -138
3 -119 -15 14 -21 41 -27 119 -7 91 -11 105 -46 163 -176 291 -825 861 -1081
951 l-56 20 -101 -57 c-187 -104 -347 -224 -347 -260 0 -33 260 -21 458 21 40
8 75 15 77 15 3 0 17 -24 31 -52 153 -303 508 -769 687 -904 70 -52 99 -65
182 -83 155 -33 157 -34 219 -124 54 -79 56 -85 62 -162 5 -70 1 -101 -34
-255 -59 -256 -85 -360 -92 -360 -3 0 -16 42 -29 93 -54 212 -199 552 -286
670 -64 86 -71 53 -24 -123 121 -458 169 -700 199 -1011 8 -83 8 -113 -3 -144
-13 -38 -14 -34 -26 106 -32 394 -112 765 -232 1085 -104 278 -246 534 -295
534 -18 0 -14 -26 28 -185 108 -416 205 -851 195 -879 -3 -6 -10 9 -16 34 -69
259 -239 638 -333 746 -71 81 -67 41 36 -346 60 -223 102 -418 140 -650 25
-151 56 -484 55 -595 l0 -80 -23 80 c-76 263 -221 503 -396 653 -92 78 -150
113 -259 152 -69 25 -95 41 -140 85 -69 67 -152 129 -211 160 -47 23 -164 67
-212 79 -54 13 -29 -24 60 -87 48 -34 134 -109 192 -167 204 -202 334 -444
416 -769 38 -153 44 -212 10 -106 -102 319 -298 605 -524 762 -100 70 -322
157 -322 126 0 -14 45 -53 135 -118 251 -182 450 -492 538 -840 33 -127 76
-402 77 -482 0 -10 -28 -13 -105 -13 l-105 0 0 -125 0 -125 6130 0 6130 0 0
125 0 125 -164 0 -164 0 -6 68 c-19 215 -40 401 -57 505 -10 65 -19 133 -19
151 0 18 20 129 44 247 48 233 56 291 41 299 -13 6 -64 -89 -111 -209 l-37
-93 -19 63 c-47 156 -119 318 -145 327 -18 5 -17 -82 2 -208 41 -272 65 -507
55 -540 -17 -57 -58 -268 -71 -365 l-13 -90 -17 125 c-10 69 -30 181 -44 250
-23 103 -29 165 -36 355 -14 389 -36 596 -68 628 -16 16 -27 -3 -41 -68 -16
-74 -40 -244 -40 -288 0 -34 -2 -38 -20 -32 -19 6 -20 2 -20 -57 l0 -63 -21
42 c-11 23 -27 47 -35 54 -22 18 -18 -59 13 -277 25 -173 27 -216 28 -506 l0
-318 -42 0 -43 0 0 258 c-1 716 -48 1162 -105 992 -10 -29 -12 -31 -19 -14
-30 76 -77 -242 -107 -726 -6 -102 -12 -186 -14 -188 -3 -3 -71 262 -91 354
l-17 80 68 215 c129 407 143 454 150 503 6 39 5 48 -6 44 -24 -7 -105 -136
-182 -290 -88 -174 -87 -175 -87 76 0 186 9 275 50 477 17 80 30 156 30 169
l0 23 -26 -24 c-63 -58 -154 -296 -191 -494 -21 -116 -24 -464 -4 -621 l13
-111 -33 -101 c-18 -56 -34 -100 -36 -98 -2 1 -15 70 -30 152 -24 133 -27 174
-27 384 0 228 1 239 32 384 34 161 38 191 21 181 -7 -5 -8 5 -3 32 3 21 7 42
8 47 0 5 -4 11 -11 13 -18 7 -82 -100 -125 -208 -56 -143 -94 -329 -101 -499
l-2 -55 -42 115 c-23 63 -47 138 -54 165 -6 28 -17 55 -24 60 -6 6 -31 55 -55
110 -106 242 -279 545 -311 545 -16 0 -10 -66 17 -156 14 -49 56 -186 94 -304
150 -471 179 -580 171 -650 l-6 -55 -19 55 c-29 88 -130 326 -184 437 -38 79
-51 118 -56 170 -9 92 -33 173 -51 173 -7 0 -19 -16 -25 -36 l-12 -35 -34 38
-33 38 -1 -31 c0 -16 10 -66 22 -110 26 -95 25 -73 5 -319 -10 -110 -21 -252
-25 -315 -7 -112 -8 -109 -15 130 -16 542 -51 877 -92 883 -17 3 -42 -93 -56
-210 -10 -87 -17 -113 -29 -116 -44 -12 -88 -450 -106 -1072 l-8 -240 -42 170
c-77 310 -99 494 -91 740 5 135 12 200 36 315 17 80 31 154 31 164 0 19 0 19
-21 0 -54 -49 -120 -208 -157 -379 -23 -106 -26 -144 -26 -324 -1 -191 -2
-200 -14 -145 -34 158 -129 403 -159 412 -19 5 -16 -47 11 -253 46 -339 51
-386 26 -295 -20 75 -70 197 -104 253 -22 36 -38 80 -45 124 -61 351 -199 736
-347 966 -43 66 -60 79 -69 54 -3 -6 13 -82 35 -167 67 -257 127 -512 140
-593 12 -75 12 -78 -15 -139 -35 -81 -89 -234 -132 -373 -40 -132 -38 -119 26
194 52 250 63 343 38 322 -20 -16 -94 -177 -137 -298 -22 -59 -39 -103 -39
-97 -1 7 26 144 59 307 58 284 70 377 51 377 -14 0 -63 -91 -106 -195 -164
-398 -269 -840 -301 -1267 l-7 -98 -90 0 -89 0 7 57 c33 270 186 854 349 1333
28 84 76 263 76 286 0 13 -4 25 -10 29 -22 14 -159 -213 -264 -438 l-62 -135
-17 85 c-9 47 -24 97 -34 112 l-18 26 -7 -45 c-3 -25 -7 -69 -7 -99 -3 -175
-62 -418 -213 -873 -95 -283 -116 -338 -131 -338 -11 0 -17 5 -14 13 12 33
119 375 146 467 46 163 88 334 111 460 28 147 38 418 20 527 -12 77 -45 173
-60 173 -9 0 -20 -77 -20 -145 0 -110 -36 -325 -88 -520 l-19 -70 1 140 c0 77
-6 169 -13 205 -14 73 -45 150 -60 150 -5 0 -12 -35 -15 -77 -24 -323 -66
-523 -184 -878 -30 -88 -30 -89 -31 -45 -13 519 -131 1043 -320 1421 -53 105
-126 219 -141 219 -26 0 -20 -30 74 -395 129 -501 177 -934 156 -1405 -5 -113
-10 -213 -10 -222 0 -14 -8 -18 -35 -18 -32 0 -34 2 -30 28 25 141 33 637 15
873 -36 464 -130 883 -292 1292 -110 281 -295 597 -348 597 -22 0 -5 -94 59
-315 81 -286 135 -503 176 -713 35 -174 39 -228 12 -135 -55 185 -243 544
-294 561 -29 9 -16 -61 71 -388 79 -294 120 -499 157 -780 13 -104 39 -424 38
-485 -1 -57 5 -68 -51 105 -63 196 -184 396 -321 530 -43 42 -67 73 -67 88 0
23 -14 30 -25 12 -4 -6 -25 3 -52 21 -43 30 -200 99 -224 99 -7 0 -44 31 -84
69 -121 114 -222 175 -372 221 -117 36 -102 4 51 -104 50 -36 104 -78 119 -94
l28 -30 -13 -86 -13 -87 -64 47 c-35 26 -100 62 -145 81 l-81 32 3 41 c4 48
-9 51 -38 10 -12 -17 -30 -30 -41 -30 -15 0 -19 -5 -14 -18 3 -12 -26 -80 -83
-191 l-89 -172 -7 62 c-18 180 -2 401 49 649 18 90 31 168 28 173 -22 36 -127
-163 -178 -340 -58 -201 -76 -500 -46 -775 l14 -127 -28 -88 c-15 -48 -31 -92
-35 -96 -16 -18 -59 273 -66 448 -7 162 5 302 41 476 28 136 31 174 13 163 -7
-5 -9 -2 -5 9 3 8 9 32 13 51 9 49 -15 48 -49 -2 -107 -163 -171 -395 -190
-687 -2 -40 -2 -40 -25 30 -114 345 -405 925 -463 925 -26 0 -5 -90 101 -420
165 -516 229 -755 299 -1112 38 -195 39 -236 1 -68 -76 336 -219 729 -371
1020 -69 131 -146 250 -161 250 -6 0 -8 -15 -6 -35 2 -19 3 -33 2 -32 -2 1
-25 37 -53 80 -28 42 -55 77 -61 77 -30 0 -3 -120 100 -435 108 -334 166 -538
231 -815 34 -143 88 -422 89 -452 0 -7 -180 -12 -180 -5 0 1 -7 74 -15 162
-28 310 -95 633 -196 935 -83 250 -179 460 -210 460 -16 0 -3 -82 62 -400 32
-156 57 -285 55 -287 -1 -2 -24 54 -49 124 -52 141 -117 275 -137 281 -18 6
-8 -67 51 -351 27 -131 49 -243 48 -250 0 -7 -13 31 -29 83 -34 114 -88 269
-128 366 l-30 71 23 119 c25 129 62 282 125 522 56 213 53 244 -15 155 -45
-59 -163 -298 -209 -423 -52 -145 -102 -323 -136 -491 -19 -94 -38 -162 -50
-179 -24 -34 -75 -150 -107 -245 l-23 -70 5 50 c2 28 16 136 30 240 30 228 34
296 19 302 -26 9 -120 -230 -159 -406 -9 -39 -17 -71 -18 -71 -1 0 -2 100 -2
223 0 238 -9 303 -61 464 -42 125 -115 256 -134 236 -5 -4 5 -69 21 -143 58
-272 61 -513 9 -815 -22 -129 -89 -415 -100 -428 -4 -5 -8 74 -9 175 -3 369
-38 881 -72 1043 -17 79 -20 87 -34 81 -9 -3 -16 21 -25 92 -13 112 -26 175
-42 215 -14 36 -32 22 -47 -36 -27 -111 -61 -595 -61 -896 0 -85 -3 -152 -6
-149 -3 4 -12 100 -19 215 -32 472 -66 676 -106 636 -38 -38 -71 -429 -84
-1003 -3 -135 -8 -327 -11 -428 l-6 -183 -86 3 -85 3 2 90 c2 68 11 118 36
205 51 174 93 347 116 478 22 128 27 349 10 438 -13 66 -42 138 -51 127 -4 -4
-13 -73 -19 -152 -11 -141 -39 -293 -85 -461 l-23 -84 -6 48 c-11 77 -8 124
13 232 31 162 44 356 31 476 -15 138 -50 253 -71 232 -5 -5 -14 -78 -20 -162
-6 -84 -15 -162 -20 -175 -5 -12 -9 -16 -9 -9 -1 6 -7 12 -15 12 -17 0 -34
-66 -44 -175 l-8 -80 -7 88 c-12 145 -45 267 -73 267 -11 0 -14 -16 -15 -67
-1 -111 -15 -38 -30 157 -19 251 -17 310 19 545 32 204 63 464 77 633 7 81 8
84 74 183 l67 100 102 47 c117 54 161 92 233 202 132 200 292 577 314 738 6
42 4 52 -8 52 -73 0 -374 -328 -542 -590 -78 -121 -105 -187 -105 -252 0 -53
-3 -60 -50 -115 -27 -32 -50 -61 -50 -65 0 -5 -3 -8 -7 -8 -5 0 -5 53 -1 117
17 317 6 825 -28 1226 -16 188 -16 203 0 300 89 508 295 1035 557 1423 47 70
48 71 92 71 24 0 53 6 64 14 18 13 454 474 546 577 30 35 37 50 37 85 0 24 -5
48 -12 55 -9 9 2 25 48 68 l59 56 -60 -50 -60 -49 -30 18 c-38 24 -72 24 -111
2 -34 -20 -544 -559 -575 -608 -26 -41 -24 -75 6 -119 l25 -37 -60 -85 c-91
-125 -214 -332 -286 -480 -91 -188 -159 -378 -258 -719 -14 -49 -14 -48 -15
98 -5 734 154 1459 440 2007 72 136 77 143 116 130 42 -15 101 2 135 37 20 22
412 551 556 752 37 51 44 120 16 160 -16 22 -15 24 27 67 24 24 41 44 38 44
-3 0 -22 -18 -43 -39z m-1855 -2914 c-13 -13 -15 1 -4 30 7 17 8 17 11 -1 2
-10 -1 -23 -7 -29z m-573 -1021 c50 -54 192 -271 192 -294 0 -12 -140 131
-189 193 -46 57 -101 153 -101 175 0 20 35 -7 98 -74z m1060 -53 c-5 -94 -29
-199 -77 -348 l-20 -60 0 45 c-1 60 26 285 40 333 14 53 47 127 55 127 4 0 4
-44 2 -97z m32 -758 c-10 -246 -28 -495 -50 -685 -15 -136 -49 -382 -53 -386
-2 -2 -14 52 -26 119 -27 139 -58 280 -102 452 -36 141 -32 169 35 259 31 41
52 89 83 183 50 152 86 291 105 399 l13 79 3 -80 c2 -44 -1 -197 -8 -340z
m3578 -2004 c78 -53 217 -192 201 -201 -8 -5 -10 -27 -7 -65 5 -61 2 -61 -34
4 -9 17 -22 31 -28 31 -16 0 -12 -52 17 -251 23 -162 27 -224 30 -517 l5 -332
-46 0 -46 0 0 318 c0 664 -45 1095 -98 942 -8 -21 -16 -28 -26 -24 -11 4 -19
-2 -25 -18 -23 -60 -64 -414 -76 -658 -3 -63 -8 -144 -12 -180 l-6 -65 -33
125 c-18 69 -42 168 -54 220 l-20 95 53 170 c116 370 141 445 144 445 2 0 30
-17 61 -39z m415 -43 c86 -118 94 -135 109 -240 14 -98 11 -119 -10 -74 -6 13
-40 60 -75 104 l-65 80 -7 83 c-3 46 -9 92 -11 102 -9 31 5 18 59 -55z m292
-80 c45 -41 46 -44 34 -70 -11 -26 -29 -38 -29 -20 0 5 -24 45 -54 90 -58 89
-49 89 49 0z m-5736 -25 c185 -187 301 -406 370 -703 27 -114 51 -303 51 -401
l0 -79 -89 0 -89 0 -6 132 c-9 165 -30 341 -57 467 -45 208 -145 452 -248 606
-28 41 -46 75 -40 75 6 0 55 -44 108 -97z m1291 -518 c-9 -205 -14 -250 -34
-308 l-23 -68 -6 193 c-4 106 -11 225 -16 263 -9 65 -7 80 29 220 21 83 42
164 47 180 14 50 16 -215 3 -480z m4608 352 c164 -237 258 -541 278 -900 l7
-117 -96 0 -97 0 0 109 c0 271 -56 573 -149 801 -29 71 -30 78 -20 132 6 32
15 56 19 53 4 -2 30 -38 58 -78z m-2638 -517 c28 -168 28 -168 45 -305 8 -66
15 -137 15 -157 l0 -38 -79 0 -78 0 -7 53 c-22 178 -15 747 11 872 6 32 48
-160 93 -425z m5119 145 c5 -122 5 -292 1 -405 -5 -107 -9 -205 -10 -217 0
-22 -4 -23 -85 -23 -47 0 -85 3 -85 8 1 18 30 264 40 332 16 111 45 275 79
448 17 84 32 156 32 160 5 31 20 -131 28 -303z m-6822 263 c-3 -8 -6 -5 -6 6
-1 11 2 17 5 13 3 -3 4 -12 1 -19z m8129 -285 c49 -197 99 -453 110 -558 l7
-66 -89 3 -89 3 -6 320 c-4 176 -9 383 -12 460 l-5 140 19 -60 c10 -33 40
-142 65 -242z m-4212 125 c25 -59 55 -141 67 -183 20 -68 21 -84 11 -133 -6
-32 -16 -93 -22 -137 -7 -44 -15 -93 -20 -110 -8 -29 -8 -29 -9 10 -2 51 -43
303 -70 422 -21 94 -29 266 -12 248 5 -6 30 -58 55 -117z m-2551 -560 c6 -186
6 -188 -15 -188 -21 0 -21 2 -14 138 6 132 16 246 21 240 1 -2 5 -87 8 -190z
m5716 -135 c1 -50 0 -53 -25 -53 -19 0 -24 4 -20 18 2 9 8 94 12 187 l8 170
12 -135 c7 -74 13 -159 13 -187z m-3918 106 l46 -160 -56 3 -55 3 -16 55 c-15
51 -14 61 4 162 11 59 22 105 25 102 3 -2 26 -77 52 -165z m5754 8 c25 -86 45
-159 45 -162 0 -3 -24 -5 -53 -5 l-54 0 -16 59 c-16 57 -16 64 5 165 11 59 23
105 25 103 2 -2 24 -74 48 -160z m-8950 -84 c-22 -66 -31 -83 -47 -83 -10 0
-17 3 -15 8 3 4 22 61 43 127 37 116 39 119 42 75 2 -29 -6 -73 -23 -127z
m-531 -27 c-6 -46 -10 -56 -26 -56 -16 0 -18 5 -12 38 6 32 34 85 42 77 1 -1
0 -28 -4 -59z"/>
</g>
</svg>
