<?xml version="1.0" standalone="no"?>
<!DOCTYPE svg PUBLIC "-//W3C//DTD SVG 20010904//EN"
 "http://www.w3.org/TR/2001/REC-SVG-20010904/DTD/svg10.dtd">
<svg version="1.0" xmlns="http://www.w3.org/2000/svg"
 width="1176.000000pt" height="1280.000000pt" viewBox="0 0 1176.000000 1280.000000"
 preserveAspectRatio="xMidYMid meet">
<metadata>
Created by potrace 1.15, written by Peter Selinger 2001-2017
</metadata>
<g transform="translate(0.000000,1280.000000) scale(0.100000,-0.100000)"
fill="#508c70" stroke="none">
<path d="M5650 12760 c-11 -21 -20 -57 -20 -79 0 -45 28 -113 44 -108 27 9 32
227 6 227 -5 0 -19 -18 -30 -40z"/>
<path d="M5566 12344 c-19 -19 -19 -17 -2 -57 7 -18 30 -47 50 -65 95 -83 159
10 71 103 -25 27 -40 35 -68 35 -20 0 -43 -7 -51 -16z"/>
<path d="M5668 12043 c-8 -10 -18 -26 -21 -35 -7 -21 -50 -24 -93 -8 -15 6
-29 8 -33 5 -9 -10 37 -88 84 -142 59 -67 116 -95 196 -94 34 0 63 2 65 4 3 2
-24 14 -58 27 -36 13 -77 37 -97 57 -30 30 -33 38 -28 73 3 21 14 52 26 69 12
16 21 36 21 45 0 22 -43 21 -62 -1z"/>
<path d="M5580 11681 c0 -5 25 -30 55 -56 31 -26 54 -49 52 -51 -2 -2 -30 5
-62 16 -32 11 -62 17 -67 12 -11 -11 100 -142 122 -142 21 0 212 188 207 204
-2 6 -28 14 -58 18 -82 9 -249 9 -249 -1z"/>
<path d="M6006 11554 c-15 -9 -62 -40 -103 -69 -41 -30 -95 -62 -121 -71 -57
-21 -82 -47 -82 -86 0 -79 -51 -91 -123 -28 -53 47 -64 49 -73 15 -13 -53 27
-107 109 -145 59 -28 72 -49 50 -80 -12 -17 -23 -21 -47 -17 -46 7 -54 1 -86
-62 -31 -62 -64 -91 -104 -91 -64 0 -96 -38 -96 -115 0 -67 33 -142 99 -225
33 -41 58 -76 56 -79 -2 -2 -24 1 -49 8 -57 14 -73 8 -80 -35 -10 -52 -41 -67
-128 -62 -93 5 -132 23 -136 63 -2 16 -13 42 -24 57 -24 35 -106 84 -118 72
-24 -24 94 -288 150 -339 36 -32 52 -72 44 -110 -5 -31 -2 -39 26 -65 18 -17
67 -48 109 -70 93 -50 114 -66 135 -111 9 -19 36 -58 61 -86 25 -28 45 -56 45
-61 0 -15 -33 -18 -130 -11 -94 7 -160 24 -160 42 -1 30 -271 197 -317 197
-59 0 14 -145 76 -152 36 -4 71 -60 71 -113 0 -61 17 -80 68 -71 53 8 53 3 6
-100 -21 -47 -38 -103 -42 -139 l-7 -59 -45 -8 c-49 -8 -201 7 -232 23 -10 5
-18 15 -18 22 0 26 -103 107 -136 107 -15 0 -16 -8 -11 -67 8 -84 -6 -142 -48
-190 -42 -49 -102 -79 -208 -102 -166 -36 -139 -50 98 -52 99 0 205 -5 235
-10 136 -23 132 -23 176 9 48 35 57 33 42 -9 -22 -62 -120 -119 -438 -254
-144 -61 -184 -84 -201 -117 -8 -15 -7 -24 7 -39 23 -26 41 -24 94 11 25 16
48 30 53 30 4 0 12 -12 18 -26 9 -26 12 -26 67 -21 103 9 192 61 192 112 0 42
52 67 127 62 72 -5 118 -29 150 -77 33 -48 30 -75 -9 -86 -18 -6 -34 -18 -36
-27 -5 -24 47 -70 97 -87 22 -7 49 -22 60 -34 32 -34 56 -176 30 -176 -42 0
-202 37 -239 55 -115 57 -266 95 -378 95 -108 0 -112 -4 -112 -105 0 -108 3
-115 45 -108 26 4 47 -2 92 -27 106 -59 135 -71 192 -82 80 -15 98 -23 113
-55 13 -27 17 -28 103 -34 50 -3 107 -12 128 -19 34 -13 38 -18 35 -45 -2 -24
-7 -29 -23 -27 -59 11 -79 7 -91 -17 -18 -35 -32 -41 -99 -41 -59 0 -200 14
-258 26 -26 6 -28 9 -23 39 6 28 2 36 -24 59 -17 14 -70 46 -118 71 -111 57
-228 142 -380 274 -149 129 -155 133 -125 73 20 -39 23 -56 18 -98 -6 -51 -6
-52 26 -63 l31 -11 -7 -108 c-6 -91 -5 -110 9 -121 21 -17 64 -7 148 35 87 44
92 43 82 -3 -13 -61 -6 -113 21 -159 30 -50 31 -66 7 -87 -35 -32 -99 -38
-215 -20 -127 20 -131 18 -122 -65 9 -89 41 -132 98 -132 40 0 74 -36 112
-118 20 -42 44 -93 53 -112 26 -53 47 -49 131 25 41 36 76 63 78 61 2 -2 -14
-41 -35 -88 -43 -93 -57 -138 -43 -138 5 0 35 30 67 66 61 70 72 70 73 2 1
-43 21 -76 52 -87 34 -12 37 -33 9 -61 -16 -16 -31 -19 -98 -17 -75 2 -81 0
-173 -46 -51 -26 -104 -47 -116 -47 -12 0 -52 16 -90 36 -179 96 -198 104
-245 104 -37 0 -50 -5 -62 -22 -35 -49 -5 -98 60 -98 42 0 58 -19 44 -54 -13
-34 3 -42 57 -27 49 14 96 14 110 0 17 -17 -5 -57 -39 -75 -38 -20 -35 -43 13
-100 77 -93 80 -115 24 -188 -35 -46 -32 -56 15 -56 44 0 88 19 133 56 60 51
75 14 31 -75 -47 -93 -73 -90 -296 43 -142 84 -231 126 -268 126 -26 0 -40
-30 -40 -88 0 -110 62 -209 138 -219 23 -3 42 -9 42 -14 0 -4 -21 -22 -46 -40
-25 -17 -42 -35 -37 -40 4 -4 46 -9 93 -11 83 -3 85 -4 88 -29 2 -14 -4 -31
-12 -38 -11 -10 -18 -6 -35 18 -41 57 -88 47 -111 -25 l-12 -34 -86 0 c-119 0
-212 -22 -306 -71 -65 -34 -86 -40 -118 -36 -34 5 -39 3 -44 -19 -4 -14 -4
-38 -1 -54 6 -28 5 -29 -18 -20 -90 34 -139 77 -112 98 6 5 37 12 67 16 79 10
132 39 185 102 27 31 55 54 66 54 24 0 104 37 120 56 9 12 5 14 -24 14 -45 0
-67 28 -67 85 0 49 26 107 80 183 37 51 39 58 24 69 -17 12 -16 56 1 96 14 34
-14 16 -139 -90 -293 -249 -366 -301 -451 -324 -45 -13 -87 3 -93 34 -3 16 2
17 45 11 45 -5 51 -4 65 18 9 13 35 30 58 38 48 16 90 61 90 96 0 61 88 127
171 128 50 1 62 13 34 36 -30 25 -17 59 50 130 63 67 83 105 71 136 -4 11 3
19 24 27 35 13 36 18 10 42 -26 24 -56 15 -127 -41 -171 -134 -325 -210 -463
-231 -71 -11 -90 -7 -90 20 1 52 147 198 212 213 55 11 262 251 228 262 -5 2
-59 -17 -118 -42 -109 -46 -268 -89 -373 -101 -70 -9 -83 3 -68 61 17 64 28
69 82 38 35 -19 62 -26 104 -26 66 -1 87 18 79 67 -12 71 -16 151 -8 163 5 7
42 16 83 21 42 5 85 13 96 20 58 30 69 77 28 109 -21 17 -22 21 -9 26 9 3 24
6 35 6 10 0 19 5 19 11 0 18 -50 4 -166 -47 -58 -25 -112 -43 -120 -40 -22 8
-17 62 10 92 13 16 38 33 56 39 24 8 36 20 44 46 8 26 23 40 64 63 56 29 82
68 82 119 0 48 -16 43 -115 -33 -86 -67 -126 -89 -192 -106 -32 -8 -94 -30
-139 -49 -128 -55 -177 -41 -94 26 47 38 84 109 100 194 19 93 63 167 90 150
12 -7 50 22 50 38 0 24 57 81 103 102 57 27 70 42 56 67 -15 28 -37 22 -113
-29 -95 -64 -310 -173 -341 -173 -23 0 -25 4 -25 45 0 44 5 53 54 92 10 9 13
23 9 48 -5 32 -4 35 19 35 56 0 178 111 178 162 0 32 -41 20 -129 -37 -47 -31
-96 -58 -110 -62 -36 -8 -61 -32 -61 -59 0 -62 -36 -71 -95 -24 -21 17 -42 30
-46 30 -5 0 -9 -15 -9 -33 0 -38 23 -64 87 -96 24 -12 43 -28 43 -35 0 -19
-25 -38 -47 -36 -36 4 -43 -1 -63 -40 -23 -46 -50 -65 -102 -74 -44 -8 -58
-29 -58 -83 1 -50 30 -114 80 -170 22 -25 40 -49 40 -53 0 -5 -15 -3 -34 2
-42 13 -66 5 -66 -21 0 -36 -27 -51 -93 -51 -77 0 -108 15 -119 58 -8 30 -75
92 -100 92 -32 0 35 -167 97 -239 36 -42 45 -60 45 -90 0 -46 15 -61 118 -116
45 -24 82 -51 89 -66 7 -13 31 -46 54 -72 23 -27 39 -51 35 -54 -8 -8 -134 -4
-176 6 -19 4 -51 23 -71 42 -43 41 -214 133 -234 125 -11 -4 -12 -12 -5 -37
12 -42 36 -66 72 -74 32 -7 58 -52 58 -98 0 -34 18 -46 56 -40 34 6 34 5 25
-20 -6 -15 -20 -45 -32 -68 -11 -23 -24 -63 -28 -88 l-6 -46 -104 1 -104 0
-30 38 c-29 36 -99 81 -110 70 -3 -3 -3 -31 0 -63 12 -125 -40 -169 -250 -215
-15 -4 -27 -11 -27 -16 0 -6 54 -10 138 -10 75 0 166 -5 202 -11 91 -15 108
-14 142 11 38 28 46 20 21 -22 -22 -39 -114 -88 -314 -169 -149 -59 -195 -90
-179 -120 14 -25 34 -24 78 6 l37 25 16 -21 c14 -18 24 -21 60 -17 25 3 66 14
92 26 38 17 48 27 54 52 7 36 33 50 94 50 76 0 139 -44 139 -97 0 -16 -6 -23
-20 -23 -26 0 -36 -25 -19 -47 8 -9 38 -27 67 -40 58 -25 72 -48 72 -114 0
-26 -5 -39 -13 -39 -40 0 -141 25 -207 50 -139 55 -317 79 -348 48 -13 -13
-16 -116 -4 -134 4 -6 21 -11 39 -12 18 0 61 -17 97 -37 36 -20 90 -40 125
-46 50 -9 65 -17 82 -40 19 -27 25 -29 89 -29 84 0 120 -14 120 -47 0 -25 -11
-29 -40 -13 -24 13 -47 4 -53 -20 -8 -30 -52 -34 -177 -19 -107 13 -115 16
-115 36 -1 32 -31 59 -103 94 -86 40 -162 92 -303 205 -65 52 -120 94 -123 94
-3 0 4 -16 15 -35 16 -26 19 -44 15 -70 -6 -32 -4 -36 20 -45 27 -11 27 -11
20 -86 -10 -114 6 -124 112 -74 35 17 68 30 72 30 5 0 6 -24 3 -54 -5 -44 -2
-61 16 -89 27 -44 27 -53 -4 -73 -29 -19 -113 -21 -184 -5 -64 14 -74 7 -69
-50 7 -65 30 -99 69 -99 41 0 73 -35 114 -125 24 -53 40 -75 52 -75 10 0 43
20 73 45 30 25 57 45 61 45 3 0 -10 -30 -28 -67 -49 -101 -43 -120 15 -55 49
55 62 57 62 13 0 -32 25 -71 46 -71 17 0 19 -31 2 -48 -7 -7 -40 -12 -78 -12
-54 0 -78 -6 -139 -35 -40 -19 -79 -35 -86 -35 -7 0 -58 23 -114 51 -120 60
-168 70 -194 41 -33 -36 -19 -59 48 -79 25 -7 30 -14 27 -36 -3 -30 4 -32 61
-16 43 12 77 4 77 -16 0 -14 -10 -25 -44 -49 -22 -15 -16 -30 39 -95 19 -24
35 -46 35 -51 0 -4 -11 -24 -25 -44 -30 -45 -32 -66 -5 -66 30 0 91 27 117 52
32 30 45 13 28 -35 -20 -58 -44 -80 -80 -73 -16 4 -86 37 -155 75 -148 81
-216 107 -236 90 -18 -15 -18 -90 0 -134 22 -51 60 -85 96 -85 40 0 38 -13 -5
-40 -19 -12 -33 -26 -29 -31 3 -5 36 -9 75 -9 59 0 69 -2 69 -17 -1 -48 -42
-63 -175 -63 -124 0 -190 -13 -267 -51 -32 -16 -73 -29 -93 -29 -33 0 -35 -2
-35 -35 0 -25 8 -44 25 -61 14 -14 25 -26 25 -28 0 -2 -22 -6 -49 -10 -57 -7
-84 -32 -79 -73 l3 -28 76 2 c74 1 76 1 72 -21 -5 -22 0 -28 127 -181 57 -67
83 -131 60 -145 -17 -10 -38 0 -193 97 -180 113 -252 142 -264 106 -3 -7 19
-37 48 -68 34 -36 46 -55 36 -55 -21 0 -37 -30 -37 -69 0 -39 10 -44 46 -20
16 10 39 19 52 19 29 0 30 -41 1 -81 -24 -35 -18 -49 22 -49 28 0 69 -29 69
-50 0 -5 19 -14 43 -21 93 -25 91 -63 -6 -84 -16 -3 -36 -19 -50 -40 -48 -74
-156 -87 -208 -25 -35 42 -63 38 -67 -10 -4 -43 13 -103 34 -121 9 -7 35 -12
61 -10 25 1 51 -4 60 -11 9 -7 30 -45 48 -83 48 -107 98 -137 152 -95 15 11
28 19 30 17 2 -2 -4 -23 -12 -47 -8 -23 -15 -45 -15 -48 0 -2 19 -2 42 1 51 7
97 -11 149 -58 65 -59 113 -85 182 -99 76 -16 87 -22 87 -42 0 -37 -196 -82
-306 -71 -31 3 -73 16 -97 30 -85 50 -406 122 -431 97 -12 -12 15 -42 117
-128 52 -44 73 -68 65 -73 -7 -3 -55 -16 -106 -29 -51 -12 -92 -24 -90 -25 2
-2 38 -17 80 -35 93 -38 128 -64 128 -94 0 -28 -35 -46 -89 -46 -23 0 -48 -8
-62 -19 -20 -16 -21 -21 -10 -35 20 -24 60 -20 146 15 75 30 103 31 124 5 17
-21 -4 -32 -114 -61 -155 -40 -172 -66 -119 -174 15 -29 32 -71 39 -94 l12
-42 63 4 c53 3 64 0 76 -17 8 -12 28 -22 47 -24 28 -3 32 -7 35 -36 3 -27 10
-36 38 -48 19 -8 34 -20 34 -28 0 -25 -39 -63 -87 -86 -95 -45 -219 -4 -356
116 -80 70 -143 114 -164 114 -6 0 -19 -8 -29 -17 -13 -13 -15 -28 -11 -73 8
-77 40 -146 90 -198 l42 -43 -30 -27 c-17 -15 -46 -39 -65 -54 -47 -36 -33
-44 91 -53 117 -8 145 -23 195 -101 26 -41 47 -60 77 -73 23 -10 51 -28 61
-40 21 -23 50 -27 91 -11 36 14 40 34 16 69 -12 16 -21 32 -21 35 0 12 88 6
99 -7 14 -18 -9 -99 -42 -147 -28 -42 -49 -48 -151 -37 -91 10 -147 -2 -127
-27 21 -25 132 -49 226 -50 81 0 92 -2 108 -22 19 -24 32 -23 109 10 41 18
146 21 218 6 25 -5 110 -12 190 -15 171 -8 227 -19 209 -41 -6 -8 -37 -21 -68
-30 -103 -28 -146 -46 -198 -85 -60 -45 -92 -59 -133 -59 -15 0 -38 -8 -51
-19 -21 -17 -22 -21 -9 -36 12 -15 26 -17 88 -11 69 5 74 4 96 -19 25 -27 50
-32 63 -12 4 6 10 43 13 81 l5 69 39 -57 c47 -69 92 -99 143 -94 31 2 38 -1
41 -17 3 -12 -6 -27 -23 -41 l-27 -21 58 1 59 1 -2 -37 c-3 -43 -3 -44 39 -22
81 42 122 37 136 -18 16 -64 77 -63 119 2 49 77 42 73 149 80 64 4 108 12 124
22 16 10 60 18 123 22 53 3 125 13 159 21 78 21 84 15 103 -92 34 -193 40
-459 18 -796 l-6 -97 122 0 c67 0 131 5 142 10 25 14 24 28 -10 232 -66 383
-90 717 -55 766 18 26 56 28 163 10 82 -14 96 -7 111 56 28 111 30 117 52 114
15 -2 36 -30 73 -97 28 -52 60 -98 70 -102 51 -18 134 -39 156 -39 28 0 103
33 113 48 4 7 -11 16 -36 23 -99 27 -138 41 -163 60 -30 24 -26 35 15 44 32 7
36 15 19 47 -27 51 21 33 122 -47 104 -82 135 -93 197 -69 39 14 43 18 27 25
-11 4 -36 8 -56 8 -19 1 -44 7 -55 15 -50 38 53 51 251 34 84 -7 80 -4 -41 31
-78 23 -137 58 -142 84 -3 15 6 17 70 17 42 0 107 9 149 20 43 11 101 18 134
17 l60 -2 3 31 c6 64 22 69 238 73 218 4 225 1 157 -59 l-37 -33 70 7 c86 8
99 -1 82 -57 -6 -20 -9 -39 -6 -42 3 -3 34 8 69 25 68 32 120 38 138 17 6 -8
14 -31 19 -53 5 -27 16 -43 35 -54 25 -14 30 -13 65 5 27 15 44 35 65 77 15
32 38 63 50 70 13 8 73 15 140 18 102 4 121 8 133 24 12 17 33 21 132 29 64 4
158 18 209 29 50 11 99 18 108 14 26 -10 42 -63 60 -201 32 -248 36 -730 10
-1057 l-6 -78 153 0 c180 0 201 7 206 62 2 20 -8 101 -22 180 -72 404 -124
954 -102 1072 15 79 58 91 216 58 47 -10 93 -16 103 -14 25 5 44 48 58 128 12
72 33 124 49 124 19 0 53 -48 94 -135 50 -105 89 -155 120 -155 12 0 49 -9 81
-21 72 -25 136 -21 196 13 52 29 47 50 -14 65 -27 6 -53 13 -58 15 -5 2 43 2
107 2 105 -2 117 -4 130 -23 19 -26 35 -26 100 -2 73 28 139 35 214 21 36 -7
154 -17 263 -24 127 -8 202 -17 210 -25 17 -17 2 -24 -111 -55 -101 -29 -144
-48 -207 -96 -27 -20 -60 -33 -99 -40 -60 -10 -86 -23 -86 -46 0 -19 30 -25
115 -22 71 3 79 1 92 -20 17 -24 57 -30 69 -10 5 7 11 43 14 80 l5 68 43 -55
c54 -71 94 -96 149 -93 24 1 45 -1 49 -4 11 -12 -6 -43 -33 -61 l-28 -17 65 2
65 3 -2 -37 c-1 -21 1 -38 6 -38 5 0 29 9 55 21 26 11 61 19 78 17 31 -3 36
-9 57 -61 8 -22 17 -27 44 -27 42 0 72 22 97 70 11 21 25 42 32 47 7 4 62 10
121 13 77 4 111 10 117 20 6 10 43 16 127 21 66 4 147 15 182 24 71 18 84 13
100 -38 43 -139 56 -558 29 -927 l-3 -35 130 2 c71 1 140 5 152 8 30 7 30 30
-1 192 -52 273 -86 550 -86 701 0 91 2 104 21 123 23 23 43 23 216 3 49 -6 52
-5 66 22 8 16 17 49 21 74 9 60 31 94 53 81 9 -5 41 -50 72 -101 31 -52 63
-97 71 -100 24 -12 146 -40 172 -40 52 0 141 40 125 56 -3 4 -40 15 -82 25
-139 33 -199 80 -120 95 37 7 39 11 20 57 -15 37 34 16 134 -57 56 -41 115
-77 131 -81 19 -4 50 0 83 11 47 16 50 18 27 25 -14 4 -41 7 -61 8 -20 1 -47
10 -60 20 -23 19 -24 20 -4 28 24 10 170 10 285 1 l85 -7 -102 28 c-56 16
-118 37 -139 48 -41 21 -63 47 -51 60 5 4 59 11 120 14 62 4 129 12 150 18 21
7 68 11 104 9 l67 -3 11 37 c5 20 16 43 23 50 9 9 73 15 232 19 121 3 222 8
226 12 4 3 -5 20 -20 37 -28 34 -32 59 -15 91 9 17 17 19 49 14 47 -8 74 5
157 79 35 30 73 58 85 62 29 9 38 22 38 58 0 79 115 163 203 150 55 -9 141 62
237 193 13 18 22 35 19 37 -3 3 -54 -6 -114 -19 -220 -49 -359 -72 -388 -64
-15 4 -41 19 -58 33 -47 40 -70 41 -167 11 -108 -34 -184 -41 -236 -22 -71 25
-56 37 46 37 108 0 153 16 225 80 53 46 63 48 127 19 73 -32 166 -7 151 40 -8
25 37 63 132 110 54 27 81 45 77 54 -2 7 18 39 46 71 74 85 94 128 91 200 l-1
28 -60 -55 c-68 -63 -136 -93 -232 -103 -76 -7 -184 14 -255 49 -62 32 -77 50
-69 82 8 33 40 33 103 -1 43 -23 55 -25 115 -20 81 7 148 32 148 54 0 9 -12
29 -27 44 -26 27 -27 30 -15 76 17 62 69 148 109 179 20 15 38 42 47 71 18 53
48 237 44 260 -2 11 -32 -10 -98 -68 -122 -108 -222 -181 -313 -230 -81 -44
-177 -80 -213 -80 -25 0 -54 34 -54 62 0 16 6 17 54 12 50 -6 55 -5 71 19 19
29 9 59 -26 78 -35 18 -14 21 65 9 92 -15 101 -10 110 62 4 28 12 60 17 70 13
24 64 24 124 -2 68 -29 72 -25 26 25 -56 61 -52 80 17 80 39 0 57 5 66 18 9
11 27 17 54 17 48 0 99 38 126 94 22 46 22 46 -24 104 -92 115 -92 241 -1 326
35 34 41 72 12 81 -55 17 -225 -91 -426 -270 -156 -139 -237 -195 -282 -195
-26 0 -34 5 -39 24 -11 44 -1 60 40 67 74 12 77 62 6 113 -27 20 -50 42 -50
50 0 25 26 37 68 30 45 -7 107 16 159 60 48 41 51 63 12 95 -22 19 -30 33 -26
44 8 22 42 21 96 -3 60 -28 63 -26 56 24 -6 38 -4 47 14 62 27 24 27 34 -2 34
-40 0 -69 28 -65 63 3 30 6 32 52 38 54 6 72 23 82 77 5 24 2 38 -9 50 -23 22
-72 5 -182 -64 -49 -31 -115 -68 -145 -81 -30 -14 -98 -49 -150 -78 -95 -53
-203 -95 -246 -95 -16 0 -24 7 -26 22 -2 19 -13 25 -53 33 l-50 11 56 41 c60
45 109 97 109 117 0 25 37 46 114 65 81 20 116 42 116 72 0 24 45 57 89 65 53
9 80 29 74 53 -4 16 1 23 22 31 23 9 27 15 22 39 -5 26 -2 31 23 39 41 15 63
55 64 114 1 42 -3 53 -26 73 -16 13 -28 26 -28 28 0 3 29 8 64 12 76 8 108 31
81 59 -37 36 -117 14 -223 -63 -119 -86 -543 -296 -664 -329 -35 -9 -40 -8
-58 15 -40 51 -15 99 73 144 64 33 119 90 148 155 33 73 46 84 101 91 66 9 79
18 67 50 -21 56 40 143 101 143 47 0 44 17 -12 61 -29 22 -54 44 -56 48 -1 3
22 5 51 3 47 -3 58 0 87 24 36 31 95 143 81 157 -13 13 -165 -66 -250 -128
-86 -64 -150 -95 -280 -135 -128 -39 -230 -60 -298 -60 -53 0 -55 1 -49 24 6
26 -9 43 -61 70 -28 14 -31 20 -27 48 4 25 -1 41 -20 67 -14 19 -23 37 -21 41
2 4 27 10 54 13 94 11 155 63 133 112 -14 31 -47 52 -125 81 l-62 23 76 0 c86
1 413 54 477 77 81 30 51 37 -133 29 -162 -7 -175 -6 -181 10 -9 22 19 45 54
45 36 0 96 37 117 72 17 29 17 31 -4 59 -24 32 -23 34 23 92 23 29 30 48 31
85 1 61 7 69 64 94 l46 20 -39 32 -39 33 47 7 c31 5 46 12 46 22 0 21 -56 101
-80 114 -41 22 -60 12 -84 -42 -28 -64 -48 -83 -101 -97 -43 -11 -90 -41 -173
-108 -54 -44 -77 -52 -84 -31 -4 10 -17 10 -64 -1 -103 -25 -173 -25 -236 -1
-63 23 -108 55 -108 75 0 16 59 35 108 35 50 0 125 43 172 99 29 36 49 51 66
51 14 0 53 14 87 32 l62 32 -40 8 c-47 10 -75 39 -75 79 0 44 37 132 74 175
50 59 60 81 40 92 -17 9 -16 55 1 95 4 10 3 17 -3 17 -13 0 -118 -79 -232
-175 -270 -228 -430 -307 -490 -243 -27 30 -25 41 6 34 74 -19 80 -18 97 7 9
14 38 33 64 43 64 23 81 39 95 88 6 23 20 53 30 67 25 38 103 71 166 73 28 0
52 2 52 4 0 2 -9 15 -20 29 -11 14 -20 33 -20 41 0 9 31 48 70 87 73 76 92
109 83 144 -3 14 0 22 11 26 53 17 50 14 31 35 -36 39 -72 27 -198 -68 -137
-102 -340 -190 -464 -199 -60 -5 -74 -3 -78 10 -10 23 18 66 77 123 74 71 105
92 150 104 28 8 61 33 116 88 80 80 150 174 133 180 -5 2 -60 -17 -123 -42
-147 -58 -307 -97 -405 -99 l-78 -2 1 42 c0 26 8 51 18 62 17 19 18 19 66 -6
59 -31 156 -41 184 -20 19 14 19 20 7 113 -14 120 -12 124 91 134 85 8 123 24
152 63 l21 29 -32 28 c-35 31 -33 40 8 40 15 0 31 5 34 10 14 22 -53 8 -159
-35 -150 -60 -166 -61 -166 -14 0 36 56 99 87 99 23 0 43 18 43 40 0 21 34 52
87 79 24 12 49 34 58 52 19 36 16 83 -5 86 -8 2 -53 -24 -100 -58 -105 -75
-145 -96 -212 -110 -29 -6 -96 -29 -150 -50 -97 -39 -148 -49 -148 -27 0 6 26
36 59 67 61 59 73 82 106 214 18 72 58 132 81 123 23 -9 44 5 61 38 25 50 62
83 119 106 61 25 73 45 45 74 -20 20 -20 20 -73 -14 -151 -95 -375 -203 -411
-198 -45 6 -30 110 19 128 25 10 26 13 20 56 -5 41 -4 45 13 39 43 -13 162 70
198 138 33 64 -18 59 -133 -14 -43 -27 -99 -56 -126 -65 -38 -12 -49 -21 -54
-42 -10 -48 -23 -72 -39 -72 -21 0 -68 25 -84 44 -21 25 -51 20 -51 -8 0 -33
43 -82 84 -96 19 -6 41 -19 51 -30 25 -28 4 -50 -45 -50 -35 0 -41 -4 -62 -42
-25 -45 -49 -62 -115 -78 -33 -8 -43 -16 -52 -41 -20 -58 4 -123 81 -212 l50
-58 -51 7 c-51 7 -51 6 -62 -25 -7 -19 -22 -36 -36 -42 -67 -25 -193 4 -193
45 0 23 -38 65 -77 85 -55 28 -56 6 -5 -103 21 -45 60 -106 86 -135 40 -45 47
-58 42 -83 -8 -38 11 -55 124 -113 50 -27 94 -55 97 -64 3 -9 28 -41 54 -72
27 -31 45 -59 42 -63 -10 -9 -90 -7 -162 4 -49 8 -70 18 -93 40 -35 35 -251
146 -266 136 -30 -19 35 -116 78 -116 22 0 46 -32 55 -75 15 -69 14 -68 56
-62 21 3 39 1 39 -3 0 -5 -16 -41 -35 -81 -19 -41 -35 -88 -35 -106 0 -41 -21
-48 -134 -40 -94 6 -113 12 -121 37 -6 18 -95 80 -115 80 -6 0 -9 -28 -8 -69
2 -84 -21 -127 -85 -161 l-44 -23 -69 58 c-38 32 -71 62 -73 67 -2 5 23 7 55
3 72 -7 109 12 150 77 32 50 70 155 60 165 -6 6 -22 2 -77 -21 -12 -5 -18 -1
-22 16 -10 39 -66 98 -92 98 -13 0 -26 -4 -30 -10 -8 -12 20 -76 49 -115 l24
-31 -46 -30 c-26 -16 -76 -55 -111 -87 -97 -88 -270 -166 -486 -220 -195 -49
-256 -46 -247 12 4 31 -3 40 -68 84 -32 21 -35 26 -32 66 3 33 -2 51 -23 83
-14 22 -24 45 -22 52 3 7 27 16 53 20 94 12 174 72 174 128 0 44 -86 111 -177
138 -24 7 -43 17 -43 22 0 4 46 8 103 8 75 0 149 9 282 35 219 43 276 59 299
84 16 18 16 19 -10 25 -15 4 -99 -1 -188 -10 -173 -18 -216 -13 -216 25 0 26
20 40 73 50 57 10 109 48 131 96 17 36 17 37 -9 75 -31 44 -33 37 39 138 23
34 28 51 27 98 0 73 9 88 69 119 28 14 50 31 50 39 0 7 -18 26 -40 41 -46 32
-50 45 -16 45 52 0 86 12 86 31 0 43 -98 169 -132 169 -25 0 -53 -34 -68 -83
-17 -58 -44 -92 -82 -106 -82 -31 -119 -54 -206 -130 -91 -79 -114 -92 -127
-71 -10 16 -51 12 -129 -11 -54 -16 -85 -20 -130 -15 -71 7 -180 59 -210 99
-19 25 -19 28 -3 44 10 11 43 20 87 24 98 11 158 46 229 134 33 40 65 70 77
71 10 1 30 5 44 9 31 9 130 67 130 76 0 4 -19 9 -41 12 -66 9 -84 35 -83 115
1 79 25 139 97 245 26 38 47 72 47 78 0 5 -9 18 -19 28 -20 20 -19 26 4 114 4
15 3 27 -2 27 -14 0 -124 -93 -297 -254 -240 -222 -375 -316 -475 -332 -36 -6
-43 -3 -71 24 -16 17 -30 35 -30 41 0 14 31 14 66 0 34 -12 74 -4 74 16 0 16
41 46 90 65 65 25 110 83 110 142 0 71 125 158 227 158 29 0 53 4 53 9 0 4 -9
20 -20 34 -36 46 -27 76 51 163 85 95 111 141 107 192 -3 34 0 38 30 47 36 10
40 24 14 48 -43 39 -94 18 -223 -93 -127 -109 -311 -210 -463 -254 -99 -29
-153 -33 -181 -12 -18 13 -17 15 5 62 34 72 192 228 248 245 55 16 111 66 192
169 61 76 119 166 120 183 0 16 -39 5 -139 -42 -173 -80 -344 -130 -501 -146
-87 -9 -98 2 -81 79 6 29 18 62 26 72 13 18 15 18 42 2 60 -37 100 -51 164
-56 59 -4 69 -2 89 18 19 19 21 29 16 64 -3 22 -9 82 -12 131 -8 111 -5 115
110 125 93 9 131 25 170 70 34 41 33 55 -9 97 -19 19 -35 37 -35 39 0 2 13 4
29 4 37 0 61 9 61 22 0 22 -82 -2 -199 -56 -145 -67 -163 -72 -180 -52 -29 35
25 150 77 162 44 10 72 33 72 58 0 33 36 75 81 93 69 27 116 107 102 174 -9
46 -19 42 -155 -67 -102 -83 -156 -113 -240 -136 -39 -10 -114 -38 -167 -62
-116 -53 -153 -62 -170 -42 -10 12 -1 26 51 78 72 72 102 127 118 219 29 163
76 258 122 243 24 -7 52 16 69 59 23 60 60 98 127 130 91 44 105 76 49 111
-20 12 -23 10 -141 -74 -90 -64 -299 -182 -371 -209 -62 -24 -75 -15 -75 51 0
60 22 105 52 110 21 3 23 8 21 65 l-1 62 33 -1 c42 -1 89 28 153 96 98 103 97
183 -2 130z m-528 -2170 c26 -18 30 -65 6 -85 -14 -11 -30 -9 -106 10 -98 25
-163 49 -155 57 7 8 154 32 197 33 20 1 46 -6 58 -15z m650 -770 c37 -11 -11
-64 -60 -64 -28 0 -62 35 -52 52 15 23 60 28 112 12z m729 -492 c-25 -27 -183
-108 -249 -127 -31 -9 -79 -15 -105 -13 l-48 3 45 13 c84 23 110 39 110 67 0
20 8 29 37 41 48 21 106 32 172 33 52 1 53 0 38 -17z m-2366 -351 c37 -37 36
-53 0 -84 -32 -26 -121 -53 -146 -43 -21 8 -19 39 5 86 38 74 92 90 141 41z
m189 -111 c22 -22 26 -60 8 -78 -17 -17 -84 -15 -101 3 -20 19 -11 50 21 75
31 25 47 25 72 0z m310 -66 c0 -41 -62 -90 -97 -77 -21 8 -15 42 13 68 31 29
84 34 84 9z m1924 -200 c20 -19 21 -58 2 -73 -11 -10 -20 -6 -40 16 -34 37
-35 73 -2 73 14 0 32 -7 40 -16z m1846 -258 c16 -21 9 -60 -13 -64 -24 -5
-207 39 -207 49 0 10 91 26 156 28 34 1 56 -4 64 -13z m-3840 -56 c26 -36 23
-64 -7 -68 -37 -5 -68 59 -41 86 18 18 24 15 48 -18z m-242 -12 c34 -32 30
-91 -7 -129 -49 -48 -109 -32 -131 35 -9 27 -8 42 4 70 24 59 85 69 134 24z
m3613 -160 c-18 -47 -93 -87 -356 -185 -149 -56 -187 -78 -183 -107 4 -30 40
-32 88 -5 l40 23 16 -22 c19 -27 44 -28 128 -2 60 19 102 52 91 70 -9 14 34
42 72 47 21 3 59 0 83 -7 l45 -12 -51 -19 c-28 -11 -82 -45 -120 -77 -102 -84
-178 -131 -226 -138 -49 -8 -68 -19 -68 -43 0 -13 -89 -72 -152 -99 -4 -2 -52
31 -108 73 l-100 76 20 37 c10 20 30 62 44 94 28 66 54 86 126 97 62 10 76 21
61 49 -16 31 -13 72 9 121 l20 44 179 -6 c99 -3 197 -11 220 -18 36 -11 43
-10 83 14 24 14 44 24 46 23 1 -2 -2 -15 -7 -28z m-6000 2 c12 -7 19 -21 19
-40 0 -26 -4 -30 -27 -30 -36 0 -183 40 -183 50 0 5 28 13 63 18 87 13 106 13
128 2z m6074 -300 c-3 -5 -15 -10 -25 -10 -53 0 -17 -58 50 -80 57 -19 82 -50
88 -110 5 -58 12 -56 -108 -35 -47 8 -86 15 -86 15 -1 0 1 20 3 44 7 56 -11
110 -43 131 -38 25 -35 26 119 54 5 0 5 -3 2 -9z m923 -46 c29 -8 28 -32 -2
-45 -33 -16 -76 -4 -76 20 0 28 31 37 78 25z m-1790 -173 c-3 -41 -1 -46 22
-51 21 -5 25 -12 28 -46 l3 -41 -102 -47 c-136 -63 -147 -63 -179 -4 -24 45
-24 47 -7 82 11 24 38 50 84 80 38 24 81 58 98 75 28 30 30 31 43 14 8 -11 12
-37 10 -62z m-3340 -53 c-3 -7 -22 -25 -44 -40 -74 -52 -134 -53 -134 -3 0 35
42 54 118 55 47 0 63 -3 60 -12z m-1343 -8 c11 -19 -16 -40 -51 -40 -35 0 -49
12 -40 35 6 17 81 21 91 5z m4343 -42 c21 -21 15 -67 -12 -79 -34 -16 -66 3
-66 39 0 33 16 52 45 52 12 0 26 -5 33 -12z m1072 -102 c0 -20 23 -26 92 -26
77 0 141 -18 133 -38 -3 -7 -5 -18 -5 -23 0 -5 -20 -6 -45 -2 -29 4 -45 2 -45
-5 0 -42 -72 -52 -231 -31 -96 13 -117 23 -64 33 48 9 74 36 68 70 -4 19 0 27
13 32 11 3 26 9 34 14 18 9 50 -6 50 -24z m1695 4 c-21 -33 -231 -111 -297
-109 l-43 1 55 17 c40 12 58 24 68 43 17 35 76 55 170 57 34 1 51 -3 47 -9z
m-6435 -125 c-36 -27 -50 -31 -50 -16 0 15 42 41 64 41 16 0 13 -5 -14 -25z
m-240 -105 c-8 -5 -22 -10 -30 -10 -13 0 -13 1 0 10 8 5 22 10 30 10 13 0 13
-1 0 -10z m613 -42 c9 -5 17 -18 17 -28 0 -24 13 -27 61 -15 19 5 34 0 56 -19
56 -47 152 -26 222 48 41 43 51 45 51 10 0 -38 -14 -58 -70 -98 -50 -36 -61
-61 -38 -84 18 -18 46 -15 79 9 37 26 89 27 131 2 42 -25 47 -43 11 -43 -41 0
-103 -12 -103 -19 0 -3 16 -17 35 -31 59 -43 47 -54 -46 -46 -142 12 -488 90
-540 122 -7 4 -4 14 9 28 30 33 33 53 10 81 l-20 26 27 40 c24 37 29 40 58 33
18 -3 40 -10 50 -16z m4070 -17 c9 -35 -52 -71 -118 -71 -42 0 -50 12 -32 46
9 18 30 32 63 43 53 19 78 13 87 -18z m-4843 -31 c0 -5 -5 -10 -11 -10 -5 0
-7 5 -4 10 3 6 8 10 11 10 2 0 4 -4 4 -10z m4988 -32 c22 -22 14 -57 -13 -64
-38 -9 -75 3 -75 25 0 41 60 67 88 39z m-393 -138 c25 -49 41 -70 54 -70 10 0
47 22 82 49 35 27 65 48 67 46 2 -2 -14 -33 -35 -70 -36 -63 -42 -68 -108 -97
-38 -16 -88 -30 -110 -31 -36 -2 -40 0 -40 23 0 28 -34 50 -77 50 -47 0 -40
17 32 76 39 31 75 65 81 75 5 11 12 19 14 19 3 0 21 -31 40 -70z m-6165 10
c11 -11 20 -27 20 -35 0 -33 -120 -79 -143 -56 -13 13 18 87 42 101 26 15 60
11 81 -10z m8458 -89 c6 -41 -16 -50 -44 -18 -28 33 -23 49 14 45 20 -2 28
-10 30 -27z m-8302 -6 c23 -35 4 -57 -45 -53 -42 4 -53 29 -25 59 24 26 50 24
70 -6z m234 -44 c0 -35 -69 -67 -85 -41 -3 5 5 21 19 35 31 30 66 33 66 6z
m1561 -42 c10 -19 9 -20 -13 -14 -12 4 -36 13 -53 20 l-30 13 42 1 c33 1 45
-4 54 -20z m-43 -101 c15 -15 16 -38 2 -38 -18 0 -60 32 -54 41 8 13 38 11 52
-3z m4863 -71 c-15 -15 -21 -5 -14 22 5 21 7 21 16 6 6 -11 5 -21 -2 -28z
m-4764 -4 c-9 -9 -20 -14 -24 -10 -3 4 2 14 13 21 25 19 33 10 11 -11z m-1862
-168 c14 -13 25 -33 25 -45 0 -29 -44 -70 -74 -70 -28 0 -66 42 -66 72 0 25
44 68 70 68 12 0 32 -11 45 -25z m199 3 c13 -19 14 -25 3 -36 -17 -16 -44 -6
-52 19 -13 41 24 54 49 17z m2240 -177 c3 -5 -3 -11 -14 -14 -13 -3 -20 0 -20
9 0 15 26 19 34 5z m6070 -204 c36 -26 -4 -84 -41 -61 -25 16 -28 45 -7 61 10
7 21 13 24 13 3 0 14 -6 24 -13z m-6326 -119 c23 -23 14 -68 -19 -99 -38 -35
-104 -56 -125 -38 -32 26 -7 64 81 123 45 30 47 30 63 14z m-2588 -47 c0 -10
-97 -61 -117 -61 -7 0 -17 9 -23 19 -8 16 -6 23 12 35 24 17 128 23 128 7z
m2351 -31 c10 -6 19 -19 19 -30 0 -17 -3 -18 -32 -8 -43 14 -43 15 -28 33 15
18 16 18 41 5z m-2778 -151 c30 -16 37 -28 37 -67 0 -39 25 -52 100 -52 42 0
52 -4 66 -25 13 -19 21 -23 44 -18 21 4 37 -1 56 -16 15 -11 32 -21 38 -21 35
0 92 26 126 56 21 19 41 31 44 25 12 -19 -14 -61 -54 -86 -42 -27 -49 -45 -26
-64 11 -10 25 -8 62 9 42 20 50 20 82 8 48 -18 53 -38 10 -39 -18 0 -41 -4
-51 -7 -16 -7 -14 -10 14 -31 39 -29 24 -43 -36 -35 -117 16 -318 56 -375 75
-141 46 -279 142 -295 206 -9 37 18 71 62 78 21 4 43 8 48 10 18 6 26 5 48 -6z
m3077 -349 c8 -5 12 -12 8 -15 -10 -10 -49 5 -43 16 8 11 16 11 35 -1z m7535
-286 c44 -28 68 -57 79 -92 6 -19 2 -25 -29 -38 -39 -16 -173 -21 -237 -9 -20
4 -44 15 -52 24 -15 16 -15 19 1 33 10 9 43 28 75 43 31 15 64 35 74 46 23 25
42 24 89 -7z m-10237 -163 c10 -6 7 -10 -12 -15 -31 -8 -78 2 -70 15 7 11 65
11 82 0z m-428 -189 c63 -31 84 -36 135 -35 75 2 94 -3 104 -30 11 -29 -3 -53
-42 -77 -41 -25 -78 -25 -158 1 -106 34 -276 109 -294 129 -16 17 -15 19 7 31
67 37 145 31 248 -19z m149 -308 c23 -29 20 -44 -8 -44 -26 0 -44 25 -36 50 8
27 19 25 44 -6z m4651 -484 c0 -25 -50 -60 -85 -60 -47 0 -46 24 3 49 40 22
82 27 82 11z m5590 -23 c0 -41 -235 -96 -289 -68 -24 13 -27 33 -7 50 32 27
296 42 296 18z m-10420 -17 c0 -19 -45 -51 -68 -48 -33 4 -30 21 9 40 39 19
59 22 59 8z m4100 -45 c17 -20 5 -33 -38 -40 -20 -4 -45 -9 -54 -12 -25 -6
-23 16 4 44 24 26 69 30 88 8z m-4124 -197 l36 -32 58 32 c55 31 110 42 110
23 0 -27 -155 -101 -210 -101 -17 0 -49 9 -72 21 l-40 21 -54 -38 -55 -37 -39
18 c-76 34 -73 51 15 79 54 18 169 44 197 45 10 1 34 -13 54 -31z m464 -106
c0 -23 -19 -42 -42 -42 -27 0 -34 28 -12 45 27 20 54 19 54 -3z m9429 -16 c25
-26 21 -46 -8 -46 -24 0 -41 20 -41 47 0 30 21 29 49 -1z m-9615 1 c15 -11 17
-17 7 -35 -6 -12 -17 -22 -23 -22 -21 0 -99 51 -93 61 9 14 89 11 109 -4z
m9591 -103 c20 -21 15 -36 -16 -51 -32 -16 -83 -3 -88 22 -7 40 71 61 104 29z
m-1762 -81 c13 -12 -36 -53 -64 -53 -45 0 -44 19 3 40 48 22 52 23 61 13z
m-8018 -35 c36 -16 31 -28 -12 -28 -43 0 -84 18 -91 39 -4 11 4 13 36 7 23 -3
53 -11 67 -18z m7396 -28 c25 -14 24 -35 -3 -54 -28 -20 -62 -20 -78 -1 -9 11
-8 18 7 33 15 16 32 26 51 31 2 1 12 -4 23 -9z m-7131 -60 c36 -6 93 -24 126
-40 34 -17 68 -30 77 -30 8 0 31 19 51 43 l35 42 -5 -50 c-6 -49 -5 -50 25
-62 43 -16 40 -39 -6 -47 -85 -14 -306 -18 -426 -7 -143 12 -190 29 -185 64 2
18 13 24 52 31 34 6 50 14 53 27 10 36 86 47 203 29z m1291 -59 c-6 -10 -18
-21 -27 -25 -24 -9 -64 -7 -64 4 0 13 50 39 78 40 19 0 21 -3 13 -19z m-561
-72 c0 -23 -43 -43 -77 -34 -27 6 -30 26 -5 47 37 33 82 26 82 -13z m5410 -43
c0 -20 -69 -106 -86 -106 -47 0 2 105 53 113 15 2 29 5 31 6 1 0 2 -5 2 -13z
m-494 -127 c22 -15 63 -48 90 -73 l49 -45 -110 6 c-95 5 -113 3 -127 -11 -16
-15 -18 -15 -33 8 -21 31 -14 42 30 50 44 9 49 18 30 56 -29 56 -4 60 71 9z
m-1816 20 c0 -7 -5 -29 -11 -50 -14 -45 1 -95 32 -104 10 -4 19 -10 19 -15 0
-14 -43 -20 -210 -26 -172 -7 -264 2 -341 33 -50 19 -51 38 -3 30 44 -7 66 3
120 55 38 36 43 38 70 28 39 -16 113 -5 204 30 81 31 120 37 120 19z m-4030
-37 c0 -38 -90 -146 -107 -129 -13 13 12 72 46 108 41 43 61 49 61 21z m7386
-324 c-3 -13 -9 -33 -12 -45 -4 -16 2 -30 21 -49 14 -14 24 -29 20 -32 -3 -3
-94 -6 -203 -6 -175 -1 -203 1 -251 19 -30 12 -56 25 -58 30 -1 6 18 17 45 25
33 11 51 23 60 43 16 32 21 33 69 7 50 -27 120 -25 208 5 93 31 109 31 101 3z
m-6424 -154 c-7 -59 -4 -78 17 -96 22 -17 22 -18 5 -25 -11 -4 -95 -7 -189 -8
-146 0 -177 3 -219 20 -27 11 -51 25 -53 30 -2 6 16 17 39 25 29 10 47 24 56
43 16 32 18 33 57 7 41 -27 115 -26 201 4 77 27 90 27 86 0z"/>
<path d="M5261 11216 c-93 -24 -120 -47 -87 -72 25 -18 48 -18 119 1 75 19
109 42 105 69 -4 29 -34 29 -137 2z"/>
<path d="M4380 9775 c-14 -17 -8 -39 30 -115 50 -99 111 -132 118 -63 6 61
-78 193 -123 193 -7 0 -18 -7 -25 -15z"/>
<path d="M8895 9680 c-8 -16 -15 -41 -15 -55 0 -29 26 -85 39 -85 17 0 29 119
15 154 -9 24 -22 19 -39 -14z"/>
<path d="M2433 9418 c-20 -41 -22 -71 -8 -105 27 -64 49 -30 43 67 -3 58 -18
74 -35 38z"/>
<path d="M8827 9373 c-18 -17 -4 -53 33 -87 42 -37 67 -45 88 -24 37 37 -19
118 -81 118 -18 0 -37 -3 -40 -7z"/>
<path d="M8927 9152 c-10 -2 -22 -15 -27 -28 -10 -26 -27 -29 -77 -15 -18 5
-35 6 -37 2 -11 -16 90 -125 137 -150 52 -27 157 -42 157 -22 0 6 -8 11 -17
11 -10 0 -41 11 -69 24 -64 30 -84 68 -60 114 9 17 20 34 26 37 25 15 1 35
-33 27z"/>
<path d="M2373 9113 c-46 -18 31 -127 84 -121 23 2 29 8 31 36 6 56 -62 107
-115 85z"/>
<path d="M2432 8863 c-19 -26 -22 -27 -61 -17 -54 15 -54 1 2 -68 59 -73 106
-98 182 -97 l60 0 -54 19 c-96 33 -126 86 -82 148 27 38 26 42 -3 42 -15 0
-32 -11 -44 -27z"/>
<path d="M8840 8871 c0 -6 20 -24 45 -42 25 -18 43 -34 41 -36 -2 -2 -25 1
-50 8 -26 6 -50 9 -53 5 -4 -4 16 -30 45 -58 l51 -52 36 26 c44 31 145 127
145 138 0 7 -130 20 -212 20 -27 0 -48 -4 -48 -9z"/>
<path d="M2380 8613 c0 -6 17 -23 38 -39 20 -15 39 -29 41 -31 2 -2 2 -5 -1
-8 -3 -3 -24 2 -48 10 -24 8 -45 13 -47 11 -17 -17 78 -110 104 -102 24 8 159
144 150 152 -11 12 -237 18 -237 7z"/>
<path d="M8580 8523 c-78 -18 -95 -26 -95 -44 0 -19 77 -24 132 -9 52 15 85
46 63 60 -18 12 -18 12 -100 -7z"/>
<path d="M2160 8275 c-19 -7 -47 -14 -62 -14 -29 -1 -62 -27 -53 -42 8 -12 97
-11 132 2 44 16 65 39 52 56 -14 16 -23 16 -69 -2z"/>
<path d="M1434 7195 c-9 -22 2 -54 35 -107 23 -37 37 -48 56 -48 20 0 25 5 25
25 0 35 -34 99 -66 124 -32 25 -43 26 -50 6z"/>
<path d="M7128 1193 c-37 -9 -16 -23 34 -23 30 0 48 4 43 9 -13 11 -56 19 -77
14z"/>
<path d="M793 1044 c-28 -12 -10 -24 34 -24 29 0 43 4 38 9 -13 13 -57 21 -72
15z"/>
</g>
</svg>
