<?xml version="1.0" standalone="no"?>
<!DOCTYPE svg PUBLIC "-//W3C//DTD SVG 20010904//EN"
 "http://www.w3.org/TR/2001/REC-SVG-20010904/DTD/svg10.dtd">
<svg version="1.0" xmlns="http://www.w3.org/2000/svg"
 width="1280.000000pt" height="922.000000pt" viewBox="0 0 1280.000000 922.000000"
 preserveAspectRatio="xMidYMid meet">
<metadata>
Created by potrace 1.15, written by Peter Selinger 2001-2017
</metadata>
<g transform="translate(0.000000,922.000000) scale(0.100000,-0.100000)"
fill="#795548" stroke="none">
<path d="M5770 9201 c-15 -30 -12 -59 10 -81 19 -19 19 -19 -30 -17 -39 2 -53
-3 -74 -22 -35 -33 -33 -54 10 -89 38 -32 33 -49 -10 -32 -25 9 -49 39 -106
133 -38 62 -56 61 -64 -3 -10 -73 -30 -66 -72 25 -53 114 -64 101 -43 -51 6
-43 9 -102 7 -129 l-3 -50 -24 40 c-27 47 -103 144 -113 145 -4 0 -2 -15 3
-32 5 -18 9 -43 9 -55 0 -32 -33 -30 -50 2 l-13 25 -23 -21 c-23 -21 -24 -22
-82 -5 -67 18 -96 20 -87 6 3 -5 15 -10 26 -10 37 0 22 -38 -23 -61 -55 -28
-59 -34 -52 -95 6 -49 5 -52 -20 -58 -32 -8 -91 16 -129 51 l-27 27 -20 -21
c-12 -14 -27 -19 -40 -16 -14 4 -20 1 -20 -11 0 -24 -23 -19 -65 14 -48 38
-75 40 -75 3 0 -19 16 -42 60 -85 33 -32 60 -61 60 -65 0 -5 -7 -17 -15 -27
-19 -25 -19 -68 1 -131 18 -59 21 -154 5 -184 -17 -31 -43 -27 -41 7 3 44 1
52 -14 52 -25 0 -43 27 -50 73 -10 65 -55 130 -108 156 -25 12 -52 19 -61 15
-9 -3 -22 -27 -30 -52 l-13 -47 -120 3 c-173 5 -177 -7 -49 -154 36 -41 65
-80 65 -86 0 -7 -18 -9 -57 -5 -71 7 -63 -1 62 -72 50 -27 96 -55 103 -62 21
-18 -3 -34 -52 -34 -53 -1 -105 -37 -130 -90 -17 -34 -16 -37 3 -69 12 -18 21
-36 21 -40 0 -14 -29 -4 -66 23 -47 35 -113 54 -151 45 -15 -4 -47 -20 -71
-35 -24 -15 -67 -33 -95 -39 -69 -17 -87 -26 -119 -63 l-26 -32 -26 24 -26 24
-72 -16 c-66 -14 -78 -14 -150 1 l-78 16 -33 -32 c-22 -22 -43 -32 -64 -32
-16 0 -42 -9 -56 -20 -30 -24 -53 -26 -61 -5 -12 31 -64 17 -116 -31 -54 -51
-50 -51 -126 13 -28 24 -54 43 -58 43 -3 0 -6 -15 -6 -33 0 -48 -15 -57 -92
-57 -64 0 -69 -2 -103 -35 -47 -47 -75 -105 -75 -155 0 -35 6 -47 45 -85 38
-36 45 -49 43 -76 -1 -18 2 -34 7 -36 35 -12 116 -67 126 -84 6 -12 7 -19 2
-17 -62 31 -88 38 -116 33 -51 -10 -122 -50 -125 -71 -5 -30 -24 -74 -32 -74
-4 0 -10 23 -12 52 -6 56 -25 79 -59 71 -11 -3 -24 -14 -30 -24 -6 -12 -21
-19 -40 -19 -29 0 -34 4 -99 78 -21 24 -69 29 -115 12 -35 -13 -41 -37 -20
-76 20 -38 20 -39 -27 -62 -25 -13 -36 -28 -47 -62 -25 -83 -33 -94 -81 -106
-24 -6 -45 -15 -47 -21 -9 -26 152 -123 203 -123 38 0 43 -20 25 -90 -21 -78
-44 -125 -66 -134 -9 -3 -34 -6 -56 -6 -22 0 -67 -11 -101 -25 -34 -14 -72
-25 -85 -25 -14 0 -38 -15 -59 -35 -40 -40 -50 -42 -84 -15 -37 29 -60 26 -60
-7 0 -16 7 -37 15 -47 21 -27 19 -49 -5 -64 -26 -16 -17 -32 16 -32 28 0 28
-17 2 -33 -23 -15 -46 -2 -62 38 -8 19 -20 35 -26 35 -7 0 -32 -21 -56 -46
-25 -25 -50 -44 -57 -41 -8 2 -12 25 -12 61 0 48 -4 61 -24 77 -32 26 -35 25
-54 -18 -10 -21 -31 -62 -47 -92 -24 -42 -30 -65 -30 -112 0 -32 -4 -61 -10
-64 -5 -3 -23 21 -40 55 -17 33 -33 60 -37 60 -4 0 -17 -9 -29 -21 -18 -17
-26 -19 -44 -9 -33 18 -36 4 -6 -35 28 -37 93 -78 139 -89 29 -7 37 -33 12
-42 -21 -8 -113 15 -158 40 -37 21 -38 21 -52 2 -20 -27 -19 -65 2 -73 11 -4
22 1 31 15 19 28 22 28 66 -7 20 -16 68 -41 105 -56 77 -29 121 -68 124 -111
2 -23 -2 -30 -21 -32 -28 -4 -52 14 -52 39 0 23 -34 42 -60 34 -47 -15 -1 -64
102 -109 88 -39 85 -50 -10 -42 -63 5 -90 3 -118 -9 -34 -14 -39 -14 -61 0
-36 24 -106 119 -123 167 -11 31 -22 44 -38 46 -46 7 -38 -58 20 -176 31 -62
31 -63 12 -87 -10 -13 -32 -39 -47 -59 l-29 -35 32 -45 c45 -62 37 -81 -31
-73 -45 6 -49 5 -38 -9 18 -22 77 -50 122 -58 32 -6 38 -11 35 -29 -4 -32 27
-34 47 -3 16 24 16 28 -4 66 -29 57 -9 60 44 7 30 -29 45 -53 45 -70 0 -21 5
-26 27 -29 24 -3 42 -22 56 -62 1 -4 26 1 54 14 29 12 65 20 84 18 28 -2 36
-9 44 -34 l10 -32 25 20 c22 18 36 20 115 16 85 -5 145 -21 145 -39 0 -19 -88
-52 -150 -57 -88 -6 -104 -15 -97 -56 6 -40 1 -48 -38 -61 -22 -8 -31 -18 -33
-38 -3 -20 1 -27 14 -27 24 0 94 74 94 99 0 30 43 46 163 61 103 13 181 10
200 -9 18 -18 2 -23 -107 -31 -70 -5 -114 -13 -131 -24 -13 -9 -40 -16 -60
-16 -45 0 -49 -28 -5 -36 16 -4 35 -12 41 -20 18 -21 1 -35 -36 -28 -26 4 -38
1 -54 -15 -18 -18 -21 -33 -21 -97 0 -68 -2 -76 -17 -71 -95 31 -102 32 -124
10 -21 -21 -21 -21 -2 -39 11 -11 41 -31 67 -46 45 -27 46 -29 31 -51 -8 -13
-26 -30 -40 -37 -22 -12 -29 -10 -65 15 -24 16 -53 28 -70 27 -28 -1 -30 2
-30 39 0 58 -29 48 -45 -16 l-7 -30 -27 33 c-31 36 -46 40 -59 15 -9 -14 -10
-14 -16 5 -11 33 -55 40 -77 13 -27 -33 -60 -24 -82 21 -14 28 -25 38 -42 38
-34 0 -53 -23 -71 -88 -23 -81 -41 -112 -64 -112 -17 0 -20 6 -17 47 2 39 -1
48 -17 51 -11 2 -28 -7 -42 -21 -20 -22 -30 -25 -60 -20 -36 6 -37 5 -30 -18
18 -59 19 -69 2 -69 -29 0 -52 17 -92 70 -43 56 -64 64 -64 23 0 -44 39 -114
70 -125 29 -10 46 -46 30 -62 -5 -5 -19 -2 -34 8 -14 9 -30 16 -35 16 -6 0
-22 -25 -37 -56 l-26 -55 -59 3 c-85 4 -96 -13 -41 -60 27 -24 42 -45 42 -60
0 -26 30 -59 78 -84 38 -20 42 -46 7 -53 -14 -3 -37 -7 -51 -10 -27 -6 -74
-47 -74 -64 0 -11 21 -17 175 -52 l100 -22 -40 -13 c-274 -86 -313 -103 -299
-125 11 -18 52 -8 134 32 91 44 91 44 211 16 72 -16 141 -10 164 14 50 51 10
119 -69 119 -48 0 -48 0 -99 80 -13 19 -33 40 -45 46 -27 13 -18 24 18 24 33
0 81 -36 79 -59 -3 -35 2 -41 32 -41 28 0 31 2 25 25 -6 23 -4 25 16 20 13 -3
46 -11 73 -18 l50 -12 -3 -48 -3 -48 30 22 c38 28 101 30 154 4 59 -28 132
-98 124 -119 -15 -39 -138 -60 -204 -35 -15 5 -42 24 -60 41 l-32 31 -20 -34
c-12 -19 -21 -40 -21 -46 0 -20 48 -38 183 -68 70 -15 135 -34 145 -41 16 -12
16 -14 -1 -44 -18 -30 -18 -32 1 -68 37 -72 127 -106 166 -63 17 19 17 20 -3
31 -67 35 32 91 135 75 34 -5 47 -12 54 -29 10 -28 29 -36 85 -36 113 0 224
-55 209 -103 -6 -19 -3 -19 47 -13 153 19 156 19 202 -3 31 -15 63 -21 110
-21 68 0 80 -7 52 -30 -9 -7 -29 -30 -46 -51 l-30 -38 57 34 c70 42 156 64
179 45 21 -17 20 -23 -20 -70 -19 -23 -38 -54 -41 -69 -12 -54 -16 -61 -51
-93 -42 -39 -63 -84 -63 -133 0 -40 15 -47 24 -12 3 13 28 57 54 99 27 41 55
90 61 110 21 64 112 128 183 128 37 0 52 5 72 25 29 29 71 33 85 8 7 -14 23
-18 73 -18 51 -1 71 -6 103 -27 22 -15 78 -41 124 -57 137 -50 169 -85 73 -79
-47 3 -47 3 -44 -28 1 -16 -4 -43 -13 -60 -8 -16 -15 -47 -15 -69 0 -54 -8
-62 -67 -80 -27 -8 -68 -29 -89 -46 -28 -22 -46 -29 -64 -26 -14 3 -33 -1 -43
-8 -22 -16 -85 -22 -367 -35 -230 -11 -326 -28 -381 -66 l-38 -26 -48 28 -48
28 47 12 c26 6 67 23 91 37 49 29 117 99 117 121 0 8 12 23 26 33 21 16 25 25
22 58 l-3 40 -27 -45 c-49 -83 -174 -200 -198 -185 -23 14 -9 57 35 104 25 26
45 51 45 55 0 35 -134 -83 -146 -129 -13 -54 -46 -18 -41 45 1 17 -4 26 -17
28 -16 3 -18 -1 -13 -35 3 -21 11 -90 18 -153 15 -150 14 -148 42 -121 13 11
34 21 48 21 13 0 62 22 109 50 47 28 93 50 102 50 49 0 22 -54 -84 -171 -39
-43 -81 -95 -92 -115 -12 -20 -33 -43 -48 -52 -26 -15 -28 -15 -53 8 -24 23
-25 23 -46 4 -15 -13 -37 -19 -82 -20 -98 -2 -107 -3 -107 -19 0 -21 51 -27
181 -23 139 4 184 21 213 83 10 22 52 81 93 132 41 51 84 111 97 135 22 43 23
43 82 46 72 4 181 -14 212 -34 16 -11 33 -13 50 -8 39 11 53 6 90 -29 46 -43
58 -67 41 -78 -19 -12 -66 -11 -74 1 -15 25 -42 7 -73 -50 -18 -33 -46 -76
-63 -94 -16 -19 -29 -36 -29 -38 0 -2 16 -2 35 0 68 8 95 -47 76 -153 -6 -31
-9 -61 -6 -65 2 -4 35 1 72 11 78 22 125 24 153 7 22 -14 40 -10 187 44 116
42 127 37 131 -51 3 -64 11 -72 46 -46 31 23 46 18 46 -14 0 -34 17 -41 101
-41 73 0 156 16 196 37 27 14 35 15 45 4 11 -10 8 -17 -16 -36 -44 -35 -30
-55 39 -55 67 0 90 -11 99 -45 6 -22 12 -26 36 -23 21 2 35 -5 54 -25 38 -41
113 -38 216 8 90 40 88 40 134 18 33 -15 38 -15 102 6 111 36 334 64 334 42 0
-5 -46 -33 -102 -62 -138 -70 -250 -148 -388 -269 -141 -125 -185 -147 -316
-160 -137 -13 -198 -31 -354 -103 l-135 -62 -81 60 c-44 33 -95 68 -112 77
-17 9 -44 35 -59 58 -60 89 -83 110 -120 110 -43 0 -64 -11 -131 -68 -53 -45
-67 -46 -74 -7 -3 20 -41 34 -71 27 -16 -4 -16 -6 -3 -21 20 -22 29 -72 17
-90 -9 -14 -97 -17 -156 -5 -49 10 -16 -12 37 -25 105 -25 163 -8 279 79 112
84 133 80 182 -30 25 -57 50 -86 66 -76 8 6 34 -11 147 -93 30 -22 62 -35 90
-39 38 -4 53 1 122 42 145 85 309 130 429 119 95 -10 111 -1 245 118 157 142
276 232 358 271 36 16 115 54 175 84 223 108 547 167 596 108 10 -12 14 -11
23 8 21 44 80 62 198 63 117 0 152 -12 102 -36 -20 -10 -30 -24 -35 -48 -5
-23 -23 -49 -53 -77 -48 -44 -52 -65 -16 -84 14 -8 20 -4 30 20 16 38 152 168
185 176 27 7 210 -48 302 -90 61 -29 86 -67 81 -129 l-3 -41 -65 -11 c-72 -12
-90 -20 -90 -40 0 -17 14 -22 86 -30 126 -14 126 -15 190 -190 75 -208 185
-396 384 -660 130 -174 183 -257 194 -310 4 -16 21 -66 38 -110 26 -70 30 -89
26 -155 -6 -111 -43 -172 -184 -313 -63 -62 -114 -118 -114 -124 0 -15 63 -22
300 -33 107 -5 220 -14 250 -19 65 -11 448 -14 725 -4 l197 6 -5 57 c-5 63
-27 112 -97 215 -64 94 -131 230 -171 345 -30 87 -33 105 -33 215 0 120 44
591 65 694 7 36 21 64 39 82 l27 27 209 0 c236 -1 413 14 494 44 30 11 80 26
110 33 78 19 216 72 208 80 -5 6 -206 -22 -249 -35 -20 -6 -42 -17 -49 -25 -8
-9 -21 -13 -35 -9 -13 3 -26 1 -29 -5 -11 -17 -37 -13 -53 7 -27 34 -83 157
-83 184 0 24 6 29 43 39 23 7 90 13 148 13 l107 1 55 -52 c31 -29 59 -53 64
-53 69 -2 202 -25 265 -46 77 -26 84 -27 151 -16 74 13 86 9 87 -29 0 -34 40
-31 53 4 5 14 19 17 86 17 98 0 111 5 111 39 0 37 17 51 60 51 20 0 44 6 55
13 33 25 8 37 -75 37 -68 0 -82 3 -107 24 -34 28 -64 39 -87 30 -29 -11 -17
-34 28 -54 51 -21 62 -35 46 -55 -34 -42 -120 -20 -120 31 l0 25 -25 -19 c-76
-60 -382 -62 -528 -5 -36 15 -60 54 -42 71 4 4 61 6 127 4 132 -3 148 2 148
49 0 24 4 29 23 29 13 0 32 7 43 15 41 31 79 10 44 -25 -11 -11 -20 -22 -20
-24 0 -2 21 1 47 5 55 11 87 2 138 -37 20 -15 37 -25 38 -23 2 2 7 17 13 34
14 43 49 56 184 65 116 8 160 20 160 42 0 7 -15 9 -42 5 -27 -4 -52 0 -71 9
-17 10 -40 13 -58 9 -22 -5 -31 -2 -35 10 -9 23 0 28 69 36 34 3 103 19 152
35 l90 29 -40 7 c-22 4 -75 7 -118 7 -64 1 -86 -3 -127 -24 -85 -43 -140 -29
-140 35 0 25 -29 38 -41 19 -5 -8 -11 -33 -15 -56 -5 -36 -10 -43 -28 -43 -12
0 -31 -7 -42 -15 -31 -23 -45 -19 -34 11 16 42 12 45 -26 19 -41 -28 -79 -32
-88 -10 -7 18 52 50 121 65 69 15 73 17 67 35 -8 20 -78 20 -179 -1 -148 -30
-255 -9 -255 52 0 28 -9 34 -73 48 -103 23 -56 49 108 60 99 6 165 21 165 37
0 10 -71 6 -142 -7 -54 -10 -27 4 56 30 95 30 151 33 160 11 3 -8 15 -15 27
-15 19 0 20 4 15 33 l-6 34 138 81 c232 137 344 173 412 134 19 -11 68 -30
108 -42 39 -12 76 -29 80 -37 5 -8 7 -48 4 -88 -4 -68 -3 -74 19 -88 20 -13
162 -56 247 -74 38 -9 25 14 -57 100 -87 91 -106 120 -95 145 6 13 8 10 13
-13 l6 -30 90 -5 90 -5 -33 -18 c-18 -10 -30 -22 -27 -26 3 -5 29 -22 58 -39
113 -64 114 -99 2 -146 -6 -3 -4 -8 4 -14 23 -16 81 9 138 61 65 60 70 87 16
84 -32 -2 -37 1 -43 23 -4 16 -14 26 -28 28 -23 4 -55 40 -46 53 2 4 20 5 39
2 30 -5 38 -1 56 21 32 40 82 35 200 -20 92 -43 105 -46 221 -54 104 -8 132
-14 181 -38 31 -16 57 -27 57 -25 0 1 -16 24 -36 50 -34 44 -35 47 -17 63 24
23 108 50 155 50 22 0 61 -7 88 -16 39 -13 56 -14 81 -5 42 15 117 13 209 -3
88 -16 154 -41 145 -56 -9 -14 1 -13 73 10 77 24 125 25 143 4 11 -14 26 -15
88 -10 174 14 231 55 231 166 0 48 -12 66 -24 35 -14 -36 -114 -72 -130 -46
-9 15 4 40 25 46 10 4 33 18 49 32 23 18 30 33 30 59 0 19 -2 34 -4 34 -3 0
-26 -11 -52 -25 -52 -28 -125 -33 -179 -14 -31 12 -88 0 -228 -45 -43 -14 -48
-14 -54 0 -9 25 24 82 58 100 29 15 33 15 41 0 10 -18 45 -21 68 -6 13 9 13
12 -2 24 -10 7 -18 15 -18 18 0 3 25 8 56 12 68 8 124 30 124 50 0 12 -8 12
-62 0 -35 -8 -113 -30 -175 -49 -123 -39 -155 -42 -173 -20 -21 26 -50 18 -56
-15 -15 -70 -52 -55 -41 17 6 34 5 35 -13 18 -10 -9 -47 -23 -82 -31 -60 -14
-97 -32 -202 -97 -41 -26 -58 -29 -186 -38 -195 -14 -199 -12 -118 35 65 39
84 58 72 77 -8 14 -59 11 -103 -7 -28 -11 -44 -26 -57 -52 -28 -61 -42 -72
-93 -72 -49 1 -203 49 -208 65 -1 6 17 19 40 30 54 26 62 55 15 55 -18 -1 -44
-7 -58 -15 -51 -29 -208 -10 -217 26 -3 10 -14 21 -24 24 -10 4 -19 12 -19 19
0 17 35 31 121 50 71 16 167 53 290 110 42 19 95 38 117 42 36 6 43 11 53 43
16 49 212 246 255 255 17 4 52 25 78 46 55 46 89 50 170 21 78 -27 67 -38 -34
-33 -152 7 -110 -18 88 -53 75 -13 152 -27 170 -31 31 -6 33 -5 27 18 -9 36
10 40 119 26 83 -10 98 -10 140 6 44 17 106 67 106 87 0 15 -41 10 -68 -9 -40
-28 -89 -42 -143 -42 -42 0 -49 3 -49 20 0 10 -7 23 -17 28 -15 9 -14 10 3 15
60 18 273 52 389 63 113 10 455 116 455 140 0 7 28 26 62 43 66 33 113 43 66
13 -35 -21 -36 -32 -3 -32 42 0 91 26 119 62 49 65 31 81 -116 99 l-92 12 39
14 c84 29 107 85 60 141 -24 29 -98 62 -137 62 -28 0 -21 17 10 25 54 13 191
85 197 104 3 10 20 22 38 27 23 7 34 18 41 39 16 57 20 60 92 66 77 6 107 16
101 33 -6 19 -49 18 -165 -7 -61 -13 -112 -22 -112 -21 0 6 159 118 188 132
33 16 41 39 20 60 -20 20 -34 14 -95 -47 -61 -60 -154 -121 -185 -121 -25 0
-22 29 4 57 15 16 18 27 12 33 -15 15 -76 -29 -94 -67 -8 -18 -17 -33 -20 -33
-3 0 -15 16 -27 35 -32 48 -64 54 -179 30 -26 -6 -35 -2 -52 20 -24 30 -21 47
14 70 l25 16 -7 -35 c-6 -32 -4 -36 16 -36 14 0 24 8 27 21 5 18 11 19 58 14
45 -6 56 -4 89 18 39 27 112 41 181 35 l40 -3 -2 -44 -2 -44 34 33 c40 39 43
52 15 87 -11 14 -23 43 -26 65 -4 22 -14 43 -25 48 -30 16 -68 11 -81 -10 -9
-13 -24 -20 -46 -20 -42 0 -56 32 -49 115 8 83 1 92 -56 70 -58 -22 -73 -16
-87 35 -13 50 -34 60 -63 32 -19 -20 -20 -25 -9 -70 16 -60 11 -73 -38 -101
-42 -23 -71 -18 -84 14 -9 23 11 55 34 55 26 0 25 8 -2 29 -25 21 -19 51 11
51 38 0 86 80 58 97 -6 3 -38 5 -72 4 -45 -2 -65 2 -74 13 -11 13 -9 17 15 26
58 20 59 22 56 104 -3 71 -2 77 19 84 13 5 18 11 12 15 -6 4 -39 -2 -74 -13
-35 -10 -65 -17 -68 -15 -10 10 34 45 99 80 89 46 100 58 100 106 0 25 8 51
22 69 17 24 19 32 8 45 -7 8 -23 15 -36 15 -14 0 -30 10 -40 25 -18 28 -68 35
-77 11 -7 -18 9 -31 46 -40 43 -10 36 -43 -12 -56 -26 -7 -52 -25 -75 -52 -20
-23 -38 -39 -41 -36 -3 3 1 56 10 119 8 63 15 115 15 117 0 1 -29 -28 -64 -65
l-65 -68 -28 32 c-15 18 -39 33 -53 35 -19 2 -25 9 -25 27 0 19 7 27 32 33 29
7 32 13 35 50 2 24 9 44 18 48 137 63 228 131 201 149 -8 5 -12 20 -9 40 l4
30 -42 -39 c-52 -48 -94 -70 -134 -70 -28 0 -30 3 -28 28 3 26 1 27 -39 24
-43 -2 -66 14 -42 29 8 5 29 9 47 9 19 0 64 13 100 29 37 16 103 35 147 41 86
14 105 23 105 50 0 10 18 40 40 66 25 31 40 59 40 76 0 16 -3 28 -6 28 -3 0
-27 -17 -53 -39 -25 -21 -56 -44 -69 -50 -22 -12 -23 -11 -20 11 3 20 -1 23
-27 23 -30 0 -43 -16 -65 -79 l-11 -29 -35 42 c-52 61 -82 72 -214 83 -145 11
-161 6 -196 -64 -14 -29 -35 -63 -47 -75 -26 -29 -81 -47 -115 -38 -26 6 -26
7 -8 21 11 8 32 14 47 14 29 0 79 43 79 69 0 9 -9 25 -21 34 -16 14 -19 25
-14 47 6 26 3 31 -19 40 -28 10 -35 35 -12 43 7 3 35 9 61 12 36 6 49 13 58
32 18 40 -6 51 -43 19 -18 -14 -36 -24 -41 -20 -5 3 -9 38 -9 77 0 55 -5 79
-20 102 -27 40 -26 86 3 112 55 51 131 72 377 103 273 35 358 66 304 110 -13
11 -20 8 -44 -18 -16 -18 -33 -32 -38 -32 -21 0 -34 31 -29 66 10 58 -18 57
-72 -3 -25 -28 -56 -55 -68 -62 -12 -6 -78 -16 -145 -21 -68 -5 -145 -13 -173
-16 -45 -7 -49 -6 -37 8 22 27 80 49 123 46 34 -2 45 2 57 20 8 12 25 22 37
22 65 0 165 58 165 95 0 14 13 36 32 54 27 25 30 32 19 45 -15 18 -47 21 -56
6 -10 -17 -29 3 -74 80 -67 112 -109 129 -141 56 -33 -74 -60 -82 -60 -19 0
31 -2 33 -34 33 -38 0 -53 -14 -62 -58 -4 -17 -13 -37 -20 -43 -11 -9 -17 -4
-29 24 -8 20 -15 56 -15 79 0 73 -8 87 -51 94 -22 4 -39 10 -39 15 0 22 -29 4
-76 -47 -58 -63 -83 -67 -96 -18 -15 59 -106 72 -203 28 -41 -19 -67 -25 -91
-21 -19 3 -34 4 -34 3 0 -2 14 -20 30 -41 33 -41 38 -71 16 -100 -12 -17 -14
-15 -20 19 l-7 38 -74 -7 c-68 -7 -74 -6 -84 14 -8 14 -21 21 -42 21 -42 0
-47 -24 -11 -58 33 -31 54 -114 34 -134 -14 -14 -58 13 -66 40 -3 10 -35 34
-70 55 -51 29 -68 45 -86 82 -16 33 -28 45 -44 45 -42 0 -66 -55 -28 -66 36
-11 46 -22 60 -62 12 -36 18 -42 42 -42 21 0 36 -9 55 -34 17 -22 37 -36 60
-40 34 -7 85 -55 85 -80 0 -31 -91 -176 -109 -176 -5 0 -12 11 -15 25 -4 16
-13 25 -27 25 -17 0 -19 4 -13 35 l6 34 -34 -5 c-44 -8 -56 7 -69 88 -11 68
-27 101 -58 118 -30 16 -34 -4 -9 -46 35 -60 65 -272 40 -288 -4 -2 -27 8 -50
24 -44 29 -118 48 -132 34 -4 -5 -13 -26 -20 -47 -14 -43 -44 -65 -66 -46 -8
6 -14 17 -14 25 0 7 -12 24 -26 38 l-27 24 22 35 c12 20 21 51 21 75 0 32 7
49 31 76 17 20 28 40 24 46 -12 20 -71 11 -95 -15 -43 -45 -98 -24 -127 48
l-17 41 -31 -37 c-18 -20 -39 -37 -47 -37 -18 0 -88 74 -88 93 0 6 7 21 15 31
8 11 15 31 15 45 0 35 15 55 34 48 11 -5 16 -1 16 12 0 26 32 44 183 107 141
58 207 96 207 119 0 27 -21 26 -73 -3 -28 -16 -120 -57 -203 -92 -188 -77
-260 -113 -256 -129 3 -14 -51 -38 -107 -47 -53 -9 -54 9 -1 30 26 10 40 22
40 34 0 32 30 62 93 93 81 41 197 118 197 131 0 5 -29 -6 -65 -26 -76 -42 -85
-43 -111 -15 -23 25 -73 53 -82 45 -3 -4 4 -13 16 -22 42 -29 21 -74 -34 -74
-26 0 -36 -7 -52 -33 -20 -35 -81 -71 -110 -65 -11 2 -18 14 -20 33 -2 17 -14
39 -29 52 -31 26 -26 48 15 56 33 7 44 32 35 78 -9 47 16 72 119 113 51 21
117 51 147 67 29 16 58 26 62 23 5 -3 9 -20 9 -37 0 -46 10 -77 25 -77 14 0
35 50 35 82 0 32 61 86 154 136 49 26 91 53 94 60 6 19 -40 14 -73 -8 -41 -27
-45 -25 -34 12 13 47 12 53 -17 87 -32 39 -41 39 -49 1 -10 -44 -86 -123 -181
-186 -87 -58 -249 -124 -305 -124 l-30 0 18 33 c11 20 17 53 16 90 -1 69 17
77 44 20 23 -48 55 -55 79 -19 9 14 24 26 33 26 32 1 87 27 134 63 26 20 66
42 88 49 22 6 47 21 55 32 29 42 10 147 -29 154 -13 3 -17 -4 -17 -29 0 -27
-11 -43 -57 -89 -74 -71 -180 -140 -215 -140 -28 0 -28 1 -28 67 0 66 0 66
-20 48 -24 -22 -31 -17 -63 46 -12 24 -29 45 -38 47 -8 1 -36 -13 -62 -33 -51
-39 -48 -39 -90 19 -18 25 -34 14 -58 -38 -23 -50 -24 -80 -3 -100 26 -27 63
-18 127 29 33 25 67 45 76 43 28 -6 25 -77 -9 -178 -24 -74 -29 -103 -24 -140
6 -42 4 -49 -17 -64 -40 -28 -65 -20 -92 27 -32 54 -120 137 -145 137 -11 0
-25 7 -32 15 -10 12 -9 16 4 21 9 3 25 4 35 1 10 -2 25 -1 32 3 16 11 -2 35
-43 56 -36 18 -37 52 -3 92 34 40 32 49 -12 61 -71 20 -135 14 -198 -20 -31
-17 -60 -28 -63 -25 -3 3 18 30 46 60 29 30 52 59 52 64 0 16 -68 71 -95 78
-28 7 -31 20 -10 48 22 29 19 99 -5 127 -20 24 -20 24 -35 5 -8 -11 -15 -29
-15 -41 0 -29 -24 -60 -39 -51 -8 5 -10 19 -6 36 5 21 1 34 -14 49 -13 13 -21
34 -21 56 0 40 -9 44 -35 15 -46 -50 -85 -8 -85 92 0 39 -4 68 -10 68 -5 0
-10 -4 -10 -9 0 -5 -14 -23 -31 -40 -48 -49 -91 -39 -108 25 -10 37 -26 40
-52 10 -48 -56 -65 -15 -28 68 22 51 19 97 -9 129 -25 28 -47 20 -110 -38 -33
-30 -62 -55 -66 -55 -14 0 -4 39 19 70 14 18 23 35 21 38 -11 11 -65 -12 -106
-44 -24 -19 -45 -32 -46 -27 -1 4 -5 21 -9 37 -6 28 -6 28 -61 21 -64 -8 -74
-2 -104 61 -36 74 -85 84 -74 15 5 -31 2 -42 -17 -63 -26 -29 -69 -46 -69 -28
0 6 -21 33 -46 60 -35 37 -60 54 -97 65 -67 20 -95 19 -171 -6 l-65 -21 -34
21 c-19 11 -46 21 -60 21 -25 0 -57 23 -57 41 0 20 -68 8 -113 -21 -26 -16
-47 -33 -47 -37 -1 -5 -14 -23 -30 -42 l-30 -35 7 69 c5 59 4 70 -12 81 -26
19 -51 17 -72 -5 -14 -15 -30 -19 -66 -18 -42 2 -52 -2 -73 -27 -16 -18 -23
-35 -19 -45 4 -9 9 -22 12 -28 16 -39 -90 35 -113 78 -13 26 -13 30 0 35 9 3
29 -4 45 -15 37 -27 43 -26 30 2 -13 30 -53 53 -109 66 -55 12 -63 6 -100 -76
-16 -35 -34 -63 -39 -63 -18 0 -50 38 -56 67 -24 108 -79 111 -92 5 -3 -29
-12 -57 -21 -64 -12 -10 -19 -7 -42 21 -36 43 -41 63 -23 98 19 36 10 67 -23
82 -24 11 -31 9 -62 -17 -20 -15 -48 -50 -62 -78 -17 -31 -37 -52 -54 -59 -43
-15 -60 3 -66 71 l-5 59 -50 12 c-27 7 -62 22 -77 33 -33 25 -35 25 -48 1z
m-433 -285 c-8 -20 -47 -21 -47 -1 0 18 32 37 44 25 5 -5 6 -16 3 -24z m-192
-16 c0 -10 -8 -14 -22 -13 -26 3 -27 -3 -12 -66 5 -24 8 -46 5 -48 -9 -9 -45
18 -76 57 -37 46 -34 54 26 75 47 17 79 15 79 -5z m150 -40 c22 -18 19 -77 -4
-90 -28 -14 -77 -12 -90 4 -20 24 -29 71 -19 91 8 14 19 16 54 12 24 -2 51
-10 59 -17z m2559 -13 c12 -19 3 -32 -19 -24 -17 7 -21 51 -3 45 6 -2 16 -12
22 -21z m453 -41 c-4 -9 -16 -16 -27 -16 -24 0 -25 8 -3 32 19 21 40 9 30 -16z
m-2820 -48 c15 -17 14 -18 -25 -18 -55 0 -103 46 -76 73 8 8 79 -30 101 -55z
m-642 -20 c34 -37 36 -42 21 -53 -15 -12 -14 -15 11 -34 l28 -20 -28 -1 c-59
0 -127 58 -127 110 0 56 44 55 95 -2z m745 -29 c7 -12 9 -37 5 -60 -5 -26 -2
-48 9 -70 21 -42 20 -55 -4 -79 -27 -27 -40 -25 -40 5 0 17 -8 29 -25 37 -36
16 -33 63 6 116 17 23 28 49 25 57 -8 23 12 18 24 -6z m635 -69 c17 -32 20
-60 6 -60 -14 0 -28 23 -36 58 -8 41 9 43 30 2z m-1110 -80 c16 -16 26 -32 24
-35 -9 -8 -69 35 -69 50 0 23 13 18 45 -15z m-228 -35 c56 -38 78 -67 69 -92
-5 -12 -17 -14 -66 -8 l-60 7 -11 -31 c-12 -35 -39 -54 -63 -45 -27 11 -18 38
30 84 41 41 45 48 41 83 -3 20 -2 37 2 37 3 0 30 -16 58 -35z m971 -29 c4 -21
-14 -37 -35 -29 -14 5 -18 35 -6 47 12 12 38 1 41 -18z m-489 -17 c13 -39 14
-59 1 -79 -16 -24 -30 6 -30 63 0 54 13 61 29 16z m-1126 -16 c30 -16 31 -18
9 -21 -23 -4 -52 13 -52 29 0 13 7 11 43 -8z m937 -39 c50 -36 59 -51 23 -40
-19 6 -93 76 -80 76 4 0 30 -16 57 -36z m-680 -23 c16 -31 13 -63 -6 -59 -22
4 -58 53 -50 67 11 18 44 13 56 -8z m-140 -11 c16 -16 18 -25 10 -40 -21 -40
-100 -16 -100 30 0 34 59 41 90 10z m4278 -22 c-6 -16 -36 -34 -44 -26 -3 4
-4 14 -1 23 7 17 51 21 45 3z m-4188 -54 c11 -12 10 -18 -3 -32 -16 -15 -18
-15 -34 0 -13 14 -14 20 -3 32 7 9 16 16 20 16 4 0 13 -7 20 -16z m280 -44 c0
-15 -7 -20 -25 -20 -29 0 -33 15 -7 29 25 15 32 13 32 -9z m-375 -10 c4 -6 -7
-10 -25 -10 -18 0 -29 4 -25 10 3 6 15 10 25 10 10 0 22 -4 25 -10z m192 -47
c17 -48 -5 -73 -27 -33 -11 21 -5 60 10 60 4 0 12 -12 17 -27z m245 10 c19
-17 25 -53 9 -53 -12 0 -41 40 -41 57 0 17 10 16 32 -4z m2248 -153 c0 -16 -4
-30 -10 -30 -5 0 -10 14 -10 30 0 17 5 30 10 30 6 0 10 -13 10 -30z m-1496
-153 c12 -19 3 -32 -19 -24 -17 7 -21 51 -3 45 6 -2 16 -12 22 -21z m-2854
-342 c10 -13 11 -18 1 -28 -10 -9 -15 -8 -27 7 -8 11 -14 23 -14 28 0 14 27 9
40 -7z m4600 -50 c0 -13 -4 -27 -10 -30 -6 -4 -10 8 -10 30 0 22 4 34 10 30 6
-3 10 -17 10 -30z m-808 -67 c-10 -10 -16 -9 -28 4 -10 10 -14 23 -10 34 6 16
8 16 29 -4 17 -17 19 -24 9 -34z m-2962 23 c0 -22 -21 -33 -41 -20 -12 8 -11
12 5 24 26 20 36 19 36 -4z m-805 -36 c45 -45 25 -60 -32 -25 -18 11 -33 27
-33 35 0 23 38 18 65 -10z m6505 -17 c0 -14 -30 -48 -42 -48 -14 0 -9 32 8 51
17 19 34 17 34 -3z m-3050 -9 c6 -11 10 -28 8 -37 -3 -13 -8 -9 -21 15 -20 37
-21 43 -7 43 5 0 14 -9 20 -21z m3230 -29 c0 -15 -69 -80 -86 -80 -21 0 -3 30
37 64 32 27 49 33 49 16z m1663 -40 c53 -69 69 -110 57 -151 -6 -19 -10 -47
-10 -62 l0 -28 -30 18 c-27 16 -32 16 -40 3 -5 -8 -10 -23 -10 -32 0 -38 -42
-4 -61 49 -8 25 -5 52 16 142 15 61 30 111 33 111 4 -1 24 -23 45 -50z m217
-14 c0 -14 -4 -28 -10 -31 -6 -4 -10 7 -10 24 0 17 5 31 10 31 6 0 10 -11 10
-24z m-7932 -29 c3 -38 -5 -46 -26 -25 -13 13 -16 51 -5 62 14 14 28 -2 31
-37z m-158 7 c0 -18 -17 -26 -40 -19 -22 7 -27 31 -7 38 20 6 47 -4 47 -19z
m3258 4 c24 -27 46 -78 32 -78 -14 0 -90 75 -90 88 0 20 35 13 58 -10z m3108
-49 c12 -21 -21 -30 -87 -23 -56 5 -68 3 -76 -11 -11 -18 -113 -69 -113 -55 0
8 87 69 99 70 3 1 29 7 56 15 62 17 112 19 121 4z m-2348 -36 c-2 -10 -13 -19
-26 -21 -24 -4 -29 7 -10 26 18 18 40 15 36 -5z m4103 -18 c9 -16 20 -49 24
-72 6 -36 3 -45 -22 -72 -15 -17 -39 -32 -52 -33 -20 -3 -25 3 -35 37 -7 25
-20 44 -34 50 -28 12 -28 23 2 64 51 68 88 77 117 26z m-6067 -35 c28 -34 33
-50 15 -50 -15 0 -99 84 -99 99 0 18 54 -13 84 -49z m-1536 4 c2 -12 -4 -24
-12 -27 -19 -7 -40 18 -32 39 8 22 40 13 44 -12z m7163 -51 c-41 -66 -46 -94
-26 -133 19 -36 14 -84 -10 -116 -15 -18 -16 -18 -40 9 -25 28 -25 47 0 47 31
0 24 71 -10 83 -13 6 -14 10 -4 29 11 21 108 128 115 128 2 0 -9 -21 -25 -47z
m629 27 c27 -27 25 -47 -9 -79 -33 -31 -150 -96 -158 -87 -3 3 13 26 36 52 23
26 44 59 48 73 15 64 45 79 83 41z m-5530 -5 c0 -3 -9 -14 -20 -25 -14 -14
-18 -27 -14 -50 7 -35 3 -36 -37 -13 -37 22 -37 36 4 67 28 23 67 35 67 21z
m3716 -27 c9 -29 -27 -58 -71 -58 -18 0 -47 -11 -66 -25 -19 -13 -44 -32 -56
-41 -13 -9 -30 -14 -38 -10 -23 8 -18 35 10 48 13 6 28 24 34 39 9 27 14 29
59 29 36 0 54 5 67 20 24 26 52 25 61 -2z m-2794 -50 c-17 -17 -45 12 -36 36
6 16 8 16 28 -3 16 -16 18 -23 8 -33z m-4287 2 c0 -18 -43 -26 -57 -12 -16 16
2 33 30 30 16 -2 27 -9 27 -18z m5181 -27 c8 -30 -5 -56 -31 -61 -23 -5 -36
17 -28 48 8 36 12 40 33 40 13 0 22 -9 26 -27z m1064 17 c0 -6 -7 -27 -16 -48
-14 -35 -16 -36 -29 -18 -11 14 -12 24 -3 40 17 32 48 49 48 26z m-3202 -40
c24 -36 31 -94 10 -88 -22 8 -58 70 -58 100 0 37 17 33 48 -12z m6117 30 c9
-15 -14 -40 -36 -40 -22 0 -33 16 -25 35 6 17 52 20 61 5z m-5601 -42 c9 -35
7 -108 -3 -108 -14 0 -21 27 -21 81 0 51 13 66 24 27z m4836 10 c0 -19 -31
-159 -42 -190 -19 -51 -78 -28 -78 30 0 10 8 26 19 36 11 10 16 26 14 39 -3
14 7 35 27 60 31 37 60 49 60 25z m527 -24 c4 -11 -1 -22 -12 -30 -22 -17 -25
-17 -45 -4 -13 9 -12 13 9 30 28 24 40 25 48 4z m-9382 -24 c17 -7 14 -9 -13
-9 -20 -1 -31 3 -27 9 7 12 13 12 40 0z m4289 -12 c16 -25 2 -31 -32 -14 -45
23 -50 38 -12 34 18 -2 38 -11 44 -20z m4654 -30 c3 -36 -18 -66 -38 -53 -23
14 -2 101 23 92 7 -2 13 -19 15 -39z m-4771 14 c18 -11 34 -60 22 -68 -18 -11
-59 25 -59 51 0 25 14 31 37 17z m3136 -16 c8 -19 -1 -26 -35 -26 -30 0 -35 9
-16 28 16 16 45 15 51 -2z m1957 0 c0 -8 -9 -24 -20 -37 l-19 -24 -1 26 c0 24
16 49 32 49 4 0 8 -6 8 -14z m-4430 -15 c-1 -31 -62 -48 -68 -18 -2 11 5 20
20 26 23 8 48 5 48 -8z m-1930 -6 c17 -9 30 -20 30 -25 0 -11 -68 14 -84 31
-16 15 21 11 54 -6z m300 -4 c7 -14 7 -22 0 -26 -13 -8 -40 13 -40 31 0 21 28
17 40 -5z m5360 -3 c26 -28 55 -82 64 -123 10 -42 24 -55 56 -55 15 0 38 -9
51 -20 l24 -19 -28 -1 c-20 0 -41 -14 -75 -50 -26 -27 -53 -50 -59 -50 -19 0
-35 64 -24 94 10 25 9 26 -24 26 -24 0 -37 6 -45 19 -15 28 -12 51 5 51 13 0
12 6 -5 40 -24 48 -25 68 -3 92 21 24 38 23 63 -4z m-2113 -13 c7 -20 -24
-102 -48 -126 -14 -14 -34 -19 -79 -19 -68 0 -83 14 -56 54 21 34 48 40 91 21
52 -21 57 -20 49 20 -3 19 -4 42 0 50 7 20 35 19 43 0z m111 -7 c14 -18 -8
-82 -30 -86 -11 -2 -22 6 -29 22 -20 44 30 99 59 64z m-341 -24 c7 -19 -30
-59 -46 -50 -15 9 -14 39 1 54 17 17 37 15 45 -4z m2973 -13 c0 -14 -49 -50
-89 -67 -69 -29 -55 32 14 62 35 15 75 18 75 5z m-5522 -34 c3 -25 0 -28 -20
-25 -17 2 -24 11 -26 31 -3 25 0 28 20 25 17 -2 24 -11 26 -31z m1005 20 c3
-8 1 -20 -4 -28 -8 -12 -12 -11 -24 5 -8 11 -15 23 -15 28 0 14 38 9 43 -5z
m-2305 -49 c18 -18 14 -38 -8 -38 -15 0 -20 7 -20 25 0 27 9 32 28 13z m1701
-22 c32 -33 31 -74 -4 -103 -47 -41 -66 -28 -85 54 -12 51 -14 74 -6 77 22 10
71 -5 95 -28z m-682 -39 c8 -16 12 -31 10 -33 -7 -8 -67 69 -67 85 0 20 37
-15 57 -52z m393 22 c13 -49 4 -65 -34 -55 -32 8 -42 40 -22 71 24 37 44 31
56 -16z m2396 -24 c-19 -28 -43 -42 -54 -30 -4 3 8 20 26 37 39 34 53 31 28
-7z m663 9 c41 -9 40 -31 -4 -84 -19 -23 -35 -48 -35 -56 0 -20 -43 -28 -159
-29 -84 0 -106 3 -114 16 -18 28 0 68 39 84 20 8 49 26 66 40 16 14 36 25 43
25 23 0 28 -20 9 -41 -19 -21 -13 -24 17 -9 10 6 19 17 19 25 0 30 52 42 119
29z m1537 -19 c19 -28 12 -44 -10 -26 -17 14 -28 51 -15 51 5 0 16 -11 25 -25z
m808 -23 c13 -45 -5 -82 -39 -82 -38 0 -44 29 -12 52 21 16 26 25 21 45 -10
39 19 24 30 -15z m-6057 -38 c19 -20 32 -39 29 -41 -7 -7 -96 56 -96 67 0 22
35 8 67 -26z m-769 -17 c4 -20 -25 -34 -40 -19 -15 15 -1 44 19 40 10 -2 19
-11 21 -21z m387 -2 c0 -23 -30 -32 -50 -15 -27 22 -18 42 18 38 24 -2 32 -8
32 -23z m2121 -12 c-1 -31 3 -38 24 -43 30 -7 38 -41 14 -60 -14 -12 -19 -10
-43 18 -15 19 -42 37 -64 43 -48 13 -47 37 3 61 55 28 67 24 66 -19z m1544 33
c0 -2 -24 -18 -54 -34 -29 -17 -62 -42 -73 -56 -14 -17 -29 -24 -51 -24 -17 1
-42 -6 -56 -15 -33 -22 -36 -21 -36 4 0 30 60 85 105 97 22 6 67 15 100 20 33
5 61 10 63 11 1 0 2 -1 2 -3z m2630 -12 c0 -21 -123 -144 -145 -144 -15 0 -14
3 2 31 19 33 119 129 134 129 5 0 9 -7 9 -16z m-180 -2 c0 -29 -66 -91 -97
-92 -36 0 -36 18 -1 33 18 8 44 26 57 41 24 26 41 33 41 18z m-6362 -36 c-2
-13 -10 -21 -23 -21 -23 0 -33 34 -14 45 20 13 40 -1 37 -24z m1746 -8 c-29
-58 -64 -87 -64 -53 0 16 57 85 71 85 5 0 2 -15 -7 -32z m326 11 c15 -27 9
-64 -10 -64 -10 0 -16 13 -18 43 -3 45 10 56 28 21z m3938 -5 c56 -39 -9 -72
-85 -43 l-28 11 28 24 c33 28 54 30 85 8z m-5036 -21 c21 -19 24 -43 5 -43
-19 0 -37 21 -37 42 0 22 8 23 32 1z m-592 -45 c0 -12 -38 -10 -45 2 -4 6 -4
18 -1 27 6 14 9 14 26 -2 11 -10 20 -22 20 -27z m5820 13 c14 -34 7 -51 -20
-51 -23 0 -29 18 -17 53 12 35 22 34 37 -2z m504 -50 c-18 -45 -56 -81 -85
-81 -25 0 -24 8 10 62 54 85 107 99 75 19z m-5550 35 c-7 -19 -35 -29 -47 -17
-14 14 1 31 28 31 17 0 23 -4 19 -14z m-1044 -11 c35 -18 47 -54 30 -95 -16
-38 -46 -48 -72 -23 -38 39 -41 133 -3 133 9 0 29 -7 45 -15z m328 -52 c-2
-10 -13 -19 -26 -21 -24 -4 -29 7 -10 26 18 18 40 15 36 -5z m990 -31 c4 -24
-7 -29 -26 -10 -18 18 -15 40 6 36 9 -2 18 -13 20 -26z m5092 3 c0 -27 -9 -32
-28 -13 -18 18 -14 38 8 38 15 0 20 -7 20 -25z m-2367 -11 c12 -12 -7 -35 -44
-55 -49 -25 -54 -4 -8 35 31 27 41 30 52 20z m-3892 -24 c33 0 38 -3 44 -30 7
-31 50 -90 65 -90 5 0 6 16 3 35 -5 31 -3 35 16 35 29 0 28 -37 -4 -100 -25
-49 -88 -110 -148 -143 -31 -17 -32 -17 -35 4 -6 33 37 72 70 65 39 -8 36 12
-8 55 -49 47 -64 79 -64 141 0 40 3 49 12 40 7 -7 29 -12 49 -12z m6193 4 c30
-12 16 -35 -36 -58 -62 -28 -108 -40 -108 -28 0 20 85 82 127 92 1 0 8 -3 17
-6z m-6734 -22 c25 -20 20 -42 -8 -42 -24 0 -62 28 -62 46 0 20 43 18 70 -4z
m955 -19 c26 -39 32 -63 15 -63 -14 0 -50 60 -50 83 0 25 6 21 35 -20z m1735
30 c0 -12 -43 -53 -57 -53 -17 0 -16 11 3 38 14 20 54 31 54 15z m1900 -3 c0
-5 -10 -10 -23 -10 -27 0 -47 -17 -47 -41 0 -22 -43 -56 -86 -68 -19 -5 -43
-20 -54 -33 l-19 -23 -1 23 c0 16 14 32 47 55 26 17 65 49 88 69 38 36 95 52
95 28z m2376 -31 c4 -7 -2 -19 -14 -28 -11 -9 -22 -25 -24 -36 -2 -12 -13 -21
-25 -23 -12 -2 -36 -21 -54 -43 -19 -24 -39 -39 -52 -39 -22 1 -21 1 3 21 16
14 24 29 22 44 -7 53 119 144 144 104z m-5406 -31 c11 -18 19 -42 18 -53 -7
-50 -78 -10 -78 43 0 53 31 58 60 10z m-1432 0 c17 -17 15 -42 -6 -61 -24 -22
-32 -13 -32 35 0 39 15 49 38 26z m222 -13 c48 -36 90 -101 90 -141 0 -55 -19
-48 -22 8 -3 49 -5 53 -26 50 -13 -2 -25 3 -28 12 -4 9 -18 16 -34 16 -22 0
-30 6 -39 31 -19 55 5 64 59 24z m1630 5 c23 -23 40 -62 40 -92 0 -11 16 -38
35 -61 43 -50 112 -183 101 -194 -15 -15 -121 122 -135 176 -4 14 -20 32 -36
41 -32 18 -65 73 -65 111 0 44 26 53 60 19z m217 -72 c-2 -13 -4 -3 -4 22 0
25 2 35 4 23 2 -13 2 -33 0 -45z m-1097 -12 c0 -23 -9 -80 -21 -127 -35 -140
-89 -227 -89 -144 0 41 15 74 42 93 12 9 18 26 18 54 0 41 0 41 -21 22 -21
-19 -21 -18 -40 5 -18 22 -27 91 -12 91 3 0 15 -7 25 -16 17 -16 19 -15 34 22
9 21 21 45 26 52 18 21 38 -6 38 -52z m3600 50 c0 -8 -10 -22 -22 -30 -30 -22
-48 -3 -23 24 21 23 45 26 45 6z m2043 7 c8 -7 -21 -43 -35 -43 -10 0 -11 34
-1 43 8 9 28 9 36 0z m-4994 -20 c-23 -31 -53 -53 -74 -53 -14 0 -6 10 29 35
56 39 64 43 45 18z m-4729 -6 c0 -7 -7 -22 -15 -33 -15 -19 -15 -19 -30 0 -11
14 -12 23 -4 33 15 17 49 17 49 0z m3825 -58 c4 -17 4 -33 1 -36 -6 -6 -36 58
-36 78 0 23 29 -12 35 -42z m6629 45 c23 -9 20 -28 -6 -39 -14 -6 -24 -21 -26
-37 -3 -29 -22 -40 -22 -13 0 8 -9 24 -21 36 l-21 21 -22 -21 c-21 -20 -86
-51 -106 -51 -19 0 -10 36 15 60 36 34 165 61 209 44z m-10386 -37 c2 -9 -4
-20 -12 -23 -21 -8 -46 13 -39 32 8 20 47 13 51 -9z m8227 13 c10 -16 -14 -40
-41 -40 -26 0 -38 14 -30 35 6 17 62 20 71 5z m2370 1 c7 -13 -33 -34 -51 -27
-8 3 -14 12 -14 21 0 17 55 22 65 6z m-2509 -33 c-7 -36 -23 -58 -42 -58 -20
0 -17 17 7 56 26 43 44 44 35 2z m302 15 c-2 -10 -13 -19 -26 -21 -24 -4 -29
7 -10 26 18 18 40 15 36 -5z m-3598 -24 c17 -31 12 -49 -14 -49 -39 0 -56 11
-56 36 0 42 50 52 70 13z m2689 -32 c-26 -65 -67 -120 -85 -113 -7 3 -16 -3
-19 -13 -9 -31 -105 -89 -105 -65 0 4 27 35 60 71 37 39 60 72 60 86 0 13 6
30 13 39 16 22 79 58 88 52 5 -3 -1 -28 -12 -57z m-6849 27 c0 -20 -29 -30
-43 -15 -9 10 -8 16 7 26 21 16 36 11 36 -11z m65 6 c11 -12 15 -26 10 -37 -6
-16 -8 -16 -26 6 -34 41 -20 71 16 31z m6965 -14 c0 -14 -58 -66 -73 -66 -16
0 -5 24 24 51 34 32 49 36 49 15z m-3192 -29 c46 -31 51 -61 16 -99 -16 -16
-42 -37 -58 -45 -27 -14 -31 -14 -43 3 -17 24 -23 123 -9 160 8 20 47 12 94
-19z m2738 22 c11 -18 -11 -31 -47 -27 l-34 3 30 17 c36 21 42 21 51 7z
m-5016 -31 c33 -23 39 -46 10 -39 -21 4 -70 41 -70 52 0 16 26 10 60 -13z
m-2195 -8 c0 -19 -32 -25 -50 -10 -24 20 -17 31 18 28 20 -2 32 -8 32 -18z
m4135 7 c0 -8 -9 -22 -20 -32 -16 -14 -23 -16 -32 -7 -9 9 -7 16 7 32 21 23
45 26 45 7z m-891 -21 c7 -8 15 -30 18 -50 4 -29 2 -36 -10 -36 -16 0 -38 33
-51 78 -6 18 -3 22 12 22 11 0 25 -6 31 -14z m4973 -17 c13 -84 -37 -173 -83
-149 -27 15 -24 37 10 66 21 17 31 37 35 69 8 52 31 61 38 14z m-8007 -4 c30
-29 32 -51 5 -60 -29 -9 -70 20 -70 49 0 43 28 49 65 11z m4591 -30 c123 -57
198 -145 124 -145 -17 0 -37 9 -49 22 -20 20 -21 20 -27 2 -26 -74 -45 -105
-61 -102 -28 6 -21 63 12 93 30 29 25 45 -14 45 -35 0 -57 -16 -79 -59 -18
-37 -66 -61 -84 -43 -6 6 6 27 36 61 50 56 52 64 31 101 -8 14 -14 35 -15 48
0 19 4 22 28 16 15 -3 59 -21 98 -39z m-1002 20 c-18 -14 -18 -15 11 -39 35
-29 18 -36 -51 -21 -51 11 -22 75 33 75 26 0 26 -1 7 -15z m6106 -13 c0 -11
-55 -42 -74 -42 -24 0 -19 25 7 38 26 13 67 15 67 4z m-6304 -31 c57 -41 80
-69 63 -75 -8 -2 -31 -10 -52 -16 -28 -9 -42 -21 -55 -48 -21 -46 -49 -51 -90
-17 -35 29 -57 84 -48 120 18 70 111 88 182 36z m6589 -5 c15 -35 11 -66 -7
-66 -5 0 -14 14 -19 30 -6 17 -15 30 -20 30 -12 0 -36 -40 -44 -73 -7 -27 -53
-72 -63 -62 -3 3 3 12 14 20 19 15 19 15 0 30 -25 19 -46 19 -96 -1 -31 -12
-65 -15 -150 -12 -122 4 -159 19 -94 38 67 19 418 98 442 99 17 1 27 -8 37
-33z m-9661 -33 c-26 -34 -38 -38 -58 -18 -26 26 -19 42 22 52 48 13 61 0 36
-34z m3803 -10 c6 -49 -12 -67 -27 -27 -13 32 -3 91 12 76 5 -5 12 -28 15 -49z
m4478 47 c10 -16 -15 -40 -41 -40 -26 0 -31 19 -12 38 15 15 45 16 53 2z
m-4155 -31 c0 -8 -32 -29 -44 -29 -12 0 -6 38 7 43 15 5 37 -3 37 -14z m-2656
-10 c14 -11 26 -27 26 -36 0 -13 -9 -15 -45 -11 -51 6 -75 22 -75 49 0 27 59
26 94 -2z m-1613 -39 c30 -16 24 -40 -10 -40 -33 0 -46 13 -37 35 6 18 20 19
47 5z m3402 -10 c43 -34 87 -134 87 -199 0 -31 -4 -61 -8 -68 -11 -18 -49 -30
-119 -38 -70 -8 -81 -19 -28 -29 19 -4 37 -12 41 -18 13 -21 -77 -1 -101 22
-30 28 -45 96 -34 152 12 65 12 65 -30 24 -22 -21 -44 -37 -50 -35 -24 8 171
209 203 209 7 0 25 -9 39 -20z m2755 -25 c-21 -19 -45 -35 -55 -35 -19 0 -18
1 33 40 54 40 67 37 22 -5z m-6430 -8 c2 -9 -4 -20 -12 -23 -21 -8 -46 13 -39
32 8 20 47 13 51 -9z m1566 9 c-6 -17 -32 -28 -44 -21 -17 10 2 35 26 35 16 0
22 -4 18 -14z m90 -2 c21 -21 20 -34 -2 -34 -21 0 -42 18 -42 37 0 18 25 16
44 -3z m5131 6 c4 -6 -8 -10 -30 -10 -22 0 -34 4 -30 10 3 6 17 10 30 10 13 0
27 -4 30 -10z m2825 -33 l55 -25 -115 0 c-63 0 -126 3 -140 7 -25 7 -24 8 15
29 50 28 108 24 185 -11z m-4664 11 c7 -10 -20 -38 -38 -38 -12 0 -10 24 4 38
15 15 25 15 34 0z m5222 -34 c2 -11 -6 -32 -18 -47 -24 -30 -126 -94 -171
-107 -28 -8 -31 -7 -26 10 3 11 -3 31 -14 44 -39 50 -11 87 61 79 23 -2 52 5
85 21 58 29 79 29 83 0z m-9917 6 c11 -6 19 -21 19 -35 0 -20 -5 -25 -25 -25
-15 0 -29 -8 -36 -22 -12 -22 -12 -22 -20 -3 -27 70 6 115 62 85z m3847 -6
c26 -18 20 -34 -13 -34 -27 0 -39 14 -31 35 7 19 16 19 44 -1z m3762 9 c0 -13
-74 -83 -87 -83 -24 0 -13 38 18 64 28 24 69 35 69 19z m250 -2 c0 -16 -81
-80 -117 -92 -62 -20 -87 13 -35 49 49 35 152 64 152 43z m220 3 c0 -30 -59
-74 -100 -74 -29 0 -17 16 38 51 45 28 62 35 62 23z m1470 -10 c0 -2 -21 -4
-47 -3 -32 0 -42 3 -29 8 18 7 76 3 76 -5z m-9723 -26 c13 -12 23 -26 23 -31
0 -6 -11 0 -24 12 -18 17 -32 22 -50 17 -15 -3 -26 -3 -26 2 0 29 46 29 77 0z
m-139 -15 c4 -28 -1 -28 -39 -6 -38 23 -37 35 4 31 24 -2 33 -8 35 -25z m4682
-5 c32 -53 44 -97 32 -122 -6 -11 -13 -33 -16 -48 -9 -38 -57 -39 -91 -2 -30
32 -31 48 -5 81 11 14 22 41 26 62 12 73 23 79 54 29z m1630 18 c0 -18 -15
-36 -31 -36 -21 0 -26 25 -6 33 16 7 37 8 37 3z m-752 -54 c-2 -14 -8 -27 -15
-29 -14 -5 -28 40 -19 63 10 25 38 -3 34 -34z m-5088 3 c23 -19 53 -38 66 -41
14 -4 29 -14 34 -24 14 -26 12 -74 -2 -88 -19 -19 -56 -14 -63 8 -9 28 1 39
28 33 21 -5 20 -4 -7 25 -16 17 -45 37 -65 43 -35 11 -91 55 -91 71 0 22 61 5
100 -27z m1081 7 c18 -16 30 -34 27 -42 -3 -9 -15 -3 -41 20 -36 32 -46 50
-27 50 5 0 24 -13 41 -28z m6212 7 c6 -23 -1 -49 -13 -49 -10 0 -30 56 -23 64
13 13 31 5 36 -15z m-1033 -9 c13 -9 11 -13 -9 -31 -27 -22 -44 -21 -49 6 -6
29 29 44 58 25z m-4989 -39 c13 -11 21 -22 17 -26 -8 -8 -68 25 -68 37 0 14
27 8 51 -11z m2438 -12 c13 -37 14 -98 3 -117 -7 -9 -13 -8 -26 7 -23 26 -33
105 -16 126 18 22 27 19 39 -16z m161 -43 c-6 -19 -18 -40 -26 -46 -23 -20
-18 33 8 83 20 37 23 39 26 19 2 -12 -2 -38 -8 -56z m1385 64 c17 -7 14 -9
-13 -9 -20 -1 -31 3 -27 9 7 12 13 12 40 0z m2505 1 c0 -11 -92 -71 -109 -71
-23 0 -6 34 28 57 34 23 81 31 81 14z m-3687 -13 c8 -23 -12 -60 -30 -56 -24
4 -28 32 -8 52 20 19 31 20 38 4z m3107 -37 c-15 -29 -65 -26 -65 4 0 27 45
49 63 31 11 -11 11 -18 2 -35z m-3714 21 c21 -14 104 -134 98 -143 -14 -23
-146 15 -180 52 -17 19 -16 21 21 59 42 43 44 44 61 32z m4534 -7 c21 -25 8
-50 -29 -53 -32 -3 -187 26 -179 34 2 2 29 10 59 18 71 19 133 20 149 1z
m-5069 -15 l24 -19 -25 -1 c-25 0 -50 16 -50 32 0 15 27 8 51 -12z m5238 6
c14 -17 -5 -26 -54 -26 -35 0 -51 12 -40 30 9 15 81 12 94 -4z m389 -3 c-2
-10 -13 -19 -26 -21 -24 -4 -29 7 -10 26 18 18 40 15 36 -5z m-7568 -22 c0
-31 25 -44 74 -37 49 8 112 -12 122 -39 10 -26 -5 -65 -31 -77 -20 -9 -34 -6
-82 18 -35 18 -67 42 -80 63 -23 35 -31 91 -13 91 6 0 10 -8 10 -19z m3480 4
c9 -11 10 -19 3 -26 -14 -14 -53 6 -53 26 0 20 34 19 50 0z m260 6 c0 -5 -7
-14 -15 -21 -18 -15 -42 1 -31 19 8 13 46 15 46 2z m1150 2 c0 -12 -73 -83
-86 -83 -6 0 -14 9 -17 21 -8 31 -40 20 -48 -17 -12 -59 -39 -76 -39 -25 0 45
41 87 97 99 60 12 93 14 93 5z m-4012 -71 c4 -24 -7 -29 -26 -10 -18 18 -15
40 6 36 9 -2 18 -13 20 -26z m692 -7 c8 -24 29 -48 66 -76 61 -45 81 -71 90
-117 7 -36 0 -39 -50 -18 -36 15 -89 82 -130 163 -31 62 -33 83 -7 83 13 0 23
-11 31 -35z m468 7 c2 -13 -2 -22 -10 -22 -16 0 -40 35 -30 44 13 13 37 0 40
-22z m4337 18 c10 -16 -15 -40 -41 -40 -17 0 -24 6 -24 18 0 10 3 22 7 25 10
11 51 8 58 -3z m-7666 -11 c101 -18 151 -52 135 -93 -9 -24 -31 -20 -100 19
-70 39 -89 42 -116 18 -14 -13 -25 -14 -45 -7 -32 11 -42 34 -15 34 11 0 22 9
25 20 6 23 23 25 116 9z m4666 -5 c23 -23 15 -48 -17 -52 -56 -7 -92 39 -45
58 32 13 44 12 62 -6z m919 0 c9 -22 -12 -56 -32 -52 -29 6 -12 67 19 68 4 0
10 -7 13 -16z m-590 -20 c31 -30 12 -94 -28 -94 -28 0 -52 25 -62 64 -5 19 -2
31 7 37 22 14 66 10 83 -7z m864 -7 c4 -20 -25 -34 -40 -19 -15 15 -1 44 19
40 10 -2 19 -11 21 -21z m2262 13 c-8 -5 -22 -10 -31 -10 -28 0 -46 -33 -57
-105 -6 -38 -20 -81 -30 -95 -23 -31 -89 -55 -125 -46 -24 6 -27 11 -27 49 0
52 -22 87 -56 87 -34 0 -30 14 14 48 46 36 92 52 149 52 26 0 51 6 59 15 10
10 34 15 67 15 37 0 48 -3 37 -10z m-7172 -54 c2 -9 -3 -16 -11 -16 -20 0 -50
36 -42 50 9 14 49 -11 53 -34z m3370 21 c6 -5 12 -20 12 -33 0 -20 -5 -24 -33
-24 -37 0 -57 15 -57 42 0 33 43 42 78 15z m4047 -17 c9 -42 -7 -64 -46 -64
-27 -1 -37 -8 -56 -36 -56 -88 -74 -110 -103 -125 -53 -28 -82 18 -40 63 25
27 25 37 0 69 -22 28 -19 55 8 86 20 22 25 22 60 -8 19 -16 42 -25 64 -25 36
0 79 24 77 43 -6 45 26 42 36 -3z m-6430 -31 c32 -35 44 -59 30 -59 -3 0 -28
16 -57 35 -28 19 -62 38 -77 42 -43 10 -47 16 -16 29 39 16 76 2 120 -47z
m-2245 10 c9 -32 -7 -91 -23 -86 -14 4 -21 59 -12 94 7 30 27 26 35 -8z m2343
14 c-13 -2 -33 -2 -45 0 -13 2 -3 4 22 4 25 0 35 -2 23 -4z m1762 -47 c28 -7
61 -18 72 -25 l22 -11 -25 -25 c-32 -32 -33 -69 -1 -62 75 18 93 18 116 0 26
-21 40 -78 41 -163 0 -64 18 -142 49 -218 22 -55 27 -121 12 -150 -23 -45 -21
-69 9 -114 33 -50 31 -78 -5 -78 -28 0 -59 43 -50 70 5 16 2 20 -14 20 -12 0
-21 2 -21 5 0 2 14 32 31 65 20 39 29 71 27 92 -3 29 -11 37 -69 68 -36 19
-95 53 -130 76 -35 23 -86 54 -114 69 -27 16 -62 41 -77 56 -31 30 -38 79 -13
79 25 0 24 64 -2 92 -9 10 -19 34 -22 54 -7 41 -29 61 -56 50 -15 -6 -17 -15
-12 -69 3 -34 9 -71 12 -82 4 -11 -10 7 -29 40 -20 33 -36 72 -36 87 0 32 32
65 75 77 46 14 154 12 210 -3z m-3925 -11 c18 -22 -1 -39 -34 -31 -35 9 -36
46 -2 46 13 0 29 -7 36 -15z m535 -21 c60 -28 90 -57 82 -79 -9 -23 -35 -18
-117 21 -113 54 -144 75 -128 86 20 14 106 -1 163 -28z m4175 16 c9 -16 8 -22
-4 -26 -21 -8 -36 3 -36 27 0 25 26 25 40 -1z m3936 -27 c-22 -40 -55 -77 -63
-69 -9 9 10 46 43 85 31 38 44 28 20 -16z m361 21 c8 -23 -33 -62 -49 -46 -9
9 -9 18 0 37 13 28 39 33 49 9z m-8261 -7 c9 -9 -9 -37 -22 -37 -23 0 -65 31
-58 42 6 9 70 5 80 -5z m1192 -22 c29 -15 69 -49 90 -74 50 -63 71 -78 112
-86 19 -4 58 -20 86 -36 28 -15 93 -40 144 -53 99 -27 117 -37 105 -56 -13
-21 -149 -4 -281 34 -67 20 -155 41 -195 46 -41 6 -94 14 -119 18 l-45 7 -8
70 c-12 96 -19 102 -107 87 -92 -16 -130 -15 -130 1 0 49 83 78 210 74 71 -3
93 -8 138 -32z m307 14 c7 -7 4 -15 -9 -25 -22 -15 -52 -10 -76 12 -13 13 -13
16 0 25 17 11 69 4 85 -12z m1169 15 c9 -3 16 -15 16 -26 0 -28 -34 -19 -38
10 -4 24 -2 25 22 16z m-3009 -74 c118 -38 199 -70 215 -84 14 -13 37 -26 52
-30 15 -3 30 -15 33 -27 4 -13 34 -34 82 -57 76 -36 97 -57 72 -72 -8 -6 -25
-2 -46 11 -36 23 -105 44 -308 95 -189 47 -193 49 -207 96 -15 50 -31 61 -139
94 -49 15 -89 32 -89 37 0 6 28 8 73 4 50 -3 130 -24 262 -67z m7230 60 c4 -6
-12 -29 -34 -51 -41 -41 -61 -44 -61 -8 0 42 76 89 95 59z m-2425 -8 c0 -25
-34 -52 -66 -52 -41 0 -38 12 10 41 32 20 56 25 56 11z m-4205 -12 c17 -7 14
-9 -13 -9 -20 -1 -31 3 -27 9 7 12 13 12 40 0z m2235 -51 c0 -5 -4 -9 -9 -9
-12 0 -28 21 -35 50 l-7 25 25 -28 c14 -15 26 -32 26 -38z m7095 36 c0 -13 -8
-21 -22 -23 -17 -3 -23 2 -23 16 0 10 3 22 7 26 13 13 38 1 38 -19z m-1429
-22 c-8 -35 -41 -63 -72 -63 -32 0 -30 8 13 52 45 46 68 50 59 11z m-8801 -11
c78 -8 157 -36 159 -57 2 -17 -86 -17 -203 -1 -62 9 -139 16 -171 16 -54 0
-60 2 -60 21 0 15 5 19 18 15 9 -3 28 2 42 10 18 10 41 13 80 9 30 -3 91 -9
135 -13z m2623 -4 c3 -14 -3 -18 -26 -18 -35 0 -45 9 -30 27 15 19 52 12 56
-9z m4760 -4 c2 -11 -7 -33 -19 -48 -21 -27 -23 -27 -36 -10 -17 23 -17 27 8
58 24 30 42 30 47 0z m-4962 -19 c40 -23 64 -59 50 -73 -4 -3 -30 17 -59 46
-57 58 -55 65 9 27z m2254 7 c38 -18 63 -72 53 -111 -8 -30 -32 -26 -88 14
-59 41 -75 65 -45 65 26 0 25 7 -2 31 l-23 18 35 1 c19 0 51 -8 70 -18z m175
-3 c8 -25 1 -34 -20 -26 -19 8 -20 47 -1 47 8 0 18 -9 21 -21z m2025 -5 c0
-17 -24 -29 -40 -19 -8 5 -6 13 6 26 18 20 34 17 34 -7z m-5216 -13 c10 -11
16 -28 14 -38 -5 -26 -64 -21 -92 7 -21 21 -21 21 -2 36 27 20 60 18 80 -5z
m2563 -38 c7 -18 13 -44 13 -58 0 -26 4 -29 52 -39 16 -4 35 -20 49 -43 33
-55 67 -90 132 -135 52 -36 57 -41 41 -52 -13 -10 -15 -21 -11 -44 8 -38 7
-38 -42 -12 -21 10 -67 24 -102 29 -53 9 -69 16 -91 43 -33 38 -53 97 -68 196
-6 41 -17 90 -25 109 -12 27 -12 39 -4 50 15 18 37 0 56 -44z m2880 30 c-22
-25 -77 -56 -77 -44 0 14 59 61 77 61 15 0 15 -2 0 -17z m-4798 -35 c62 -32
112 -80 98 -94 -13 -13 -317 99 -317 116 0 14 32 19 94 15 43 -2 78 -13 125
-37z m744 25 c11 -10 -13 -33 -34 -33 -18 0 -26 20 -12 33 8 9 38 9 46 0z
m3081 -2 c3 -5 -15 -14 -40 -21 -35 -10 -48 -10 -57 -1 -9 9 -8 14 3 21 19 12
87 13 94 1z m-890 -40 c19 -21 46 -101 46 -137 0 -29 -14 -33 -79 -20 -94 19
-116 82 -51 147 33 34 60 37 84 10z m4829 5 c7 -19 -18 -40 -38 -32 -15 6 -20
28 -8 39 12 12 41 7 46 -7z m-1813 -53 c0 -59 -67 -134 -106 -119 -32 12 1
105 52 145 32 25 54 14 54 -26z m1113 41 c3 -4 -9 -25 -28 -47 -32 -37 -47
-87 -27 -87 4 0 31 18 61 40 83 62 116 50 38 -14 -81 -66 -127 -64 -127 5 0
59 57 129 83 103z m366 -8 c16 -19 -22 -46 -64 -46 -36 0 -72 -33 -104 -97
-26 -52 -45 -63 -110 -63 -80 0 -69 20 52 94 15 9 35 32 44 50 8 19 32 43 52
55 42 24 113 28 130 7z m-475 -5 c3 -4 -17 -20 -44 -35 -39 -21 -60 -26 -102
-24 -89 5 -66 43 36 58 73 11 104 11 110 1z m-8224 -26 c15 -18 5 -35 -20 -35
-10 0 -22 5 -25 10 -7 11 12 40 25 40 4 0 13 -7 20 -15z m427 -8 c43 -23 108
-75 102 -82 -5 -5 -131 49 -163 70 -58 38 -7 48 61 12z m2043 -13 c0 -16 -26
-19 -35 -4 -4 6 -4 18 -1 27 5 12 9 13 21 3 8 -7 15 -19 15 -26z m4580 12 c0
-44 -92 -128 -120 -111 -21 13 -8 41 40 87 56 54 80 61 80 24z m525 15 c8 -14
-37 -43 -49 -31 -6 6 -4 15 4 25 14 17 36 20 45 6z m-3996 -27 c25 -32 27 -52
6 -60 -21 -8 -42 11 -48 44 -9 49 10 56 42 16z m-2928 -3 c19 -16 22 -22 11
-32 -17 -18 -95 9 -100 34 -5 24 58 23 89 -2z m-473 -3 c8 -8 8 -17 0 -32 -22
-42 -48 -47 -48 -10 0 17 -6 28 -20 31 -11 3 -20 9 -20 14 0 13 74 11 88 -3z
m6550 -23 c9 -18 8 -26 -4 -36 -11 -9 -13 -23 -9 -51 8 -46 -8 -51 -30 -9 -12
24 -23 30 -52 33 l-38 3 47 47 c50 50 68 53 86 13z m-2840 9 c28 -19 28 -36 1
-60 -20 -18 -21 -18 -35 1 -18 24 -18 75 -1 75 7 0 23 -7 35 -16z m2212 -1 c0
-20 -28 -53 -47 -53 -21 0 -15 37 9 54 29 20 38 20 38 -1z m-6166 -40 c100
-71 96 -113 -11 -113 -82 0 -113 25 -113 93 0 24 3 47 8 51 13 14 76 -3 116
-31z m491 1 c70 -18 154 -29 281 -38 99 -7 186 -16 192 -20 23 -14 2 -24 -65
-31 -38 -3 -86 -16 -108 -27 -35 -18 -52 -20 -127 -15 -49 3 -88 2 -88 -2 0
-30 174 -141 221 -141 9 0 33 16 53 36 28 27 37 43 33 60 -7 38 15 48 68 31
41 -14 49 -14 91 0 54 18 78 7 56 -27 -6 -11 -12 -39 -12 -63 0 -42 -1 -44
-25 -39 -34 6 -32 -13 5 -48 37 -34 37 -50 4 -89 -31 -37 -40 -38 -64 -8 l-19
22 5 -35 c5 -29 1 -40 -21 -63 -28 -27 -107 -57 -153 -57 l-24 0 22 34 c24 40
11 59 -17 25 -45 -56 -52 -59 -110 -59 -59 0 -250 -15 -335 -26 l-48 -6 0 224
0 224 88 -1 c71 0 87 3 87 15 0 12 -14 14 -77 12 -64 -3 -78 -1 -78 12 0 25
-16 27 -43 6 -30 -24 -60 -26 -77 -5 -16 19 -7 31 55 71 30 18 56 38 60 44 10
16 64 12 170 -16z m2128 -22 c59 -32 171 -135 165 -153 -14 -43 -85 -35 -95
11 -4 23 -11 30 -28 30 -19 0 -23 7 -28 41 -3 23 -13 49 -21 58 -15 14 -16 12
-16 -17 0 -38 -16 -41 -54 -11 -24 19 -35 57 -19 72 9 10 38 0 96 -31z m5627
13 c0 -18 -50 -45 -83 -45 -29 0 -57 27 -36 34 8 2 28 9 44 14 45 15 75 14 75
-3z m-8765 -8 c28 -21 0 -32 -30 -13 -14 9 -25 19 -25 21 0 10 37 4 55 -8z
m4309 -17 c34 -41 48 -93 34 -130 -6 -18 -17 -30 -27 -30 -25 0 -131 117 -131
144 0 16 50 45 77 46 12 0 33 -13 47 -30z m1211 10 c17 -7 14 -9 -13 -9 -20
-1 -31 3 -27 9 7 12 13 12 40 0z m1585 -5 c19 -23 8 -50 -19 -47 -13 1 -39 -7
-58 -18 -19 -11 -36 -20 -39 -20 -11 0 28 60 52 79 31 25 47 26 64 6z m1335 5
c16 -7 11 -9 -20 -9 -29 -1 -36 2 -25 9 17 11 19 11 45 0z m-587 -17 c-4 -21
-54 -51 -65 -39 -8 8 44 56 60 56 5 0 7 -8 5 -17z m752 -12 c0 -11 -8 -29 -19
-42 -17 -21 -22 -22 -46 -11 -32 15 -29 30 14 59 36 24 51 22 51 -6z m-1660 6
c0 -18 -39 -53 -73 -66 -37 -14 -84 -14 -93 0 -8 13 9 25 80 56 59 25 86 29
86 10z m-6825 -22 c0 -23 -34 -33 -45 -14 -13 20 1 40 24 37 13 -2 21 -10 21
-23z m1581 4 c12 -13 27 -19 42 -16 26 5 42 -17 24 -35 -13 -13 -71 14 -103
48 -22 23 -22 24 -2 24 11 0 28 -9 39 -21z m3004 10 c0 -12 -99 -119 -111
-119 -23 0 -5 44 34 85 41 42 77 58 77 34z m-1977 -68 c-5 -48 -5 -48 26 -54
37 -8 50 -32 29 -53 -21 -21 -60 -1 -94 47 -23 34 -25 41 -13 56 12 16 51 52
56 53 1 0 -1 -22 -4 -49z m5654 19 c15 -31 41 -50 68 -50 12 0 29 -6 39 -13
16 -12 17 -16 5 -35 -16 -26 -37 -28 -65 -7 -10 8 -25 15 -31 15 -21 0 -15
-31 7 -37 28 -7 25 -35 -7 -68 -26 -26 -80 -55 -103 -55 -5 0 -19 9 -30 20
-27 27 -26 75 2 94 l22 16 -32 33 c-18 18 -32 38 -32 45 0 17 34 15 69 -5 28
-17 31 -17 47 -1 22 22 12 46 -28 63 l-33 15 45 -3 c36 -2 47 -7 57 -27z
m-8383 -21 c27 -21 56 -68 56 -90 0 -8 -14 -10 -45 -7 -60 7 -78 23 -69 61 6
29 6 29 -27 22 l-34 -7 19 21 c24 27 66 27 100 0z m4806 7 c0 -18 -38 -46 -62
-46 -24 0 -23 15 2 40 23 23 60 27 60 6z m3312 -13 c21 -24 68 -119 68 -138 0
-10 -10 -15 -29 -15 -39 0 -61 -9 -61 -26 0 -7 -11 -21 -24 -29 -30 -20 -121
-31 -130 -17 -19 31 72 152 114 152 53 0 66 29 25 56 -14 9 -22 20 -19 25 9
15 40 10 56 -8z m-5204 -16 c28 -33 24 -73 -16 -149 -2 -5 18 -17 45 -28 26
-12 54 -28 61 -37 16 -21 16 -83 0 -83 -23 0 -85 51 -117 95 -34 48 -40 80
-15 89 12 5 15 18 14 59 -2 28 -2 55 -1 60 2 11 17 8 29 -6z m4140 -9 c2 -10
-17 -31 -51 -57 -29 -22 -59 -53 -66 -68 -26 -54 -28 -58 -42 -58 -8 0 -18 10
-24 22 -11 27 -31 36 -57 27 -13 -4 -17 -11 -13 -24 7 -23 -11 -35 -30 -20
-13 10 -13 16 0 40 13 26 67 55 78 43 15 -15 47 13 63 53 21 55 36 65 94 61
33 -1 46 -7 48 -19z m-6388 -17 c5 -11 10 -30 10 -43 0 -13 9 -39 19 -58 50
-89 61 -118 61 -162 0 -25 -3 -53 -6 -62 -10 -25 -43 -19 -50 9 -3 14 -11 25
-16 25 -17 0 0 -60 27 -91 25 -30 24 -59 -1 -59 -8 0 -40 25 -70 55 -60 59
-64 61 -81 44 -6 -6 -20 -8 -30 -5 -28 9 -84 66 -99 101 -13 30 -13 30 -14
-22 0 -28 -4 -54 -9 -58 -14 -8 -49 41 -63 87 l-12 40 71 67 c40 36 77 77 83
89 25 51 158 83 180 43z m8195 9 c4 -6 -7 -10 -24 -10 -17 0 -31 5 -31 10 0 6
11 10 24 10 14 0 28 -4 31 -10z m962 -13 c15 -15 14 -17 -11 -27 -36 -13 -173
-13 -182 1 -25 41 154 65 193 26z m-8532 -28 c37 -32 44 -49 22 -49 -16 0 -67
52 -67 68 0 18 6 15 45 -19z m5412 10 c-12 -7 -27 -7 -45 0 -25 9 -24 9 18 10
36 0 41 -2 27 -10z m808 -12 c-17 -27 -62 -54 -71 -44 -9 9 54 67 72 67 12 0
12 -4 -1 -23z m-6757 -25 c4 -24 -7 -29 -26 -10 -18 18 -15 40 6 36 9 -2 18
-13 20 -26z m5774 6 c47 -18 48 -58 2 -58 -35 0 -64 -17 -58 -34 8 -20 -35
-32 -52 -14 -11 11 -11 21 -2 53 22 74 36 82 110 53z m2593 -3 c0 -15 -8 -21
-32 -23 -36 -4 -42 8 -17 33 21 21 49 15 49 -10z m-5765 -15 c0 -12 -43 -30
-68 -30 -14 1 -12 4 7 20 25 21 61 27 61 10z m170 -21 c14 -25 12 -39 -5 -39
-16 0 -35 30 -35 54 0 20 27 10 40 -15z m838 3 c2 -13 -2 -22 -10 -22 -16 0
-40 35 -30 44 13 13 37 0 40 -22z m552 19 c0 -16 -30 -33 -46 -27 -13 5 -14 9
-4 21 13 16 50 21 50 6z m1755 -11 c4 -11 3 -35 0 -52 -7 -30 -8 -31 -21 -13
-19 25 -18 85 0 85 8 0 18 -9 21 -20z m1125 14 c0 -12 -41 -58 -71 -80 -51
-37 -82 -8 -36 33 38 36 107 66 107 47z m-7865 -24 c8 -26 -4 -100 -16 -100
-25 0 -39 86 -17 108 17 17 26 15 33 -8z m1884 7 c14 -18 4 -27 -31 -27 -43 0
-35 36 8 39 6 1 17 -5 23 -12z m6789 1 c17 -17 15 -58 -2 -58 -23 0 -48 41
-34 57 13 16 21 16 36 1z m966 2 c31 -11 33 -29 7 -61 l-20 -24 -15 38 c-17
40 -44 49 -66 22 -11 -13 -9 -20 11 -41 l24 -25 -20 -36 c-23 -41 -57 -69 -97
-79 -23 -5 -28 -3 -28 13 0 14 -13 22 -60 34 -33 9 -60 13 -60 10 0 -3 9 -17
20 -31 24 -31 25 -66 2 -79 -9 -5 -71 -14 -137 -21 -111 -10 -260 -36 -277
-46 -5 -3 -8 -1 -8 4 0 15 92 71 128 78 18 4 32 12 32 18 0 16 54 66 115 106
28 18 66 48 85 66 22 21 55 39 90 48 63 17 236 21 274 6z m-9940 -42 l39 -32
-23 -18 c-12 -10 -32 -18 -44 -18 -20 1 -20 2 -3 14 22 17 22 28 -4 60 -28 35
-12 33 35 -6z m441 12 c-14 -16 -16 -29 -10 -76 l7 -57 -33 7 c-51 10 -69 32
-69 87 0 54 4 57 74 58 48 1 49 1 31 -19z m1990 0 c18 -20 17 -40 -6 -97 -12
-28 -11 -39 4 -80 16 -42 16 -48 2 -70 -9 -12 -19 -23 -23 -23 -4 0 -38 -5
-75 -10 -109 -16 -170 -55 -187 -121 -13 -47 -76 -104 -168 -152 -84 -44 -287
-127 -310 -127 -29 0 -42 21 -42 67 0 55 -22 109 -63 151 -40 41 -43 95 -7
124 21 17 36 19 94 16 60 -3 71 -7 90 -31 17 -22 30 -27 61 -26 54 1 88 12 93
28 4 11 -4 13 -32 8 -25 -4 -36 -2 -36 6 0 16 167 181 239 236 80 62 105 72
198 81 57 5 90 13 101 24 22 21 45 20 67 -4z m1846 -39 c-21 -41 -41 -54 -41
-27 0 23 20 70 33 78 24 15 28 -11 8 -51z m1588 -25 c37 -63 53 -79 75 -70 20
8 21 44 1 70 -8 10 -15 27 -15 38 0 16 5 17 32 12 41 -8 76 -41 87 -80 10 -38
4 -56 -19 -56 -28 0 -46 -30 -69 -110 -14 -51 -29 -82 -46 -97 -29 -25 -77
-30 -93 -10 -12 14 -29 316 -19 341 12 30 35 16 66 -38z m3311 44 c0 -5 -11
-10 -24 -10 -14 0 -28 5 -31 10 -4 6 7 10 24 10 17 0 31 -4 31 -10z m-601 -19
c23 -15 5 -41 -28 -41 -35 0 -48 15 -31 35 14 17 38 19 59 6z m1985 0 c10 -16
-20 -113 -37 -123 -24 -13 -71 12 -75 40 -4 29 11 48 57 72 42 22 48 23 55 11z
m-10380 -40 c11 -19 28 -63 37 -99 l18 -64 -42 6 c-64 10 -78 30 -78 109 0 37
3 72 6 77 12 19 38 6 59 -29z m5172 -7 c35 -84 26 -274 -16 -326 l-18 -23 -6
25 c-2 14 -7 63 -10 110 -5 72 -9 87 -27 100 -42 30 -99 83 -99 92 0 14 101
58 133 58 23 0 31 -7 43 -36z m1624 6 c-21 -30 -58 -60 -72 -60 -18 0 -6 25
29 56 47 44 73 46 43 4z m2389 -26 c-35 -37 -165 -99 -209 -99 -30 0 -36 -3
-36 -19 1 -28 -25 -31 -57 -6 -36 29 -36 71 -1 99 39 31 90 41 194 40 73 -1
96 3 109 15 26 27 26 -2 0 -30z m-8801 0 c2 -25 -4 -37 -33 -63 -20 -17 -40
-29 -46 -26 -17 11 -9 50 17 88 31 46 58 46 62 1z m5792 24 c0 -7 -10 -29 -22
-48 l-23 -35 -3 27 c-2 15 2 36 8 48 12 22 40 28 40 8z m2637 -2 c4 -3 -2 -13
-13 -21 -26 -20 -163 -91 -192 -100 l-23 -7 20 40 c11 22 32 54 47 72 27 32
29 32 91 27 35 -2 67 -8 70 -11z m1334 -7 c18 -18 19 -23 6 -42 -8 -12 -24
-23 -37 -25 -18 -3 -21 0 -15 17 8 26 4 26 -43 2 -60 -30 -82 -35 -82 -17 0
17 52 59 90 75 39 15 58 13 81 -10z m-6625 -27 c44 -32 69 -60 62 -68 -10 -9
-133 63 -136 80 -5 25 30 20 74 -12z m1434 21 c0 -12 -33 -43 -47 -43 -16 0
-17 22 -1 38 13 13 48 17 48 5z m1656 -53 c23 0 16 -20 -12 -32 -22 -11 -28
-10 -40 7 -8 10 -14 34 -14 53 l0 34 26 -31 c14 -17 32 -31 40 -31z m402 31
c10 -6 2 -16 -29 -40 -49 -36 -74 -39 -89 -12 -15 29 -12 49 8 54 30 8 97 7
110 -2z m1559 -8 c7 -17 -29 -53 -53 -53 -20 0 -17 27 6 50 24 24 39 25 47 3z
m-4247 -8 c26 -31 -50 -75 -175 -100 -65 -12 -85 45 -28 82 48 32 182 44 203
18z m-4518 -39 c16 -23 9 -38 -14 -31 -33 10 -52 31 -45 50 6 13 10 14 29 4
13 -7 26 -17 30 -23z m374 -2 c45 -47 45 -74 0 -74 -44 0 -86 33 -86 69 0 54
38 56 86 5z m6294 7 c0 -37 -34 -66 -103 -86 -28 -8 -52 -13 -54 -11 -7 6 128
126 142 126 10 0 15 -10 15 -29z m1938 -7 c2 -16 -2 -42 -7 -57 -8 -22 -17
-27 -43 -27 -18 0 -42 -7 -52 -15 -31 -23 -36 -18 -36 33 0 67 39 103 105 99
26 -2 30 -6 33 -33z m-1613 1 c-34 -28 -86 -48 -112 -43 -10 2 15 17 57 35 90
39 93 39 55 8z m1404 -4 c35 -25 36 -39 4 -43 -20 -2 -33 -12 -45 -38 -12 -23
-28 -38 -47 -43 -42 -10 -45 -32 -10 -72 32 -36 31 -60 -3 -49 -18 5 -19 3
-13 -40 6 -41 4 -47 -20 -70 -32 -30 -170 -77 -294 -100 -96 -18 -111 -19
-130 -7 -12 8 -12 14 4 38 27 42 67 83 97 99 16 8 76 21 135 29 60 9 122 20
140 26 31 10 48 33 37 50 -8 14 -82 11 -144 -6 -74 -20 -110 -19 -110 1 0 23
145 165 204 199 96 56 144 62 195 26z m-3187 -59 c32 -33 58 -64 58 -71 0 -24
-32 -23 -58 2 -15 14 -55 39 -89 56 -35 17 -63 35 -63 40 0 4 10 13 23 19 46
22 68 14 129 -46z m-1637 14 c30 -45 -14 -82 -60 -52 -29 19 -31 33 -8 58 22
25 49 23 68 -6z m4195 12 c-1 -64 -130 -216 -130 -153 0 22 -30 18 -95 -11
-104 -48 -161 -28 -98 34 23 23 43 31 108 41 97 16 125 26 125 45 0 19 47 56
71 56 11 0 19 -6 19 -12z m1205 -18 c6 -9 -53 -45 -61 -37 -4 4 43 47 52 47 1
0 5 -4 9 -10z m-8302 -7 c-13 -2 -33 -2 -45 0 -13 2 -3 4 22 4 25 0 35 -2 23
-4z m3214 -40 c56 -60 78 -92 69 -100 -8 -9 -96 77 -119 117 -28 47 0 37 50
-17z m-3813 31 c9 -3 16 -14 16 -24 0 -30 -26 -43 -80 -38 -57 6 -86 24 -69
44 16 20 99 31 133 18z m2681 -16 c64 -43 228 -295 223 -343 -5 -45 -39 -53
-144 -31 -90 18 -105 16 -88 -12 18 -28 79 -57 159 -76 41 -10 82 -24 90 -33
9 -8 15 -33 15 -59 0 -55 -19 -66 -60 -35 -16 11 -31 21 -33 21 -1 0 -1 -16 1
-35 4 -30 1 -35 -16 -35 -11 0 -40 16 -63 36 -39 32 -48 36 -87 31 -54 -6 -84
-31 -76 -63 6 -25 3 -27 -47 -38 -14 -3 -45 -19 -70 -36 -31 -21 -56 -30 -85
-30 -25 0 -47 -6 -54 -15 -31 -38 -57 -7 -68 83 l-7 57 -19 -50 c-10 -27 -22
-53 -25 -58 -4 -4 -29 22 -55 58 -57 78 -80 93 -105 71 -43 -39 -68 -1 -36 54
20 35 19 62 -2 58 -10 -2 -35 -34 -56 -73 -21 -38 -43 -73 -50 -77 -7 -4 -31
-5 -53 -2 -46 7 -67 -9 -35 -26 11 -5 54 -13 96 -17 60 -5 83 -2 115 12 44 20
70 15 70 -15 0 -11 20 -39 45 -62 25 -23 45 -51 45 -62 0 -17 -6 -18 -55 -13
-51 5 -55 4 -55 -15 0 -19 -4 -20 -80 -16 -59 3 -85 10 -100 23 l-20 18 27 29
27 28 -33 -11 c-30 -10 -36 -10 -50 8 -9 10 -28 24 -43 31 -16 7 -34 27 -46
55 -12 27 -46 67 -91 107 l-71 64 103 36 c108 39 206 85 272 130 58 38 71 41
91 19 24 -27 34 -24 34 11 0 61 95 137 301 240 173 88 210 96 264 58z m4222
-4 c9 -26 -123 -122 -152 -110 -41 15 74 130 124 124 14 -2 26 -8 28 -14z
m413 -41 c-40 -73 -73 -108 -94 -100 -26 10 -30 36 -10 59 23 26 116 97 127
97 5 1 -5 -25 -23 -56z m2915 14 c0 -15 -4 -28 -9 -29 -14 -5 -30 28 -23 46
10 26 32 14 32 -17z m-3532 -7 c-21 -12 -35 -31 -41 -52 -7 -27 -16 -36 -47
-46 -50 -16 -100 -12 -100 8 0 9 17 20 40 28 22 7 54 28 71 47 26 28 39 35 70
35 l39 0 -32 -20z m-2303 0 c0 -23 -31 -69 -50 -75 -11 -3 -30 -3 -41 0 -12 4
-32 2 -44 -5 -32 -17 -73 -5 -87 26 -14 30 3 47 37 38 11 -2 49 2 85 10 81 18
100 19 100 6z m658 -20 c73 -32 97 -61 96 -118 -1 -26 -8 -62 -16 -80 l-13
-34 -65 47 c-81 59 -140 115 -140 132 0 8 7 16 15 19 22 9 18 22 -7 26 -13 2
-24 11 -26 22 -4 17 1 19 51 13 30 -3 77 -15 105 -27z m4459 13 c8 -23 -128
-46 -142 -24 -8 13 9 22 63 31 58 10 74 8 79 -7z m-9243 -14 c27 -21 35 -21
110 -3 22 5 32 3 43 -11 15 -22 18 -126 3 -141 -9 -9 -187 27 -303 62 l-48 15
-66 -62 c-84 -78 -223 -146 -223 -109 0 17 -33 11 -56 -11 -34 -31 -54 -19
-54 33 0 24 -6 76 -14 115 -17 88 -12 97 64 112 46 9 64 9 105 -5 59 -18 288
-29 355 -17 34 7 44 13 42 26 -4 23 10 21 42 -4z m384 9 c28 -28 2 -127 -38
-148 -49 -26 -108 22 -95 79 7 34 32 59 71 71 41 12 48 12 62 -2z m-1216 -40
c-2 -11 -8 -16 -13 -11 -5 5 -6 19 -2 32 4 15 8 19 13 11 4 -7 5 -21 2 -32z
m2010 17 c-4 -27 -30 -45 -63 -45 -34 0 -45 15 -28 37 31 36 96 42 91 8z
m7541 10 c-28 -12 -33 -19 -33 -49 0 -27 -8 -44 -35 -71 -20 -19 -41 -35 -48
-35 -25 0 -105 99 -91 113 3 3 22 3 42 0 30 -4 46 1 82 26 29 20 57 31 80 30
l35 0 -32 -14z m-2565 -17 c15 -15 16 -54 2 -63 -12 -8 -77 12 -86 26 -9 15
26 49 51 49 11 0 26 -5 33 -12z m-4203 -8 c-9 -15 -85 -52 -98 -47 -6 2 9 15
33 30 46 27 76 35 65 17z m2342 -27 c61 -67 54 -113 -18 -113 -47 0 -69 27
-69 85 0 74 34 85 87 28z m-3790 7 c35 -21 53 -64 35 -82 -16 -16 -72 -14 -83
3 -14 22 -11 99 4 99 6 0 27 -9 44 -20z m6343 1 c0 -13 -37 -21 -95 -21 -46 1
-48 2 -31 15 21 16 126 21 126 6z m-6014 -42 c19 -17 45 -24 137 -34 62 -7
123 -18 136 -24 32 -18 23 -45 -17 -49 -39 -4 -41 -18 -6 -34 22 -10 32 -9 67
11 39 23 41 23 54 5 7 -10 13 -21 13 -25 0 -14 -31 -39 -49 -39 -10 0 -39 -11
-65 -25 -26 -14 -49 -25 -51 -25 -2 0 -5 15 -7 33 l-3 32 -52 -3 c-42 -3 -52
-1 -55 13 -1 10 -19 23 -38 29 -26 8 -43 24 -67 66 -47 77 -44 114 3 69z
m3090 -15 c40 -19 80 -44 90 -55 16 -18 16 -20 -1 -39 -10 -11 -15 -23 -12
-26 15 -16 40 11 67 72 30 67 54 81 56 32 1 -38 11 -48 80 -79 73 -33 114 -36
155 -12 28 17 31 17 64 -1 37 -20 205 -187 205 -204 0 -6 -16 -30 -35 -54 -64
-80 -69 -94 -72 -218 -5 -178 -40 -271 -164 -426 -48 -61 -54 -65 -83 -59 -47
10 -80 38 -87 75 -8 40 -23 50 -71 50 -20 0 -40 4 -43 10 -3 5 1 50 10 101 9
50 14 94 11 96 -3 3 -15 -2 -28 -11 -32 -23 -44 -20 -65 14 -20 35 -33 39 -33
10 0 -27 -16 -25 -36 4 -17 26 -33 88 -54 199 l-12 68 32 40 c31 40 31 40 11
57 -20 17 -77 166 -88 230 -7 46 6 162 20 162 6 0 43 -16 83 -36z m3367 1 c-3
-42 -53 -85 -99 -85 -36 0 -134 36 -134 50 0 14 24 16 103 11 42 -3 77 -3 77
0 0 3 -12 11 -27 18 l-28 13 25 14 c14 7 39 13 55 11 27 -2 30 -5 28 -32z
m1836 21 c100 -27 93 -30 -110 -50 -91 -9 -180 -21 -199 -27 l-33 -12 22 -19
c13 -10 31 -18 40 -18 14 0 14 -2 1 -10 -31 -20 -100 -9 -100 16 0 24 90 113
124 123 49 14 196 12 255 -3z m948 -20 c-8 -20 -47 -21 -47 -1 0 18 32 37 44
25 5 -5 6 -16 3 -24z m-7062 0 c128 -59 211 -251 140 -321 -13 -14 -30 -25
-36 -25 -7 0 -21 -7 -31 -17 -17 -15 -19 -15 -39 3 -32 29 -107 192 -120 258
-13 72 -5 126 19 126 9 0 40 -11 67 -24z m-155 -26 c0 -16 -4 -30 -10 -30 -11
0 -14 43 -3 53 11 12 13 8 13 -23z m3637 13 c8 -22 -36 -54 -69 -51 -43 4 -46
24 -6 48 35 22 69 23 75 3z m3997 11 c25 -10 1 -32 -41 -40 -23 -4 -37 -13
-40 -25 -4 -15 -15 -19 -46 -19 -22 0 -48 -7 -57 -15 -26 -24 -81 -29 -105
-11 -20 16 -20 16 -1 31 11 8 28 15 38 15 21 0 22 4 8 31 -6 11 -8 24 -5 29 7
11 223 14 249 4z m-4348 -35 c23 -19 16 -26 -31 -34 -27 -4 -56 -16 -72 -31
-30 -28 -36 -29 -53 -9 -19 23 2 63 43 81 34 15 90 12 113 -7z m693 -2 c14
-18 4 -27 -31 -27 -30 0 -35 9 -16 28 16 16 33 15 47 -1z m-6782 -41 c40 -16
97 -30 160 -36 134 -15 159 -25 225 -88 57 -54 72 -82 43 -82 -8 0 -23 -10
-34 -21 l-20 -21 -92 26 c-50 15 -94 24 -96 22 -3 -3 2 -15 11 -28 22 -30 20
-65 -3 -77 -38 -21 -252 51 -333 112 -53 40 -115 67 -152 67 -45 0 -86 16 -86
33 0 27 41 66 103 97 57 29 68 31 137 27 49 -3 96 -14 137 -31z m3445 -13 c32
-33 59 -83 52 -95 -10 -15 -130 -9 -144 7 -15 18 -7 77 15 111 18 28 33 23 77
-23z m4918 33 c9 -12 7 -24 -9 -60 -21 -50 -34 -60 -29 -23 3 20 -1 22 -42 22
-43 0 -46 3 -41 35 2 15 53 39 82 40 15 0 32 -6 39 -14z m-2912 -13 c-4 -23
-48 -31 -48 -10 0 9 6 18 13 20 25 11 38 7 35 -10z m3869 -15 c32 -26 0 -62
-55 -61 -43 1 -80 37 -61 59 20 24 88 26 116 2z m139 -9 c10 -18 -13 -32 -40
-25 -27 7 -37 41 -13 49 14 5 43 -8 53 -24z m-8747 -21 c17 -17 31 -35 31 -40
0 -18 -30 -6 -54 23 -46 55 -28 69 23 17z m-2308 2 c24 -20 24 -20 5 -35 -31
-23 -65 -19 -78 11 -10 21 -9 27 3 35 22 14 45 11 70 -11z m8936 3 c6 -15 -55
-149 -64 -140 -2 3 1 26 7 53 20 93 42 127 57 87z m-242 -13 c55 -7 104 -16
108 -20 12 -10 -18 -54 -50 -75 -20 -13 -35 -15 -67 -9 -22 4 -71 7 -109 7
l-67 -1 25 30 c30 35 31 45 8 71 -18 19 -17 20 17 14 19 -3 80 -11 135 -17z
m2065 -19 c0 -35 -136 -128 -175 -119 -12 2 -12 7 -2 27 20 40 64 66 108 65
31 -1 39 2 38 15 -2 26 0 31 16 31 8 0 15 -9 15 -19z m580 -5 c0 -8 -13 -24
-28 -35 -45 -32 -254 -131 -263 -125 -23 14 -4 36 54 64 34 16 95 48 135 70
78 43 102 49 102 26z m-3530 -30 c0 -41 -18 -76 -39 -76 -20 0 -31 18 -31 54
0 28 18 46 47 46 18 0 23 -6 23 -24z m584 8 c9 -24 7 -54 -4 -54 -12 0 -30 33
-30 54 0 21 26 21 34 0z m3076 6 c0 -10 -73 -60 -87 -60 -4 0 8 16 27 35 33
34 60 45 60 25z m-3820 -5 c0 -10 -65 -45 -82 -45 -27 0 -22 17 10 34 26 15
72 21 72 11z m2625 -14 c19 -7 18 -8 -5 -21 -62 -33 -159 -30 -130 5 17 21 97
30 135 16z m-9534 -12 c65 -22 68 -34 20 -79 -24 -23 -48 -39 -53 -38 -10 4
-37 86 -38 116 0 15 27 15 71 1z m1471 -6 c25 -23 23 -48 -7 -61 -14 -6 -25
-18 -25 -27 0 -19 10 -19 39 1 17 12 36 15 72 11 57 -7 186 -65 213 -95 27
-31 50 -29 42 4 l-7 26 30 -21 c16 -12 37 -21 46 -21 9 0 31 -11 48 -24 44
-32 68 -38 116 -27 22 5 41 5 41 0 0 -4 -13 -24 -30 -42 -26 -30 -40 -67 -25
-67 2 0 25 10 50 22 l45 22 36 -35 c49 -47 144 -164 144 -177 0 -8 -9 -8 -32
0 -55 18 -275 125 -282 137 -11 17 -23 13 -29 -9 -12 -46 -75 -34 -69 13 8 65
-41 156 -76 142 -9 -3 -79 -17 -155 -30 -107 -18 -148 -30 -179 -50 -27 -18
-44 -23 -50 -17 -6 6 -10 49 -9 95 1 68 -1 86 -14 90 -10 4 -15 20 -15 46 0
25 -5 41 -15 45 -37 14 5 66 54 66 13 0 33 -7 43 -17z m5246 -39 c2 -38 -1
-54 -14 -65 -14 -12 -19 -10 -35 10 -22 26 -22 23 -9 -37 6 -24 8 -48 5 -53
-8 -12 -95 50 -95 67 0 15 84 120 102 127 32 14 43 2 46 -49z m3082 41 c19
-23 -13 -52 -79 -72 -78 -22 -129 -49 -179 -95 -24 -22 -59 -46 -77 -54 -24
-10 -36 -23 -41 -42 -10 -49 -25 -69 -72 -98 -26 -16 -74 -47 -107 -69 -87
-59 -141 -89 -214 -120 -89 -37 -117 -30 -194 46 l-60 60 49 50 c26 27 54 49
61 49 23 0 14 -41 -16 -70 -23 -20 -27 -30 -18 -39 17 -17 39 -13 103 19 44
21 65 39 76 63 14 30 20 33 47 29 l32 -4 -3 68 -3 69 45 21 c25 12 123 42 218
68 95 26 209 63 255 83 133 57 157 62 177 38z m-3398 -21 c15 -33 0 -59 -33
-59 -19 0 -25 6 -27 28 -6 54 39 77 60 31z m3728 1 c15 -18 5 -35 -20 -35 -23
0 -32 13 -24 34 8 20 28 21 44 1z m168 -3 c5 -15 -45 -65 -60 -60 -22 8 -19
27 7 53 26 26 45 29 53 7z m-2723 -2 c15 -24 -57 -100 -95 -100 -17 0 -40 63
-28 78 21 24 111 41 123 22z m1750 -20 c0 -21 -75 -59 -147 -74 -98 -20 -113
-4 -35 36 52 27 147 58 167 55 8 -1 15 -9 15 -17z m-9501 -13 c12 -19 3 -32
-19 -24 -17 7 -21 51 -3 45 6 -2 16 -12 22 -21z m9106 13 c11 -7 7 -10 -17
-10 -18 0 -33 5 -33 10 0 13 30 13 50 0z m1635 0 c7 -12 -52 -50 -78 -50 -28
0 -15 23 24 42 39 21 46 22 54 8z m-9997 -25 c51 -15 67 -37 37 -49 -21 -8
-19 -23 5 -29 27 -7 25 -23 -4 -43 -30 -19 -185 -30 -270 -20 -71 9 -96 31
-96 85 0 31 6 44 28 61 25 21 34 22 137 17 61 -3 134 -13 163 -22z m3800 13
c31 -31 8 -58 -48 -58 -40 0 -44 13 -13 44 28 29 43 32 61 14z m5695 -17 c31
-52 12 -85 -32 -55 -24 17 -25 23 -11 58 12 33 22 33 43 -3z m-1423 -9 c0 -45
-70 -68 -93 -30 -17 26 9 48 54 48 31 0 39 -4 39 -18z m-2800 -15 c0 -28 -17
-47 -36 -40 -28 11 -9 63 23 63 7 0 13 -10 13 -23z m3060 9 c0 -6 -170 -96
-182 -96 -24 0 1 35 30 42 23 6 32 14 28 23 -3 8 3 19 12 24 16 10 112 15 112
7z m1750 -7 c0 -16 -56 -69 -74 -69 -25 0 -19 15 19 49 37 32 55 39 55 20z
m-433 -26 c4 -12 -84 -69 -93 -60 -7 7 11 40 32 62 18 18 55 17 61 -2z
m-10049 -16 c4 -20 -25 -34 -40 -19 -15 15 -1 44 19 40 10 -2 19 -11 21 -21z
m4432 -11 c0 -14 -4 -28 -10 -31 -6 -4 -10 7 -10 24 0 17 5 31 10 31 6 0 10
-11 10 -24z m6455 -6 c4 -6 -7 -10 -24 -10 -17 0 -31 5 -31 10 0 6 11 10 24
10 14 0 28 -4 31 -10z m-5158 -12 c16 -21 23 -47 13 -53 -8 -5 -40 43 -40 60
0 10 17 5 27 -7z m2529 -13 c92 -23 125 -38 112 -50 -7 -8 -116 -35 -139 -35
-11 0 -37 19 -59 42 -21 23 -54 48 -72 54 l-33 12 46 1 c26 1 91 -10 145 -24z
m2470 16 c-7 -10 -148 -81 -163 -81 -20 0 -22 29 -5 49 9 12 35 25 57 30 53
12 118 13 111 2z m-598 -35 c-2 -13 -10 -21 -23 -21 -23 0 -33 34 -14 45 20
13 40 -1 37 -24z m-9578 -2 c0 -19 -28 -30 -43 -15 -8 8 -6 15 8 25 22 16 35
12 35 -10z m386 -19 c25 -24 27 -24 63 -9 79 35 123 30 170 -18 43 -45 42 -89
-3 -134 -40 -40 -50 -38 -118 20 -26 22 -70 54 -99 71 -63 37 -78 57 -60 79
17 20 15 21 47 -9z m3272 1 c4 -21 -14 -37 -35 -29 -14 5 -18 35 -6 47 12 12
38 1 41 -18z m5252 12 c0 -14 -50 -68 -62 -68 -16 0 -8 59 10 69 23 14 52 14
52 -1z m-3780 -28 c7 -17 10 -34 6 -37 -9 -9 -35 28 -36 50 0 27 16 20 30 -13z
m-5675 -4 c43 -19 62 -54 45 -86 -11 -20 -17 -22 -66 -16 -58 7 -66 0 -33 -30
27 -24 48 -65 42 -81 -6 -16 -37 -17 -64 -3 -28 15 -52 68 -45 101 3 18 0 32
-10 40 -52 43 -25 89 51 89 25 0 61 -7 80 -14z m8830 -11 c0 -17 -7 -20 -45
-21 -27 -1 -66 -12 -97 -28 -79 -40 -141 -31 -77 11 32 21 172 63 199 60 13
-1 20 -9 20 -22z m2006 15 c33 -18 23 -40 -19 -40 -42 0 -79 21 -68 38 9 15
61 16 87 2z m-10081 -69 c85 -55 211 -160 218 -178 3 -9 -12 -13 -51 -13 -31
0 -63 -3 -72 -6 -15 -6 -14 -8 1 -25 16 -18 15 -20 -22 -35 -37 -16 -43 -15
-159 15 -124 33 -282 103 -299 133 -23 38 106 128 183 128 30 0 44 -6 55 -22
14 -19 16 -20 16 -5 0 29 19 57 38 57 10 0 51 -22 92 -49z m3047 37 c16 -21
23 -47 14 -53 -12 -7 -61 34 -61 51 0 17 34 19 47 2z m6527 -11 c-14 -38 -111
-64 -174 -47 -57 15 -52 43 10 51 90 12 170 10 164 -4z m-10096 -3 c32 -9 27
-21 -15 -42 -59 -30 -89 -34 -104 -16 -32 38 47 77 119 58z m3746 -41 c24 -71
17 -173 -13 -173 -16 0 -74 55 -94 89 l-18 31 47 50 c26 27 50 50 54 50 5 0
15 -21 24 -47z m5780 38 c6 -9 -29 -26 -79 -37 -16 -4 -60 -20 -97 -36 -37
-15 -77 -28 -88 -28 -83 0 121 88 252 109 4 1 9 -3 12 -8z m185 -18 c-17 -19
-107 -63 -131 -63 -26 0 -22 16 11 39 38 28 70 40 105 40 25 1 27 -1 15 -16z
m-1133 -36 c29 -25 26 -47 -5 -47 -24 0 -55 35 -48 55 9 21 21 19 53 -8z
m1260 9 c8 -22 -23 -74 -55 -91 -18 -9 -41 -12 -58 -9 -22 4 -37 0 -60 -20
-17 -14 -43 -31 -59 -37 -33 -13 -147 -39 -152 -35 -1 2 21 15 50 29 30 15 89
48 133 74 44 27 87 47 95 46 8 -2 31 10 50 26 40 34 48 37 56 17z m665 4 c25
-14 10 -45 -26 -54 -39 -10 -105 29 -90 54 8 13 91 13 116 0z m-10416 -60 l0
-45 -40 -3 c-60 -5 -125 7 -125 23 0 17 118 77 145 73 17 -3 20 -11 20 -48z
m1234 41 c46 -29 -72 -111 -160 -111 -60 0 -77 17 -59 61 18 42 47 52 86 28
38 -23 58 -25 50 -3 -3 9 -4 20 0 25 7 12 65 11 83 0z m7854 -5 c7 -18 -12
-36 -38 -36 -31 0 -37 11 -18 32 19 21 49 24 56 4z m-878 -33 c9 -50 36 -92
112 -177 35 -38 63 -75 63 -83 0 -46 -280 -77 -428 -47 -39 8 -15 21 50 28 35
3 80 11 101 17 51 14 119 75 115 103 -3 23 -27 25 -125 11 -56 -8 -83 3 -83
33 0 11 9 13 39 9 l40 -5 3 41 c3 35 9 46 46 74 24 18 47 33 52 33 4 0 11 -17
15 -37z m-3005 -64 c0 -10 -18 -39 -40 -64 -46 -53 -80 -115 -80 -144 0 -11 9
-25 20 -31 25 -13 27 -50 3 -50 -76 1 -78 22 -24 181 22 63 43 131 47 152 l7
38 33 -32 c19 -18 34 -41 34 -50z m4180 65 c0 -19 -108 -134 -127 -134 -22 0
-15 47 14 81 47 55 113 87 113 53z m1205 6 c4 -6 -7 -10 -24 -10 -17 0 -31 5
-31 10 0 6 11 10 24 10 14 0 28 -4 31 -10z m-11085 -55 c26 -31 -24 -49 -54
-19 -9 8 -14 20 -11 25 9 14 51 11 65 -6z m264 -8 c12 -19 3 -32 -19 -24 -17
7 -21 51 -3 45 6 -2 16 -12 22 -21z m1196 -33 c0 -8 -4 -14 -8 -14 -10 0 -32
45 -32 63 1 17 40 -32 40 -49z m1758 44 c16 -16 15 -38 0 -38 -7 0 -26 11 -43
25 l-30 24 31 1 c16 0 35 -5 42 -12z m302 -21 c31 -15 45 -28 45 -42 0 -18 -7
-20 -61 -21 -52 0 -70 -6 -111 -32 -64 -41 -73 -41 -70 5 2 36 0 38 -33 43
l-35 5 29 23 c41 32 71 37 117 19 l39 -15 -6 25 c-6 23 -4 25 17 18 13 -4 44
-16 69 -28z m4603 19 c7 -19 -12 -36 -40 -36 -27 0 -31 24 -5 39 24 14 39 13
45 -3z m2812 4 c15 -6 9 -9 -25 -9 -34 0 -40 3 -25 9 11 5 22 9 25 9 3 0 14
-4 25 -9z m-1295 -43 c0 -42 -65 -78 -140 -76 l-35 1 35 12 c23 8 36 20 38 34
3 18 10 21 40 20 20 -1 38 4 40 10 5 16 22 15 22 -1z m-5413 -12 c20 -14 63
-75 63 -89 0 -4 -12 -6 -27 -4 -30 3 -73 57 -73 89 0 23 9 24 37 4z m6268 -5
c12 -19 -15 -38 -78 -55 -64 -17 -132 -17 -132 0 0 5 16 12 35 16 19 4 55 17
80 28 50 23 85 27 95 11z m-8479 -45 c171 -46 454 -152 454 -171 0 -2 -10 1
-22 7 -18 10 -24 8 -35 -7 -7 -10 -13 -26 -13 -36 0 -28 -44 -33 -92 -9 -24
11 -76 47 -115 80 -77 63 -151 98 -180 86 -16 -6 -16 -8 7 -23 100 -67 166
-144 108 -127 -12 4 -35 18 -50 32 -22 21 -37 25 -95 27 -37 0 -81 -3 -96 -7
-31 -8 -32 -30 -1 -35 32 -6 41 -22 20 -37 -14 -10 -35 -13 -76 -8 -38 4 -60
2 -64 -6 -28 -45 -216 46 -216 104 0 24 35 56 71 64 29 7 52 3 104 -15 75 -26
95 -21 95 22 0 28 -11 30 -45 8 -27 -18 -45 -12 -45 15 0 21 36 57 65 64 33 9
125 -3 221 -28z m978 27 c8 -13 -7 -30 -34 -40 -29 -11 -50 -6 -50 12 0 23 72
47 84 28z m138 -32 l-2 -33 55 7 c49 5 55 4 55 -12 0 -26 -20 -42 -50 -42 -17
0 -40 -13 -63 -35 -45 -43 -88 -46 -137 -10 -19 14 -47 25 -64 25 l-31 -1 24
-20 c13 -11 22 -21 20 -24 -2 -2 -31 2 -64 8 -78 16 -86 39 -23 67 24 11 59
20 78 20 38 0 95 25 149 65 43 31 57 27 53 -15z m2616 28 c14 -14 16 -68 2
-68 -13 0 -30 34 -30 59 0 24 10 27 28 9z m3585 -5 c17 -17 -19 -33 -72 -32
l-56 1 40 19 c41 19 77 24 88 12z m-6533 -27 c0 -45 -52 -75 -106 -62 -36 9
-27 36 21 63 54 31 85 30 85 -1z m-1176 -1 c-2 -15 -73 -47 -98 -43 -29 4 -27
29 4 45 28 15 96 13 94 -2z m-1102 -9 c35 -7 95 -19 133 -26 39 -7 86 -21 106
-31 20 -10 39 -16 42 -12 20 19 127 -52 127 -84 0 -13 -10 -15 -58 -10 -32 4
-75 13 -96 22 -27 12 -53 14 -90 10 -28 -4 -62 -2 -76 3 -19 7 -134 96 -179
138 -8 8 29 4 91 -10z m-134 -33 c4 -29 -1 -29 -46 2 l-37 26 40 -3 c33 -2 41
-7 43 -25z m3577 4 c30 -17 40 -29 40 -47 0 -20 -6 -26 -27 -28 -21 -3 -32 4
-52 35 -45 65 -31 80 39 40z m-2477 -55 c5 -31 -15 -52 -49 -52 -29 0 -59 22
-59 45 0 25 20 27 51 5 l30 -22 -7 27 c-6 23 -4 26 12 23 11 -2 20 -13 22 -26z
m7742 13 c-19 -23 -160 -115 -176 -115 -8 0 -14 10 -14 24 0 30 46 60 128 87
71 22 78 23 62 4z m156 -26 c16 -26 -70 -61 -112 -45 -16 6 -16 8 1 26 24 27
98 40 111 19z m667 -17 c18 -16 25 -88 7 -77 -6 3 -7 17 -4 30 5 20 0 28 -30
46 -20 11 -36 23 -36 26 0 8 45 -9 63 -25z m-6403 -15 c35 -17 66 -37 68 -44
5 -18 -35 -25 -76 -13 -35 12 -102 65 -102 82 0 17 48 6 110 -25z m489 -32
c44 -48 52 -87 19 -93 -11 -2 -23 11 -37 42 -26 59 -51 62 -51 5 0 -33 -3 -40
-17 -37 -39 7 -10 128 31 128 7 0 32 -20 55 -45z m4068 28 c5 -15 -48 -43 -82
-43 -39 0 -29 30 15 46 41 15 62 14 67 -3z m-4827 -17 c0 -8 -10 -22 -22 -30
-30 -22 -48 -3 -23 24 21 23 45 26 45 6z m5581 -12 c21 -26 -19 -45 -51 -24
-13 9 -12 12 4 25 25 19 30 19 47 -1z m-1687 -13 c15 -16 15 -19 1 -31 -13
-11 -20 -9 -40 10 -14 13 -25 27 -25 32 0 16 47 8 64 -11z m-6129 -1 c9 -15
-14 -40 -36 -40 -24 0 -33 18 -19 35 14 17 46 20 55 5z m6835 2 c0 -13 -68
-42 -98 -42 -25 1 -26 1 -7 12 21 12 85 37 98 38 4 0 7 -4 7 -8z m1520 -20 c0
-26 -225 -217 -291 -246 -157 -70 -177 -76 -254 -76 -49 0 -87 -5 -105 -15
-54 -28 -35 6 54 97 113 116 160 146 260 169 44 10 128 32 186 48 108 30 150
37 150 23z m-6320 -12 c0 -5 -16 -10 -35 -10 -19 0 -35 5 -35 10 0 6 16 10 35
10 19 0 35 -4 35 -10z m-1138 -42 c21 -39 17 -61 -8 -51 -17 6 -44 54 -44 78
0 29 32 12 52 -27z m1508 7 c80 -11 91 -15 100 -39 10 -28 3 -63 -15 -70 -24
-9 -109 24 -142 56 -39 38 -45 73 -10 65 12 -4 42 -9 67 -12z m-1414 -51 c-6
-16 -8 -16 -23 -2 -9 10 -13 23 -9 34 6 16 8 16 23 2 9 -10 13 -23 9 -34z
m664 26 c11 -11 20 -27 20 -35 0 -8 11 -22 25 -31 14 -9 25 -20 25 -25 0 -20
-27 -7 -67 33 -31 30 -43 37 -43 25 0 -18 -9 -21 -34 -11 -19 7 -21 50 -3 57
27 11 58 6 77 -13z m5675 11 c7 -13 -26 -31 -90 -47 -67 -18 -115 -18 -115 0
0 31 188 73 205 47z m-1810 -20 c0 -18 -64 -52 -90 -49 -35 5 -25 41 15 55 43
15 75 13 75 -6z m165 3 c0 -9 -10 -33 -22 -53 l-23 -36 -3 28 c-4 29 21 77 38
77 6 0 10 -7 10 -16z m2089 -5 l32 -11 -28 -30 c-57 -60 -154 -88 -183 -53
-11 13 -10 21 7 43 39 54 107 74 172 51z m-6991 -27 c4 -24 -7 -29 -26 -10
-18 18 -15 40 6 36 9 -2 18 -13 20 -26z m1507 -4 c6 -13 31 -35 58 -49 64 -34
83 -54 42 -45 -48 12 -225 98 -219 107 3 5 29 9 57 9 45 0 54 -3 62 -22z
m-771 -10 c-12 -22 -47 -58 -55 -58 -13 0 -31 40 -25 56 3 9 20 14 46 14 30 0
39 -3 34 -12z m3841 -23 c40 -31 86 -40 142 -27 62 14 44 -1 -41 -37 -118 -49
-156 -38 -156 45 0 51 9 54 55 19z m1313 -2 c4 -28 -29 -46 -69 -38 -36 8 -36
33 1 52 35 18 64 12 68 -14z m755 5 c8 -12 7 -21 -3 -33 -13 -16 -15 -16 -27
1 -19 26 -17 56 3 52 9 -2 22 -10 27 -20z m-1223 -4 c11 -12 10 -18 -3 -32
-16 -15 -18 -15 -34 0 -13 14 -14 20 -3 32 7 9 16 16 20 16 4 0 13 -7 20 -16z
m1114 2 c98 -41 5 -134 -152 -152 -41 -4 -62 -11 -62 -20 0 -7 -15 -24 -33
-38 -36 -28 -206 -110 -213 -104 -2 3 21 41 52 86 81 118 189 198 309 228 65
16 61 16 99 0z m-5516 -28 c-2 -22 -9 -34 -20 -36 -20 -4 -24 19 -8 49 16 30
32 22 28 -13z m-248 -8 c11 -11 20 -29 20 -40 0 -19 -2 -20 -29 -5 -35 18 -45
31 -37 50 7 20 22 19 46 -5z m-206 -20 c22 -21 15 -50 -12 -50 -26 0 -66 45
-58 65 7 20 41 12 70 -15z m6213 15 c3 -9 21 -22 39 -30 26 -11 34 -20 34 -39
0 -50 -90 -88 -120 -51 -8 10 -11 32 -8 60 8 62 40 98 55 60z m-4217 -55 c0
-24 -26 -38 -42 -22 -16 16 -2 42 22 42 13 0 20 -7 20 -20z m1275 6 c19 -8 35
-19 35 -25 0 -13 -57 -31 -100 -31 -74 0 -131 37 -92 59 25 15 118 13 157 -3z
m-3142 -35 c23 -22 39 -42 35 -46 -10 -11 -100 19 -111 37 -8 12 -7 21 2 32
19 23 27 20 74 -23z m233 15 c17 -13 17 -16 4 -29 -18 -18 -60 -6 -60 16 0 30
25 35 56 13z m4460 -27 c11 -12 14 -23 8 -28 -12 -11 -233 -41 -251 -34 -58
22 126 99 204 85 12 -2 30 -13 39 -23z m-2442 2 c9 -14 -22 -34 -40 -27 -13 5
-14 9 -4 21 14 17 36 20 44 6z m3054 -8 c-4 -22 -47 -30 -59 -12 -12 20 -1 29
32 29 24 0 30 -4 27 -17z m-5873 -16 c11 -9 15 -19 10 -27 -9 -15 -228 -120
-251 -120 -21 0 -16 80 6 90 8 4 31 15 50 24 19 9 46 23 60 31 32 19 100 19
125 2z m1282 -13 c3 -8 0 -21 -6 -27 -10 -9 -16 -8 -27 7 -8 11 -14 23 -14 28
0 15 41 8 47 -8z m2116 -11 c24 -26 66 -109 82 -160 5 -19 3 -23 -18 -23 -13
0 -36 9 -51 21 -24 19 -26 26 -20 64 6 42 5 42 -20 38 -20 -4 -26 -1 -26 12 0
15 -5 13 -26 -10 -37 -40 -52 -20 -25 33 31 60 62 67 104 25z m157 17 c0 -13
-34 -30 -59 -30 -23 0 -29 25 -8 33 22 9 67 7 67 -3z m2206 -11 c62 -38 67
-86 6 -55 -25 13 -62 55 -62 71 0 11 24 4 56 -16z m-4631 -3 c31 -13 55 -41
55 -65 0 -17 -18 -13 -58 14 l-37 26 -22 -27 c-25 -32 -53 -27 -53 10 0 27 33
56 63 56 9 0 33 -6 52 -14z m3563 -3 c-2 -10 -13 -19 -26 -21 -24 -4 -29 7
-10 26 18 18 40 15 36 -5z m-148 -26 c-1 -50 -68 -154 -84 -128 -11 17 16 101
41 132 27 32 43 30 43 -4z m2045 9 c49 -20 56 -25 40 -31 -64 -25 -162 -74
-174 -88 -7 -9 -27 -19 -45 -22 -64 -13 -117 34 -62 54 15 6 25 20 29 41 5 24
16 35 49 50 55 25 89 24 163 -4z m-2813 -67 c-1 -19 4 -65 11 -102 8 -36 12
-69 9 -72 -3 -3 -23 -5 -44 -5 -38 0 -38 0 -38 -39 0 -51 -26 -71 -92 -71 -27
0 -48 3 -48 6 0 3 9 18 21 32 20 26 20 26 0 42 -18 13 -18 17 -6 40 20 35 18
58 -5 87 -27 35 -14 54 62 93 43 21 74 30 98 28 34 -3 35 -5 32 -39z m1906 27
c15 -8 35 -23 45 -33 16 -19 16 -21 -15 -64 -58 -81 -150 -164 -203 -184 -27
-10 -122 -57 -210 -103 -186 -99 -265 -135 -274 -126 -3 3 11 21 32 39 l37 32
-37 -1 c-28 -1 -38 3 -41 16 -6 29 42 41 136 33 82 -6 82 -6 82 18 0 17 14 36
47 63 66 54 35 56 -63 5 -149 -79 -123 -47 80 96 83 59 186 133 229 165 82 61
108 68 155 44z m622 -5 c0 -13 -55 -58 -81 -66 -50 -16 -24 30 34 59 37 18 47
20 47 7z m-6261 -57 c-30 -32 -56 -47 -70 -39 -14 9 7 32 50 55 45 23 52 17
20 -16z m151 20 c0 -21 -18 -54 -30 -54 -11 0 -14 53 -3 63 12 13 33 7 33 -9z
m4660 -29 c0 -52 -21 -109 -52 -142 -26 -28 -98 -32 -122 -7 -14 14 -14 18 0
47 25 47 129 147 153 147 18 0 21 -6 21 -45z m268 33 c-5 -14 -82 -62 -115
-73 -34 -10 -29 19 7 45 47 33 115 51 108 28z m-3648 -12 c0 -8 -17 -29 -37
-47 l-38 -33 -3 29 c-3 21 3 35 18 47 26 21 60 24 60 4z m-1200 -25 c7 -14 7
-22 0 -26 -13 -8 -40 13 -40 31 0 21 28 17 40 -5z m3014 -38 c22 -18 50 -33
62 -33 30 0 69 -33 61 -53 -8 -20 -93 -70 -107 -62 -5 3 -10 21 -10 38 0 56
-11 77 -46 92 -29 12 -34 19 -34 46 0 35 -4 37 74 -28z m2096 27 c-24 -34 -39
-45 -48 -35 -6 6 51 65 64 65 3 0 -4 -13 -16 -30z m-4889 -29 c17 -14 21 -23
13 -30 -17 -18 -104 16 -104 40 0 17 68 9 91 -10z m1150 -25 c10 -20 8 -29
-10 -52 -13 -17 -21 -41 -21 -65 0 -45 -22 -62 -73 -57 -28 3 -32 6 -29 28 5
37 39 101 75 138 37 38 44 39 58 8z m-1309 -21 c-4 -21 -1 -25 20 -25 13 0 29
-5 35 -11 18 -18 3 -39 -28 -39 -44 0 -76 59 -47 88 19 19 26 14 20 -13z
m1528 -44 c-7 -17 -16 -31 -21 -31 -13 0 -11 54 3 68 21 21 32 -3 18 -37z
m1390 -2 c14 -34 5 -79 -18 -87 -14 -4 -51 71 -52 105 0 45 49 33 70 -18z
m3363 34 c-13 -2 -33 -2 -45 0 -13 2 -3 4 22 4 25 0 35 -2 23 -4z m-4102 -23
c24 -13 25 -40 1 -40 -21 0 -42 18 -42 37 0 16 15 17 41 3z m2694 0 c-6 -10
-121 -80 -132 -80 -13 0 25 35 66 62 44 28 78 37 66 18z m-3453 -45 c9 -37 2
-65 -18 -65 -19 0 -37 48 -29 78 8 32 37 25 47 -13z m1404 -1 c8 -42 -7 -64
-31 -44 -16 13 -19 37 -9 64 11 28 33 17 40 -20z m2813 15 c28 -6 54 -15 57
-20 28 -45 -353 -254 -431 -237 -19 4 182 230 223 253 33 17 84 19 151 4z
m-3929 -25 c11 -12 10 -18 -3 -32 -16 -15 -18 -15 -34 0 -13 14 -14 20 -3 32
7 9 16 16 20 16 4 0 13 -7 20 -16z m4623 -1 c14 -8 7 -32 -12 -38 -20 -6 -101
22 -101 35 0 17 84 19 113 3z m155 8 c19 -12 -33 -71 -63 -71 -27 0 -49 24
-42 44 9 23 82 42 105 27z m-6876 -20 c15 -13 33 -18 46 -14 30 7 28 -15 -2
-28 -30 -14 -110 -4 -126 16 -34 41 36 62 82 26z m346 -13 c10 -38 5 -58 -13
-58 -21 0 -28 18 -21 56 9 43 23 44 34 2z m7760 10 c-7 -22 -51 -38 -93 -36
-51 4 -48 20 7 35 59 15 91 16 86 1z m-7515 -12 c58 -24 126 -131 99 -158 -6
-6 -11 2 -16 22 -5 27 -9 30 -27 25 -18 -6 -21 -4 -16 9 8 22 -2 46 -19 46 -8
0 -19 -11 -24 -24 -9 -25 -47 -40 -74 -30 -12 5 -13 11 -6 24 6 10 10 34 10
53 0 51 14 58 73 33z m367 -6 c40 -20 57 -60 26 -60 -16 0 -76 56 -76 71 0 13
6 12 50 -11z m6978 -7 c-2 -11 -20 -21 -48 -28 l-45 -11 2 -47 c1 -48 -11 -63
-22 -27 -11 35 -46 51 -85 40 -47 -14 -51 -3 -11 31 44 36 103 57 164 58 41 1
48 -2 45 -16z m-3352 -35 c-8 -43 -77 -181 -93 -186 -21 -6 -15 44 11 97 54
113 95 157 82 89z m241 16 c2 -6 -3 -14 -12 -18 -20 -7 -105 13 -105 26 0 13
113 5 117 -8z m1691 4 c18 -18 14 -38 -8 -38 -15 0 -20 7 -20 25 0 27 9 32 28
13z m-99 -39 c18 -11 31 -22 28 -25 -6 -6 -99 25 -111 37 -20 18 50 9 83 -12z
m581 6 c6 -8 9 -19 5 -25 -7 -11 -24 -4 -60 24 -19 15 -19 15 11 16 17 0 37
-7 44 -15z m-3760 -10 c72 -37 83 -135 15 -135 -47 0 -126 96 -111 135 7 19
58 20 96 0z m-3454 -6 c10 -17 -23 -46 -38 -31 -8 8 -8 15 2 27 15 18 26 19
36 4z m442 3 c9 -7 8 -13 -8 -27 -26 -23 -52 -6 -30 20 14 17 20 18 38 7z
m3123 -2 c26 -14 27 -70 1 -70 -24 0 -42 19 -42 45 0 35 10 41 41 25z m214
-15 c40 -40 30 -72 -34 -105 -32 -16 -43 -3 -43 55 -1 36 4 51 17 61 26 19 32
18 60 -11z m3936 -19 c-72 -73 -120 -82 -177 -33 -36 31 -24 47 34 48 26 0 70
7 97 14 89 23 94 20 46 -29z m-7961 4 c0 -16 -4 -30 -10 -30 -11 0 -14 43 -3
53 11 12 13 8 13 -23z m1678 -11 c159 -78 94 -150 -72 -79 -77 33 -106 55
-106 81 0 48 78 47 178 -2z m502 21 c0 -25 -27 -37 -43 -21 -9 10 -8 16 7 27
27 19 36 18 36 -6z m4940 10 c0 -5 -11 -10 -24 -10 -14 0 -28 5 -31 10 -4 6 7
10 24 10 17 0 31 -4 31 -10z m520 -5 c9 -11 10 -19 2 -27 -14 -14 -32 -1 -32
23 0 23 13 25 30 4z m938 0 c20 -20 -109 -36 -152 -19 -24 9 -19 22 12 27 34
6 132 0 140 -8z m-3359 -9 c10 -12 5 -22 -27 -54 -41 -41 -96 -62 -114 -44
-15 15 8 67 40 92 29 23 84 26 101 6z m-3949 -6 c0 -15 -46 -34 -65 -26 -14 5
-15 9 -5 21 14 17 70 21 70 5z m3015 -3 c17 -13 17 -15 -5 -55 -29 -51 -87
-82 -153 -82 -52 0 -62 10 -58 59 2 44 17 70 44 81 35 14 151 12 172 -3z
m3113 -31 c9 -8 12 -19 8 -23 -11 -11 -196 -7 -207 4 -11 11 5 28 36 36 39 11
147 0 163 -17z m-7088 -8 c0 -14 -30 -48 -42 -48 -12 0 -10 34 4 48 15 15 38
16 38 0z m562 -40 c0 -18 0 -44 -1 -58 -2 -26 -37 -70 -54 -70 -6 0 -1 11 12
23 19 21 20 25 6 37 -28 23 -12 100 20 100 10 0 16 -11 17 -32z m543 -5 c61
-25 66 -29 60 -53 -10 -41 -20 -43 -56 -11 -25 23 -43 31 -71 31 -43 0 -53 11
-38 40 14 26 27 25 105 -7z m-1585 7 c12 -7 12 -13 4 -27 -15 -24 -35 -27 -59
-9 -16 12 -17 16 -6 30 15 18 39 20 61 6z m2868 -2 c5 -7 7 -21 3 -31 -6 -17
-8 -17 -25 2 -10 11 -15 25 -11 30 8 14 20 14 33 -1z m-1609 -44 c25 -31 27
-57 6 -74 -19 -15 -29 -8 -50 36 -29 61 4 89 44 38z m4421 8 c0 -27 -82 -94
-97 -79 -7 7 43 84 59 90 26 10 38 7 38 -11z m1535 -53 c0 -24 -5 -34 -15 -34
-16 0 -25 37 -16 62 10 26 31 8 31 -28z m-2409 -6 c26 -137 -46 -511 -105
-547 -5 -4 -12 30 -16 77 -9 104 8 218 46 317 16 42 34 101 40 133 7 31 15 57
20 57 4 0 11 -17 15 -37z m449 -2 c-19 -59 -135 -144 -135 -98 0 20 73 111
100 124 29 15 45 3 35 -26z m-4749 -3 c4 -15 12 -18 29 -14 18 5 28 -2 48 -28
16 -20 38 -36 56 -39 37 -8 41 -35 11 -62 -25 -23 -25 -30 0 -65 30 -42 9 -45
-46 -7 -56 38 -111 106 -120 145 -14 67 -44 99 -44 48 0 -14 -4 -27 -9 -30
-13 -8 -33 20 -29 41 8 41 91 50 104 11z m-191 11 c12 -19 -4 -55 -49 -114
l-45 -57 -25 51 c-33 65 -33 80 -1 73 20 -3 25 0 25 16 0 12 8 26 18 31 23 14
69 14 77 0z m1475 1 c0 -5 -13 -10 -30 -10 -16 0 -30 5 -30 10 0 6 14 10 30
10 17 0 30 -4 30 -10z m727 -6 c3 -8 -1 -22 -9 -31 -12 -12 -20 -13 -37 -4
-23 13 -28 37 -8 44 25 11 48 7 54 -9z m391 5 c32 -11 72 -63 72 -92 0 -21
-32 -29 -96 -25 l-49 3 3 48 c2 26 0 47 -3 47 -3 0 -24 -9 -46 -21 -44 -22
-60 -19 -43 9 25 39 98 53 162 31z m-1715 -37 c9 -8 17 -20 17 -27 0 -35 -69
-62 -111 -45 -22 10 -29 19 -29 40 0 55 74 74 123 32z m1014 -2 c19 -17 78
-52 131 -79 53 -27 105 -58 116 -70 17 -19 17 -21 2 -27 -10 -4 -47 -4 -82 0
-45 5 -64 3 -59 -4 18 -29 -264 -89 -541 -116 -194 -19 -226 -16 -252 27 -11
17 -10 21 10 29 13 5 17 9 10 9 -7 1 -15 8 -19 17 -6 17 42 74 63 74 7 0 25
-16 40 -35 15 -20 33 -34 39 -31 7 2 30 -2 51 -9 61 -22 144 -18 144 6 0 5
-11 14 -25 19 -33 13 -33 57 -1 126 28 60 42 72 51 44 8 -25 20 -25 90 2 56
21 58 21 71 3 18 -25 18 -86 -1 -111 -16 -21 -19 -50 -6 -58 29 -19 111 104
111 167 0 31 6 47 18 47 2 0 20 -14 39 -30z m1937 7 c17 -12 16 -15 -3 -65
-25 -62 -16 -67 19 -11 38 62 102 89 115 49 9 -28 -2 -57 -25 -63 -10 -2 -28
-23 -39 -45 -24 -47 -81 -97 -129 -113 -49 -16 -60 0 -33 46 28 48 27 53 -11
57 -31 3 -33 6 -38 48 -5 42 -7 45 -37 48 -56 6 -68 43 -18 55 45 11 182 7
199 -6z m1686 -6 c-13 -26 -50 -51 -72 -51 -30 0 -20 18 25 44 51 31 61 32 47
7z m-3135 -41 c4 -6 -7 -10 -24 -10 -17 0 -31 5 -31 10 0 6 11 10 24 10 14 0
28 -4 31 -10z m2700 -59 c-40 -38 -39 -28 3 28 16 22 27 30 30 22 2 -7 -12
-30 -33 -50z m-5234 23 c10 -13 10 -17 -2 -25 -27 -17 -59 -5 -59 22 0 24 42
26 61 3z m1586 -15 c-19 -26 -77 -69 -95 -69 -29 0 -4 36 43 62 60 33 71 35
52 7z m-227 -9 c6 -12 8 -30 4 -42 -6 -21 -7 -21 -20 -3 -16 22 -19 65 -4 65
5 0 14 -9 20 -20z m-378 -30 c146 -32 194 -72 92 -78 -27 -1 -59 -7 -71 -14
-18 -9 -27 -7 -49 7 -19 12 -23 19 -14 25 21 13 -35 42 -80 42 -26 -1 -40 4
-40 12 0 32 38 34 162 6z m4528 5 c0 -17 -76 -59 -90 -50 -7 4 -6 13 1 26 18
34 89 53 89 24z m-4780 -44 c0 -14 -83 -52 -93 -42 -12 12 0 30 27 41 28 12
66 12 66 1z m182 -78 c9 -8 42 -18 72 -22 60 -8 83 -22 71 -41 -21 -33 -245
17 -245 54 0 36 65 42 102 9z m4954 15 c16 -26 -53 -49 -85 -29 -12 8 -12 12
-2 25 16 18 76 21 87 4z m-4687 -17 c11 -7 9 -12 -11 -25 -35 -23 -71 -25 -76
-4 -2 12 6 20 30 27 43 12 41 12 57 2z m2472 -40 c17 -14 21 -23 14 -30 -13
-13 -55 13 -55 35 0 19 13 18 41 -5z m2073 -34 c12 -19 3 -32 -19 -24 -17 7
-21 51 -3 45 6 -2 16 -12 22 -21z m-4569 -23 c-35 -28 -145 -76 -160 -70 -17
6 -19 24 -6 45 8 13 109 38 161 39 25 1 25 1 5 -14z m4380 -79 c-10 -9 -35
-20 -55 -25 -38 -11 -127 -14 -117 -4 9 9 139 43 167 43 24 0 24 0 5 -14z
m237 -2 c23 -21 23 -33 0 -33 -21 0 -42 18 -42 37 0 18 20 16 42 -4z m-1352
-63 c0 -16 -4 -32 -10 -35 -6 -4 -10 10 -10 35 0 25 4 39 10 35 6 -3 10 -19
10 -35z m-702 -2 c11 -13 25 -36 31 -51 11 -28 5 -77 -8 -77 -11 0 -61 106
-61 129 0 27 11 26 38 -1z m1761 -32 c83 -3 90 -21 14 -37 -63 -14 -277 -19
-289 -7 -9 10 14 38 41 49 11 5 54 6 95 3 41 -4 104 -7 139 -8z m-369 -71 c0
-17 -33 -66 -56 -84 -60 -48 -76 1 -18 55 30 29 74 46 74 29z m281 -46 c14
-14 19 -30 17 -52 -2 -27 -9 -34 -38 -43 -39 -13 -47 -26 -25 -44 20 -17 61
-5 68 20 3 12 13 20 26 20 18 0 21 -6 21 -37 0 -21 -4 -44 -9 -51 -19 -30
-166 -41 -291 -22 -74 12 -160 38 -160 49 0 4 15 13 34 19 19 7 62 38 97 69
34 30 81 64 103 74 57 26 130 25 157 -2z m-991 -38 c13 -25 13 -232 0 -302 -6
-29 -17 -64 -26 -77 -30 -46 -36 -4 -24 180 6 95 13 183 16 196 5 27 20 28 34
3z"/>
<path d="M5215 8800 c3 -5 17 -10 31 -10 13 0 24 5 24 10 0 6 -14 10 -31 10
-17 0 -28 -4 -24 -10z"/>
<path d="M4903 6015 c-3 -9 -2 -19 1 -23 8 -8 38 10 44 26 6 18 -38 14 -45 -3z"/>
<path d="M5104 5759 c-19 -21 -19 -21 11 -17 18 2 30 9 30 17 0 23 -20 23 -41
0z"/>
<path d="M6144 5745 c-4 -9 -2 -21 4 -27 15 -15 44 -1 40 19 -4 23 -36 29 -44
8z"/>
<path d="M9580 5441 c0 -22 25 -39 38 -27 8 8 -10 38 -26 44 -7 2 -12 -6 -12
-17z"/>
<path d="M5619 5244 c-11 -27 -27 -47 -45 -55 -21 -10 -30 -22 -32 -44 -2 -27
-1 -28 11 -12 8 9 28 22 46 28 34 12 44 36 39 90 l-3 34 -16 -41z"/>
<path d="M3540 4955 l-55 -34 50 -1 c57 0 95 20 95 51 0 29 -29 24 -90 -16z"/>
<path d="M3460 4841 c0 -14 61 -62 74 -58 27 9 17 38 -18 52 -41 17 -56 19
-56 6z"/>
<path d="M4032 4797 c-22 -24 -29 -47 -14 -47 12 0 52 44 52 58 0 18 -14 14
-38 -11z"/>
<path d="M3890 4225 c0 -27 2 -46 5 -43 8 8 9 77 2 85 -4 3 -7 -15 -7 -42z"/>
<path d="M4086 4119 c-12 -18 -13 -49 0 -49 4 0 34 56 34 65 0 13 -20 3 -34
-16z"/>
<path d="M4303 4089 c-16 -16 -5 -39 18 -39 24 0 37 29 18 41 -18 11 -23 11
-36 -2z"/>
<path d="M6250 4060 c0 -16 5 -30 10 -30 6 0 10 14 10 30 0 17 -4 30 -10 30
-5 0 -10 -13 -10 -30z"/>
<path d="M6014 4014 c4 -16 0 -46 -10 -75 -20 -55 -16 -66 18 -49 62 33 75 76
37 124 -28 35 -53 35 -45 0z"/>
<path d="M6251 3901 c-7 -24 -19 -42 -31 -46 -11 -4 -20 -13 -20 -21 0 -19 28
-12 88 22 47 28 52 46 20 68 -34 24 -44 20 -57 -23z"/>
<path d="M5107 4403 c-11 -10 24 -43 45 -43 19 0 22 8 12 34 -6 16 -45 22 -57
9z"/>
<path d="M2178 4244 c-28 -15 -37 -47 -18 -59 18 -11 85 28 85 50 0 25 -31 30
-67 9z"/>
<path d="M2462 4238 c-18 -18 -14 -28 12 -28 13 0 26 6 29 14 10 26 -19 36
-41 14z"/>
<path d="M10660 4125 c-10 -12 -9 -16 4 -21 22 -8 46 2 46 21 0 19 -34 20 -50
0z"/>
<path d="M10420 3947 c0 -18 21 -37 41 -37 24 0 33 18 19 35 -15 19 -60 20
-60 2z"/>
<path d="M10197 3793 c-10 -9 -9 -43 1 -43 14 0 43 36 35 43 -8 9 -28 9 -36 0z"/>
<path d="M1663 4180 c-51 -21 -7 -44 62 -33 49 7 77 21 70 34 -8 11 -102 11
-132 -1z"/>
<path d="M2490 4000 c0 -5 14 -10 30 -10 17 0 30 5 30 10 0 6 -13 10 -30 10
-16 0 -30 -4 -30 -10z"/>
<path d="M1937 3984 c-4 -4 -7 -16 -7 -26 0 -13 7 -18 26 -18 21 0 25 4 22 22
-3 23 -27 35 -41 22z"/>
<path d="M10030 3677 c0 -19 21 -37 42 -37 24 0 23 27 -1 40 -26 14 -41 13
-41 -3z"/>
<path d="M6970 3097 c0 -20 38 -47 67 -47 49 0 20 45 -35 56 -25 5 -32 3 -32
-9z"/>
<path d="M8895 3130 c-11 -19 16 -40 51 -40 38 0 51 14 34 35 -14 17 -76 20
-85 5z"/>
<path d="M4516 2475 c-48 -17 -60 -29 -52 -51 5 -13 14 -15 38 -10 37 7 108
51 108 66 0 14 -48 12 -94 -5z"/>
<path d="M5650 9180 c-13 -24 2 -60 25 -60 20 0 30 47 15 65 -17 20 -27 19
-40 -5z"/>
<path d="M8648 8684 c-16 -8 -28 -23 -28 -34 0 -26 12 -25 37 3 43 47 40 58
-9 31z"/>
<path d="M3988 8433 c-10 -3 -18 -12 -18 -22 0 -27 67 -91 95 -91 34 0 39 15
11 34 -14 8 -26 25 -28 37 -4 26 -36 48 -60 42z"/>
<path d="M9720 8195 c0 -15 60 -59 69 -50 6 6 -29 44 -51 56 -14 7 -18 6 -18
-6z"/>
<path d="M9280 7912 c0 -9 54 -42 69 -42 18 0 12 29 -8 40 -23 12 -61 13 -61
2z"/>
<path d="M9964 7845 c18 -14 18 -16 3 -33 -33 -36 -13 -42 53 -16 65 26 43 64
-37 64 -35 -1 -37 -2 -19 -15z"/>
<path d="M10331 7770 c0 -33 1 -34 10 -11 6 16 6 28 -1 35 -7 7 -10 -1 -9 -24z"/>
<path d="M9679 7741 c-26 -29 -37 -34 -109 -46 -19 -3 -42 -10 -50 -15 -26
-17 9 -31 60 -25 125 17 175 48 150 94 -14 28 -21 27 -51 -8z"/>
<path d="M10061 7726 c-19 -23 -10 -71 14 -71 23 0 48 45 39 69 -8 20 -38 21
-53 2z"/>
<path d="M2460 7615 c-10 -12 -9 -16 3 -21 20 -7 37 3 37 22 0 18 -24 18 -40
-1z"/>
<path d="M2383 7583 c-35 -14 10 -73 55 -73 29 0 52 16 52 36 0 18 -83 47
-107 37z"/>
<path d="M11080 7535 c-19 -23 -5 -46 22 -36 30 11 38 51 10 51 -11 0 -25 -7
-32 -15z"/>
<path d="M11215 7526 c-19 -14 -19 -16 -2 -33 16 -16 18 -16 34 0 15 15 16 19
2 32 -13 13 -17 13 -34 1z"/>
<path d="M10803 7503 c-17 -6 -16 -28 1 -42 20 -17 52 15 35 35 -12 15 -16 16
-36 7z"/>
<path d="M10881 7470 c0 -33 1 -34 10 -11 6 16 6 28 -1 35 -7 7 -10 -1 -9 -24z"/>
<path d="M2286 7435 c-6 -16 16 -31 32 -21 5 3 24 -6 42 -19 39 -29 50 -31 50
-11 0 42 -110 87 -124 51z"/>
<path d="M10660 7414 c-11 -12 -10 -18 3 -32 16 -15 18 -15 34 0 13 14 14 20
3 32 -7 9 -16 16 -20 16 -4 0 -13 -7 -20 -16z"/>
<path d="M11862 7340 c-23 -37 -29 -70 -12 -70 18 0 42 48 38 77 l-3 28 -23
-35z"/>
<path d="M2320 7275 c-18 -22 -1 -37 36 -33 21 2 29 8 29 23 0 26 -46 33 -65
10z"/>
<path d="M11982 7278 c-15 -18 1 -41 24 -36 23 4 26 41 3 46 -9 1 -21 -3 -27
-10z"/>
<path d="M11943 7128 c-30 -15 -29 -24 9 -58 42 -38 85 -57 100 -42 16 16 -5
38 -43 46 -29 5 -31 9 -25 36 6 33 -3 36 -41 18z"/>
<path d="M10161 7034 c-24 -31 -26 -44 -8 -44 16 0 57 42 57 58 0 21 -28 13
-49 -14z"/>
<path d="M11722 6727 c-28 -30 -28 -37 1 -37 28 0 47 17 47 42 0 25 -22 23
-48 -5z"/>
<path d="M11550 6704 c-18 -21 -18 -100 -1 -117 10 -9 17 -7 32 12 24 29 24
72 1 101 -17 21 -19 21 -32 4z"/>
<path d="M11800 6637 c-28 -14 -50 -51 -50 -84 0 -29 -9 -33 -98 -49 -50 -8
-82 -20 -96 -33 l-20 -21 29 0 c47 0 165 28 190 44 12 8 25 29 28 46 5 21 18
37 42 51 57 34 33 76 -25 46z"/>
<path d="M11920 6583 c-30 -25 -68 -50 -83 -56 -21 -7 -27 -15 -25 -31 6 -39
66 -34 118 10 40 34 79 125 53 124 -5 0 -33 -21 -63 -47z"/>
<path d="M12349 6222 c-15 -13 -20 -25 -15 -37 6 -17 9 -16 36 10 17 16 30 32
30 37 0 14 -27 9 -51 -10z"/>
<path d="M12188 6223 c-40 -10 -6 -53 42 -53 22 0 38 26 24 40 -13 11 -46 18
-66 13z"/>
<path d="M1160 5326 c0 -8 9 -24 20 -37 17 -21 19 -22 20 -6 0 23 -18 57 -30
57 -6 0 -10 -6 -10 -14z"/>
<path d="M1254 5231 c4 -6 15 -11 23 -11 9 0 40 -25 69 -56 55 -60 84 -67 84
-20 0 16 9 32 26 42 23 16 24 19 10 33 -20 19 -223 31 -212 12z"/>
<path d="M1165 5110 c-4 -7 -3 -16 3 -22 14 -14 57 -6 57 12 0 18 -50 26 -60
10z"/>
<path d="M1187 4926 c-7 -19 18 -40 39 -32 8 3 14 14 12 23 -4 22 -43 29 -51
9z"/>
<path d="M1323 4914 c-7 -20 9 -49 28 -49 22 0 18 59 -4 63 -9 2 -20 -4 -24
-14z"/>
<path d="M378 4612 c-9 -4 -26 -20 -39 -35 -19 -25 -27 -28 -55 -22 -27 5 -33
3 -28 -9 23 -59 204 -28 204 35 0 30 -43 46 -82 31z"/>
<path d="M267 4423 c-14 -13 -6 -59 18 -111 25 -55 45 -61 45 -15 0 60 -43
146 -63 126z"/>
<path d="M250 4187 c-43 -15 -52 -44 -16 -53 36 -9 73 3 86 26 21 39 -5 49
-70 27z"/>
<path d="M4 3968 c12 -61 53 -99 92 -84 13 5 13 10 -3 37 -20 34 -68 79 -85
79 -6 0 -8 -12 -4 -32z"/>
<path d="M1415 3629 c-66 -58 -30 -82 43 -29 23 17 42 37 42 45 0 26 -47 17
-85 -16z"/>
<path d="M1630 3600 c0 -6 15 -17 33 -24 79 -33 135 -28 64 6 -47 23 -97 32
-97 18z"/>
<path d="M10845 3500 c-7 -12 67 -50 96 -50 17 0 19 3 10 14 -16 19 -99 47
-106 36z"/>
<path d="M11056 3492 c-3 -5 9 -24 27 -43 l32 -34 3 30 c5 38 -44 75 -62 47z"/>
<path d="M11620 3460 c-30 -25 -32 -29 -15 -30 26 0 65 27 65 46 0 21 -12 17
-50 -16z"/>
<path d="M11240 3327 c0 -32 28 -64 63 -73 15 -3 27 -3 27 1 0 16 -22 44 -55
69 l-35 27 0 -24z"/>
<path d="M10565 3161 c-73 -18 -99 -55 -49 -67 49 -12 141 30 131 60 -4 14
-42 17 -82 7z"/>
<path d="M10909 3090 c-62 -11 -89 -26 -89 -51 0 -31 27 -34 99 -11 81 26 99
27 122 6 22 -20 81 -12 129 17 52 32 26 44 -103 46 -62 1 -133 -2 -158 -7z"/>
<path d="M10225 3050 c-4 -6 7 -10 27 -10 25 0 29 3 18 10 -19 13 -37 13 -45
0z"/>
<path d="M10501 2956 c-18 -21 -9 -51 14 -51 15 0 20 7 20 29 0 33 -16 44 -34
22z"/>
<path d="M1657 2943 c-12 -11 -8 -21 24 -58 34 -39 49 -44 49 -17 0 43 -52 97
-73 75z"/>
<path d="M1775 2890 c-7 -12 12 -40 27 -40 13 0 6 43 -9 47 -6 2 -14 -1 -18
-7z"/>
<path d="M1462 2765 c-21 -18 -42 -25 -71 -25 -49 0 -58 -14 -42 -63 16 -47
44 -69 88 -71 37 -1 38 0 38 34 0 31 3 35 25 35 20 0 26 -6 28 -30 4 -39 15
-49 42 -40 40 13 69 126 36 138 -8 3 -32 3 -53 0 -37 -5 -38 -5 -15 11 31 24
27 36 -12 36 -22 0 -45 -9 -64 -25z"/>
<path d="M1717 2703 c-11 -11 -8 -91 4 -99 15 -9 29 15 29 52 0 31 -21 60 -33
47z"/>
<path d="M1283 2594 c-5 -15 32 -64 49 -64 11 0 10 25 -4 55 -13 28 -36 33
-45 9z"/>
<path d="M1505 2490 c-10 -11 -15 -26 -11 -36 6 -15 8 -15 26 1 20 18 28 55
12 55 -5 0 -17 -9 -27 -20z"/>
<path d="M10986 2474 c-9 -23 22 -50 38 -34 7 7 4 17 -10 31 -20 19 -22 20
-28 3z"/>
<path d="M1829 2464 c-10 -13 -10 -17 1 -24 17 -10 40 5 40 26 0 19 -25 18
-41 -2z"/>
<path d="M10990 2354 c-6 -14 -13 -43 -16 -65 -5 -31 -3 -39 9 -39 8 0 20 14
26 31 23 67 5 137 -19 73z"/>
<path d="M2976 2341 c-11 -18 6 -42 28 -39 29 4 29 42 -1 46 -11 2 -24 -1 -27
-7z"/>
<path d="M9339 2314 c-18 -22 4 -42 26 -24 19 16 19 26 1 33 -8 3 -20 -1 -27
-9z"/>
<path d="M2920 2290 c0 -16 5 -30 10 -30 6 0 10 14 10 30 0 17 -4 30 -10 30
-5 0 -10 -13 -10 -30z"/>
<path d="M2218 2294 c-4 -3 2 -24 13 -47 10 -23 19 -50 19 -59 0 -23 38 -32
73 -19 33 13 34 28 4 61 -43 49 -94 79 -109 64z"/>
<path d="M3373 2224 c-33 -17 -44 -34 -20 -34 13 0 77 37 77 45 0 9 -25 5 -57
-11z"/>
<path d="M9637 2116 c-7 -19 18 -40 39 -32 8 3 14 14 12 23 -4 22 -43 29 -51
9z"/>
<path d="M2244 2110 c-12 -4 -30 -24 -42 -43 -16 -28 -28 -36 -64 -42 -73 -12
-168 -71 -153 -95 12 -20 64 -11 76 13 18 33 29 38 89 36 90 -2 89 -3 115 54
38 80 32 99 -21 77z"/>
<path d="M3947 2074 c-4 -4 -7 -16 -7 -26 0 -14 6 -19 23 -16 14 2 22 10 22
23 0 20 -25 32 -38 19z"/>
<path d="M3763 2033 c-7 -2 -13 -11 -13 -20 0 -21 44 -13 48 10 3 17 -10 21
-35 10z"/>
<path d="M2350 1953 c0 -38 22 -96 45 -119 18 -18 35 -24 70 -24 l46 0 -67 78
c-70 80 -94 97 -94 65z"/>
<path d="M9598 1923 c-40 -10 -10 -33 42 -33 41 0 80 -17 80 -34 0 -25 18 -28
40 -6 28 28 26 66 -2 74 -26 6 -134 6 -160 -1z"/>
<path d="M9950 1880 c-17 -10 30 -21 48 -11 11 6 8 9 -11 13 -14 3 -31 2 -37
-2z"/>
<path d="M9584 1845 c-8 -20 4 -35 29 -35 13 0 34 -13 49 -30 27 -31 68 -41
68 -16 0 14 -113 96 -131 96 -5 0 -12 -7 -15 -15z"/>
<path d="M8813 1814 c-6 -17 12 -34 37 -34 25 0 43 17 37 34 -4 10 -18 16 -37
16 -19 0 -33 -6 -37 -16z"/>
<path d="M8280 1520 c0 -5 16 -10 35 -10 19 0 35 5 35 10 0 6 -16 10 -35 10
-19 0 -35 -4 -35 -10z"/>
</g>
</svg>
