<?xml version="1.0" standalone="no"?>
<!DOCTYPE svg PUBLIC "-//W3C//DTD SVG 20010904//EN"
 "http://www.w3.org/TR/2001/REC-SVG-20010904/DTD/svg10.dtd">
<svg version="1.0" xmlns="http://www.w3.org/2000/svg"
 width="1280.000000pt" height="1226.000000pt" viewBox="0 0 1280.000000 1226.000000"
 preserveAspectRatio="xMidYMid meet">
<metadata>
Created by potrace 1.15, written by Peter Selinger 2001-2017
</metadata>
<g transform="translate(0.000000,1226.000000) scale(0.100000,-0.100000)"
fill="#9e9e9e" stroke="none">
<path d="M5805 12245 c-301 -56 -593 -255 -709 -483 -35 -70 -59 -167 -53
-214 5 -40 -2 -48 -23 -23 -20 24 -168 115 -245 150 -193 88 -358 119 -593
112 -180 -5 -260 -19 -407 -69 -173 -59 -302 -137 -430 -259 -214 -205 -302
-471 -244 -732 6 -26 10 -50 7 -52 -2 -2 -48 -13 -103 -24 -129 -26 -208 -52
-321 -105 -470 -222 -833 -738 -934 -1332 -24 -141 -27 -376 -6 -486 49 -255
167 -414 357 -479 103 -35 298 -27 412 16 9 4 -45 -55 -121 -131 -153 -155
-241 -260 -340 -409 -123 -185 -209 -378 -254 -569 -31 -131 -31 -367 1 -481
78 -287 280 -493 577 -590 141 -46 247 -58 458 -52 152 4 216 11 311 31 237
50 446 125 704 251 85 42 155 74 157 73 1 -2 16 -44 32 -95 81 -253 240 -404
460 -435 210 -31 477 75 652 258 l65 68 180 1 c147 1 198 5 277 24 168 38 326
100 447 172 34 22 64 39 65 39 4 0 26 -180 36 -295 15 -169 12 -609 -5 -763
-24 -217 -65 -390 -135 -569 l-31 -83 -134 0 -133 0 -7 46 c-7 49 -35 148 -39
142 -2 -1 2 -37 10 -78 22 -122 37 -110 -142 -110 l-157 0 5 103 c3 56 2 93
-2 82 -5 -11 -9 -40 -9 -65 -1 -25 -4 -62 -7 -83 l-7 -37 -350 0 -350 0 7 108
c4 59 9 118 11 132 3 14 -2 5 -10 -19 -8 -24 -18 -83 -22 -130 -8 -83 -9 -86
-33 -86 -22 0 -25 5 -33 54 -11 77 -21 79 -14 4 l7 -63 -70 0 -69 0 4 63 c3
34 10 132 15 217 11 160 36 377 47 408 4 11 3 14 -4 7 -16 -15 -41 -138 -52
-260 -6 -60 -14 -141 -18 -180 l-7 -70 -8 85 c-4 47 -14 114 -23 150 l-15 65
5 -55 c2 -30 7 -139 11 -242 l7 -188 -103 0 -103 0 5 137 c6 158 -8 131 -18
-34 -4 -57 -10 -103 -14 -103 -5 0 -11 30 -15 68 -12 126 -25 146 -21 35 l3
-103 -63 0 -63 0 -4 42 -4 43 -1 -43 c-3 -74 -25 -44 -44 59 l-17 94 5 -97 4
-98 -43 0 -44 0 3 183 c3 200 -6 184 -26 -46 -7 -73 -13 -133 -15 -135 -2 -2
-6 54 -9 125 -10 177 -36 545 -41 563 -6 22 4 -499 12 -603 l6 -87 -198 0
-198 0 8 112 c4 61 9 118 12 127 4 11 3 13 -5 6 -6 -5 -16 -53 -22 -105 -17
-141 -17 -142 -43 -138 -19 3 -24 13 -34 68 l-12 65 4 -67 4 -68 -70 0 -70 0
5 43 c3 23 8 92 11 152 6 123 33 406 41 445 3 14 8 34 11 45 4 13 2 17 -5 10
-22 -22 -61 -263 -63 -395 -1 -36 -5 -78 -9 -95 -7 -26 -8 -22 -9 23 -1 59
-29 244 -38 252 -3 3 -3 -24 1 -60 3 -36 9 -145 13 -242 l6 -178 -103 0 -103
0 5 138 c6 157 -8 130 -18 -36 -4 -56 -11 -102 -16 -102 -4 0 -8 15 -9 33 0
17 -7 64 -14 102 l-14 70 3 -103 3 -102 -63 0 -63 0 -4 42 -4 43 -1 -43 c-3
-74 -25 -44 -44 59 l-17 94 5 -97 4 -98 -43 0 -44 0 3 183 c3 200 -6 184 -26
-46 -7 -73 -13 -133 -15 -135 -1 -2 -6 55 -9 125 -9 178 -36 545 -41 563 -6
22 4 -508 12 -607 l6 -83 -336 0 -336 0 -11 58 c-15 73 -32 133 -37 128 -4 -3
11 -105 23 -163 l4 -23 -155 0 -155 0 -2 108 -1 107 -10 -107 -9 -108 -325 0
-324 0 5 33 c3 17 7 77 10 132 6 123 -8 89 -26 -63 -11 -94 -14 -103 -33 -100
-16 2 -22 15 -32 68 l-12 65 3 -68 4 -67 -70 0 -70 0 7 123 c9 174 33 441 46
515 15 86 5 90 -14 5 -22 -96 -35 -199 -44 -343 l-7 -125 -8 87 c-5 48 -15
117 -23 155 l-14 68 4 -95 c3 -52 8 -161 11 -243 l7 -147 -102 0 -103 0 4 135
c2 74 0 131 -4 127 -9 -9 -30 -230 -23 -242 3 -5 1 -11 -4 -14 -5 -3 -14 38
-21 91 -16 133 -30 160 -24 48 3 -49 7 -102 9 -117 l5 -28 -65 0 -65 0 0 48
c0 34 -3 43 -10 32 -5 -8 -10 -30 -10 -47 0 -65 -17 -31 -33 64 l-16 98 2 -97
3 -98 -44 0 -44 0 7 198 c4 108 5 195 2 192 -8 -8 -37 -266 -37 -334 0 -119
-12 -43 -21 131 -10 213 -38 555 -45 562 -6 6 3 -320 17 -579 5 -102 9 -197 9
-212 l0 -28 2986 0 2986 0 -33 -57 c-71 -126 -189 -293 -212 -298 -12 -3 -254
-48 -537 -100 -283 -53 -544 -102 -580 -110 l-65 -14 60 5 c361 29 1074 84
1092 84 20 0 10 -12 -55 -70 l-79 -69 -359 -134 -360 -134 -534 58 c-294 32
-542 58 -550 56 -7 -1 84 -33 203 -72 120 -38 216 -72 215 -77 -2 -4 -106
-116 -233 -250 -317 -334 -383 -406 -360 -387 257 206 723 577 733 583 11 7
539 -22 550 -30 2 -1 -78 -111 -178 -245 -100 -134 -190 -257 -202 -274 -11
-16 114 108 280 276 l300 305 283 63 c156 34 293 65 305 67 l20 5 -21 -205
c-11 -113 -19 -206 -18 -206 1 0 45 82 99 182 87 162 116 205 252 376 85 105
158 192 162 192 36 0 54 -125 47 -330 -6 -180 -24 -284 -63 -369 -35 -77 -159
-195 -384 -367 -189 -145 -228 -179 -217 -191 4 -3 42 12 85 33 353 182 425
216 482 231 36 9 77 14 91 10 34 -9 65 -68 85 -163 21 -101 15 -347 -11 -444
-40 -149 -76 -201 -212 -307 l-84 -66 -97 7 c-53 4 -319 25 -591 47 l-494 39
-381 195 c-209 107 -382 193 -383 191 -2 -2 13 -14 34 -26 98 -57 592 -374
589 -377 -2 -2 -115 -13 -252 -23 -370 -29 -488 -55 -714 -159 -246 -113 -620
-294 -616 -299 8 -7 150 42 457 156 518 193 529 195 1129 232 162 10 204 9
559 -20 211 -16 403 -30 427 -30 24 0 44 -3 44 -7 0 -5 -203 -90 -451 -190
l-451 -182 -226 85 c-125 47 -243 92 -262 100 -64 27 -17 -3 173 -111 103 -58
187 -109 187 -113 0 -6 -345 -185 -848 -440 -112 -57 -202 -105 -200 -107 2
-2 103 26 226 62 122 36 225 64 227 61 2 -2 -34 -167 -80 -367 -81 -344 -97
-424 -73 -356 71 199 290 781 298 789 25 25 396 214 405 206 6 -5 74 -90 150
-188 77 -99 141 -179 143 -177 1 1 -29 94 -67 206 -39 112 -69 204 -68 205 14
8 1077 429 1077 427 0 -5 -638 -681 -650 -688 -6 -3 -10 -10 -10 -16 0 -5 191
150 424 344 410 341 428 355 588 445 91 50 172 92 181 92 41 0 48 -37 57 -297
5 -136 12 -286 15 -333 l6 -85 -175 -144 c-97 -79 -174 -146 -173 -148 2 -2
46 18 98 43 52 26 136 66 187 90 84 39 92 41 92 23 0 -22 -27 -293 -35 -355
l-6 -42 -182 -67 c-100 -37 -247 -92 -327 -122 -80 -30 -156 -55 -170 -55 -14
1 -140 22 -280 47 -140 25 -266 48 -280 51 -14 2 94 -36 240 -86 146 -49 270
-92 276 -94 8 -3 -8 -72 -46 -203 -32 -109 -57 -199 -56 -201 2 -1 57 90 122
203 l119 205 283 105 c156 58 287 105 291 105 13 0 21 -190 22 -514 l1 -301
39 295 c21 162 38 298 39 301 0 4 136 -65 303 -153 418 -221 535 -281 512
-264 -11 9 -193 134 -405 279 l-385 263 3 244 c2 135 5 246 7 248 2 2 86 -52
186 -120 229 -154 223 -150 168 -92 -25 27 -114 122 -198 212 l-153 162 6 63
c8 76 46 695 46 737 0 16 4 30 10 30 5 0 42 -55 81 -122 40 -68 106 -177 147
-243 59 -95 95 -173 179 -385 58 -146 109 -268 113 -273 3 -4 -4 57 -16 135
-13 79 -23 153 -23 166 -1 23 64 -38 575 -540 105 -104 194 -188 197 -188 4 0
-152 183 -347 408 -195 224 -353 409 -351 410 3 3 629 -270 680 -296 7 -3 7
-2 0 5 -5 6 -199 118 -429 249 l-420 239 -62 83 c-95 129 -157 239 -158 281
-1 33 1 36 31 39 45 4 144 -39 558 -245 198 -98 448 -217 555 -263 181 -79
202 -90 290 -164 334 -280 920 -778 925 -786 3 -6 10 -10 14 -10 5 0 -157 165
-360 367 -203 201 -367 368 -366 369 2 3 977 -319 1037 -341 8 -4 11 -3 8 1
-4 3 -146 68 -315 144 -169 75 -481 215 -693 310 -780 349 -966 432 -989 441
-13 5 -22 11 -20 13 2 3 153 25 335 51 l331 46 349 -126 c192 -69 378 -137
413 -151 35 -14 65 -23 67 -21 2 2 -156 81 -351 177 -195 95 -354 175 -352
176 2 2 248 28 547 59 633 64 722 76 545 69 -66 -2 -322 -9 -570 -15 -501 -12
-395 0 -1031 -118 l-272 -51 -103 19 c-163 30 -199 41 -284 82 -141 69 -261
184 -320 306 -93 193 -115 628 -37 732 17 23 27 26 75 26 45 0 71 -9 148 -47
97 -48 231 -127 404 -239 138 -89 194 -121 207 -117 19 7 -42 66 -266 262
-235 206 -398 367 -458 456 -48 71 -68 148 -75 286 -7 128 1 194 25 224 17 20
18 20 125 -40 l107 -61 140 -277 c77 -152 138 -263 135 -247 -3 17 -25 129
-49 250 -24 121 -43 221 -41 223 2 2 25 -10 51 -26 27 -16 182 -104 346 -196
l296 -167 247 -260 c136 -142 249 -259 250 -259 2 0 -39 95 -91 211 -116 261
-113 254 -83 245 261 -71 1761 -457 1765 -453 2 1 -164 74 -367 161 -204 87
-367 162 -362 167 4 4 125 76 268 160 143 83 253 149 245 146 -8 -2 -161 -66
-340 -142 -214 -90 -334 -135 -350 -132 -21 3 -799 219 -988 274 l-54 15 184
110 c184 110 210 128 173 114 -11 -5 -132 -46 -270 -93 l-250 -85 -110 58
c-154 80 -227 130 -328 224 -150 141 -292 326 -401 522 l-37 68 2854 0 2855 0
4 35 4 35 -175 2 -175 3 -13 63 c-7 35 -18 71 -24 80 -10 16 -10 16 -5 -1 3
-9 8 -46 12 -82 l7 -65 -152 0 -151 0 -2 83 c-1 45 -3 64 -5 42 -2 -22 -6 -59
-9 -82 l-5 -43 -266 0 -265 0 6 82 c4 46 9 106 11 133 4 42 3 46 -6 25 -6 -14
-16 -73 -22 -132 -11 -102 -13 -108 -34 -108 -18 0 -23 7 -28 38 -13 73 -25
90 -19 25 l6 -63 -68 0 -67 0 7 148 c8 164 31 413 46 493 12 63 12 69 0 48
-24 -41 -60 -292 -60 -417 0 -46 -4 -71 -10 -67 -5 3 -10 27 -10 53 0 53 -26
212 -36 221 -4 3 -4 -14 0 -39 3 -25 9 -134 13 -242 l6 -198 -103 0 -103 0 5
138 c6 145 -4 116 -21 -58 -9 -97 -13 -92 -34 40 l-16 95 4 -107 5 -108 -65 0
-64 0 -4 43 -4 42 -1 -42 c-1 -24 -6 -43 -12 -43 -11 0 -16 17 -30 115 -16
102 -23 94 -15 -17 l7 -98 -45 0 -45 0 4 72 c17 307 7 396 -16 137 -20 -234
-25 -232 -39 16 -7 127 -19 291 -26 365 l-14 135 5 -245 c2 -135 7 -298 11
-362 l6 -118 -138 0 -138 0 6 128 c6 137 -3 123 -24 -35 -11 -86 -13 -93 -34
-93 -19 0 -24 8 -33 63 l-11 62 3 -62 2 -63 -69 0 -69 0 7 93 c17 257 27 382
41 480 9 60 13 111 11 114 -15 14 -52 -219 -64 -397 l-7 -115 -8 80 c-4 44
-14 112 -22 150 l-15 70 4 -85 c2 -47 7 -154 11 -237 l7 -153 -103 0 -103 0 5
135 c2 74 3 135 2 135 -5 0 -24 -137 -27 -197 -2 -35 -7 -66 -10 -70 -4 -3 -7
-2 -7 4 0 29 -23 179 -29 185 -3 4 -5 -38 -3 -92 l3 -100 -60 0 -60 0 -3 43
-4 42 -8 -43 c-5 -23 -12 -42 -16 -42 -4 0 -15 42 -24 93 l-15 92 3 -93 3 -92
-43 0 -43 0 4 188 c5 212 -6 195 -27 -43 -10 -123 -14 -142 -20 -105 -3 25 -7
77 -7 115 -1 113 -32 508 -41 530 -6 13 -7 -1 -5 -40 3 -33 7 -168 10 -300 3
-132 8 -264 11 -293 l7 -52 -340 0 -340 0 -13 60 c-7 33 -17 63 -23 67 -6 4
-8 0 -4 -10 3 -9 9 -39 13 -67 l7 -50 -153 0 -153 0 5 71 c3 41 2 65 -3 58 -5
-8 -9 -40 -9 -71 l0 -58 -312 0 -311 0 7 112 c4 62 4 110 2 107 -3 -3 -13 -53
-22 -112 -16 -101 -18 -107 -40 -107 -24 0 -27 7 -37 70 -3 14 -5 4 -6 -22
l-1 -48 -66 0 -65 0 6 98 c11 170 35 435 47 500 14 87 4 88 -16 2 -19 -85 -34
-205 -45 -355 -5 -60 -9 -91 -10 -68 -1 54 -31 256 -38 263 -5 5 -3 -40 13
-330 l7 -110 -102 0 -102 0 3 110 c3 120 -7 136 -17 25 -14 -157 -26 -171 -40
-45 -12 107 -25 113 -18 8 l6 -98 -62 0 c-56 0 -61 2 -62 23 l0 22 -11 -23
c-18 -37 -32 -20 -44 54 l-11 69 -2 -72 -1 -73 -40 0 -41 0 5 178 c6 199 -5
182 -25 -40 -7 -75 -15 -135 -19 -133 -4 2 -10 80 -14 172 -3 92 -13 242 -21
333 -8 91 -15 171 -15 179 0 8 -2 12 -5 9 -3 -3 -1 -144 5 -313 6 -170 9 -310
7 -312 -5 -4 -59 149 -81 227 -8 30 -25 109 -38 175 -22 113 -23 143 -23 515
1 472 18 668 75 872 l11 38 47 -24 c66 -33 153 -61 252 -83 127 -27 440 -24
610 6 330 58 633 154 1105 351 l198 83 131 -42 c167 -53 271 -76 419 -96 136
-17 374 -20 497 -5 480 59 870 284 1043 601 64 116 82 188 82 324 0 108 -3
128 -31 206 l-30 85 19 45 c36 83 96 271 116 363 75 352 31 683 -130 957 -182
312 -544 573 -959 692 l-55 16 3 95 c9 234 -85 444 -287 646 -269 268 -705
458 -1138 495 l-81 7 -50 62 c-64 79 -235 244 -335 324 -267 213 -606 380
-857 422 -96 17 -260 17 -330 1 -187 -43 -346 -150 -448 -303 -13 -21 -26 -38
-28 -38 -1 0 -27 37 -57 83 -117 178 -269 293 -459 348 -96 27 -265 34 -373
14z"/>
<path d="M45 5623 c4 -49 9 -90 10 -93 2 -3 17 -7 34 -8 32 -2 42 11 17 21
-10 4 -14 17 -11 39 15 118 15 128 1 128 -8 0 -17 -10 -19 -22 l-4 -23 -2 23
c0 13 -7 22 -17 22 -14 0 -15 -11 -9 -87z"/>
<path d="M204 5654 l7 -59 -20 49 c-11 26 -23 51 -27 55 -11 10 6 -61 29 -121
l22 -58 95 2 95 2 -75 5 -75 6 4 88 c2 59 -1 87 -8 87 -6 0 -12 -22 -13 -52
l-1 -53 -6 49 c-3 28 -12 51 -19 54 -11 3 -12 -8 -8 -54z"/>
<path d="M394 5645 c12 -117 15 -125 47 -125 33 0 33 -3 17 107 -13 92 -28
109 -29 36 -1 -52 -4 -49 -14 10 -3 20 -11 37 -17 37 -7 0 -9 -21 -4 -65z"/>
<path d="M650 5631 c0 -44 -3 -86 -6 -95 -5 -14 11 -16 139 -16 l144 0 -8 43
c-4 23 -8 66 -9 95 0 77 -20 64 -21 -15 l-1 -68 -21 65 c-24 74 -25 76 -33 67
-6 -5 10 -119 22 -159 5 -16 -4 -18 -87 -18 l-92 0 7 90 c7 87 7 90 -13 90
-20 0 -21 -6 -21 -79z"/>
<path d="M1556 5688 c-6 -18 -26 -347 -27 -455 l-2 -88 -7 60 c-5 33 -14 119
-20 192 -6 73 -15 145 -20 160 -10 33 -4 -184 11 -391 11 -157 11 -156 -60
-156 -35 0 -42 3 -37 15 17 45 37 127 33 138 -2 6 -14 -13 -26 -43 -21 -53
-21 -54 -16 -15 3 22 10 83 15 135 18 181 10 203 -15 40 -31 -203 -32 -206
-35 -95 -2 88 -3 95 -12 60 -5 -22 -7 -83 -3 -137 l6 -97 -43 -4 c-24 -2 21
-4 99 -5 l141 -2 6 48 c5 44 20 313 30 539 2 57 0 106 -5 109 -5 3 -11 -1 -13
-8z"/>
<path d="M1894 5644 c9 -74 36 -515 36 -581 l0 -53 -85 0 c-61 0 -85 3 -85 13
0 6 6 50 14 97 21 127 28 208 16 190 -5 -8 -10 -26 -10 -40 -1 -37 -26 -150
-43 -190 -14 -34 -14 -31 -15 80 -1 101 -24 285 -38 299 -2 3 -1 -29 3 -70 4
-41 8 -145 8 -231 l0 -158 136 0 136 0 6 308 c4 169 9 323 12 342 4 25 3 29
-4 15 -4 -11 -14 -60 -20 -110 -25 -190 -25 -188 -32 -60 -8 144 -17 205 -31
205 -7 0 -8 -19 -4 -56z"/>
<path d="M2588 5693 c-2 -5 -1 -46 2 -93 l5 -85 40 -3 c36 -3 38 -2 21 11 -17
12 -18 22 -12 95 6 70 5 82 -8 82 -9 0 -16 -12 -19 -32 l-4 -33 -1 33 c-2 29
-16 43 -24 25z"/>
<path d="M2748 5695 c-3 -3 -1 -31 4 -61 5 -31 7 -58 5 -60 -2 -2 -11 21 -22
51 -10 30 -22 55 -26 55 -8 0 9 -70 31 -132 l14 -38 96 2 c89 2 90 2 23 5
l-73 4 0 91 c0 93 -15 114 -23 33 l-4 -40 -1 42 c-2 39 -12 59 -24 48z"/>
<path d="M2933 5664 c4 -22 9 -65 13 -96 l7 -58 34 0 c28 0 33 3 29 18 -2 9
-10 52 -17 95 -12 82 -28 102 -30 40 l-2 -38 -6 34 c-3 19 -12 36 -20 39 -11
4 -13 -4 -8 -34z"/>
<path d="M3190 5605 c0 -85 2 -95 18 -95 16 0 19 11 21 95 2 90 1 95 -18 95
-20 0 -21 -6 -21 -95z"/>
<path d="M3374 5673 c3 -16 11 -58 17 -95 11 -67 11 -68 43 -68 l31 0 -3 87
c-4 86 -15 123 -28 90 -3 -9 -4 -39 -2 -66 4 -63 -7 -56 -28 19 -16 59 -41 85
-30 33z"/>
<path d="M3858 5695 c-6 -6 0 -124 8 -162 4 -19 11 -23 41 -23 33 0 35 1 18
13 -16 12 -17 23 -11 95 6 69 5 82 -8 82 -8 0 -16 -12 -19 -27 l-4 -28 -2 28
c-1 25 -10 34 -23 22z"/>
<path d="M4017 5693 c-3 -5 -1 -30 4 -57 12 -64 6 -68 -15 -11 -39 101 -35 30
4 -77 l14 -38 96 2 c89 2 90 2 23 5 l-73 4 0 91 c0 57 -4 88 -9 83 -5 -6 -11
-26 -14 -45 l-4 -35 -1 37 c-2 35 -15 57 -25 41z"/>
<path d="M4203 5659 c4 -24 9 -68 13 -96 6 -52 7 -53 40 -53 30 0 34 3 29 23
-5 25 -25 148 -25 160 0 4 -4 7 -10 7 -5 0 -11 -21 -12 -47 l-1 -48 -6 44 c-3
25 -12 46 -20 49 -11 4 -12 -5 -8 -39z"/>
<path d="M4460 5605 c0 -84 2 -95 18 -95 15 0 18 12 20 95 3 91 3 95 -17 95
-20 0 -21 -5 -21 -95z"/>
<path d="M4643 5678 c3 -13 11 -56 18 -95 12 -72 13 -73 43 -73 l31 0 -3 83
c-4 94 -7 111 -23 101 -8 -4 -10 -29 -6 -73 5 -59 4 -63 -8 -41 -8 14 -19 46
-25 73 -7 26 -17 47 -22 47 -6 0 -8 -10 -5 -22z"/>
<path d="M5426 5643 c-6 -54 -23 -353 -27 -468 -1 -27 -5 0 -9 60 -4 61 -13
162 -21 225 l-14 115 -3 -80 c-2 -44 2 -166 8 -272 7 -105 9 -197 5 -202 -3
-6 -28 -11 -55 -11 l-49 0 18 53 c10 28 21 66 25 82 11 44 -10 20 -35 -41 -11
-27 -18 -38 -15 -24 11 54 26 207 25 255 l-1 50 -10 -50 c-5 -27 -16 -93 -23
-145 -12 -87 -13 -90 -15 -40 0 30 -5 73 -10 95 -6 28 -8 0 -7 -97 l2 -137
-45 -4 c-25 -2 21 -4 101 -5 l146 -2 7 113 c29 472 32 587 17 587 -5 0 -12
-26 -15 -57z"/>
<path d="M5769 5695 c-3 -2 -2 -39 3 -82 4 -43 12 -163 17 -268 6 -104 13
-223 16 -262 l6 -73 -92 0 c-90 0 -91 0 -85 23 13 48 37 237 34 264 -2 17 -9
-5 -16 -54 -7 -45 -21 -106 -31 -135 l-18 -52 -7 129 c-3 72 -12 159 -19 195
-12 60 -13 49 -12 -157 l0 -223 136 0 136 0 6 268 c4 147 9 301 12 342 l5 75
-15 -70 c-8 -39 -18 -109 -23 -155 l-7 -85 -13 155 c-12 141 -20 179 -33 165z"/>
<path d="M9513 5649 c4 -30 7 -73 7 -96 l0 -43 43 0 c35 1 39 2 24 11 -17 10
-18 22 -15 92 2 58 0 81 -9 84 -9 3 -13 -7 -14 -29 l-1 -33 -7 29 c-3 16 -12
31 -20 34 -11 4 -13 -5 -8 -49z"/>
<path d="M9674 5654 c4 -27 9 -58 12 -69 l4 -20 -10 20 c-5 11 -16 38 -25 59
-34 85 -24 6 11 -91 l16 -43 96 2 c93 2 94 2 22 5 l-75 4 4 91 c2 64 0 88 -8
84 -6 -4 -12 -26 -13 -49 l-1 -42 -6 44 c-3 25 -12 46 -20 49 -11 4 -12 -5 -7
-44z"/>
<path d="M9864 5638 c13 -125 15 -128 50 -128 l31 0 -15 95 c-8 52 -18 95 -22
95 -5 0 -9 -21 -9 -47 -1 -27 -3 -37 -6 -23 -8 54 -14 70 -24 70 -8 0 -10 -19
-5 -62z"/>
<path d="M10118 5605 c-3 -89 -2 -95 17 -95 18 0 20 8 23 95 3 89 2 95 -17 95
-18 0 -20 -8 -23 -95z"/>
<path d="M10300 5695 c0 -16 20 -139 26 -157 4 -15 -5 -18 -78 -21 -72 -2 -68
-3 34 -5 107 -2 116 -1 111 16 -2 10 -5 51 -6 92 -1 47 -6 75 -14 77 -8 3 -13
-16 -15 -64 l-3 -68 -19 60 c-17 56 -36 92 -36 70z"/>
<path d="M10670 5636 c0 -35 3 -78 6 -95 6 -28 10 -31 43 -31 33 1 34 2 18 14
-16 13 -18 24 -11 96 6 68 4 82 -7 78 -8 -3 -17 -18 -20 -34 l-7 -29 -1 33
c-2 61 -21 33 -21 -32z"/>
<path d="M10833 5638 l6 -63 -22 55 c-30 75 -34 38 -6 -50 l22 -70 96 2 c91 2
92 2 22 5 l-74 4 6 84 c4 50 2 87 -4 90 -5 4 -9 -12 -9 -35 0 -25 -4 -39 -10
-35 -5 3 -10 22 -10 41 0 19 -5 34 -11 34 -8 0 -10 -19 -6 -62z"/>
<path d="M11017 5693 c-3 -4 0 -47 6 -95 l11 -88 34 0 c30 0 34 3 29 23 -3 12
-8 45 -12 72 -9 76 -14 95 -25 95 -6 0 -11 -15 -11 -32 -2 -28 -2 -29 -6 -8
-5 29 -18 46 -26 33z"/>
<path d="M11275 5692 c-3 -3 -5 -45 -5 -94 0 -81 2 -88 20 -88 19 0 20 7 20
93 0 77 -3 94 -15 94 -8 0 -17 -3 -20 -5z"/>
<path d="M11458 5695 c-2 -3 2 -45 10 -95 l15 -90 35 0 c31 0 34 2 28 23 -3
12 -6 55 -6 95 0 55 -3 73 -12 69 -9 -3 -12 -24 -11 -66 2 -34 -1 -60 -6 -57
-4 3 -16 33 -25 66 -17 61 -19 64 -28 55z"/>
<path d="M7004 5609 c3 -34 6 -77 6 -95 l0 -34 211 0 212 0 -7 43 c-3 23 -9
66 -13 95 -7 65 -23 68 -24 5 -1 -52 -4 -49 -14 10 -3 20 -11 37 -17 37 -10 0
-5 -103 9 -157 5 -22 3 -23 -75 -23 l-79 0 5 90 c3 64 1 90 -7 90 -6 0 -12
-21 -13 -52 l-1 -53 -6 49 c-3 28 -12 51 -19 54 -11 3 -12 -8 -8 -54 l6 -59
-15 40 c-9 22 -20 44 -25 49 -14 14 -2 -45 20 -106 l18 -48 -48 0 c-26 0 -52
6 -57 13 -6 7 -7 41 -3 82 4 39 5 73 3 78 -8 14 -22 7 -26 -15 l-4 -23 -2 23
c0 13 -7 22 -17 22 -15 0 -16 -9 -10 -61z"/>
<path d="M7610 5598 c0 -40 -3 -83 -6 -95 l-6 -23 145 0 145 0 -9 38 c-5 20
-9 63 -9 95 0 31 -4 57 -10 57 -6 0 -10 -29 -10 -67 0 -77 -12 -71 -31 15 -7
28 -16 52 -21 52 -11 0 -10 -20 6 -107 l13 -73 -90 0 -89 0 7 90 c7 87 6 90
-14 90 -19 0 -21 -5 -21 -72z"/>
<path d="M12067 5642 c-3 -16 -11 -143 -18 -283 l-13 -254 -13 160 c-7 88 -16
185 -22 215 -8 50 -9 45 -10 -60 -1 -63 4 -184 10 -268 6 -84 9 -156 5 -159
-4 -4 -28 -10 -54 -14 -43 -6 -41 -6 26 -8 50 -1 74 3 77 12 2 6 8 100 14 207
22 399 24 480 14 480 -6 0 -13 -13 -16 -28z"/>
<path d="M12405 5633 c8 -64 24 -290 30 -443 3 -80 8 -160 11 -177 l5 -33 -92
0 -91 0 7 33 c13 61 35 222 34 252 -1 32 -2 30 -35 -131 -25 -120 -39 -121
-40 -2 -1 109 -19 265 -35 289 -5 9 -6 -5 -2 -36 4 -27 8 -132 8 -232 l0 -183
136 0 136 0 6 283 c4 155 9 309 12 342 l5 60 -15 -65 c-9 -36 -19 -103 -23
-150 l-8 -85 -8 80 c-4 44 -10 113 -14 154 -4 46 -12 76 -20 79 -9 3 -11 -6
-7 -35z"/>
<path d="M8486 5593 c-6 -44 -24 -363 -27 -478 -1 -27 -5 0 -9 60 -4 61 -14
162 -21 225 l-14 115 -3 -80 c-2 -44 2 -167 8 -274 14 -218 16 -211 -59 -211
-37 0 -42 2 -36 18 11 27 31 94 38 127 4 20 -4 9 -23 -30 -17 -33 -28 -49 -25
-35 10 52 25 207 24 255 -1 46 -2 43 -16 -35 -8 -47 -18 -112 -22 -145 l-8
-60 -2 50 c-2 28 -6 70 -10 95 -6 33 -9 8 -10 -97 l-1 -142 -42 -4 c-24 -2 21
-4 100 -5 107 -2 144 1 147 11 5 15 22 310 31 525 5 111 4 162 -4 162 -5 0
-13 -21 -16 -47z"/>
<path d="M8825 5613 c7 -44 24 -284 30 -428 3 -71 8 -154 11 -182 l5 -53 -91
0 c-91 0 -92 0 -86 23 11 47 36 228 35 259 -1 30 -2 28 -10 -12 -31 -151 -41
-189 -52 -204 -10 -13 -13 9 -15 112 -1 70 -8 156 -15 192 -12 61 -13 50 -12
-157 l0 -223 136 0 136 0 6 278 c4 152 9 306 12 342 l4 65 -15 -70 c-8 -38
-18 -106 -22 -150 l-8 -80 -8 100 c-13 161 -20 208 -33 212 -9 3 -11 -4 -8
-24z"/>
<path d="M3278 5513 c23 -2 59 -2 80 0 20 2 1 4 -43 4 -44 0 -61 -2 -37 -4z"/>
<path d="M4548 5513 c23 -2 59 -2 80 0 20 2 1 4 -43 4 -44 0 -61 -2 -37 -4z"/>
<path d="M11358 5513 c23 -2 59 -2 80 0 20 2 1 4 -43 4 -44 0 -61 -2 -37 -4z"/>
<path d="M6037 5315 c3 -105 -1 -186 -9 -235 l-14 -75 -64 -6 -65 -6 55 0 c66
0 219 13 173 15 -18 1 -33 3 -33 5 0 1 7 56 15 122 16 128 20 306 5 230 -4
-22 -14 -92 -21 -155 l-14 -115 -7 160 c-9 220 -26 268 -21 60z"/>
<path d="M2167 5345 c4 -108 -4 -219 -23 -312 l-6 -33 73 2 c44 1 58 3 33 5
l-41 4 13 82 c16 113 27 337 13 282 -5 -22 -15 -87 -22 -145 l-13 -105 -7 130
c-4 72 -12 148 -17 170 -6 27 -7 2 -3 -80z"/>
<path d="M12678 5310 c4 -120 -6 -261 -24 -322 -5 -16 2 -18 63 -16 37 0 53 3
36 5 -18 2 -33 7 -33 11 0 4 7 61 15 127 13 111 19 285 8 241 -3 -10 -13 -80
-22 -155 l-18 -136 -6 155 c-3 85 -10 171 -15 190 -7 24 -8 -7 -4 -100z"/>
<path d="M9098 5274 c4 -125 -7 -274 -25 -320 -4 -11 8 -14 63 -12 38 0 54 3
37 5 -18 2 -33 7 -33 11 0 4 7 57 15 117 16 119 20 305 5 230 -5 -22 -14 -92
-22 -155 l-13 -115 -7 160 c-3 88 -11 174 -16 190 -6 20 -8 -15 -4 -111z"/>
<path d="M11897 5243 c-9 -65 -18 -129 -20 -143 -2 -14 -8 18 -14 70 l-10 95
-2 -142 -1 -142 -42 -4 c-32 -3 -26 -4 22 -5 l66 -2 14 38 c22 61 39 132 31
132 -4 0 -15 -23 -25 -50 -22 -62 -29 -60 -17 6 11 58 26 264 19 264 -3 0 -12
-53 -21 -117z"/>
<path d="M2038 4993 c17 -2 47 -2 65 0 17 2 3 4 -33 4 -36 0 -50 -2 -32 -4z"/>
</g>
</svg>
