<?xml version="1.0" standalone="no"?>
<!DOCTYPE svg PUBLIC "-//W3C//DTD SVG 20010904//EN"
 "http://www.w3.org/TR/2001/REC-SVG-20010904/DTD/svg10.dtd">
<svg version="1.0" xmlns="http://www.w3.org/2000/svg"
 width="1280.000000pt" height="1078.000000pt" viewBox="0 0 1280.000000 1078.000000"
 preserveAspectRatio="xMidYMid meet">
<metadata>
Created by potrace 1.15, written by Peter Selinger 2001-2017
</metadata>
<g transform="translate(0.000000,1078.000000) scale(0.100000,-0.100000)"
fill="#4caf50" stroke="none">
<path d="M5568 10743 c-27 -29 -109 -188 -180 -348 -21 -49 -46 -95 -54 -102
-14 -10 -14 -13 0 -30 8 -10 36 -46 61 -81 77 -103 216 -220 468 -392 75 -52
137 -96 137 -99 0 -7 -546 -401 -1725 -1249 -774 -556 -1406 -1016 -1615
-1176 -519 -397 -1142 -905 -1616 -1317 -368 -322 -1018 -891 -1034 -906 -13
-13 -11 -18 16 -41 17 -15 36 -37 43 -49 6 -12 66 -67 133 -124 68 -56 153
-131 190 -167 54 -53 68 -62 74 -49 3 9 25 22 48 28 33 9 63 33 156 129 109
113 127 126 338 259 140 88 350 235 558 391 184 137 337 250 340 250 3 0 3 -4
0 -8 -3 -5 -1 -163 4 -353 22 -810 32 -1277 34 -1464 2 -110 8 -290 14 -400
19 -333 26 -1035 13 -1270 -79 -1441 -90 -2025 -40 -2131 12 -24 22 -30 59
-34 25 -3 428 -1 895 4 611 6 892 5 1000 -3 111 -8 186 -8 290 0 77 7 352 14
612 18 317 4 476 10 483 17 8 8 6 27 -5 69 -18 69 -19 85 -5 85 6 0 10 -9 10
-20 0 -20 7 -20 643 -20 605 0 1172 11 1335 26 l72 6 0 -41 0 -41 188 0 c103
0 374 -7 602 -16 228 -9 683 -19 1010 -24 327 -5 728 -14 890 -20 231 -9 340
-9 503 0 114 7 250 10 301 6 l93 -7 9 78 c5 43 9 560 9 1148 1 812 4 1089 13
1150 7 44 13 141 13 215 1 74 7 218 15 320 8 102 23 307 34 455 20 273 31 386
50 505 5 36 10 109 10 162 0 95 60 867 80 1023 5 44 15 150 21 235 10 136 16
169 49 265 20 61 40 127 44 147 l7 37 217 -141 c119 -77 278 -182 352 -233
249 -170 494 -315 533 -315 7 0 44 26 83 58 38 32 89 73 114 91 100 76 165
153 220 261 l23 45 -107 102 c-138 132 -317 267 -581 435 -115 74 -318 208
-450 298 -643 439 -745 505 -1855 1207 -751 475 -950 602 -1065 682 -222 153
-1755 1333 -1755 1350 0 4 165 137 366 296 313 247 364 291 349 300 -42 24
-168 135 -281 246 -66 65 -124 119 -129 119 -5 0 -34 -22 -65 -50 -32 -27
-118 -87 -191 -133 -74 -45 -226 -146 -339 -223 -113 -77 -210 -143 -216 -147
-18 -11 -624 487 -799 655 -44 43 -83 78 -86 78 -3 0 -17 -12 -31 -27z m1749
-9515 c-1 -79 -3 -17 -3 137 0 154 2 218 3 143 2 -75 2 -201 0 -280z"/>
</g>
</svg>
