<?xml version="1.0" standalone="no"?>
<!DOCTYPE svg PUBLIC "-//W3C//DTD SVG 20010904//EN"
 "http://www.w3.org/TR/2001/REC-SVG-20010904/DTD/svg10.dtd">
<svg version="1.0" xmlns="http://www.w3.org/2000/svg"
 width="1280.000000pt" height="730.000000pt" viewBox="0 0 1280.000000 730.000000"
 preserveAspectRatio="xMidYMid meet">
<metadata>
Created by potrace 1.15, written by Peter Selinger 2001-2017
</metadata>
<g transform="translate(0.000000,730.000000) scale(0.100000,-0.100000)"
fill="#508c70" stroke="none">
<path d="M11230 7128 c-1 -183 5 -177 -70 -72 l-35 49 -3 -34 c-3 -25 9 -59
42 -125 39 -79 46 -102 52 -177 4 -59 3 -88 -4 -93 -7 -4 -14 4 -18 21 -4 15
-10 33 -14 38 -4 6 -10 38 -14 73 -6 69 -21 105 -39 99 -7 -2 -13 -18 -15 -35
-4 -40 -18 -40 -58 -1 -18 17 -37 28 -43 25 -20 -13 -11 -52 29 -131 l40 -79
-25 -24 c-30 -27 -31 -33 -6 -63 18 -23 20 -23 38 -6 29 26 33 22 33 -33 0
-27 -3 -50 -6 -50 -3 0 -20 11 -38 25 -18 14 -36 25 -39 25 -18 0 -4 -61 23
-103 34 -54 36 -58 15 -51 -9 4 -19 -3 -26 -20 -7 -14 -16 -26 -20 -26 -4 0
-42 29 -84 65 -42 36 -81 65 -86 65 -32 0 -13 -88 27 -119 31 -24 30 -27 -5
-34 -16 -3 -31 -14 -35 -23 -7 -19 10 -44 30 -44 20 0 50 -33 46 -51 -1 -8 6
-24 18 -34 27 -24 25 -32 -7 -40 -38 -9 -73 -33 -73 -49 0 -8 8 -24 18 -36 16
-20 21 -21 41 -10 28 14 71 5 71 -15 0 -20 39 -19 46 0 4 8 17 15 31 15 l24 0
-19 -27 c-32 -48 -33 -52 -13 -62 14 -8 25 -6 44 9 l25 20 -5 -40 c-5 -35 -3
-40 14 -40 10 0 24 5 31 12 7 7 12 8 12 3 1 -6 9 6 19 25 l19 34 11 -39 c22
-80 18 -83 -99 -92 -69 -5 -78 -3 -110 21 -89 65 -110 77 -119 71 -20 -11 -11
-37 22 -67 30 -29 30 -30 7 -23 -48 15 -82 37 -141 91 -33 31 -66 53 -72 51
-7 -2 -11 -20 -11 -41 1 -39 5 -37 -86 -53 -100 -18 -38 -98 76 -98 l61 0 -28
-26 c-17 -16 -29 -37 -29 -52 0 -51 42 -39 102 27 20 23 40 38 44 33 4 -4 -7
-21 -24 -37 -36 -32 -39 -45 -17 -66 8 -9 15 -26 15 -39 0 -35 14 -38 40 -10
13 14 29 25 37 25 7 0 31 16 53 36 54 49 51 28 -5 -34 -25 -27 -45 -57 -45
-65 0 -24 27 -27 54 -6 l26 20 0 -31 c0 -28 2 -31 16 -19 8 7 22 26 30 41 12
23 18 27 28 19 10 -8 17 -7 26 4 7 8 26 15 42 15 38 0 96 55 105 101 5 27 7
30 13 14 10 -29 -4 -70 -40 -115 -30 -38 -181 -170 -194 -170 -4 0 -36 20 -73
45 -36 25 -69 45 -74 45 -14 0 -11 -28 6 -60 14 -27 5 -44 -10 -20 -4 6 -11 8
-16 5 -5 -3 -29 6 -54 20 l-45 27 0 -32 0 -33 -52 6 c-60 8 -78 -3 -78 -45 0
-25 3 -28 20 -23 20 6 28 -9 10 -20 -5 -3 -10 -15 -10 -26 0 -15 7 -19 31 -19
28 0 31 -2 25 -25 -6 -23 -3 -25 25 -25 27 0 30 -3 27 -25 -3 -25 4 -29 36
-19 24 8 46 -19 46 -57 0 -37 -15 -44 -40 -19 -21 21 -64 27 -75 10 -3 -5 -15
-10 -26 -10 -24 0 -24 -15 1 -47 21 -27 26 -78 11 -102 -7 -10 -19 -3 -53 33
-57 59 -71 60 -63 2 l7 -45 -59 14 c-57 13 -85 13 -130 0 -20 -6 -23 -4 -23
19 0 30 -11 33 -31 9 -24 -28 -91 -73 -111 -73 -10 0 -34 7 -54 15 -34 14 -35
15 -18 40 25 39 12 55 -44 55 -59 0 -85 23 -107 96 -17 56 -20 128 -5 119 6
-3 10 -26 10 -50 0 -46 14 -88 38 -117 19 -22 42 -7 42 28 0 12 5 26 10 29 6
3 10 0 10 -9 0 -23 50 -76 72 -76 18 0 19 4 14 35 -5 26 -3 40 9 52 14 14 18
14 26 2 5 -8 9 -19 9 -24 0 -17 60 -85 75 -85 13 0 25 21 25 46 0 8 5 21 12
28 10 10 15 9 28 -7 16 -19 18 -20 63 -2 25 9 55 26 66 37 l21 19 -48 48 c-31
31 -60 50 -83 55 -47 9 -77 32 -61 48 19 19 14 37 -13 50 -21 10 -30 8 -53 -9
-15 -11 -37 -23 -50 -27 -31 -10 -28 12 4 26 21 10 25 17 20 40 -4 22 -2 28
13 28 22 0 65 45 57 59 -4 5 -26 13 -50 16 -59 9 -68 17 -60 49 8 35 21 41 43
22 21 -19 41 -21 41 -3 0 14 44 57 59 57 5 0 14 6 20 14 10 12 8 19 -8 35 -12
12 -30 21 -41 21 -27 0 -38 29 -17 45 10 7 17 16 17 21 0 4 12 20 26 35 36 38
26 59 -27 59 -22 0 -39 3 -37 8 2 4 14 28 27 53 23 44 23 79 2 79 -5 0 -24
-20 -42 -45 -36 -50 -44 -54 -59 -25 -24 44 -51 12 -84 -102 -16 -57 -87 -157
-126 -178 -25 -13 -27 -4 -35 166 -7 130 -6 132 16 148 36 25 49 21 43 -13 -8
-41 14 -51 40 -18 15 18 28 24 46 21 14 -2 31 0 39 5 22 14 -30 88 -75 107
-57 24 -40 34 45 27 92 -7 110 5 65 43 -16 14 -37 28 -47 32 -16 7 -14 13 23
54 22 26 36 49 31 53 -13 7 -85 -29 -111 -55 -20 -20 -20 -20 -20 18 l-1 37
-19 -24 c-11 -13 -27 -49 -36 -80 -15 -48 -35 -80 -55 -81 -3 0 -2 32 2 71 7
60 16 85 63 168 57 100 63 115 46 126 -17 10 -51 -15 -66 -50 -28 -69 -44 -46
-44 65 0 50 -5 73 -23 100 l-22 35 -5 -150 -5 -150 -37 51 c-21 28 -45 58 -54
65 -32 27 -9 -61 37 -140 39 -68 43 -82 47 -158 3 -46 1 -83 -4 -83 -14 0 -42
80 -48 139 -3 29 -11 60 -18 68 -10 13 -14 13 -25 -3 -7 -10 -13 -26 -13 -36
0 -25 -12 -23 -44 7 -32 30 -66 33 -66 6 0 -10 12 -40 27 -67 60 -112 58 -105
33 -124 -14 -11 -21 -25 -18 -41 4 -30 33 -37 59 -13 19 17 19 16 19 -35 0
-56 1 -55 -51 -20 -48 34 -53 -5 -9 -74 22 -35 26 -47 15 -47 -9 0 -21 -11
-27 -25 -11 -24 -12 -25 -37 -8 -14 9 -49 36 -79 60 -55 45 -79 53 -88 29 -8
-20 22 -73 52 -93 l26 -16 -34 -11 c-26 -9 -33 -16 -33 -36 0 -18 5 -25 20
-25 23 0 58 -31 51 -44 -3 -5 3 -20 14 -34 25 -31 25 -37 0 -37 -26 0 -68 -20
-74 -35 -2 -7 2 -22 10 -34 13 -17 21 -20 59 -14 36 4 46 2 51 -11 8 -20 41
-21 60 -1 17 16 44 20 44 7 0 -5 -9 -17 -20 -27 -11 -10 -20 -26 -20 -37 0
-24 37 -24 63 0 19 17 20 16 13 -21 -6 -30 -4 -39 10 -44 10 -4 22 0 29 11 10
13 14 14 18 4 2 -7 11 2 19 22 l16 35 11 -28 c15 -38 14 -74 -2 -80 -8 -3 -43
-8 -78 -12 -74 -8 -108 3 -179 54 -74 54 -111 31 -47 -29 l32 -30 -43 15 c-48
16 -88 42 -145 92 -46 41 -62 38 -62 -8 0 -34 -1 -34 -57 -44 -71 -12 -88 -27
-64 -54 27 -30 70 -43 125 -39 l50 3 -29 -30 c-32 -33 -39 -62 -16 -71 19 -7
46 8 89 51 20 20 41 33 48 30 7 -5 1 -14 -17 -26 -40 -26 -51 -49 -30 -64 9
-7 16 -22 16 -33 0 -32 15 -34 56 -7 20 14 42 25 49 25 6 0 22 11 35 25 13 14
26 23 29 20 2 -3 -16 -27 -42 -53 -33 -34 -46 -54 -41 -65 8 -21 23 -21 52 -1
21 14 22 14 22 -10 0 -36 14 -32 40 9 21 35 40 46 40 23 0 -7 6 -5 18 4 9 9
34 18 54 22 42 8 98 64 98 98 0 16 3 19 11 11 33 -33 -37 -126 -170 -224 l-65
-47 -40 27 c-56 39 -107 64 -114 57 -3 -4 2 -22 11 -41 l17 -35 -28 6 c-15 4
-44 15 -64 25 -47 24 -48 24 -48 -5 0 -34 -13 -39 -60 -25 -31 9 -43 10 -52 1
-12 -12 -138 -17 -138 -6 0 3 5 14 11 26 18 34 4 30 -47 -12 -57 -47 -67 -49
-58 -15 5 20 3 24 -10 19 -21 -8 -21 15 0 44 33 48 2 33 -55 -25 -32 -34 -68
-64 -80 -68 -28 -9 -152 49 -205 95 -32 28 -66 77 -66 95 0 3 11 5 25 5 17 0
29 -8 37 -24 20 -46 64 -44 55 2 -4 23 -1 21 30 -16 19 -23 43 -42 54 -42 16
0 19 7 19 54 0 30 4 57 9 60 4 3 27 -12 49 -34 38 -38 82 -53 82 -29 0 6 -14
31 -32 55 -32 45 -31 77 2 37 10 -13 21 -23 25 -23 3 0 13 -7 21 -15 9 -8 27
-15 41 -15 25 0 25 1 10 18 -25 27 -21 39 16 58 43 22 43 21 22 44 -18 20 -18
20 19 20 50 0 76 15 76 44 0 25 -17 36 -55 36 -36 0 -55 10 -55 31 0 27 -25
24 -87 -11 -62 -35 -73 -37 -66 -10 3 12 -1 22 -11 26 -9 3 -16 17 -16 31 0
18 -4 24 -15 19 -8 -3 -22 -9 -30 -12 -11 -4 -15 1 -15 18 0 41 -11 39 -67
-12 -57 -52 -77 -58 -132 -39 -35 12 -36 16 -17 54 22 43 11 55 -49 55 -45 0
-57 4 -73 25 -28 35 -61 188 -44 199 5 3 12 -21 15 -52 5 -59 39 -142 57 -142
13 0 30 43 31 78 0 24 2 23 15 -12 19 -52 41 -76 71 -76 26 0 28 7 13 45 -8
20 -6 29 9 44 18 18 20 18 47 -36 31 -60 71 -96 78 -72 2 8 9 33 17 57 l13 43
15 -25 c9 -14 19 -26 24 -26 19 0 119 53 124 66 9 23 -76 107 -121 121 -52 17
-61 27 -61 71 0 33 -3 37 -29 40 -17 2 -36 -4 -50 -16 -26 -24 -54 -34 -61
-22 -3 5 8 17 24 26 25 15 29 22 24 46 -4 22 -2 28 11 28 24 0 71 49 59 61 -6
6 -32 16 -59 23 -46 12 -49 14 -47 45 2 43 7 47 38 27 26 -17 45 -14 45 7 0
15 38 51 63 60 40 15 8 67 -42 67 -10 0 -21 6 -24 13 -5 13 24 66 61 111 23
28 23 31 6 43 -10 7 -30 13 -46 13 -15 0 -28 2 -28 4 0 2 11 28 25 59 24 51
25 87 4 87 -5 0 -25 -22 -45 -50 -20 -27 -39 -50 -43 -50 -4 0 -13 11 -19 25
-6 14 -16 25 -21 25 -11 0 -49 -88 -58 -132 -3 -18 -14 -49 -24 -69 -19 -39
-106 -139 -120 -139 -5 0 -9 38 -9 85 0 47 -5 104 -12 128 -16 61 -1 127 32
144 24 12 25 11 28 -20 5 -47 17 -53 43 -18 16 21 26 28 37 22 21 -12 52 -2
52 16 0 28 -55 92 -87 104 -34 11 -42 24 -21 31 7 3 33 0 59 -5 54 -11 99 -3
99 16 0 7 -18 26 -40 43 -22 16 -40 32 -40 35 0 3 16 24 35 46 37 44 44 63 21
63 -16 0 -86 -46 -103 -68 -11 -13 -13 -10 -13 21 0 20 -4 37 -8 37 -13 0 -51
-86 -58 -130 -4 -22 -11 -40 -17 -40 -5 0 -16 -8 -23 -17 -12 -16 -13 -14 -14
19 0 69 22 142 71 234 53 98 61 134 31 134 -23 0 -46 -26 -59 -65 -17 -53 -28
-32 -33 65 -4 76 -10 102 -27 130 l-23 35 -1 -75 c0 -41 -4 -113 -7 -159 l-7
-83 -40 58 c-74 108 -81 41 -10 -93 45 -84 45 -86 44 -181 0 -99 0 -99 -29
-27 -5 11 -13 53 -19 94 -5 41 -14 78 -20 84 -16 16 -31 -2 -31 -39 0 -42 -8
-43 -45 -4 -16 17 -37 30 -47 30 -28 0 -22 -42 17 -120 38 -76 42 -98 20 -106
-20 -8 -28 -40 -15 -64 13 -24 33 -26 50 -5 22 26 30 16 30 -35 0 -27 -3 -50
-7 -50 -3 0 -21 11 -39 25 -18 14 -35 25 -38 25 -3 0 -6 -15 -6 -33 0 -22 11
-47 30 -73 33 -44 37 -56 15 -48 -9 4 -19 -3 -26 -20 -7 -14 -16 -26 -20 -26
-4 0 -42 29 -84 65 -42 36 -83 65 -91 65 -35 0 -4 -99 39 -121 22 -12 22 -13
-11 -26 -18 -7 -35 -20 -39 -28 -7 -19 16 -48 32 -41 15 5 51 -34 47 -53 -2
-7 6 -24 18 -36 23 -25 21 -28 -25 -39 -56 -14 -72 -48 -37 -79 16 -14 23 -15
51 -4 30 11 34 10 51 -10 21 -26 48 -30 56 -8 4 8 17 15 31 15 l24 0 -27 -36
c-25 -32 -26 -36 -11 -51 14 -15 18 -15 41 1 l26 16 0 -34 c0 -40 12 -52 32
-33 7 8 18 12 24 10 5 -2 17 11 26 29 l15 33 13 -53 c7 -29 10 -56 7 -59 -10
-9 -88 -22 -135 -23 -48 0 -69 9 -127 55 -51 41 -71 47 -85 30 -10 -12 -5 -22
23 -50 29 -29 32 -35 14 -29 -50 15 -90 39 -133 80 -59 58 -78 68 -94 48 -10
-11 -10 -20 -2 -39 13 -27 16 -25 -78 -42 -38 -7 -45 -12 -45 -32 0 -40 47
-66 116 -66 l59 1 -25 -26 c-14 -15 -25 -38 -25 -53 0 -44 39 -36 88 18 22 25
46 45 51 45 20 0 12 -16 -19 -38 -33 -25 -38 -46 -15 -68 8 -9 15 -26 15 -40
0 -15 6 -24 15 -24 8 0 15 4 15 10 0 5 19 19 43 31 23 11 52 32 64 47 12 14
25 23 29 20 3 -4 -15 -29 -41 -57 -47 -50 -56 -83 -23 -89 9 -2 26 6 37 17
l21 21 0 -30 c0 -39 15 -38 36 3 22 42 21 42 38 28 10 -9 15 -8 19 2 3 8 23
17 45 21 46 7 90 47 109 98 l11 33 1 -35 c1 -54 -55 -124 -176 -221 l-62 -50
-62 46 c-86 63 -111 57 -73 -18 11 -21 12 -28 3 -19 -7 6 -22 12 -33 12 -12 0
-34 9 -51 20 -41 27 -57 26 -49 -5 8 -33 -17 -42 -64 -25 -33 12 -37 11 -54
-10 -24 -30 -19 -55 10 -54 26 1 27 -4 7 -30 -22 -29 -19 -34 17 -38 27 -2 33
-7 33 -28 0 -19 5 -25 25 -25 21 0 25 -4 22 -27 -4 -31 0 -33 30 -17 18 10 25
8 40 -11 19 -24 24 -65 8 -75 -5 -3 -18 3 -30 15 -21 21 -64 27 -75 10 -3 -5
-15 -10 -26 -10 -24 0 -24 -17 -1 -43 17 -19 23 -99 9 -114 -4 -3 -26 15 -50
40 -55 60 -72 61 -63 6 l7 -42 -36 7 c-19 3 -51 9 -70 12 -28 5 -35 3 -35 -9
0 -19 54 -65 85 -73 21 -5 23 -8 12 -31 -13 -29 1 -43 46 -43 20 0 27 -5 27
-20 0 -14 10 -22 33 -28 25 -6 33 -15 37 -37 l5 -30 22 35 c15 22 23 29 23 18
0 -9 6 -21 14 -25 8 -4 21 -24 30 -43 30 -63 51 -95 85 -127 37 -37 38 -38 61
-20 9 6 4 0 -11 -14 -43 -43 -134 -72 -199 -65 -35 4 -61 13 -70 24 -20 24
-35 22 -97 -11 -51 -26 -53 -27 -53 -7 0 11 -7 23 -16 27 -10 3 -14 13 -10 25
5 20 -3 21 -46 3 -15 -6 -18 -2 -18 19 0 27 -14 35 -26 15 -14 -23 -99 -69
-127 -69 -24 0 -60 13 -76 26 -2 2 4 13 14 24 29 32 13 50 -48 50 -61 0 -80
14 -103 77 -16 45 -19 134 -3 95 5 -13 7 -28 4 -33 -8 -12 27 -90 47 -107 19
-15 27 -6 38 42 l7 31 10 -25 c21 -51 89 -86 87 -45 -1 11 -5 29 -9 40 -5 11
-5 17 0 13 4 -4 14 -3 22 4 7 6 15 9 16 7 2 -2 15 -23 30 -46 27 -42 62 -70
70 -56 2 5 10 25 17 46 l12 39 23 -22 22 -21 57 22 c32 11 60 27 63 35 7 19
-73 92 -111 99 -17 4 -41 13 -54 21 -18 12 -20 18 -12 35 6 10 8 24 5 29 -9
15 -66 12 -84 -4 -9 -7 -26 -17 -38 -20 -32 -10 -29 12 3 26 20 9 24 17 19 35
-4 16 -1 23 8 23 17 0 67 38 67 50 0 5 -13 11 -30 14 -16 3 -43 9 -60 12 -31
6 -38 25 -20 54 8 13 13 13 40 -2 30 -17 31 -17 40 6 4 12 24 31 44 40 53 25
45 55 -16 70 -16 3 -28 12 -28 18 0 6 18 33 41 60 22 26 37 52 34 58 -3 5 -24
10 -46 10 -23 0 -39 3 -37 8 2 4 14 28 28 55 19 38 21 49 11 60 -10 10 -21 2
-55 -38 -43 -49 -43 -49 -57 -27 -8 12 -20 22 -27 22 -13 0 -53 -81 -66 -132
-7 -32 -120 -153 -134 -144 -5 3 -12 52 -16 108 -10 149 -9 161 15 181 30 24
39 21 39 -13 0 -35 18 -39 45 -10 12 14 25 17 46 13 21 -4 30 -1 35 11 9 24
-42 86 -77 93 -16 3 -32 9 -34 13 -8 13 18 17 70 11 102 -13 122 7 54 50 l-41
26 36 33 c31 29 47 60 31 60 -17 0 -83 -34 -102 -52 l-23 -21 0 31 c0 18 -4
32 -8 32 -12 0 -48 -69 -56 -105 -4 -16 -18 -38 -32 -48 -23 -17 -24 -17 -24
2 0 55 26 132 67 195 57 88 67 115 49 122 -22 9 -52 -12 -66 -46 -20 -49 -35
-30 -40 51 -3 52 -11 84 -25 105 l-20 29 -3 -132 c-1 -73 -6 -133 -10 -133 -4
1 -25 23 -46 50 -22 28 -43 50 -48 50 -21 0 -4 -60 37 -125 38 -61 46 -83 51
-142 4 -42 3 -73 -3 -76 -13 -8 -39 56 -47 114 -8 52 -27 86 -44 75 -7 -4 -12
-18 -12 -32 0 -31 -14 -30 -52 1 -61 52 -75 8 -24 -75 42 -67 43 -79 16 -103
-17 -14 -18 -21 -10 -37 11 -21 44 -27 55 -10 13 22 25 8 25 -30 0 -46 -4 -47
-45 -20 -16 11 -33 20 -37 20 -19 0 -5 -53 22 -83 35 -40 37 -47 12 -47 -9 0
-23 -9 -30 -20 -12 -20 -15 -19 -91 35 -44 30 -86 55 -95 55 -32 0 -9 -69 32
-96 l26 -17 -35 -11 c-19 -6 -34 -17 -34 -25 0 -14 4 -17 57 -41 14 -7 24 -18
22 -24 -3 -7 4 -21 16 -31 28 -25 25 -32 -13 -39 -19 -3 -42 -12 -52 -19 -15
-12 -16 -17 -5 -36 10 -20 17 -22 54 -17 34 5 47 3 65 -13 22 -19 51 -19 51 0
0 5 12 9 27 9 l26 0 -23 -24 c-38 -42 -10 -74 37 -41 20 14 21 13 19 -18 -1
-32 5 -35 44 -26 8 2 23 15 32 28 l17 25 10 -28 c26 -66 12 -76 -108 -76 -70
0 -79 3 -143 41 -53 32 -72 39 -81 30 -8 -8 -9 -16 0 -29 10 -16 8 -18 -17
-14 -18 2 -30 12 -33 24 -4 12 -12 18 -25 16 -10 -2 -37 10 -60 25 -44 31 -65
28 -60 -6 1 -12 -1 -23 -5 -24 -19 -7 -27 -1 -27 22 0 22 -2 24 -26 15 -35
-14 -44 -12 -38 5 13 33 -9 34 -46 2 -58 -49 -84 -60 -122 -53 -57 11 -66 21
-46 54 23 38 8 52 -52 52 -35 0 -51 5 -67 22 -33 37 -65 169 -44 183 7 4 11
-9 11 -37 0 -45 29 -120 50 -133 17 -10 40 21 41 54 l1 26 11 -27 c19 -41 48
-68 74 -68 26 0 26 0 13 36 -9 21 -7 29 7 40 25 18 33 17 33 -5 0 -26 73 -106
88 -97 7 4 12 16 12 27 0 11 5 29 11 41 l11 20 21 -20 22 -20 63 28 c35 17 62
35 62 44 0 8 -16 24 -35 36 -19 12 -35 28 -35 35 0 8 -23 20 -54 29 -56 16
-85 39 -66 51 17 11 11 42 -10 48 -11 3 -42 -6 -70 -21 -72 -37 -83 -18 -13
24 14 9 16 14 6 26 -14 17 -8 28 17 28 9 0 27 11 39 24 22 23 22 25 4 34 -10
6 -36 13 -58 17 -54 10 -55 11 -43 45 11 34 23 37 51 13 15 -14 21 -15 24 -5
7 19 45 57 71 71 12 6 22 18 22 26 0 17 -30 35 -59 35 -28 0 -36 18 -17 39 9
10 16 21 16 26 0 5 12 21 26 36 36 37 26 59 -25 59 l-39 0 30 55 c25 47 28 58
17 71 -11 14 -18 10 -56 -33 l-43 -48 -20 25 c-20 24 -21 24 -35 6 -8 -10 -26
-53 -40 -96 -19 -58 -38 -90 -76 -133 -28 -31 -57 -57 -64 -57 -9 0 -15 25
-19 88 -3 48 -8 108 -12 135 -7 53 10 90 45 100 18 4 21 1 21 -29 0 -40 20
-45 43 -11 12 18 22 23 45 19 16 -2 33 1 37 8 12 20 -41 87 -80 100 -59 19
-40 31 47 28 72 -3 83 -1 86 15 2 9 -2 17 -10 17 -7 0 -26 12 -41 26 l-29 25
36 39 c20 22 36 45 36 51 0 16 -39 2 -88 -32 -23 -16 -44 -29 -46 -29 -2 0 -1
11 1 24 3 13 0 27 -6 31 -13 7 -61 -87 -61 -120 0 -11 -12 -28 -25 -38 l-25
-18 0 33 c1 62 21 122 71 208 53 92 60 120 31 120 -23 0 -47 -25 -61 -63 -19
-48 -29 -29 -33 61 -2 64 -8 94 -22 115 -10 15 -21 26 -23 23 -2 -2 -7 -65
-11 -140 l-7 -136 -42 55 c-24 30 -48 55 -54 55 -20 0 0 -61 44 -135 39 -66
42 -75 45 -159 3 -63 1 -86 -7 -82 -6 4 -11 15 -11 25 0 9 -4 21 -10 27 -5 5
-12 32 -16 59 -11 97 -45 139 -52 67 -4 -38 -20 -41 -52 -7 -13 14 -32 25 -42
25 -29 0 -22 -46 17 -110 40 -66 43 -80 15 -98 -24 -15 -26 -35 -4 -57 15 -14
18 -14 40 0 13 8 25 15 27 15 2 0 4 -20 6 -45 1 -25 -1 -45 -5 -45 -4 0 -22 9
-40 21 -62 38 -72 4 -19 -65 39 -51 42 -58 21 -50 -9 3 -20 -3 -28 -15 -7 -12
-18 -21 -24 -21 -6 0 -43 25 -83 55 -78 59 -101 67 -101 34 0 -28 18 -60 49
-86 24 -21 25 -22 5 -23 -11 0 -29 -6 -40 -14 -15 -12 -17 -18 -8 -33 6 -10
17 -18 25 -18 25 -1 56 -28 52 -44 -2 -9 5 -25 17 -36 l22 -19 -49 -16 c-50
-16 -65 -39 -42 -66 9 -11 23 -13 51 -9 32 6 44 3 62 -14 21 -20 56 -21 56 -1
0 4 11 10 25 12 32 6 31 1 -1 -33 -14 -15 -23 -32 -20 -38 9 -15 49 -14 64 1
9 9 12 4 12 -25 0 -27 4 -37 15 -37 9 0 18 6 21 14 3 8 12 12 20 9 9 -3 18 5
25 23 l12 29 15 -47 c9 -27 13 -50 10 -54 -11 -10 -143 -25 -173 -18 -16 3
-56 24 -89 45 -32 22 -64 39 -72 39 -28 0 -26 -24 4 -51 40 -36 40 -41 0 -27
-44 15 -75 35 -126 81 -54 48 -88 48 -85 0 3 -31 2 -31 -50 -38 -71 -10 -90
-21 -77 -44 16 -31 77 -54 131 -49 l48 5 -29 -33 c-60 -69 3 -90 69 -24 37 38
61 50 61 32 0 -5 -11 -15 -25 -22 -32 -17 -41 -47 -21 -69 9 -10 13 -21 10
-24 -4 -4 -1 -13 6 -22 11 -13 16 -12 42 10 16 14 36 25 43 25 7 0 27 12 44
26 45 37 38 15 -9 -31 -22 -21 -40 -45 -40 -52 0 -22 28 -26 55 -9 24 16 25
16 25 -9 0 -34 11 -31 39 12 17 27 25 32 31 22 7 -11 12 -10 28 4 10 9 30 17
45 17 34 0 91 50 104 92 l11 33 1 -38 c1 -32 -6 -46 -46 -89 -27 -28 -81 -75
-121 -105 l-72 -54 -43 29 c-23 16 -57 37 -74 46 -33 16 -33 16 -33 -7 0 -12
7 -34 17 -47 9 -14 10 -19 3 -12 -8 6 -22 12 -32 12 -11 0 -36 9 -58 20 -39
20 -55 15 -44 -14 9 -23 -23 -31 -64 -16 -34 12 -37 11 -58 -14 -21 -24 -44
-35 -44 -20 0 3 11 20 25 38 52 69 19 100 -37 35 l-39 -44 -20 25 -21 25 -18
-23 c-10 -12 -26 -44 -36 -70 -21 -55 -51 -95 -107 -140 -30 -24 -43 -29 -48
-20 -3 7 -9 63 -13 124 -6 96 -5 114 9 128 9 9 25 16 36 16 16 0 18 -5 13 -25
-5 -20 -2 -25 13 -25 11 0 27 8 36 18 12 13 26 17 46 14 16 -2 31 1 35 6 10
16 -42 70 -79 82 -56 19 -40 28 43 27 44 -1 78 2 79 8 2 6 -14 19 -35 30 -20
11 -39 21 -41 23 -3 1 14 18 37 38 23 20 40 40 37 45 -7 11 -68 -13 -107 -42
l-28 -20 0 33 -1 33 -23 -29 c-13 -15 -28 -45 -34 -65 -6 -20 -21 -42 -33 -49
-21 -14 -22 -13 -17 42 4 48 13 68 61 139 61 88 68 107 39 107 -23 0 -43 -17
-66 -54 -24 -39 -36 -20 -36 61 0 51 -4 67 -25 90 l-24 28 -1 -125 0 -125 -53
55 c-47 50 -52 53 -55 32 -2 -12 9 -43 25 -68 61 -98 73 -127 73 -181 0 -29
-3 -53 -7 -53 -12 0 -41 71 -47 113 -7 50 -23 72 -42 56 -8 -6 -14 -20 -14
-30 0 -25 -7 -24 -51 7 -37 25 -59 25 -59 0 0 -7 19 -41 42 -75 l41 -62 -21
-15 c-26 -18 -28 -37 -7 -54 12 -10 20 -9 40 4 l25 16 0 -40 c0 -43 -6 -48
-36 -25 -26 20 -54 19 -54 -2 0 -10 16 -35 35 -55 27 -31 31 -38 16 -38 -10 0
-24 -7 -31 -15 -19 -22 -29 -19 -103 31 -38 25 -76 44 -85 42 -25 -5 -16 -38
18 -70 17 -15 30 -30 30 -32 0 -3 -12 -6 -27 -8 -33 -4 -44 -35 -16 -44 40
-13 62 -28 56 -37 -3 -6 6 -20 21 -32 l28 -22 -39 -6 c-21 -4 -47 -12 -57 -20
-17 -12 -17 -14 1 -36 15 -19 24 -22 44 -15 31 10 58 6 76 -12 18 -18 28 -18
43 1 7 8 22 15 33 15 20 0 20 0 -1 -23 -12 -13 -22 -29 -22 -35 0 -16 52 -15
69 1 11 10 12 7 7 -16 -8 -32 15 -47 39 -27 8 7 15 9 15 4 1 -5 10 2 21 15 23
28 28 25 35 -21 6 -34 5 -35 -32 -41 -22 -4 -66 -7 -99 -7 -50 0 -68 5 -105
30 -24 16 -57 32 -71 35 -15 4 -30 13 -33 20 -4 11 -14 13 -37 8 -30 -6 -31
-5 -19 17 21 39 -3 47 -47 17 -25 -17 -46 -24 -59 -21 -12 3 -25 1 -28 -5 -9
-13 -56 -15 -56 -2 0 5 7 11 15 15 10 4 15 20 15 51 0 25 -3 45 -6 45 -3 0
-23 -15 -46 -32 -58 -47 -110 -46 -211 6 -72 36 -204 142 -192 154 3 3 11 0
17 -6 18 -18 38 -15 38 6 1 16 1 16 14 0 7 -10 19 -18 26 -18 6 0 23 -9 37
-20 31 -24 43 -18 43 22 l0 30 36 -31 c40 -36 55 -36 65 0 6 22 7 22 8 2 1
-13 14 -29 35 -41 l33 -20 27 30 c17 20 26 42 26 65 0 30 3 34 18 28 45 -19
55 -19 50 1 -3 10 -9 27 -13 37 -5 12 -2 17 9 17 20 0 20 4 0 41 -21 41 -10
48 24 16 17 -16 39 -27 56 -27 24 0 26 3 21 23 -12 38 -11 40 27 59 39 19 71
55 61 71 -3 5 -30 7 -59 5 -56 -5 -61 -1 -43 34 18 34 3 31 -45 -12 -52 -44
-71 -50 -61 -20 5 14 2 20 -9 20 -20 0 -20 19 0 48 32 46 -11 21 -66 -38 -36
-39 -64 -60 -78 -60 -30 0 -137 50 -187 87 -40 30 -85 97 -73 109 14 13 55 -6
66 -31 7 -15 20 -25 33 -25 17 0 20 5 17 25 -3 14 -1 25 3 25 5 0 9 -4 9 -9 0
-17 50 -61 70 -61 18 0 20 6 20 54 0 30 4 57 8 60 5 3 25 -12 45 -33 72 -77
112 -55 52 28 -28 39 -33 51 -21 51 9 0 19 -7 22 -15 8 -21 67 -55 94 -55 l23
0 -22 24 -23 25 33 20 c19 12 39 23 44 24 6 2 1 14 -9 26 l-19 21 41 0 c44 0
72 19 72 50 0 21 -19 30 -66 30 -28 0 -36 5 -44 26 -9 22 -15 25 -36 20 -15
-4 -43 -18 -63 -32 -44 -30 -65 -31 -56 -4 4 13 1 22 -9 26 -9 3 -16 17 -16
31 0 20 -4 24 -17 18 -47 -19 -56 -19 -48 3 13 45 -8 42 -62 -8 -60 -55 -90
-62 -144 -34 -29 15 -30 16 -14 34 9 10 15 29 13 42 -3 20 -10 24 -57 28 -43
4 -58 10 -74 31 -32 44 -61 199 -37 199 6 0 10 -22 10 -49 0 -50 28 -133 50
-146 16 -10 28 11 36 59 l7 38 12 -37 c17 -48 43 -75 72 -75 27 0 26 -2 12 38
-9 27 -8 34 10 53 20 21 21 21 26 3 21 -65 73 -132 94 -119 6 3 11 18 11 33 0
15 7 35 14 45 13 16 14 16 28 -5 l15 -22 54 26 c30 14 61 33 69 43 13 16 11
21 -21 49 -20 17 -39 39 -42 48 -3 10 -21 20 -42 24 -19 3 -46 15 -60 26 -20
16 -23 22 -13 37 31 50 -27 67 -88 26 -20 -14 -41 -25 -45 -25 -18 0 -8 19 21
40 24 17 28 25 20 40 -14 26 -13 30 8 30 20 0 62 39 62 58 0 10 -38 24 -95 34
-15 3 -19 11 -18 32 3 42 17 51 44 32 29 -20 39 -20 39 -2 0 15 45 66 58 66 5
0 14 6 20 13 16 19 -10 53 -48 60 -32 7 -39 27 -15 47 8 7 15 20 15 28 0 9 12
28 26 43 36 38 26 59 -26 59 -22 0 -40 2 -40 5 0 3 11 28 25 55 49 96 21 123
-40 39 l-37 -52 -24 29 c-29 36 -36 29 -65 -71 -11 -38 -26 -83 -33 -100 -16
-36 -103 -145 -116 -145 -13 0 -18 44 -25 197 -6 124 -6 132 14 152 31 31 49
27 47 -11 -1 -40 25 -49 43 -15 10 19 21 24 48 23 20 -1 38 4 40 10 7 19 -58
95 -93 110 -55 23 -32 34 56 27 71 -5 80 -4 80 11 0 19 -48 65 -67 66 -21 0
-15 18 22 59 38 42 47 75 18 64 -10 -3 -39 -21 -65 -40 l-48 -33 0 30 c0 17
-4 30 -9 30 -9 0 -45 -78 -55 -125 -4 -16 -18 -39 -30 -52 l-23 -23 4 53 c7
95 13 115 62 209 61 117 67 136 46 144 -22 9 -62 -31 -70 -68 -13 -58 -30 -23
-35 73 -4 75 -10 101 -27 129 l-23 35 0 -162 c0 -90 -3 -163 -7 -163 -5 0 -28
31 -53 68 l-45 67 -3 -37 c-2 -28 8 -58 44 -127 43 -83 47 -97 52 -181 3 -60
1 -90 -6 -90 -6 0 -13 13 -17 30 -4 16 -11 32 -16 35 -5 4 -9 23 -9 43 -1 72
-28 148 -46 129 -4 -4 -10 -24 -13 -44 l-6 -37 -42 38 c-74 67 -85 19 -22 -99
l40 -77 -20 -22 c-25 -26 -27 -59 -6 -76 13 -11 20 -9 40 10 l25 23 0 -56 c0
-31 -1 -57 -3 -57 -2 0 -18 11 -37 25 -19 14 -38 25 -42 25 -19 0 -6 -60 22
-98 34 -48 36 -52 15 -52 -9 0 -20 -11 -25 -25 -5 -14 -13 -25 -17 -25 -5 0
-42 29 -83 65 -75 65 -93 74 -105 55 -11 -18 15 -79 46 -104 l29 -25 -36 -11
c-30 -10 -35 -16 -32 -38 2 -19 9 -27 23 -27 24 0 58 -32 49 -46 -3 -6 6 -23
21 -39 28 -30 27 -33 -20 -44 -55 -14 -69 -42 -41 -81 12 -17 17 -18 41 -7 31
14 65 7 65 -13 0 -22 30 -26 47 -5 10 11 28 20 41 20 l24 0 -27 -31 c-14 -18
-25 -39 -23 -48 5 -24 34 -25 58 -1 l22 22 -2 -34 c-1 -18 -2 -39 -1 -45 1
-18 30 -16 37 1 3 8 12 12 19 10 8 -4 16 6 20 26 9 39 21 29 33 -27 13 -56 4
-62 -100 -70 l-83 -5 -59 46 c-89 69 -142 60 -74 -12 32 -33 32 -34 8 -27 -47
14 -84 38 -136 87 -62 59 -89 61 -89 8 0 -35 -1 -35 -59 -47 -69 -13 -82 -23
-67 -51 17 -32 77 -55 132 -50 l48 5 -29 -34 c-33 -37 -37 -55 -16 -72 19 -16
41 -4 88 49 23 24 42 38 49 34 8 -5 1 -16 -20 -33 -31 -26 -40 -54 -21 -66 6
-3 10 -17 10 -29 0 -13 6 -29 14 -35 12 -10 17 -8 25 7 6 11 28 27 49 35 22 9
49 28 60 44 15 20 21 23 22 12 0 -9 -18 -34 -40 -55 -47 -46 -54 -84 -15 -84
14 0 28 7 31 15 10 25 27 17 20 -9 -14 -55 31 -25 58 39 3 6 9 3 15 -5 10 -13
13 -13 22 3 5 9 21 17 35 17 43 0 83 32 109 85 l24 50 1 -35 c0 -20 -7 -47
-16 -60 -28 -41 -106 -119 -167 -167 l-58 -45 -59 41 c-82 58 -94 61 -88 25 3
-16 9 -38 13 -49 7 -16 6 -18 -6 -7 -7 6 -21 12 -31 12 -10 0 -32 9 -50 20
-43 26 -50 25 -46 -7 3 -24 -1 -28 -24 -31 -15 -2 -36 2 -47 8 -17 8 -25 6
-41 -10 -28 -28 -23 -66 8 -63 22 3 22 2 7 -27 -20 -38 -20 -38 18 -42 27 -3
32 -6 29 -27 -3 -21 0 -23 22 -19 23 5 26 2 26 -24 0 -28 2 -29 34 -23 28 6
36 3 45 -13 13 -25 14 -52 1 -72 -8 -13 -12 -12 -25 8 -11 15 -26 22 -51 22
-19 0 -34 -4 -34 -9 0 -5 -11 -11 -25 -13 l-25 -3 26 -37 c22 -30 25 -44 20
-72 -4 -20 -10 -36 -14 -36 -5 0 -26 18 -47 40 -52 53 -70 53 -61 -1 l7 -42
-33 7 c-84 19 -108 19 -108 3 0 -18 53 -61 87 -71 20 -6 21 -10 11 -32 -14
-30 0 -44 45 -44 15 0 27 -5 27 -11 0 -6 21 -37 46 -70 25 -33 50 -74 55 -92
11 -39 12 -107 1 -107 -11 0 -40 61 -46 100 -4 19 -10 41 -15 49 -12 19 -41 6
-41 -19 0 -25 -7 -25 -45 0 -33 22 -65 26 -65 9 0 -16 20 -50 54 -92 25 -32
28 -40 16 -47 -8 -6 -19 -10 -23 -10 -5 0 -7 -10 -5 -22 2 -15 11 -24 26 -26
14 -2 22 -10 22 -22 0 -17 -3 -18 -26 -8 -21 10 -27 9 -34 -2 -7 -12 -12 -12
-21 -3 -10 10 -17 9 -31 -4 -25 -22 -23 -32 14 -70 17 -18 30 -35 27 -37 -3
-3 -40 16 -82 41 -54 32 -81 43 -89 35 -16 -16 1 -52 33 -71 25 -15 27 -20 14
-25 -9 -3 -26 -6 -36 -6 -16 0 -19 4 -14 21 8 23 -1 23 -47 4 -15 -6 -18 -2
-18 19 0 14 -2 26 -5 26 -3 0 -25 -16 -51 -35 -56 -43 -85 -51 -135 -36 -42
13 -47 22 -24 41 18 15 20 39 3 42 -7 0 -32 2 -55 3 -52 1 -77 23 -97 83 -18
52 -21 106 -6 97 5 -3 10 -23 10 -44 0 -23 9 -51 23 -72 30 -45 44 -42 62 16
5 18 8 16 21 -12 15 -30 68 -62 81 -49 4 4 2 20 -4 36 -9 25 -9 30 3 30 8 0
14 5 14 10 0 21 18 9 30 -20 12 -30 63 -80 81 -80 5 0 12 12 15 28 11 45 24
55 45 36 16 -15 22 -15 67 0 27 9 57 25 67 36 16 18 15 19 -14 34 -17 9 -35
25 -41 36 -6 11 -26 22 -48 26 -20 3 -47 13 -59 20 -20 12 -21 17 -10 35 24
39 -37 53 -88 19 -16 -11 -36 -20 -42 -20 -22 0 -14 16 13 28 18 9 24 19 22
35 -2 16 3 23 18 25 24 3 61 38 51 48 -3 3 -29 11 -58 17 -58 13 -66 23 -45
52 13 17 18 18 35 7 28 -17 39 -15 45 6 4 11 19 25 34 32 51 26 54 31 36 51
-10 11 -27 19 -40 19 -31 0 -40 17 -20 39 9 10 16 21 16 25 0 4 12 17 27 30
33 29 23 46 -28 46 -21 0 -39 2 -39 6 0 3 11 22 25 42 52 76 24 102 -39 36
-42 -46 -44 -47 -55 -26 -25 47 -51 21 -85 -84 -13 -39 -32 -66 -78 -110 -46
-44 -62 -54 -68 -43 -4 8 -10 68 -14 135 -7 128 -5 138 39 146 16 2 19 -2 17
-19 -4 -31 16 -38 41 -15 14 13 31 19 47 16 14 -2 31 0 39 5 20 13 -32 77 -75
91 -58 20 -40 32 36 24 50 -5 74 -3 85 6 13 10 10 15 -19 35 -18 12 -39 24
-46 27 -9 3 -1 15 23 38 71 64 35 78 -50 19 l-43 -29 0 33 -1 32 -24 -29 c-13
-16 -29 -49 -35 -73 -7 -24 -19 -43 -26 -43 -8 0 -14 -4 -14 -10 0 -5 -4 -10
-8 -10 -13 0 4 112 21 145 9 17 34 57 56 90 45 66 50 85 23 85 -23 0 -43 -17
-66 -54 -25 -39 -36 -19 -36 66 0 57 -4 71 -25 95 l-24 28 -1 -135 c-1 -118
-2 -133 -15 -116 -7 10 -31 37 -52 59 -35 39 -38 40 -41 19 -4 -24 8 -50 58
-129 26 -43 34 -66 38 -123 3 -41 1 -70 -5 -70 -15 0 -43 67 -43 103 0 67 -45
113 -56 58 -4 -17 -9 -31 -12 -31 -3 0 -23 12 -43 26 -71 49 -76 4 -11 -93
l37 -56 -23 -15 c-43 -28 -14 -81 29 -54 27 17 29 16 29 -28 0 -22 -2 -40 -5
-40 -2 0 -19 9 -37 20 -18 11 -36 20 -40 20 -19 0 -5 -49 23 -83 20 -25 26
-37 16 -37 -8 0 -21 -10 -30 -22 l-15 -23 -72 50 c-89 61 -107 68 -114 49 -8
-22 10 -61 38 -79 l25 -17 -54 -29 c-30 -16 -57 -29 -60 -29 -3 0 -5 11 -5 25
0 16 -6 25 -15 25 -12 0 -14 7 -9 27 6 23 5 25 -12 19 -48 -20 -54 -19 -54 8
0 34 -9 33 -49 -8 -42 -44 -82 -60 -123 -52 -55 11 -63 19 -43 50 27 40 14 56
-45 56 -62 0 -83 18 -104 91 -18 60 -21 123 -6 114 6 -3 10 -25 10 -48 0 -43
32 -127 48 -127 15 0 32 24 32 46 0 33 17 38 24 9 9 -34 41 -65 67 -65 19 0
20 4 14 41 -5 29 -4 40 4 35 6 -4 11 0 11 8 0 27 18 17 29 -16 11 -31 67 -98
82 -98 4 0 11 15 14 33 11 49 24 61 46 41 17 -16 22 -16 64 0 24 10 54 25 66
35 l22 18 -52 51 c-31 31 -62 52 -75 52 -17 0 -41 11 -74 36 -2 1 3 12 10 24
11 18 10 23 -6 36 -22 16 -49 11 -85 -17 -13 -11 -30 -19 -37 -19 -23 0 -16
20 12 32 21 10 25 17 20 40 -4 22 -2 28 13 28 22 0 65 45 57 59 -4 5 -26 13
-50 16 -59 9 -68 17 -60 49 8 35 21 41 43 22 25 -22 38 -20 45 8 3 14 20 30
40 40 20 9 38 21 41 26 8 14 -32 50 -55 50 -28 0 -36 27 -16 49 9 10 16 21 16
26 0 5 12 21 26 36 33 34 24 49 -27 49 -21 0 -39 3 -39 8 0 4 12 25 25 47 27
44 33 85 11 85 -7 0 -31 -21 -51 -46 l-38 -46 -21 27 c-28 35 -36 26 -71 -80
-36 -109 -137 -239 -156 -202 -3 6 -9 76 -13 153 -6 123 -5 144 9 158 9 9 25
16 35 16 16 0 18 -5 14 -29 -9 -41 11 -47 42 -11 20 22 30 27 40 19 9 -7 19
-7 33 1 19 10 20 13 7 38 -18 35 -56 69 -80 74 -11 1 -21 9 -24 17 -4 11 9 12
67 6 52 -5 76 -4 87 5 13 11 10 17 -18 41 -18 16 -39 28 -45 29 -21 0 -16 10
29 59 34 36 39 46 26 49 -20 4 -74 -22 -105 -51 l-23 -20 0 31 c0 18 -4 32 -8
32 -9 0 -46 -77 -57 -118 -6 -20 -38 -62 -48 -62 -1 0 0 30 3 68 6 56 16 85
66 179 32 61 56 114 52 118 -17 18 -60 -7 -75 -43 -8 -20 -17 -39 -20 -42 -12
-13 -23 33 -23 100 0 60 -4 82 -23 110 l-22 35 -5 -153 -5 -154 -43 61 c-23
34 -47 61 -52 61 -23 0 -7 -59 37 -139 43 -79 47 -93 51 -168 3 -46 1 -83 -4
-83 -14 0 -44 82 -44 121 0 79 -42 133 -56 72 -3 -16 -7 -32 -8 -37 -1 -5 -19
6 -39 24 -37 32 -67 35 -67 6 0 -8 18 -50 41 -93 l41 -77 -22 -18 c-25 -20
-24 -55 2 -72 13 -8 22 -6 37 8 21 19 21 19 21 -33 l0 -52 -37 26 c-21 14 -41
25 -45 25 -18 0 -6 -50 22 -91 27 -40 28 -44 11 -51 -10 -3 -21 -13 -24 -22
-10 -26 -25 -19 -104 44 -41 33 -78 60 -83 60 -32 0 -9 -86 31 -113 25 -18 25
-18 -14 -35 -17 -7 -27 -19 -27 -32 0 -19 4 -22 33 -24 17 -1 45 -29 39 -39
-2 -5 5 -22 17 -37 23 -32 21 -34 -27 -45 -41 -9 -56 -34 -36 -63 13 -18 21
-21 59 -15 36 4 46 2 51 -11 8 -20 41 -21 60 -1 17 16 44 20 44 7 0 -5 -9 -17
-20 -27 -11 -10 -20 -26 -20 -37 0 -24 37 -24 63 0 19 17 20 16 13 -21 -6 -30
-4 -39 10 -44 10 -4 22 0 29 11 10 13 14 14 18 4 3 -7 11 2 20 22 l15 35 11
-28 c29 -76 11 -90 -114 -91 -67 -1 -73 1 -129 42 -61 44 -96 53 -96 26 0 -8
15 -29 33 -46 30 -28 31 -30 7 -23 -46 14 -94 43 -149 90 -29 25 -59 44 -65
42 -6 -2 -11 -19 -11 -38 0 -33 -1 -34 -50 -42 -91 -15 -103 -36 -45 -75 29
-19 45 -23 92 -20 l57 3 -30 -31 c-35 -36 -35 -67 -1 -72 16 -3 34 8 60 37 21
23 45 41 55 41 12 0 6 -10 -21 -34 -35 -33 -36 -35 -19 -53 9 -11 17 -27 17
-36 0 -26 19 -30 46 -8 15 12 33 21 40 21 7 0 29 14 49 31 49 44 44 25 -11
-33 -25 -27 -44 -54 -41 -61 6 -18 42 -20 57 -2 19 22 28 18 22 -10 -7 -37 15
-31 39 10 16 27 25 33 34 25 9 -7 16 -6 25 5 7 8 24 15 38 15 50 0 104 48 115
105 4 18 5 18 12 2 11 -26 -1 -59 -40 -104 -38 -44 -181 -156 -199 -156 -6 0
-40 19 -75 42 -72 46 -93 43 -67 -10 19 -38 20 -47 4 -31 -7 7 -21 12 -32 12
-12 0 -34 9 -51 20 -40 26 -45 25 -45 -10 0 -26 -4 -30 -26 -30 -14 0 -34 5
-45 11 -27 14 -59 -13 -59 -49 0 -20 4 -23 21 -19 15 4 19 2 15 -9 -3 -8 -9
-21 -12 -29 -5 -11 1 -15 25 -15 26 0 31 -4 31 -25 0 -20 5 -25 25 -25 20 0
25 -5 25 -25 0 -22 3 -25 25 -19 33 8 55 -11 55 -47 0 -37 -15 -44 -40 -19
-11 11 -25 20 -32 20 -10 0 -77 -20 -87 -27 -2 -1 6 -15 18 -31 21 -30 29 -96
13 -106 -5 -3 -26 13 -47 34 -22 22 -47 40 -57 40 -21 0 -22 -8 -8 -44 8 -23
7 -26 -13 -26 -12 0 -39 5 -60 11 -22 6 -46 7 -55 4 -14 -6 -10 -13 22 -41 22
-19 48 -34 58 -34 14 0 18 -7 16 -32 -3 -31 -1 -33 31 -36 23 -2 35 -9 38 -23
4 -12 14 -19 30 -19 17 0 27 -8 37 -30 l12 -30 14 25 c15 28 30 33 30 10 0 -8
5 -15 10 -15 6 0 15 -11 20 -25 12 -32 62 -109 74 -114 5 -2 20 -15 33 -29
l23 -25 28 24 c23 20 22 18 -4 -9 -33 -35 -151 -82 -208 -82 -17 0 -48 11 -68
25 -49 33 -58 32 -58 -11 l0 -36 -37 6 c-69 11 -75 11 -86 -6 -9 -13 -5 -21
21 -42 20 -18 32 -38 34 -59 2 -27 8 -33 31 -35 23 -3 27 -8 27 -33 0 -35 21
-46 56 -30 19 8 25 8 23 -2 -5 -42 1 -49 39 -45 57 5 49 -23 -13 -44 -56 -19
-86 -16 -123 13 -32 25 -52 24 -52 -1 0 -17 -7 -20 -50 -20 -27 0 -50 -4 -50
-10 0 -5 16 -20 35 -32 20 -14 35 -31 35 -43 1 -41 30 -58 72 -41 13 6 17 1
20 -26 3 -28 7 -33 27 -30 20 2 22 -1 17 -23 -6 -22 -3 -25 18 -25 13 0 27 -6
29 -12 4 -8 26 9 59 45 56 61 75 68 101 39 21 -24 13 -33 -24 -25 -38 7 -47
-17 -25 -63 20 -42 20 -54 2 -54 -8 0 -28 -11 -44 -25 -17 -14 -34 -25 -40
-25 -5 0 -15 -6 -21 -14 -6 -7 -32 -16 -59 -20 -113 -16 -167 -32 -171 -52 -6
-32 -21 -43 -69 -49 -77 -10 -78 -12 -47 -45 16 -16 44 -35 62 -41 23 -7 33
-16 29 -25 -3 -8 -9 -20 -12 -28 -4 -10 2 -16 18 -18 15 -2 24 -11 26 -25 2
-13 4 -23 5 -23 1 0 18 4 37 10 46 13 70 4 70 -26 0 -33 17 -30 40 9 l20 32 0
-28 c0 -21 7 -30 27 -38 52 -19 70 -9 94 56 l12 30 11 -38 12 -39 19 36 c20
37 33 46 32 24 -2 -60 15 -63 33 -5 8 25 15 35 17 25 3 -13 12 -15 39 -11 20
3 34 1 34 -5 0 -19 -70 -71 -112 -83 -24 -7 -49 -19 -55 -27 -7 -9 -36 -17
-68 -20 -34 -3 -55 -9 -55 -16 0 -23 45 -54 80 -58 19 -2 34 -7 34 -13 -2 -21
-55 -35 -175 -45 -269 -23 -331 -30 -352 -42 -12 -7 -28 -11 -36 -9 -27 5 -42
-8 -32 -27 9 -17 29 -28 85 -46 16 -5 12 -12 -25 -49 l-44 -42 35 -3 c19 -2
39 -8 44 -13 6 -5 18 -9 28 -9 10 0 21 -7 24 -15 9 -22 27 -18 54 10 30 32 36
26 15 -15 -24 -46 -6 -62 35 -32 l30 22 14 -35 c8 -19 18 -35 22 -35 3 0 24
14 45 31 l39 31 -6 -46 c-6 -41 -5 -46 13 -46 11 0 30 11 43 25 28 30 45 33
30 6 -16 -31 -12 -41 18 -41 15 0 34 -6 41 -13 11 -9 14 -9 18 1 7 19 30 14
36 -8 4 -15 14 -20 42 -20 23 0 35 -4 33 -12 -10 -30 -195 -101 -293 -113 -44
-6 -54 -3 -84 19 -54 40 -84 28 -44 -17 16 -19 16 -20 1 -14 -9 3 -45 9 -80
12 -35 4 -91 16 -126 27 -35 11 -66 17 -69 14 -16 -16 87 -96 126 -97 28 -1
23 -3 -22 -13 -22 -5 -28 -12 -25 -29 2 -16 13 -24 43 -30 51 -12 52 -13 31
-36 -22 -25 -13 -45 14 -31 25 14 30 13 30 -5 0 -24 21 -27 73 -11 42 13 64 7
37 -9 -19 -12 -10 -25 16 -25 17 0 28 -6 31 -20 7 -25 10 -25 34 2 l20 23 -16
-39 c-8 -21 -15 -42 -15 -47 0 -19 50 -8 79 17 25 21 31 23 31 9 0 -40 -31
-74 -95 -104 -114 -54 -146 -59 -218 -33 -34 12 -77 22 -96 22 -31 0 -33 -2
-27 -26 6 -22 4 -26 -11 -21 -97 28 -114 30 -123 21 -7 -7 -3 -22 14 -47 14
-20 24 -37 21 -37 -2 0 -28 6 -58 14 -62 16 -109 11 -105 -12 4 -20 68 -53
117 -59 l40 -5 -30 -38 c-32 -39 -35 -77 -7 -72 11 2 18 -8 22 -33 5 -24 14
-39 29 -44 13 -5 29 -16 36 -25 19 -23 36 -20 59 9 l20 25 21 -26 c22 -29 24
-36 15 -71 -5 -18 -14 -23 -40 -23 -18 0 -35 -4 -38 -9 -3 -4 -28 -11 -55 -15
-59 -8 -66 -15 -44 -46 15 -21 21 -22 76 -16 l61 6 -42 -36 c-45 -38 -47 -41
-33 -63 8 -12 15 -13 34 -4 21 10 24 9 23 -5 -1 -12 6 -17 22 -16 17 0 21 -4
16 -18 -6 -21 2 -22 36 -3 38 22 57 19 35 -5 -17 -18 -17 -20 -1 -26 10 -4 28
-2 42 4 19 10 24 9 24 -3 0 -8 7 -15 16 -15 14 0 14 -3 4 -15 -10 -12 -38 -15
-129 -15 -195 0 -299 -16 -226 -34 23 -6 52 -42 42 -52 -2 -3 -30 -9 -62 -14
-65 -11 -79 -19 -73 -46 4 -25 82 -31 133 -10 54 23 58 20 32 -21 -47 -76 -39
-100 23 -68 39 20 48 13 52 -40 4 -53 28 -57 73 -12 19 19 37 32 39 28 2 -3 0
-28 -5 -55 -5 -27 -7 -52 -4 -54 7 -8 50 34 97 95 44 57 59 64 34 14 -18 -33
-21 -81 -7 -81 5 0 21 15 35 33 24 30 26 31 26 9 0 -45 -17 -60 -89 -76 -85
-20 -128 -20 -161 -1 -28 16 -80 20 -80 6 0 -5 6 -12 13 -14 6 -3 -9 -6 -36
-6 -45 -1 -47 -2 -41 -26 6 -24 4 -25 -34 -25 -22 0 -47 -3 -56 -6 -28 -11
-17 -33 19 -40 19 -3 35 -10 35 -15 0 -5 -19 -21 -42 -35 -117 -72 -114 -109
4 -64 68 26 76 25 51 -2 -12 -13 -23 -32 -25 -43 -2 -16 2 -20 25 -18 22 2 27
-2 23 -12 -3 -8 -9 -22 -12 -30 -10 -24 21 -18 54 10 38 32 44 31 36 -2 -7
-25 -6 -27 9 -14 15 12 17 11 17 -5 0 -16 2 -15 23 4 32 30 49 29 41 -3 -8
-32 7 -32 60 -1 33 19 49 23 76 17 l35 -7 -58 -22 c-32 -12 -62 -22 -68 -22
-25 0 -69 -32 -69 -50 0 -23 31 -27 76 -10 15 6 29 8 31 6 3 -3 -9 -25 -26
-50 -17 -24 -31 -47 -31 -50 0 -14 49 -4 89 19 23 14 47 25 52 25 4 0 -1 -21
-11 -46 -25 -57 -25 -54 4 -54 16 0 26 -7 29 -22 6 -22 7 -22 38 7 27 26 30
27 25 9 -4 -13 -1 -26 8 -33 20 -17 67 8 95 51 l21 33 -2 -48 c-1 -26 2 -50 6
-55 5 -4 30 17 56 46 l48 53 7 -50 c8 -56 17 -62 52 -29 23 21 23 21 37 2 14
-18 15 -18 25 9 6 15 17 27 26 27 8 0 18 12 21 28 10 41 13 43 35 21 11 -11
26 -19 32 -17 7 2 27 36 46 76 37 77 50 90 43 42 -5 -38 7 -38 44 1 16 17 37
35 47 40 16 9 17 7 11 -18 -7 -25 -6 -27 9 -14 15 12 17 11 17 -5 0 -15 3 -14
26 7 l26 24 -7 -85 c-4 -47 -18 -122 -31 -168 -13 -45 -24 -85 -24 -87 0 -3
71 -4 158 -3 l157 3 -1 25 c0 14 -3 36 -5 49 -2 13 1 26 7 28 7 2 11 -4 10
-14 -1 -13 7 -19 27 -21 22 -3 36 5 64 34 l35 37 -2 -29 c-5 -67 9 -71 60 -19
32 33 36 34 47 18 7 -9 13 -25 13 -34 0 -28 20 -33 44 -10 20 19 23 20 39 4
15 -15 17 -15 26 10 6 15 17 27 26 27 8 0 15 5 15 11 0 7 10 9 25 5 15 -4 25
-2 25 4 0 6 4 9 10 5 8 -5 22 7 63 56 7 8 11 21 9 27 -11 35 58 -14 71 -50 3
-10 8 -11 26 0 28 16 28 16 47 -20 16 -32 17 -32 25 -10 5 12 13 22 19 22 16
0 12 -34 -15 -108 -14 -38 -25 -72 -25 -76 0 -10 308 -7 315 4 3 5 -1 33 -10
62 -12 42 -13 54 -3 57 7 2 26 17 42 33 l28 29 -6 -35 c-8 -43 5 -52 44 -29
29 17 32 17 64 -1 19 -10 39 -15 46 -11 6 4 20 -1 31 -11 19 -17 22 -17 30 -3
7 13 24 16 81 14 40 -1 82 -5 92 -10 16 -7 18 -5 13 10 -10 25 10 44 54 51 26
5 36 10 32 20 -3 8 1 14 10 14 10 0 17 -11 19 -28 2 -19 8 -26 20 -24 9 1 19
-2 23 -8 5 -8 11 -7 21 1 20 16 17 1 -10 -53 l-23 -48 163 0 c90 0 164 4 164
9 0 5 -7 28 -15 51 -14 39 -14 44 5 67 11 14 17 29 14 34 -9 16 4 10 48 -21
33 -23 56 -31 100 -33 32 -2 60 -6 63 -9 3 -2 -2 -24 -10 -48 -8 -23 -15 -44
-15 -46 0 -2 73 -4 161 -4 l162 0 -7 47 c-3 27 -9 61 -12 77 -6 25 -5 28 15
21 15 -5 21 -2 21 9 0 26 35 18 58 -14 19 -25 26 -28 46 -20 20 7 27 5 39 -13
15 -22 15 -22 31 -2 15 19 17 19 27 3 15 -27 54 -21 94 13 l35 31 0 -36 c0
-43 16 -47 50 -11 13 14 29 25 36 25 7 0 14 8 16 17 3 10 8 -1 12 -24 10 -54
21 -61 52 -32 24 22 24 22 39 3 14 -19 15 -18 21 4 3 12 12 22 20 22 7 0 20
14 29 30 15 29 16 30 40 14 14 -9 25 -21 25 -28 0 -6 10 5 21 24 21 34 22 35
32 13 6 -13 16 -23 23 -23 16 0 34 31 34 58 0 11 7 25 15 32 13 11 21 8 49
-19 l34 -33 16 23 c9 13 16 32 16 42 0 17 2 18 16 6 26 -21 9 -120 -41 -241
-7 -17 4 -18 154 -18 175 0 171 -2 150 57 -9 27 -7 34 16 57 31 31 35 32 35 6
0 -28 25 -35 55 -16 30 20 65 21 65 2 0 -24 20 -29 39 -12 16 15 19 15 31 1
18 -22 28 -18 32 13 l4 27 11 -27 c16 -36 30 -42 45 -18 14 22 43 27 52 8 5
-10 7 -10 12 -1 3 8 16 10 35 6 24 -4 28 -3 23 10 -6 17 17 33 67 47 32 10 35
4 14 -24 -21 -28 -19 -36 10 -36 16 0 25 -6 25 -15 0 -8 4 -15 9 -15 5 0 14 7
21 15 7 8 16 15 21 15 5 0 9 -7 9 -15 0 -25 55 -18 90 11 17 15 33 24 36 22 2
-3 -5 -34 -16 -69 -11 -35 -20 -65 -20 -67 0 -1 71 -1 158 0 l157 3 -1 30 c0
17 -2 44 -5 60 -4 27 -1 30 24 33 19 2 27 -1 27 -12 0 -22 13 -20 36 5 l19 21
6 -24 c4 -18 11 -23 34 -21 15 1 38 11 50 23 28 26 35 25 35 -4 0 -38 18 -41
51 -10 41 39 47 23 16 -41 l-27 -55 158 0 c87 0 161 2 164 5 3 3 -3 33 -13 66
-21 68 -24 93 -9 84 6 -4 17 -1 25 5 12 10 15 10 15 0 0 -8 8 -10 24 -6 18 4
28 0 40 -19 11 -16 26 -25 44 -25 15 0 34 -4 42 -10 9 -5 19 -5 26 1 7 6 15 4
23 -5 9 -11 7 -25 -9 -65 l-20 -51 160 0 c121 0 160 3 161 13 2 17 -1 34 -16
100 l-14 58 31 -6 c25 -6 30 -4 25 7 -9 25 40 9 58 -19 13 -20 22 -23 42 -18
19 4 32 0 49 -16 20 -19 24 -20 24 -6 0 22 6 21 38 -4 25 -19 26 -19 33 -2 5
15 18 18 70 18 35 0 78 -5 94 -9 17 -5 27 -5 22 -1 -4 5 0 16 9 26 13 14 21
16 41 8 30 -11 41 -5 25 13 -7 9 -6 17 4 26 12 11 14 9 14 -8 0 -12 5 -30 11
-41 9 -18 13 -19 27 -7 9 8 28 13 42 12 14 -1 28 3 32 9 4 7 12 0 19 -16 15
-34 25 -34 33 -2 7 28 21 33 30 10 8 -21 43 -19 56 4 7 14 7 27 -1 45 -7 14
-9 33 -5 42 6 15 14 10 52 -29 24 -26 49 -47 54 -47 13 0 40 42 34 52 -10 16
8 8 37 -16 15 -13 34 -26 41 -28 12 -4 -1 -61 -29 -135 -4 -10 31 -13 156 -13
l161 0 0 28 c-1 15 -7 56 -15 92 -16 75 -20 220 -5 220 5 0 21 -22 35 -50 28
-55 40 -64 33 -25 -8 38 6 30 21 -13 20 -58 39 -82 64 -82 13 0 28 -5 35 -12
8 -8 15 -8 26 1 11 10 18 6 36 -19 24 -34 44 -30 37 6 -5 27 5 31 23 9 14 -17
40 -20 40 -5 0 14 31 12 79 -5 31 -10 41 -11 42 -2 0 7 5 1 10 -12 l10 -24 30
29 30 28 -3 -24 c-6 -51 64 -33 103 27 l19 28 -2 -48 c0 -26 2 -50 6 -54 4 -5
25 11 47 35 22 23 42 42 44 42 11 0 4 -25 -12 -43 -17 -18 -17 -19 7 -15 14 2
30 -3 37 -12 10 -13 14 -12 35 8 31 29 42 28 34 -3 -5 -20 -3 -25 13 -25 11 0
24 -7 29 -16 8 -15 11 -15 36 1 24 16 26 16 26 1 0 -38 49 -28 102 22 l27 25
-5 -35 c-4 -20 -2 -38 4 -42 6 -3 33 12 60 33 l50 40 7 -60 7 -59 157 2 156 3
-1 25 c-1 14 -7 58 -15 97 -11 61 -11 75 0 85 11 11 13 9 8 -10 -7 -30 17 -29
50 4 14 14 26 24 27 22 23 -50 35 -64 61 -68 17 -3 31 -12 33 -22 2 -9 -10
-50 -26 -92 l-30 -76 159 0 c180 0 171 -5 144 84 -8 27 -15 55 -15 63 0 17 58
14 64 -4 7 -16 36 -17 36 -1 0 7 6 5 18 -4 17 -16 84 -33 113 -29 9 1 22 -5
29 -14 19 -22 43 -19 37 5 -6 24 1 25 27 5 14 -11 23 -12 33 -4 12 10 56 7
104 -7 20 -6 32 41 18 68 -12 21 -3 22 31 3 32 -19 61 -19 54 -1 -11 28 46 4
62 -26 14 -26 14 -34 0 -74 l-15 -44 159 0 c118 0 159 3 163 13 2 6 0 29 -5
51 -7 33 -6 41 12 53 11 8 20 21 20 29 0 19 7 18 39 -5 51 -37 110 -37 66 -1
-8 7 -15 16 -15 21 0 13 38 11 46 -2 3 -6 16 -8 29 -5 17 4 27 -1 39 -19 22
-34 36 -31 36 6 0 28 2 30 17 18 9 -8 40 -14 72 -15 31 0 66 -4 78 -8 19 -7
21 -5 16 13 -3 12 0 28 6 35 10 11 9 21 -4 45 -19 38 -11 39 37 6 46 -31 52
-31 44 -1 -5 22 -4 24 21 17 18 -5 30 -17 37 -38 15 -43 21 -47 46 -31 18 11
23 11 36 -6 8 -11 14 -26 14 -33 0 -7 5 -13 10 -13 6 0 10 8 10 18 0 9 4 24 9
31 8 12 13 11 30 -10 l21 -24 21 24 c13 16 18 32 14 45 -4 12 -8 31 -10 43 -2
11 -6 30 -10 42 -3 12 -5 21 -2 21 2 0 27 -29 55 -65 29 -36 57 -65 62 -65 14
0 38 53 32 70 -3 8 16 -4 41 -28 66 -60 95 -56 62 9 -15 28 -15 29 12 41 15 7
30 13 32 15 2 1 -11 20 -29 43 -40 51 -24 51 47 0 31 -22 62 -40 70 -40 20 0
16 28 -7 42 -30 19 -24 28 19 28 28 0 49 7 68 24 l28 24 -40 6 c-132 21 -275
68 -308 100 -21 22 -22 40 -1 32 9 -3 27 -9 42 -13 21 -5 24 -3 19 11 -4 9
-10 23 -13 31 -5 12 3 15 39 15 54 0 64 10 37 35 -29 26 -25 38 10 31 33 -6
80 8 80 24 0 6 -17 18 -37 27 -21 9 -33 17 -28 19 6 1 22 5 38 8 31 7 34 21
10 49 -17 18 -16 19 42 17 33 -1 64 -1 69 -1 16 2 -19 34 -51 48 -45 18 -41
33 10 33 42 0 77 14 65 25 -4 4 -26 11 -50 16 -83 19 -118 30 -118 38 0 4 31
20 70 35 76 30 120 60 120 82 0 19 -17 18 -107 -11 -42 -13 -78 -23 -79 -22
-2 1 10 22 27 46 50 75 32 82 -55 21 -125 -88 -165 -91 -285 -27 -149 78 -321
217 -321 259 0 5 18 -10 40 -32 46 -46 60 -50 60 -17 1 21 1 21 21 -5 58 -78
57 -78 51 -20 -6 65 4 66 67 7 26 -25 51 -45 56 -45 4 0 5 20 3 45 -3 46 0 53
19 34 18 -18 58 -7 61 19 5 32 17 27 53 -22 57 -80 83 -60 34 25 -28 49 -30
59 -13 59 6 0 20 7 30 17 12 11 33 16 63 15 32 -2 46 2 54 15 8 16 14 16 55 5
66 -17 86 -16 86 7 0 13 -20 32 -60 57 -33 20 -59 39 -57 41 2 2 30 -3 62 -12
45 -11 68 -12 97 -5 72 20 32 70 -56 70 l-31 0 33 20 c58 36 37 45 -92 42
l-118 -3 7 40 c4 23 3 41 -2 41 -5 0 -35 -9 -68 -21 -73 -26 -106 -21 -216 27
-123 54 -206 102 -234 136 -26 30 -25 54 1 44 8 -3 23 -1 33 6 14 9 27 5 65
-17 38 -22 63 -28 132 -33 l86 -5 -6 24 c-6 21 -4 20 21 -9 29 -34 43 -34 43
0 0 19 1 19 26 -1 32 -25 39 -26 62 -3 9 9 29 24 42 33 24 16 24 17 8 36 -26
29 -22 36 12 18 27 -14 30 -14 39 4 6 10 41 31 78 47 37 15 74 32 82 38 7 6
19 11 25 12 6 0 17 2 24 2 21 3 13 28 -13 40 -19 9 -25 19 -25 41 0 18 -7 34
-17 39 -18 11 -17 11 80 66 49 28 64 53 25 42 -51 -13 -203 -27 -234 -21 -30
5 -49 25 -24 25 6 0 10 6 10 14 0 10 -17 16 -57 21 -130 14 -223 46 -223 77 0
11 7 18 19 18 10 0 24 7 31 15 7 8 19 15 26 15 8 0 14 5 14 10 0 6 17 -1 37
-15 21 -14 48 -25 62 -25 l23 0 -26 34 c-14 19 -26 37 -26 40 0 3 22 6 48 6
27 0 52 3 55 7 4 3 -10 18 -31 32 l-37 26 27 3 c26 3 43 17 104 83 81 88 63
123 -41 79 -69 -29 -88 -27 -83 10 5 36 -8 38 -71 10 -58 -27 -80 -25 -164 10
-121 50 -162 100 -83 100 17 0 37 5 44 12 9 9 17 7 35 -10 26 -25 49 -27 96
-11 36 13 37 16 15 47 -18 26 -13 27 28 6 l31 -16 -7 27 c-6 22 -3 28 14 32
12 3 20 14 20 27 0 12 5 27 11 33 9 9 8 18 -5 37 -15 25 -15 28 11 75 16 27
25 52 22 55 -3 4 -44 -10 -90 -30 -46 -19 -107 -38 -136 -41 -48 -5 -54 -3
-82 25 -53 53 -34 86 33 58 49 -21 57 -1 22 51 l-26 38 37 5 c26 3 39 11 41
23 2 10 -3 17 -13 17 -14 0 -12 6 9 31 36 42 35 66 -1 42 -23 -15 -50 -18
-163 -18 -123 0 -140 2 -184 24 -44 22 -47 25 -28 32 16 6 22 17 22 41 l0 32
28 -27 c24 -23 34 -26 63 -21 19 4 38 13 42 21 4 7 19 13 32 13 36 0 32 28
-10 77 -19 23 -35 43 -35 46 0 2 26 -2 58 -9 71 -17 94 -11 86 21 -7 28 33 75
65 75 28 0 36 19 15 35 -18 13 -17 14 14 15 25 0 32 4 32 19 0 11 5 21 11 23
21 7 -9 48 -35 48 -17 0 -23 5 -22 18 1 13 -6 17 -27 15 -25 -2 -28 1 -23 21
l5 22 -71 -23 c-39 -13 -72 -22 -74 -20 -2 1 10 22 27 46 33 50 32 60 -5 35
-33 -21 -43 -12 -28 21 22 48 12 47 -44 -4 -53 -49 -58 -51 -113 -51 -119 0
-194 45 -221 133 -18 57 -13 78 8 33 9 -20 21 -26 69 -32 80 -12 77 -12 83 20
l5 29 31 -27 c40 -33 54 -33 54 0 0 27 0 27 62 21 52 -5 86 1 106 18 2 2 -4
17 -12 34 -16 30 -16 31 14 46 32 17 41 45 14 45 -10 0 9 25 50 65 36 35 66
69 66 74 0 5 -15 15 -34 21 -19 6 -40 18 -47 26 -8 10 -21 13 -41 8 -28 -5
-29 -4 -19 14 25 47 -1 56 -52 20 -19 -14 -50 -23 -86 -26 -55 -5 -56 -4 -38
15 16 18 25 93 11 93 -3 0 -25 -14 -49 -31 -39 -28 -50 -31 -95 -27 -67 7
-165 58 -240 125 -61 56 -80 87 -35 57 24 -16 25 -16 25 7 1 23 1 23 15 5 8
-11 22 -21 31 -22 9 -1 24 -10 33 -18 28 -26 41 -19 41 20 l0 36 32 -31 c37
-36 59 -37 69 -1 l6 25 4 -24 c2 -15 17 -33 38 -45 30 -17 34 -18 42 -3 5 9
16 23 24 31 8 8 15 31 15 51 0 31 3 36 18 30 53 -22 64 -15 42 25 -8 14 -6 21
6 28 15 8 15 12 0 40 -21 42 -5 49 28 12 41 -46 76 -37 73 20 -2 27 2 35 18
38 11 2 35 18 53 35 32 31 32 32 10 40 -12 4 -42 5 -66 1 -42 -6 -45 -5 -37
12 4 11 10 28 13 38 5 19 4 19 -25 -2 -16 -11 -36 -28 -43 -37 -7 -9 -22 -21
-33 -27 -18 -9 -19 -8 -13 16 5 19 3 26 -9 26 -19 0 -19 4 1 41 27 53 7 44
-60 -26 -61 -63 -67 -67 -98 -61 -79 15 -203 99 -233 157 -20 37 -19 39 9 39
16 0 32 -11 46 -30 29 -40 50 -39 50 3 1 29 2 30 12 12 19 -36 51 -65 70 -65
15 0 18 8 18 54 0 30 5 58 11 61 5 4 27 -11 48 -34 26 -28 46 -41 65 -41 25 0
26 2 15 23 -7 12 -23 36 -36 53 -27 36 -28 44 -9 44 8 0 18 -9 21 -20 3 -11
12 -20 19 -20 8 0 19 -7 26 -15 7 -8 24 -15 37 -15 25 0 25 0 8 27 -17 25 -17
27 1 40 11 8 29 16 42 20 27 7 28 19 2 35 -27 17 -25 26 5 20 38 -7 75 6 84
31 12 32 -4 46 -60 53 -39 5 -49 10 -49 25 0 28 -38 24 -93 -11 -26 -16 -50
-30 -52 -30 -3 0 -5 11 -5 24 0 13 -7 27 -16 30 -8 3 -14 14 -13 23 3 32 -1
34 -31 18 -30 -15 -30 -15 -30 13 0 43 -9 44 -42 7 -16 -19 -45 -44 -65 -56
-31 -19 -39 -20 -73 -10 -49 15 -55 24 -34 56 25 38 12 55 -39 55 -62 0 -90
25 -111 98 -14 52 -23 152 -11 141 2 -3 6 -28 9 -57 6 -57 39 -142 55 -142 15
0 31 34 31 66 0 33 10 25 25 -18 12 -39 60 -77 76 -61 7 7 8 22 1 47 -8 29 -8
36 4 36 8 0 14 5 14 10 0 20 18 10 24 -13 14 -57 96 -137 96 -94 0 6 5 30 11
52 l11 40 22 -27 21 -26 54 26 c80 40 83 51 31 109 -28 30 -59 53 -84 60 -56
18 -71 35 -56 62 24 46 -34 69 -81 33 -13 -10 -32 -21 -41 -25 -28 -10 -22 18
7 33 21 11 25 19 20 41 -5 22 -2 28 19 33 26 6 64 52 53 63 -4 3 -30 11 -59
18 -57 12 -65 24 -48 70 l11 28 24 -23 c23 -22 45 -20 45 3 0 14 57 67 71 67
5 0 9 9 9 19 0 22 -35 51 -62 51 -20 0 -24 30 -7 47 6 6 16 20 23 31 6 11 20
32 30 47 19 27 19 28 1 41 -10 8 -31 14 -47 14 -15 0 -28 2 -28 5 0 2 12 29
27 59 24 50 26 86 4 86 -5 0 -25 -22 -45 -50 -20 -27 -40 -50 -44 -50 -5 0
-14 11 -20 25 -6 14 -16 25 -21 25 -11 0 -46 -90 -60 -152 -16 -69 -134 -221
-145 -187 -6 17 -18 226 -17 289 1 33 7 50 22 63 31 25 39 21 39 -17 0 -58 25
-57 60 4 7 11 11 12 23 1 12 -9 21 -10 36 -1 18 9 20 14 10 33 -27 50 -53 78
-87 92 -54 23 -29 39 40 26 62 -11 98 -6 98 16 0 16 -49 62 -67 63 -21 0 -15
16 22 60 44 52 47 74 8 59 -16 -5 -45 -24 -65 -40 l-38 -30 0 31 c0 16 -4 30
-8 30 -11 0 -47 -77 -57 -118 -4 -18 -18 -45 -31 -59 l-24 -26 0 24 c0 78 24
158 77 260 42 79 54 112 46 120 -20 20 -51 -1 -72 -47 -12 -25 -26 -42 -31
-39 -6 3 -10 44 -10 91 0 65 -5 94 -20 124 -11 22 -23 40 -25 40 -3 0 -5 -73
-5 -162z m-38 -552 c22 -44 37 -156 21 -156 -6 0 -16 28 -23 62 -6 35 -18 74
-25 88 -7 14 -16 36 -20 50 -7 23 -6 24 9 11 10 -8 27 -33 38 -55z m-7527 -8
c32 -52 43 -90 44 -142 1 -63 -9 -52 -30 32 -9 37 -24 84 -33 105 -20 46 -8
49 19 5z m4669 -35 c31 -47 50 -130 38 -164 -8 -21 -11 -17 -22 36 -6 33 -20
80 -31 104 -31 71 -24 83 15 24z m2832 -205 c30 -33 44 -62 44 -94 l0 -28 -24
33 c-14 18 -34 39 -44 47 -21 14 -45 68 -35 78 8 8 34 -8 59 -36z m-7513 -33
c32 -31 64 -101 52 -114 -3 -2 -6 -2 -8 0 -1 2 -24 27 -50 56 -42 47 -61 93
-39 93 5 0 25 -16 45 -35z m4657 -21 c35 -30 60 -73 60 -105 0 -18 -8 -14 -50
30 -27 28 -50 56 -50 61 0 4 -3 15 -6 24 -9 24 11 19 46 -10z m3170 -77 c0
-21 -66 -93 -116 -127 -25 -16 -47 -30 -50 -30 -10 0 -3 60 9 67 6 4 28 8 47
8 29 0 36 4 38 23 2 12 12 27 23 32 10 6 19 17 19 25 0 8 7 15 15 15 8 0 15
-6 15 -13z m-7505 -28 c4 -6 -24 -40 -61 -76 -104 -99 -100 -97 -108 -78 -3 9
-3 27 0 41 5 20 12 24 45 24 32 0 41 5 51 25 6 14 15 25 20 25 5 0 13 11 18
25 10 26 24 32 35 14z m4663 -37 c5 -16 -83 -107 -118 -122 -17 -7 -30 -16
-30 -21 0 -5 -5 -9 -11 -9 -6 0 -9 14 -7 33 3 30 6 32 48 37 37 4 46 9 48 28
2 12 8 22 13 22 5 0 15 11 21 25 11 26 28 29 36 7z m-7365 -102 c17 -35 27
-69 27 -98 0 -56 -10 -48 -31 26 -9 31 -24 74 -33 96 -27 60 4 41 37 -24z
m8589 -39 c19 -36 28 -69 28 -99 0 -56 -10 -48 -31 26 -9 31 -24 74 -33 96
-26 59 3 40 36 -23z m1538 -79 c24 4 30 1 28 -11 -6 -30 -51 -24 -83 10 l-30
32 27 -18 c17 -10 40 -16 58 -13z m-5453 -37 c27 -42 42 -101 33 -135 -6 -23
-8 -21 -19 20 -10 37 -35 110 -49 142 -2 5 0 8 5 8 4 0 18 -16 30 -35z m-2102
15 c3 -5 24 -10 46 -10 48 0 50 -23 3 -28 -21 -2 -36 4 -54 23 -13 14 -18 25
-12 25 6 0 14 -4 17 -10z m7645 -1 c4 8 10 9 14 3 6 -11 -30 -62 -45 -62 -5 0
-9 16 -9 36 0 32 2 35 16 23 13 -10 17 -10 24 0z m-2930 -39 c21 0 30 -4 28
-12 -7 -20 -58 -21 -79 -2 -25 22 -25 38 0 24 11 -5 34 -10 51 -10z m-4592 -2
c9 -9 12 -9 12 0 0 7 5 12 10 12 16 0 11 -19 -11 -41 -17 -17 -23 -19 -30 -8
-11 18 -12 49 -1 49 4 0 13 -5 20 -12z m-2723 -39 c31 -28 58 -83 49 -100 -5
-8 -81 67 -95 92 -25 47 -3 51 46 8z m7406 22 c7 11 9 10 9 -5 0 -20 -27 -56
-42 -56 -4 0 -8 16 -8 36 0 32 2 35 16 23 13 -10 17 -10 25 2z m3009 -8 c0 -5
-4 -15 -10 -23 -11 -18 -25 -7 -17 15 6 15 27 21 27 8z m-7510 -37 c0 -8 -4
-17 -9 -21 -12 -7 -24 12 -16 25 9 15 25 12 25 -4z m5684 -17 c30 -25 64 -95
52 -106 -5 -5 -83 73 -95 95 -27 50 -7 55 43 11z m-1014 -8 c0 -5 -7 -14 -15
-21 -13 -10 -15 -9 -15 9 0 12 6 21 15 21 8 0 15 -4 15 -9z m-7256 -70 c7 -11
-108 -121 -127 -121 -8 0 -18 -8 -21 -17 -9 -24 -29 -1 -24 28 2 20 9 24 46
27 34 3 45 8 52 26 5 13 16 26 24 29 9 4 16 13 16 22 0 16 25 21 34 6z m4364
-50 c31 -29 52 -67 52 -96 0 -16 -81 59 -98 92 -15 28 -15 33 1 33 7 0 27 -13
45 -29z m4226 10 c7 -11 -108 -121 -127 -121 -8 0 -18 -8 -21 -17 -10 -26 -30
1 -22 31 5 22 12 26 46 26 31 0 42 5 51 23 7 12 18 26 25 30 8 4 14 15 14 22
0 16 25 21 34 6z m-3949 -180 c-26 -28 -61 -55 -77 -62 -15 -6 -28 -15 -28
-20 0 -5 -5 -9 -11 -9 -6 0 -9 14 -7 33 3 30 6 32 46 35 29 2 45 9 49 20 12
31 57 72 67 62 7 -7 -7 -27 -39 -59z m5154 -48 c1 -40 -3 -73 -8 -73 -15 0
-23 68 -15 128 9 75 22 44 23 -55z m-7509 -15 c0 -64 -3 -88 -10 -78 -18 27
-12 170 7 170 2 0 3 -42 3 -92z m4663 -67 c-4 -29 -8 -39 -14 -30 -11 17 -12
120 -2 146 11 27 23 -61 16 -116z m-1467 79 c17 -26 29 -59 32 -92 6 -63 -11
-58 -27 8 -7 26 -21 64 -32 85 -26 51 -7 50 27 -1z m-5568 10 c30 0 42 -4 40
-12 -11 -31 -90 -15 -103 21 -5 13 -4 14 6 4 7 -7 33 -13 57 -13z m78 -31 c4
-8 9 -7 15 2 4 7 11 10 15 6 9 -9 -25 -47 -43 -47 -7 0 -13 11 -13 25 0 26 14
33 26 14z m8511 -9 c47 0 58 -16 17 -26 -29 -7 -70 11 -79 35 -5 13 -4 14 6 4
7 -7 32 -13 56 -13z m113 -28 c0 -12 -34 -42 -47 -42 -7 0 -13 10 -13 23 0 20
5 24 30 24 17 0 30 -3 30 -5z m-8442 -24 c-6 -18 -28 -21 -28 -4 0 9 7 16 16
16 9 0 14 -5 12 -12z m8590 -40 c-6 -18 -28 -21 -28 -4 0 9 7 16 16 16 9 0 14
-5 12 -12z m-4163 -28 c45 0 44 -23 -1 -28 -22 -2 -36 4 -54 24 -23 25 -24 26
-3 15 12 -6 38 -11 58 -11z m5086 -13 c-13 -13 -26 -3 -16 12 3 6 11 8 17 5 6
-4 6 -10 -1 -17z m-8999 -14 c28 -32 48 -81 48 -118 0 -43 -16 -38 -25 8 -4
17 -18 53 -31 80 -24 47 -20 62 8 30z m1490 -15 c-7 -7 -12 -8 -12 -2 0 14 12
26 19 19 2 -3 -1 -11 -7 -17z m2528 12 c0 -11 -29 -40 -40 -40 -8 0 -21 36
-15 42 8 7 55 5 55 -2z m761 -39 c24 -24 39 -48 39 -63 0 -24 -3 -22 -50 21
-47 43 -65 81 -39 81 6 0 29 -17 50 -39z m1375 2 c-10 -10 -19 5 -10 18 6 11
8 11 12 0 2 -7 1 -15 -2 -18z m2790 0 c-10 -10 -19 5 -10 18 6 11 8 11 12 0 2
-7 1 -15 -2 -18z m161 -15 c-3 -7 -5 -2 -5 12 0 14 2 19 5 13 2 -7 2 -19 0
-25z m-7657 2 c0 -5 -4 -10 -10 -10 -5 0 -10 5 -10 10 0 6 5 10 10 10 6 0 10
-4 10 -10z m160 -4 c0 -3 -4 -8 -10 -11 -5 -3 -10 -1 -10 4 0 6 5 11 10 11 6
0 10 -2 10 -4z m2560 -11 c-7 -8 -16 -12 -21 -9 -13 8 -1 24 18 24 13 0 13 -3
3 -15z m4477 -15 c31 -37 66 -39 89 -5 20 30 34 32 34 5 0 -24 22 -26 40 -5
16 19 30 19 30 0 0 -23 -54 -51 -121 -64 -74 -15 -94 -9 -108 31 -24 70 -7 88
36 38z m243 21 c0 -6 -4 -13 -10 -16 -5 -3 -10 1 -10 9 0 9 5 16 10 16 6 0 10
-4 10 -9z m-2780 -10 c0 -6 -4 -13 -10 -16 -5 -3 -10 1 -10 9 0 9 5 16 10 16
6 0 10 -4 10 -9z m-4729 -24 c-13 -13 -26 -3 -16 12 3 6 11 8 17 5 6 -4 6 -10
-1 -17z m4886 1 c-3 -8 -6 -5 -6 6 -1 11 2 17 5 13 3 -3 4 -12 1 -19z m-5119
-18 c27 -37 51 -38 82 -5 28 30 40 32 40 5 0 -25 12 -25 35 0 13 15 22 17 29
10 27 -28 -86 -80 -174 -80 -34 0 -60 31 -60 72 0 37 20 36 48 -2z m4655 -20
c34 -37 69 -39 91 -5 20 30 36 32 36 5 0 -23 28 -27 36 -5 7 16 34 21 34 5 0
-20 -44 -49 -89 -59 -94 -21 -106 -22 -124 -8 -20 14 -36 97 -20 97 5 0 22
-13 36 -30z m247 22 c0 -13 -12 -22 -22 -16 -10 6 -1 24 13 24 5 0 9 -4 9 -8z
m-960 -30 c0 -20 -141 -132 -165 -132 -4 0 -5 12 -3 28 3 24 7 27 46 30 29 2
45 9 49 20 13 36 73 80 73 54z m-5900 -113 c0 -51 -4 -78 -10 -74 -5 3 -10 40
-10 81 0 43 4 74 10 74 6 0 10 -34 10 -81z m822 15 c18 -21 39 -69 32 -76 -8
-9 -104 87 -104 105 0 16 2 16 28 3 15 -8 35 -22 44 -32z m7768 -50 c0 -43 -4
-74 -10 -74 -6 0 -10 34 -10 81 0 51 4 78 10 74 6 -3 10 -40 10 -81z m470 8
c5 -4 -21 -22 -32 -22 -5 0 -8 11 -8 24 0 13 -7 26 -15 30 -8 3 -15 11 -15 18
0 6 15 -1 32 -18 18 -16 35 -30 38 -32z m-5564 -64 c16 -30 19 -102 5 -93 -5
3 -12 20 -16 38 -4 17 -16 47 -26 65 -10 18 -19 38 -19 44 0 16 40 -22 56 -54z
m4365 32 c20 0 26 -15 9 -25 -22 -14 -10 -35 20 -35 26 0 30 -4 30 -26 0 -20
4 -25 23 -22 18 2 23 -2 25 -24 4 -32 5 -32 31 -16 27 17 51 -5 51 -48 0 -41
-11 -49 -33 -23 -18 20 -71 26 -82 9 -3 -5 -15 -10 -26 -10 -24 0 -24 -12 1
-35 21 -19 29 -89 11 -99 -5 -4 -29 12 -52 34 -52 48 -74 52 -64 13 11 -44 11
-48 0 -46 -6 1 -40 5 -75 9 l-64 7 15 -24 c9 -13 34 -33 56 -44 l40 -20 -36
-24 c-23 -16 -56 -26 -91 -29 -54 -5 -55 -4 -37 15 17 19 25 93 10 93 -5 0
-26 -14 -47 -30 -56 -42 -111 -41 -202 5 -74 37 -187 123 -198 151 -6 15 -5
15 18 0 33 -21 36 -20 36 6 l0 22 16 -22 c8 -12 21 -22 28 -22 7 0 25 -9 38
-20 l26 -20 6 39 6 39 36 -34 c19 -19 39 -34 43 -34 4 0 12 12 18 28 10 25 11
25 12 4 1 -15 12 -28 37 -39 33 -16 36 -16 45 -1 5 9 16 24 24 32 8 8 15 29
15 46 0 26 3 31 18 27 42 -12 47 -11 46 3 -1 8 -5 23 -9 33 -5 12 -2 17 9 17
20 0 20 4 0 41 -21 41 -10 48 24 16 45 -43 101 -33 73 12 -12 19 -3 41 18 41
10 0 31 13 47 29 21 21 30 26 32 15 2 -8 12 -14 23 -14z m-3179 -125 c-6 -55
-22 -30 -22 35 0 80 13 110 20 47 3 -26 4 -63 2 -82z m-3587 74 c-22 -23 -59
-50 -82 -60 -23 -11 -43 -25 -46 -32 -3 -8 -7 -5 -12 7 -13 30 8 51 54 54 22
2 41 8 41 14 0 18 43 56 65 57 15 1 11 -7 -20 -40z m4720 -9 c25 0 35 -4 33
-12 -8 -24 -54 -20 -84 7 -23 20 -24 24 -7 16 12 -6 38 -11 58 -11z m-5915
-29 c0 -6 -4 -13 -10 -16 -5 -3 -10 1 -10 9 0 9 5 16 10 16 6 0 10 -4 10 -9z
m567 -6 c10 -28 60 -47 107 -40 32 5 45 3 55 -9 17 -20 47 -21 55 -1 3 8 15
15 26 15 25 0 25 -5 0 -30 -11 -11 -20 -27 -20 -35 0 -21 39 -19 63 3 19 17
19 16 13 -15 -8 -35 5 -49 32 -37 9 4 21 8 25 8 5 1 15 12 22 26 l13 25 11
-28 c17 -43 13 -64 -11 -71 -42 -11 -176 -7 -190 7 -23 20 -96 57 -114 57 -10
0 -28 -9 -40 -21 l-22 -21 -47 33 c-26 19 -58 40 -71 47 -27 15 -32 49 -9 58
9 4 28 -8 48 -30 23 -24 43 -36 61 -36 34 0 33 6 -9 59 -19 24 -35 45 -35 47
0 12 32 1 37 -11z m5456 -2 c-5 -13 -34 -33 -47 -33 -3 0 -6 11 -6 23 0 19 5
24 29 24 20 0 28 -4 24 -14z m3301 -9 c9 -3 16 -17 16 -30 0 -31 14 -31 28 2
l12 25 25 -27 c14 -15 25 -32 25 -39 0 -7 11 -29 25 -49 14 -20 25 -43 25 -51
0 -8 10 -20 22 -26 12 -7 30 -21 39 -33 15 -19 19 -19 36 -6 11 8 7 3 -8 -11
-29 -29 -122 -68 -179 -75 l-35 -5 30 14 c17 8 41 26 54 41 l24 26 -66 0 c-66
0 -78 5 -56 27 6 6 9 17 7 23 -2 8 -15 3 -35 -14 -37 -31 -41 -31 -73 -6 l-25
20 33 28 c17 16 32 32 32 35 0 14 -38 6 -83 -17 -44 -22 -47 -22 -47 -5 0 11
-4 19 -9 19 -15 0 -49 -48 -56 -79 -5 -25 -40 -49 -53 -36 -11 11 13 89 40
126 27 37 31 39 46 26 22 -19 59 -30 66 -19 3 5 -7 25 -21 45 -14 21 -23 40
-19 44 4 4 10 3 14 -2 11 -15 68 -45 86 -45 20 0 21 14 1 30 -20 17 -19 25 8
38 26 12 49 14 71 6z m-734 -24 c0 -5 -4 -10 -10 -10 -5 0 -10 5 -10 10 0 6 5
10 10 10 6 0 10 -4 10 -10z m-8645 -10 c-3 -5 -10 -10 -16 -10 -5 0 -9 5 -9
10 0 6 7 10 16 10 8 0 12 -4 9 -10z m152 -22 c-3 -7 -5 -2 -5 12 0 14 2 19 5
13 2 -7 2 -19 0 -25z m1793 16 c0 -8 -5 -12 -10 -9 -6 4 -8 11 -5 16 9 14 15
11 15 -7z m4288 4 c-6 -18 -28 -21 -28 -4 0 9 7 16 16 16 9 0 14 -5 12 -12z
m-2124 -13 c-5 -11 1 -15 25 -15 26 0 31 -4 31 -25 0 -22 3 -25 25 -19 22 5
25 3 25 -21 0 -24 3 -26 26 -21 45 12 79 -35 54 -74 -8 -12 -11 -12 -27 2 -23
21 -39 23 -85 14 -44 -9 -46 -16 -17 -55 16 -22 19 -36 14 -60 -4 -17 -9 -31
-13 -31 -3 0 -23 17 -44 38 -29 27 -52 40 -90 47 -56 11 -65 21 -44 50 13 17
16 18 37 4 22 -15 25 -14 58 18 19 18 40 33 47 33 7 0 15 4 19 9 8 15 -24 41
-50 41 -35 0 -39 16 -14 50 25 33 31 37 23 15z m-3752 -25 c32 -37 48 -38 48
-3 l0 27 34 -37 c18 -20 42 -37 52 -38 27 -1 -19 -14 -76 -22 -38 -5 -49 -2
-71 17 -28 24 -49 57 -49 75 0 22 36 10 62 -19z m-668 -5 c26 -39 62 -43 97
-9 28 27 29 27 29 6 0 -25 22 -29 40 -7 16 19 30 19 30 -1 0 -22 -77 -53 -149
-60 l-61 -7 -16 38 c-24 59 -2 89 30 40z m246 16 c0 -6 -4 -13 -10 -16 -5 -3
-10 1 -10 9 0 9 5 16 10 16 6 0 10 -4 10 -9z m8660 0 c0 -12 -20 -25 -27 -18
-7 7 6 27 18 27 5 0 9 -4 9 -9z m147 -28 c-3 -10 -5 -4 -5 12 0 17 2 24 5 18
2 -7 2 -21 0 -30z m-5136 6 c29 -21 65 -76 55 -86 -8 -8 -106 78 -106 94 0 19
17 16 51 -8z m2203 -50 c-17 -34 -78 -88 -162 -144 l-69 -46 -64 37 c-35 21
-65 39 -67 40 -2 1 1 12 8 23 9 18 8 21 -10 21 -34 0 -18 23 28 40 22 9 52 26
66 39 14 14 26 20 26 14 0 -5 -20 -29 -45 -52 -26 -24 -44 -48 -42 -55 6 -18
37 -19 58 0 18 16 19 16 19 -9 0 -36 15 -34 37 4 12 20 24 29 35 25 10 -2 21
0 24 5 3 5 18 9 33 9 38 0 93 38 111 77 12 24 16 27 21 14 4 -9 1 -28 -7 -42z
m3134 31 c15 -16 32 -30 39 -30 17 0 43 -40 43 -68 0 -20 -3 -21 -20 -12 -11
6 -27 26 -35 45 -15 37 -24 42 -42 24 -8 -8 -15 -4 -27 12 -39 56 -3 81 42 29z
m-651 -20 c36 -32 53 -31 83 4 16 20 41 21 34 2 -9 -24 14 -27 35 -4 23 24 41
17 25 -10 -17 -28 -63 -45 -134 -50 -73 -5 -85 2 -96 56 -8 41 7 42 53 2z
m233 20 c0 -5 -4 -10 -10 -10 -5 0 -10 5 -10 10 0 6 5 10 10 10 6 0 10 -4 10
-10z m-3794 -37 c-10 -10 -19 5 -10 18 6 11 8 11 12 0 2 -7 1 -15 -2 -18z
m555 10 c13 -16 12 -17 -3 -4 -10 7 -18 15 -18 17 0 8 8 3 21 -13z m-4061 -9
c13 -5 13 -6 0 -14 -24 -15 -56 -11 -81 9 l-24 20 45 -6 c25 -2 52 -7 60 -9z
m810 -38 c0 -11 -39 -41 -45 -34 -1 2 0 20 3 41 4 37 5 37 23 21 11 -9 19 -22
19 -28z m-1314 8 c17 -14 17 -15 1 -10 -10 3 -23 6 -28 6 -5 0 -9 5 -9 10 0
14 13 12 36 -6z m584 5 c0 -12 -42 -39 -52 -33 -4 3 -8 13 -8 23 0 13 8 18 30
18 17 0 30 -4 30 -8z m3951 -27 c31 -32 38 -45 36 -75 -1 -20 -4 -37 -7 -37
-3 0 -25 19 -48 43 -39 40 -54 82 -35 100 10 11 13 9 54 -31z m-571 18 c0 -5
-4 -10 -10 -10 -5 0 -10 5 -10 10 0 6 5 10 10 10 6 0 10 -4 10 -10z m711 -17
c15 -13 14 -16 -9 -43 -14 -16 -29 -27 -34 -24 -4 3 -8 25 -8 49 0 38 3 43 18
38 9 -3 24 -12 33 -20z m-1466 8 c7 -12 -68 -73 -124 -100 -54 -25 -51 -25
-51 -2 0 27 25 44 57 37 24 -5 33 0 62 34 36 41 46 47 56 31z m902 -13 c-3 -8
-6 -5 -6 6 -1 11 2 17 5 13 3 -3 4 -12 1 -19z m195 -3 c32 -38 41 -46 52 -42
6 2 11 14 10 26 0 11 0 21 2 21 1 0 18 -16 37 -35 19 -19 41 -35 49 -35 7 0
19 -9 26 -20 10 -17 9 -23 -8 -40 -26 -26 -32 -26 -100 11 -63 33 -104 71
-115 107 -5 18 -2 22 14 22 11 0 26 -7 33 -15z m-647 -25 c35 -37 54 -38 85
-5 28 30 40 32 40 5 0 -24 8 -25 32 -3 12 11 22 13 28 7 23 -23 -49 -57 -146
-70 -46 -6 -53 -4 -68 17 -17 24 -22 79 -8 79 5 0 21 -13 37 -30z m245 22 c0
-13 -12 -22 -22 -16 -10 6 -1 24 13 24 5 0 9 -4 9 -8z m-3170 -11 c0 -12 -20
-25 -27 -18 -7 7 6 27 18 27 5 0 9 -4 9 -9z m-420 -92 c-13 -31 -100 -104
-185 -157 l-49 -31 -38 21 c-46 26 -50 56 -10 79 28 16 29 16 24 -7 -6 -33 8
-30 40 8 21 25 30 30 36 20 7 -10 11 -10 22 3 7 8 25 15 40 15 40 0 93 40 105
78 7 26 11 29 18 16 5 -9 4 -27 -3 -45z m874 -14 c17 -25 17 -27 0 -23 -10 2
-27 18 -38 37 l-19 33 20 -10 c11 -6 28 -23 37 -37z m3535 11 c-3 -3 -15 -3
-27 1 -18 4 -20 8 -11 20 11 12 14 12 28 -1 8 -9 13 -18 10 -20z m491 -53 c0
-35 -4 -63 -9 -63 -15 0 -23 55 -15 106 9 63 24 37 24 -43z m-3874 58 c-6 -9
-46 -22 -46 -15 0 3 10 9 23 14 29 11 29 11 23 1z m-1316 -31 c0 -5 -4 -10
-10 -10 -5 0 -10 5 -10 10 0 6 5 10 10 10 6 0 10 -4 10 -10z m3320 -5 c0 -16
-35 -21 -45 -6 -4 8 9 15 38 20 4 0 7 -6 7 -14z m-225 -60 c47 -3 51 -5 35
-15 -24 -16 -56 -11 -81 11 -21 18 -21 20 -4 13 11 -4 34 -8 50 -9z m150 -5
c3 -5 1 -10 -4 -10 -6 0 -11 5 -11 10 0 6 2 10 4 10 3 0 8 -4 11 -10z m-35
-21 c0 -10 -34 -29 -49 -29 -6 0 -11 8 -11 18 0 14 8 19 30 19 17 0 30 -4 30
-8z m4180 -29 c5 0 11 -8 14 -18 11 -34 72 -120 104 -147 32 -26 33 -27 52
-10 11 10 20 13 20 7 0 -17 -42 -42 -116 -68 -86 -32 -138 -31 -180 1 -44 33
-54 32 -54 -10 0 -30 -3 -35 -24 -35 -13 0 -32 3 -41 6 -14 6 -11 10 14 20 31
13 32 14 17 43 -15 28 -15 30 17 55 28 23 30 27 15 36 -14 9 -9 17 38 62 30
28 57 48 60 45 4 -4 16 6 28 21 17 22 21 23 24 9 2 -9 7 -17 12 -17z m-6980
-66 c0 -36 -4 -64 -10 -64 -6 0 -10 30 -10 71 0 44 4 68 10 64 6 -3 10 -35 10
-71z m-786 22 c16 -4 30 -15 33 -27 4 -14 12 -19 24 -16 20 5 26 -7 9 -18 -22
-14 -10 -35 20 -35 20 0 30 -5 30 -15 0 -8 -5 -15 -10 -15 -22 0 -109 50 -163
95 -57 46 -79 80 -32 49 24 -16 25 -16 25 7 l0 24 18 -21 c9 -12 30 -25 46
-28z m76 23 c0 -5 -4 -9 -10 -9 -5 0 -10 7 -10 16 0 8 5 12 10 9 6 -3 10 -10
10 -16z m87 -11 c-3 -8 -6 -5 -6 6 -1 11 2 17 5 13 3 -3 4 -12 1 -19z m3253
-26 c0 -64 61 -134 75 -87 15 47 17 50 22 35 10 -29 47 -60 71 -60 21 0 23 3
18 25 -8 30 23 73 32 45 3 -8 22 -32 42 -54 38 -41 70 -45 70 -8 0 31 21 44
41 26 15 -14 22 -14 55 -2 30 10 38 11 42 0 2 -7 15 -26 28 -41 13 -16 24 -34
24 -40 0 -6 11 -17 25 -23 14 -6 25 -14 25 -17 0 -3 -19 -14 -43 -23 -78 -32
-77 -32 -77 -10 0 11 -7 22 -15 26 -9 3 -12 12 -8 22 5 13 2 16 -8 12 -55 -21
-59 -20 -59 6 0 32 -10 33 -39 2 -49 -52 -132 -68 -181 -36 -13 9 -13 12 3 21
9 5 17 19 17 29 0 17 -7 20 -53 20 -66 0 -91 17 -111 77 -18 52 -21 107 -6 98
6 -3 10 -23 10 -43z m2041 15 c-13 -13 -26 -3 -16 12 3 6 11 8 17 5 6 -4 6
-10 -1 -17z m568 -3 c3 -16 1 -17 -13 -5 -19 16 -21 34 -3 29 6 -3 14 -13 16
-24z m2766 -54 c21 0 19 -17 -4 -30 -35 -18 -41 -12 -41 43 l1 52 14 -32 c8
-18 21 -33 30 -33z m-5474 2 c-15 -35 -67 -79 -163 -137 l-70 -42 -66 33 c-37
19 -72 34 -79 34 -7 0 -17 9 -23 19 -11 22 -13 38 -4 28 4 -3 18 3 32 13 13
11 32 20 40 20 8 0 30 11 49 26 50 38 40 12 -12 -30 -25 -21 -45 -41 -45 -46
0 -17 34 -20 56 -5 30 20 33 19 27 -5 -7 -28 12 -25 36 6 14 17 26 24 37 20 9
-4 22 -2 28 3 6 4 28 11 48 15 46 8 98 50 98 79 0 16 3 18 11 10 9 -9 9 -19 0
-41z m2085 11 c-10 -10 -19 5 -10 18 6 11 8 11 12 0 2 -7 1 -15 -2 -18z m561
12 c7 -19 55 -45 83 -45 17 0 19 3 10 19 -14 26 -13 31 5 25 8 -4 15 -18 15
-33 0 -15 5 -32 11 -38 7 -7 3 -15 -13 -25 -13 -9 -38 -30 -57 -47 -21 -19
-45 -31 -62 -31 -66 0 -219 82 -244 130 -13 26 -11 40 5 40 4 0 24 -13 45 -30
39 -31 55 -31 55 0 0 14 7 11 35 -17 41 -41 59 -39 63 8 1 19 5 40 7 47 6 17
34 15 42 -3z m2661 -22 c18 -14 32 -33 32 -45 l0 -21 -22 20 c-13 11 -33 26
-45 32 -13 6 -27 20 -33 30 -8 16 -7 18 13 14 12 -3 37 -17 55 -30z m-3061 5
c-3 -8 -6 -5 -6 6 -1 11 2 17 5 13 3 -3 4 -12 1 -19z m-547 -30 c0 -13 -23 -5
-28 10 -2 7 2 10 12 6 9 -3 16 -11 16 -16z m136 -28 c20 0 6 -27 -17 -33 -30
-8 -56 3 -67 27 -15 34 15 50 47 25 13 -11 30 -19 37 -19z m-486 -17 c0 5 16
-1 35 -13 32 -20 35 -20 35 -4 0 16 1 16 20 -1 19 -17 19 -19 2 -31 -27 -21
-60 -16 -117 16 -53 30 -105 77 -58 52 30 -16 43 -15 43 4 0 12 5 11 20 -7 10
-13 19 -20 20 -16z m1492 12 c-2 -14 1 -31 7 -39 9 -11 6 -18 -18 -35 -36 -26
-44 -26 -36 -1 5 14 2 20 -10 20 -14 0 -14 3 -2 26 7 14 24 31 38 39 13 7 25
13 25 14 1 1 -1 -10 -4 -24z m2758 -15 c-20 -13 -33 -13 -25 0 3 6 14 10 23
10 15 0 15 -2 2 -10z m1480 -26 c0 -8 -4 -12 -10 -9 -5 3 -10 13 -10 21 0 8 5
12 10 9 6 -3 10 -13 10 -21z m-10233 10 c-3 -3 -12 -4 -19 -1 -8 3 -5 6 6 6
11 1 17 -2 13 -5z m2733 -20 c0 -8 -4 -12 -10 -9 -5 3 -10 13 -10 21 0 8 5 12
10 9 6 -3 10 -13 10 -21z m6115 -10 c-32 -13 -45 -3 -25 21 10 12 17 12 34 3
21 -11 20 -12 -9 -24z m-8330 16 c-3 -5 -11 -10 -16 -10 -6 0 -7 5 -4 10 3 6
11 10 16 10 6 0 7 -4 4 -10z m5552 -15 c-4 -8 -11 -15 -17 -15 -7 0 -7 6 0 21
13 23 26 19 17 -6z m1323 -16 c0 -5 -4 -9 -10 -9 -5 0 -10 7 -10 16 0 8 5 12
10 9 6 -3 10 -10 10 -16z m-6373 -4 c7 -20 55 -45 85 -45 13 0 32 -7 42 -15
23 -17 9 -19 -30 -5 -40 16 -57 -5 -25 -31 32 -26 5 -26 -59 2 -42 18 -50 26
-56 54 -3 19 -3 38 1 44 9 16 35 13 42 -4z m100 9 c-3 -3 -12 -4 -19 -1 -8 3
-5 6 6 6 11 1 17 -2 13 -5z m1231 -18 c8 -18 21 -25 59 -30 26 -4 58 -10 70
-13 18 -4 22 0 25 26 3 31 3 31 27 15 21 -15 21 -18 7 -26 -24 -13 -21 -48 4
-48 17 0 19 -3 10 -19 -15 -28 -13 -31 20 -31 24 0 30 -4 30 -21 0 -20 -4 -21
-64 -17 -44 4 -81 15 -117 34 -50 27 -56 33 -75 92 -21 60 -18 86 4 38z m439
-23 c-1 -1 -25 3 -52 9 l-50 11 35 12 c32 12 37 11 52 -9 9 -11 16 -22 15 -23z
m-2322 27 c-3 -5 -10 -10 -16 -10 -5 0 -9 5 -9 10 0 6 7 10 16 10 8 0 12 -4 9
-10z m152 -22 c-3 -7 -5 -2 -5 12 0 14 2 19 5 13 2 -7 2 -19 0 -25z m2031 10
c-3 -23 -48 -41 -48 -20 0 6 -3 17 -6 26 -5 13 1 16 26 16 27 0 31 -3 28 -22z
m622 -49 c0 -33 -4 -59 -10 -59 -6 0 -10 29 -10 66 0 41 4 63 10 59 6 -3 10
-33 10 -66z m-2448 29 c8 -11 25 -22 39 -24 13 -1 26 -3 29 -4 11 -3 -36 -19
-59 -19 -27 -1 -71 34 -71 56 0 21 46 15 62 -9z m55 0 c-3 -8 -6 -5 -6 6 -1
11 2 17 5 13 3 -3 4 -12 1 -19z m3013 19 c0 -2 -10 -12 -22 -23 l-23 -19 19
23 c18 21 26 27 26 19z m3115 -17 c7 -22 26 -28 100 -32 49 -3 50 -2 50 25 -1
15 1 27 3 27 3 0 20 -13 39 -30 18 -16 39 -30 44 -30 7 0 9 12 7 30 -4 29 -3
30 32 30 45 0 52 -6 37 -31 -10 -17 -8 -23 18 -44 l30 -24 -36 -36 c-43 -43
-93 -57 -161 -45 -90 17 -168 74 -168 122 0 11 -5 28 -10 39 -7 12 -7 19 -1
19 5 0 13 -9 16 -20z m2005 -135 c0 -8 -7 -15 -16 -15 -14 0 -14 3 -4 15 7 8
14 15 16 15 2 0 4 -7 4 -15z m-7503 -17 c-3 -8 -6 -5 -6 6 -1 11 2 17 5 13 3
-3 4 -12 1 -19z m4661 -16 c2 -8 -9 -12 -32 -12 -31 0 -36 -3 -36 -24 0 -13 7
-40 15 -59 19 -46 19 -47 -3 -47 -10 0 -29 -11 -42 -25 -13 -14 -28 -25 -33
-25 -6 0 -18 -6 -26 -14 -9 -8 -32 -17 -51 -21 -29 -6 -33 -5 -22 6 11 11 18
79 8 79 -2 0 -25 -12 -50 -26 -66 -37 -129 -31 -238 24 -79 39 -176 111 -151
112 6 0 15 -4 18 -10 10 -16 25 -12 25 7 0 15 1 15 18 0 10 -10 25 -17 33 -17
8 0 23 -7 33 -15 29 -22 36 -19 36 16 l0 30 33 -25 c42 -32 55 -32 67 -3 7 17
9 18 9 4 1 -10 16 -25 36 -34 35 -17 36 -17 60 10 14 14 25 39 25 54 1 23 2
25 11 11 5 -10 16 -15 24 -12 11 5 15 -1 15 -20 0 -18 5 -26 18 -26 10 0 24
-6 31 -12 10 -11 18 -6 39 22 15 19 39 48 55 64 25 26 29 27 49 14 12 -8 24
-20 26 -26z m2952 8 c-38 -32 -46 -35 -55 -20 -3 5 11 18 32 29 54 29 63 26
23 -9z m-5950 6 c0 -3 -4 -8 -10 -11 -5 -3 -10 -1 -10 4 0 6 5 11 10 11 6 0
10 -2 10 -4z m4260 -20 c0 -16 -7 -26 -22 -29 -31 -8 -33 -3 -11 27 23 32 33
33 33 2z m-6000 2 c0 -22 -88 -93 -168 -136 -79 -42 -82 -43 -112 -27 -40 21
-38 29 6 20 32 -6 35 -4 30 13 -7 22 24 54 57 58 102 12 118 17 145 50 29 34
42 42 42 22z m4869 -1 c-2 -2 -19 -15 -37 -30 -38 -30 -74 -38 -51 -11 14 17
82 54 88 48 2 -2 2 -5 0 -7z m-3184 -17 c-3 -5 -11 -10 -16 -10 -6 0 -7 5 -4
10 3 6 11 10 16 10 6 0 7 -4 4 -10z m152 -22 c-3 -7 -5 -2 -5 12 0 14 2 19 5
13 2 -7 2 -19 0 -25z m199 -13 c15 -14 33 -25 40 -25 8 0 14 -9 14 -20 0 -30
36 -45 64 -27 21 14 22 14 18 -13 l-4 -28 -41 14 c-69 24 -147 83 -147 111 0
21 27 15 56 -12z m-416 5 c0 -5 -4 -10 -10 -10 -5 0 -10 5 -10 10 0 6 5 10 10
10 6 0 10 -4 10 -10z m-52 -21 c-2 -6 -8 -10 -13 -10 -5 0 -11 4 -13 10 -2 6
4 11 13 11 9 0 15 -5 13 -11z m5972 -29 c0 -5 -4 -10 -10 -10 -5 0 -10 5 -10
10 0 6 5 10 10 10 6 0 10 -4 10 -10z m-9035 -30 c5 -15 15 -20 44 -20 34 0 43
-6 75 -47 20 -25 36 -49 36 -53 0 -4 10 -12 23 -19 43 -22 -55 -1 -111 24 -40
18 -56 32 -66 57 -23 56 -28 78 -17 78 5 0 13 -9 16 -20z m8934 -19 c22 -6 20
-8 -21 -29 -25 -12 -57 -22 -72 -22 -25 0 -26 1 -11 16 12 12 13 19 4 30 -9
12 -4 14 32 13 24 -1 55 -4 68 -8z m-8099 -37 c0 9 5 16 10 16 6 0 10 -11 10
-24 0 -18 6 -26 22 -28 18 -3 19 -5 6 -15 -12 -10 -22 -7 -56 18 -45 33 -59
61 -17 33 23 -15 25 -15 25 0z m2903 9 c-7 -2 -19 -2 -25 0 -7 3 -2 5 12 5 14
0 19 -2 13 -5z m4948 -64 c-10 -23 -10 -23 -10 7 -1 17 2 34 7 38 11 12 14
-18 3 -45z m-7756 -29 c3 -5 2 -10 -4 -10 -5 0 -13 5 -16 10 -3 6 -2 10 4 10
5 0 13 -4 16 -10z m-1651 -25 c-33 -26 -75 -46 -87 -42 -7 2 13 18 43 35 54
31 81 35 44 7z m8461 -5 c19 -21 16 -23 -28 -20 -35 2 -42 -18 -23 -65 20 -46
20 -55 2 -55 -8 0 -27 -10 -43 -22 -55 -44 -89 -57 -175 -64 -98 -8 -176 7
-204 37 -16 18 -16 19 4 19 18 0 22 6 22 32 l0 32 29 -28 c22 -21 35 -26 48
-21 10 5 23 7 30 6 7 -1 21 7 33 19 11 11 27 20 35 20 24 0 17 24 -20 67 -19
23 -35 44 -35 47 0 10 54 -6 71 -21 9 -8 24 -11 34 -7 16 6 17 3 11 -21 -6
-24 -5 -27 14 -22 12 3 24 -1 30 -11 9 -15 17 -9 61 41 55 61 75 69 104 37z
m145 -7 c0 -10 -84 -63 -99 -63 -22 0 -1 20 47 45 55 28 52 27 52 18z m-4380
-73 c0 -5 7 -10 16 -10 9 0 30 -8 46 -17 23 -14 32 -15 35 -5 8 22 23 13 23
-14 0 -20 4 -24 19 -19 12 4 21 0 25 -11 6 -15 10 -14 35 10 38 36 58 31 81
-22 l19 -43 -27 -10 c-47 -18 -184 27 -282 93 -57 38 -77 63 -31 38 17 -9 21
-8 21 5 0 8 5 15 10 15 6 0 10 -4 10 -10z m-828 -37 c22 -21 30 -24 42 -14 8
7 20 10 26 6 6 -4 17 -2 25 5 11 9 16 7 24 -8 6 -11 26 -29 46 -41 60 -35 46
-44 -62 -39 -122 5 -218 44 -153 61 17 4 19 11 14 31 -8 33 3 33 38 -1z m1298
22 c0 -9 -91 -57 -97 -51 -8 7 -7 9 37 35 33 19 60 27 60 16z m-1060 -79 c0
-2 -8 -10 -17 -17 -16 -13 -17 -12 -4 4 13 16 21 21 21 13z m3400 -43 c15 4
30 3 33 0 21 -20 -67 -90 -131 -104 -20 -4 -48 -11 -61 -15 -26 -8 -26 -10 -3
45 4 10 1 13 -10 8 -13 -5 -14 -1 -5 28 10 35 27 38 27 6 0 -34 14 -32 37 6
l23 38 0 -32 c0 -46 16 -49 31 -6 16 52 23 61 27 39 3 -14 10 -17 32 -13z
m2870 22 c0 -8 -64 -45 -78 -45 -25 0 -6 23 28 35 42 15 50 17 50 10z m-3326
-60 c40 -3 62 -1 67 6 4 7 15 9 24 5 12 -4 15 -13 11 -30 -9 -37 11 -41 32 -7
19 32 32 31 32 0 0 -13 12 -20 42 -26 l42 -8 -30 -20 c-45 -31 -173 -28 -238
5 -28 14 -53 32 -57 40 -19 37 -39 84 -39 88 0 3 12 -6 28 -21 21 -20 41 -27
86 -32z m-4812 -149 c15 -16 28 -32 28 -35 0 -4 14 -12 32 -19 17 -6 29 -14
26 -17 -8 -8 -90 23 -111 43 -16 14 -47 74 -47 90 0 6 33 -22 72 -62z m7953
-52 c-44 -33 -144 -26 -175 11 -9 11 -2 13 41 9 28 -3 60 -9 70 -14 24 -14 26
-13 32 11 5 18 8 19 28 8 21 -11 22 -12 4 -25z m1350 -14 c4 -6 -10 -10 -34
-10 -23 0 -41 5 -41 10 0 6 15 10 34 10 19 0 38 -4 41 -10z m-2485 -23 c0 -17
-44 -59 -53 -50 -11 11 -8 22 13 43 23 23 40 26 40 7z m-3910 -74 c0 -19 -72
-72 -106 -79 -27 -5 -114 10 -114 20 0 2 6 19 14 37 13 30 15 32 21 14 4 -11
9 -27 12 -35 4 -10 10 -5 21 18 19 38 32 41 32 7 0 -33 19 -32 31 3 8 23 15
27 49 27 24 0 40 -5 40 -12z m6660 -3 c0 -5 -2 -10 -4 -10 -3 0 -8 5 -11 10
-3 6 -1 10 4 10 6 0 11 -4 11 -10z m-2992 -175 c-11 -9 -128 -13 -128 -5 0 6
15 10 34 10 18 0 39 7 46 15 12 14 15 14 31 -1 11 -10 18 -18 17 -19z m-1379
-231 c-9 -11 -15 -12 -23 -4 -8 8 -7 13 4 20 20 12 33 1 19 -16z m-76 -51 c-7
-2 -19 -2 -25 0 -7 3 -2 5 12 5 14 0 19 -2 13 -5z m4467 -18 c7 -8 8 -15 2
-15 -5 0 -15 7 -22 15 -7 8 -8 15 -2 15 5 0 15 -7 22 -15z m-2880 -131 c-36
-8 -100 -9 -100 -2 0 5 26 7 58 7 31 -1 50 -3 42 -5z m-317 -501 l32 -16 -50
-23 -50 -24 -17 23 c-22 28 -18 43 10 39 12 -2 22 2 22 7 0 15 16 14 53 -6z
m-8973 -253 c0 -5 -7 -10 -16 -10 -8 0 -12 5 -9 10 3 6 10 10 16 10 5 0 9 -4
9 -10z m230 -175 c12 -19 25 -35 29 -35 4 0 15 16 25 36 l17 37 16 -23 c12
-17 17 -19 24 -9 6 10 11 5 20 -18 12 -36 23 -42 33 -18 3 8 18 15 33 15 l28
0 -30 -20 c-20 -13 -47 -20 -80 -20 -28 0 -56 -5 -62 -11 -8 -8 -19 -6 -40 5
-17 8 -40 12 -51 9 -32 -8 -38 21 -12 57 12 16 23 30 25 30 2 0 13 -16 25 -35z
m280 16 c0 -5 -7 -11 -15 -15 -15 -5 -20 5 -8 17 9 10 23 9 23 -2z m-130 -710
c0 -6 -4 -13 -10 -16 -5 -3 -10 1 -10 9 0 9 5 16 10 16 6 0 10 -4 10 -9z
m7798 -379 c3 -46 1 -47 -47 -31 -20 7 -31 18 -31 30 0 10 5 19 10 19 6 0 8
11 4 26 -6 25 -6 25 27 11 30 -12 34 -18 37 -55z m-8 -122 c0 -5 -2 -10 -4
-10 -3 0 -8 5 -11 10 -3 6 -1 10 4 10 6 0 11 -4 11 -10z"/>
</g>
</svg>
