<?xml version="1.0" standalone="no"?>
<!DOCTYPE svg PUBLIC "-//W3C//DTD SVG 20010904//EN"
 "http://www.w3.org/TR/2001/REC-SVG-20010904/DTD/svg10.dtd">
<svg version="1.0" xmlns="http://www.w3.org/2000/svg"
 width="1280.000000pt" height="960.000000pt" viewBox="0 0 1280.000000 960.000000"
 preserveAspectRatio="xMidYMid meet">
<metadata>
Created by potrace 1.15, written by Peter Selinger 2001-2017
</metadata>
<g transform="translate(0.000000,960.000000) scale(0.100000,-0.100000)"
fill="#795548" stroke="none">
<path d="M6145 8929 c-730 -75 -1327 -296 -1852 -685 -842 -624 -1394 -1625
-1557 -2824 -63 -458 -63 -1061 0 -1530 58 -437 155 -821 301 -1190 208 -526
463 -921 832 -1291 234 -234 434 -387 698 -538 631 -358 1428 -510 2313 -440
552 43 1094 202 1534 448 969 542 1574 1512 1780 2851 66 429 91 944 66 1365
-72 1226 -513 2271 -1240 2937 -577 529 -1226 810 -2063 893 -170 17 -662 19
-812 4z m610 -1578 c489 -100 885 -540 1104 -1224 87 -272 155 -634 179 -947
9 -123 9 -807 0 -930 -8 -104 -26 -284 -32 -315 -2 -11 -7 -45 -11 -75 -10
-78 -50 -289 -74 -390 -89 -378 -258 -757 -440 -985 -59 -74 -196 -207 -271
-264 -474 -358 -1187 -307 -1603 114 -441 448 -679 1181 -703 2170 -27 1088
222 1979 686 2459 248 256 477 366 850 410 64 7 224 -4 315 -23z"/>
</g>
</svg>
