<?xml version="1.0" standalone="no"?>
<!DOCTYPE svg PUBLIC "-//W3C//DTD SVG 20010904//EN"
 "http://www.w3.org/TR/2001/REC-SVG-20010904/DTD/svg10.dtd">
<svg version="1.0" xmlns="http://www.w3.org/2000/svg"
 width="1280.000000pt" height="712.000000pt" viewBox="0 0 1280.000000 712.000000"
 preserveAspectRatio="xMidYMid meet">
<metadata>
Created by potrace 1.15, written by Peter Selinger 2001-2017
</metadata>
<g transform="translate(0.000000,712.000000) scale(0.100000,-0.100000)"
fill="#795548" stroke="none">
<path d="M6451 7105 c-118 -33 -223 -115 -271 -211 -19 -38 -26 -71 -30 -149
-9 -151 -44 -203 -160 -236 -62 -18 -256 -15 -420 5 -123 16 -312 17 -2179 16
-1759 -1 -2052 -3 -2100 -16 -86 -22 -134 -5 -167 59 -8 15 -19 80 -25 145
-12 142 -25 196 -54 224 -22 21 -30 21 -361 24 -355 3 -471 -5 -541 -36 -45
-20 -83 -69 -83 -107 0 -35 29 -110 62 -165 31 -50 31 -50 75 -45 24 2 47 7
50 10 3 3 -15 33 -40 66 -55 73 -67 116 -40 136 33 26 106 45 168 45 84 0 150
-25 200 -75 l42 -41 9 40 c5 22 15 41 22 44 13 4 71 -109 73 -143 1 -11 5 6
10 39 12 83 17 87 103 80 58 -5 79 -2 115 14 55 25 77 16 87 -34 13 -69 -31
-239 -61 -239 -5 0 -11 12 -13 28 -4 32 -13 34 -30 6 -7 -11 -38 -32 -67 -45
-67 -31 -188 -35 -254 -8 -49 20 -91 66 -92 102 0 24 -2 22 -15 -13 -24 -66
-35 -72 -94 -51 -87 31 -161 5 -181 -65 -10 -32 -9 -46 6 -85 24 -63 16 -111
-46 -263 -112 -274 -138 -381 -120 -491 5 -33 14 -68 20 -78 7 -14 7 -580 -2
-1843 -13 -2056 -13 -1934 -7 -2324 3 -247 1 -328 -19 -545 -37 -402 -22 -580
62 -747 20 -38 43 -76 53 -84 14 -12 75 -14 353 -14 299 0 342 -2 394 -18 68
-22 114 -17 144 16 12 12 35 57 53 100 48 117 74 126 206 81 75 -26 81 -27
213 -19 165 10 207 10 338 0 89 -7 114 -5 200 15 142 34 221 32 310 -9 70 -33
71 -33 104 -15 94 48 210 55 393 24 127 -21 102 -23 446 26 25 4 216 8 425 9
229 2 401 7 434 14 88 18 294 13 430 -10 118 -20 124 -20 189 -3 83 21 240 23
375 5 84 -12 107 -12 155 0 86 21 306 18 418 -5 l91 -19 37 23 c40 24 30 24
253 3 49 -4 69 -2 88 11 22 15 33 15 86 5 42 -8 94 -9 167 -4 153 12 888 8
912 -5 27 -14 71 -12 120 5 62 22 92 19 138 -14 39 -29 40 -29 58 -10 30 34
89 43 186 29 108 -16 183 -10 210 17 20 20 20 20 74 -9 53 -29 58 -30 152 -24
268 17 597 17 748 1 143 -16 153 -16 185 0 28 15 47 17 129 10 52 -5 125 -9
161 -9 l67 -1 -19 -27 c-26 -36 -24 -58 4 -58 13 0 74 21 137 46 176 72 251
84 281 48 9 -11 16 -8 39 16 38 41 77 39 199 -10 114 -46 174 -52 214 -20 24
19 30 20 69 8 29 -8 96 -11 208 -8 213 4 371 5 440 2 30 -1 106 0 168 4 227
12 382 -46 398 -148 l7 -38 52 0 c29 0 154 -9 276 -21 233 -21 334 -19 437 7
148 39 261 148 277 269 5 33 7 350 6 705 -1 355 3 944 9 1310 15 883 21 2999
10 3270 -5 118 -15 277 -21 353 l-12 139 -34 25 c-40 31 -73 82 -73 114 0 15
23 45 70 91 38 37 72 79 76 92 6 26 -7 58 -38 92 -19 21 -19 22 1 82 12 34 21
81 21 104 0 97 -88 207 -196 247 -106 40 -247 49 -342 22 -16 -5 -61 -2 -107
6 -198 35 -331 -22 -375 -161 -12 -39 -9 -197 6 -259 l6 -28 -1493 2 c-1319 1
-1507 0 -1607 -14 -95 -14 -127 -14 -195 -4 -125 18 -1212 11 -1268 -8 -71
-25 -159 -29 -198 -8 -50 26 -69 72 -95 231 -27 163 -47 210 -119 282 -94 95
-221 130 -346 95z m175 -135 c23 -10 52 -28 65 -41 21 -21 22 -22 36 -3 25 34
37 -5 53 -174 5 -59 8 -67 9 -32 1 25 5 63 9 85 l8 40 32 -44 c38 -53 49 -100
33 -152 -34 -113 -181 -185 -328 -159 -36 6 -79 18 -94 25 -25 14 -28 20 -35
102 -7 84 -8 86 -16 44 -26 -146 -56 -184 -104 -136 -21 21 -24 33 -24 102 0
43 5 96 12 118 l12 40 11 -70 11 -70 6 118 c7 132 21 168 77 201 66 38 148 40
227 6z m-6021 -70 c-3 -5 -11 -10 -16 -10 -6 0 -7 5 -4 10 3 6 11 10 16 10 6
0 7 -4 4 -10z m11513 -1 c26 -6 94 -24 151 -40 116 -32 161 -36 161 -15 0 19
91 56 138 56 69 0 94 -53 68 -144 -33 -114 -111 -161 -147 -88 l-17 32 -11
-45 c-11 -44 -31 -61 -31 -27 -1 10 -8 4 -18 -17 -23 -47 -64 -75 -109 -75
-29 0 -42 7 -68 36 l-31 37 -12 -32 c-10 -27 -14 -30 -26 -17 -8 8 -19 38 -24
65 -6 28 -10 39 -11 24 -1 -35 -21 -89 -32 -89 -13 0 -29 45 -30 83 0 28 -2
27 -13 -16 -15 -56 -20 -62 -42 -53 -15 6 -16 18 -12 89 6 87 0 84 -28 -17
-19 -70 -51 -106 -93 -106 -45 0 -53 24 -34 106 9 38 17 98 18 134 1 75 5 84
49 111 36 22 129 26 204 8z m-11080 -81 c-4 -27 -28 -36 -28 -10 0 20 8 32 22
32 5 0 8 -10 6 -22z m5215 -43 c-7 -21 -13 -19 -13 6 0 11 4 18 10 14 5 -3 7
-12 3 -20z m-4723 -290 c0 -8 -7 -15 -15 -15 -8 0 -15 7 -15 15 0 8 7 15 15
15 8 0 15 -7 15 -15z m-863 -4 c23 -5 66 -4 97 1 70 12 155 -4 184 -35 24 -26
18 -41 -21 -56 -30 -12 -395 -16 -467 -6 -154 22 -205 48 -142 74 66 27 261
39 349 22z m1310 -1 c185 -24 229 -37 186 -55 -29 -12 -361 -26 -443 -20 -111
9 -163 29 -130 50 23 14 150 33 227 34 45 1 117 -4 160 -9z m713 -15 c46 -9
100 -23 118 -31 68 -28 26 -34 -216 -31 -189 3 -245 7 -274 20 -44 19 -46 22
-17 38 60 32 234 33 389 4z m774 14 c144 -18 202 -47 164 -85 -15 -15 -21 -15
-83 1 -57 14 -99 16 -284 10 -204 -6 -217 -5 -240 13 l-24 19 25 17 c50 33
273 46 442 25z m5879 -4 c34 -8 88 -19 120 -25 31 -6 57 -15 57 -20 0 -11 -62
-18 -317 -34 -207 -13 -293 -10 -315 12 -13 13 10 26 90 46 131 34 275 43 365
21z m3187 -4 c243 -27 233 -55 -30 -86 -204 -24 -585 -15 -643 17 -19 10 -19
11 -3 20 37 21 190 50 316 62 68 6 242 -1 360 -13z m-8081 -13 c31 -11 15 -30
-41 -48 -98 -32 -597 -12 -585 23 4 14 51 26 146 37 89 10 445 1 480 -12z
m594 -3 c94 -12 117 -19 105 -30 -5 -5 -139 -24 -302 -42 -88 -10 -96 -27 -19
-43 149 -31 814 -28 911 4 198 66 351 11 412 -149 25 -65 24 -29 19 -560 -1
-121 3 -422 9 -670 6 -247 13 -522 14 -610 l3 -160 -942 -3 c-891 -2 -942 -3
-937 -20 4 -12 3 -13 -3 -4 -5 7 -17 10 -26 6 -10 -3 -24 -1 -32 6 -11 9 -321
14 -1342 19 -1169 5 -1339 4 -1423 -9 -199 -33 -342 17 -397 136 -23 50 -24
63 -20 157 3 56 10 152 16 212 13 135 5 1254 -9 1291 -18 48 -23 161 -10 210
36 126 197 183 435 153 75 -9 485 -14 1613 -18 1510 -6 1513 -6 1506 14 -41
125 73 155 419 110z m5270 9 c119 -18 -71 -74 -257 -76 -326 -4 -356 -2 -356
26 0 19 62 41 170 60 31 5 392 -3 443 -10z m-8880 -14 c21 -6 37 -16 34 -23
-2 -6 -28 -17 -58 -25 -47 -12 -60 -12 -105 2 -59 18 -86 20 -100 6 -7 -7 -28
-5 -65 6 -140 42 -112 57 96 50 88 -2 177 -9 198 -16z m4353 0 c137 -22 166
-31 143 -46 -15 -10 -538 -9 -576 1 -81 20 68 61 235 64 40 0 129 -8 198 -19z
m1014 5 c231 0 270 -4 270 -25 0 -26 -230 -61 -395 -62 -574 0 -625 3 -625 41
0 22 19 39 57 52 16 5 115 6 238 2 116 -4 320 -8 455 -8z m1954 -1 c48 -16 41
-31 -21 -46 -42 -9 -120 -12 -278 -10 -424 7 -622 6 -860 -2 -373 -13 -366
-13 -379 6 -22 35 6 42 217 54 245 14 1279 12 1321 -2z m2379 10 c21 -4 36
-12 34 -18 -7 -24 -114 -48 -252 -56 -131 -8 -142 -8 -167 11 -32 23 -61 24
-91 4 -18 -11 -31 -12 -60 -4 -73 20 -50 43 58 58 71 10 424 13 478 5z m557
-4 c89 -17 83 -27 -22 -41 -40 -5 -89 -14 -109 -20 -29 -9 -50 -8 -102 5 -59
15 -70 15 -102 2 -31 -13 -37 -14 -42 -1 -9 25 4 44 39 54 45 13 273 13 338 1z
m-8660 -80 c0 -5 -4 -10 -10 -10 -5 0 -10 5 -10 10 0 6 5 10 10 10 6 0 10 -4
10 -10z m8357 -57 l323 -6 19 -52 c38 -102 46 -229 30 -496 -14 -238 -17 -718
-8 -1129 4 -220 -3 -278 -46 -376 l-23 -52 -183 -6 c-211 -6 -2861 -21 -3931
-21 -709 0 -717 0 -745 21 -76 55 -82 158 -26 424 29 139 37 201 38 300 2 69
8 177 14 240 6 63 15 212 21 330 18 388 46 641 84 772 l12 43 1184 5 c2155 9
2911 10 3237 3z m-5207 -39 c0 -8 -4 -12 -10 -9 -5 3 -10 13 -10 21 0 8 5 12
10 9 6 -3 10 -13 10 -21z m-5385 -15 c22 -6 57 -24 78 -41 21 -16 39 -28 40
-27 18 35 28 44 50 47 20 3 29 -3 41 -27 19 -35 21 -134 5 -180 -10 -28 -15
-32 -40 -29 -24 4 -30 0 -39 -25 -5 -17 -22 -46 -37 -65 l-26 -35 -6 -551 c-5
-429 -4 -559 6 -588 22 -66 33 -161 33 -303 0 -138 -11 -215 -31 -215 -13 0
-35 52 -45 105 l-7 40 -16 -60 c-27 -99 -64 -82 -97 45 -14 55 -15 97 -10 275
5 138 3 215 -3 225 -12 17 -15 -60 -16 -400 0 -216 -9 -269 -36 -219 -7 13
-20 58 -29 99 l-17 75 -11 -53 c-17 -78 -39 -114 -65 -110 -17 2 -24 13 -31
43 -15 69 -19 72 -28 17 -18 -117 -44 -115 -77 7 -11 41 -23 76 -26 79 -3 3
-5 -24 -5 -59 0 -54 -4 -71 -25 -99 -55 -75 -66 -141 -70 -425 -4 -275 -1
-306 46 -435 24 -64 59 -130 70 -130 4 0 10 9 14 19 9 30 34 46 47 33 15 -15
21 -1004 7 -1303 -9 -212 1 -469 20 -521 9 -24 21 796 21 1408 l0 403 22 15
c12 9 26 16 30 16 15 0 33 -47 38 -105 5 -52 7 -56 13 -30 33 134 63 185 108
185 12 0 39 -17 60 -39 l39 -39 0 -603 c1 -480 3 -600 13 -584 9 15 12 155 13
565 0 527 1 547 21 608 36 108 69 127 122 67 75 -86 82 -287 10 -310 -11 -4
-24 -4 -27 0 -4 4 -9 49 -10 101 -5 132 -22 107 -22 -33 0 -108 -2 -119 -30
-177 l-30 -61 -6 -500 c-2 -275 -8 -531 -13 -570 l-8 -70 -2 100 c-2 157 -19
99 -22 -80 -6 -246 0 -759 8 -751 4 4 10 39 14 77 11 128 43 108 83 -51 l22
-93 14 32 c13 32 56 59 71 44 4 -4 1 -33 -7 -63 -18 -68 -17 -147 1 -325 33
-320 6 -433 -114 -465 -25 -6 -142 -11 -294 -12 -207 -1 -266 2 -332 16 -44
10 -81 19 -83 21 -2 1 2 99 9 217 8 162 8 337 -1 714 -9 408 -26 1978 -24
2329 0 50 5 520 11 1046 7 527 9 1044 6 1150 -6 201 2 290 34 388 l16 52 13
-28 12 -28 1 38 c2 78 51 137 115 137 57 0 67 -20 91 -180 l13 -85 1 91 c1 77
5 96 24 124 27 40 38 41 55 6 10 -21 13 -102 13 -354 -1 -371 12 -490 22 -212
4 96 7 265 7 374 0 181 2 204 21 242 14 30 32 48 62 63 48 24 57 25 112 10z
m11702 -31 c34 -50 33 52 14 -1183 -17 -1222 -27 -2400 -21 -2620 5 -179 5
-179 13 140 4 176 12 858 17 1515 10 1217 23 1901 38 1941 7 18 10 20 18 8 16
-26 16 -2068 -1 -3424 -9 -726 -15 -1464 -15 -1640 1 -176 1 -327 0 -335 -1
-8 -1 -99 -1 -202 2 -273 -4 -282 -200 -293 -63 -4 -136 -13 -163 -21 -72 -20
-192 -18 -241 5 -52 24 -109 84 -134 141 -69 157 -44 416 59 607 l39 72 11
728 c20 1336 26 1643 33 1649 3 3 14 -20 23 -52 23 -77 23 -23 -11 -1832 -3
-196 -2 -321 4 -318 14 9 32 189 32 321 -2 923 13 1757 32 1840 l13 60 8 -108
c4 -60 5 -411 2 -780 -2 -380 -1 -631 4 -577 4 52 11 307 14 565 9 671 16 895
29 895 5 0 25 -11 43 -25 32 -25 73 -110 75 -158 1 -15 5 -9 14 19 23 72 54
123 92 149 21 14 41 25 44 25 4 0 12 -37 19 -82 10 -61 11 -129 4 -272 -5
-105 -9 -317 -10 -471 0 -154 -4 -415 -8 -580 -5 -186 -4 -331 2 -380 5 -48 6
-125 1 -190 -13 -182 -23 -823 -13 -930 l9 -100 6 95 c4 52 12 471 18 930 6
459 15 1148 21 1530 35 2269 44 3306 29 3265 -9 -27 -16 -359 -33 -1583 -3
-237 -8 -337 -16 -348 -20 -23 -89 -36 -155 -30 -33 4 -93 7 -134 7 l-73 1 5
891 c6 892 8 949 41 976 12 10 14 -79 10 -606 -3 -340 -9 -732 -15 -870 -9
-240 -7 -303 11 -303 17 0 21 158 25 881 2 643 5 768 19 846 9 51 20 103 25
115 16 43 20 -177 11 -597 -5 -231 -6 -449 -2 -485 l7 -65 6 65 c4 36 7 238 8
450 2 373 12 626 26 663 26 64 50 -59 49 -258 0 -88 -4 -316 -9 -507 -7 -321
-5 -391 12 -374 4 3 10 228 14 499 7 467 14 576 40 640 19 45 25 31 24 -53 0
-44 3 -80 7 -80 5 0 8 11 8 24 0 37 29 155 46 188 21 40 49 36 81 -14z m-5943
-109 c18 -45 21 -232 5 -334 -5 -33 -13 -256 -18 -495 -9 -457 -28 -938 -39
-1028 -4 -29 -11 -53 -17 -54 -5 -1 -23 22 -38 50 -16 29 -32 52 -37 52 -5 0
-12 -27 -16 -59 -7 -67 -21 -71 -47 -15 -23 46 -22 138 3 298 20 132 27 282 9
221 -4 -16 -11 -47 -14 -69 -11 -67 -25 -26 -36 105 -8 89 -7 165 1 269 9 108
9 184 0 300 -6 85 -14 239 -17 342 -7 213 4 310 45 398 25 52 26 54 29 25 14
-131 22 -141 42 -51 16 73 34 88 56 46 14 -27 15 -47 7 -133 -9 -100 -8 -116
4 -104 9 8 34 185 34 239 0 58 20 57 44 -3z m86 19 c18 -48 24 -239 12 -332
-6 -45 -16 -310 -22 -591 -6 -280 -12 -548 -15 -595 l-4 -85 14 60 c8 33 14
89 15 125 22 1026 36 1321 67 1424 5 17 6 18 15 3 16 -30 21 -338 9 -727 -6
-212 -16 -574 -21 -805 -6 -231 -14 -427 -16 -435 -9 -26 -31 15 -69 131 -20
60 -37 109 -38 109 -1 0 -2 -53 -2 -117 0 -102 -2 -118 -17 -121 -35 -7 -36
131 -3 1088 28 814 31 875 38 888 13 20 24 14 37 -20z m177 -45 c4 -27 8 -122
8 -213 0 -133 -4 -176 -19 -220 -15 -46 -19 -107 -26 -365 -4 -170 -9 -311 -9
-313 -1 -2 -5 0 -11 3 -21 13 -3 972 20 1093 7 34 16 62 20 62 5 0 12 -21 17
-47z m5173 37 c0 -5 -2 -10 -4 -10 -3 0 -8 5 -11 10 -3 6 -1 10 4 10 6 0 11
-4 11 -10z m38 -802 c-4 -381 -11 -783 -16 -893 l-7 -200 -18 57 c-9 31 -18
67 -18 80 -2 40 -18 -53 -18 -109 -1 -46 -4 -53 -21 -53 -10 0 -24 9 -30 19
-25 48 -1 217 44 313 34 73 37 122 40 818 2 540 4 598 19 628 10 17 21 32 25
32 4 0 4 -312 0 -692z m681 477 c20 -221 24 -547 12 -750 -17 -272 -25 -2996
-10 -3160 27 -273 20 -1284 -10 -1570 -5 -53 -9 -60 -30 -63 -13 -2 -27 0 -31
5 -5 4 -9 87 -10 183 -4 425 9 4895 14 4980 3 52 11 174 16 270 18 307 30 332
49 105z m-11709 10 c10 -13 13 -142 11 -617 -2 -539 -3 -604 -18 -620 -22 -24
-40 -23 -55 5 -15 26 -21 1090 -7 1171 13 72 40 96 69 61z m5250 -435 c0 -5
-2 -10 -4 -10 -3 0 -8 5 -11 10 -3 6 -1 10 4 10 6 0 11 -4 11 -10z m0 -167 c0
-24 -25 -9 -28 17 -3 21 -2 22 12 11 9 -7 16 -20 16 -28z m-5243 -902 c-3 -57
-9 -106 -12 -109 -11 -11 -60 36 -73 70 -17 44 -2 109 34 145 21 21 27 23 41
12 13 -12 15 -30 10 -118z m10864 67 c2 -86 -1 -108 -16 -143 -13 -29 -13 -27
-14 41 -1 86 9 164 20 164 5 0 9 -28 10 -62z m-5131 -94 c0 -8 -4 -14 -10 -14
-5 0 -10 9 -10 21 0 11 5 17 10 14 6 -3 10 -13 10 -21z m-4805 -114 c3 -5 -1
-10 -9 -10 -9 0 -16 5 -16 10 0 6 4 10 9 10 6 0 13 -4 16 -10z m-40 -38 c-8
-8 -25 10 -25 26 0 13 2 13 14 -4 8 -10 13 -21 11 -22z m205 34 c0 -11 -19
-15 -25 -6 -3 5 1 10 9 10 9 0 16 -2 16 -4z m10112 -47 c32 -17 31 -56 0 -187
-17 -70 -34 -146 -37 -170 -9 -59 -45 -98 -108 -117 -67 -20 -149 -19 -347 5
-187 22 -292 25 -339 9 -75 -26 -14 -34 327 -40 347 -7 419 -15 475 -54 19
-13 -51 -15 -637 -15 -513 0 -657 -3 -654 -12 9 -25 92 -30 433 -23 341 6 527
-3 549 -25 11 -11 -3031 -18 -3056 -7 -13 5 -18 3 -18 -8 0 -9 -9 -15 -24 -15
-14 0 -80 -5 -148 -10 -68 -6 -413 -12 -768 -14 -538 -2 -663 -6 -755 -19
-133 -20 -128 -20 -122 -3 4 10 -7 15 -40 20 -25 3 -348 6 -717 7 -369 1 -711
4 -761 8 -84 6 -88 8 -61 19 62 27 189 35 441 28 659 -16 1032 -18 1259 -6
191 10 245 9 292 -1 102 -23 366 -18 569 11 50 7 325 13 725 17 921 7 896 7
1335 -1 341 -7 423 -6 555 8 85 9 156 18 158 20 13 14 -1391 16 -4838 9 -2186
-4 -4123 -4 -4305 1 -425 10 -679 11 -698 0 -10 -6 10 -10 58 -11 40 -2 129
-9 197 -18 191 -23 533 -33 993 -29 267 2 407 0 385 -6 -69 -17 -278 -30 -515
-30 -132 0 -314 -5 -405 -12 -204 -14 -171 -15 -385 17 -149 22 -222 27 -428
30 -137 2 -251 6 -254 9 -12 11 4 17 68 25 55 7 60 9 34 15 -86 20 -106 29
-124 53 -29 36 -27 107 4 184 l24 60 -34 48 c-45 62 -68 118 -61 146 12 47 83
54 306 30 175 -19 291 -19 365 1 45 11 85 14 160 9 57 -3 208 1 350 10 447 28
633 30 775 10 156 -23 389 -24 518 -2 80 13 104 14 185 2 162 -23 247 -26 375
-12 89 11 147 12 210 5 48 -5 148 -8 222 -7 94 1 164 -3 230 -16 84 -15 125
-16 355 -9 312 11 247 11 2940 10 1183 0 2260 0 2395 0 198 0 260 4 323 18 76
17 81 17 145 -1 54 -14 103 -18 247 -18 217 0 526 15 520 25 -3 4 5 10 18 14
30 8 475 5 562 -4 l70 -7 -55 -3 c-170 -8 -130 -29 70 -37 126 -5 367 3 358
12 -2 2 -58 9 -126 16 -67 7 -122 16 -122 19 0 4 42 10 93 14 50 3 115 10 142
15 52 9 98 5 127 -10z m-1822 1 c0 -5 9 -10 19 -10 11 0 23 -4 26 -10 8 -13
-8 -13 -40 2 -25 11 -34 28 -15 28 6 0 10 -4 10 -10z m-7577 -27 c-7 -2 -21
-2 -30 0 -10 3 -4 5 12 5 17 0 24 -2 18 -5z m7744 1 c-3 -3 -12 -4 -19 -1 -8
3 -5 6 6 6 11 1 17 -2 13 -5z m126 -1 c-13 -2 -33 -2 -45 0 -13 2 -3 4 22 4
25 0 35 -2 23 -4z m-10284 -113 c12 -54 15 -297 5 -324 -9 -23 -20 -20 -29 7
l-7 22 -8 -25 c-14 -45 -10 -109 10 -162 11 -29 20 -63 20 -74 0 -31 -39 -39
-65 -13 -17 16 -20 33 -20 97 1 127 17 352 27 358 5 3 15 1 23 -6 20 -17 23
-1 13 74 -5 38 -7 75 -4 82 11 28 25 13 35 -36z m11942 -27 c14 -46 24 -275
15 -338 -14 -92 -71 -38 -96 93 -10 49 -10 78 0 140 22 137 57 182 81 105z
m-11854 -125 c-3 -7 -5 -2 -5 12 0 14 2 19 5 13 2 -7 2 -19 0 -25z m-340 -234
c-3 -3 -12 -4 -19 -1 -8 3 -5 6 6 6 11 1 17 -2 13 -5z m3469 -95 c35 -6 68
-17 74 -25 20 -24 -35 -28 -200 -15 -85 7 -213 15 -283 18 -70 3 -125 8 -122
12 20 19 432 27 531 10z m8572 -1 c-3 -7 -18 -14 -34 -16 -28 -2 -28 -2 -10
13 24 18 49 20 44 3z m-9260 -10 c-3 -7 -18 -14 -34 -16 -28 -2 -28 -2 -10 13
24 18 49 20 44 3z m-200 -25 c2 -14 -3 -23 -15 -25 -28 -6 -63 3 -63 16 0 39
73 48 78 9z m87 17 c-3 -5 -13 -10 -21 -10 -8 0 -12 5 -9 10 3 6 13 10 21 10
8 0 12 -4 9 -10z m2061 -12 c4 -5 4 -11 0 -15 -9 -10 -696 -8 -853 2 -62 4
-113 11 -113 17 0 11 954 7 966 -4z m382 5 c-10 -2 -26 -2 -35 0 -10 3 -2 5
17 5 19 0 27 -2 18 -5z m7082 -43 c0 -5 -5 -10 -11 -10 -5 0 -7 5 -4 10 3 6 8
10 11 10 2 0 4 -4 4 -10z m-6160 -86 c2852 -4 4354 -2 4600 5 395 12 658 4
841 -25 58 -9 110 -19 115 -23 11 -7 1 -1627 -10 -1657 -4 -12 -1 -94 8 -182
20 -201 20 -275 0 -342 -18 -61 -57 -104 -112 -121 -28 -9 -1101 -14 -4232
-20 -2307 -5 -4274 -11 -4370 -14 -96 -3 -187 -10 -202 -16 -21 -8 -48 -8
-105 0 -157 22 -388 29 -803 25 -335 -4 -439 -8 -493 -21 -83 -19 -188 -14
-241 12 -45 22 -92 82 -107 138 -6 22 -8 77 -5 126 3 47 10 502 15 1011 5 509
13 962 17 1008 6 75 9 83 30 88 70 18 202 22 494 18 179 -3 2231 -7 4560 -10z
m5679 -57 c14 -38 8 -132 -9 -122 -12 7 -42 144 -34 156 11 18 28 3 43 -34z
m70 -179 c1 -62 -13 -118 -29 -118 -21 0 -14 281 8 314 8 12 19 -92 21 -196z
m-85 -24 c9 -25 7 -64 -4 -64 -5 0 -10 4 -10 9 0 5 -3 23 -6 40 -7 32 9 44 20
15z m911 -54 c3 -5 1 -10 -4 -10 -6 0 -11 5 -11 10 0 6 2 10 4 10 3 0 8 -4 11
-10z m-11761 -763 c6 -451 -4 -1110 -17 -1124 -13 -12 -55 42 -68 90 -7 23
-12 87 -11 142 0 55 3 359 6 675 5 596 10 664 49 755 l22 50 6 -83 c4 -46 9
-273 13 -505z m10796 -1261 c0 -11 -19 -15 -25 -6 -3 5 1 10 9 10 9 0 16 -2
16 -4z m-6060 -76 c0 -5 -5 -10 -11 -10 -5 0 -7 5 -4 10 3 6 8 10 11 10 2 0 4
-4 4 -10z m2910 -10 c0 -5 -2 -10 -4 -10 -3 0 -8 5 -11 10 -3 6 -1 10 4 10 6
0 11 -4 11 -10z m-6369 -23 c-13 -13 -26 -3 -16 12 3 6 11 8 17 5 6 -4 6 -10
-1 -17z m4709 -47 c162 -5 1233 -9 2380 -8 1596 0 2107 -2 2180 -12 96 -12
108 -15 97 -26 -3 -3 -515 -4 -1139 -3 -1537 4 -1522 4 -1620 -16 -45 -9 -89
-20 -96 -24 -26 -14 928 -22 1883 -15 974 6 1025 5 996 -30 -20 -24 -95 -36
-219 -36 -65 0 -155 -3 -198 -7 l-79 -7 50 -7 c28 -4 95 -8 150 -8 122 -2 286
-18 298 -30 17 -17 -34 -33 -136 -42 -103 -10 -139 -19 -75 -19 48 0 194 -28
235 -45 30 -13 33 -18 33 -54 0 -64 -28 -121 -66 -137 -44 -18 -125 -18 -216
2 -40 8 -104 16 -142 17 -65 2 -69 1 -95 -29 l-26 -32 -50 29 c-58 33 -77 35
-152 13 l-55 -16 -71 37 c-63 33 -83 38 -158 43 -116 6 -358 -16 -337 -32 8
-6 18 -21 22 -34 7 -20 4 -22 -29 -22 -39 0 -55 20 -36 44 10 12 -8 15 -111
18 -98 3 -128 7 -150 22 -35 23 -176 27 -264 7 l-61 -13 36 -34 c30 -28 34
-35 21 -44 -43 -28 -100 4 -85 49 6 19 4 18 -57 -1 -75 -23 -130 -19 -164 13
-23 22 -35 23 -177 27 -84 2 -163 3 -176 1 -23 -4 -21 -7 22 -33 52 -33 54
-37 31 -60 -17 -17 -25 -19 -48 -10 -21 8 -59 71 -51 84 4 6 -16 10 -54 10
-64 0 -93 -17 -39 -22 27 -2 34 -8 36 -29 4 -36 -18 -52 -54 -39 -57 22 -83
63 -46 74 9 3 -5 3 -32 1 -27 -3 -65 -5 -84 -5 -34 0 -34 -1 -18 -19 16 -17
16 -19 -1 -23 -23 -6 -66 9 -59 20 3 5 -113 14 -257 20 -144 7 -320 15 -391
18 l-129 7 23 -31 c27 -36 21 -65 -12 -60 -20 3 -23 9 -23 46 l0 42 -177 0
c-170 0 -269 -11 -296 -33 -8 -6 -47 -8 -101 -4 -79 5 -88 4 -87 -11 1 -11 -8
-18 -21 -20 -16 -2 -23 2 -23 12 0 9 6 17 13 17 6 1 -24 5 -68 9 -44 5 -82 6
-84 4 -3 -2 4 -11 15 -18 17 -13 18 -15 2 -21 -27 -11 -52 -2 -63 22 -8 18
-19 22 -77 25 -37 2 -68 1 -68 -1 0 -3 7 -12 16 -22 20 -22 12 -36 -27 -44
-37 -8 -59 8 -59 45 l0 27 -97 6 c-54 4 -147 7 -206 7 -99 0 -111 -2 -140 -24
-51 -38 -70 -40 -128 -11 -75 38 -145 43 -211 15 -60 -26 -109 -24 -293 9
-110 20 -267 26 -355 13 l-45 -7 35 -28 35 -29 -30 6 c-16 3 -59 14 -95 24
l-65 19 0 -30 c0 -28 -4 -32 -38 -40 -45 -11 -87 -2 -87 19 0 8 17 25 38 37
l37 22 -44 3 c-57 4 -71 -2 -71 -33 0 -45 -20 -45 -143 2 l-49 18 -18 -23
c-16 -19 -23 -21 -39 -13 -28 16 -98 13 -156 -5 -45 -13 -59 -13 -135 1 -47 8
-124 19 -173 23 l-87 8 6 -33 6 -33 -45 0 c-25 0 -52 3 -61 6 -18 7 -21 45 -5
61 12 12 -58 21 -251 30 -142 6 -338 -4 -323 -17 4 -4 94 -13 198 -19 211 -13
265 -20 265 -32 0 -10 -21 -16 -109 -33 -62 -12 -78 -12 -119 1 -37 12 -73 13
-177 7 -71 -4 -177 -8 -235 -8 -92 -1 -111 2 -155 24 l-50 24 40 8 c22 4 72 7
110 8 85 0 117 15 54 24 -110 16 -413 23 -869 21 -629 -4 -616 -3 -605 -14 6
-4 54 -18 108 -30 53 -13 97 -26 97 -31 0 -5 -28 -18 -63 -29 -34 -12 -74 -29
-90 -39 -26 -18 -31 -18 -140 0 -164 28 -334 27 -416 -1 -68 -24 -99 -23 -194
5 -74 21 -113 50 -138 100 -21 44 -22 53 -15 217 4 95 8 173 10 174 1 1 1678
4 3726 7 2070 2 3749 8 3780 13 l55 8 -55 8 c-30 4 -1335 10 -2900 12 -3203 6
-4452 12 -4492 21 -29 7 -54 29 -41 37 4 3 1138 1 2518 -5 2930 -11 2645 -11
2770 7 55 7 127 12 160 9 33 -2 193 -9 355 -14z m-3871 -501 c45 -16 57 -43
30 -70 -19 -19 -27 -20 -98 -14 -42 4 -175 8 -296 9 -191 1 -228 -2 -278 -18
-64 -21 -101 -16 -166 25 -29 18 -32 22 -20 35 25 25 119 36 379 44 281 9 400
6 449 -11z m2509 -12 c3 -28 3 -28 -45 -25 -54 3 -65 24 -23 45 39 20 64 13
68 -20z m892 6 l32 -26 -24 -13 c-35 -20 -58 -17 -67 9 -9 23 2 57 19 57 4 0
23 -12 40 -27z m2878 -1 c6 -9 12 -25 12 -35 0 -17 -5 -19 -41 -13 -79 13
-105 45 -51 64 32 12 62 6 80 -16z m-3600 6 c7 -7 12 -20 12 -30 0 -15 -8 -18
-44 -18 -54 0 -68 16 -36 42 26 21 51 23 68 6z m354 -5 c24 -21 23 -40 -2 -48
-27 -9 -50 11 -50 41 0 29 25 32 52 7z m593 -10 l27 -28 -37 -3 c-55 -5 -85 5
-85 27 0 39 57 41 95 4z m905 0 c20 -26 20 -28 4 -40 -33 -24 -64 -8 -64 32 0
43 29 47 60 8z m149 8 c26 -20 21 -41 -8 -41 -24 0 -45 25 -37 45 7 19 16 19
45 -4z m421 0 c17 -34 12 -51 -16 -51 -54 0 -84 37 -46 59 27 16 50 13 62 -8z
m1754 -2 c21 -17 24 -24 15 -35 -18 -22 -66 -18 -79 7 -26 47 16 65 64 28z
m576 1 c25 -25 25 -37 -1 -50 -25 -14 -49 2 -49 35 0 40 19 46 50 15z m200 2
c17 -14 21 -25 17 -44 -6 -23 -9 -24 -56 -18 -61 8 -87 26 -69 47 28 34 76 41
108 15z m-2333 -29 c2 -6 -6 -13 -19 -17 -41 -11 -58 -7 -58 14 0 27 30 42 54
26 11 -7 21 -17 23 -23z m4183 -33 c0 -5 -5 -10 -11 -10 -5 0 -7 5 -4 10 3 6
8 10 11 10 2 0 4 -4 4 -10z"/>
<path d="M6590 6930 c0 -5 5 -10 10 -10 6 0 10 5 10 10 0 6 -4 10 -10 10 -5 0
-10 -4 -10 -10z"/>
<path d="M6585 6774 c-5 -58 -4 -108 3 -127 8 -26 10 -6 11 96 1 70 -1 127 -3
127 -2 0 -7 -43 -11 -96z"/>
<path d="M6498 6854 c-5 -4 -7 -55 -7 -113 l2 -106 9 70 c10 77 7 161 -4 149z"/>
<path d="M6681 6713 c-1 -29 4 -53 9 -53 12 0 12 57 0 85 -6 15 -9 6 -9 -32z"/>
<path d="M12210 6790 c0 -5 5 -10 10 -10 6 0 10 5 10 10 0 6 -4 10 -10 10 -5
0 -10 -4 -10 -10z"/>
<path d="M12300 6780 c0 -5 5 -10 10 -10 6 0 10 5 10 10 0 6 -4 10 -10 10 -5
0 -10 -4 -10 -10z"/>
<path d="M12557 6783 c-2 -5 0 -21 4 -38 7 -29 7 -29 8 8 1 35 -3 46 -12 30z"/>
<path d="M11914 6724 c3 -26 6 -56 7 -68 0 -19 1 -19 10 4 12 30 2 110 -13
110 -7 0 -9 -16 -4 -46z"/>
<path d="M12204 6706 c-3 -8 -4 -27 -2 -43 3 -23 5 -20 9 15 5 43 2 53 -7 28z"/>
<path d="M804 6135 c0 -49 1 -71 3 -48 2 23 2 64 0 90 -2 26 -3 8 -3 -42z"/>
<path d="M914 6153 c3 -16 8 -47 11 -70 4 -24 11 -45 16 -49 14 -9 10 73 -5
111 -18 42 -30 46 -22 8z"/>
<path d="M688 6094 c-10 -10 -9 -203 1 -229 5 -12 10 11 13 65 6 89 -2 177
-14 164z"/>
<path d="M766 5945 c-8 -33 1 -65 19 -65 10 0 12 10 8 38 -7 49 -19 60 -27 27z"/>
<path d="M356 5914 c-11 -28 -7 -434 4 -434 6 0 10 82 10 225 0 124 -2 225 -4
225 -2 0 -7 -7 -10 -16z"/>
<path d="M257 5834 c-4 -4 -7 -52 -7 -107 0 -55 2 -98 5 -96 2 3 9 36 14 75
10 68 3 143 -12 128z"/>
<path d="M454 5787 c3 -10 7 -235 7 -500 2 -549 14 -542 23 14 6 358 0 470
-25 493 -9 8 -10 6 -5 -7z"/>
<path d="M797 5688 c-8 -92 3 -305 14 -286 11 16 11 268 0 323 -6 37 -7 35
-14 -37z"/>
<path d="M683 5420 c0 -194 3 -312 7 -280 10 69 10 452 0 545 -4 41 -7 -70 -7
-265z"/>
<path d="M251 5500 c0 -40 2 -42 11 -22 8 16 8 28 0 45 -9 19 -11 17 -11 -23z"/>
<path d="M250 5363 c1 -18 18 -35 24 -24 4 6 4 16 1 21 -7 12 -25 13 -25 3z"/>
<path d="M356 5348 c-5 -16 -5 -36 0 -45 7 -16 8 -15 11 5 3 12 3 32 0 45 -3
21 -4 20 -11 -5z"/>
<path d="M258 5281 c-12 -52 -10 -137 2 -125 6 6 10 43 8 85 -2 60 -4 68 -10
40z"/>
<path d="M566 5233 c8 -67 12 -79 26 -65 6 6 6 29 -2 66 -15 75 -34 74 -24 -1z"/>
<path d="M797 5028 c-4 -116 -7 -252 -6 -302 1 -85 1 -89 14 -61 11 23 14 93
15 303 0 149 -4 272 -8 272 -5 0 -12 -95 -15 -212z"/>
<path d="M357 5175 c-10 -60 -9 -375 3 -375 17 0 20 63 12 240 -5 123 -9 163
-15 135z"/>
<path d="M250 5096 c0 -14 5 -28 10 -31 6 -4 10 7 10 24 0 17 -4 31 -10 31 -5
0 -10 -11 -10 -24z"/>
<path d="M578 4987 c-5 -10 -7 -114 -7 -230 l2 -212 9 125 c9 142 7 344 -4
317z"/>
<path d="M250 4943 c0 -18 5 -33 10 -33 13 0 13 30 0 50 -7 11 -10 7 -10 -17z"/>
<path d="M259 4753 c-2 -38 -1 -106 2 -153 5 -72 6 -62 7 68 2 157 -3 202 -9
85z"/>
<path d="M456 4623 c-4 -34 -4 -102 0 -150 7 -79 8 -84 15 -48 10 49 9 189 0
230 -6 26 -8 22 -15 -32z"/>
<path d="M352 4585 c0 -79 1 -85 9 -45 5 26 5 65 0 90 -8 39 -9 34 -9 -45z"/>
<path d="M798 4548 c-2 -18 0 -46 3 -63 5 -22 7 -13 8 33 1 67 -4 83 -11 30z"/>
<path d="M251 4388 c0 -18 4 -42 9 -53 6 -15 9 -6 9 33 1 28 -3 52 -9 52 -5 0
-10 -15 -9 -32z"/>
<path d="M250 3271 c0 -12 5 -21 10 -21 6 0 10 6 10 14 0 8 -4 18 -10 21 -5 3
-10 -3 -10 -14z"/>
<path d="M686 3203 c-9 -117 -7 -311 4 -318 7 -4 10 63 10 194 0 111 -2 201
-4 201 -1 0 -6 -34 -10 -77z"/>
<path d="M366 3191 c-3 -5 -8 -42 -11 -82 -3 -56 -2 -64 4 -34 11 52 20 125
16 125 -2 0 -6 -4 -9 -9z"/>
<path d="M286 3084 c-3 -9 -5 -167 -5 -352 l2 -337 13 170 c15 199 18 521 5
529 -5 3 -12 -1 -15 -10z"/>
<path d="M568 2845 c-4 -204 5 -474 15 -458 13 21 14 575 0 598 -10 16 -12
-11 -15 -140z"/>
<path d="M331 2738 c0 -79 4 -163 8 -188 6 -31 9 14 10 143 1 119 -3 187 -9
187 -6 0 -10 -54 -9 -142z"/>
<path d="M681 2638 c0 -100 4 -155 9 -143 12 29 12 292 0 300 -7 4 -10 -51 -9
-157z"/>
<path d="M350 2391 c0 -12 5 -21 10 -21 6 0 10 6 10 14 0 8 -4 18 -10 21 -5 3
-10 -3 -10 -14z"/>
<path d="M350 2300 c0 -18 4 -29 10 -25 6 3 10 15 10 25 0 10 -4 22 -10 25 -6
4 -10 -7 -10 -25z"/>
<path d="M660 2229 c0 -23 23 -89 31 -89 18 0 21 50 5 75 -17 26 -36 33 -36
14z"/>
<path d="M566 2138 c-3 -29 -5 -89 -5 -133 1 -67 3 -74 10 -45 14 58 23 230
12 230 -6 0 -13 -24 -17 -52z"/>
<path d="M350 2115 c0 -36 3 -46 10 -35 5 8 10 24 10 35 0 11 -5 27 -10 35 -7
11 -10 1 -10 -35z"/>
<path d="M263 2075 c0 -27 2 -38 4 -22 2 15 2 37 0 50 -2 12 -4 0 -4 -28z"/>
<path d="M680 1995 c0 -37 4 -65 10 -65 6 0 10 28 10 65 0 37 -4 65 -10 65 -6
0 -10 -28 -10 -65z"/>
<path d="M351 1813 c1 -67 4 -88 9 -68 12 45 12 165 0 165 -6 0 -10 -38 -9
-97z"/>
<path d="M567 1755 c3 -55 10 -109 14 -120 4 -11 5 27 2 85 -3 58 -9 112 -14
120 -4 8 -5 -30 -2 -85z"/>
<path d="M681 1637 c-1 -103 2 -156 9 -152 12 7 12 247 0 285 -4 14 -8 -44 -9
-133z"/>
<path d="M348 1593 c-3 -21 -1 -51 3 -68 5 -22 7 -13 8 38 1 74 -4 88 -11 30z"/>
<path d="M574 1509 c-15 -24 -17 -183 -3 -244 l13 -60 7 45 c10 63 10 242 0
259 -7 11 -10 11 -17 0z"/>
<path d="M262 1280 c-3 -375 10 -954 21 -934 11 19 1 868 -12 1049 -7 86 -8
69 -9 -115z"/>
<path d="M346 1422 c-8 -13 4 -72 15 -72 5 0 9 12 9 28 0 32 -15 59 -24 44z"/>
<path d="M680 1301 c0 -17 4 -32 9 -36 12 -7 23 28 15 49 -10 26 -24 18 -24
-13z"/>
<path d="M350 1311 c0 -5 5 -13 10 -16 6 -3 10 -2 10 4 0 5 -4 13 -10 16 -5 3
-10 2 -10 -4z"/>
<path d="M336 1262 c-7 -19 8 -129 18 -139 2 -3 12 7 21 20 19 30 12 86 -15
119 l-17 22 -7 -22z"/>
<path d="M460 1138 c0 -57 5 -110 10 -118 7 -10 10 21 10 97 0 64 -4 114 -10
118 -6 4 -10 -31 -10 -97z"/>
<path d="M546 1175 c-12 -47 -8 -208 6 -241 12 -26 13 -18 16 81 1 61 -1 128
-6 150 l-8 40 -8 -30z"/>
<path d="M687 1129 c-8 -66 -7 -164 2 -204 5 -20 10 12 15 97 5 76 4 133 -2
143 -7 13 -10 4 -15 -36z"/>
<path d="M343 1023 c-11 -38 -10 -139 1 -188 l9 -40 8 35 c13 59 22 176 14
199 -9 29 -23 26 -32 -6z"/>
<path d="M801 770 c0 -30 4 -62 9 -70 12 -19 12 62 0 100 -6 19 -8 12 -9 -30z"/>
<path d="M926 779 c-9 -48 -7 -127 4 -134 6 -4 10 25 10 79 0 47 -2 86 -4 86
-2 0 -6 -14 -10 -31z"/>
<path d="M550 761 c0 -6 -7 -11 -15 -11 -23 0 -76 -29 -107 -58 -52 -48 -44
-110 23 -186 l33 -38 71 4 c99 7 129 25 155 95 37 99 11 161 -78 182 -26 7
-55 14 -64 17 -10 3 -18 1 -18 -5z m58 -51 c43 -26 57 -63 42 -112 -6 -21 -15
-38 -21 -38 -6 0 -35 24 -65 54 -51 51 -67 89 -47 109 13 13 58 7 91 -13z"/>
<path d="M806 529 c-10 -97 -7 -269 4 -269 6 0 10 62 10 165 0 91 -2 165 -4
165 -2 0 -6 -28 -10 -61z"/>
<path d="M350 495 c0 -8 5 -15 10 -15 6 0 10 7 10 15 0 8 -4 15 -10 15 -5 0
-10 -7 -10 -15z"/>
<path d="M926 474 c-10 -25 -7 -208 4 -224 7 -10 10 26 10 113 0 70 -2 127 -4
127 -2 0 -7 -7 -10 -16z"/>
<path d="M350 381 c0 -6 5 -13 10 -16 6 -3 10 1 10 9 0 9 -4 16 -10 16 -5 0
-10 -4 -10 -9z"/>
<path d="M698 343 c-2 -26 -1 -68 3 -93 5 -35 7 -24 8 48 1 98 -5 123 -11 45z"/>
<path d="M356 324 c-3 -9 -2 -23 4 -32 7 -14 9 -10 10 16 0 35 -5 41 -14 16z"/>
<path d="M580 271 c0 -23 5 -41 10 -41 6 0 10 15 10 34 0 19 -4 38 -10 41 -6
4 -10 -10 -10 -34z"/>
<path d="M12358 5820 c-13 -61 -22 -610 -10 -610 6 0 13 38 17 93 8 121 2 563
-7 517z"/>
<path d="M12340 5066 c-12 -31 -12 -82 -1 -111 6 -15 11 -2 21 48 9 50 10 71
2 79 -8 8 -14 4 -22 -16z"/>
<path d="M12256 4663 c-8 -50 -6 -241 3 -273 7 -23 8 -21 14 15 10 58 9 295
-2 295 -4 0 -11 -17 -15 -37z"/>
<path d="M12176 4647 c-5 -10 -9 -84 -10 -164 -1 -114 2 -147 12 -151 11 -3
13 9 11 54 -2 33 -1 64 2 69 3 6 3 55 -1 110 -4 67 -9 94 -14 82z"/>
<path d="M12336 4633 c-8 -8 -8 -97 1 -148 6 -36 7 -38 14 -15 10 36 11 158 0
164 -4 3 -11 3 -15 -1z"/>
<path d="M12147 2948 c-16 -701 -20 -1138 -10 -1138 13 0 21 241 28 900 4 283
2 501 -3 508 -5 8 -11 -100 -15 -270z"/>
<path d="M12309 3152 c-2 -45 -2 -108 1 -140 l5 -57 8 40 c9 50 7 182 -2 215
-5 17 -9 -1 -12 -58z"/>
<path d="M12234 3005 c0 -60 1 -84 3 -52 2 32 2 81 0 110 -2 29 -3 3 -3 -58z"/>
<path d="M12305 2768 c-3 -51 -10 -307 -14 -568 -7 -424 -4 -537 14 -518 7 6
18 1178 12 1178 -3 0 -8 -42 -12 -92z"/>
<path d="M12227 2810 c-17 -64 -37 -374 -32 -495 12 -291 29 -336 39 -100 3
77 8 192 11 255 6 126 -7 381 -18 340z"/>
<path d="M12477 1431 c-9 -789 -9 -1186 1 -1177 17 18 32 1700 15 1751 -7 21
-12 -154 -16 -574z"/>
<path d="M12202 1588 c2 -56 7 -92 13 -91 14 3 18 48 10 120 -10 97 -26 76
-23 -29z"/>
<path d="M12133 1568 c-7 -22 -8 -50 -4 -65 8 -26 9 -25 16 18 10 65 2 95 -12
47z"/>
<path d="M12266 1368 c-8 -76 -2 -148 12 -148 4 0 6 39 4 87 -4 134 -7 145
-16 61z"/>
<path d="M12196 1288 c-3 -13 -6 -68 -6 -123 0 -108 10 -113 31 -16 17 84 -5
211 -25 139z"/>
<path d="M12126 1108 c-5 -25 -5 -57 -1 -69 l8 -24 8 24 c5 13 5 44 1 70 l-9
46 -7 -47z"/>
<path d="M12040 935 c0 -34 12 -46 25 -24 9 14 -3 59 -15 59 -6 0 -10 -16 -10
-35z"/>
<path d="M12280 875 c0 -55 13 -73 25 -34 9 26 -3 89 -15 89 -6 0 -10 -25 -10
-55z"/>
<path d="M12074 754 c-48 -31 -95 -99 -121 -175 -34 -102 -18 -411 19 -346 7
13 7 32 -1 62 -6 24 -11 64 -11 89 0 36 5 48 26 65 23 18 41 21 136 21 163 0
204 26 215 136 5 51 4 57 -23 86 -83 88 -167 110 -240 62z m146 -64 c23 -23
24 -31 10 -80 -17 -59 -24 -65 -53 -45 -36 23 -61 79 -47 104 22 42 60 51 90
21z"/>
<path d="M11876 761 c-7 -11 2 -98 12 -115 8 -15 22 18 22 55 0 39 -22 80 -34
60z"/>
<path d="M6383 5885 c0 -38 2 -53 4 -32 2 20 2 52 0 70 -2 17 -4 1 -4 -38z"/>
<path d="M6465 5680 c-4 -12 -5 -24 -2 -27 3 -2 8 5 12 17 4 12 5 24 2 27 -3
2 -8 -5 -12 -17z"/>
<path d="M6370 5643 c0 -25 2 -44 4 -42 8 10 13 89 5 89 -5 0 -9 -21 -9 -47z"/>
<path d="M6462 5595 c0 -16 2 -22 5 -12 2 9 2 23 0 30 -3 6 -5 -1 -5 -18z"/>
<path d="M6457 5420 c-3 -36 -9 -146 -12 -245 -4 -142 -3 -176 7 -160 7 13 13
91 16 225 5 214 0 291 -11 180z"/>
<path d="M6367 5438 c-11 -43 -18 -463 -9 -508 6 -34 11 27 16 238 8 266 6
324 -7 270z"/>
<path d="M6432 4694 c-21 -154 -26 -244 -14 -244 17 0 34 128 30 235 l-3 100
-13 -91z"/>
<path d="M2026 4103 c-12 -12 -5 -23 14 -23 11 0 20 4 20 9 0 11 -26 22 -34
14z"/>
<path d="M2350 4090 c-11 -7 -7 -10 18 -10 17 0 32 5 32 10 0 13 -30 13 -50 0z"/>
<path d="M11322 4094 c-26 -11 1 -24 51 -24 31 0 47 4 42 9 -12 12 -76 22 -93
15z"/>
<path d="M860 4021 l-115 -6 95 -7 c168 -13 400 -18 400 -9 0 20 -197 32 -380
22z"/>
<path d="M2067 4016 c-26 -7 -50 -16 -54 -19 -8 -9 590 -7 677 2 61 6 54 7
-90 19 -199 16 -470 15 -533 -2z"/>
<path d="M1400 4013 c-86 -13 -93 -15 -80 -23 15 -9 471 -2 510 8 57 14 -343
29 -430 15z"/>
<path d="M2957 4013 c-15 -14 -5 -23 26 -23 30 1 31 1 13 15 -22 17 -29 18
-39 8z"/>
<path d="M3163 4013 c-13 -2 -23 -9 -23 -14 0 -5 53 -9 120 -9 112 0 151 9 98
24 -25 6 -160 6 -195 -1z"/>
<path d="M4178 4011 c-31 -3 -60 -10 -65 -15 -5 -5 70 -6 176 -2 101 3 232 7
290 7 93 2 99 3 51 9 -65 9 -370 10 -452 1z"/>
<path d="M5333 4007 c20 -6 36 -15 34 -21 -2 -6 -45 -16 -95 -21 -79 -9 -93
-14 -111 -37 -11 -14 -38 -33 -60 -41 -21 -9 -41 -23 -44 -31 -9 -24 -82 -56
-165 -72 -53 -11 -145 -15 -297 -16 -203 -1 -216 -2 -170 -14 60 -16 204 -18
420 -4 157 10 160 11 180 37 53 72 119 109 240 135 29 7 162 12 322 12 149 1
275 5 279 9 5 4 3 16 -3 27 -16 25 -1 30 102 30 46 0 87 5 90 10 4 7 -124 10
-377 9 -288 -1 -374 -4 -345 -12z m393 -34 l49 -8 -65 -6 c-72 -6 -130 -1
-130 12 0 11 80 12 146 2z"/>
<path d="M6360 4010 c-11 -7 -7 -10 18 -10 17 0 32 5 32 10 0 13 -30 13 -50 0z"/>
<path d="M3480 3983 c0 -60 -119 -93 -365 -101 -123 -4 -162 -8 -140 -14 40
-12 399 -15 499 -5 l79 9 -29 23 c-16 13 -26 26 -23 30 17 16 160 26 319 22
96 -2 158 -2 138 0 -45 5 -48 15 -12 32 15 6 23 15 19 19 -3 4 -114 7 -246 7
-239 0 -239 0 -239 -22z"/>
<path d="M4190 3950 c-30 -4 78 -7 240 -7 203 0 265 3 200 7 -117 9 -365 9
-440 0z"/>
<path d="M4815 3950 c-3 -5 -1 -10 4 -10 6 0 11 5 11 10 0 6 -2 10 -4 10 -3 0
-8 -4 -11 -10z"/>
<path d="M4877 3954 c-15 -16 8 -24 66 -23 98 2 137 15 49 17 -40 0 -81 3 -91
7 -9 3 -20 2 -24 -1z"/>
<path d="M6135 3950 c-63 -10 145 -16 395 -10 171 4 201 7 145 12 -85 9 -484
8 -540 -2z"/>
<path d="M6840 3950 c0 -6 32 -10 77 -10 42 0 74 2 72 4 -11 9 -149 15 -149 6z"/>
<path d="M7083 3953 c-38 -15 1 -23 112 -23 122 0 163 11 88 24 -44 7 -182 7
-200 -1z"/>
<path d="M7510 3950 c-14 -4 238 -8 560 -7 346 0 540 3 475 7 -148 10 -1004
10 -1035 0z"/>
<path d="M8840 3951 c-100 -11 261 -22 439 -14 145 7 157 9 96 14 -87 8 -461
8 -535 0z"/>
<path d="M9910 3951 c-157 -4 -280 -8 -275 -10 18 -7 1165 -16 1165 -10 0 20
-428 30 -890 20z"/>
<path d="M11145 3941 l-80 -7 95 -2 c52 -1 208 -5 345 -8 180 -5 247 -4 240 4
-12 14 -481 23 -600 13z"/>
<path d="M4068 3881 c-122 -13 -61 -21 165 -21 131 0 237 4 237 8 0 17 -285
25 -402 13z"/>
<path d="M5832 3883 c-71 -10 -14 -23 101 -23 88 0 118 3 110 11 -12 12 -156
20 -211 12z"/>
<path d="M8140 3881 c-184 -3 -330 -9 -325 -12 14 -9 648 -15 1120 -10 266 2
376 6 345 12 -58 12 -709 17 -1140 10z"/>
<path d="M3650 3870 c0 -5 25 -10 55 -10 30 0 55 5 55 10 0 6 -25 10 -55 10
-30 0 -55 -4 -55 -10z"/>
<path d="M3840 3870 c0 -5 9 -10 20 -10 11 0 20 5 20 10 0 6 -9 10 -20 10 -11
0 -20 -4 -20 -10z"/>
<path d="M4660 3870 c0 -6 54 -10 141 -10 91 0 138 4 134 10 -4 6 -62 10 -141
10 -83 0 -134 -4 -134 -10z"/>
<path d="M5450 3870 c37 -12 208 -12 215 0 4 6 -37 10 -117 9 -77 -1 -114 -4
-98 -9z"/>
<path d="M6125 3870 c3 -5 23 -10 43 -10 28 0 33 3 22 10 -20 13 -73 13 -65 0z"/>
<path d="M6320 3869 c57 -10 259 -10 325 1 33 5 -23 7 -160 7 -136 0 -194 -2
-165 -8z"/>
<path d="M6810 3870 c37 -12 170 -12 170 0 0 6 -39 10 -97 9 -65 -1 -89 -4
-73 -9z"/>
<path d="M7035 3870 c3 -5 17 -10 31 -10 13 0 24 5 24 10 0 6 -14 10 -31 10
-17 0 -28 -4 -24 -10z"/>
<path d="M7150 3870 c0 -5 11 -10 25 -10 14 0 25 5 25 10 0 6 -11 10 -25 10
-14 0 -25 -4 -25 -10z"/>
<path d="M7325 3870 c-12 -5 49 -8 155 -8 102 0 165 3 150 8 -34 11 -280 11
-305 0z"/>
<path d="M9580 3870 c0 -11 55 -20 123 -20 36 0 57 4 52 9 -12 11 -175 21
-175 11z"/>
<path d="M9856 3871 c-3 -5 0 -11 8 -14 15 -6 26 1 26 15 0 11 -27 10 -34 -1z"/>
<path d="M10041 3869 c-24 -5 -46 -11 -49 -14 -9 -9 222 -5 236 4 32 20 -100
27 -187 10z"/>
<path d="M10382 3874 c-34 -16 13 -24 141 -24 101 1 137 4 125 11 -20 11 -246
22 -266 13z"/>
<path d="M10813 3870 c79 -24 234 -30 670 -29 254 2 471 0 482 -4 11 -3 36 -3
55 2 l35 7 -45 7 c-128 20 -1259 35 -1197 17z"/>
<path d="M2490 3809 c-25 -5 -171 -16 -325 -24 -153 -8 -284 -20 -289 -25 -7
-7 -5 -10 5 -10 7 0 349 -2 758 -4 559 -4 741 -2 732 7 -7 7 -117 13 -348 18
-274 5 -349 10 -393 23 -79 24 -90 26 -140 15z m75 -29 c8 -13 -25 -13 -45 0
-12 8 -9 10 12 10 15 0 30 -4 33 -10z"/>
<path d="M7240 3786 c-72 -8 -100 -14 -90 -20 17 -12 1172 -23 1540 -16 229 4
244 6 150 13 -58 4 -208 8 -335 8 -126 1 -338 8 -470 15 -233 13 -344 16 -297
7 39 -8 24 -23 -22 -23 -48 0 -71 16 -34 23 50 9 -344 3 -442 -7z"/>
<path d="M888 3771 c-43 -6 -68 -17 -57 -23 2 -2 121 -1 264 2 148 3 243 8
220 12 -61 11 -374 18 -427 9z"/>
<path d="M1542 3772 c-18 -2 -30 -8 -27 -13 4 -5 57 -9 118 -9 66 0 106 4 97
9 -17 10 -138 18 -188 13z"/>
<path d="M6728 3773 c-90 -6 -68 -20 37 -25 106 -4 203 4 170 14 -30 10 -142
16 -207 11z"/>
<path d="M3670 3757 l-25 -11 33 -4 c40 -4 66 4 57 18 -8 13 -33 12 -65 -3z"/>
<path d="M4120 3760 c0 -5 15 -10 33 -9 27 0 29 2 12 9 -28 12 -45 12 -45 0z"/>
<path d="M5150 3763 c0 -15 181 -23 454 -22 181 1 221 4 161 9 -142 14 -615
24 -615 13z"/>
<path d="M9147 3759 c15 -15 179 -24 229 -13 l39 8 -60 7 c-103 12 -221 11
-208 -2z"/>
<path d="M9526 3761 c-9 -14 77 -21 243 -20 179 1 244 11 142 22 -92 10 -379
9 -385 -2z"/>
<path d="M10160 3763 c-14 -3 -29 -9 -34 -14 -6 -5 68 -9 187 -9 194 0 256 11
136 24 -67 7 -249 6 -289 -1z"/>
<path d="M11005 3760 c-413 -7 -213 -18 440 -24 527 -4 623 3 316 24 -156 10
-231 10 -756 0z"/>
<path d="M3578 3753 c7 -3 16 -2 19 1 4 3 -2 6 -13 5 -11 0 -14 -3 -6 -6z"/>
<path d="M3880 3750 c36 -11 122 -11 140 0 10 7 -14 9 -75 9 -60 -1 -82 -4
-65 -9z"/>
<path d="M10603 3753 c9 -2 23 -2 30 0 6 3 -1 5 -18 5 -16 0 -22 -2 -12 -5z"/>
<path d="M6105 3739 c134 -10 408 -10 425 1 10 6 -76 9 -250 8 -197 -1 -242
-3 -175 -9z"/>
<path d="M5885 3663 c-16 -1 -54 -6 -82 -9 -124 -13 -33 -19 262 -16 173 1
315 6 315 11 0 16 -387 27 -495 14z"/>
<path d="M6610 3661 c-61 -4 -97 -9 -87 -13 24 -10 282 -10 507 0 l175 7 -120
6 c-143 7 -330 7 -475 0z"/>
<path d="M7407 3660 c-38 -5 -71 -11 -75 -14 -3 -3 66 -6 153 -6 93 0 155 4
150 9 -15 13 -152 20 -228 11z"/>
<path d="M7885 3661 l-30 -7 40 -7 c50 -9 440 -7 480 2 18 4 -26 10 -115 14
-171 8 -333 7 -375 -2z"/>
<path d="M8670 3661 c-82 -5 -35 -8 220 -13 396 -10 1960 -8 2120 2 63 3 -209
7 -605 8 -396 1 -925 4 -1175 6 -250 2 -502 1 -560 -3z"/>
<path d="M675 3651 c-48 -19 355 -28 581 -14 90 6 102 8 69 14 -53 10 -624 10
-650 0z"/>
<path d="M1470 3650 c0 -5 7 -10 15 -10 8 0 15 5 15 10 0 6 -7 10 -15 10 -8 0
-15 -4 -15 -10z"/>
<path d="M1573 3653 c-32 -13 -7 -23 57 -23 69 0 92 12 48 24 -27 7 -88 7
-105 -1z"/>
<path d="M2045 3649 c-161 -8 -151 -7 -139 -19 5 -5 76 -15 156 -22 140 -11
148 -11 168 7 20 18 20 20 4 32 -10 7 -27 12 -38 11 -12 -1 -79 -5 -151 -9z"/>
<path d="M2550 3651 c-70 -6 -73 -6 -36 -14 48 -10 377 -8 431 3 36 7 34 8
-30 9 -38 1 -119 3 -180 5 -60 2 -144 1 -185 -3z"/>
<path d="M3518 3653 c-16 -2 -28 -9 -28 -14 0 -5 49 -9 113 -9 76 1 107 4 96
10 -19 11 -142 20 -181 13z"/>
<path d="M4860 3651 l-65 -6 105 -9 c138 -11 676 -2 715 12 33 11 -633 14
-755 3z"/>
<path d="M2300 3640 c0 -5 16 -10 36 -10 21 0 33 4 29 10 -3 6 -19 10 -36 10
-16 0 -29 -4 -29 -10z"/>
<path d="M3095 3640 c11 -5 79 -9 150 -9 81 0 123 4 110 9 -11 5 -78 9 -150 9
-81 0 -123 -4 -110 -9z"/>
<path d="M3826 3641 c13 -14 197 -31 323 -31 112 1 419 25 429 34 3 4 -167 6
-378 6 -240 0 -380 -4 -374 -9z"/>
<path d="M8670 3490 c0 -5 5 -10 10 -10 6 0 10 5 10 10 0 6 -4 10 -10 10 -5 0
-10 -4 -10 -10z"/>
<path d="M1395 703 c-93 -2 -173 -7 -178 -12 -21 -21 1032 -31 3763 -35 1976
-3 2219 -1 2284 24 42 15 -893 21 -2969 19 -1166 -1 -2257 0 -2425 3 -168 2
-381 3 -475 1z"/>
<path d="M7435 691 c-38 -3 -65 -9 -59 -13 25 -17 210 -30 303 -23 120 10 222
11 1531 7 586 -2 1190 -8 1342 -14 285 -12 410 -6 503 24 34 11 -58 14 -610
19 -814 8 -2916 7 -3010 0z"/>
<path d="M1225 592 c16 -18 219 -33 385 -30 l155 3 -115 13 c-161 19 -438 27
-425 14z"/>
<path d="M2900 583 l-24 -17 24 -7 c39 -11 98 -10 105 1 22 36 -61 53 -105 23z"/>
<path d="M3625 591 c-22 -4 -49 -12 -60 -19 -16 -9 18 -11 162 -12 170 0 234
9 161 24 -52 10 -221 15 -263 7z"/>
<path d="M4117 591 c-32 -5 -64 -14 -70 -20 -8 -8 41 -11 190 -11 111 0 204 4
207 9 12 18 -232 35 -327 22z"/>
<path d="M3124 575 c22 -16 146 -21 146 -6 0 10 -60 21 -120 21 -42 -1 -44 -2
-26 -15z"/>
<path d="M3407 583 c-17 -16 -3 -23 43 -23 49 0 66 12 34 24 -21 8 -69 8 -77
-1z"/>
<path d="M4666 579 c-49 -5 -91 -11 -94 -14 -8 -7 2570 -4 2653 4 69 6 68 6
-54 14 -171 10 -2395 6 -2505 -4z"/>
<path d="M7490 581 l-35 -7 55 -12 c42 -9 458 -11 1795 -6 1840 6 2280 13
1561 27 -499 9 -3327 7 -3376 -2z"/>
<path d="M2638 569 c29 -5 75 -5 105 0 46 8 40 9 -53 9 -93 0 -99 -1 -52 -9z"/>
<path d="M1915 560 c67 -15 468 -25 491 -12 14 9 -26 11 -171 12 -104 0 -228
2 -275 5 -65 3 -76 2 -45 -5z"/>
<path d="M1297 493 c-16 -16 -2 -22 69 -28 87 -9 122 6 58 24 -44 12 -117 15
-127 4z"/>
<path d="M1547 493 c-14 -14 -6 -21 33 -28 50 -8 72 3 39 21 -26 14 -62 18
-72 7z"/>
<path d="M1793 492 c-126 -14 -70 -22 148 -21 139 0 216 4 202 9 -29 12 -273
20 -350 12z"/>
<path d="M3372 484 c2 -12 16 -21 38 -25 19 -4 37 -5 39 -3 9 8 -24 33 -52 40
-25 6 -28 4 -25 -12z"/>
<path d="M3705 486 c-33 -14 -27 -21 25 -30 38 -7 72 7 55 22 -19 18 -50 21
-80 8z"/>
<path d="M11273 488 c-13 -6 -23 -17 -23 -25 0 -10 26 -13 119 -13 66 0 122 4
125 9 17 26 -177 52 -221 29z"/>
<path d="M2265 481 c-3 -5 -1 -12 5 -16 5 -3 10 1 10 9 0 18 -6 21 -15 7z"/>
<path d="M2425 481 c-36 -6 -38 -7 -15 -14 36 -10 176 -9 165 2 -14 12 -102
19 -150 12z"/>
<path d="M2682 483 c-19 -7 -4 -23 24 -23 27 0 32 15 8 24 -9 3 -16 6 -17 5
-1 0 -8 -3 -15 -6z"/>
<path d="M2826 481 c-10 -16 23 -20 107 -14 62 5 75 9 52 14 -45 10 -153 10
-159 0z"/>
<path d="M3981 479 c-30 -5 -57 -12 -60 -14 -7 -8 450 -4 484 4 27 6 24 8 -25
14 -75 9 -333 7 -399 -4z"/>
<path d="M4645 483 c-70 -17 -15 -23 201 -22 250 0 339 11 200 22 -88 8 -370
7 -401 0z"/>
<path d="M5283 479 c28 -15 171 -19 869 -25 717 -5 941 1 1001 26 14 6 -345 9
-930 7 -523 -1 -946 -5 -940 -8z"/>
<path d="M7241 481 c-27 -17 1 -31 65 -31 74 0 83 13 20 29 -53 13 -67 13 -85
2z"/>
<path d="M7655 480 c-139 -4 -172 -7 -145 -15 40 -10 1512 -14 2615 -6 500 3
700 8 675 15 -37 11 -2817 16 -3145 6z"/>
<path d="M11005 485 c-5 -2 -28 -7 -50 -11 l-40 -8 60 -7 c65 -9 205 -1 205
11 0 15 -139 27 -175 15z"/>
<path d="M3525 470 c11 -5 38 -9 60 -9 31 0 36 2 20 9 -11 5 -38 9 -60 9 -31
0 -36 -2 -20 -9z"/>
<path d="M1655 380 c17 -4 41 -8 55 -8 22 0 22 1 -5 8 -16 4 -41 8 -55 8 -22
0 -22 -1 5 -8z"/>
<path d="M4200 380 c-11 -7 -4 -10 25 -10 29 0 36 3 25 10 -8 5 -19 10 -25 10
-5 0 -17 -5 -25 -10z"/>
<path d="M4460 380 c0 -5 7 -10 16 -10 8 0 12 5 9 10 -3 6 -10 10 -16 10 -5 0
-9 -4 -9 -10z"/>
<path d="M4560 380 c0 -5 11 -10 25 -10 14 0 25 5 25 10 0 6 -11 10 -25 10
-14 0 -25 -4 -25 -10z"/>
<path d="M6848 383 c6 -2 18 -2 25 0 6 3 1 5 -13 5 -14 0 -19 -2 -12 -5z"/>
<path d="M1808 373 c6 -2 18 -2 25 0 6 3 1 5 -13 5 -14 0 -19 -2 -12 -5z"/>
<path d="M250 6745 c0 -15 4 -24 10 -20 6 3 10 12 10 20 0 8 -4 17 -10 20 -6
4 -10 -5 -10 -20z"/>
<path d="M799 6713 c-2 -21 -1 -54 2 -73 5 -25 7 -15 8 38 1 77 -5 96 -10 35z"/>
<path d="M910 6680 c0 -39 3 -51 10 -40 5 8 10 26 10 40 0 14 -5 32 -10 40 -7
11 -10 -1 -10 -40z"/>
<path d="M572 6690 c0 -19 2 -27 5 -17 2 9 2 25 0 35 -3 9 -5 1 -5 -18z"/>
</g>
</svg>
