<?xml version="1.0" standalone="no"?>
<!DOCTYPE svg PUBLIC "-//W3C//DTD SVG 20010904//EN"
 "http://www.w3.org/TR/2001/REC-SVG-20010904/DTD/svg10.dtd">
<svg version="1.0" xmlns="http://www.w3.org/2000/svg"
 width="1280.000000pt" height="866.000000pt" viewBox="0 0 1280.000000 866.000000"
 preserveAspectRatio="xMidYMid meet">
<metadata>
Created by potrace 1.15, written by Peter Selinger 2001-2017
</metadata>
<g transform="translate(0.000000,866.000000) scale(0.100000,-0.100000)"
fill="#000000" stroke="none">
<path d="M4903 8636 c-107 -29 -166 -53 -227 -95 -46 -32 -435 -446 -573 -611
-118 -140 -172 -185 -359 -292 -123 -71 -184 -112 -224 -153 -30 -31 -116
-101 -190 -155 -242 -176 -340 -265 -545 -495 -123 -138 -244 -247 -362 -326
-59 -40 -177 -131 -263 -204 -85 -72 -225 -187 -310 -257 -366 -296 -541 -462
-583 -553 -15 -33 -33 -71 -40 -84 -6 -14 -66 -60 -132 -103 -66 -43 -235
-155 -375 -247 -290 -192 -436 -281 -603 -370 l-117 -63 0 -138 0 -137 28 -6
c53 -10 119 10 233 70 62 34 249 131 414 216 331 170 451 237 600 335 l100 65
100 9 c89 9 626 4 810 -7 39 -2 76 -4 83 -5 8 0 32 -18 55 -41 41 -40 43 -41
94 -35 42 5 61 1 105 -19 29 -14 68 -25 86 -25 24 0 40 -8 61 -32 l29 -33 90
3 c95 3 107 -2 134 -51 29 -56 75 -101 132 -128 81 -39 536 -414 536 -441 0
-5 -17 -15 -37 -24 -169 -71 -185 -92 -193 -246 l-6 -108 -84 -77 c-197 -178
-667 -671 -767 -804 -38 -52 -139 -200 -224 -329 -191 -293 -291 -429 -406
-550 -66 -70 -122 -145 -208 -280 -163 -255 -272 -436 -356 -592 -67 -123
-579 -1127 -579 -1135 0 -2 132 -3 294 -3 l293 0 88 202 c226 521 425 913 623
1228 88 139 154 231 191 264 21 19 21 19 21 -2 0 -18 6 -22 29 -22 24 0 42
-15 108 -93 111 -130 184 -226 201 -267 25 -58 52 -180 52 -231 0 -56 -20
-111 -120 -334 -154 -344 -236 -553 -285 -723 -7 -23 -6 -23 80 -20 l86 3 54
143 c53 142 127 291 232 470 121 206 174 362 174 507 0 101 -7 126 -99 366
-72 190 -101 246 -192 369 -39 52 -70 102 -70 112 0 11 19 27 53 44 65 33 62
30 47 49 -10 12 -10 19 3 37 23 35 398 451 507 563 53 55 146 161 206 235 125
156 554 604 662 692 59 49 78 59 97 54 33 -8 32 -17 -10 -79 -19 -29 -31 -53
-25 -55 20 -7 85 34 103 65 11 20 21 62 24 107 4 51 11 80 22 90 30 28 291
156 305 150 8 -3 21 -20 29 -37 19 -38 7 -73 -45 -138 l-33 -41 -6 -177 c-7
-181 -9 -196 -54 -390 -22 -95 -25 -127 -19 -195 4 -46 2 -112 -5 -153 -12
-80 -106 -410 -211 -748 -38 -121 -124 -413 -191 -650 l-121 -430 -8 -145 c-6
-109 -15 -167 -35 -235 -39 -132 -100 -281 -182 -443 l-73 -142 93 0 92 1 95
196 c52 108 112 223 133 256 82 128 122 227 171 422 14 55 45 156 69 225 25
69 71 215 102 324 34 118 73 230 96 274 55 108 88 214 179 581 100 403 139
599 185 916 45 316 80 498 108 555 27 58 209 240 305 308 40 28 108 65 150 82
96 40 148 80 287 220 60 60 118 110 127 110 41 0 110 -26 132 -50 13 -14 72
-137 129 -275 58 -137 138 -324 177 -414 39 -90 82 -202 96 -250 36 -122 70
-341 84 -527 6 -87 15 -177 20 -199 25 -120 30 -173 46 -414 11 -174 15 -310
10 -398 -9 -181 17 -361 80 -551 61 -184 74 -259 74 -415 0 -155 -45 -711 -60
-753 -6 -16 -28 -47 -49 -69 -66 -71 -91 -106 -91 -131 0 -24 1 -24 94 -24 90
0 95 1 101 23 4 12 18 38 30 57 59 88 74 237 75 752 l0 426 -33 79 c-19 43
-42 112 -51 153 -9 41 -20 84 -23 95 -3 11 -9 164 -13 340 -4 176 -12 379 -18
450 -41 470 -47 565 -35 565 28 0 64 -47 91 -118 93 -243 124 -364 156 -612
26 -199 35 -243 79 -365 28 -80 34 -117 47 -306 11 -165 56 -539 71 -594 6
-22 52 -128 103 -235 51 -107 101 -216 110 -241 l17 -45 -45 -208 c-25 -114
-46 -209 -46 -212 0 -2 40 -4 89 -4 l89 0 13 108 14 107 63 -107 62 -108 101
0 c89 0 100 2 95 16 -4 9 -48 87 -100 173 -51 86 -98 172 -104 191 -14 49 -15
275 -1 379 6 47 22 115 36 151 30 80 53 234 46 307 -5 45 -3 54 9 52 8 -2 60
-58 115 -124 55 -66 244 -264 420 -440 175 -176 350 -356 389 -400 38 -44 110
-125 160 -181 50 -55 93 -106 95 -112 3 -9 126 -12 493 -10 l490 3 -160 97
c-87 53 -224 133 -304 178 -361 205 -602 392 -1004 780 -110 106 -224 208
-254 227 -73 47 -114 90 -220 230 -205 271 -366 530 -502 805 -50 101 -102
206 -116 233 -117 226 -159 319 -253 558 -28 70 -82 190 -121 266 -67 135 -95
201 -230 545 -34 88 -86 207 -115 265 -51 101 -96 227 -148 411 -45 155 -45
154 13 247 57 92 88 120 173 155 69 28 284 176 451 311 116 93 163 121 357
210 30 14 106 66 168 115 122 99 293 197 365 211 32 6 65 25 121 70 86 69 162
111 200 111 15 0 41 15 65 36 37 34 44 36 90 32 78 -8 113 -41 145 -137 21
-63 57 -127 166 -292 76 -116 169 -268 205 -338 130 -246 198 -368 317 -566
150 -249 235 -377 324 -485 38 -47 89 -122 113 -167 31 -60 51 -85 70 -91 22
-8 28 -18 38 -72 9 -48 19 -71 42 -94 44 -43 461 -672 471 -710 5 -17 13 -249
19 -516 10 -543 6 -502 109 -1005 76 -370 119 -646 196 -1260 19 -154 38 -299
41 -322 l7 -43 118 0 c66 0 119 1 119 3 0 2 -14 136 -30 298 -60 587 -109 911
-210 1411 -93 456 -100 508 -110 888 -8 294 -18 429 -36 515 -14 64 -46 117
-142 231 -54 65 -119 148 -143 184 -62 91 -163 290 -147 290 33 -1 216 -39
240 -50 15 -7 50 -41 78 -76 41 -50 135 -126 443 -357 216 -161 428 -325 472
-363 44 -39 393 -315 775 -614 382 -299 714 -559 738 -578 l42 -34 0 95 0 95
-62 47 c-35 26 -101 67 -149 90 -113 57 -308 209 -1074 840 -493 406 -692 553
-890 660 -92 50 -164 113 -269 238 -65 78 -106 103 -216 132 -111 30 -221 86
-258 131 -15 18 -56 84 -92 146 -35 62 -119 196 -186 298 -206 313 -280 442
-477 830 -223 441 -287 559 -379 698 -69 106 -99 175 -82 191 19 19 1033 437
1344 554 614 232 1677 531 2425 682 154 31 298 62 320 68 l40 12 3 458 c1 251
-1 457 -4 457 -4 0 -57 -27 -118 -59 -99 -52 -128 -62 -261 -91 -82 -17 -238
-53 -345 -80 -256 -64 -337 -78 -505 -90 -77 -5 -167 -16 -200 -25 -179 -47
-532 -162 -695 -227 -69 -28 -237 -87 -375 -133 -349 -115 -531 -190 -825
-338 -140 -71 -316 -153 -390 -182 -74 -29 -200 -79 -280 -110 -80 -31 -298
-119 -485 -195 -187 -76 -374 -151 -415 -166 -122 -43 -175 -74 -517 -300
-593 -391 -899 -602 -1438 -989 -192 -139 -462 -328 -600 -420 -137 -93 -305
-205 -371 -250 -139 -94 -298 -175 -340 -175 -22 1 -35 10 -56 40 -47 67 -112
63 -163 -10 -59 -85 -105 -88 -270 -20 -95 40 -464 209 -475 217 -3 3 20 27
50 55 30 28 105 99 165 157 61 59 200 177 310 263 226 177 328 266 405 353
181 206 361 588 534 1136 89 285 118 349 294 669 108 195 179 305 228 352 71
67 125 86 404 140 297 58 280 43 176 155 -102 110 -131 123 -415 188 -133 31
-167 43 -240 85 -100 57 -256 123 -333 140 -29 6 -98 13 -153 16 -84 4 -115 1
-192 -20z"/>
</g>
</svg>
