<?xml version="1.0" standalone="no"?>
<!DOCTYPE svg PUBLIC "-//W3C//DTD SVG 20010904//EN"
 "http://www.w3.org/TR/2001/REC-SVG-20010904/DTD/svg10.dtd">
<svg version="1.0" xmlns="http://www.w3.org/2000/svg"
 width="1280.000000pt" height="1273.000000pt" viewBox="0 0 1280.000000 1273.000000"
 preserveAspectRatio="xMidYMid meet">
<metadata>
Created by potrace 1.15, written by Peter Selinger 2001-2017
</metadata>
<g transform="translate(0.000000,1273.000000) scale(0.100000,-0.100000)"
fill="#000000" stroke="none">
<path d="M5680 12585 l0 -145 -89 -179 c-88 -175 -89 -179 -79 -222 14 -61 4
-154 -26 -233 -14 -37 -53 -175 -85 -306 -33 -132 -72 -263 -87 -292 -15 -29
-75 -136 -134 -238 -220 -379 -281 -503 -324 -662 -76 -289 -259 -686 -596
-1293 -221 -399 -240 -430 -293 -457 -103 -52 -193 -170 -347 -453 -134 -245
-169 -294 -325 -450 -381 -381 -418 -410 -815 -650 -107 -64 -256 -157 -330
-205 -199 -129 -395 -224 -690 -335 -183 -68 -262 -89 -660 -175 -206 -44
-430 -93 -498 -107 l-122 -27 0 -1021 0 -1021 72 23 c40 13 86 36 103 52 20
19 61 37 125 55 52 15 145 47 205 71 61 23 157 59 215 80 58 20 159 59 225 85
66 26 198 74 294 106 124 41 187 68 219 92 43 32 109 62 139 62 10 0 7 -9 -10
-32 -35 -47 -57 -93 -57 -121 0 -16 -33 -67 -89 -140 -120 -155 -124 -162
-117 -193 6 -21 0 -32 -37 -67 -48 -45 -61 -76 -47 -113 7 -17 3 -37 -15 -76
-13 -29 -26 -82 -30 -117 -4 -35 -14 -79 -21 -97 -8 -20 -14 -69 -14 -119 0
-76 3 -88 23 -109 13 -13 29 -25 37 -28 20 -6 7 -22 -57 -64 -43 -28 -82 -44
-158 -61 -153 -35 -606 -120 -731 -137 -61 -9 -122 -20 -136 -25 -43 -16 -90
-64 -114 -116 -23 -48 -24 -59 -24 -301 l0 -251 53 -7 c81 -9 139 10 512 174
337 148 396 169 466 170 l36 0 12 -65 c11 -63 11 -67 -14 -110 -34 -57 -30
-84 18 -115 l38 -24 -37 -13 c-51 -18 -56 -28 -49 -95 4 -42 2 -65 -10 -87 -8
-17 -15 -43 -15 -58 0 -41 -257 -348 -604 -721 -154 -167 -299 -323 -321 -348
l-40 -44 -75 0 c-41 0 -92 -3 -114 -7 l-39 -6 6 -68 c11 -132 77 -254 216
-401 184 -194 400 -347 709 -502 492 -247 922 -311 1134 -171 67 45 80 76 75
180 -5 93 -26 170 -58 216 -30 43 -196 81 -514 118 -173 21 -239 39 -559 154
l-169 61 -42 65 c-63 98 -95 166 -95 203 0 27 12 44 78 108 74 73 161 143 210
169 13 7 48 19 77 27 91 23 236 97 356 181 63 44 120 83 127 88 20 11 92 -62
92 -95 0 -39 34 -87 68 -95 28 -6 32 -12 47 -76 9 -38 19 -69 21 -69 11 0 159
63 180 76 l24 16 31 -68 c17 -38 32 -70 34 -72 10 -11 130 66 178 116 l59 59
50 -33 c86 -58 136 -42 209 65 19 28 41 51 49 51 8 0 58 -14 110 -30 52 -16
98 -30 101 -30 4 0 10 33 14 72 3 40 8 76 11 79 2 4 50 -8 106 -26 57 -18 104
-29 106 -24 2 4 -6 51 -17 103 -12 53 -21 100 -21 106 0 5 16 -2 36 -15 38
-26 87 -39 121 -33 19 3 13 18 -60 173 -92 197 -150 365 -167 485 -6 47 -15
112 -20 145 -4 33 -24 101 -43 151 -46 117 -69 242 -71 384 l-1 115 155 80
c85 44 198 106 250 136 192 113 313 162 441 178 123 16 159 65 72 97 -27 9
-138 54 -248 98 l-200 81 -193 1 c-106 0 -195 3 -198 6 -6 7 90 203 147 299
22 36 75 108 119 160 44 52 89 113 100 137 13 27 37 54 68 75 74 50 213 196
255 267 58 100 97 233 97 330 0 44 -3 80 -8 80 -4 0 -31 -16 -60 -35 -38 -26
-52 -31 -52 -20 0 8 14 77 31 153 17 75 41 190 54 255 32 156 33 157 90 146
72 -13 566 -176 602 -198 39 -25 57 -58 72 -136 32 -164 57 -267 111 -450 32
-110 72 -258 89 -330 21 -86 46 -162 76 -224 60 -125 144 -266 190 -319 l37
-43 -1 -114 c-1 -68 5 -153 14 -210 l16 -95 -42 -77 c-23 -43 -66 -118 -95
-168 -69 -119 -89 -191 -119 -430 -29 -222 -35 -250 -101 -450 -42 -127 -46
-151 -50 -260 -6 -140 -1 -155 68 -201 26 -17 72 -54 103 -83 68 -64 98 -67
103 -9 2 21 -13 117 -33 215 -52 248 -49 295 28 458 31 66 91 217 133 335 81
228 113 303 129 303 15 1 93 -153 191 -373 47 -107 106 -240 131 -295 60 -136
100 -189 154 -206 38 -12 48 -22 83 -84 75 -131 148 -184 359 -261 90 -33 149
-62 227 -114 59 -39 141 -84 184 -100 42 -17 88 -38 102 -47 13 -10 67 -70
118 -134 57 -70 141 -158 210 -218 89 -78 125 -118 157 -172 99 -165 269 -232
269 -105 0 26 -28 63 -157 211 -86 99 -218 241 -292 315 l-136 135 -315 190
c-350 211 -531 328 -573 370 -74 76 -158 320 -322 944 -115 436 -149 576 -176
730 -27 153 -85 324 -208 613 -56 131 -104 257 -107 280 -12 87 38 303 97 419
35 70 64 93 146 119 125 38 403 72 466 56 63 -15 655 -539 717 -634 46 -70 84
-106 132 -127 50 -20 62 -41 97 -170 26 -98 34 -114 67 -143 21 -18 60 -42 86
-55 l49 -22 -4 -90 c-3 -62 -13 -115 -31 -170 l-28 -80 33 -28 c26 -21 44 -27
80 -27 67 0 116 39 176 141 26 45 55 87 64 92 13 8 29 4 65 -14 288 -148 371
-194 425 -234 75 -54 224 -129 292 -146 36 -9 51 -19 62 -40 8 -15 21 -32 29
-36 7 -4 17 -21 23 -38 9 -27 14 -30 57 -33 26 -2 46 -6 44 -10 -70 -132 -51
-201 65 -236 14 -5 16 -10 7 -25 -5 -11 -10 -33 -10 -49 0 -32 30 -52 78 -52
l27 0 -25 -20 c-14 -10 -70 -42 -125 -70 l-100 -50 -195 -10 c-265 -14 -297
-18 -304 -37 -4 -8 -2 -21 4 -28 8 -10 2 -15 -30 -20 -27 -5 -46 -15 -58 -32
-9 -14 -28 -36 -41 -49 -16 -16 -22 -31 -19 -47 3 -16 -1 -28 -14 -36 -26 -16
-20 -55 10 -59 14 -2 22 -10 22 -23 0 -13 7 -19 24 -19 14 0 28 -5 32 -11 4
-7 24 -9 51 -6 34 3 41 2 33 -8 -17 -21 35 -68 70 -63 19 3 31 0 35 -10 4 -10
14 -13 35 -8 25 5 30 2 30 -14 0 -30 31 -42 65 -24 15 8 30 12 33 9 3 -3 0 -5
-6 -5 -22 0 -12 -18 13 -24 14 -4 45 2 76 13 l51 20 24 -27 c14 -16 23 -40 24
-59 0 -30 21 -63 41 -63 32 0 91 40 160 106 l78 77 153 19 c231 30 285 31 509
14 239 -19 430 -21 515 -5 79 14 158 39 279 87 199 79 234 87 400 87 139 0
153 -2 187 -23 20 -13 57 -52 82 -86 56 -78 121 -134 130 -111 3 9 5 104 5
212 0 170 -3 203 -20 249 -41 108 -117 180 -288 269 -91 47 -96 52 -94 80 4
47 117 262 189 358 36 48 108 134 160 192 104 115 147 146 434 312 279 162
428 288 530 449 41 66 55 97 55 125 0 74 -54 84 -116 23 -21 -21 -39 -35 -39
-32 0 3 11 30 23 59 39 88 59 178 55 248 -3 70 -17 88 -59 78 -52 -13 -105
-85 -209 -282 -24 -47 -39 -68 -36 -50 4 17 9 82 13 146 7 133 -1 159 -47 159
-63 0 -120 -81 -164 -231 l-23 -82 -7 39 c-22 116 -131 196 -203 149 -26 -17
-26 -18 -19 -107 l6 -90 -48 37 c-57 43 -139 85 -169 85 -12 0 -34 -5 -48 -12
-32 -14 -33 -56 -5 -128 11 -27 18 -50 15 -50 -3 0 -26 16 -51 36 -116 88
-267 130 -308 85 -16 -18 -16 -22 9 -70 14 -28 24 -51 21 -51 -2 0 -28 11 -57
24 -79 34 -112 39 -151 23 -32 -14 -42 -28 -62 -89 -4 -13 -17 -18 -48 -19
-72 -2 -93 -11 -96 -44 -11 -90 -80 -71 -222 59 -25 23 -102 88 -171 144 -113
92 -130 109 -153 162 -25 56 -67 218 -82 317 l-6 43 27 -10 c15 -6 102 -49
194 -95 159 -81 170 -85 232 -85 111 0 255 45 331 104 47 35 77 40 145 22 81
-21 86 -21 106 13 24 41 21 66 -10 91 -34 27 -48 25 -278 -37 -251 -68 -223
-72 -585 84 -483 207 -667 271 -841 294 -222 28 -1624 21 -2514 -12 -265 -9
-273 -9 -430 15 -244 39 -455 65 -610 75 -128 9 -158 15 -345 71 -290 86 -392
110 -480 110 -98 0 -214 30 -515 132 -132 44 -241 82 -242 83 -11 7 189 156
360 270 191 127 217 147 271 215 69 87 514 531 631 630 114 96 282 224 488
372 197 141 187 137 442 192 362 79 844 157 1090 177 150 12 195 8 334 -31
115 -31 311 -42 721 -39 l375 3 335 -67 c184 -37 347 -74 362 -82 14 -8 46
-15 70 -15 42 0 44 -1 58 -42 27 -77 117 -111 191 -72 30 15 31 15 74 -25 66
-61 105 -74 202 -67 74 4 83 3 88 -13 15 -50 105 -18 159 56 58 79 137 237
213 428 40 99 73 184 73 190 0 14 36 48 68 64 12 7 82 25 155 41 72 16 155 39
182 51 28 12 87 32 133 45 l82 23 0 -40 c0 -37 3 -41 37 -55 34 -15 78 -14
148 2 14 3 25 -4 37 -25 28 -51 117 -62 216 -28 31 11 36 10 53 -11 25 -31 62
-40 126 -30 47 7 57 6 84 -14 41 -31 125 -30 193 0 l49 22 102 -60 c56 -32
123 -65 148 -72 42 -11 52 -10 101 11 55 22 57 22 128 6 75 -17 105 -15 219
11 67 16 67 16 155 -14 128 -44 185 -48 276 -23 58 16 83 18 109 11 66 -19
111 -12 166 25 29 19 61 35 73 35 20 0 20 3 18 381 l-3 382 -75 29 c-305 118
-613 164 -1375 208 -451 26 -616 41 -612 54 2 6 48 34 102 61 54 28 105 60
112 71 12 19 11 25 -11 51 -26 31 -116 65 -201 77 -22 3 -98 15 -170 27 -216
35 -310 24 -620 -72 -82 -25 -123 -32 -225 -36 -118 -5 -134 -3 -275 31 -82
19 -213 49 -290 66 -222 49 -399 96 -545 145 -264 89 -357 103 -760 115 -403
12 -622 40 -825 107 -160 52 -332 120 -392 154 -65 36 -83 37 -83 4 0 -37 48
-84 141 -140 46 -27 95 -57 108 -67 l24 -18 -31 0 c-70 0 -293 85 -516 197
-215 108 -247 113 -211 33 49 -109 272 -231 576 -315 74 -20 141 -40 149 -43
29 -12 -54 -13 -134 -3 -196 27 -327 68 -713 228 -26 10 -13 -46 18 -82 38
-43 118 -88 267 -150 61 -26 112 -49 112 -52 0 -15 -168 15 -378 68 -129 32
-246 59 -258 59 -29 0 -38 -27 -19 -56 16 -25 184 -110 270 -137 28 -9 93 -24
145 -33 52 -9 102 -20 110 -25 26 -14 -189 -10 -279 6 -99 17 -133 12 -129
-19 4 -30 96 -81 182 -102 52 -12 135 -18 311 -22 l240 -5 -105 -22 c-169 -34
-220 -56 -220 -95 0 -9 8 -24 18 -33 20 -18 152 -57 197 -57 l30 -1 -40 -21
c-22 -12 -102 -50 -178 -84 -162 -74 -242 -128 -358 -243 -83 -82 -88 -89
-112 -169 -14 -46 -38 -99 -52 -118 -14 -19 -39 -61 -55 -93 -29 -57 -33 -61
-132 -114 -57 -30 -141 -76 -188 -102 -47 -25 -112 -55 -145 -66 -81 -28 -82
-29 -230 -138 -71 -53 -152 -112 -180 -131 -27 -19 -61 -46 -75 -60 -28 -30
-121 -63 -224 -81 -69 -12 -153 -7 -201 11 l-26 10 217 322 c119 177 266 388
325 469 135 184 233 333 248 379 22 69 73 413 91 622 20 228 87 501 160 656
71 148 108 207 249 390 69 90 136 182 147 205 21 41 174 458 311 847 l68 195
240 122 c132 67 303 150 380 184 226 100 470 212 615 282 74 36 144 66 155 69
11 2 21 11 23 21 3 16 -16 17 -269 17 l-272 0 -246 -125 -246 -124 -170 -26
c-93 -14 -178 -27 -187 -29 -16 -4 -16 9 -11 150 l6 154 -206 0 -207 0 0 -145z"/>
</g>
</svg>
