<svg id="svg" version="1.1" xmlns="http://www.w3.org/2000/svg" xmlns:xlink="http://www.w3.org/1999/xlink" width="400" height="126.99999999999999" viewBox="0, 0, 400,126.99999999999999"><g id="svgg"><path id="path0" d="M239.511 1.348 C 239.505 1.586,239.119 2.411,238.654 3.182 C 237.482 5.125,236.720 7.550,235.599 12.917 C 234.628 17.560,234.419 17.833,231.835 17.833 C 230.869 17.833,230.142 17.905,230.079 18.007 C 229.855 18.369,230.489 18.994,231.195 19.107 C 232.471 19.311,232.561 19.534,232.456 22.232 C 232.400 23.670,232.266 24.875,232.110 25.333 C 231.970 25.746,231.695 26.721,231.499 27.500 C 231.303 28.279,231.041 29.254,230.917 29.667 C 230.460 31.194,229.224 36.554,228.577 39.822 C 228.351 40.961,228.092 42.124,228.001 42.405 C 227.846 42.886,227.567 44.219,226.594 49.122 C 226.372 50.243,226.147 51.231,226.093 51.318 C 226.040 51.404,225.810 52.386,225.583 53.500 C 225.357 54.614,225.132 55.589,225.083 55.667 C 225.035 55.745,224.782 56.620,224.520 57.613 C 223.463 61.627,221.781 66.548,220.744 68.662 C 218.049 74.158,216.656 65.793,217.664 50.167 C 218.231 41.378,218.528 38.068,218.837 37.083 C 218.923 36.808,219.190 35.121,219.429 33.333 C 219.669 31.546,219.936 29.596,220.022 29.000 C 220.380 26.536,219.649 25.265,217.331 24.321 C 215.864 23.724,215.669 23.720,214.659 24.270 C 212.718 25.326,211.263 28.236,210.417 32.750 C 209.763 36.242,209.054 40.126,208.583 42.811 C 208.351 44.129,208.119 45.275,208.068 45.359 C 207.958 45.537,207.170 49.967,206.591 53.667 C 206.368 55.087,206.108 56.550,206.013 56.917 C 205.918 57.283,205.723 58.408,205.581 59.417 C 205.438 60.425,205.245 61.550,205.152 61.917 C 205.058 62.283,204.832 63.333,204.649 64.250 C 204.465 65.167,204.165 66.404,203.982 67.000 C 203.170 69.639,202.279 72.277,202.096 72.583 C 201.987 72.767,201.769 73.260,201.612 73.680 C 201.031 75.239,199.855 75.792,199.338 74.750 C 198.810 73.684,198.956 63.940,199.581 58.500 C 199.917 55.583,200.648 50.126,200.754 49.750 C 200.841 49.441,201.217 47.147,202.243 40.667 C 202.468 39.246,202.698 37.933,202.754 37.750 C 202.810 37.567,203.073 36.067,203.337 34.417 C 203.602 32.767,203.935 30.742,204.077 29.917 C 205.072 24.141,204.374 20.612,201.986 19.339 C 200.249 18.414,199.053 18.677,195.699 20.721 C 194.845 21.241,194.121 21.667,194.088 21.667 C 194.032 21.667,192.291 22.744,189.184 24.702 C 182.014 29.218,179.036 34.575,179.387 42.321 C 179.622 47.505,180.550 49.643,182.913 50.451 C 186.560 51.698,189.163 49.151,187.999 45.473 C 186.210 39.822,187.356 34.390,191.114 30.714 C 193.025 28.843,194.170 28.711,194.864 30.281 C 195.200 31.040,195.205 31.170,195.025 34.657 C 194.923 36.633,194.801 39.825,194.753 41.750 C 194.660 45.492,194.279 51.336,194.002 53.250 C 193.909 53.892,193.682 56.704,193.496 59.500 C 193.310 62.296,193.073 65.146,192.969 65.833 C 192.862 66.535,192.773 69.275,192.765 72.083 L 192.750 77.083 193.232 78.917 C 195.067 85.904,199.300 87.982,203.566 83.992 C 205.587 82.101,206.088 81.304,209.528 74.511 C 211.232 71.145,211.388 70.964,211.674 72.031 C 211.779 72.426,211.923 72.825,211.993 72.917 C 212.063 73.008,212.314 73.646,212.550 74.333 C 213.229 76.308,213.820 77.845,214.260 78.781 C 214.484 79.257,214.667 79.699,214.667 79.764 C 214.667 80.414,216.342 82.175,217.484 82.726 C 218.541 83.236,221.733 82.679,222.319 81.882 C 222.373 81.809,222.743 81.528,223.141 81.258 C 224.689 80.207,226.215 77.785,227.505 74.333 C 227.624 74.012,227.780 73.673,227.850 73.579 C 227.921 73.486,228.177 72.886,228.421 72.246 C 228.664 71.607,229.123 70.408,229.440 69.583 C 229.992 68.148,230.249 67.380,231.358 63.833 C 232.086 61.507,233.454 56.644,234.359 53.167 C 234.634 52.112,235.083 50.387,235.359 49.333 C 235.634 48.279,236.074 46.554,236.337 45.500 C 236.599 44.446,237.048 42.683,237.334 41.583 C 237.620 40.483,238.026 38.868,238.236 37.994 C 238.446 37.119,238.702 36.144,238.805 35.827 C 238.909 35.510,239.226 34.350,239.511 33.250 C 240.191 30.621,240.682 28.820,241.326 26.583 C 242.420 22.789,242.407 22.858,242.205 21.895 C 241.879 20.338,240.592 19.167,238.565 18.581 C 236.310 17.930,236.263 17.866,236.826 16.209 C 237.005 15.682,237.260 14.800,237.392 14.250 C 237.524 13.700,237.971 11.934,238.385 10.326 C 239.513 5.942,240.048 2.235,239.684 1.323 L 239.521 0.917 239.511 1.348 M347.389 2.208 C 347.160 2.521,346.881 3.171,346.654 3.917 C 346.543 4.283,346.275 4.972,346.059 5.448 C 345.843 5.923,345.667 6.355,345.667 6.408 C 345.667 6.582,344.220 9.888,343.270 11.885 C 342.755 12.967,342.333 13.875,342.333 13.903 C 342.333 13.931,341.545 15.404,340.581 17.178 C 338.227 21.511,334.500 29.103,334.500 29.564 C 334.500 29.623,334.353 29.988,334.174 30.377 C 333.801 31.184,333.170 32.847,332.545 34.667 C 332.025 36.182,331.971 38.242,332.400 40.163 C 332.817 42.033,336.015 48.283,337.007 49.167 C 337.262 49.394,338.301 51.064,338.924 52.250 C 341.022 56.238,340.438 57.335,336.116 57.521 C 333.532 57.632,333.410 57.652,332.250 58.163 C 331.883 58.324,331.399 58.514,331.174 58.584 C 330.451 58.809,328.632 59.876,327.424 60.784 C 326.779 61.270,326.163 61.667,326.055 61.667 C 325.715 61.667,325.167 62.522,325.167 63.052 C 325.167 64.303,324.660 64.949,323.904 64.662 C 323.254 64.415,321.720 64.469,321.120 64.761 C 320.825 64.904,320.133 65.278,319.583 65.592 C 317.147 66.981,317.604 66.897,312.467 66.901 C 309.927 66.903,307.808 66.863,307.757 66.812 C 307.705 66.761,307.964 66.173,308.330 65.505 C 312.652 57.643,311.530 49.234,306.497 51.758 C 304.135 52.943,303.616 54.408,304.573 57.192 C 304.991 58.408,305.333 59.599,305.333 59.841 C 305.333 60.429,302.751 64.335,302.366 64.330 C 301.193 64.314,301.039 63.107,301.569 58.083 C 301.705 56.800,302.003 53.875,302.232 51.583 C 302.461 49.292,302.727 47.004,302.823 46.500 C 302.919 45.996,303.152 44.196,303.341 42.500 C 303.529 40.804,303.750 39.192,303.830 38.917 C 303.911 38.642,304.139 37.142,304.338 35.583 C 304.537 34.025,304.737 32.689,304.783 32.614 C 304.829 32.539,305.084 31.002,305.350 29.197 C 306.566 20.951,306.374 21.455,308.362 21.270 C 309.265 21.186,309.670 21.069,309.917 20.819 L 310.250 20.480 309.813 20.099 C 309.502 19.829,309.069 19.687,308.322 19.608 C 307.151 19.486,307.006 19.360,307.003 18.465 C 306.999 17.696,307.636 12.685,307.763 12.480 C 307.916 12.232,308.667 9.007,308.663 8.614 C 308.647 7.082,306.839 11.082,306.485 13.434 C 306.317 14.546,306.106 15.634,306.017 15.853 C 305.927 16.071,305.734 16.822,305.587 17.522 C 305.225 19.241,305.155 19.288,302.694 19.465 C 300.110 19.650,300.126 19.636,299.476 22.273 C 299.208 23.360,298.765 25.150,298.490 26.250 C 298.216 27.350,297.810 29.057,297.589 30.043 C 296.995 32.692,296.750 32.927,293.917 33.554 C 290.598 34.289,288.152 36.453,284.690 41.721 C 284.219 42.438,283.833 43.057,283.833 43.096 C 283.833 43.136,283.639 43.562,283.402 44.042 C 283.165 44.523,282.685 45.740,282.336 46.747 C 281.148 50.175,280.667 49.720,280.667 45.168 C 280.667 39.189,279.717 36.582,276.654 34.157 C 275.346 33.120,271.784 33.112,269.586 34.141 C 266.360 35.651,261.962 41.511,260.500 46.250 C 260.387 46.617,260.195 47.142,260.073 47.417 C 259.952 47.692,259.771 48.234,259.671 48.622 C 259.163 50.588,257.534 49.694,257.718 47.550 C 258.466 38.825,258.249 37.246,255.959 34.746 C 254.470 33.119,253.715 32.800,251.363 32.801 C 245.628 32.803,241.237 37.226,239.499 44.750 C 239.308 45.575,239.081 46.438,238.993 46.667 C 238.150 48.864,237.297 63.470,237.810 66.917 C 238.521 71.691,239.478 73.509,241.676 74.263 C 244.488 75.228,247.155 74.042,249.221 70.908 C 249.460 70.546,250.006 69.764,250.434 69.169 C 251.292 67.978,252.993 64.797,253.331 63.750 C 254.021 61.610,254.937 60.500,256.012 60.500 C 257.645 60.500,257.837 60.925,257.416 63.607 C 256.791 67.599,258.217 73.583,260.160 75.119 C 261.318 76.035,264.057 76.532,265.421 76.075 C 268.475 75.051,270.061 73.481,272.182 69.380 C 272.891 68.011,274.333 64.798,274.333 64.590 C 274.333 64.546,274.509 64.114,274.724 63.630 C 274.939 63.146,275.210 62.507,275.327 62.210 C 275.812 60.976,277.373 60.133,278.652 60.413 C 279.430 60.584,279.491 60.788,279.576 63.515 C 279.620 64.927,279.728 66.496,279.816 67.000 C 280.027 68.217,280.795 71.330,280.988 71.750 C 281.071 71.933,281.325 72.504,281.550 73.018 C 282.090 74.249,283.584 75.743,284.815 76.283 C 285.329 76.509,285.930 76.781,286.150 76.888 C 287.826 77.705,291.628 76.906,293.167 75.413 C 293.887 74.714,294.778 74.223,294.972 74.417 C 295.078 74.523,294.423 75.820,293.583 77.167 C 293.269 77.671,292.938 78.248,292.847 78.448 C 292.757 78.649,292.463 79.287,292.195 79.865 C 291.927 80.443,291.651 81.104,291.582 81.333 C 291.513 81.563,291.008 82.688,290.462 83.833 C 288.942 87.016,288.886 87.145,288.318 88.750 C 286.810 93.006,286.987 95.648,289.075 100.083 C 289.644 101.292,290.665 103.949,290.779 104.518 C 290.832 104.787,290.940 105.046,291.017 105.094 C 291.094 105.142,291.240 105.496,291.341 105.882 C 291.443 106.268,291.829 107.248,292.200 108.061 C 292.811 109.398,292.864 109.619,292.758 110.394 C 291.899 116.677,292.324 117.591,296.404 118.223 C 297.927 118.459,298.041 118.570,298.492 120.250 C 298.867 121.649,299.437 122.998,299.739 123.206 C 300.137 123.479,300.942 123.331,301.302 122.917 C 301.761 122.389,302.424 122.376,303.467 122.873 C 304.136 123.191,304.529 123.245,306.167 123.246 C 308.253 123.247,308.342 123.219,310.520 121.886 C 311.425 121.332,311.553 121.304,314.187 121.081 C 317.600 120.792,322.959 120.222,324.264 120.009 C 328.473 119.322,329.599 119.090,330.917 118.639 C 340.430 115.384,347.637 103.384,345.001 95.190 C 344.834 94.673,344.530 93.500,344.325 92.583 C 344.120 91.667,343.897 90.842,343.831 90.750 C 343.764 90.658,343.578 89.985,343.418 89.253 C 343.258 88.522,342.900 87.247,342.622 86.420 C 341.716 83.726,341.809 80.272,342.839 78.287 C 343.265 77.466,343.264 77.453,342.596 76.355 C 341.489 74.534,339.576 72.833,338.635 72.833 C 337.681 72.833,335.496 72.261,335.305 71.961 C 335.113 71.657,335.137 70.470,335.347 69.865 C 335.837 68.459,337.466 69.133,340.423 71.966 C 342.921 74.359,344.205 75.154,346.251 75.574 C 349.146 76.169,352.167 76.832,353.083 77.075 C 354.623 77.482,358.253 77.585,360.252 77.277 C 362.991 76.856,364.833 76.198,369.002 74.150 C 372.918 72.226,372.996 71.871,369.566 71.556 C 368.384 71.448,367.079 71.276,366.667 71.174 C 366.254 71.071,365.026 70.800,363.937 70.572 C 362.848 70.343,361.836 70.093,361.687 70.017 C 361.538 69.941,360.854 69.747,360.167 69.586 C 359.479 69.424,358.692 69.196,358.417 69.079 C 358.142 68.961,357.354 68.682,356.667 68.459 C 355.979 68.235,354.617 67.761,353.639 67.405 C 351.863 66.758,351.862 66.758,351.250 67.050 L 350.639 67.341 349.833 66.483 L 349.027 65.625 346.555 65.735 C 343.319 65.879,340.042 66.440,339.583 66.928 C 338.882 67.675,336.510 68.034,336.278 67.429 C 336.079 66.911,336.546 65.933,337.390 65.097 C 338.440 64.058,339.168 63.829,342.733 63.416 C 344.098 63.259,345.448 63.059,345.733 62.973 C 346.017 62.888,346.925 62.636,347.750 62.415 C 352.223 61.216,354.812 59.723,356.826 57.183 C 357.073 56.870,357.388 56.667,357.623 56.667 C 358.047 56.667,358.166 56.781,359.775 58.750 C 360.974 60.218,361.871 61.009,362.704 61.338 C 363.004 61.456,363.552 61.685,363.922 61.847 C 364.291 62.009,365.229 62.262,366.005 62.409 C 366.781 62.557,367.679 62.747,368.000 62.832 C 368.831 63.052,374.153 63.217,374.748 63.041 C 375.132 62.927,375.286 62.751,375.422 62.264 C 375.695 61.293,376.986 61.134,378.448 61.890 C 379.836 62.608,381.735 62.635,392.222 62.092 C 397.655 61.810,397.333 61.938,397.333 60.061 L 397.333 58.662 396.437 58.266 C 395.944 58.048,395.138 57.784,394.645 57.679 C 393.648 57.466,389.677 56.189,389.417 55.997 C 389.325 55.929,389.063 55.819,388.833 55.751 C 388.359 55.610,382.258 53.236,381.750 52.994 C 381.567 52.907,381.080 52.720,380.669 52.578 C 380.258 52.437,379.771 52.225,379.586 52.109 C 378.767 51.593,376.142 50.833,375.177 50.833 C 374.501 50.833,370.509 51.693,369.639 52.026 C 369.394 52.119,368.419 52.372,367.472 52.587 C 365.188 53.106,362.922 53.771,362.011 54.190 C 360.962 54.673,359.625 54.787,359.092 54.437 L 358.672 54.163 359.265 53.123 C 360.118 51.629,360.958 49.797,361.539 48.167 C 362.024 46.804,362.282 45.946,363.243 42.500 C 363.486 41.629,363.771 40.743,363.876 40.531 C 364.013 40.255,364.017 40.065,363.891 39.864 C 363.632 39.453,363.127 39.521,362.888 40.000 C 362.691 40.395,362.533 40.863,361.593 43.833 C 361.177 45.150,360.408 47.020,359.881 48.000 C 357.268 52.853,356.551 53.565,352.391 55.441 C 348.381 57.248,347.734 57.417,344.800 57.417 C 343.099 57.417,342.288 57.355,342.148 57.214 C 341.948 57.015,342.489 54.523,342.827 54.083 C 342.898 53.992,343.126 53.392,343.333 52.750 C 343.541 52.108,343.763 51.508,343.827 51.417 C 343.890 51.325,344.078 50.875,344.243 50.417 C 344.409 49.958,344.722 49.187,344.939 48.703 C 345.156 48.219,345.333 47.785,345.333 47.738 C 345.333 47.640,347.096 43.482,347.841 41.820 C 348.112 41.217,348.333 40.672,348.333 40.610 C 348.333 40.547,348.480 40.178,348.660 39.790 C 350.976 34.774,351.690 31.104,350.953 28.000 C 350.790 27.313,350.476 25.813,350.256 24.667 C 350.035 23.521,349.737 22.026,349.592 21.345 C 349.447 20.664,349.221 19.126,349.090 17.928 C 348.958 16.730,348.701 14.963,348.520 14.000 C 347.967 11.067,347.782 7.804,348.008 4.973 C 348.233 2.143,348.046 1.309,347.389 2.208 M346.580 12.469 C 346.758 15.398,347.535 20.709,348.243 23.833 C 348.899 26.730,348.983 30.985,348.440 33.750 C 347.983 36.073,346.367 41.366,346.004 41.730 C 345.910 41.823,345.833 41.997,345.833 42.116 C 345.833 42.334,344.840 44.681,344.076 46.267 C 343.851 46.734,343.667 47.169,343.667 47.233 C 343.667 47.614,342.461 49.847,342.288 49.787 C 341.647 49.562,342.491 45.518,343.757 42.750 C 343.883 42.475,344.148 41.800,344.347 41.250 C 344.545 40.700,344.774 40.179,344.854 40.092 C 344.934 40.005,344.997 39.817,344.993 39.675 C 344.989 39.533,344.407 40.542,343.701 41.917 C 342.114 45.005,341.569 45.352,341.601 43.250 C 341.619 42.095,341.681 41.875,343.149 37.764 C 343.590 36.530,343.508 36.396,342.985 37.497 C 342.730 38.035,342.483 38.333,342.294 38.333 C 341.668 38.333,342.034 34.287,342.811 32.615 C 344.109 29.819,345.174 27.285,345.086 27.197 C 345.046 27.158,344.832 27.528,344.609 28.021 C 342.951 31.686,342.757 31.958,342.345 31.189 C 342.169 30.860,342.538 26.720,342.829 25.750 C 343.134 24.738,343.702 21.313,343.585 21.200 C 342.625 20.275,340.768 29.385,340.677 35.464 C 340.661 36.547,340.270 36.581,339.385 35.576 C 338.397 34.453,338.478 34.877,339.493 36.141 C 341.557 38.714,340.901 41.140,338.773 38.800 C 338.256 38.232,337.833 37.816,337.833 37.875 C 337.833 38.023,338.734 39.362,339.689 40.635 C 340.549 41.782,340.815 42.537,340.494 42.923 C 340.160 43.327,339.962 43.208,338.837 41.921 C 338.243 41.242,337.724 40.720,337.684 40.761 C 337.643 40.801,337.762 41.003,337.949 41.209 C 338.135 41.415,338.729 42.209,339.269 42.974 C 339.808 43.738,340.354 44.509,340.482 44.687 C 340.733 45.036,341.221 48.734,341.076 49.190 C 340.772 50.147,339.529 49.074,337.635 46.220 C 334.627 41.687,333.630 38.068,334.545 35.000 C 334.696 34.496,335.041 33.333,335.313 32.417 C 336.467 28.525,338.040 24.846,340.231 20.917 C 340.537 20.367,341.144 19.242,341.579 18.417 C 342.014 17.592,342.579 16.542,342.834 16.083 C 343.090 15.625,343.802 14.275,344.416 13.083 C 346.193 9.634,346.404 9.574,346.580 12.469 M115.533 13.533 C 115.247 13.820,115.284 14.511,115.693 16.500 C 116.020 18.091,116.035 18.394,115.855 19.833 C 115.556 22.235,114.415 27.052,114.023 27.572 C 113.309 28.517,112.910 30.674,113.345 31.228 C 114.506 32.702,117.811 29.892,119.768 25.767 C 121.064 23.036,120.972 18.397,119.578 16.143 C 118.339 14.140,116.265 12.802,115.533 13.533 M93.022 15.958 C 92.924 16.394,92.720 17.837,92.570 19.167 C 92.223 22.232,92.275 22.167,90.151 22.167 C 89.254 22.167,88.474 22.240,88.419 22.330 C 88.172 22.729,88.687 23.131,89.786 23.398 C 92.264 24.001,92.484 24.243,92.182 26.025 C 92.084 26.607,91.852 28.208,91.666 29.583 C 91.481 30.958,91.254 32.458,91.163 32.917 C 91.072 33.375,90.811 34.950,90.583 36.417 C 90.355 37.883,90.125 39.196,90.071 39.333 C 90.018 39.471,89.757 40.821,89.492 42.333 C 87.840 51.762,87.925 51.523,86.149 51.767 C 84.985 51.926,84.942 51.802,85.175 48.970 C 85.368 46.637,85.298 44.167,85.006 43.000 C 83.884 38.517,82.858 36.888,80.752 36.246 C 77.285 35.188,74.942 36.153,72.281 39.732 C 68.018 45.468,66.404 49.456,64.716 58.417 C 64.026 62.081,64.333 68.457,65.369 72.000 C 68.270 81.914,73.799 81.881,79.286 71.917 C 80.316 70.045,82.002 66.311,82.259 65.333 C 82.805 63.247,83.689 62.365,85.032 62.567 C 85.957 62.706,86.195 63.101,86.004 64.180 C 85.646 66.199,85.637 71.835,85.991 72.556 C 86.802 74.214,88.046 74.384,90.441 73.164 C 92.359 72.187,93.008 71.543,93.322 70.304 C 93.445 69.816,93.679 68.996,93.842 68.482 C 94.005 67.968,94.259 66.881,94.408 66.066 C 94.556 65.250,94.751 64.396,94.841 64.167 C 95.006 63.749,95.643 59.441,96.079 55.807 C 96.393 53.191,96.476 52.797,97.024 51.296 C 98.509 47.225,101.711 43.669,103.081 44.567 C 104.080 45.221,104.611 49.006,104.090 51.766 C 103.936 52.582,103.699 53.850,103.564 54.583 C 103.430 55.317,103.215 56.217,103.088 56.583 C 102.961 56.950,102.727 57.737,102.569 58.333 C 102.412 58.929,102.186 59.604,102.068 59.833 C 101.949 60.063,101.700 60.680,101.513 61.205 C 101.327 61.730,101.101 62.292,101.013 62.455 C 100.924 62.617,100.468 63.538,100.000 64.500 C 98.519 67.544,97.601 68.683,95.948 69.526 C 93.290 70.882,91.910 74.756,93.426 76.606 C 94.548 77.975,95.462 78.205,97.108 77.535 C 103.361 74.989,107.447 66.926,108.590 54.883 C 109.455 45.760,109.226 41.740,107.670 38.709 C 106.145 35.740,104.242 35.142,99.849 36.250 C 98.303 36.639,98.215 36.518,98.564 34.476 C 99.275 30.316,99.667 28.255,99.852 27.696 C 100.793 24.852,98.757 22.167,95.659 22.167 C 94.572 22.167,94.434 22.127,93.987 21.679 L 93.500 21.192 93.500 18.179 C 93.500 15.152,93.355 14.478,93.022 15.958 M48.417 17.013 C 48.142 17.093,46.904 17.346,45.667 17.575 C 43.293 18.015,40.588 18.703,39.750 19.080 C 39.475 19.203,38.800 19.432,38.250 19.589 C 37.700 19.745,37.175 19.930,37.083 19.998 C 36.992 20.066,36.467 20.287,35.917 20.489 C 32.341 21.798,27.105 24.677,24.250 26.903 C 14.478 34.521,10.499 39.274,7.291 47.167 C 6.027 50.275,5.671 55.997,6.614 58.039 C 8.652 62.450,14.393 62.479,16.629 58.089 C 17.807 55.777,17.547 54.506,15.331 51.741 C 14.600 50.829,13.889 49.937,13.751 49.758 C 13.125 48.946,13.531 47.948,16.093 44.000 C 17.235 42.241,24.455 35.467,26.665 34.081 C 28.430 32.974,36.825 28.877,38.464 28.322 C 38.988 28.145,39.567 27.927,39.750 27.838 C 40.094 27.671,42.654 26.984,44.417 26.585 C 44.967 26.460,46.054 26.277,46.833 26.177 C 47.612 26.077,48.550 25.921,48.917 25.830 C 49.936 25.577,54.076 25.376,55.175 25.526 C 59.613 26.133,63.425 31.826,62.099 35.869 C 61.970 36.262,61.738 37.033,61.583 37.583 C 60.598 41.082,56.663 46.910,53.115 50.125 C 51.469 51.618,49.253 53.050,48.809 52.909 C 48.425 52.787,48.437 50.503,48.829 49.261 C 48.917 48.980,49.178 47.813,49.408 46.667 C 49.902 44.211,50.384 41.961,50.837 40.000 C 51.577 36.798,51.859 33.022,51.422 32.177 C 51.007 31.375,49.331 30.824,46.975 30.713 C 43.969 30.572,43.875 30.646,43.425 33.487 C 43.274 34.443,43.106 35.297,43.051 35.386 C 42.996 35.475,42.740 36.512,42.481 37.691 C 42.223 38.871,41.782 40.829,41.500 42.043 C 40.687 45.553,40.036 48.871,39.587 51.792 C 39.359 53.282,39.097 54.819,39.006 55.209 C 38.915 55.598,38.725 56.779,38.584 57.833 C 38.442 58.887,38.215 60.275,38.078 60.917 C 37.834 62.065,37.359 64.779,36.582 69.460 C 36.365 70.767,36.136 72.001,36.072 72.203 C 36.008 72.404,35.736 73.810,35.468 75.326 C 35.199 76.843,34.749 79.321,34.467 80.833 C 33.441 86.326,33.738 88.168,35.716 88.591 C 36.010 88.654,36.325 88.764,36.417 88.837 C 36.508 88.909,36.958 89.024,37.417 89.090 C 39.227 89.355,39.468 89.661,39.081 91.206 C 38.664 92.871,37.601 99.318,37.438 101.167 L 37.343 102.250 37.595 101.417 C 37.906 100.389,39.345 95.164,40.212 91.917 C 40.717 90.027,41.001 89.482,41.834 88.813 C 42.629 88.174,42.657 87.968,42.011 87.508 C 41.253 86.968,41.255 86.935,42.333 81.333 C 42.624 79.821,43.074 77.346,43.331 75.833 C 43.589 74.321,43.843 72.971,43.895 72.833 C 43.947 72.696,44.108 71.646,44.253 70.500 C 44.720 66.793,46.800 64.026,49.136 64.004 C 50.434 63.991,50.986 65.895,51.341 71.611 C 51.616 76.042,52.598 79.871,54.004 82.000 C 54.095 82.137,54.259 82.438,54.368 82.667 C 55.348 84.717,58.327 87.677,60.273 88.533 C 60.535 88.649,60.788 88.789,60.833 88.845 C 60.879 88.901,61.779 89.240,62.833 89.599 L 64.750 90.250 67.417 90.245 C 72.307 90.236,75.048 88.260,75.041 84.750 C 75.034 81.202,72.506 79.549,69.328 81.014 C 67.098 82.041,65.454 81.774,63.428 80.056 C 63.068 79.750,62.682 79.500,62.570 79.500 C 62.181 79.500,60.414 78.474,60.038 78.030 C 58.039 75.669,57.710 74.589,57.410 69.417 C 57.277 67.125,57.123 65.025,57.067 64.750 C 56.875 63.799,56.293 62.078,55.743 60.833 C 54.787 58.672,54.759 58.838,56.350 57.280 C 58.921 54.763,60.249 53.191,61.726 50.917 C 62.084 50.367,62.502 49.729,62.657 49.500 C 62.912 49.122,63.730 47.471,64.638 45.500 C 65.622 43.364,66.566 40.070,67.027 37.167 C 67.230 35.888,67.111 30.515,66.861 29.667 C 66.767 29.346,66.610 28.408,66.514 27.583 C 66.122 24.228,63.197 20.518,59.376 18.532 C 56.615 17.096,50.866 16.300,48.417 17.013 M140.825 29.666 C 138.711 30.195,135.546 32.496,130.867 36.908 C 129.033 38.637,129.652 39.641,131.632 38.148 C 135.638 35.126,135.712 35.086,135.806 35.909 C 135.882 36.577,135.369 41.178,135.080 42.417 C 134.951 42.967,134.729 44.279,134.586 45.333 C 134.443 46.387,134.215 47.775,134.080 48.417 C 133.741 50.018,133.049 54.758,132.584 58.667 C 132.371 60.454,132.115 62.404,132.015 63.000 C 131.915 63.596,131.680 65.583,131.493 67.417 C 131.307 69.250,131.113 70.862,131.064 71.000 C 131.014 71.137,130.795 72.868,130.577 74.845 C 130.359 76.823,130.113 78.623,130.030 78.845 C 129.947 79.068,129.826 79.625,129.761 80.083 C 129.696 80.542,129.498 81.492,129.321 82.196 C 128.864 84.013,128.870 84.024,131.718 86.417 C 133.887 88.239,133.994 88.772,133.075 93.167 C 132.950 93.763,132.692 95.518,132.501 97.069 C 132.309 98.619,132.117 99.945,132.074 100.015 C 131.958 100.203,131.489 103.878,131.570 103.959 C 131.731 104.120,132.006 103.269,132.423 101.322 C 132.667 100.182,133.084 98.275,133.350 97.083 C 133.616 95.892,134.017 94.054,134.241 93.000 C 134.930 89.753,135.456 88.006,135.939 87.359 C 136.530 86.569,138.094 84.762,139.641 83.083 C 141.772 80.771,142.714 79.042,142.440 77.948 C 142.296 77.377,142.083 77.380,141.718 77.958 C 140.900 79.253,138.894 81.475,138.353 81.687 C 137.128 82.166,136.943 81.141,137.505 77.000 C 138.187 71.976,139.627 61.611,140.317 56.750 C 140.591 54.825,141.007 51.825,141.242 50.083 C 141.478 48.342,141.712 46.804,141.763 46.667 C 141.813 46.529,142.040 45.487,142.266 44.350 C 142.493 43.214,142.729 42.201,142.791 42.101 C 142.899 41.926,143.561 40.101,144.097 38.500 C 144.740 36.577,144.542 32.753,143.710 31.028 C 143.081 29.726,142.218 29.319,140.825 29.666 M297.170 40.626 C 297.573 41.138,297.597 42.139,297.241 43.667 C 296.577 46.522,295.949 49.645,295.584 51.917 C 295.363 53.292,295.106 54.717,295.014 55.083 C 294.921 55.450,294.764 56.411,294.665 57.220 C 294.504 58.533,293.392 62.409,293.037 62.894 C 292.961 62.998,292.721 63.608,292.504 64.250 C 291.764 66.434,290.732 67.500,289.358 67.500 C 288.061 67.500,287.650 66.800,287.161 63.760 C 286.983 62.654,286.755 61.324,286.654 60.802 C 286.402 59.500,286.890 56.908,288.312 52.000 C 288.591 51.038,289.040 49.462,289.311 48.500 C 290.768 43.320,292.578 40.757,295.142 40.245 C 296.307 40.012,296.754 40.096,297.170 40.626 M249.454 41.542 C 250.357 42.705,250.375 44.896,249.490 45.758 C 246.598 48.572,245.683 52.029,246.939 55.395 C 248.168 58.692,248.118 61.296,246.779 63.685 C 245.489 65.984,244.911 66.280,244.144 65.034 C 241.975 61.515,242.335 54.140,245.088 45.667 C 246.005 42.847,248.579 40.414,249.454 41.542 M271.139 42.875 C 271.994 44.265,272.320 45.649,271.971 46.413 C 271.754 46.889,271.570 46.949,269.977 47.053 C 267.290 47.229,266.885 48.372,267.473 54.113 C 267.850 57.794,267.931 58.003,269.370 59.012 C 270.452 59.771,270.639 60.186,270.369 61.229 C 270.138 62.125,269.232 64.770,268.937 65.414 C 268.810 65.690,268.621 66.185,268.517 66.512 C 267.727 68.994,264.755 68.870,263.997 66.323 C 263.364 64.196,263.217 59.529,263.757 58.656 C 263.794 58.595,263.979 57.579,264.166 56.397 C 264.353 55.216,264.647 53.762,264.818 53.167 C 265.569 50.552,265.836 49.676,266.233 48.524 C 266.465 47.850,266.720 47.213,266.801 47.108 C 266.881 47.003,267.075 46.588,267.232 46.185 C 267.832 44.641,269.753 42.333,270.438 42.333 C 270.674 42.333,270.926 42.528,271.139 42.875 M77.967 45.553 C 78.261 46.368,78.207 46.819,77.703 47.775 C 77.454 48.247,76.876 49.368,76.419 50.267 L 75.589 51.901 75.586 53.659 C 75.583 55.342,75.609 55.470,76.188 56.667 C 77.313 58.989,77.333 59.060,77.333 60.583 C 77.333 62.051,77.272 62.283,76.409 64.083 C 74.664 67.724,74.073 68.500,73.048 68.500 C 71.781 68.500,71.211 66.138,71.642 62.667 C 72.012 59.686,72.523 56.230,72.688 55.587 C 72.783 55.218,73.009 54.279,73.189 53.500 C 73.799 50.862,75.391 46.615,76.024 45.935 C 76.194 45.753,76.333 45.554,76.333 45.494 C 76.333 45.333,77.030 45.024,77.425 45.011 C 77.665 45.003,77.826 45.164,77.967 45.553 M149.881 45.401 C 148.349 45.896,146.748 47.127,144.968 49.178 C 143.430 50.951,143.384 51.282,144.656 51.453 C 145.682 51.591,145.805 52.591,145.163 55.583 C 144.522 58.568,143.624 67.398,143.346 73.433 C 143.253 75.459,143.108 77.298,143.024 77.520 C 142.810 78.082,142.281 85.625,142.364 86.926 C 142.493 88.944,144.380 90.167,145.576 89.007 C 146.309 88.296,146.564 88.525,146.525 89.860 C 146.494 90.968,146.157 98.780,146.110 99.500 C 146.093 99.771,146.171 99.917,146.333 99.917 C 146.632 99.917,146.682 99.642,147.242 94.917 C 147.471 92.992,147.698 91.229,147.747 91.000 C 147.796 90.771,148.059 88.783,148.331 86.583 C 149.232 79.285,149.422 78.165,149.984 76.844 C 150.245 76.232,150.777 75.173,151.167 74.490 C 152.094 72.867,152.249 72.589,154.742 68.083 C 155.908 65.975,157.093 63.837,157.376 63.333 C 157.658 62.829,158.055 62.117,158.259 61.750 C 160.872 57.034,160.913 57.047,160.784 62.542 C 160.687 66.656,160.300 71.836,160.002 73.000 C 159.695 74.199,159.463 79.363,159.654 80.735 C 160.009 83.287,161.677 85.167,163.587 85.167 C 164.679 85.167,168.953 80.556,171.236 76.917 C 171.868 75.908,172.552 74.821,172.757 74.500 C 173.160 73.867,175.812 69.511,176.083 69.035 C 176.175 68.875,176.456 68.394,176.708 67.967 C 177.250 67.050,177.281 66.656,176.845 66.261 C 176.270 65.740,175.701 66.258,174.661 68.250 C 170.918 75.417,165.300 81.293,165.144 78.204 C 165.029 75.957,165.534 65.544,165.823 64.167 C 166.589 60.525,166.763 50.852,166.092 49.245 C 165.527 47.892,164.258 47.117,163.242 47.503 C 162.153 47.917,157.358 53.155,155.234 56.250 C 154.705 57.021,153.327 59.605,152.748 60.910 C 151.932 62.751,151.513 63.359,151.103 63.300 C 150.661 63.237,150.655 62.768,151.054 59.206 C 151.346 56.602,151.441 56.107,152.335 52.500 C 153.069 49.540,153.104 48.991,152.664 47.363 C 152.107 45.297,151.508 44.875,149.881 45.401 M378.047 54.223 C 379.310 54.469,380.473 54.743,380.630 54.830 C 380.788 54.918,381.742 55.151,382.750 55.346 C 383.758 55.542,384.658 55.750,384.750 55.809 C 384.842 55.868,385.554 56.104,386.333 56.334 C 387.654 56.724,387.754 56.785,387.805 57.232 L 387.860 57.712 386.472 57.594 C 384.975 57.466,383.708 57.298,378.167 56.494 C 374.531 55.967,370.977 55.705,367.120 55.680 C 365.381 55.669,364.972 55.620,364.893 55.415 C 364.638 54.752,365.560 54.480,369.404 54.087 C 370.771 53.947,371.934 53.789,371.986 53.736 C 372.211 53.511,375.922 53.809,378.047 54.223 M365.667 56.600 C 366.843 57.275,370.430 58.626,370.597 58.458 C 370.638 58.417,370.066 58.110,369.324 57.776 C 368.160 57.251,367.984 57.118,368.030 56.793 C 368.117 56.178,370.931 56.230,372.013 56.865 C 373.095 57.501,375.008 58.440,375.500 58.576 C 376.086 58.739,375.202 58.120,374.208 57.671 C 373.726 57.454,373.500 57.248,373.500 57.027 C 373.500 56.425,373.227 56.413,379.917 57.322 C 386.972 58.282,389.421 58.647,389.917 58.816 C 390.192 58.909,390.942 59.067,391.583 59.166 C 393.431 59.450,393.820 59.728,392.994 60.170 C 392.099 60.649,380.530 60.841,377.003 60.434 C 375.169 60.223,374.844 60.224,374.253 60.444 C 373.635 60.674,372.625 60.776,367.833 61.093 C 364.635 61.305,362.165 60.190,360.124 57.613 L 359.603 56.955 359.987 56.644 C 360.198 56.473,360.492 56.333,360.641 56.333 C 360.947 56.333,365.720 58.682,365.806 58.875 C 365.888 59.061,366.333 59.026,366.333 58.833 C 366.333 58.742,366.260 58.667,366.170 58.667 C 365.775 58.667,363.500 56.967,363.500 56.672 C 363.500 56.041,364.626 56.004,365.667 56.600 M347.750 59.398 C 347.750 59.875,346.627 60.133,343.667 60.336 C 337.337 60.771,336.407 60.930,334.518 61.908 C 333.204 62.587,331.107 64.772,330.666 65.922 C 330.594 66.108,330.383 66.596,330.195 67.005 C 329.441 68.655,329.425 68.824,329.420 75.083 L 329.416 81.083 328.990 81.825 C 328.203 83.197,326.809 83.578,325.851 82.683 C 325.254 82.125,325.213 81.736,325.597 80.250 C 326.213 77.868,326.321 77.004,326.330 74.417 C 326.357 66.521,328.343 62.219,332.906 60.171 C 335.178 59.152,347.750 58.497,347.750 59.398 M337.572 62.321 C 338.033 62.831,337.848 63.242,337.131 63.301 C 335.995 63.396,335.452 62.786,336.204 62.259 C 336.703 61.910,337.221 61.933,337.572 62.321 M335.833 64.344 C 335.833 64.924,335.541 65.281,334.835 65.563 C 333.529 66.086,332.719 65.753,333.183 64.885 C 333.633 64.044,335.833 63.595,335.833 64.344 M333.583 67.000 C 333.583 67.313,332.569 67.833,331.958 67.833 C 331.421 67.833,331.344 67.449,331.783 66.964 C 332.142 66.567,333.583 66.596,333.583 67.000 M323.127 67.542 C 324.540 69.047,325.022 72.761,324.259 76.250 C 324.099 76.983,323.797 78.408,323.588 79.417 C 322.873 82.873,322.091 85.406,320.969 87.903 C 320.613 88.694,319.251 91.383,318.978 91.833 C 318.839 92.063,318.439 92.737,318.089 93.333 C 315.549 97.660,310.824 103.835,307.573 107.077 C 306.742 107.906,305.288 109.331,304.341 110.246 C 303.394 111.160,302.091 112.510,301.445 113.246 C 299.296 115.694,297.177 116.066,296.214 114.163 C 295.495 112.743,296.481 111.312,297.360 112.500 C 298.170 113.597,298.416 113.000,297.647 111.802 C 297.255 111.192,297.150 110.873,297.223 110.510 C 297.288 110.184,297.235 109.960,297.059 109.813 C 296.196 109.097,294.913 106.517,294.167 104.000 C 291.745 95.823,291.102 89.884,292.429 87.940 C 292.612 87.672,293.971 86.626,295.168 85.833 C 296.262 85.108,297.523 84.134,297.455 84.066 C 297.319 83.930,295.649 84.660,294.851 85.203 C 294.429 85.490,293.870 85.869,293.609 86.046 C 292.950 86.492,292.672 86.209,293.030 85.458 C 293.205 85.091,293.776 84.588,294.770 83.924 C 295.584 83.380,296.287 82.894,296.333 82.843 C 296.606 82.539,297.860 81.660,298.450 81.359 C 299.150 81.001,299.441 80.719,299.278 80.555 C 299.155 80.433,297.136 81.478,295.704 82.404 C 294.148 83.411,293.831 83.349,294.383 82.146 C 294.933 80.946,295.710 80.394,299.667 78.395 C 300.996 77.723,301.971 77.173,301.833 77.172 C 301.184 77.169,297.205 78.728,296.781 79.152 C 296.067 79.866,296.266 78.297,297.023 77.243 C 297.635 76.391,298.399 75.881,299.904 75.321 C 300.448 75.119,301.128 74.815,301.416 74.645 C 302.010 74.295,303.774 73.677,304.198 73.671 C 304.354 73.669,304.534 73.580,304.599 73.475 C 304.686 73.334,304.446 73.307,303.703 73.374 C 302.444 73.489,302.381 73.428,303.099 72.797 C 303.415 72.519,304.205 71.586,304.854 70.722 C 306.493 68.542,306.409 68.582,309.326 68.590 C 310.659 68.594,312.425 68.685,313.250 68.794 C 315.160 69.045,321.500 69.190,321.500 68.982 C 321.500 68.897,321.237 68.703,320.917 68.550 C 320.174 68.196,320.113 67.608,320.792 67.360 C 321.656 67.045,322.740 67.129,323.127 67.542 M346.833 68.082 C 347.521 68.234,348.608 68.533,349.250 68.746 C 349.892 68.959,351.429 69.449,352.667 69.835 C 353.904 70.221,355.560 70.748,356.345 71.005 C 357.131 71.263,358.069 71.527,358.429 71.592 C 359.214 71.734,359.512 71.942,359.389 72.262 C 359.259 72.601,358.202 72.564,356.508 72.161 C 355.724 71.975,354.183 71.637,353.083 71.411 C 348.618 70.495,347.889 70.331,347.250 70.100 C 346.883 69.967,345.983 69.704,345.250 69.515 C 343.109 68.963,342.590 68.741,342.530 68.350 C 342.489 68.080,342.566 67.999,342.863 67.997 C 343.076 67.996,343.363 67.918,343.500 67.823 C 343.810 67.611,345.187 67.718,346.833 68.082 M333.275 68.756 C 333.330 68.897,333.255 69.144,333.110 69.304 C 332.965 69.464,332.882 69.743,332.925 69.923 C 333.039 70.395,332.868 70.566,331.766 71.085 C 330.725 71.575,330.321 71.459,330.339 70.676 C 330.361 69.711,332.984 67.996,333.275 68.756 M341.535 69.448 C 341.653 69.603,342.181 70.160,342.708 70.687 C 344.572 72.549,343.716 72.971,341.767 71.150 C 340.454 69.924,340.298 69.635,340.792 69.347 C 341.194 69.112,341.288 69.125,341.535 69.448 M343.914 69.829 C 343.969 69.918,344.304 70.069,344.659 70.165 C 345.119 70.288,345.400 70.501,345.640 70.909 C 346.004 71.527,347.427 72.660,347.833 72.656 C 347.971 72.655,347.715 72.329,347.265 71.933 C 346.211 71.004,346.469 70.209,347.627 70.819 C 347.786 70.903,348.338 71.056,348.853 71.159 C 349.489 71.287,349.998 71.524,350.437 71.898 C 351.605 72.893,352.667 73.223,352.667 72.591 C 352.667 72.210,353.022 72.201,355.083 72.531 C 356.183 72.707,358.021 72.996,359.167 73.173 C 361.972 73.608,362.000 73.616,362.000 74.008 C 362.000 74.423,361.948 74.442,360.000 74.752 C 355.884 75.405,354.324 75.408,349.554 74.769 C 346.517 74.362,345.407 73.932,345.102 73.044 C 345.000 72.747,344.485 72.055,343.958 71.506 C 343.431 70.958,343.000 70.409,343.000 70.288 C 343.000 69.814,343.690 69.467,343.914 69.829 M319.430 71.528 C 319.391 71.650,319.190 72.451,318.984 73.308 C 318.475 75.416,317.854 75.589,317.603 73.693 C 317.544 73.252,317.379 72.748,317.235 72.571 C 316.977 72.256,316.975 72.256,317.082 72.583 C 317.818 74.837,318.004 77.297,317.550 78.749 C 317.140 80.057,316.732 80.185,316.588 79.052 C 316.532 78.611,316.422 78.025,316.343 77.750 C 316.116 76.954,316.144 78.437,316.389 80.167 C 316.629 81.863,316.497 82.980,315.921 84.126 C 315.690 84.588,315.500 85.048,315.500 85.149 C 315.500 86.325,314.775 84.262,314.474 82.226 C 314.367 81.506,314.208 80.842,314.120 80.750 C 313.924 80.544,314.063 81.632,314.526 83.917 C 314.937 85.943,314.863 87.052,314.249 88.101 C 313.581 89.239,313.204 88.754,313.176 86.722 C 313.165 85.934,313.036 85.500,312.811 85.500 C 312.642 85.500,312.749 87.151,313.021 88.757 C 313.163 89.594,313.144 89.883,312.911 90.466 C 312.420 91.694,312.093 91.379,311.950 89.538 C 311.883 88.678,311.760 88.351,311.574 88.537 C 311.523 88.588,311.550 89.397,311.635 90.334 C 311.728 91.358,311.729 92.306,311.638 92.710 C 311.387 93.829,308.428 98.844,306.935 100.682 C 306.741 100.920,306.358 101.401,306.083 101.750 C 303.776 104.684,300.507 107.904,299.125 108.604 C 298.051 109.149,298.028 109.750,299.080 109.750 C 299.673 109.750,299.752 109.799,299.830 110.213 C 299.914 110.662,299.946 110.640,300.870 109.463 C 301.394 108.796,302.144 107.904,302.536 107.482 C 309.550 99.932,312.214 95.711,315.724 86.583 C 316.041 85.758,316.390 84.746,316.500 84.333 C 316.610 83.921,316.759 83.508,316.831 83.417 C 317.179 82.977,319.721 73.232,319.891 71.685 C 319.925 71.379,319.521 71.241,319.430 71.528 M333.133 71.700 C 333.860 72.427,333.270 73.905,331.815 74.998 C 330.403 76.059,329.991 75.739,330.254 73.785 C 330.454 72.293,332.352 70.919,333.133 71.700 M333.338 75.762 C 333.567 76.365,333.377 76.944,332.806 77.378 C 332.536 77.583,332.029 77.994,331.679 78.292 C 330.920 78.938,330.708 78.964,330.507 78.435 C 330.256 77.776,330.492 77.299,331.564 76.296 C 332.692 75.240,333.093 75.119,333.338 75.762 M338.040 75.933 C 338.383 76.155,338.862 76.636,339.104 77.002 L 339.545 77.667 339.425 80.395 L 339.306 83.123 339.828 84.379 C 340.228 85.340,340.423 86.204,340.657 88.054 C 340.826 89.384,341.004 90.538,341.053 90.617 C 341.301 91.019,341.854 97.167,341.747 98.333 C 341.250 103.720,340.142 106.646,337.221 110.292 C 335.880 111.966,332.781 114.667,332.201 114.667 C 332.115 114.667,331.866 114.805,331.647 114.974 C 330.951 115.511,328.913 116.178,326.715 116.588 C 325.543 116.806,324.029 117.101,323.351 117.243 C 322.247 117.475,320.814 117.697,317.299 118.183 C 316.685 118.268,314.547 118.401,312.549 118.479 C 308.992 118.618,308.889 118.633,307.583 119.161 C 306.234 119.707,304.803 119.795,303.542 119.409 C 303.265 119.325,303.167 119.362,303.167 119.551 C 303.167 120.221,306.862 120.532,307.984 119.957 C 308.910 119.483,309.482 119.709,308.921 120.328 C 308.155 121.175,305.678 121.710,304.219 121.344 C 301.030 120.543,299.877 118.713,301.074 116.351 C 301.514 115.483,301.982 115.032,307.250 110.400 C 311.220 106.910,311.653 106.508,314.928 103.284 C 317.761 100.493,318.756 99.645,319.985 98.966 C 320.285 98.801,320.500 98.548,320.500 98.360 C 320.500 98.127,320.748 97.938,321.402 97.673 C 322.792 97.108,323.704 96.380,323.499 95.998 C 323.253 95.538,323.298 95.218,323.625 95.101 C 323.785 95.044,324.329 94.739,324.833 94.423 C 325.337 94.108,326.106 93.657,326.542 93.422 C 327.313 93.005,327.546 92.615,327.125 92.442 C 326.891 92.346,327.381 91.874,328.494 91.123 C 329.087 90.723,329.172 90.589,329.139 90.107 C 329.115 89.740,329.229 89.390,329.477 89.075 C 329.852 88.598,329.852 88.597,329.509 88.471 C 329.321 88.401,329.167 88.299,329.167 88.244 C 329.167 88.022,329.582 87.393,330.011 86.963 C 330.263 86.712,330.935 85.886,331.506 85.128 C 332.077 84.370,332.903 83.375,333.343 82.917 C 334.386 81.830,335.167 80.315,335.167 79.380 C 335.167 77.188,337.136 77.616,337.295 79.841 C 337.404 81.367,337.638 80.969,337.655 79.229 C 337.669 77.837,337.571 77.710,336.331 77.514 C 335.341 77.358,335.145 77.153,335.207 76.337 C 335.287 75.265,336.697 75.064,338.040 75.933 M306.944 78.958 C 306.453 80.449,304.697 83.958,303.003 86.833 C 301.277 89.762,300.665 90.909,300.421 91.667 C 300.258 92.171,300.060 92.655,299.980 92.742 C 299.743 92.997,299.803 94.000,300.055 94.000 C 300.176 94.000,300.795 93.175,301.430 92.167 C 302.064 91.159,302.865 89.903,303.209 89.375 C 303.985 88.187,304.950 86.188,305.281 85.083 C 305.565 84.139,305.797 83.577,306.589 81.917 C 307.753 79.479,308.281 77.167,307.673 77.167 C 307.597 77.167,307.269 77.973,306.944 78.958 M331.743 80.458 C 331.059 82.097,330.000 83.338,330.000 82.501 C 330.000 81.640,331.209 79.833,331.785 79.833 C 331.959 79.833,331.951 79.962,331.743 80.458 M326.909 84.372 C 328.669 85.328,328.672 85.278,326.681 87.633 C 325.017 89.600,322.861 89.008,323.839 86.852 L 324.171 86.120 325.169 86.224 C 326.249 86.337,326.488 86.145,325.636 85.848 C 324.579 85.479,324.223 84.772,324.707 83.998 C 325.011 83.510,325.464 83.587,326.909 84.372 M335.289 84.773 C 335.065 85.127,334.702 85.748,334.483 86.154 C 334.263 86.559,333.858 87.290,333.583 87.778 C 333.308 88.267,332.715 89.323,332.265 90.125 C 329.695 94.703,324.372 101.711,322.851 102.517 C 322.078 102.927,319.838 105.011,315.075 109.750 C 312.865 111.950,310.256 114.488,309.278 115.389 C 307.466 117.059,307.187 117.533,307.741 117.993 C 308.064 118.261,308.249 118.140,309.797 116.649 C 310.639 115.838,311.291 115.350,311.620 115.284 C 313.048 114.999,314.172 114.283,314.068 113.726 C 313.977 113.244,314.012 113.191,314.477 113.088 C 314.757 113.027,315.289 112.830,315.661 112.651 C 316.032 112.471,316.560 112.280,316.834 112.225 C 317.109 112.170,317.333 112.059,317.333 111.979 C 317.333 111.761,316.949 111.802,316.251 112.094 C 315.139 112.558,314.815 112.008,315.879 111.462 C 316.787 110.997,317.872 110.558,318.880 110.248 C 319.410 110.084,319.883 109.887,319.932 109.809 C 320.085 109.561,319.443 109.662,318.690 110.004 C 318.003 110.316,317.167 110.445,317.167 110.239 C 317.167 109.899,317.588 109.498,318.124 109.328 C 318.468 109.219,318.900 109.038,319.083 108.927 C 319.267 108.815,319.912 108.551,320.516 108.340 C 321.567 107.973,322.634 107.345,322.220 107.337 C 322.112 107.335,321.537 107.558,320.943 107.833 C 318.896 108.781,318.615 108.372,320.208 106.763 C 322.167 104.785,325.992 100.350,327.910 97.833 C 329.167 96.185,330.378 94.760,332.159 92.833 C 336.271 88.387,337.093 87.333,336.447 87.333 C 336.226 87.333,334.140 89.489,333.560 90.316 C 333.425 90.509,333.198 90.667,333.056 90.667 C 332.639 90.667,332.915 89.940,334.069 88.001 C 335.911 84.909,336.097 84.531,335.886 84.320 C 335.742 84.176,335.595 84.287,335.289 84.773 M324.409 89.193 C 324.988 89.457,324.946 89.682,324.143 90.615 C 322.728 92.259,321.788 91.961,322.560 90.113 C 323.001 89.059,323.533 88.794,324.409 89.193 M338.609 92.076 C 338.558 92.209,338.601 92.791,338.704 93.368 C 339.239 96.353,338.839 102.204,337.911 104.977 C 337.685 105.652,337.500 106.400,337.500 106.639 C 337.500 107.842,338.927 104.963,339.304 103.000 C 340.126 98.716,340.205 95.656,339.544 93.750 C 339.353 93.200,339.152 92.544,339.095 92.292 C 338.985 91.793,338.757 91.692,338.609 92.076 M303.925 97.875 C 303.890 97.990,303.734 98.627,303.579 99.292 C 303.221 100.829,302.362 101.721,301.843 101.095 C 301.689 100.910,301.703 100.687,301.906 100.089 C 302.202 99.218,302.233 98.940,302.018 99.072 C 301.937 99.122,301.739 99.708,301.578 100.374 C 301.185 102.002,300.593 103.167,300.159 103.167 C 299.752 103.167,299.584 102.803,299.799 102.388 C 299.885 102.220,300.009 101.783,300.074 101.417 C 300.261 100.365,299.924 100.936,299.583 102.250 C 298.873 104.987,298.246 105.658,297.256 104.741 C 296.674 104.202,295.608 104.208,295.544 104.750 C 295.488 105.230,297.342 107.167,297.858 107.167 C 298.770 107.167,301.496 104.770,303.097 102.561 C 303.731 101.686,304.494 100.669,304.792 100.302 C 305.090 99.935,305.333 99.567,305.333 99.484 C 305.333 99.252,305.064 99.305,304.833 99.583 C 304.279 100.252,303.955 99.894,304.077 98.750 C 304.181 97.784,304.099 97.313,303.925 97.875 M330.686 103.792 C 329.942 105.260,328.197 107.613,327.180 108.519 C 326.201 109.392,326.356 109.622,327.435 108.900 C 328.696 108.056,329.060 107.634,330.517 105.330 C 331.357 104.003,331.740 102.833,331.336 102.833 C 331.245 102.833,330.953 103.265,330.686 103.792 M332.688 111.042 C 330.545 112.756,328.806 113.833,328.183 113.833 C 328.027 113.833,327.829 113.903,327.742 113.988 C 327.655 114.073,326.871 114.330,326.000 114.558 C 321.950 115.621,319.740 116.381,319.908 116.653 C 320.032 116.853,323.407 116.185,323.917 115.860 C 324.008 115.801,324.758 115.593,325.583 115.397 C 326.976 115.066,328.505 114.496,330.333 113.629 C 331.032 113.297,333.000 111.450,333.354 110.792 C 333.576 110.380,333.460 110.424,332.688 111.042 " stroke="none" fill="#FFF7F5"  fill-rule="evenodd"></path><path id="path1" d="" stroke="none" fill="#FFF7F5" fill-rule="evenodd"></path></g></svg>