<?xml version="1.0" encoding="utf-8"?>
<!-- Generator: Adobe Illustrator 16.0.0, SVG Export Plug-In . SVG Version: 6.00 Build 0)  -->
<!DOCTYPE svg PUBLIC "-//W3C//DTD SVG 1.1//EN" "http://www.w3.org/Graphics/SVG/1.1/DTD/svg11.dtd">
<svg version="1.1" id="Layer_1" xmlns="http://www.w3.org/2000/svg" xmlns:xlink="http://www.w3.org/1999/xlink" x="0px" y="0px"
	 width="449px" height="152px" viewBox="0 0 449 152" enable-background="new 0 0 449 152" xml:space="preserve">
<g id="HEvsTd_1_">
	<g>
		<path fill="#FFFFFF" d="M396.513,114.74c-14.234,16.075-28.472,32.148-42.692,48.233c-0.413,0.468-0.611,0.479-1.078,0.066
			c-20.024-17.757-40.062-35.499-60.108-53.229c-0.467-0.412-0.479-0.611-0.064-1.077c28.48-32.14,56.95-64.287,85.407-96.448
			c0.413-0.467,0.612-0.479,1.078-0.065c20.024,17.756,40.061,35.5,60.108,53.229c0.468,0.413,0.479,0.612,0.065,1.079
			C424.98,82.588,410.747,98.666,396.513,114.74z M370.555,86.291c0.223,0.234,0.385,0.416,0.558,0.588
			c1.743,1.736,3.635,3.148,6.188,3.544c2.174,0.337,4.323,0.871,6.466,1.388c3.301,0.797,6.583,0.693,9.857-0.1
			c3.51-0.85,6.622-2.632,9.822-4.209c0.371-0.183,0.656-0.438,0.546-0.911c-0.127-0.532-0.544-0.66-1.015-0.679
			c-2.213-0.082-4.382-0.431-6.545-0.927c-3.708-0.849-7.359-1.859-10.901-3.254c-1.217-0.479-2.408-1.163-3.792-0.517
			c-0.239,0.111-0.478,0.077-0.646-0.285c-0.389-0.834-1.11-1.307-2.032-1.27c-2.847,0.113-5.706,0.14-8.49,0.865
			c-0.269,0.07-0.582,0.119-0.729,0.364c-0.576,0.956-1.541,0.88-2.435,0.919c-0.856,0.039-1.034-0.281-0.686-1.09
			c0.723-1.682,2.015-2.619,3.822-2.776c3.63-0.319,7.193-0.977,10.607-2.25c2.684-1.001,5.265-2.213,6.949-4.739
			c0.437-0.656,1.093-0.587,1.58,0.039c0.184,0.236,0.32,0.511,0.512,0.74c1.077,1.289,2.007,2.722,3.594,3.496
			c4.173,2.03,8.634,2.069,13.124,1.935c0.477-0.014,0.668-0.279,0.717-0.737c0.105-0.982,0.286-1.11,1.274-0.885
			c0.482,0.11,0.982,0.11,1.452,0.316c2.051,0.896,4.186,0.957,6.397,0.779c4.003-0.32,8.017-0.47,12.028-0.7
			c1.975-0.114,1.649,0.306,1.826-1.841c0.15-1.774,0.073-1.85-1.581-2.433c-0.104-0.036-0.2-0.099-0.306-0.123
			c-5.384-1.245-10.355-3.645-15.507-5.542c-1.44-0.531-2.743-1.408-4.288-1.679c-1.813-0.319-3.557-0.098-5.318,0.422
			c-3.688,1.09-7.523,1.647-11.085,3.176c-0.517,0.221-1.089,0.178-1.645,0.127c-0.755-0.067-0.87-0.29-0.45-0.944
			c0.495-0.771,0.935-1.57,1.333-2.395c1.793-3.719,2.635-7.754,3.879-11.656c0.074-0.235,0.033-0.38-0.169-0.566
			c-0.593-0.546-1.014-0.453-1.315,0.406c-1.033,2.948-1.771,6.006-3.323,8.758c-1.062,1.882-2,3.831-3.73,5.245
			c-1.205,0.985-2.672,1.441-4.022,2.13c-3.016,1.539-6.16,2.463-9.604,1.975c-0.981-0.139-1.01-0.139-0.711-1.115
			c1.05-3.422,2.452-6.707,3.822-10.008c1.797-4.32,3.744-8.583,5.208-13.038c0.61-1.858,0.794-3.711,0.35-5.642
			c-0.391-1.699-0.577-3.437-0.971-5.141c-0.542-2.344-1.049-4.702-1.222-7.115c-0.057-0.799-0.159-1.603-0.33-2.386
			c-0.884-4.042-1.168-8.104-0.576-12.215c0.076-0.531,0.385-1.277-0.464-1.44c-0.762-0.146-0.816,0.624-0.997,1.106
			c-1.927,5.172-4.143,10.21-6.815,15.049c-3.256,5.899-6.206,11.946-8.425,18.327c-0.295,0.848-0.488,1.692-0.486,2.596
			c0.006,2.047,0.428,3.964,1.359,5.816c0.94,1.871,1.764,3.8,3,5.506c1.323,1.829,2.627,3.667,3.53,5.752
			c0.261,0.604,0.566,1.216,0.568,1.879c0.005,1.375-1.135,2.238-2.81,2.082c-3.591-0.333-6.653,1.03-9.563,2.897
			c-0.697,0.447-1.292,1.075-2.022,1.444c-0.909,0.46-1.436,1.024-1.292,2.093c0.028,0.232-0.092,0.488-0.155,0.727
			c-0.131,0.486-0.338,0.68-0.896,0.43c-1.162-0.523-2.311-0.395-3.406,0.266c-0.664,0.398-1.336,0.792-2.031,1.132
			c-0.862,0.423-1.684,0.994-2.7,0.991c-2.739-0.003-5.483,0.063-8.22-0.052c-4.795-0.203-8.736,1.551-11.825,5.122
			c-1.661,1.924-2.892,4.188-4.198,6.377c-1.171,1.963-1.766,4.189-2.814,6.197c-1.253,2.396-2.229,4.88-3.031,7.451
			c-0.479,1.531-0.917,3.029-0.146,4.592c0.095,0.19,0.068,0.438,0.131,0.649c0.428,1.508,0.814,3.023,1.479,4.46
			c0.632,1.367,1.196,2.771,1.705,4.189c0.482,1.344,0.904,2.705,1.487,4.016c0.395,0.887,1.033,1.746,0.75,2.805
			c-0.413,1.541-0.384,3.131-0.562,4.695c-0.111,0.964,0.253,1.811,1.043,2.277c1.16,0.682,2.423,1.205,3.805,1.266
			c1.127,0.049,1.152,0.117,1.451,1.242c0.309,1.168,0.71,2.318,1.154,3.442c0.284,0.72,1.664,0.93,2.128,0.307
			c0.544-0.731,1.095-0.631,1.802-0.348c2.774,1.109,5.433,1.008,7.911-0.826c0.634-0.47,1.363-0.687,2.167-0.743
			c5.579-0.393,11.138-0.945,16.646-1.979c4.353-0.819,8.018-2.903,11.019-6.051c3.124-3.276,5.192-7.22,6.497-11.563
			c0.725-2.416,0.952-4.807,0.091-7.258c-0.325-0.928-0.467-1.928-0.743-2.887c-0.72-2.492-1.254-5.043-2.08-7.497
			c-0.933-2.765-0.789-5.373,0.47-7.964c0.239-0.492,0.307-0.955,0.017-1.494c-0.827-1.547-2.062-2.734-3.323-3.902
			c-0.241-0.223-0.575-0.354-0.924-0.303c-1.181,0.166-2.193-0.445-3.286-0.689c-0.235-0.051-0.572-0.109-0.579-0.491
			c-0.012-0.638-0.049-1.278,0.181-1.892c0.141-0.373,0.392-0.613,0.821-0.539c0.513,0.09,1.039,0.152,1.47,0.484
			C368.855,84.799,369.771,85.529,370.555,86.291z"/>
		<path fill-rule="evenodd" clip-rule="evenodd" fill="#EEEEEE" d="M370.555,86.291c-0.784-0.762-1.699-1.492-2.628-2.209
			c-0.431-0.332-0.957-0.395-1.47-0.484c-0.43-0.074-0.681,0.166-0.821,0.539c-0.229,0.613-0.192,1.254-0.181,1.892
			c0.007,0.382,0.344,0.44,0.579,0.491c1.093,0.244,2.105,0.855,3.286,0.689c0.349-0.051,0.683,0.08,0.924,0.303
			c1.261,1.168,2.496,2.355,3.323,3.902c0.29,0.539,0.223,1.002-0.017,1.494c-1.259,2.591-1.402,5.199-0.47,7.964
			c0.826,2.454,1.36,5.005,2.08,7.497c0.276,0.959,0.418,1.959,0.743,2.887c0.861,2.451,0.634,4.842-0.091,7.258
			c-1.305,4.344-3.373,8.287-6.497,11.563c-3.001,3.147-6.666,5.231-11.019,6.051c-5.508,1.034-11.066,1.587-16.646,1.979
			c-0.804,0.057-1.533,0.273-2.167,0.743c-2.479,1.834-5.137,1.936-7.911,0.826c-0.707-0.283-1.258-0.384-1.802,0.348
			c-0.464,0.623-1.844,0.413-2.128-0.307c-0.444-1.124-0.846-2.274-1.154-3.442c-0.299-1.125-0.324-1.193-1.451-1.242
			c-1.382-0.061-2.645-0.584-3.805-1.266c-0.79-0.467-1.154-1.313-1.043-2.277c0.179-1.564,0.149-3.154,0.562-4.695
			c0.283-1.059-0.355-1.918-0.75-2.805c-0.583-1.311-1.005-2.672-1.487-4.016c-0.509-1.418-1.073-2.822-1.705-4.189
			c-0.664-1.437-1.051-2.952-1.479-4.46c-0.062-0.212-0.036-0.459-0.131-0.649c-0.771-1.562-0.332-3.061,0.146-4.592
			c0.803-2.571,1.778-5.055,3.031-7.451c1.049-2.008,1.644-4.234,2.814-6.197c1.307-2.188,2.537-4.453,4.198-6.377
			c3.089-3.571,7.03-5.325,11.825-5.122c2.736,0.115,5.48,0.049,8.22,0.052c1.017,0.003,1.838-0.568,2.7-0.991
			c0.695-0.34,1.367-0.733,2.031-1.132c1.096-0.66,2.244-0.789,3.406-0.266c0.558,0.25,0.765,0.057,0.896-0.43
			c0.063-0.238,0.184-0.494,0.155-0.727c-0.144-1.069,0.383-1.633,1.292-2.093c0.73-0.369,1.325-0.998,2.022-1.444
			c2.91-1.867,5.973-3.23,9.563-2.897c1.675,0.156,2.814-0.707,2.81-2.082c-0.002-0.663-0.308-1.275-0.568-1.879
			c-0.903-2.084-2.207-3.923-3.53-5.752c-1.236-1.706-2.06-3.636-3-5.506c-0.932-1.852-1.354-3.769-1.359-5.816
			c-0.002-0.904,0.191-1.748,0.486-2.596c2.219-6.38,5.169-12.428,8.425-18.327c2.673-4.838,4.889-9.876,6.815-15.049
			c0.181-0.482,0.235-1.251,0.997-1.106c0.849,0.163,0.54,0.909,0.464,1.44c-0.592,4.11-0.308,8.173,0.576,12.215
			c0.171,0.783,0.273,1.587,0.33,2.386c0.173,2.413,0.68,4.771,1.222,7.115c0.394,1.704,0.58,3.441,0.971,5.141
			c0.444,1.931,0.261,3.783-0.35,5.642c-1.464,4.455-3.411,8.718-5.208,13.038c-1.37,3.301-2.772,6.586-3.822,10.008
			c-0.299,0.976-0.271,0.976,0.711,1.115c3.443,0.488,6.588-0.437,9.604-1.975c1.351-0.689,2.817-1.145,4.022-2.13
			c1.73-1.414,2.669-3.362,3.73-5.245c1.552-2.752,2.29-5.81,3.323-8.758c0.302-0.858,0.723-0.952,1.315-0.406
			c0.202,0.186,0.243,0.332,0.169,0.566c-1.244,3.902-2.086,7.938-3.879,11.656c-0.398,0.825-0.838,1.624-1.333,2.395
			c-0.42,0.654-0.305,0.877,0.45,0.944c0.556,0.051,1.128,0.094,1.645-0.127c3.562-1.529,7.397-2.086,11.085-3.176
			c1.762-0.521,3.505-0.741,5.318-0.422c1.545,0.271,2.848,1.147,4.288,1.679c5.151,1.897,10.123,4.297,15.507,5.542
			c0.105,0.024,0.201,0.087,0.306,0.123c1.654,0.583,1.731,0.659,1.581,2.433c-0.177,2.147,0.148,1.727-1.826,1.841
			c-4.012,0.23-8.025,0.38-12.028,0.7c-2.212,0.178-4.347,0.117-6.397-0.779c-0.47-0.206-0.97-0.206-1.452-0.316
			c-0.988-0.225-1.169-0.097-1.274,0.885c-0.049,0.458-0.24,0.724-0.717,0.737c-4.49,0.135-8.951,0.096-13.124-1.935
			c-1.587-0.774-2.517-2.207-3.594-3.496c-0.191-0.229-0.328-0.504-0.512-0.74c-0.487-0.625-1.144-0.694-1.58-0.039
			c-1.685,2.526-4.266,3.738-6.949,4.739c-3.414,1.274-6.978,1.931-10.607,2.25c-1.808,0.157-3.1,1.095-3.822,2.776
			c-0.349,0.809-0.171,1.129,0.686,1.09c0.894-0.039,1.858,0.037,2.435-0.919c0.147-0.245,0.461-0.294,0.729-0.364
			c2.784-0.726,5.644-0.752,8.49-0.865c0.922-0.037,1.644,0.436,2.032,1.27c0.169,0.362,0.407,0.396,0.646,0.285
			c1.384-0.646,2.575,0.038,3.792,0.517c3.542,1.395,7.193,2.405,10.901,3.254c2.163,0.496,4.332,0.845,6.545,0.927
			c0.471,0.019,0.888,0.146,1.015,0.679c0.11,0.474-0.175,0.729-0.546,0.911c-3.2,1.577-6.312,3.359-9.822,4.209
			c-3.274,0.793-6.557,0.896-9.857,0.1c-2.143-0.517-4.292-1.051-6.466-1.388c-2.554-0.396-4.445-1.808-6.188-3.544
			C370.939,86.707,370.777,86.525,370.555,86.291z M321.08,101.24c0.286,0.008,0.417-0.203,0.605-0.305
			c1.24-0.66,2.296-1.663,3.7-2.023c0.226-0.057,0.519-0.268,0.673,0.02c0.165,0.306-0.206,0.416-0.377,0.549
			c-1.497,1.178-3.197,2.072-4.658,3.311c-0.36,0.305-0.629,0.615-0.712,1.07c-0.24,1.28-0.551,2.572-0.381,3.871
			c0.268,2.058,0.495,4.123,0.963,6.153c0.435,1.885,0.898,3.755,1.48,5.604c0.742,2.354,1.417,4.72,3.225,6.534
			c0.161,0.161,0.274,0.321,0.174,0.496c-0.39,0.695,0.127,1.147,0.443,1.622c0.176,0.262,0.261,0.544,0.383,0.817
			c0.105,0.234,0.043,0.452-0.182,0.57c-0.199,0.107-0.396-0.023-0.519-0.162c-0.218-0.241-0.401-0.517-0.585-0.788
			c-0.217-0.318-0.443-0.302-0.659-0.021c-0.568,0.738-0.314,2.07,0.482,2.564c1.488,0.924,2.661,0.759,3.807-0.562
			c1.597-1.844,3.234-3.646,5.055-5.275c2.109-1.887,4.066-3.911,5.832-6.131c2.847-3.58,5.623-7.201,7.909-11.178
			c2.08-3.619,3.835-7.365,4.752-11.461c0.455-2.025,0.924-4.053,1.282-6.096c0.468-2.667,0.797-5.322-0.684-7.863
			c-0.617-1.058-0.95-1.377-2.123-1.04c-0.438,0.124-1.072,0.152-1.162,0.63c-0.058,0.305,0.578,0.395,0.889,0.597
			c0.215,0.138,0.533,0.317,0.456,0.614c-0.08,0.303-0.422,0.199-0.652,0.181c-3.604-0.28-7.215-0.072-10.836-0.511
			c-4.574-0.555-8.483,1.136-11.325,4.925c-0.157,0.21-0.51,0.445-0.335,0.694c0.207,0.294,0.555,0.018,0.834-0.056
			c0.132-0.034,0.249-0.128,0.38-0.165c1.221-0.346,2.416-0.812,3.707-0.822c0.227-0.001,0.557-0.109,0.589,0.271
			c0.028,0.339-0.265,0.354-0.508,0.42c-0.854,0.233-1.763,0.316-2.539,0.764c-1.157,0.667-2.39,1.156-3.627,1.637
			c-0.921,0.356-2.205,2.209-2.183,3.229c0.295-0.155,0.556-0.297,0.819-0.43c1.485-0.754,3.027-1.369,4.617-1.854
			c0.216-0.066,0.549-0.181,0.641,0.149c0.083,0.314-0.223,0.366-0.459,0.467c-0.709,0.303-1.419,0.607-2.102,0.967
			c-1.37,0.722-2.735,1.449-4.074,2.229c-0.94,0.551-1.372,1.475-1.685,2.527c0.381-0.021,0.554-0.223,0.763-0.346
			c1.38-0.816,2.652-1.824,4.192-2.348c0.167-0.058,0.38-0.25,0.528-0.043c0.161,0.221-0.038,0.405-0.18,0.574
			c-0.444,0.529-1.151,0.648-1.666,1.053c-1.33,1.042-2.703,2.02-4.118,2.944C321.444,100.131,321.052,100.561,321.08,101.24z
			 M338,136.663c-0.5-0.144-0.808-0.005-1.108,0.11c-1.57,0.615-3.144,0.438-4.712,0.014c-0.333-0.09-0.808-0.211-0.648-0.684
			c0.162-0.484,0.594-0.249,0.926-0.141c1.079,0.347,2.144,0.494,3.227-0.025c0.495-0.237,1.042-0.367,1.561-0.558
			c1.57-0.575,3.186-0.462,4.824-0.474c4.696-0.032,9.305-0.877,13.883-1.868c1.269-0.274,2.583-0.372,3.805-0.853
			c4.728-1.864,7.848-5.438,10.263-9.738c1.236-2.202,1.439-4.691,1.882-7.11c0.216-1.179,0.334-2.365,0.182-3.556
			c-0.333-2.609-0.654-5.222-1.063-7.819c-0.256-1.628-0.258-3.351-1.124-4.812c-0.593-1.001-0.479-1.997-0.376-3.034
			c0.083-0.854,0.19-1.707,0.246-2.563c0.127-1.919-1.504-3.513-3.452-3.42c-0.576,0.028-0.863,0.291-0.909,0.856
			c-0.055,0.676,0.172,1,0.923,1.031c1.575,0.064,1.871,0.413,1.842,1.973c-0.01,0.496-0.079,0.992-0.146,1.485
			c-0.033,0.239-0.072,0.567-0.38,0.564c-0.354-0.005-0.278-0.348-0.292-0.581c-0.04-0.635-0.021-1.277-0.11-1.904
			c-0.077-0.553-0.485-0.762-1.035-0.703c-0.462,0.049-0.694,0.301-0.699,0.764c-0.018,1.809-0.849,3.287-2.095,4.473
			c-1.329,1.264-2.156,2.916-3.47,4.177c-0.256,0.245-0.457,0.556-0.655,0.856c-0.134,0.202-0.194,0.431,0.174,0.468
			c0.798,0.075,0.321,0.409,0.131,0.667c-0.204,0.281-0.674,0.463-0.547,0.867c0.324,1.03-0.405,1.393-1.063,1.793
			c-0.394,0.238-0.813,0.43-1.16,0.779c0.799,0.24,0.607,0.586,0.137,0.88c-1.173,0.733-2.37,1.429-3.551,2.148
			c-0.251,0.152-0.682,0.212-0.206,0.679c0.387,0.383,0.104,0.799-0.303,1.014c-0.801,0.422-1.483,1.082-2.433,1.211
			c-0.151,0.02-0.396,0.031-0.319,0.262c0.197,0.608-0.305,0.681-0.632,0.886c-1.146,0.715-2.288,1.394-3.226,2.425
			c-1.452,1.596-3.008,3.102-4.583,4.576c-3.556,3.332-7.251,6.508-10.914,9.719c-1.016,0.89-1.501,2.045-1.522,3.381
			c-0.011,0.744,0.195,1.438,0.85,1.873c1.756,1.166,3.665,1.66,5.744,1.113C336.622,137.664,337.389,137.403,338,136.663z
			 M375.731,51.633c0.224,0.483,0.043,0.835-0.094,1.188c-0.479,1.239-0.982,2.471-1.47,3.709c-0.741,1.884-1.443,3.779-1.648,5.817
			c-0.024,0.232-0.172,0.554,0.163,0.641c0.315,0.083,0.389-0.249,0.479-0.468c1.333-3.284,2.969-6.441,4.111-9.806
			c1.116-3.287,2.043-6.608,2.25-10.105c0.182-3.095-0.586-6.061-1.145-9.043c-0.539-2.864-0.986-5.728-1.21-8.632
			c-0.062-0.801-0.087-1.604-0.144-2.406c-0.013-0.181,0.049-0.447-0.172-0.512c-0.283-0.082-0.339,0.223-0.45,0.393
			c-0.181,0.277-0.339,0.572-0.494,0.866c-1.966,3.691-3.867,7.42-5.911,11.069c-2.445,4.367-4.086,9.013-5.299,13.849
			c-0.482,1.922-0.307,3.734,0.401,5.518c0.665,1.672,1.414,3.317,2.404,4.828c0.919,1.405,1.854,2.807,3.048,4.01
			c0.174,0.178,0.308,0.296,0.554,0.216c0.285-0.093,0.258-0.325,0.246-0.547c-0.051-0.996-0.076-1.995-0.17-2.986
			c-0.045-0.481-0.117-0.951-0.453-1.388c-0.936-1.211-1.779-2.493-2.698-3.719c-0.235-0.315-0.297-0.527-0.024-0.857
			c0.611,0.905,1.342,1.622,2.045,2.354c0.146,0.151,0.278,0.587,0.611,0.371c0.282-0.183,0.247-0.534,0.146-0.84
			c-0.087-0.257-0.156-0.512-0.335-0.747c-0.682-0.911-1.412-1.806-1.948-2.801c-0.202-0.374-0.918-0.714-0.473-1.372
			c0.68,0.751,1.342,1.475,1.993,2.208c0.164,0.186,0.354,0.289,0.58,0.2c0.213-0.083,0.202-0.314,0.216-0.503
			c0.032-0.442,0.041-0.881-0.05-1.323c-0.247-1.182-1.179-1.93-1.811-2.863c-0.213-0.312-0.244-0.5,0.011-0.75
			c0.386,0.43,0.741,0.825,1.093,1.222c0.175,0.198,0.342,0.53,0.615,0.436c0.288-0.099,0.215-0.473,0.236-0.743
			c0.159-2.182,0.272-4.368,0.485-6.545c0.28-2.854,0.882-5.638,2.113-8.252c0.089-0.189,0.142-0.494,0.42-0.433
			c0.286,0.063,0.477,0.308,0.433,0.625c-0.064,0.463-0.152,0.928-0.264,1.384c-0.644,2.617-0.979,5.281-1.271,7.953
			c-0.04,0.354-0.099,0.818,0.336,0.918c0.388,0.09,0.394-0.387,0.516-0.636c1.011-2.097,2.003-4.2,3.016-6.296
			c0.062-0.129,0.001-0.411,0.343-0.352c-0.081,0.243-0.146,0.479-0.234,0.707c-1.004,2.582-2.025,5.157-3.212,7.662
			c-0.823,1.737-1.163,3.574-1.121,5.487c0.006,0.243-0.021,0.571,0.25,0.65c0.341,0.097,0.35-0.284,0.449-0.48
			c0.45-0.906,0.88-1.822,1.384-2.875c0.195,0.475,0.021,0.716-0.065,0.959c-0.625,1.778-1.255,3.554-1.885,5.327
			c-0.319,0.896-0.511,1.813-0.52,2.764c-0.003,0.266-0.104,0.606,0.246,0.717c0.373,0.119,0.554-0.18,0.692-0.455
			c0.542-1.06,1.07-2.128,1.605-3.193C375.009,53.043,375.371,52.338,375.731,51.633z M408.417,72.534
			c-0.42,0.196-0.67,0.105-0.957-0.03c-1.067-0.501-2.188-0.914-3.166-1.573c-1.266-0.854-2.645-0.867-4.062-0.737
			c-0.195,0.018-0.501,0.009-0.516,0.301c-0.01,0.2,0.206,0.297,0.386,0.381c0.818,0.38,1.632,0.776,2.456,1.143
			c0.138,0.061,0.284,0.069,0.209,0.246c-0.033,0.076-0.171,0.153-0.257,0.152c-0.19-0.004-0.385-0.038-0.566-0.094
			c-1.675-0.537-3.342-1.089-4.872-1.991c-0.419-0.245-0.879-0.48-1.413-0.384c-0.231,0.042-0.437,0.107-0.503,0.361
			c-0.068,0.266,0.089,0.382,0.302,0.512c0.724,0.446,1.449,0.897,2.131,1.402c0.196,0.147,0.728,0.204,0.498,0.605
			c-0.214,0.376-0.522,0.019-0.764-0.103c-1.497-0.757-2.994-1.514-4.478-2.296c-0.394-0.208-0.797-0.271-1.201-0.194
			c-0.384,0.075-0.592,0.369-0.309,0.73c1.921,2.452,4.292,4.049,7.554,3.893c1.992-0.096,3.983-0.215,5.974-0.336
			c0.272-0.016,0.603-0.022,0.801-0.173c0.907-0.689,1.898-0.427,2.877-0.329c1.65,0.166,3.298,0.487,4.945,0.481
			c3.376-0.014,6.753-0.189,10.128-0.324c0.715-0.029,1.427-0.163,2.138-0.27c0.15-0.023,0.349-0.089,0.33-0.306
			c-0.017-0.198-0.189-0.254-0.357-0.285c-1.956-0.348-3.905-0.729-5.865-1.037c-2.974-0.465-5.95-0.898-8.931-1.311
			c-1.585-0.219-3.178-0.377-4.771-0.538c-0.219-0.021-0.549-0.062-0.61,0.282c-0.055,0.31,0.281,0.316,0.443,0.399
			C406.785,71.518,407.626,71.84,408.417,72.534z M355.611,97.586c0.745,0.684,2.352,0.393,2.959-0.641
			c0.462-0.787,0.609-1.653,0.586-2.559c-0.055-2.131-0.103-4.262-0.153-6.393c-0.047-1.996-0.078-3.977,0.566-5.918
			c1.585-4.762,4.909-7.377,9.914-7.726c1.131-0.078,2.266-0.141,3.397-0.236c1.709-0.144,3.43-0.175,5.116-0.532
			c0.234-0.051,0.553-0.074,0.504-0.418c-0.038-0.266-0.317-0.266-0.539-0.285c-0.164-0.015-0.331-0.016-0.496-0.01
			c-3.624,0.13-7.25,0.203-10.869,0.413c-3.343,0.194-5.999,1.675-7.893,4.514c-1.986,2.973-2.508,6.286-2.443,9.746
			c0.035,1.803,0.068,3.602-0.315,5.374c-0.24,1.108-0.507,2.212-0.786,3.31C355.028,96.748,355.219,97.143,355.611,97.586z
			 M378.239,86.375c0.028,0.025,0.204,0.16,0.354,0.318c0.154,0.166,0.498,0.314,0.252,0.594c-0.195,0.218-0.44,0.047-0.648-0.107
			c-0.699-0.516-1.496-0.936-1.958-1.699c-0.323-0.537-0.713-0.873-1.335-0.977c-0.423-0.071-0.924-0.611-1.233-0.08
			c-0.274,0.468,0.434,0.645,0.656,0.985c0.453,0.69,1.348,1.077,1.479,1.966c0.069,0.461,0.269,0.651,0.649,0.834
			c1.499,0.712,3.111,0.848,4.725,1.083c3.885,0.567,7.721,0.45,11.54-0.419c0.225-0.05,0.578,0.001,0.594-0.332
			c0.019-0.352-0.348-0.301-0.556-0.34c-1.059-0.191-2.123-0.348-3.183-0.523c-1.714-0.282-3.426-0.577-5.141-0.849
			c-0.278-0.044-0.663-0.145-0.683,0.339c-0.028,0.67-0.369,0.501-0.774,0.346c-0.435-0.168-0.925-0.271-1.228-0.631
			c-0.867-1.021-2.047-1.31-3.279-1.484c-0.371-0.053-0.882-0.492-1.089-0.016C377.235,85.723,377.828,85.973,378.239,86.375z
			 M396.606,69.062c0.082,0.001,0.187,0.001,0.291,0.007c1.876,0.072,3.753,0.175,5.629,0.212c2.406,0.05,4.802,0.214,7.172,0.618
			c3.211,0.548,6.443,0.919,9.673,1.308c0.34,0.041,0.945,0.396,1.065-0.168c0.105-0.495-0.554-0.501-0.896-0.646
			c-2.067-0.872-4.283-1.221-6.443-1.763c-1.653-0.417-3.314-0.881-4.999-1.079c-3.267-0.382-6.508,0.165-9.745,0.554
			c-0.516,0.062-1.021,0.25-1.513,0.424C396.663,68.591,396.403,68.721,396.606,69.062z M390.634,86.633
			c-0.221-0.523-0.682-0.342-1.022-0.449c-3.565-1.127-7.13-2.254-10.698-3.369c-1.727-0.537-3.474-0.902-5.294-0.556
			c-0.248,0.047-0.538,0.079-0.565,0.388c-0.025,0.316,0.312,0.277,0.486,0.328c1.897,0.559,3.786,1.156,5.709,1.615
			c2.839,0.676,5.695,1.278,8.56,1.84C388.715,86.607,389.646,87.011,390.634,86.633z M356.677,102.26
			c0.341-0.432,0.68-0.867,1.025-1.299c0.312-0.387,0.416-0.676-0.182-0.937c-0.699-0.305-1.347-0.726-2.024-1.077
			c-0.703-0.363-1.103-0.138-1.162,0.656c-0.051,0.652,0.319,1.012,0.901,1.197c0.235,0.074,0.478,0.133,0.717,0.193
			c0.143,0.037,0.274,0.102,0.251,0.268c-0.023,0.147-0.144,0.229-0.294,0.248c-0.447,0.059-0.879-0.003-1.298-0.164
			c-0.447-0.172-0.752-0.016-0.919,0.416c-0.15,0.387-0.299,0.773-0.425,1.168c-0.096,0.299,0.003,0.512,0.299,0.677
			c0.801,0.45,1.537,0.37,2.175-0.294C356.063,102.975,356.364,102.613,356.677,102.26z M362.856,88.489
			c0.442-0.476,0.619-1.968,0.181-2.345c-0.484-0.418-0.906,0.224-1.371,0.334c-0.155,0.039-0.283,0.17-0.438,0.227
			c-0.654,0.244-0.935,0.729-0.935,1.404c-0.002,0.468,0.002,0.936-0.008,1.402c-0.008,0.589,0.191,0.771,0.734,0.426
			C361.698,89.507,362.31,89,362.856,88.489z M360.961,91.652c-0.344,0.314-0.546,0.697-0.464,1.175
			c0.036,0.21,0.011,0.491,0.233,0.584c0.239,0.101,0.399-0.132,0.55-0.283c0.312-0.314,0.622-0.626,1.036-0.811
			c0.793-0.353,1.106-0.972,0.954-1.847c-0.09-0.513-0.327-0.615-0.719-0.264C362.017,90.684,361.49,91.168,360.961,91.652z
			 M362.682,84.904c0.199-0.26,0.259-0.455,0.207-0.645c-0.097-0.344-0.099-0.647,0.195-0.905c0.101-0.088,0.207-0.219,0.103-0.356
			c-0.127-0.174-0.307-0.084-0.452-0.026c-0.544,0.21-0.946,0.663-1.509,0.857c-0.559,0.194-0.922,1.071-0.725,1.628
			c0.054,0.144,0.128,0.271,0.295,0.207C361.461,85.406,362.12,85.133,362.682,84.904z M353.502,106.014
			c-0.007-0.007-0.014-0.014-0.019-0.019c0.146-0.166,0.312-0.317,0.434-0.499c0.182-0.268,0.69-0.592,0.246-0.863
			c-0.389-0.237-1.062-0.52-1.438-0.045c-0.419,0.527-0.643,1.219-0.725,1.912c-0.057,0.49,0.248,0.612,0.609,0.367
			C352.945,106.639,353.207,106.303,353.502,106.014z M363.513,78.785c-0.11,0.277-0.65,0.572-0.152,0.925
			c0.637,0.447,2.39-0.356,2.566-1.116c0.071-0.299,0.003-0.49-0.335-0.504C364.827,78.056,364.115,78.187,363.513,78.785z
			 M372.648,85.777c0.258,0.201,0.528,0.489,0.862,0.635c0.158,0.07,0.355,0.51,0.593,0.125c0.15-0.245-0.015-0.406-0.214-0.613
			c-0.664-0.696-1.569-1.166-1.977-2.117c-0.078-0.184-0.428-0.281-0.654-0.075c-0.221,0.202-0.193,0.433,0.02,0.648
			C371.727,84.832,372.17,85.288,372.648,85.777z M361.914,94.63c-1.14,0.59-2.028,2.046-1.921,3.032
			C360.946,96.877,361.27,95.801,361.914,94.63z M367.636,76.219c-0.523-0.429-0.95-0.113-1.354,0.235
			c-0.15,0.129-0.223,0.307-0.02,0.491c0.266,0.236,1.45,0.33,1.634,0.111C368.228,76.664,367.809,76.488,367.636,76.219z
			 M361.793,81.271c-0.14,0.184-0.279,0.338-0.224,0.541c0.018,0.062,0.171,0.133,0.257,0.126c0.545-0.053,1.083-0.142,1.534-0.487
			c0.162-0.123,0.316-0.365,0.026-0.416C362.838,80.946,362.245,80.842,361.793,81.271z"/>
		<path fill-rule="evenodd" clip-rule="evenodd" fill="#EEEEEE" d="M321.08,101.24c-0.028-0.68,0.364-1.109,0.852-1.427
			c1.415-0.925,2.788-1.902,4.118-2.944c0.515-0.404,1.222-0.523,1.666-1.053c0.142-0.169,0.341-0.354,0.18-0.574
			c-0.148-0.207-0.361-0.015-0.528,0.043c-1.54,0.523-2.812,1.531-4.192,2.348c-0.209,0.123-0.382,0.324-0.763,0.346
			c0.312-1.053,0.744-1.977,1.685-2.527c1.339-0.779,2.704-1.507,4.074-2.229c0.683-0.359,1.393-0.664,2.102-0.967
			c0.236-0.101,0.542-0.152,0.459-0.467c-0.092-0.33-0.425-0.216-0.641-0.149c-1.59,0.485-3.132,1.101-4.617,1.854
			c-0.264,0.133-0.524,0.274-0.819,0.43c-0.022-1.02,1.262-2.872,2.183-3.229c1.237-0.48,2.47-0.97,3.627-1.637
			c0.776-0.447,1.686-0.53,2.539-0.764c0.243-0.066,0.536-0.081,0.508-0.42c-0.032-0.381-0.362-0.272-0.589-0.271
			c-1.291,0.01-2.486,0.477-3.707,0.822c-0.131,0.037-0.248,0.131-0.38,0.165c-0.279,0.073-0.627,0.35-0.834,0.056
			c-0.175-0.249,0.178-0.484,0.335-0.694c2.842-3.789,6.751-5.479,11.325-4.925c3.621,0.438,7.232,0.23,10.836,0.511
			c0.23,0.019,0.572,0.122,0.652-0.181c0.077-0.297-0.241-0.477-0.456-0.614c-0.311-0.202-0.946-0.292-0.889-0.597
			c0.09-0.478,0.725-0.506,1.162-0.63c1.173-0.337,1.506-0.018,2.123,1.04c1.48,2.541,1.151,5.196,0.684,7.863
			c-0.358,2.043-0.827,4.07-1.282,6.096c-0.917,4.096-2.672,7.842-4.752,11.461c-2.286,3.977-5.062,7.598-7.909,11.178
			c-1.766,2.22-3.723,4.244-5.832,6.131c-1.82,1.629-3.458,3.432-5.055,5.275c-1.146,1.321-2.318,1.486-3.807,0.562
			c-0.797-0.494-1.051-1.826-0.482-2.564c0.216-0.281,0.442-0.298,0.659,0.021c0.184,0.271,0.367,0.547,0.585,0.788
			c0.123,0.139,0.319,0.27,0.519,0.162c0.225-0.118,0.287-0.336,0.182-0.57c-0.122-0.273-0.207-0.556-0.383-0.817
			c-0.316-0.475-0.833-0.927-0.443-1.622c0.101-0.175-0.013-0.335-0.174-0.496c-1.808-1.814-2.482-4.181-3.225-6.534
			c-0.582-1.849-1.046-3.719-1.48-5.604c-0.468-2.03-0.695-4.096-0.963-6.153c-0.17-1.299,0.141-2.591,0.381-3.871
			c0.083-0.455,0.352-0.766,0.712-1.07c1.461-1.238,3.161-2.133,4.658-3.311c0.171-0.133,0.542-0.243,0.377-0.549
			c-0.154-0.287-0.447-0.076-0.673-0.02c-1.404,0.36-2.46,1.363-3.7,2.023C321.497,101.037,321.366,101.248,321.08,101.24z
			 M344.426,100.385c-0.294-1.506-0.587-3.012-0.884-4.518c-0.045-0.23,0.022-0.617-0.269-0.617
			c-0.37,0.002-0.329,0.395-0.294,0.654c0.162,1.234,0.306,2.476,0.678,3.664c0.514,1.645,0.146,3.064-0.89,4.4
			c-0.282-0.242-0.213-0.512-0.24-0.75c-0.082-0.715-0.141-1.432-0.224-2.146c-0.039-0.334-0.113-0.771-0.527-0.696
			c-0.335,0.062-0.153,0.466-0.125,0.726c0.114,1.129,0.24,2.258,0.351,3.388c0.056,0.56-0.014,1.108-0.268,1.616
			c-0.056,0.113-0.185,0.258-0.286,0.264c-0.218,0.01-0.219-0.209-0.235-0.364c-0.058-0.552-0.076-1.106-0.164-1.653
			c-0.048-0.307,0.14-0.871-0.425-0.806c-0.466,0.054-0.256,0.533-0.232,0.837c0.063,0.801,0.127,1.603,0.238,2.396
			c0.114,0.811-0.1,1.528-0.451,2.238c-2.382,4.816-5.639,8.993-9.337,12.854c-1.155,1.207-2.358,2.338-3.903,3.039
			c-0.324,0.146-0.55,0.374-0.436,0.783c0.121,0.426,0.448,0.623,0.818,0.492c1.048-0.367,0.953,0.135,0.695,0.826
			c-0.017,0.047,0.066,0.131,0.111,0.207c0.276-0.084,0.42-0.296,0.57-0.485c2.159-2.708,4.529-5.233,6.773-7.869
			c2.489-2.922,4.644-6.065,6.352-9.508c2.906-5.854,4.948-12.022,6.569-18.337c0.393-1.529,0.687-3.081,1.032-4.62
			c0.086-0.388,0.068-0.817-0.348-0.894c-0.44-0.08-0.44,0.418-0.516,0.711c-0.193,0.75-0.32,1.516-0.523,2.264
			c-0.095,0.346-0.024,0.961-0.458,0.945c-0.395-0.016-0.342-0.616-0.425-0.981c-0.079-0.351-0.121-0.71-0.213-1.057
			c-0.056-0.21-0.154-0.415-0.271-0.599c-0.079-0.125-0.189-0.33-0.384-0.191c-0.09,0.064-0.145,0.238-0.141,0.36
			c0.002,0.16,0.07,0.321,0.125,0.478c0.483,1.367,0.724,2.783,0.76,4.229c0.026,1.084-0.454,2.037-0.842,3.033
			c-0.227-0.807-0.303-1.595-0.396-2.379c-0.024-0.217-0.067-0.479-0.373-0.448c-0.252,0.026-0.273,0.258-0.254,0.452
			c0.107,1.045,0.096,2.125,0.372,3.127C346.054,97.316,345.063,98.785,344.426,100.385z M329.013,115.704
			c-0.538,0.241-0.545,0.577-0.637,0.854c-0.401,1.236-0.787,2.48-1.194,3.717c-0.136,0.418-0.396,0.746-0.882,0.758
			c-0.309,0.01-0.484-0.17-0.608-0.461c-0.231-0.543-1.747-0.671-2.105-0.187c-0.186,0.253-0.14,0.466,0.07,0.734
			c0.537,0.69,1.158,1.298,1.741,1.944c0.518,0.572,1.061,0.523,1.613,0.126c1.734-1.248,3.409-2.557,4.626-4.362
			c0.713-1.055,1.499-2.059,2.25-3.088c0.196-0.266,0.421-0.525,0.268-0.902c-0.322-0.066-0.496,0.199-0.732,0.317
			c-0.188,0.095-0.313,0.415-0.541,0.292c-0.265-0.146-0.092-0.448-0.088-0.687c0.01-0.579,0.366-1.166-0.082-1.894
			c-0.367,0.844-0.494,1.623-0.685,2.383c-0.143,0.574-0.308,1.137-0.857,1.459c-0.196,0.114-0.396,0.391-0.656,0.182
			c-0.207-0.166-0.06-0.41-0.023-0.623c0.101-0.596,0.422-1.16,0.301-1.857c-0.493,0.225-0.512,0.645-0.638,0.994
			c-0.366,1.014-0.482,2.111-1.009,3.07c-0.129,0.236-0.332,0.547-0.628,0.447c-0.388-0.129-0.14-0.475-0.088-0.715
			C328.598,117.414,328.795,116.629,329.013,115.704z M329.069,109.3c0.214-0.364,0.442-0.774,0.686-1.175
			c1.39-2.287,3.089-4.398,4.042-6.936c0.519-1.386,0.893-2.824,1.604-4.141c0.367-0.679,0.652-1.404,0.939-2.123
			c0.276-0.694,0.508-1.412,0.518-2.166c0.005-0.391,0.12-1.02-0.305-1.092c-0.418-0.07-0.571,0.558-0.658,0.932
			c-0.315,1.357-0.771,2.664-1.437,3.878c-1.648,3.005-3.277,6.024-5.048,8.959c-0.654,1.087-0.946,2.239-1.284,3.405
			c-0.081,0.279-0.054,0.568,0.261,0.71C328.652,109.67,328.867,109.55,329.069,109.3z"/>
		<path fill-rule="evenodd" clip-rule="evenodd" fill="#EEEEEE" d="M338,136.663c-0.611,0.74-1.378,1.001-2.138,1.2
			c-2.079,0.547-3.988,0.053-5.744-1.113c-0.654-0.435-0.86-1.129-0.85-1.873c0.021-1.336,0.507-2.491,1.522-3.381
			c3.663-3.211,7.358-6.387,10.914-9.719c1.575-1.475,3.131-2.98,4.583-4.576c0.938-1.031,2.08-1.71,3.226-2.425
			c0.327-0.205,0.829-0.277,0.632-0.886c-0.076-0.23,0.168-0.242,0.319-0.262c0.949-0.129,1.632-0.789,2.433-1.211
			c0.406-0.215,0.689-0.631,0.303-1.014c-0.476-0.467-0.045-0.526,0.206-0.679c1.181-0.72,2.378-1.415,3.551-2.148
			c0.471-0.294,0.662-0.64-0.137-0.88c0.347-0.35,0.767-0.541,1.16-0.779c0.658-0.4,1.388-0.763,1.063-1.793
			c-0.127-0.404,0.343-0.586,0.547-0.867c0.19-0.258,0.667-0.592-0.131-0.667c-0.368-0.037-0.308-0.266-0.174-0.468
			c0.198-0.301,0.399-0.611,0.655-0.856c1.313-1.261,2.141-2.913,3.47-4.177c1.246-1.186,2.077-2.664,2.095-4.473
			c0.005-0.463,0.237-0.715,0.699-0.764c0.55-0.059,0.958,0.15,1.035,0.703c0.09,0.627,0.07,1.27,0.11,1.904
			c0.014,0.233-0.062,0.576,0.292,0.581c0.308,0.003,0.347-0.325,0.38-0.564c0.066-0.493,0.136-0.989,0.146-1.485
			c0.029-1.56-0.267-1.908-1.842-1.973c-0.751-0.031-0.978-0.355-0.923-1.031c0.046-0.565,0.333-0.828,0.909-0.856
			c1.948-0.093,3.579,1.501,3.452,3.42c-0.056,0.856-0.163,1.709-0.246,2.563c-0.103,1.037-0.217,2.033,0.376,3.034
			c0.866,1.462,0.868,3.185,1.124,4.812c0.409,2.598,0.73,5.21,1.063,7.819c0.152,1.19,0.034,2.377-0.182,3.556
			c-0.442,2.419-0.646,4.908-1.882,7.11c-2.415,4.301-5.535,7.874-10.263,9.738c-1.222,0.48-2.536,0.578-3.805,0.853
			c-4.578,0.991-9.187,1.836-13.883,1.868c-1.639,0.012-3.254-0.102-4.824,0.474c-0.519,0.19-1.065,0.32-1.561,0.558
			c-1.083,0.52-2.147,0.372-3.227,0.025c-0.332-0.108-0.764-0.344-0.926,0.141c-0.159,0.473,0.315,0.594,0.648,0.684
			c1.568,0.424,3.142,0.602,4.712-0.014C337.192,136.658,337.5,136.52,338,136.663z M363.01,106.045
			c-0.09-0.537,0.156-0.848,0.346-1.172c0.88-1.508,1.769-3.009,2.638-4.521c0.229-0.397,0.629-1.001,0.174-1.254
			c-0.553-0.307-0.778,0.398-1.01,0.815c-3.046,5.466-5.976,11.005-10.247,15.675c-0.944,1.031-1.614,2.326-3.016,2.887
			c-0.293,0.119-0.529,0.398-0.771,0.627c-2.023,1.928-4.085,3.816-6.051,5.808c-1.789,1.81-3.447,3.753-5.433,5.366
			c-1.139,0.928-2.184,1.959-3.188,3.034c-0.363,0.391-0.56,0.833-0.193,1.25c0.405,0.462,0.903,0.272,1.331-0.065
			c0.632-0.498,1.216-1.051,1.735-1.665c0.466-0.548,1.025-0.866,1.738-1.043c0.689-0.169,1.339-0.517,1.989-0.821
			c0.318-0.149,0.561-0.367,0.264-0.779c-0.25-0.347-0.127-0.529,0.302-0.594c1.048-0.155,1.911-0.863,2.965-1.021
			c0.127-0.02,0.29-0.094,0.256-0.266c-0.029-0.15-0.184-0.194-0.325-0.2c-0.45-0.015-0.879,0.084-1.295,0.25
			c-0.21,0.083-0.416,0.248-0.721,0.022c0.504-0.457,1.03-0.734,1.605-0.941c1.04-0.373,2.08-0.752,3.117-1.138
			c0.206-0.075,0.477-0.177,0.379-0.448c-0.097-0.267-0.366-0.188-0.578-0.113c-0.366,0.126-0.724,0.277-1.094,0.393
			c-0.439,0.138-0.843,0.488-1.379,0.311c0.127-0.365,0.343-0.555,0.644-0.673c0.877-0.342,1.751-0.687,2.622-1.04
			c0.615-0.25,1.228-0.508,1.832-0.781c0.232-0.104,0.486-0.296,0.333-0.568c-0.15-0.264-0.437-0.137-0.66-0.018
			c-0.146,0.078-0.281,0.182-0.434,0.248c-0.71,0.314-1.398,0.709-2.261,0.786c0.141-0.518,0.483-0.77,0.765-1.056
			c2.034-2.079,3.953-4.265,5.841-6.478c2.137-2.509,3.947-5.276,6.241-7.663c1.669-1.735,3.256-3.551,4.87-5.34
			c0.258-0.284,0.526-0.576,0.64-0.959c0.057-0.189,0.087-0.398-0.077-0.543c-0.172-0.152-0.372-0.059-0.545,0.018
			c-0.291,0.131-0.456,0.396-0.655,0.625C364.837,103.986,363.962,104.971,363.01,106.045z M369.495,107.309
			c-0.4-0.271-0.641-0.209-0.757,0.184c-0.098,0.331-0.005,0.661,0.053,0.988c0.849,4.738,0.385,9.363-1.211,13.889
			c-0.092,0.26-0.253,0.553,0.107,0.715c0.363,0.168,0.56-0.088,0.72-0.371c1.123-1.991,1.562-4.221,1.848-6.416
			c0.255-1.98,0.251-4.023,0.104-6.048C370.278,109.162,369.489,108.34,369.495,107.309z M363.182,127.466
			c0.272-0.272,0.923-0.56,0.581-0.917c-0.315-0.33-0.66,0.289-0.972,0.52c-1.435,1.067-2.745,2.322-4.474,2.943
			c-2.752,0.989-5.651,1.498-8.385,2.557c-0.37,0.145-0.89,0.267-0.778,0.691c0.124,0.479,0.652,0.17,1.009,0.17
			c0.105,0,0.212-0.067,0.319-0.077c1.309-0.13,2.482-0.769,3.749-1.018c2.302-0.456,4.416-1.389,6.53-2.345
			c0.194-0.089,0.411-0.207,0.532-0.373C361.86,128.842,362.806,128.412,363.182,127.466z M359.017,123.735
			c0.657-0.85,1.35-1.914,1.984-3.013c0.247-0.426,0.404-0.908,0.561-1.377c0.096-0.288,0.137-0.67-0.229-0.771
			c-0.312-0.086-0.45,0.252-0.561,0.504c-0.575,1.292-1.355,2.477-2.216,3.573c-0.716,0.911-1.403,1.902-2.449,2.515
			c-0.17,0.1-0.362,0.238-0.251,0.453c0.142,0.275,0.384,0.141,0.575,0.043C357.344,125.201,358.236,124.709,359.017,123.735z"/>
		<path fill-rule="evenodd" clip-rule="evenodd" fill="#EEEEEE" d="M375.731,51.633c-0.36,0.706-0.723,1.411-1.079,2.118
			c-0.535,1.064-1.063,2.133-1.605,3.193c-0.139,0.274-0.319,0.573-0.692,0.455c-0.351-0.111-0.249-0.451-0.246-0.717
			c0.009-0.95,0.2-1.868,0.52-2.764c0.63-1.773,1.26-3.549,1.885-5.327c0.086-0.243,0.261-0.484,0.065-0.959
			c-0.504,1.053-0.934,1.969-1.384,2.875c-0.1,0.197-0.108,0.577-0.449,0.48c-0.271-0.079-0.244-0.407-0.25-0.65
			c-0.042-1.913,0.298-3.75,1.121-5.487c1.187-2.505,2.208-5.08,3.212-7.662c0.088-0.228,0.153-0.463,0.234-0.707
			c-0.342-0.06-0.281,0.223-0.343,0.352c-1.013,2.096-2.005,4.199-3.016,6.296c-0.122,0.25-0.128,0.726-0.516,0.636
			c-0.435-0.1-0.376-0.564-0.336-0.918c0.291-2.671,0.627-5.335,1.271-7.953c0.111-0.456,0.199-0.921,0.264-1.384
			c0.044-0.317-0.146-0.562-0.433-0.625c-0.278-0.061-0.331,0.244-0.42,0.433c-1.231,2.614-1.833,5.399-2.113,8.252
			c-0.213,2.177-0.326,4.363-0.485,6.545c-0.021,0.271,0.052,0.645-0.236,0.743c-0.273,0.094-0.44-0.238-0.615-0.436
			c-0.352-0.397-0.707-0.792-1.093-1.222c-0.255,0.25-0.224,0.438-0.011,0.75c0.632,0.934,1.563,1.681,1.811,2.863
			c0.091,0.441,0.082,0.881,0.05,1.323c-0.014,0.188-0.003,0.42-0.216,0.503c-0.226,0.089-0.416-0.015-0.58-0.2
			c-0.651-0.733-1.313-1.457-1.993-2.208c-0.445,0.658,0.271,0.998,0.473,1.372c0.536,0.996,1.267,1.89,1.948,2.801
			c0.179,0.235,0.248,0.489,0.335,0.747c0.102,0.306,0.137,0.657-0.146,0.84c-0.333,0.216-0.466-0.22-0.611-0.371
			c-0.703-0.733-1.434-1.449-2.045-2.354c-0.272,0.33-0.211,0.542,0.024,0.857c0.919,1.226,1.763,2.507,2.698,3.719
			c0.336,0.438,0.408,0.907,0.453,1.388c0.094,0.992,0.119,1.99,0.17,2.986c0.012,0.222,0.039,0.454-0.246,0.547
			c-0.246,0.08-0.38-0.038-0.554-0.216c-1.193-1.203-2.129-2.605-3.048-4.01c-0.99-1.511-1.739-3.156-2.404-4.828
			c-0.708-1.784-0.884-3.596-0.401-5.518c1.213-4.836,2.854-9.482,5.299-13.849c2.044-3.648,3.945-7.377,5.911-11.069
			c0.155-0.294,0.313-0.589,0.494-0.866c0.111-0.169,0.167-0.475,0.45-0.393c0.221,0.065,0.159,0.331,0.172,0.512
			c0.057,0.803,0.082,1.605,0.144,2.406c0.224,2.904,0.671,5.768,1.21,8.632c0.559,2.982,1.326,5.948,1.145,9.043
			c-0.207,3.497-1.134,6.818-2.25,10.105c-1.143,3.365-2.778,6.522-4.111,9.806c-0.09,0.22-0.163,0.551-0.479,0.468
			c-0.335-0.087-0.188-0.409-0.163-0.641c0.205-2.038,0.907-3.933,1.648-5.817c0.487-1.238,0.991-2.47,1.47-3.709
			C375.774,52.468,375.955,52.116,375.731,51.633z"/>
		<path fill-rule="evenodd" clip-rule="evenodd" fill="#EEEEEE" d="M408.417,72.534c-0.791-0.693-1.632-1.016-2.428-1.421
			c-0.162-0.083-0.498-0.089-0.443-0.399c0.062-0.344,0.392-0.303,0.61-0.282c1.594,0.161,3.187,0.319,4.771,0.538
			c2.98,0.412,5.957,0.846,8.931,1.311c1.96,0.307,3.909,0.688,5.865,1.037c0.168,0.031,0.341,0.087,0.357,0.285
			c0.019,0.216-0.18,0.283-0.33,0.306c-0.711,0.106-1.423,0.241-2.138,0.27c-3.375,0.135-6.752,0.311-10.128,0.324
			c-1.647,0.006-3.295-0.315-4.945-0.481c-0.979-0.098-1.97-0.36-2.877,0.329c-0.198,0.151-0.528,0.158-0.801,0.173
			c-1.99,0.121-3.981,0.241-5.974,0.336c-3.262,0.157-5.633-1.441-7.554-3.893c-0.283-0.361-0.075-0.655,0.309-0.73
			c0.404-0.078,0.808-0.015,1.201,0.194c1.483,0.782,2.98,1.539,4.478,2.296c0.241,0.121,0.55,0.479,0.764,0.103
			c0.229-0.401-0.302-0.458-0.498-0.605c-0.682-0.505-1.407-0.957-2.131-1.402c-0.213-0.13-0.37-0.246-0.302-0.512
			c0.066-0.254,0.271-0.319,0.503-0.361c0.534-0.096,0.994,0.14,1.413,0.384c1.53,0.902,3.197,1.454,4.872,1.991
			c0.182,0.057,0.376,0.09,0.566,0.094c0.086,0.001,0.224-0.076,0.257-0.152c0.075-0.176-0.071-0.185-0.209-0.246
			c-0.824-0.367-1.638-0.763-2.456-1.143c-0.18-0.084-0.396-0.181-0.386-0.381c0.015-0.292,0.32-0.283,0.516-0.301
			c1.418-0.13,2.797-0.116,4.062,0.737c0.979,0.659,2.099,1.072,3.166,1.573C407.747,72.639,407.997,72.73,408.417,72.534z"/>
		<path fill-rule="evenodd" clip-rule="evenodd" fill="#EEEEEE" d="M355.611,97.586c-0.393-0.443-0.583-0.838-0.452-1.359
			c0.279-1.098,0.546-2.201,0.786-3.31c0.384-1.772,0.351-3.571,0.315-5.374c-0.064-3.46,0.457-6.773,2.443-9.746
			c1.894-2.839,4.55-4.319,7.893-4.514c3.619-0.21,7.245-0.283,10.869-0.413c0.165-0.006,0.332-0.005,0.496,0.01
			c0.222,0.019,0.501,0.02,0.539,0.285c0.049,0.344-0.27,0.367-0.504,0.418c-1.687,0.356-3.407,0.388-5.116,0.532
			c-1.132,0.095-2.267,0.158-3.397,0.236c-5.005,0.349-8.329,2.964-9.914,7.726c-0.645,1.941-0.613,3.922-0.566,5.918
			c0.051,2.131,0.099,4.262,0.153,6.393c0.023,0.905-0.124,1.771-0.586,2.559C357.963,97.979,356.356,98.27,355.611,97.586z"/>
		<path fill-rule="evenodd" clip-rule="evenodd" fill="#EEEEEE" d="M378.239,86.375c-0.411-0.402-1.004-0.652-0.856-0.992
			c0.207-0.477,0.718-0.037,1.089,0.016c1.232,0.175,2.412,0.463,3.279,1.484c0.303,0.359,0.793,0.463,1.228,0.631
			c0.405,0.155,0.746,0.324,0.774-0.346c0.02-0.483,0.404-0.383,0.683-0.339c1.715,0.271,3.427,0.566,5.141,0.849
			c1.06,0.176,2.124,0.332,3.183,0.523c0.208,0.039,0.574-0.012,0.556,0.34c-0.016,0.333-0.369,0.282-0.594,0.332
			c-3.819,0.869-7.655,0.986-11.54,0.419c-1.613-0.235-3.226-0.371-4.725-1.083c-0.381-0.183-0.58-0.373-0.649-0.834
			c-0.132-0.889-1.026-1.275-1.479-1.966c-0.223-0.341-0.931-0.518-0.656-0.985c0.31-0.531,0.811,0.009,1.233,0.08
			c0.622,0.104,1.012,0.439,1.335,0.977c0.462,0.764,1.259,1.184,1.958,1.699c0.208,0.154,0.453,0.325,0.648,0.107
			c0.246-0.279-0.098-0.428-0.252-0.594C378.443,86.535,378.268,86.4,378.239,86.375z"/>
		<path fill-rule="evenodd" clip-rule="evenodd" fill="#EEEEEE" d="M396.606,69.062c-0.203-0.341,0.057-0.47,0.234-0.533
			c0.492-0.173,0.997-0.362,1.513-0.424c3.237-0.389,6.479-0.936,9.745-0.554c1.685,0.198,3.346,0.663,4.999,1.079
			c2.16,0.542,4.376,0.891,6.443,1.763c0.342,0.145,1.001,0.15,0.896,0.646c-0.12,0.565-0.726,0.209-1.065,0.168
			c-3.229-0.389-6.462-0.76-9.673-1.308c-2.37-0.404-4.766-0.568-7.172-0.618c-1.876-0.037-3.753-0.14-5.629-0.212
			C396.793,69.063,396.688,69.063,396.606,69.062z"/>
		<path fill-rule="evenodd" clip-rule="evenodd" fill="#EEEEEE" d="M390.634,86.633c-0.988,0.378-1.919-0.025-2.825-0.203
			c-2.864-0.562-5.721-1.164-8.56-1.84c-1.923-0.459-3.812-1.057-5.709-1.615c-0.174-0.051-0.512-0.012-0.486-0.328
			c0.027-0.309,0.317-0.341,0.565-0.388c1.82-0.347,3.567,0.019,5.294,0.556c3.568,1.115,7.133,2.242,10.698,3.369
			C389.952,86.291,390.413,86.109,390.634,86.633z"/>
		<path fill-rule="evenodd" clip-rule="evenodd" fill="#FFFFFF" d="M356.676,102.262c-0.312,0.352-0.612,0.713-0.935,1.051
			c-0.638,0.664-1.374,0.744-2.175,0.294c-0.296-0.165-0.395-0.378-0.299-0.677c0.126-0.395,0.274-0.781,0.425-1.168
			c0.167-0.432,0.472-0.588,0.919-0.416c0.419,0.161,0.851,0.223,1.298,0.164c0.15-0.02,0.271-0.101,0.294-0.248
			c0.023-0.166-0.108-0.23-0.251-0.268c-0.239-0.061-0.481-0.119-0.717-0.193c-0.582-0.186-0.952-0.545-0.901-1.197
			c0.06-0.794,0.459-1.02,1.162-0.656c0.678,0.352,1.325,0.772,2.024,1.077c0.598,0.261,0.493,0.55,0.182,0.937
			C357.356,101.393,357.018,101.828,356.676,102.262z"/>
		<path fill-rule="evenodd" clip-rule="evenodd" fill="#FFFFFF" d="M362.856,88.489c-0.547,0.511-1.158,1.018-1.836,1.448
			c-0.543,0.345-0.742,0.163-0.734-0.426c0.01-0.467,0.006-0.935,0.008-1.402c0-0.676,0.28-1.16,0.935-1.404
			c0.154-0.057,0.282-0.188,0.438-0.227c0.465-0.11,0.887-0.752,1.371-0.334C363.476,86.521,363.299,88.014,362.856,88.489z"/>
		<path fill-rule="evenodd" clip-rule="evenodd" fill="#FFFFFF" d="M360.961,91.652c0.529-0.484,1.056-0.969,1.591-1.445
			c0.392-0.352,0.629-0.249,0.719,0.264c0.152,0.875-0.161,1.494-0.954,1.847c-0.414,0.185-0.724,0.496-1.036,0.811
			c-0.15,0.151-0.311,0.384-0.55,0.283c-0.223-0.093-0.197-0.374-0.233-0.584C360.415,92.35,360.617,91.967,360.961,91.652z"/>
		<path fill-rule="evenodd" clip-rule="evenodd" fill="#FFFFFF" d="M362.682,84.904c-0.562,0.229-1.221,0.502-1.886,0.76
			c-0.167,0.064-0.241-0.063-0.295-0.207c-0.197-0.557,0.166-1.434,0.725-1.628c0.562-0.194,0.965-0.647,1.509-0.857
			c0.146-0.058,0.325-0.147,0.452,0.026c0.104,0.138-0.002,0.269-0.103,0.356c-0.294,0.258-0.292,0.562-0.195,0.905
			C362.94,84.449,362.881,84.645,362.682,84.904z"/>
		<path fill-rule="evenodd" clip-rule="evenodd" fill="#FFFFFF" d="M353.502,106.014c-0.295,0.289-0.557,0.625-0.893,0.854
			c-0.361,0.245-0.666,0.123-0.609-0.367c0.082-0.693,0.306-1.385,0.725-1.912c0.376-0.475,1.05-0.192,1.438,0.045
			c0.444,0.271-0.064,0.596-0.246,0.863c-0.122,0.182-0.287,0.333-0.434,0.499C353.488,106,353.495,106.007,353.502,106.014z"/>
		<path fill-rule="evenodd" clip-rule="evenodd" fill="#FFFFFF" d="M363.513,78.785c0.603-0.599,1.314-0.729,2.079-0.695
			c0.338,0.014,0.406,0.205,0.335,0.504c-0.177,0.76-1.93,1.563-2.566,1.116C362.862,79.357,363.402,79.062,363.513,78.785z"/>
		<path fill-rule="evenodd" clip-rule="evenodd" fill="#FFFFFF" d="M372.648,85.777c-0.479-0.489-0.922-0.945-1.37-1.397
			c-0.213-0.216-0.24-0.446-0.02-0.648c0.227-0.206,0.576-0.108,0.654,0.075c0.407,0.951,1.312,1.421,1.977,2.117
			c0.199,0.207,0.364,0.368,0.214,0.613c-0.237,0.385-0.435-0.055-0.593-0.125C373.177,86.267,372.906,85.979,372.648,85.777z"/>
		<path fill-rule="evenodd" clip-rule="evenodd" fill="#FFFFFF" d="M361.914,94.63c-0.645,1.171-0.968,2.247-1.921,3.032
			C359.886,96.676,360.774,95.22,361.914,94.63z"/>
		<path fill-rule="evenodd" clip-rule="evenodd" fill="#FFFFFF" d="M367.636,76.219c0.173,0.269,0.592,0.445,0.261,0.837
			c-0.184,0.219-1.368,0.125-1.634-0.111c-0.203-0.184-0.131-0.361,0.02-0.491C366.686,76.106,367.112,75.79,367.636,76.219z"/>
		<path fill-rule="evenodd" clip-rule="evenodd" fill="#FFFFFF" d="M361.793,81.271c0.452-0.43,1.045-0.325,1.594-0.236
			c0.29,0.051,0.136,0.293-0.026,0.416c-0.451,0.346-0.989,0.435-1.534,0.487c-0.086,0.007-0.239-0.063-0.257-0.126
			C361.514,81.609,361.653,81.455,361.793,81.271z"/>
		<path fill-rule="evenodd" clip-rule="evenodd" fill="#FFFFFF" d="M344.426,100.385c0.638-1.6,1.628-3.068,1.114-4.936
			c-0.276-1.002-0.265-2.082-0.372-3.127c-0.02-0.194,0.002-0.426,0.254-0.452c0.306-0.031,0.349,0.231,0.373,0.448
			c0.093,0.784,0.169,1.572,0.396,2.379c0.388-0.996,0.868-1.949,0.842-3.033c-0.036-1.445-0.276-2.861-0.76-4.229
			c-0.055-0.156-0.123-0.317-0.125-0.478c-0.004-0.122,0.051-0.296,0.141-0.36c0.194-0.139,0.305,0.066,0.384,0.191
			c0.116,0.184,0.215,0.389,0.271,0.599c0.092,0.347,0.134,0.706,0.213,1.057c0.083,0.365,0.03,0.966,0.425,0.981
			c0.434,0.016,0.363-0.6,0.458-0.945c0.203-0.748,0.33-1.514,0.523-2.264c0.075-0.293,0.075-0.791,0.516-0.711
			c0.416,0.076,0.434,0.506,0.348,0.894c-0.346,1.539-0.64,3.091-1.032,4.62c-1.621,6.314-3.663,12.482-6.569,18.337
			c-1.708,3.442-3.862,6.586-6.352,9.508c-2.244,2.636-4.614,5.161-6.773,7.869c-0.15,0.189-0.294,0.401-0.57,0.485
			c-0.045-0.076-0.128-0.16-0.111-0.207c0.258-0.691,0.353-1.193-0.695-0.826c-0.37,0.131-0.697-0.066-0.818-0.492
			c-0.114-0.409,0.111-0.637,0.436-0.783c1.545-0.701,2.748-1.832,3.903-3.039c3.698-3.86,6.955-8.037,9.337-12.854
			c0.352-0.71,0.565-1.428,0.451-2.238c-0.111-0.794-0.175-1.596-0.238-2.396c-0.023-0.304-0.233-0.783,0.232-0.837
			c0.564-0.065,0.377,0.499,0.425,0.806c0.088,0.547,0.106,1.102,0.164,1.653c0.017,0.155,0.018,0.374,0.235,0.364
			c0.102-0.006,0.23-0.15,0.286-0.264c0.254-0.508,0.323-1.057,0.268-1.616c-0.11-1.13-0.236-2.259-0.351-3.388
			c-0.028-0.26-0.21-0.664,0.125-0.726c0.414-0.074,0.488,0.362,0.527,0.696c0.083,0.715,0.142,1.432,0.224,2.146
			c0.027,0.238-0.042,0.508,0.24,0.75c1.035-1.336,1.403-2.756,0.89-4.4c-0.372-1.188-0.516-2.43-0.678-3.664
			c-0.035-0.26-0.076-0.652,0.294-0.654c0.291,0,0.224,0.387,0.269,0.617C343.839,97.373,344.132,98.879,344.426,100.385z"/>
		<path fill-rule="evenodd" clip-rule="evenodd" fill="#FFFFFF" d="M329.013,115.704c-0.218,0.925-0.415,1.71-0.585,2.503
			c-0.052,0.24-0.3,0.586,0.088,0.715c0.296,0.1,0.499-0.211,0.628-0.447c0.526-0.959,0.643-2.057,1.009-3.07
			c0.126-0.35,0.145-0.77,0.638-0.994c0.121,0.697-0.2,1.262-0.301,1.857c-0.036,0.213-0.184,0.457,0.023,0.623
			c0.261,0.209,0.46-0.067,0.656-0.182c0.55-0.322,0.715-0.885,0.857-1.459c0.19-0.76,0.317-1.539,0.685-2.383
			c0.448,0.728,0.092,1.314,0.082,1.894c-0.004,0.238-0.177,0.54,0.088,0.687c0.228,0.123,0.354-0.197,0.541-0.292
			c0.236-0.118,0.41-0.384,0.732-0.317c0.153,0.377-0.071,0.637-0.268,0.902c-0.751,1.029-1.537,2.033-2.25,3.088
			c-1.217,1.806-2.892,3.114-4.626,4.362c-0.553,0.397-1.096,0.446-1.613-0.126c-0.583-0.646-1.204-1.254-1.741-1.944
			c-0.21-0.269-0.256-0.481-0.07-0.734c0.358-0.484,1.874-0.356,2.105,0.187c0.124,0.291,0.3,0.471,0.608,0.461
			c0.486-0.012,0.746-0.34,0.882-0.758c0.407-1.236,0.793-2.48,1.194-3.717C328.468,116.281,328.475,115.945,329.013,115.704z"/>
		<path fill-rule="evenodd" clip-rule="evenodd" fill="#FFFFFF" d="M329.069,109.3c-0.202,0.25-0.417,0.37-0.682,0.252
			c-0.314-0.142-0.342-0.431-0.261-0.71c0.338-1.166,0.63-2.318,1.284-3.405c1.771-2.935,3.399-5.954,5.048-8.959
			c0.666-1.214,1.121-2.521,1.437-3.878c0.087-0.374,0.24-1.002,0.658-0.932c0.425,0.072,0.31,0.701,0.305,1.092
			c-0.01,0.754-0.241,1.472-0.518,2.166c-0.287,0.719-0.572,1.444-0.939,2.123c-0.712,1.316-1.086,2.755-1.604,4.141
			c-0.953,2.537-2.652,4.648-4.042,6.936C329.512,108.525,329.283,108.936,329.069,109.3z"/>
		<path fill-rule="evenodd" clip-rule="evenodd" fill="#FFFFFF" d="M363.01,106.045c0.952-1.074,1.827-2.059,2.695-3.047
			c0.199-0.229,0.364-0.494,0.655-0.625c0.173-0.076,0.373-0.17,0.545-0.018c0.164,0.145,0.134,0.354,0.077,0.543
			c-0.113,0.383-0.382,0.675-0.64,0.959c-1.614,1.789-3.201,3.604-4.87,5.34c-2.294,2.387-4.104,5.154-6.241,7.663
			c-1.888,2.213-3.807,4.398-5.841,6.478c-0.281,0.286-0.624,0.538-0.765,1.056c0.862-0.077,1.551-0.472,2.261-0.786
			c0.152-0.066,0.287-0.17,0.434-0.248c0.224-0.119,0.51-0.246,0.66,0.018c0.153,0.272-0.101,0.464-0.333,0.568
			c-0.604,0.273-1.217,0.531-1.832,0.781c-0.871,0.354-1.745,0.698-2.622,1.04c-0.301,0.118-0.517,0.308-0.644,0.673
			c0.536,0.178,0.939-0.173,1.379-0.311c0.37-0.115,0.728-0.267,1.094-0.393c0.212-0.074,0.481-0.153,0.578,0.113
			c0.098,0.271-0.173,0.373-0.379,0.448c-1.037,0.386-2.077,0.765-3.117,1.138c-0.575,0.207-1.102,0.484-1.605,0.941
			c0.305,0.226,0.511,0.061,0.721-0.022c0.416-0.166,0.845-0.265,1.295-0.25c0.142,0.006,0.296,0.05,0.325,0.2
			c0.034,0.172-0.129,0.246-0.256,0.266c-1.054,0.158-1.917,0.866-2.965,1.021c-0.429,0.064-0.552,0.247-0.302,0.594
			c0.297,0.412,0.055,0.63-0.264,0.779c-0.65,0.305-1.3,0.652-1.989,0.821c-0.713,0.177-1.272,0.495-1.738,1.043
			c-0.52,0.614-1.104,1.167-1.735,1.665c-0.428,0.338-0.926,0.527-1.331,0.065c-0.366-0.417-0.17-0.859,0.193-1.25
			c1.004-1.075,2.049-2.106,3.188-3.034c1.985-1.613,3.644-3.557,5.433-5.366c1.966-1.991,4.027-3.88,6.051-5.808
			c0.241-0.229,0.478-0.508,0.771-0.627c1.401-0.561,2.071-1.855,3.016-2.887c4.271-4.67,7.201-10.209,10.247-15.675
			c0.231-0.417,0.457-1.122,1.01-0.815c0.455,0.253,0.055,0.856-0.174,1.254c-0.869,1.513-1.758,3.014-2.638,4.521
			C363.166,105.197,362.92,105.508,363.01,106.045z"/>
		<path fill-rule="evenodd" clip-rule="evenodd" fill="#FFFFFF" d="M369.495,107.309c-0.006,1.031,0.783,1.854,0.863,2.94
			c0.147,2.024,0.151,4.067-0.104,6.048c-0.285,2.195-0.725,4.425-1.848,6.416c-0.16,0.283-0.356,0.539-0.72,0.371
			c-0.36-0.162-0.199-0.455-0.107-0.715c1.596-4.525,2.06-9.15,1.211-13.889c-0.058-0.327-0.15-0.657-0.053-0.988
			C368.854,107.1,369.095,107.037,369.495,107.309z"/>
		<path fill-rule="evenodd" clip-rule="evenodd" fill="#FFFFFF" d="M363.182,127.466c-0.376,0.946-1.321,1.376-1.888,2.151
			c-0.121,0.166-0.338,0.284-0.532,0.373c-2.114,0.956-4.229,1.889-6.53,2.345c-1.267,0.249-2.44,0.888-3.749,1.018
			c-0.107,0.01-0.214,0.077-0.319,0.077c-0.356,0-0.885,0.309-1.009-0.17c-0.111-0.425,0.408-0.547,0.778-0.691
			c2.733-1.059,5.633-1.567,8.385-2.557c1.729-0.621,3.039-1.876,4.474-2.943c0.312-0.23,0.656-0.85,0.972-0.52
			C364.104,126.906,363.454,127.193,363.182,127.466z"/>
		<path fill-rule="evenodd" clip-rule="evenodd" fill="#FFFFFF" d="M359.017,123.735c-0.78,0.974-1.673,1.466-2.586,1.927
			c-0.191,0.098-0.434,0.232-0.575-0.043c-0.111-0.215,0.081-0.354,0.251-0.453c1.046-0.612,1.733-1.604,2.449-2.515
			c0.86-1.097,1.641-2.281,2.216-3.573c0.11-0.252,0.249-0.59,0.561-0.504c0.366,0.102,0.325,0.483,0.229,0.771
			c-0.156,0.469-0.313,0.951-0.561,1.377C360.366,121.821,359.674,122.886,359.017,123.735z"/>
	</g>
</g>
<g id="cYmbPA_1_">
	<g>
		<path fill="#FFFFFF" d="M20.248,64.416c0-17.331,0.004-34.662-0.018-51.993c0-0.678,0.153-0.831,0.832-0.831
			c81.35,0.018,162.7,0.017,244.051,0.017c-0.195,0.985-0.51,1.936-1.103,2.748c-0.799,1.094-1.268,2.315-1.609,3.607
			c-0.624,2.358-1.239,4.718-1.718,7.112c-0.248,1.242-0.567,2.463-1.02,3.651c-0.201,0.527-0.504,0.762-1.076,0.742
			c-0.904-0.032-1.809-0.022-2.713,0.001c-0.329,0.008-0.799-0.142-0.879,0.38c-0.07,0.46,0.178,0.826,0.586,1.03
			c0.236,0.118,0.514,0.175,0.779,0.21c0.918,0.118,1.333,0.665,1.273,1.547c-0.119,1.769-0.07,3.555-0.579,5.284
			c-2.817,9.576-4.459,19.427-6.725,29.132c-1.261,5.401-2.846,10.635-4.996,15.722c-0.173,0.411-0.39,0.824-0.668,1.17
			c-0.714,0.889-1.122,0.844-1.599-0.174c-0.945-2.023-0.995-4.222-1.011-6.374c-0.05-6.749,0.212-13.492,0.712-20.223
			c0.167-2.249,0.276-4.506,0.688-6.734c0.597-3.228,1.033-6.479,1.389-9.743c0.223-2.033-0.66-3.499-2.642-4.347
			c-2.055-0.878-3.35-0.562-4.759,1.207c-1.025,1.288-1.746,2.742-2.218,4.316c-0.746,2.489-1.062,5.067-1.539,7.61
			c-1.279,6.806-2.653,13.595-3.739,20.436c-0.956,6.018-2.055,11.997-4.452,17.652c-0.271,0.637-0.463,1.314-0.986,1.808
			c-0.706,0.668-1.106,0.578-1.454-0.306c-0.169-0.428-0.208-0.873-0.244-1.327c-0.195-2.437-0.116-4.87-0.027-7.312
			c0.156-4.311,0.609-8.59,1.205-12.853c1.16-8.29,2.705-16.518,4.026-24.783c0.402-2.522,0.828-5.035,0.44-7.628
			c-0.61-4.087-4.012-5.82-7.529-3.727c-2.305,1.372-4.614,2.735-6.894,4.147c-2.898,1.798-5.823,3.606-7.982,6.302
			c-4.467,5.578-5.008,11.956-3.426,18.648c0.442,1.87,1.769,3.133,3.673,3.654c2.455,0.671,4.699-0.543,5.245-2.812
			c0.22-0.913,0.028-1.787-0.242-2.664c-0.791-2.558-1.24-5.16-0.749-7.836c0.607-3.301,1.996-6.188,4.681-8.311
			c0.639-0.505,1.411-1.189,2.274-0.74c0.863,0.449,0.883,1.461,0.877,2.334c-0.01,1.746-0.098,3.492-0.139,5.238
			c-0.032,1.355-0.02,2.713-0.068,4.068c-0.175,4.845-0.602,9.673-1.029,14.5c-0.287,3.238-0.543,6.48-0.774,9.722
			c-0.329,4.625-0.767,9.252-0.297,13.891c0.32,3.174,1.391,6.047,3.741,8.312c1.786,1.721,3.85,1.918,5.939,0.609
			c1.001-0.625,1.876-1.405,2.682-2.271c1.92-2.064,3.112-4.562,4.31-7.07c0.84-1.757,1.773-3.467,2.77-5.401
			c0.645,1.743,1.204,3.255,1.762,4.769c0.595,1.611,1.197,3.221,2.009,4.74c1.434,2.686,3.989,3.549,6.731,2.214
			c2.264-1.101,4.049-2.769,5.099-5.065c2.057-4.494,3.915-9.07,5.365-13.805c4.296-14.029,7.233-28.422,11.442-42.474
			c0.702-2.344-0.272-4.315-2.471-5.392c-0.845-0.416-1.745-0.678-2.656-0.873c-0.661-0.143-0.822-0.387-0.626-1.053
			c0.588-1.993,1.15-3.995,1.645-6.014c0.901-3.68,2.019-7.334,1.656-11.203c24.625,0,49.251,0.003,73.875-0.017
			c0.679-0.001,0.832,0.153,0.831,0.831c-0.021,18.597-0.017,37.194-0.017,55.791c-0.094-0.349-0.188-0.696-0.279-1.045
			c-0.626-2.381-3.017-3.283-5.025-1.878c-0.492,0.344-0.939,0.755-1.391,1.153c-1.052,0.929-1.277,2.054-0.786,3.355
			c0.352,0.929,0.708,1.859,1.002,2.807c0.259,0.838,0.196,1.653-0.35,2.408c-0.617,0.854-1.182,1.747-1.779,2.616
			c-0.197,0.285-0.349,0.667-0.835,0.508c-0.471-0.156-0.808-0.445-0.825-0.957c-0.021-0.633-0.02-1.269,0.041-1.896
			c0.525-5.514,1.062-11.024,1.744-16.522c0.986-7.948,2.301-15.847,3.553-23.756c0.222-1.406,0.495-1.6,1.963-1.637
			c0.54-0.013,1.091,0.05,1.58-0.27c0.581-0.381,0.606-0.763,0.077-1.22c-0.46-0.397-1.039-0.537-1.601-0.54
			c-1.562-0.008-1.497-0.414-1.34-1.673c0.371-2.983,0.747-5.971,1.725-8.841c0.115-0.337,0.159-0.702,0.196-1.059
			c0.013-0.126-0.056-0.328-0.153-0.386c-0.209-0.126-0.32,0.091-0.414,0.23c-0.943,1.406-1.854,2.828-2.053,4.569
			c-0.233,2.041-0.764,4.02-1.244,6.011c-0.137,0.565-0.453,0.82-0.993,0.864c-0.93,0.076-1.859,0.17-2.791,0.212
			c-1.395,0.063-1.732,0.304-2.07,1.653c-0.917,3.651-1.871,7.294-2.704,10.965c-0.244,1.077-0.703,1.511-1.784,1.696
			c-2.46,0.423-4.856,1.177-6.628,3.047c-3.43,3.623-6.317,7.604-7.611,12.537c-0.038,0.146-0.075,0.294-0.141,0.429
			c-0.103,0.217-0.229,0.488-0.492,0.467c-0.29-0.024-0.316-0.332-0.343-0.566c-0.03-0.268-0.025-0.542-0.026-0.812
			c-0.005-1.808,0.049-3.618-0.024-5.424c-0.123-3.106-1.228-5.812-3.517-7.977c-0.658-0.622-1.347-1.262-2.282-1.391
			c-2.844-0.386-5.53-0.031-7.862,1.824c-1.644,1.306-2.974,2.901-4.184,4.6c-2.09,2.93-3.436,6.208-4.454,9.637
			c-0.151,0.514-0.312,0.979-1.046,0.789c-0.644-0.167-0.808-0.45-0.751-1.145c0.24-2.911,0.408-5.826,0.452-8.75
			c0.033-2.222-0.802-4.038-2.279-5.62c-0.878-0.938-1.808-1.809-3.151-1.969c-1.318-0.157-2.646-0.184-3.961,0.056
			c-2.988,0.544-5.221,2.227-6.94,4.661c-3.134,4.438-4.11,9.573-4.761,14.809c-0.35,2.81-0.422,5.642-0.618,8.464
			c-0.279,4.029-0.075,8.001,0.955,11.921c0.566,2.156,1.888,3.458,4.079,3.998c2.274,0.561,4.099-0.084,5.613-1.771
			c2.742-3.057,4.943-6.451,6.354-10.331c0.205-0.564,0.44-1.128,0.744-1.644c0.491-0.836,1.709-1.148,2.642-0.739
			c0.955,0.418,0.653,1.182,0.47,1.863c-1.103,4.109-0.159,7.934,1.608,11.641c0.644,1.351,1.673,2.275,3.162,2.607
			c2.437,0.545,4.664,0.039,6.669-1.431c1.571-1.152,2.577-2.764,3.521-4.421c1.51-2.654,2.631-5.484,3.75-8.314
			c0.224-0.566,0.464-1.12,0.948-1.514c0.855-0.697,1.9-0.962,2.882-0.59c0.838,0.319,0.384,1.278,0.45,1.957
			c0.048,0.506-0.011,1.024,0.012,1.536c0.137,3.093,0.742,6.08,1.844,8.984c1.991,5.248,9.611,6.797,13.079,2.746
			c0.402-0.471,0.964-0.703,1.523-0.638c0.597,0.067,1.202,0.067,1.791,0.161c3.218,0.506,5.795-0.601,7.803-3.096
			c3.358-4.168,6.114-8.657,7.257-13.98c0,15.703-0.006,31.407,0.017,47.11c0.001,0.679-0.152,0.831-0.831,0.831
			c-62.361-0.019-124.723-0.017-187.084-0.017c0.088-0.257,0.2-0.506,0.259-0.769c1.08-4.818,2.175-9.634,3.217-14.461
			c0.257-1.189,0.73-2.215,1.569-3.091c0.52-0.544,1.022-1.108,1.493-1.696c1.736-2.166,4.062-3.91,4.859-6.753
			c-0.119,1.439-0.256,2.878-0.354,4.317c-0.104,1.531-0.347,3.057-0.233,4.598c0.099,1.345,1.002,2.064,2.104,2.602
			c0.856,0.418,1.351-0.124,1.818-0.719c0.095-0.121,0.229-0.246,0.38-0.176c0.289,0.135,0.18,0.414,0.168,0.641
			c-0.159,3.338-0.338,6.676-0.467,10.014c-0.017,0.436-0.352,1.209,0.401,1.252c0.605,0.035,0.502-0.719,0.559-1.157
			c0.8-6.208,1.573-12.419,2.372-18.628c0.238-1.85,0.451-3.714,1.382-5.391c3.171-5.717,6.338-11.437,9.512-17.152
			c0.284-0.512,0.614-0.997,1.121-1.325c0.234,0.266,0.189,0.518,0.189,0.75c0.008,4.432-0.324,8.844-0.826,13.243
			c-0.325,2.842-0.726,5.674-0.612,8.547c0.109,2.811,1.252,4.649,3.413,5.447c0.764,0.283,1.498,0.294,2.104-0.309
			c2.306-2.297,4.67-4.558,6.422-7.326c2.191-3.461,4.284-6.985,6.419-10.482c0.174-0.283,0.347-0.566,0.381-0.908
			c0.055-0.549-0.164-0.936-0.678-1.146c-0.489-0.2-0.822,0.052-1.068,0.427c-0.329,0.504-0.625,1.029-0.927,1.551
			c-2.204,3.808-4.281,7.707-7.692,10.639c-0.506,0.436-0.934,1.26-1.705,0.943c-0.786-0.322-0.624-1.219-0.634-1.922
			c-0.036-2.864,0.265-5.713,0.429-8.568c0.135-2.342,0.366-4.68,0.607-7.014c0.355-3.445,0.78-6.886,0.588-10.359
			c-0.073-1.321-0.151-2.659-0.813-3.856c-0.708-1.281-2.383-1.857-3.244-1.12c-4.757,4.072-8.651,8.797-11.035,14.657
			c-0.217,0.534-0.492,1.034-0.841,1.492c-0.125,0.163-0.272,0.379-0.508,0.302c-0.25-0.084-0.205-0.353-0.19-0.552
			c0.082-1.11,0.172-2.219,0.272-3.327c0.268-2.953,1.011-5.806,1.757-8.664c0.476-1.82,0.375-3.651-0.369-5.399
			c-0.429-1.009-1.138-1.338-2.187-1.075c-0.464,0.115-0.919,0.292-1.351,0.498c-2.244,1.072-3.794,2.934-5.352,4.775
			c-0.682,0.806-0.388,1.57,0.668,1.583c0.859,0.011,0.943,0.381,0.863,1.037c-0.033,0.269-0.02,0.544-0.065,0.81
			c-1.26,7.216-2.05,14.478-2.323,21.801c-0.059,1.554-0.149,3.123-0.46,4.661c-0.017-0.149-0.003-0.309-0.053-0.444
			c-0.116-0.324-0.069-0.819-0.486-0.881c-0.357-0.053-0.49,0.393-0.687,0.643c-0.798,1.021-1.534,2.094-2.46,3.007
			c-0.417,0.41-0.882,1.073-1.499,0.771c-0.655-0.32-0.605-1.137-0.519-1.793c0.541-4.059,1.104-8.113,1.668-12.168
			c0.813-5.844,1.621-11.687,2.459-17.528c0.589-4.106,1.055-8.221,2.666-12.133c1.182-2.87,1.335-5.924,0.33-8.943
			c-0.637-1.916-1.788-2.518-3.703-1.89c-1.497,0.491-2.899,1.182-4.132,2.188c-2.242,1.83-4.388,3.771-6.53,5.714
			c-0.219,0.198-0.441,0.432-0.563,0.694c-0.224,0.483-0.112,0.984,0.271,1.326c0.387,0.345,0.655-0.107,0.92-0.295
			c1.397-0.998,2.773-2.028,4.168-3.03c0.229-0.165,0.451-0.549,0.754-0.362c0.27,0.166,0.116,0.561,0.092,0.847
			c-0.272,3.092-0.815,6.147-1.322,9.205c-0.918,5.523-1.85,11.043-2.475,16.611c-0.589,5.234-1.289,10.455-1.896,15.688
			c-0.275,2.368-0.654,4.712-1.348,6.995c-0.297,0.975-0.125,1.713,0.729,2.367c1.098,0.842,2.062,1.859,3.168,2.689
			c0.776,0.582,0.902,1.227,0.769,2.113c-0.772,5.12-1.507,10.244-2.254,15.368c-43.532,0-87.063-0.003-130.596,0.017
			c-0.691,0.001-0.903-0.08-0.901-0.855c0.031-16.539,0.023-33.079,0.023-49.617c0.073,0.26,0.155,0.518,0.217,0.781
			c0.53,2.25,1.88,3.812,4.004,4.682c2.975,1.217,6.292-0.498,7.553-3.872c0.692-1.849,0.458-3.542-0.819-5.079
			c-0.771-0.926-1.526-1.865-2.274-2.811c-0.454-0.574-0.73-1.243-0.341-1.928c1.289-2.276,2.426-4.644,4.35-6.512
			c1.926-1.869,3.922-3.657,5.923-5.441c1.304-1.164,2.568-2.377,4.148-3.18c2.846-1.447,5.66-2.955,8.556-4.309
			c6.002-2.808,12.402-3.913,18.926-4.225c5.475-0.261,9.934,5.693,8.505,11.03c-0.746,2.785-1.92,5.368-3.592,7.746
			c-2.476,3.519-5.014,6.953-8.838,9.154c-0.422,0.243-0.84,0.903-1.279,0.605c-0.362-0.244-0.14-0.96-0.102-1.462
			c0.203-2.686,0.903-5.279,1.497-7.89c0.782-3.437,1.502-6.88,1.841-10.397c0.161-1.663-0.313-2.494-1.891-3.015
			c-1.619-0.535-3.297-0.695-4.99-0.671c-1.101,0.017-1.632,0.472-1.878,1.587c-0.247,1.116-0.39,2.256-0.64,3.371
			c-1.29,5.726-2.78,11.408-3.672,17.222c-1.544,10.058-3.39,20.064-5.245,30.068c-0.373,2.013-0.854,4.007-0.713,6.082
			c0.106,1.573,0.667,2.389,2.175,2.845c0.861,0.261,1.75,0.449,2.638,0.607c0.699,0.124,0.874,0.463,0.747,1.135
			c-0.46,2.424-0.902,4.854-1.312,7.287c-0.317,1.879-0.631,3.761-0.709,5.828c0.419-0.444,0.459-0.876,0.568-1.266
			c0.977-3.541,1.956-7.083,2.901-10.633c0.331-1.242,0.644-2.435,1.924-3.106c0.579-0.305,0.6-0.913,0.021-1.225
			c-0.906-0.487-0.801-1.146-0.648-1.967c1.059-5.683,2.219-11.347,3.022-17.073c0.324-2.309,1.516-3.936,3.525-5.043
			c1.573-0.867,2.312-0.54,2.703,1.204c0.49,2.187,0.592,4.417,0.694,6.638c0.202,4.4,1.415,8.419,3.764,12.188
			c3.81,6.113,11.854,8.54,17.584,6.472c2.778-1.003,4.38-3.841,3.686-6.7c-0.727-2.997-3.258-4.193-5.9-2.748
			c-2.116,1.156-4.042,0.867-5.869-0.607c-0.536-0.432-1.011-0.954-1.727-1.114c-1.154-0.259-1.94-1.015-2.648-1.917
			c-1.46-1.856-2.053-3.965-2.105-6.302c-0.045-2.045-0.193-4.091-0.373-6.128c-0.199-2.26-1.184-4.282-2.086-6.32
			c-0.22-0.497-0.239-0.849,0.23-1.255c3.968-3.443,7.104-7.518,9.282-12.315c2.559-5.635,3.852-11.466,2.717-17.661
			c-0.249-1.359-0.098-2.798-0.689-4.081c-2.145-4.649-5.618-7.746-10.641-9.019c-3.917-0.992-7.828-0.448-11.64,0.363
			c-5.916,1.259-11.517,3.517-16.83,6.41c-4.18,2.278-7.693,5.475-11.315,8.522C26.764,49.616,22.529,56.382,20.248,64.416z
			 M112.317,30.081c0-0.964,0.007-1.929-0.005-2.894c-0.003-0.239-0.05-0.512-0.366-0.534c-0.323-0.021-0.376,0.242-0.416,0.486
			c-0.063,0.386-0.125,0.772-0.178,1.161c-0.224,1.64-0.463,3.277-0.659,4.921c-0.072,0.604-0.34,0.834-0.938,0.807
			c-0.722-0.033-1.448-0.025-2.17,0.002c-0.362,0.014-0.908-0.175-1.009,0.324c-0.108,0.533,0.325,0.897,0.801,1.065
			c0.651,0.229,1.325,0.405,1.997,0.57c1.333,0.327,1.336,0.318,1.243,1.675c-0.013,0.179-0.04,0.359-0.064,0.538
			c-0.737,5.492-1.651,10.955-2.647,16.405c-0.526,2.873-1.033,5.75-1.604,8.612c-0.266,1.334-1.027,1.889-2.255,1.904
			c-0.547,0.007-0.789-0.199-0.738-0.743c0.089-0.959,0.175-1.919,0.266-2.877c0.354-3.76-0.305-7.322-2.116-10.649
			c-0.52-0.957-1.27-1.718-2.329-2.035c-2.623-0.785-6.025-0.593-8.16,2.059c-1.745,2.165-3.325,4.429-4.665,6.869
			c-2.399,4.369-3.534,9.105-4.417,13.97c-1.13,6.221-0.759,12.225,1.787,18.046c0.702,1.606,1.713,2.969,3.186,3.962
			c1.333,0.898,2.673,0.965,4.072,0.135c1.71-1.016,3.158-2.303,4.285-3.948c2.193-3.201,3.908-6.644,5.203-10.298
			c0.251-0.71,0.487-1.43,0.807-2.107c0.361-0.766,1.238-1.006,2.383-0.74c0.836,0.193,0.495,0.876,0.481,1.336
			c-0.072,2.5-0.262,4.994-0.3,7.492c-0.04,2.58,2.154,3.824,4.428,2.584c0.556-0.302,1.079-0.701,1.671-0.889
			c1.197-0.379,1.736-1.205,2.092-2.351c1.627-5.233,2.458-10.629,3.013-16.044c0.35-3.421,1.542-6.338,3.613-8.979
			c0.615-0.783,1.28-1.536,2.163-2.028c0.892-0.499,1.506-0.276,1.838,0.687c0.525,1.522,0.791,3.089,0.644,4.71
			c-0.546,6.005-2.419,11.592-5.299,16.863c-0.733,1.342-1.611,2.626-2.994,3.305c-2.223,1.091-3.247,2.937-3.789,5.206
			c-0.213,0.891-0.048,1.662,0.465,2.393c1.29,1.834,2.796,2.181,4.863,1.115c3.401-1.756,5.796-4.49,7.475-7.859
			c2.745-5.514,3.805-11.459,4.267-17.531c0.188-2.46,0.196-4.936,0.344-7.4c0.174-2.893-0.299-5.645-1.643-8.224
			c-1.141-2.188-3-3.155-5.426-2.912c-0.997,0.099-1.953,0.364-2.919,0.591c-1.262,0.299-1.347,0.223-1.134-1.07
			c0.435-2.645,0.849-5.289,1.476-7.9c0.33-1.372,0.299-2.777-0.649-3.967c-1.074-1.349-2.416-2.132-4.225-1.941
			c-1.357,0.142-1.737-0.237-1.745-1.611C112.316,31.587,112.32,30.834,112.317,30.081z M140.77,33.417
			c0.177-3.586-1.062-6.429-3.373-8.012c-0.669-0.458-1.454-0.972-2.248-0.458c-0.801,0.518-0.371,1.356-0.216,2.075
			c0.305,1.403,0.815,2.758,0.582,4.257c-0.561,3.611-1.361,7.146-2.856,10.502c-0.339,0.761-0.492,1.618,0.267,2.247
			c0.743,0.616,1.526,0.367,2.257-0.105c0.252-0.165,0.531-0.313,0.728-0.532C138.546,40.433,140.992,37.379,140.77,33.417z"/>
		<path fill-rule="evenodd" clip-rule="evenodd" fill="#FFFFFF" d="M340.163,72.191c-1.143,5.323-3.898,9.812-7.257,13.98
			c-2.008,2.495-4.585,3.602-7.803,3.096c-0.589-0.094-1.194-0.094-1.791-0.161c-0.56-0.065-1.121,0.167-1.523,0.638
			c-3.468,4.051-11.088,2.502-13.079-2.746c-1.102-2.904-1.707-5.892-1.844-8.984c-0.022-0.512,0.036-1.029-0.012-1.536
			c-0.066-0.679,0.388-1.638-0.45-1.957c-0.981-0.373-2.026-0.107-2.882,0.59c-0.484,0.394-0.725,0.948-0.948,1.514
			c-1.119,2.83-2.24,5.66-3.75,8.314c-0.944,1.657-1.95,3.269-3.521,4.421c-2.005,1.47-4.232,1.976-6.669,1.431
			c-1.489-0.332-2.519-1.257-3.162-2.607c-1.768-3.707-2.711-7.531-1.608-11.641c0.184-0.681,0.485-1.445-0.47-1.863
			c-0.933-0.409-2.15-0.097-2.642,0.739c-0.304,0.516-0.539,1.08-0.744,1.644c-1.411,3.88-3.612,7.274-6.354,10.331
			c-1.515,1.688-3.339,2.332-5.613,1.771c-2.191-0.54-3.513-1.842-4.079-3.998c-1.03-3.92-1.234-7.893-0.955-11.921
			c0.196-2.823,0.269-5.654,0.618-8.464c0.65-5.236,1.627-10.371,4.761-14.809c1.72-2.435,3.952-4.117,6.94-4.661
			c1.315-0.239,2.643-0.212,3.961-0.056c1.344,0.161,2.273,1.031,3.151,1.969c1.478,1.582,2.312,3.397,2.279,5.62
			c-0.044,2.924-0.212,5.839-0.452,8.75c-0.057,0.695,0.107,0.978,0.751,1.145c0.733,0.191,0.895-0.274,1.046-0.789
			c1.019-3.429,2.364-6.707,4.454-9.637c1.21-1.698,2.54-3.293,4.184-4.6c2.332-1.854,5.019-2.21,7.862-1.824
			c0.936,0.128,1.624,0.769,2.282,1.391c2.289,2.164,3.394,4.87,3.517,7.977c0.073,1.806,0.02,3.616,0.024,5.424
			c0.001,0.271-0.004,0.544,0.026,0.812c0.026,0.234,0.053,0.542,0.343,0.566c0.264,0.021,0.39-0.25,0.492-0.467
			c0.065-0.135,0.103-0.283,0.141-0.429c1.294-4.933,4.182-8.914,7.611-12.537c1.771-1.87,4.168-2.624,6.628-3.047
			c1.081-0.186,1.54-0.619,1.784-1.696c0.833-3.67,1.787-7.313,2.704-10.965c0.338-1.35,0.676-1.59,2.07-1.653
			c0.932-0.042,1.861-0.137,2.791-0.212c0.54-0.044,0.856-0.299,0.993-0.864c0.48-1.991,1.011-3.97,1.244-6.011
			c0.198-1.741,1.109-3.163,2.053-4.569c0.094-0.14,0.205-0.356,0.414-0.23c0.098,0.059,0.166,0.26,0.153,0.386
			c-0.037,0.356-0.081,0.722-0.196,1.059c-0.978,2.87-1.354,5.858-1.725,8.841c-0.157,1.26-0.223,1.666,1.34,1.673
			c0.562,0.003,1.141,0.143,1.601,0.54c0.529,0.457,0.504,0.838-0.077,1.22c-0.489,0.319-1.04,0.256-1.58,0.27
			c-1.468,0.038-1.741,0.231-1.963,1.637c-1.252,7.909-2.566,15.808-3.553,23.756c-0.683,5.499-1.219,11.009-1.744,16.522
			c-0.061,0.627-0.062,1.263-0.041,1.896c0.018,0.512,0.354,0.801,0.825,0.957c0.486,0.159,0.638-0.223,0.835-0.508
			c0.598-0.869,1.162-1.762,1.779-2.616c0.546-0.754,0.608-1.57,0.35-2.408c-0.294-0.948-0.65-1.877-1.002-2.807
			c-0.491-1.301-0.266-2.426,0.786-3.355c0.451-0.398,0.898-0.81,1.391-1.153c2.009-1.405,4.399-0.503,5.025,1.878
			c0.092,0.349,0.186,0.696,0.279,1.045C340.163,69.54,340.163,70.866,340.163,72.191z M325.692,54.93
			c0.018-1.5-0.618-2.053-1.884-1.812c-1.594,0.302-2.799,1.212-3.735,2.5c-0.948,1.304-1.659,2.735-2.097,4.281
			c-1.015,3.591-2.155,7.149-2.995,10.788c-0.339,1.467-0.605,2.932-0.274,4.462c0.362,1.675,0.47,3.402,0.938,5.055
			c0.355,1.255,1.563,1.767,2.63,1.135c0.73-0.432,1.425-1.001,1.713-1.81c1.001-2.804,2.317-5.532,2.747-8.494
			c0.553-3.813,1.172-7.609,2.013-11.369C325.115,58.023,325.534,56.388,325.692,54.93z M290.236,75.772
			c0.042,1.558,0.237,3.078,0.574,4.58c0.301,1.339,0.771,1.848,1.791,1.938c1.467,0.13,2.091-0.202,2.641-1.499
			c0.717-1.693,1.332-3.424,1.882-5.178c0.519-1.648,0.414-1.968-1.102-2.855c-0.876-0.513-1.378-1.208-1.479-2.226
			c-0.145-1.467-0.366-2.926-0.493-4.395c-0.105-1.221-0.371-2.438-0.062-3.681c0.41-1.646,1.298-2.392,3.011-2.405
			c0.331-0.002,0.664-0.008,0.994,0.021c0.782,0.069,1.054-0.311,1.101-1.058c0.077-1.229-0.499-2.197-1.085-3.189
			c-0.322-0.547-0.613-0.536-1.056-0.147c-1.036,0.909-1.857,1.985-2.45,3.214C291.929,64.229,290.87,69.948,290.236,75.772z
			 M268.594,71.914c-0.026,1.451,0.162,2.884,0.407,4.308c0.207,1.199,0.59,2.337,1.417,3.274c0.229,0.26,0.465,0.533,0.797,0.124
			c1.879-2.312,3.034-4.839,2.276-7.902c-0.274-1.109-0.621-2.201-0.945-3.298c-1.126-3.803,0.021-6.922,2.854-9.54
			c0.11-0.102,0.215-0.21,0.323-0.315c0.277-0.266,0.405-0.589,0.393-0.973c-0.026-0.817-0.133-1.626-0.406-2.394
			c-0.336-0.943-0.991-1.153-1.742-0.525c-1.166,0.976-2.224,2.098-2.704,3.559C269.804,62.676,268.674,67.195,268.594,71.914z"/>
		<path fill-rule="evenodd" clip-rule="evenodd" fill="#FFFFFF" d="M265.474,11.609c0.362,3.869-0.755,7.523-1.656,11.203
			c-0.494,2.019-1.057,4.021-1.645,6.014c-0.196,0.666-0.035,0.91,0.626,1.053c0.911,0.195,1.812,0.458,2.656,0.873
			c2.198,1.076,3.173,3.048,2.471,5.392c-4.209,14.052-7.146,28.445-11.442,42.474c-1.45,4.734-3.309,9.311-5.365,13.805
			c-1.05,2.297-2.835,3.965-5.099,5.065c-2.742,1.335-5.298,0.472-6.731-2.214c-0.812-1.52-1.414-3.129-2.009-4.74
			c-0.558-1.514-1.117-3.025-1.762-4.769c-0.996,1.935-1.93,3.645-2.77,5.401c-1.197,2.508-2.39,5.006-4.31,7.07
			c-0.806,0.866-1.681,1.646-2.682,2.271c-2.09,1.309-4.153,1.111-5.939-0.609c-2.351-2.266-3.421-5.139-3.741-8.312
			c-0.47-4.639-0.032-9.266,0.297-13.891c0.231-3.242,0.487-6.484,0.774-9.722c0.428-4.828,0.854-9.656,1.029-14.5
			c0.049-1.354,0.036-2.712,0.068-4.068c0.041-1.746,0.129-3.493,0.139-5.238c0.006-0.873-0.014-1.885-0.877-2.334
			c-0.863-0.45-1.636,0.235-2.274,0.74c-2.685,2.123-4.073,5.01-4.681,8.311c-0.491,2.677-0.042,5.278,0.749,7.836
			c0.271,0.877,0.462,1.751,0.242,2.664c-0.546,2.269-2.79,3.484-5.245,2.812c-1.904-0.521-3.23-1.784-3.673-3.654
			c-1.582-6.693-1.041-13.07,3.426-18.648c2.159-2.696,5.084-4.504,7.982-6.302c2.279-1.413,4.589-2.776,6.894-4.147
			c3.518-2.093,6.919-0.36,7.529,3.727c0.388,2.593-0.038,5.106-0.44,7.628c-1.321,8.265-2.866,16.493-4.026,24.783
			c-0.596,4.263-1.049,8.542-1.205,12.853c-0.089,2.441-0.168,4.875,0.027,7.312c0.036,0.454,0.075,0.899,0.244,1.327
			c0.348,0.884,0.748,0.974,1.454,0.306c0.523-0.493,0.715-1.171,0.986-1.808c2.397-5.655,3.496-11.634,4.452-17.652
			c1.086-6.84,2.46-13.63,3.739-20.436c0.478-2.543,0.793-5.121,1.539-7.61c0.472-1.575,1.192-3.028,2.218-4.316
			c1.409-1.77,2.704-2.085,4.759-1.207c1.981,0.848,2.864,2.313,2.642,4.347c-0.355,3.263-0.792,6.515-1.389,9.743
			c-0.411,2.228-0.521,4.486-0.688,6.734c-0.5,6.731-0.762,13.474-0.712,20.223c0.016,2.152,0.065,4.351,1.011,6.374
			c0.477,1.018,0.885,1.062,1.599,0.174c0.278-0.346,0.495-0.759,0.668-1.17c2.15-5.087,3.735-10.32,4.996-15.722
			c2.266-9.706,3.907-19.556,6.725-29.132c0.509-1.729,0.46-3.515,0.579-5.284c0.06-0.883-0.355-1.429-1.273-1.547
			c-0.266-0.035-0.543-0.092-0.779-0.21c-0.408-0.204-0.656-0.57-0.586-1.03c0.08-0.522,0.55-0.372,0.879-0.38
			c0.904-0.023,1.809-0.033,2.713-0.001c0.572,0.02,0.875-0.215,1.076-0.742c0.452-1.188,0.771-2.41,1.02-3.651
			c0.479-2.394,1.094-4.753,1.718-7.112c0.342-1.292,0.811-2.513,1.609-3.607c0.593-0.812,0.907-1.763,1.103-2.748
			C265.233,11.609,265.353,11.609,265.474,11.609z"/>
		<path fill-rule="evenodd" clip-rule="evenodd" fill="#FFFFFF" d="M20.248,64.416c2.281-8.033,6.517-14.799,12.936-20.2
			c3.622-3.048,7.135-6.245,11.315-8.522c5.312-2.893,10.914-5.151,16.83-6.41c3.812-0.811,7.723-1.355,11.64-0.363
			c5.022,1.273,8.496,4.37,10.641,9.019c0.591,1.282,0.44,2.721,0.689,4.081c1.135,6.194-0.158,12.025-2.717,17.661
			c-2.178,4.797-5.314,8.872-9.282,12.315c-0.47,0.407-0.451,0.758-0.23,1.255c0.902,2.038,1.887,4.061,2.086,6.32
			c0.179,2.037,0.327,4.083,0.373,6.128c0.052,2.337,0.645,4.445,2.105,6.302c0.708,0.902,1.494,1.658,2.648,1.917
			c0.716,0.16,1.191,0.683,1.727,1.114c1.827,1.475,3.753,1.764,5.869,0.607c2.642-1.445,5.173-0.249,5.9,2.748
			c0.694,2.859-0.908,5.697-3.686,6.7c-5.73,2.068-13.774-0.358-17.584-6.472c-2.349-3.769-3.562-7.787-3.764-12.188
			c-0.102-2.221-0.204-4.451-0.694-6.638c-0.391-1.744-1.13-2.071-2.703-1.204c-2.01,1.107-3.202,2.734-3.525,5.043
			c-0.803,5.727-1.963,11.391-3.022,17.073c-0.153,0.82-0.258,1.479,0.648,1.967c0.579,0.312,0.558,0.92-0.021,1.225
			c-1.28,0.672-1.593,1.864-1.924,3.106c-0.945,3.55-1.924,7.092-2.901,10.633c-0.108,0.39-0.149,0.821-0.568,1.266
			c0.078-2.067,0.392-3.949,0.709-5.828c0.41-2.434,0.852-4.863,1.312-7.287c0.127-0.672-0.048-1.011-0.747-1.135
			c-0.887-0.158-1.776-0.347-2.638-0.607c-1.508-0.456-2.069-1.271-2.175-2.845c-0.141-2.075,0.34-4.069,0.713-6.082
			c1.855-10.004,3.701-20.011,5.245-30.068c0.893-5.814,2.383-11.496,3.672-17.222c0.25-1.115,0.394-2.255,0.64-3.371
			c0.246-1.115,0.777-1.57,1.878-1.587c1.692-0.024,3.371,0.136,4.99,0.671c1.578,0.521,2.052,1.353,1.891,3.015
			c-0.339,3.517-1.06,6.96-1.841,10.397c-0.594,2.611-1.294,5.205-1.497,7.89c-0.038,0.502-0.26,1.218,0.102,1.462
			c0.439,0.297,0.857-0.362,1.279-0.605c3.824-2.202,6.362-5.636,8.838-9.154c1.672-2.377,2.847-4.961,3.592-7.746
			c1.429-5.337-3.03-11.292-8.505-11.03c-6.524,0.312-12.923,1.417-18.926,4.225c-2.896,1.354-5.709,2.862-8.556,4.309
			c-1.58,0.803-2.844,2.017-4.148,3.18c-2,1.784-3.997,3.572-5.923,5.441c-1.923,1.868-3.061,4.236-4.35,6.512
			c-0.389,0.686-0.113,1.354,0.341,1.928c0.748,0.946,1.503,1.885,2.274,2.811c1.277,1.536,1.511,3.23,0.819,5.079
			c-1.262,3.375-4.579,5.089-7.553,3.872c-2.125-0.87-3.474-2.433-4.004-4.682c-0.062-0.263-0.144-0.521-0.217-0.781
			C20.248,67.912,20.248,66.163,20.248,64.416z"/>
		<path fill-rule="evenodd" clip-rule="evenodd" fill="#FFFFFF" d="M151.722,120.116c0.747-5.124,1.481-10.248,2.254-15.368
			c0.134-0.887,0.008-1.531-0.769-2.113c-1.106-0.83-2.07-1.848-3.168-2.689c-0.854-0.654-1.025-1.393-0.729-2.367
			c0.693-2.283,1.072-4.627,1.348-6.995c0.607-5.232,1.308-10.453,1.896-15.688c0.625-5.568,1.557-11.088,2.475-16.611
			c0.507-3.058,1.05-6.112,1.322-9.205c0.024-0.286,0.178-0.681-0.092-0.847c-0.303-0.187-0.525,0.197-0.754,0.362
			c-1.395,1.002-2.771,2.032-4.168,3.03c-0.265,0.188-0.533,0.641-0.92,0.295c-0.384-0.342-0.495-0.843-0.271-1.326
			c0.122-0.263,0.345-0.496,0.563-0.694c2.143-1.942,4.288-3.884,6.53-5.714c1.232-1.006,2.635-1.697,4.132-2.188
			c1.915-0.628,3.066-0.026,3.703,1.89c1.005,3.02,0.852,6.074-0.33,8.943c-1.611,3.912-2.077,8.026-2.666,12.133
			c-0.838,5.841-1.646,11.684-2.459,17.528c-0.564,4.055-1.127,8.109-1.668,12.168c-0.087,0.656-0.137,1.473,0.519,1.793
			c0.617,0.303,1.082-0.36,1.499-0.771c0.926-0.913,1.662-1.985,2.46-3.007c0.196-0.25,0.329-0.695,0.687-0.643
			c0.417,0.062,0.37,0.557,0.486,0.881c0.05,0.136,0.036,0.295,0.053,0.444l0.007-0.012c-0.798,2.843-3.123,4.587-4.859,6.753
			c-0.471,0.588-0.974,1.152-1.493,1.696c-0.839,0.876-1.312,1.901-1.569,3.091c-1.042,4.827-2.137,9.643-3.217,14.461
			c-0.059,0.263-0.171,0.512-0.259,0.769C152.084,120.116,151.903,120.116,151.722,120.116z"/>
		<path fill-rule="evenodd" clip-rule="evenodd" fill="#FFFFFF" d="M112.318,30.081c0.001,0.753-0.002,1.507,0.003,2.261
			c0.008,1.374,0.388,1.753,1.745,1.611c1.809-0.19,3.15,0.593,4.225,1.941c0.948,1.19,0.979,2.596,0.649,3.967
			c-0.627,2.611-1.041,5.255-1.476,7.9c-0.213,1.293-0.127,1.369,1.134,1.07c0.966-0.228,1.922-0.493,2.919-0.591
			c2.427-0.243,4.286,0.724,5.426,2.912c1.344,2.58,1.816,5.332,1.643,8.224c-0.147,2.464-0.155,4.939-0.344,7.4
			c-0.462,6.071-1.521,12.017-4.267,17.531c-1.679,3.369-4.074,6.104-7.475,7.859c-2.067,1.065-3.573,0.719-4.863-1.115
			c-0.513-0.73-0.679-1.502-0.465-2.393c0.542-2.27,1.565-4.115,3.789-5.206c1.383-0.679,2.26-1.963,2.994-3.305
			c2.88-5.271,4.753-10.858,5.299-16.863c0.147-1.621-0.119-3.188-0.644-4.71c-0.332-0.963-0.946-1.186-1.838-0.687
			c-0.883,0.493-1.548,1.246-2.163,2.028c-2.072,2.641-3.264,5.557-3.613,8.979c-0.554,5.415-1.385,10.811-3.013,16.044
			c-0.356,1.146-0.896,1.972-2.092,2.351c-0.592,0.188-1.115,0.587-1.671,0.889c-2.274,1.24-4.468-0.004-4.428-2.584
			c0.038-2.498,0.228-4.992,0.3-7.492c0.013-0.46,0.355-1.143-0.481-1.336c-1.145-0.266-2.022-0.025-2.383,0.74
			c-0.32,0.678-0.556,1.397-0.807,2.107c-1.294,3.654-3.009,7.097-5.203,10.298c-1.127,1.646-2.575,2.933-4.285,3.948
			c-1.398,0.83-2.739,0.764-4.072-0.135c-1.472-0.993-2.483-2.355-3.186-3.962c-2.545-5.821-2.917-11.825-1.787-18.046
			c0.883-4.865,2.018-9.601,4.417-13.97c1.34-2.44,2.92-4.705,4.665-6.869c2.135-2.652,5.537-2.844,8.16-2.059
			c1.059,0.316,1.809,1.078,2.329,2.035c1.812,3.327,2.47,6.89,2.116,10.649c-0.09,0.958-0.176,1.918-0.266,2.877
			c-0.051,0.544,0.191,0.75,0.738,0.743c1.229-0.015,1.99-0.57,2.255-1.904c0.57-2.863,1.078-5.74,1.604-8.612
			c0.996-5.45,1.91-10.913,2.647-16.405c0.024-0.179,0.051-0.358,0.064-0.538c0.093-1.357,0.09-1.348-1.243-1.675
			c-0.672-0.165-1.345-0.341-1.997-0.57c-0.476-0.167-0.909-0.532-0.801-1.065c0.101-0.499,0.646-0.311,1.009-0.324
			c0.722-0.028,1.448-0.035,2.17-0.002c0.598,0.028,0.866-0.202,0.938-0.807c0.195-1.644,0.435-3.281,0.659-4.921
			c0.053-0.389,0.114-0.775,0.178-1.161c0.04-0.244,0.092-0.507,0.416-0.486c0.316,0.021,0.363,0.295,0.366,0.534
			C112.324,28.152,112.317,29.117,112.318,30.081z M89.174,78.762c-0.02,1.069,0.179,2.094,0.481,3.113
			c0.225,0.76,0.715,0.887,1.387,0.754c0.517-0.104,0.846-0.443,1.083-0.883c0.613-1.139,1.186-2.303,1.827-3.426
			c1.476-2.581,1.507-5.132-0.012-7.708c-0.556-0.944-0.856-1.976-0.873-3.094c-0.034-2.277,0.87-4.226,2.131-6.02
			c0.655-0.932,0.768-1.854,0.467-2.897c-0.152-0.531-0.41-0.584-0.855-0.298c-0.717,0.46-1.167,1.119-1.504,1.873
			C90.662,66.091,89.734,72.385,89.174,78.762z"/>
		<path fill-rule="evenodd" clip-rule="evenodd" fill="#FFFFFF" d="M163.655,93.358c0.311-1.538,0.401-3.107,0.46-4.661
			c0.273-7.323,1.063-14.585,2.323-21.801c0.046-0.265,0.032-0.541,0.065-0.81c0.08-0.656-0.004-1.025-0.863-1.037
			c-1.056-0.013-1.35-0.778-0.668-1.583c1.558-1.841,3.107-3.703,5.352-4.775c0.432-0.206,0.887-0.382,1.351-0.498
			c1.049-0.264,1.758,0.065,2.187,1.075c0.744,1.749,0.845,3.58,0.369,5.399c-0.746,2.857-1.489,5.71-1.757,8.664
			c-0.101,1.108-0.19,2.217-0.272,3.327c-0.015,0.199-0.06,0.468,0.19,0.552c0.235,0.077,0.383-0.139,0.508-0.302
			c0.349-0.458,0.624-0.958,0.841-1.492c2.384-5.86,6.278-10.585,11.035-14.657c0.861-0.737,2.536-0.162,3.244,1.12
			c0.662,1.197,0.74,2.535,0.813,3.856c0.192,3.473-0.232,6.914-0.588,10.359c-0.241,2.334-0.473,4.672-0.607,7.014
			c-0.164,2.855-0.465,5.704-0.429,8.568c0.01,0.703-0.152,1.6,0.634,1.922c0.771,0.316,1.199-0.508,1.705-0.943
			c3.411-2.932,5.488-6.831,7.692-10.639c0.302-0.521,0.598-1.047,0.927-1.551c0.246-0.375,0.579-0.627,1.068-0.427
			c0.514,0.21,0.732,0.597,0.678,1.146c-0.034,0.342-0.207,0.625-0.381,0.908c-2.135,3.497-4.228,7.021-6.419,10.482
			c-1.752,2.769-4.116,5.029-6.422,7.326c-0.605,0.603-1.34,0.592-2.104,0.309c-2.161-0.798-3.304-2.637-3.413-5.447
			c-0.113-2.873,0.287-5.705,0.612-8.547c0.502-4.398,0.834-8.811,0.826-13.243c0-0.232,0.045-0.484-0.189-0.75
			c-0.507,0.329-0.837,0.813-1.121,1.325c-3.174,5.715-6.341,11.435-9.512,17.152c-0.931,1.677-1.144,3.541-1.382,5.391
			c-0.799,6.209-1.572,12.42-2.372,18.628c-0.057,0.438,0.047,1.192-0.559,1.157c-0.753-0.043-0.418-0.816-0.401-1.252
			c0.129-3.338,0.308-6.676,0.467-10.014c0.012-0.227,0.121-0.506-0.168-0.641c-0.15-0.07-0.285,0.055-0.38,0.176
			c-0.468,0.595-0.962,1.137-1.818,0.719c-1.102-0.537-2.005-1.257-2.104-2.602c-0.113-1.541,0.129-3.066,0.233-4.598
			c0.099-1.439,0.235-2.878,0.354-4.317L163.655,93.358z"/>
		<path fill-rule="evenodd" clip-rule="evenodd" fill="#FFFFFF" d="M140.77,33.417c0.223,3.963-2.224,7.017-4.86,9.975
			c-0.196,0.219-0.476,0.368-0.728,0.532c-0.73,0.472-1.514,0.721-2.257,0.105c-0.759-0.629-0.605-1.486-0.267-2.247
			c1.495-3.357,2.296-6.891,2.856-10.502c0.233-1.499-0.277-2.854-0.582-4.257c-0.155-0.719-0.585-1.557,0.216-2.075
			c0.794-0.515,1.579,0,2.248,0.458C139.708,26.988,140.946,29.83,140.77,33.417z"/>
		<path fill-rule="evenodd" clip-rule="evenodd" fill="#FFFFFF" d="M325.692,54.93c-0.158,1.458-0.577,3.093-0.945,4.737
			c-0.841,3.76-1.46,7.556-2.013,11.369c-0.43,2.961-1.746,5.69-2.747,8.494c-0.288,0.809-0.982,1.378-1.713,1.81
			c-1.066,0.632-2.274,0.12-2.63-1.135c-0.468-1.652-0.575-3.38-0.938-5.055c-0.331-1.53-0.064-2.995,0.274-4.462
			c0.84-3.639,1.98-7.197,2.995-10.788c0.438-1.546,1.148-2.977,2.097-4.281c0.937-1.289,2.142-2.198,3.735-2.5
			C325.074,52.876,325.71,53.429,325.692,54.93z"/>
		<path fill-rule="evenodd" clip-rule="evenodd" fill="#FFFFFF" d="M290.236,75.772c0.634-5.824,1.692-11.543,4.268-16.881
			c0.593-1.229,1.414-2.305,2.45-3.214c0.442-0.389,0.733-0.399,1.056,0.147c0.586,0.992,1.162,1.96,1.085,3.189
			c-0.047,0.748-0.318,1.127-1.101,1.058c-0.33-0.029-0.663-0.023-0.994-0.021c-1.713,0.013-2.601,0.758-3.011,2.405
			c-0.31,1.243-0.044,2.46,0.062,3.681c0.127,1.468,0.349,2.928,0.493,4.395c0.101,1.019,0.603,1.713,1.479,2.226
			c1.516,0.888,1.62,1.207,1.102,2.855c-0.55,1.754-1.165,3.484-1.882,5.178c-0.55,1.297-1.174,1.629-2.641,1.499
			c-1.021-0.091-1.49-0.6-1.791-1.938C290.474,78.85,290.278,77.33,290.236,75.772z"/>
		<path fill-rule="evenodd" clip-rule="evenodd" fill="#FFFFFF" d="M268.594,71.914c0.08-4.719,1.21-9.237,2.669-13.681
			c0.48-1.461,1.538-2.583,2.704-3.559c0.751-0.628,1.406-0.418,1.742,0.525c0.273,0.768,0.38,1.577,0.406,2.394
			c0.013,0.384-0.115,0.707-0.393,0.973c-0.108,0.104-0.213,0.213-0.323,0.315c-2.832,2.618-3.979,5.737-2.854,9.54
			c0.324,1.097,0.671,2.188,0.945,3.298c0.758,3.062-0.397,5.59-2.276,7.902c-0.332,0.409-0.568,0.136-0.797-0.124
			c-0.827-0.938-1.21-2.075-1.417-3.274C268.756,74.798,268.567,73.365,268.594,71.914z"/>
		<path fill-rule="evenodd" clip-rule="evenodd" fill="#FFFFFF" d="M89.174,78.762c0.561-6.376,1.488-12.671,4.132-18.585
			c0.337-0.754,0.787-1.413,1.504-1.873c0.445-0.287,0.703-0.233,0.855,0.298c0.301,1.044,0.188,1.965-0.467,2.897
			c-1.261,1.794-2.165,3.743-2.131,6.02c0.017,1.118,0.317,2.15,0.873,3.094c1.519,2.576,1.488,5.127,0.012,7.708
			c-0.642,1.123-1.214,2.287-1.827,3.426c-0.236,0.439-0.566,0.779-1.083,0.883c-0.672,0.133-1.162,0.006-1.387-0.754
			C89.353,80.855,89.154,79.831,89.174,78.762z"/>
	</g>
</g>
</svg>
