<svg width="100" height="110" viewBox="0 0 100 110" fill="none" xmlns="http://www.w3.org/2000/svg">
<path fill-rule="evenodd" clip-rule="evenodd" d="M54.8915 0.654108C54.7978 0.777358 54.5763 1.28136 54.399 1.77411C53.0068 5.64511 50.8943 10.2306 48.1658 15.3046C43.725 23.5624 41.174 29.7651 41.164 32.3299C41.1533 35.0426 42.6688 38.7391 45.419 42.7084C49.0838 47.9966 49.1978 50.1239 45.815 50.0916C43.1845 50.0666 41.0363 50.6766 38.6778 52.1181C36.187 53.6404 35.1178 54.4316 35.0498 54.8031C34.7245 56.5754 34.7038 56.6156 34.139 56.5586C32.1585 56.3579 31.881 56.4214 29.9283 57.5229L28.0465 58.5841L24.2918 58.6394C20.0488 58.7019 19.6155 58.6536 19.8858 58.1489C20.0478 57.8459 19.9805 57.8021 19.2175 57.7149C16.335 57.3854 16.1523 57.3826 15.2955 57.6581C14.8175 57.8116 14.225 57.9619 13.9785 57.9921C13.5933 58.0389 13.523 58.1491 13.4768 58.7799C13.4265 59.4669 13.231 59.7044 10.3853 62.5411C7.43027 65.4866 7.02702 65.9541 7.64602 65.7166C7.81002 65.6536 7.90252 65.6764 7.85152 65.7671C7.80077 65.8576 7.30677 66.7384 6.75402 67.7241C6.20127 68.7096 5.39077 70.3629 4.95277 71.3979C4.51502 72.4329 3.75152 74.1301 3.25652 75.1694C1.38002 79.1091 0.577267 82.2959 1.07252 83.8404C1.16952 84.1431 1.45677 85.1039 1.71052 85.9754C1.96452 86.8469 2.49027 88.2829 2.87927 89.1666C3.26802 90.0504 3.86602 91.5774 4.20802 92.5599C4.55027 93.5426 5.08502 94.9274 5.39652 95.6374L5.96302 96.9281L5.74477 98.9031C5.38402 102.167 5.41102 102.85 5.92202 103.405C6.53152 104.068 8.11452 104.739 9.40327 104.881L10.4838 105L11.1545 106.963C12.0308 109.53 12.8048 110.141 13.81 109.062C14.2563 108.583 14.3793 108.582 15.6978 109.047C17.94 109.839 19.5125 109.586 22.4015 107.969C22.8908 107.695 23.7575 107.556 26.344 107.337C42.2173 105.994 46.9685 103.701 51.1923 95.3471C54.357 89.0879 54.3455 88.7509 50.5008 74.8924C50.0485 73.2619 50.15 71.4329 50.79 69.6736C51.3813 68.0489 51.377 67.9686 50.6373 66.8584C49.493 65.1409 48.3588 64.1901 47.2765 64.0414C46.7538 63.9694 45.8625 63.7751 45.2958 63.6094L44.2653 63.3079L44.268 62.3799C44.275 60.0269 45.5 60.4189 49.3448 64.0039C51.2723 65.8011 52.4343 66.3876 55.1075 66.9121C56.1918 67.1249 57.9258 67.5064 58.9605 67.7599C64.186 69.0399 68.3838 68.3939 74.3915 65.3849C78.012 63.5716 78.1115 63.0799 74.9185 62.7794C71.5388 62.4614 66.114 61.0946 61.8073 59.4759C59.9025 58.7599 59.462 58.6561 58.7008 58.7431C57.8613 58.8391 57.7828 58.8111 57.2428 58.2216L56.672 57.5986L54.9938 57.6016C51.766 57.6076 48.4218 58.1086 47.8858 58.6661C46.7213 59.8779 44.7995 59.6214 45.336 58.3261C45.9698 56.7964 46.9453 56.3074 50.1793 55.8974C56.4103 55.1079 61.1668 53.1539 63.1948 50.5506C64.0808 49.4136 64.2805 49.4684 65.7068 51.2376C68.177 54.3019 70.5503 55.2061 76.6168 55.3936C80.1043 55.5016 80.1855 55.4831 80.3143 54.5519C80.3993 53.9376 81.059 53.8874 82.6605 54.3739C84.9813 55.0789 85.6338 55.1154 90.5915 54.8181C93.154 54.6646 96.259 54.4814 97.491 54.4111L99.7313 54.2831L99.8783 53.0614C100.076 51.4174 99.8835 51.1414 98.1765 50.6216C94.2935 49.4396 92.7273 48.8931 88.889 47.3816C86.5725 46.4696 84.0323 45.4374 83.2438 45.0876C80.5538 43.8951 76.2273 44.4546 68.879 46.9459C65.6235 48.0494 64.9555 47.8236 66.0335 45.9841C66.971 44.3849 67.83 42.1204 69.0043 38.1541L70.0655 34.5699L69.687 34.2536C69.1105 33.7719 68.9288 34.0536 67.9983 36.8681C65.425 44.6534 63.137 47.2529 56.8998 49.4776C54.345 50.3886 50.3585 50.5301 50.3585 49.7099C50.3585 49.0834 51.825 45.1641 53.9553 40.0984C59.379 27.2001 59.253 28.0214 57.2658 18.5304C57.0283 17.3969 56.7445 15.6479 56.635 14.6434C56.5255 13.6389 56.2785 12.0261 56.0858 11.0591C55.623 8.73536 55.444 4.57086 55.7193 2.52011C55.9653 0.684858 55.561 -0.226392 54.8915 0.654108ZM54.1845 10.3316C54.3235 12.7244 54.7913 15.9394 55.5725 19.8746C56.8448 26.2806 56.0778 30.7136 52.1248 39.8061C49.6043 45.6036 49.4413 43.5326 51.9133 37.1174C53.337 33.4221 53.291 32.9364 51.799 35.9139C50.5015 38.5034 50.4248 38.6164 50.059 38.4761C49.6108 38.3041 49.9243 36.6949 51.0088 33.5996C52.0935 30.5044 52.2128 29.5611 51.254 31.6606C50.4718 33.3736 50.2578 33.3334 50.307 31.4834C50.349 29.9016 50.6378 28.9966 52.3825 24.9821C54.5665 19.9564 54.6063 19.0769 52.439 23.7351C50.4808 27.9434 50.1855 27.8094 50.91 23.0419C51.1148 21.6941 51.396 20.1076 51.5348 19.5161C52.262 16.4149 51.045 17.2786 50.0983 20.5356C49.6088 22.2194 49.2935 24.4211 49.072 27.7061C48.8133 31.5456 48.7928 31.5936 47.8603 30.5376C46.874 29.4211 46.8925 30.0556 47.884 31.3691C48.5263 32.2196 48.6468 32.5184 48.712 33.4224C48.8118 34.7994 48.537 34.8146 47.4093 33.4946C46.602 32.5499 46.2365 32.2994 46.2365 32.6916C46.2365 32.7919 46.8008 33.6589 47.4905 34.6181C49.3805 37.2471 49.2678 38.2919 47.326 36.1404C45.795 34.4439 45.9458 35.1316 47.6113 37.4391L48.9858 39.3439L49.1173 41.0789C49.3078 43.5959 49.0765 43.7084 47.5973 41.8179C41.431 33.9371 41.866 30.4256 51.1648 13.0144C52.5448 10.4306 53.7623 8.31636 53.8705 8.31611C53.9948 8.31561 54.1105 9.05786 54.1845 10.3316ZM80.1983 47.2014C82.0698 47.3986 88.0223 48.7839 89.9193 49.4634C91.1473 49.9034 91.418 50.1066 91.0663 50.3239C90.904 50.4241 84.989 49.7004 82.4373 49.2681C80.4228 48.9269 77.0228 48.6424 74.9105 48.6386C72.82 48.6349 70.7885 48.4536 70.7885 48.2711C70.7885 47.9341 74.1208 47.3459 77.1505 47.1481C77.6433 47.1161 78.1675 47.0766 78.3155 47.0606C78.4633 47.0444 79.3105 47.1079 80.1983 47.2014ZM72.0368 49.9836C73.4985 50.7076 75.5193 51.3781 75.938 51.2779C76.1413 51.2291 75.7578 50.9694 74.8655 50.5519C73.2805 49.8096 73.1633 49.6024 74.2383 49.4431C75.3265 49.2821 76.3655 49.5741 78.366 50.6034C80.004 51.4464 80.995 51.7474 80.7323 51.3221C80.67 51.2214 80.141 50.8976 79.5568 50.6026C77.2885 49.4576 78.4153 49.4599 86.38 50.6151C93.745 51.6836 96.329 52.1896 96.0165 52.5019C95.501 53.0176 85.4373 53.2749 82.0548 52.8589C79.8205 52.5841 79.5535 52.5826 78.934 52.8416C78.487 53.0284 77.1775 53.1901 75.0848 53.3174C70.5408 53.5934 69.2803 53.2234 67.148 50.9876C65.3693 49.1224 66.336 49.0074 69.5768 50.6989C71.9785 51.9526 72.044 51.9776 72.041 51.6399C72.04 51.5166 71.4765 51.0529 70.7885 50.6094C69.441 49.7404 69.3698 49.6466 69.8478 49.3706C70.2275 49.1511 70.524 49.2341 72.0368 49.9836ZM55.192 51.8569C55.8605 52.2796 54.7415 52.4951 50.059 52.8454C44.826 53.2369 43.1625 53.8046 41.3365 55.8224C39.083 58.3126 38.7098 59.8066 38.7098 66.3351C38.7098 72.4946 38.499 73.1899 36.6323 73.1899C35.386 73.1899 35.18 72.4596 35.764 70.1101C36.143 68.5851 36.2505 67.5874 36.3783 64.4086C36.5915 59.0901 37.3373 56.8204 39.6215 54.5361C41.622 52.5359 43.2133 52.1159 49.6415 51.8926C52.0565 51.8089 54.2338 51.7289 54.4803 51.7151C54.7268 51.7014 55.047 51.7651 55.192 51.8569ZM46.3263 55.1114C46.3263 55.4144 45.3593 55.5264 44.982 55.2671C44.7523 55.1091 44.7755 55.0301 45.1423 54.7229C45.6083 54.3321 46.3263 54.5679 46.3263 55.1114ZM44.5318 56.3404C44.7323 56.6649 44.2813 57.1949 43.559 57.4839C42.5663 57.8811 42.0078 57.6091 42.4353 56.9371C42.7933 56.3739 44.2893 55.9481 44.5318 56.3404ZM42.4298 58.8979C42.325 59.2186 41.1738 59.5796 40.9498 59.3616C40.692 59.1109 41.3495 58.6739 41.9848 58.6739C42.319 58.6739 42.477 58.7534 42.4298 58.8979ZM33.0588 59.3209C34.9048 61.1671 34.8983 64.3944 33.033 72.1076C31.7678 77.3399 29.1355 82.3246 24.2285 88.7814C20.7335 93.3801 12.264 102.043 11.2628 102.043C9.81702 102.043 8.69302 100.792 9.14952 99.6901C9.41852 99.0406 9.56977 99.0444 10.0643 99.7134C10.2828 100.009 10.5675 100.251 10.6968 100.251C11.0528 100.251 10.9783 99.4621 10.5735 98.9476C10.3763 98.6969 10.215 98.2359 10.215 97.9231C10.215 97.5386 10.0123 97.1069 9.58952 96.5906C7.43752 93.9646 4.74077 82.9674 5.36377 79.3596C5.65077 77.6974 5.70727 77.6296 8.32777 75.8101C11.4005 73.6764 10.7718 73.1551 7.60827 75.2136C6.45452 75.9644 6.10652 76.0311 6.32577 75.4599C6.42402 75.2039 10.3633 72.3224 11.2138 71.8844C11.8883 71.5369 12.2558 71.1174 12.1025 70.8696C11.9398 70.6061 10.993 71.0351 9.09902 72.2301C7.29227 73.3701 7.18577 73.3739 7.76377 72.2784C8.22427 71.4049 9.25427 70.7241 12.6793 69.0291C16.0558 67.3579 14.3608 67.3724 10.6795 69.0461C9.27652 69.6839 9.14152 69.6594 9.53377 68.8366C10.0095 67.8396 10.7035 67.1641 11.5973 66.8286C12.069 66.6516 12.939 66.2624 13.5305 65.9636C14.1218 65.6651 15.083 65.2934 15.6663 65.1379C17.0225 64.7764 17.2 64.4086 16.018 64.4086H15.1603L15.7958 63.7366C16.2785 63.2261 17.5518 61.6086 18.2028 60.6791C18.365 60.4474 20.7925 60.3179 22.3118 60.4601C28.5015 61.0389 33.1713 60.8569 31.362 60.1076C30.6593 59.8164 30.6785 59.4431 31.4068 59.2329C32.288 58.9784 32.7403 59.0024 33.0588 59.3209ZM59.767 61.5174C62.724 62.4406 65.2578 63.2296 65.3973 63.2706C65.5863 63.3259 65.5995 63.3971 65.4488 63.5476C65.0213 63.9754 50.7168 60.6534 50.7168 60.1266C50.7168 59.1671 53.7145 59.6279 59.767 61.5174ZM42.1303 60.7011C42.0233 60.8084 41.9355 61.1259 41.9355 61.4066C41.9355 61.9016 40.9243 62.5996 40.1883 62.6126C39.4273 62.6259 40.0505 61.4544 41.1443 60.8156C41.9568 60.3411 42.5605 60.2711 42.1303 60.7011ZM50.53 62.1001C51.5508 63.1336 51.8025 63.5126 51.4685 63.5126C51.0358 63.5126 49.104 61.6266 49.104 61.2039C49.104 60.7979 49.473 61.0296 50.53 62.1001ZM53.3155 62.4811C54.0123 63.2781 55.372 64.2531 55.5948 64.1156C55.6903 64.0566 55.4308 63.6644 55.018 63.2436C54.573 62.7904 54.3448 62.4314 54.457 62.3621C54.9143 62.0794 58.0645 63.2364 58.0645 63.6869C58.0645 63.8909 59.4858 64.4374 59.6893 64.3116C59.7813 64.2549 59.8568 64.0921 59.8568 63.9501C59.8568 63.6016 59.9555 63.6099 64.1268 64.3061C68.875 65.0989 69.0355 65.2584 65.5915 65.7626C60.7195 66.4756 53.441 65.5976 53.1045 64.2564C53.0395 63.9976 52.5873 63.3639 52.0993 62.8479C51.5725 62.2909 51.2523 61.8056 51.3108 61.6529C51.4668 61.2466 52.671 61.7441 53.3155 62.4811ZM29.8683 62.7509C29.8235 62.8249 29.638 63.5506 29.456 64.3639C29.117 65.8786 28.7685 66.2704 28.5795 65.3494C28.315 64.0609 28.1 63.4951 27.9015 63.5654C27.6433 63.6566 27.6575 63.8334 28.0328 65.2151C28.4545 66.7669 28.443 68.6306 28.006 69.6154L27.6523 70.4121L27.491 69.2619C27.392 68.5546 27.2338 68.0796 27.0808 68.0289C26.8268 67.9446 26.8448 68.6826 27.1673 71.5776C27.2645 72.4506 26.4793 75.3561 26.217 75.0939C26.187 75.0639 25.981 74.1354 25.7593 73.0306C25.3503 70.9921 24.9545 70.3559 25.055 71.8986C25.0853 72.3624 25.2263 73.2509 25.3685 73.8731C25.7315 75.4606 25.6978 76.6506 25.2653 77.4981C24.7568 78.4949 24.6208 78.3931 24.483 76.9126C24.3683 75.6776 24.1603 75.1349 23.9013 75.3939C23.8358 75.4594 23.8685 76.3669 23.9743 77.4106C24.1603 79.2504 24.0395 80.3584 23.6528 80.3584C23.5715 80.3584 23.449 79.8341 23.3805 79.1936C23.2883 78.3319 23.1855 78.0286 22.9865 78.0286C22.756 78.0286 22.7353 78.2966 22.8435 79.8834L22.9698 81.7379L22.1668 83.3331C20.0495 87.5389 14.9838 93.8381 12.3225 95.5746C10.7198 96.6204 10.717 96.6234 10.9418 97.0436C11.0848 97.3106 11.2815 97.3891 11.7053 97.3486C12.2415 97.2971 12.273 97.3264 12.2245 97.8316L12.173 98.3691L12.6725 97.8186C20.4055 89.2946 22.9785 85.6159 25.6368 79.2831C28.1075 73.3969 31.079 62.6166 30.2308 62.6166C30.076 62.6166 29.913 62.6769 29.8683 62.7509ZM42.1853 63.2584C42.5483 64.2046 42.1058 65.0986 40.8098 66.0376C39.912 66.6879 39.785 66.6001 39.785 65.3284C39.785 64.1511 39.9493 63.8734 40.9498 63.3591C41.8243 62.9099 42.0445 62.8919 42.1853 63.2584ZM42.294 67.1886C42.294 67.6381 42.174 67.8809 41.8348 68.1189C41.582 68.2959 41.147 68.6224 40.868 68.8441C39.5168 69.9176 39.5875 68.5804 40.95 67.2916C42.023 66.2769 42.294 66.2561 42.294 67.1886ZM46.7293 67.0649C47.7005 67.7564 47.9023 68.4749 47.7358 70.6526C47.5578 72.9791 47.5775 73.1741 48.1278 74.5631C48.6305 75.8326 49.8215 83.8806 49.8195 85.9959C49.8173 88.4941 49.034 92.1644 48.1173 93.9729C45.3363 99.4589 41.8798 102.024 35.5453 103.302C30.4608 104.328 28.6038 104.57 24.6398 104.725C21.2453 104.857 20.9633 104.896 19.3533 105.449C17.716 106.011 17.6108 106.025 16.543 105.813C15.3768 105.581 15.0055 105.651 15.1668 106.072C15.3873 106.646 17.6813 106.81 20.0718 106.422L20.699 106.32L20.252 106.679C18.0978 108.413 13.2618 107.097 13.2618 104.777C13.2618 103.189 13.704 102.637 18.0108 98.8549C20.1793 96.9504 23.5118 93.8846 25.416 92.0421C27.3205 90.1994 29.3973 88.3466 30.0308 87.9249C30.6645 87.5031 31.183 87.0596 31.1835 86.9391C31.1838 86.8189 31.5318 86.5776 31.9568 86.4029C33.0968 85.9341 34.0218 85.1101 33.7365 84.8176C33.3825 84.4544 33.4258 84.4089 35.0808 83.4076C37.067 82.2056 37.329 81.9824 37.0913 81.6956C36.9558 81.5326 37.1438 81.3049 37.8085 80.8271C38.582 80.2714 38.7098 80.0949 38.7098 79.5801C38.7098 79.2079 38.8458 78.8571 39.068 78.6559C39.494 78.2704 39.5285 78.0286 39.1578 78.0286C38.6915 78.0286 38.863 77.5591 39.6575 76.6591C40.0803 76.1804 40.7008 75.4256 41.0363 74.9821C41.372 74.5386 42.024 73.7676 42.4855 73.2691C43.5275 72.1431 43.8768 71.4781 44.161 70.0774C44.373 69.0331 44.412 68.9756 44.9458 68.9229C45.568 68.8611 45.6088 68.9431 45.757 70.5554C45.9148 72.2699 46.419 71.8284 46.4365 69.9606C46.4505 68.4689 46.2503 68.1721 45.2295 68.1721C44.303 68.1721 43.8925 67.6139 44.2828 66.8846C44.541 66.4021 45.9435 66.5054 46.7293 67.0649ZM19.091 68.0226C19.0443 68.1541 18.805 68.9069 18.5595 69.6954C18.1683 70.9514 15.436 76.1694 13.618 79.1324C12.7308 80.5786 12.077 82.6556 12.4058 82.9844C12.7533 83.3319 12.7175 83.3731 14.5398 80.5376C16.302 77.7951 16.7153 77.0014 17.5713 74.7134C17.94 73.7276 18.5495 72.2356 18.9255 71.3979C19.6468 69.7904 19.8833 68.0266 19.3998 67.8606C19.2765 67.8184 19.1375 67.8914 19.091 68.0226ZM40.6088 71.3531C39.8055 72.9184 39.3223 73.3271 39.633 72.1781C39.7728 71.6621 40.6738 70.5019 40.9353 70.5019C40.9958 70.5019 40.849 70.8849 40.6088 71.3531ZM36.5635 74.5364C37.999 75.2591 37.9665 75.1949 37.325 76.0404C35.7373 78.1331 34.8723 78.6279 33.9633 77.9631C33.661 77.7421 33.652 77.6591 33.8693 77.1119C34.2603 76.1276 34.3535 76.0676 35.3183 76.1819C36.4188 76.3124 36.5065 75.9976 35.4838 75.5884C34.855 75.3369 34.767 75.2306 34.767 74.7236C34.767 73.7126 34.9005 73.6989 36.5635 74.5364ZM44.2353 74.3996C44.0895 74.5721 43.4163 75.7214 42.739 76.9534C39.0625 83.6421 34.9535 89.2394 32.548 90.8361C32.0025 91.1981 29.5515 93.4849 27.1015 95.9176C24.6515 98.3501 21.899 101.018 20.9848 101.846C19.1708 103.489 18.805 104.016 19.1713 104.457C19.5778 104.947 20.0433 104.752 21.3028 103.564C22.1998 102.717 22.8123 102.302 23.5288 102.056C25.0928 101.518 25.3168 101.358 25.2193 100.848C25.1608 100.542 25.2253 100.372 25.4255 100.306C27.2668 99.7016 28.3705 99.1884 28.0755 99.0739C27.8945 99.0036 27.455 99.0354 27.099 99.1446C25.1768 99.7346 26.568 98.7991 28.8083 97.9951C29.8185 97.6326 30.6453 97.2709 30.6453 97.1911C30.6453 96.8691 30.3013 96.8819 29.3295 97.2399C28.3738 97.5919 27.857 97.5814 28.2378 97.2179C28.3298 97.1299 29.3525 96.6744 30.5108 96.2059C31.7235 95.7149 32.6165 95.2521 32.6165 95.1141C32.6165 94.7821 32.4518 94.8086 31.2705 95.3311C29.562 96.0866 29.6105 95.8194 31.5645 93.7096C33.9608 91.1226 35.925 88.8224 37.991 86.1844C38.9165 85.0026 40.8983 82.6979 42.3948 81.0631C45.574 77.5899 46.0063 76.9534 45.1868 76.9534C44.9923 76.9534 44.3025 77.5866 43.529 78.4754C41.7738 80.4916 41.7793 80.1586 43.551 77.1281C44.8723 74.8681 45.1568 74.0861 44.657 74.0861C44.5708 74.0861 44.3808 74.2271 44.2353 74.3996ZM34.5295 79.0311C34.6648 79.3836 33.112 81.0019 32.8148 80.8181C32.5908 80.6799 32.711 79.9989 33.0943 79.2384C33.3818 78.6679 34.337 78.5299 34.5295 79.0311ZM47.0278 81.3191C46.97 81.4699 47.0103 82.1574 47.1173 82.8469C47.5798 85.8276 47.2533 90.0059 46.3223 93.0236C45.889 94.4279 45.8893 94.6954 46.3238 94.6954C47.778 94.6954 49.053 85.1589 47.9758 82.3369C47.5263 81.1591 47.2168 80.8269 47.0278 81.3191ZM15.9705 86.4964C15.8883 86.7181 15.7208 87.3236 15.5985 87.8419C15.4513 88.4646 15.2198 88.9066 14.9153 89.1461C14.333 89.6041 14.1105 89.3919 14.3388 88.5961C14.4363 88.2559 14.5163 87.8309 14.5163 87.6519C14.5163 86.9699 14.1465 87.6014 13.712 89.0256C13.0283 91.2674 12.0795 92.1284 12.6488 89.9906C13.2923 87.5731 12.843 88.0224 11.9175 90.7219C11.1378 92.9964 10.8833 93.2566 10.13 92.5491C9.63727 92.0861 8.37177 92.0884 8.28402 92.5524C8.21302 92.9281 10.162 95.0539 10.5775 95.0539C11.052 95.0539 13.6408 93.0551 14.4688 92.0499C15.5815 90.6981 17.3835 88.1416 17.3835 87.9141C17.3835 87.6164 16.9303 87.6574 16.663 87.9794C16.327 88.3844 16.238 88.1699 16.2888 87.0761C16.3368 86.0391 16.2195 85.8256 15.9705 86.4964ZM40.196 91.2846C39.3228 92.8824 38.033 94.6839 37.0803 95.6366C35.4748 97.2421 35.9348 97.4849 37.8758 96.0564C38.543 95.5654 40.4283 92.7421 40.7045 91.8204C41.0063 90.8129 40.6558 90.4434 40.196 91.2846ZM41.2188 98.5711C39.4835 100.037 38.4965 100.527 35.6478 101.333C31.1303 102.612 30.2868 102.924 30.2868 103.32C30.2868 103.736 30.8133 103.689 32.8853 103.087C33.5753 102.886 34.717 102.575 35.4225 102.394C38.377 101.639 40.2235 100.684 41.5798 99.2124C42.6618 98.0384 42.9485 97.5319 42.5073 97.5749C42.4393 97.5814 41.8593 98.0299 41.2188 98.5711Z" fill="black"/>
</svg>
