<svg width="100" height="110" viewBox="0 0 100 110" fill="none" xmlns="http://www.w3.org/2000/svg">
<path fill-rule="evenodd" clip-rule="evenodd" d="M45.9788 0.654108C46.0725 0.777358 46.294 1.28136 46.4713 1.77411C47.8635 5.64511 49.976 10.2306 52.7045 15.3046C57.1453 23.5624 59.6963 29.7651 59.7063 32.3299C59.717 35.0426 58.2015 38.7391 55.4513 42.7084C51.7865 47.9966 51.6725 50.1239 55.0553 50.0916C57.6858 50.0666 59.834 50.6766 62.1925 52.1181C64.6833 53.6404 65.7525 54.4316 65.8205 54.8031C66.1458 56.5754 66.1665 56.6156 66.7313 56.5586C68.7118 56.3579 68.9893 56.4214 70.942 57.5229L72.8238 58.5841L76.5785 58.6394C80.8215 58.7019 81.2548 58.6536 80.9845 58.1489C80.8225 57.8459 80.8898 57.8021 81.6528 57.7149C84.5353 57.3854 84.718 57.3826 85.5748 57.6581C86.0528 57.8116 86.6453 57.9619 86.8918 57.9921C87.277 58.0389 87.3473 58.1491 87.3935 58.7799C87.4438 59.4669 87.6393 59.7044 90.485 62.5411C93.44 65.4866 93.8433 65.9541 93.2243 65.7166C93.0603 65.6536 92.9678 65.6764 93.0188 65.7671C93.0695 65.8576 93.5635 66.7384 94.1163 67.7241C94.669 68.7096 95.4795 70.3629 95.9175 71.3979C96.3553 72.4329 97.1188 74.1301 97.6138 75.1694C99.4903 79.1091 100.293 82.2959 99.7978 83.8404C99.7008 84.1431 99.4135 85.1039 99.1598 85.9754C98.9058 86.8469 98.38 88.2829 97.991 89.1666C97.6023 90.0504 97.0043 91.5774 96.6623 92.5599C96.32 93.5426 95.7853 94.9274 95.4738 95.6374L94.9073 96.9281L95.1255 98.9031C95.4863 102.167 95.4593 102.85 94.9483 103.405C94.3388 104.068 92.7558 104.739 91.467 104.881L90.3865 105L89.7158 106.963C88.8395 109.53 88.0655 110.141 87.0603 109.062C86.614 108.583 86.491 108.582 85.1725 109.047C82.9303 109.839 81.3578 109.586 78.4688 107.969C77.9795 107.695 77.1128 107.556 74.5263 107.337C58.653 105.994 53.9018 103.701 49.678 95.3471C46.5133 89.0879 46.5248 88.7509 50.3695 74.8924C50.8218 73.2619 50.7203 71.4329 50.0803 69.6736C49.489 68.0489 49.4933 67.9686 50.233 66.8584C51.3773 65.1409 52.5115 64.1901 53.5938 64.0414C54.1165 63.9694 55.0078 63.7751 55.5745 63.6094L56.605 63.3079L56.6023 62.3799C56.5953 60.0269 55.3703 60.4189 51.5255 64.0039C49.598 65.8011 48.436 66.3876 45.7628 66.9121C44.6785 67.1249 42.9445 67.5064 41.9098 67.7599C36.6843 69.0399 32.4865 68.3939 26.4788 65.3849C22.8583 63.5716 22.7588 63.0799 25.9518 62.7794C29.3315 62.4614 34.7563 61.0946 39.063 59.4759C40.9678 58.7599 41.4083 58.6561 42.1695 58.7431C43.009 58.8391 43.0875 58.8111 43.6275 58.2216L44.1983 57.5986L45.8765 57.6016C49.1043 57.6076 52.4485 58.1086 52.9845 58.6661C54.149 59.8779 56.0708 59.6214 55.5343 58.3261C54.9005 56.7964 53.925 56.3074 50.691 55.8974C44.46 55.1079 39.7035 53.1539 37.6755 50.5506C36.7895 49.4136 36.5898 49.4684 35.1635 51.2376C32.6933 54.3019 30.32 55.2061 24.2535 55.3936C20.766 55.5016 20.6848 55.4831 20.556 54.5519C20.471 53.9376 19.8113 53.8874 18.2098 54.3739C15.889 55.0789 15.2365 55.1154 10.2788 54.8181C7.71632 54.6646 4.61132 54.4814 3.37932 54.4111L1.13902 54.2831L0.992012 53.0614C0.794312 51.4174 0.986816 51.1414 2.69382 50.6216C6.57682 49.4396 8.14301 48.8931 11.9813 47.3816C14.2978 46.4696 16.838 45.4374 17.6265 45.0876C20.3165 43.8951 24.643 44.4546 31.9913 46.9459C35.2468 48.0494 35.9148 47.8236 34.8368 45.9841C33.8993 44.3849 33.0403 42.1204 31.866 38.1541L30.8048 34.5699L31.1833 34.2536C31.7598 33.7719 31.9415 34.0536 32.872 36.8681C35.4453 44.6534 37.7333 47.2529 43.9705 49.4776C46.5253 50.3886 50.5118 50.5301 50.5118 49.7099C50.5118 49.0834 49.0453 45.1641 46.915 40.0984C41.4913 27.2001 41.6173 28.0214 43.6045 18.5304C43.842 17.3969 44.1258 15.6479 44.2353 14.6434C44.3448 13.6389 44.5918 12.0261 44.7845 11.0591C45.2473 8.73536 45.4263 4.57086 45.151 2.52011C44.905 0.684858 45.3093 -0.226392 45.9788 0.654108ZM46.6858 10.3316C46.5468 12.7244 46.079 15.9394 45.2978 19.8746C44.0255 26.2806 44.7925 30.7136 48.7455 39.8061C51.266 45.6036 51.429 43.5326 48.957 37.1174C47.5333 33.4221 47.5793 32.9364 49.0713 35.9139C50.3688 38.5034 50.4455 38.6164 50.8113 38.4761C51.2595 38.3041 50.946 36.6949 49.8615 33.5996C48.7768 30.5044 48.6575 29.5611 49.6163 31.6606C50.3985 33.3736 50.6125 33.3334 50.5633 31.4834C50.5213 29.9016 50.2325 28.9966 48.4878 24.9821C46.3038 19.9564 46.264 19.0769 48.4313 23.7351C50.3895 27.9434 50.6848 27.8094 49.9603 23.0419C49.7555 21.6941 49.4743 20.1076 49.3355 19.5161C48.6083 16.4149 49.8253 17.2786 50.772 20.5356C51.2615 22.2194 51.5768 24.4211 51.7983 27.7061C52.057 31.5456 52.0775 31.5936 53.01 30.5376C53.9963 29.4211 53.9778 30.0556 52.9863 31.3691C52.344 32.2196 52.2235 32.5184 52.1583 33.4224C52.0585 34.7994 52.3333 34.8146 53.461 33.4946C54.2683 32.5499 54.6338 32.2994 54.6338 32.6916C54.6338 32.7919 54.0695 33.6589 53.3798 34.6181C51.4898 37.2471 51.6025 38.2919 53.5443 36.1404C55.0753 34.4439 54.9245 35.1316 53.259 37.4391L51.8845 39.3439L51.753 41.0789C51.5625 43.5959 51.7938 43.7084 53.273 41.8179C59.4393 33.9371 59.0043 30.4256 49.7055 13.0144C48.3255 10.4306 47.108 8.31636 46.9998 8.31611C46.8755 8.31561 46.7598 9.05786 46.6858 10.3316ZM20.672 47.2014C18.8005 47.3986 12.848 48.7839 10.951 49.4634C9.72302 49.9034 9.45232 50.1066 9.80402 50.3239C9.96632 50.4241 15.8813 49.7004 18.433 49.2681C20.4475 48.9269 23.8475 48.6424 25.9598 48.6386C28.0503 48.6349 30.0818 48.4536 30.0818 48.2711C30.0818 47.9341 26.7495 47.3459 23.7198 47.1481C23.227 47.1161 22.7028 47.0766 22.5548 47.0606C22.407 47.0444 21.5598 47.1079 20.672 47.2014ZM28.8335 49.9836C27.3718 50.7076 25.351 51.3781 24.9323 51.2779C24.729 51.2291 25.1125 50.9694 26.0048 50.5519C27.5898 49.8096 27.707 49.6024 26.632 49.4431C25.5438 49.2821 24.5048 49.5741 22.5043 50.6034C20.8663 51.4464 19.8753 51.7474 20.138 51.3221C20.2003 51.2214 20.7293 50.8976 21.3135 50.6026C23.5818 49.4576 22.455 49.4599 14.4903 50.6151C7.12532 51.6836 4.54131 52.1896 4.85381 52.5019C5.36932 53.0176 15.433 53.2749 18.8155 52.8589C21.0498 52.5841 21.3168 52.5826 21.9363 52.8416C22.3833 53.0284 23.6928 53.1901 25.7855 53.3174C30.3295 53.5934 31.59 53.2234 33.7223 50.9876C35.501 49.1224 34.5343 49.0074 31.2935 50.6989C28.8918 51.9526 28.8263 51.9776 28.8293 51.6399C28.8303 51.5166 29.3938 51.0529 30.0818 50.6094C31.4293 49.7404 31.5005 49.6466 31.0225 49.3706C30.6428 49.1511 30.3463 49.2341 28.8335 49.9836ZM45.6783 51.8569C45.0098 52.2796 46.1288 52.4951 50.8113 52.8454C56.0443 53.2369 57.7078 53.8046 59.5338 55.8224C61.7873 58.3126 62.1605 59.8066 62.1605 66.3351C62.1605 72.4946 62.3713 73.1899 64.238 73.1899C65.4843 73.1899 65.6903 72.4596 65.1063 70.1101C64.7273 68.5851 64.6198 67.5874 64.492 64.4086C64.2788 59.0901 63.533 56.8204 61.2488 54.5361C59.2483 52.5359 57.657 52.1159 51.2288 51.8926C48.8138 51.8089 46.6365 51.7289 46.39 51.7151C46.1435 51.7014 45.8233 51.7651 45.6783 51.8569ZM54.544 55.1114C54.544 55.4144 55.511 55.5264 55.8883 55.2671C56.118 55.1091 56.0948 55.0301 55.728 54.7229C55.262 54.3321 54.544 54.5679 54.544 55.1114ZM56.3385 56.3404C56.138 56.6649 56.589 57.1949 57.3113 57.4839C58.304 57.8811 58.8625 57.6091 58.435 56.9371C58.077 56.3739 56.581 55.9481 56.3385 56.3404ZM58.4405 58.8979C58.5453 59.2186 59.6965 59.5796 59.9205 59.3616C60.1783 59.1109 59.5208 58.6739 58.8855 58.6739C58.5513 58.6739 58.3933 58.7534 58.4405 58.8979ZM67.8115 59.3209C65.9655 61.1671 65.972 64.3944 67.8373 72.1076C69.1025 77.3399 71.7348 82.3246 76.6418 88.7814C80.1368 93.3801 88.6063 102.043 89.6075 102.043C91.0533 102.043 92.1773 100.792 91.7208 99.6901C91.4518 99.0406 91.3005 99.0444 90.806 99.7134C90.5875 100.009 90.3028 100.251 90.1735 100.251C89.8175 100.251 89.892 99.4621 90.2968 98.9476C90.494 98.6969 90.6553 98.2359 90.6553 97.9231C90.6553 97.5386 90.858 97.1069 91.2808 96.5906C93.4328 93.9646 96.1295 82.9674 95.5065 79.3596C95.2195 77.6974 95.163 77.6296 92.5425 75.8101C89.4698 73.6764 90.0985 73.1551 93.262 75.2136C94.4158 75.9644 94.7638 76.0311 94.5445 75.4599C94.4463 75.2039 90.507 72.3224 89.6565 71.8844C88.982 71.5369 88.6145 71.1174 88.7678 70.8696C88.9305 70.6061 89.8773 71.0351 91.7713 72.2301C93.578 73.3701 93.6845 73.3739 93.1065 72.2784C92.646 71.4049 91.616 70.7241 88.191 69.0291C84.8145 67.3579 86.5095 67.3724 90.1908 69.0461C91.5938 69.6839 91.7288 69.6594 91.3365 68.8366C90.8608 67.8396 90.1668 67.1641 89.273 66.8286C88.8013 66.6516 87.9313 66.2624 87.3398 65.9636C86.7485 65.6651 85.7873 65.2934 85.204 65.1379C83.8478 64.7764 83.6703 64.4086 84.8523 64.4086H85.71L85.0745 63.7366C84.5918 63.2261 83.3185 61.6086 82.6675 60.6791C82.5053 60.4474 80.0778 60.3179 78.5585 60.4601C72.3688 61.0389 67.699 60.8569 69.5083 60.1076C70.211 59.8164 70.1918 59.4431 69.4635 59.2329C68.5823 58.9784 68.13 59.0024 67.8115 59.3209ZM41.1033 61.5174C38.1463 62.4406 35.6125 63.2296 35.473 63.2706C35.284 63.3259 35.2708 63.3971 35.4215 63.5476C35.849 63.9754 50.1535 60.6534 50.1535 60.1266C50.1535 59.1671 47.1558 59.6279 41.1033 61.5174ZM58.74 60.7011C58.847 60.8084 58.9348 61.1259 58.9348 61.4066C58.9348 61.9016 59.946 62.5996 60.682 62.6126C61.443 62.6259 60.8198 61.4544 59.726 60.8156C58.9135 60.3411 58.3098 60.2711 58.74 60.7011ZM50.3403 62.1001C49.3195 63.1336 49.0678 63.5126 49.4018 63.5126C49.8345 63.5126 51.7663 61.6266 51.7663 61.2039C51.7663 60.7979 51.3973 61.0296 50.3403 62.1001ZM47.5548 62.4811C46.858 63.2781 45.4983 64.2531 45.2755 64.1156C45.18 64.0566 45.4395 63.6644 45.8523 63.2436C46.2973 62.7904 46.5255 62.4314 46.4133 62.3621C45.956 62.0794 42.8058 63.2364 42.8058 63.6869C42.8058 63.8909 41.3845 64.4374 41.181 64.3116C41.089 64.2549 41.0135 64.0921 41.0135 63.9501C41.0135 63.6016 40.9148 63.6099 36.7435 64.3061C31.9953 65.0989 31.8348 65.2584 35.2788 65.7626C40.1508 66.4756 47.4293 65.5976 47.7658 64.2564C47.8308 63.9976 48.283 63.3639 48.771 62.8479C49.2978 62.2909 49.618 61.8056 49.5595 61.6529C49.4035 61.2466 48.1993 61.7441 47.5548 62.4811ZM71.002 62.7509C71.0468 62.8249 71.2323 63.5506 71.4143 64.3639C71.7533 65.8786 72.1018 66.2704 72.2908 65.3494C72.5553 64.0609 72.7703 63.4951 72.9688 63.5654C73.227 63.6566 73.2128 63.8334 72.8375 65.2151C72.4158 66.7669 72.4273 68.6306 72.8643 69.6154L73.218 70.4121L73.3793 69.2619C73.4783 68.5546 73.6365 68.0796 73.7895 68.0289C74.0435 67.9446 74.0255 68.6826 73.703 71.5776C73.6058 72.4506 74.391 75.3561 74.6533 75.0939C74.6833 75.0639 74.8893 74.1354 75.111 73.0306C75.52 70.9921 75.9158 70.3559 75.8153 71.8986C75.785 72.3624 75.644 73.2509 75.5018 73.8731C75.1388 75.4606 75.1725 76.6506 75.605 77.4981C76.1135 78.4949 76.2495 78.3931 76.3873 76.9126C76.502 75.6776 76.71 75.1349 76.969 75.3939C77.0345 75.4594 77.0018 76.3669 76.896 77.4106C76.71 79.2504 76.8308 80.3584 77.2175 80.3584C77.2988 80.3584 77.4213 79.8341 77.4898 79.1936C77.582 78.3319 77.6848 78.0286 77.8838 78.0286C78.1143 78.0286 78.135 78.2966 78.0268 79.8834L77.9005 81.7379L78.7035 83.3331C80.8208 87.5389 85.8865 93.8381 88.5478 95.5746C90.1505 96.6204 90.1533 96.6234 89.9285 97.0436C89.7855 97.3106 89.5888 97.3891 89.165 97.3486C88.6288 97.2971 88.5973 97.3264 88.6458 97.8316L88.6973 98.3691L88.1978 97.8186C80.4648 89.2946 77.8918 85.6159 75.2335 79.2831C72.7628 73.3969 69.7913 62.6166 70.6395 62.6166C70.7943 62.6166 70.9573 62.6769 71.002 62.7509ZM58.685 63.2584C58.322 64.2046 58.7645 65.0986 60.0605 66.0376C60.9583 66.6879 61.0853 66.6001 61.0853 65.3284C61.0853 64.1511 60.921 63.8734 59.9205 63.3591C59.046 62.9099 58.8258 62.8919 58.685 63.2584ZM58.5763 67.1886C58.5763 67.6381 58.6963 67.8809 59.0355 68.1189C59.2883 68.2959 59.7233 68.6224 60.0023 68.8441C61.3535 69.9176 61.2828 68.5804 59.9203 67.2916C58.8473 66.2769 58.5763 66.2561 58.5763 67.1886ZM54.141 67.0649C53.1698 67.7564 52.968 68.4749 53.1345 70.6526C53.3125 72.9791 53.2928 73.1741 52.7425 74.5631C52.2398 75.8326 51.0488 83.8806 51.0508 85.9959C51.053 88.4941 51.8363 92.1644 52.753 93.9729C55.534 99.4589 58.9905 102.024 65.325 103.302C70.4095 104.328 72.2665 104.57 76.2305 104.725C79.625 104.857 79.907 104.896 81.517 105.449C83.1543 106.011 83.2595 106.025 84.3273 105.813C85.4935 105.581 85.8648 105.651 85.7035 106.072C85.483 106.646 83.189 106.81 80.7985 106.422L80.1713 106.32L80.6183 106.679C82.7725 108.413 87.6085 107.097 87.6085 104.777C87.6085 103.189 87.1663 102.637 82.8595 98.8549C80.691 96.9504 77.3585 93.8846 75.4543 92.0421C73.5498 90.1994 71.473 88.3466 70.8395 87.9249C70.2058 87.5031 69.6873 87.0596 69.6868 86.9391C69.6865 86.8189 69.3385 86.5776 68.9135 86.4029C67.7735 85.9341 66.8485 85.1101 67.1338 84.8176C67.4878 84.4544 67.4445 84.4089 65.7895 83.4076C63.8033 82.2056 63.5413 81.9824 63.779 81.6956C63.9145 81.5326 63.7265 81.3049 63.0618 80.8271C62.2883 80.2714 62.1605 80.0949 62.1605 79.5801C62.1605 79.2079 62.0245 78.8571 61.8023 78.6559C61.3763 78.2704 61.3418 78.0286 61.7125 78.0286C62.1788 78.0286 62.0073 77.5591 61.2128 76.6591C60.79 76.1804 60.1695 75.4256 59.834 74.9821C59.4983 74.5386 58.8463 73.7676 58.3848 73.2691C57.3428 72.1431 56.9935 71.4781 56.7093 70.0774C56.4973 69.0331 56.4583 68.9756 55.9245 68.9229C55.3023 68.8611 55.2615 68.9431 55.1133 70.5554C54.9555 72.2699 54.4513 71.8284 54.4338 69.9606C54.4198 68.4689 54.62 68.1721 55.6408 68.1721C56.5673 68.1721 56.9778 67.6139 56.5875 66.8846C56.3293 66.4021 54.9268 66.5054 54.141 67.0649ZM81.7793 68.0226C81.826 68.1541 82.0653 68.9069 82.3108 69.6954C82.702 70.9514 85.4343 76.1694 87.2523 79.1324C88.1395 80.5786 88.7933 82.6556 88.4645 82.9844C88.117 83.3319 88.1528 83.3731 86.3305 80.5376C84.5683 77.7951 84.155 77.0014 83.299 74.7134C82.9303 73.7276 82.3208 72.2356 81.9448 71.3979C81.2235 69.7904 80.987 68.0266 81.4705 67.8606C81.5938 67.8184 81.7328 67.8914 81.7793 68.0226ZM60.2615 71.3531C61.0648 72.9184 61.548 73.3271 61.2373 72.1781C61.0975 71.6621 60.1965 70.5019 59.935 70.5019C59.8745 70.5019 60.0213 70.8849 60.2615 71.3531ZM64.3068 74.5364C62.8713 75.2591 62.9038 75.1949 63.5453 76.0404C65.133 78.1331 65.998 78.6279 66.907 77.9631C67.2093 77.7421 67.2183 77.6591 67.001 77.1119C66.61 76.1276 66.5168 76.0676 65.552 76.1819C64.4515 76.3124 64.3638 75.9976 65.3865 75.5884C66.0153 75.3369 66.1033 75.2306 66.1033 74.7236C66.1033 73.7126 65.9698 73.6989 64.3068 74.5364ZM56.635 74.3996C56.7808 74.5721 57.454 75.7214 58.1313 76.9534C61.8078 83.6421 65.9168 89.2394 68.3223 90.8361C68.8678 91.1981 71.3188 93.4849 73.7688 95.9176C76.2188 98.3501 78.9713 101.018 79.8855 101.846C81.6995 103.489 82.0653 104.016 81.699 104.457C81.2925 104.947 80.827 104.752 79.5675 103.564C78.6705 102.717 78.058 102.302 77.3415 102.056C75.7775 101.518 75.5535 101.358 75.651 100.848C75.7095 100.542 75.645 100.372 75.4448 100.306C73.6035 99.7016 72.4998 99.1884 72.7948 99.0739C72.9758 99.0036 73.4153 99.0354 73.7713 99.1446C75.6935 99.7346 74.3023 98.7991 72.062 97.9951C71.0518 97.6326 70.225 97.2709 70.225 97.1911C70.225 96.8691 70.569 96.8819 71.5408 97.2399C72.4965 97.5919 73.0133 97.5814 72.6325 97.2179C72.5405 97.1299 71.5178 96.6744 70.3595 96.2059C69.1468 95.7149 68.2538 95.2521 68.2538 95.1141C68.2538 94.7821 68.4185 94.8086 69.5998 95.3311C71.3083 96.0866 71.2598 95.8194 69.3058 93.7096C66.9095 91.1226 64.9453 88.8224 62.8793 86.1844C61.9538 85.0026 59.972 82.6979 58.4755 81.0631C55.2963 77.5899 54.864 76.9534 55.6835 76.9534C55.878 76.9534 56.5678 77.5866 57.3413 78.4754C59.0965 80.4916 59.091 80.1586 57.3193 77.1281C55.998 74.8681 55.7135 74.0861 56.2133 74.0861C56.2995 74.0861 56.4895 74.2271 56.635 74.3996ZM66.3408 79.0311C66.2055 79.3836 67.7583 81.0019 68.0555 80.8181C68.2795 80.6799 68.1593 79.9989 67.776 79.2384C67.4885 78.6679 66.5333 78.5299 66.3408 79.0311ZM53.8425 81.3191C53.9003 81.4699 53.86 82.1574 53.753 82.8469C53.2905 85.8276 53.617 90.0059 54.548 93.0236C54.9813 94.4279 54.981 94.6954 54.5465 94.6954C53.0923 94.6954 51.8173 85.1589 52.8945 82.3369C53.344 81.1591 53.6535 80.8269 53.8425 81.3191ZM84.8998 86.4964C84.982 86.7181 85.1495 87.3236 85.2718 87.8419C85.419 88.4646 85.6505 88.9066 85.955 89.1461C86.5373 89.6041 86.7598 89.3919 86.5315 88.5961C86.434 88.2559 86.354 87.8309 86.354 87.6519C86.354 86.9699 86.7238 87.6014 87.1583 89.0256C87.842 91.2674 88.7908 92.1284 88.2215 89.9906C87.578 87.5731 88.0273 88.0224 88.9528 90.7219C89.7325 92.9964 89.987 93.2566 90.7403 92.5491C91.233 92.0861 92.4985 92.0884 92.5863 92.5524C92.6573 92.9281 90.7083 95.0539 90.2928 95.0539C89.8183 95.0539 87.2295 93.0551 86.4015 92.0499C85.2888 90.6981 83.4868 88.1416 83.4868 87.9141C83.4868 87.6164 83.94 87.6574 84.2073 87.9794C84.5433 88.3844 84.6323 88.1699 84.5815 87.0761C84.5335 86.0391 84.6508 85.8256 84.8998 86.4964ZM60.6743 91.2846C61.5475 92.8824 62.8373 94.6839 63.79 95.6366C65.3955 97.2421 64.9355 97.4849 62.9945 96.0564C62.3273 95.5654 60.442 92.7421 60.1658 91.8204C59.864 90.8129 60.2145 90.4434 60.6743 91.2846ZM59.6515 98.5711C61.3868 100.037 62.3738 100.527 65.2225 101.333C69.74 102.612 70.5835 102.924 70.5835 103.32C70.5835 103.736 70.057 103.689 67.985 103.087C67.295 102.886 66.1533 102.575 65.4478 102.394C62.4933 101.639 60.6468 100.684 59.2905 99.2124C58.2085 98.0384 57.9218 97.5319 58.363 97.5749C58.431 97.5814 59.011 98.0299 59.6515 98.5711Z" fill="white"/>
</svg>
